0
SECTION
2
HEADER
9
$ACADVER
1
AC1009
0
ENDSEC
0
SECTION
2
TABLES
0
TABLE
2
VPORT
70
1
0
VPORT
2
ACTIVE
70
0
10
0.0
20
0.0
11
0.0
21
0.0
12
0.0
22
0.0
13
0.0
23
0.0
14
0.0
24
0.0
15
0.0
25
0.0
16
0.0
26
0.0
36
0.0
17
0.0
27
0.0
37
0.0
40
0.0
41
0.0
42
0.0
43
0.0
44
0.0
50
0.0
51
0.0
71
0
72
1000
73
1
74
3
75
0
76
0
77
0
78
0
0
ENDTAB
0
ENDSEC
0
SECTION
2
ENTITIES
0
LINE
8
boundary
62
5
39
2
10
6.667527
20
170.622396
11
6.667524
21
158.053130
0
LINE
8
boundary
62
5
39
2
10
6.667524
20
158.053130
11
6.667524
21
153.734127
0
LINE
8
boundary
62
5
39
2
10
6.667524
20
153.734127
11
30.330289
21
153.734127
0
LINE
8
boundary
62
5
39
2
10
30.330289
20
153.734127
11
30.330289
21
151.388127
0
LINE
8
boundary
62
5
39
2
10
30.330289
20
151.388127
11
6.667523
21
151.388127
0
LINE
8
boundary
62
5
39
2
10
6.667523
20
151.388127
11
6.667520
21
128.071043
0
LINE
8
boundary
62
5
39
2
10
6.667520
20
128.071043
11
27.063944
21
128.071043
0
LINE
8
boundary
62
5
39
2
10
27.063944
20
128.071043
11
27.063944
21
125.725043
0
LINE
8
boundary
62
5
39
2
10
27.063944
20
125.725043
11
6.667520
21
125.725043
0
LINE
8
boundary
62
5
39
2
10
6.667520
20
125.725043
11
6.667516
21
102.407960
0
LINE
8
boundary
62
5
39
2
10
6.667516
20
102.407960
11
24.690808
21
102.407960
0
LINE
8
boundary
62
5
39
2
10
24.690808
20
102.407960
11
24.690808
21
100.061960
0
LINE
8
boundary
62
5
39
2
10
24.690808
20
100.061960
11
6.667516
21
100.061960
0
LINE
8
boundary
62
5
39
2
10
6.667516
20
100.061960
11
6.667513
21
76.874876
0
LINE
8
boundary
62
5
39
2
10
6.667513
20
76.874876
11
25.243352
21
76.744876
0
LINE
8
boundary
62
5
39
2
10
25.243352
20
76.744876
11
25.243352
21
74.398876
0
LINE
8
boundary
62
5
39
2
10
25.243352
20
74.398876
11
6.667513
21
74.398876
0
LINE
8
boundary
62
5
39
2
10
6.667513
20
74.398876
11
6.667511
21
59.871308
0
LINE
8
boundary
62
5
39
2
10
6.667511
20
59.871308
11
6.667509
21
51.081793
0
LINE
8
boundary
62
5
39
2
10
6.667509
20
51.081793
11
22.869318
21
51.081793
0
LINE
8
boundary
62
5
39
2
10
22.869318
20
51.081793
11
22.869318
21
48.735793
0
LINE
8
boundary
62
5
39
2
10
22.869318
20
48.735793
11
6.667508
21
48.735793
0
LINE
8
boundary
62
5
39
2
10
6.667508
20
48.735793
11
6.667504
21
25.548707
0
LINE
8
boundary
62
5
39
2
10
6.667504
20
25.548707
11
27.813070
21
25.418709
0
LINE
8
boundary
62
5
39
2
10
27.813070
20
25.418709
11
27.813070
21
23.072709
0
LINE
8
boundary
62
5
39
2
10
27.813070
20
23.072709
11
6.667503
21
23.072709
0
LINE
8
boundary
62
5
39
2
10
6.667503
20
23.072709
11
6.667500
21
6.667515
0
LINE
8
boundary
62
5
39
2
10
6.667500
20
6.667515
11
34.129889
21
6.667500
0
LINE
8
boundary
62
5
39
2
10
34.129889
20
6.667500
11
60.667500
21
6.667508
0
LINE
8
boundary
62
5
39
2
10
60.667500
20
6.667508
11
41.308761
21
34.392324
0
LINE
8
boundary
62
5
39
2
10
41.308761
20
34.392324
11
38.918171
21
51.678465
0
LINE
8
boundary
62
5
39
2
10
38.918171
20
51.678465
11
45.412593
21
59.871279
0
LINE
8
boundary
62
5
39
2
10
45.412593
20
59.871279
11
44.574222
21
68.964575
0
LINE
8
boundary
62
5
39
2
10
44.574222
20
68.964575
11
42.018057
21
96.689414
0
LINE
8
boundary
62
5
39
2
10
42.018057
20
96.689414
11
46.361704
21
122.834885
0
LINE
8
boundary
62
5
39
2
10
46.361704
20
122.834885
11
54.300830
21
153.567194
0
LINE
8
boundary
62
5
39
2
10
54.300830
20
153.567194
11
52.855744
21
158.053067
0
LINE
8
boundary
62
5
39
2
10
52.855744
20
158.053067
11
58.464567
21
161.157433
0
LINE
8
boundary
62
5
39
2
10
58.464567
20
161.157433
11
59.075846
21
165.889907
0
LINE
8
boundary
62
5
39
2
10
59.075846
20
165.889907
11
60.667524
21
170.622361
0
LINE
8
boundary
62
5
39
2
10
60.667524
20
170.622361
11
11.695231
21
170.622388
0
LINE
8
boundary
62
5
39
2
10
11.695231
20
170.622388
11
6.667527
21
170.622396
0
LINE
8
annotation
62
1
39
211
10
32.215770
20
22.165840
11
33.139548
21
22.165840
0
LINE
8
annotation
62
1
39
211
10
33.139548
20
22.165840
11
33.139548
21
22.165840
0
LINE
8
annotation
62
1
39
211
10
33.139548
20
22.165840
11
33.305691
21
22.180744
0
LINE
8
annotation
62
1
39
211
10
33.305691
20
22.180744
11
33.462027
21
22.223699
0
LINE
8
annotation
62
1
39
211
10
33.462027
20
22.223699
11
33.605954
21
22.292067
0
LINE
8
annotation
62
1
39
211
10
33.605954
20
22.292067
11
33.734872
21
22.383213
0
LINE
8
annotation
62
1
39
211
10
33.734872
20
22.383213
11
33.846181
21
22.494499
0
LINE
8
annotation
62
1
39
211
10
33.846181
20
22.494499
11
33.937282
21
22.623289
0
LINE
8
annotation
62
1
39
211
10
33.937282
20
22.623289
11
34.005573
21
22.766945
0
LINE
8
annotation
62
1
39
211
10
34.005573
20
22.766945
11
34.048454
21
22.922832
0
LINE
8
annotation
62
1
39
211
10
34.048454
20
22.922832
11
34.063326
21
23.088313
0
LINE
8
annotation
62
1
39
211
10
34.063326
20
23.088313
11
34.063326
21
23.550854
0
LINE
8
annotation
62
1
39
211
10
34.063326
20
23.550854
11
34.063326
21
23.550854
0
LINE
8
annotation
62
1
39
211
10
34.063326
20
23.550854
11
34.048454
21
23.716266
0
LINE
8
annotation
62
1
39
211
10
34.048454
20
23.716266
11
34.005573
21
23.872116
0
LINE
8
annotation
62
1
39
211
10
34.005573
20
23.872116
11
33.937282
21
24.015762
0
LINE
8
annotation
62
1
39
211
10
33.937282
20
24.015762
11
33.846181
21
24.144561
0
LINE
8
annotation
62
1
39
211
10
33.846181
20
24.144561
11
33.734872
21
24.255868
0
LINE
8
annotation
62
1
39
211
10
33.734872
20
24.255868
11
33.605954
21
24.347042
0
LINE
8
annotation
62
1
39
211
10
33.605954
20
24.347042
11
33.462027
21
24.415438
0
LINE
8
annotation
62
1
39
211
10
33.462027
20
24.415438
11
33.305691
21
24.458415
0
LINE
8
annotation
62
1
39
211
10
33.305691
20
24.458415
11
33.139548
21
24.473327
0
LINE
8
annotation
62
1
39
211
10
33.139548
20
24.473327
11
32.677007
21
24.473327
0
LINE
8
annotation
62
1
39
211
10
32.677007
20
24.473327
11
33.139548
21
24.473327
0
LINE
8
annotation
62
1
39
211
10
33.139548
20
24.473327
11
33.139548
21
24.473327
0
LINE
8
annotation
62
1
39
211
10
33.139548
20
24.473327
11
33.305691
21
24.488244
0
LINE
8
annotation
62
1
39
211
10
33.305691
20
24.488244
11
33.462027
21
24.531245
0
LINE
8
annotation
62
1
39
211
10
33.462027
20
24.531245
11
33.605954
21
24.599710
0
LINE
8
annotation
62
1
39
211
10
33.605954
20
24.599710
11
33.734872
21
24.691016
0
LINE
8
annotation
62
1
39
211
10
33.734872
20
24.691016
11
33.846181
21
24.802541
0
LINE
8
annotation
62
1
39
211
10
33.846181
20
24.802541
11
33.937282
21
24.931665
0
LINE
8
annotation
62
1
39
211
10
33.937282
20
24.931665
11
34.005573
21
25.075766
0
LINE
8
annotation
62
1
39
211
10
34.005573
20
25.075766
11
34.048454
21
25.232221
0
LINE
8
annotation
62
1
39
211
10
34.048454
20
25.232221
11
34.063326
21
25.398410
0
LINE
8
annotation
62
1
39
211
10
34.063326
20
25.398410
11
34.063326
21
25.398410
0
LINE
8
annotation
62
1
39
211
10
34.063326
20
25.398410
11
34.048454
21
25.563821
0
LINE
8
annotation
62
1
39
211
10
34.048454
20
25.563821
11
34.005573
21
25.719672
0
LINE
8
annotation
62
1
39
211
10
34.005573
20
25.719672
11
33.937282
21
25.863318
0
LINE
8
annotation
62
1
39
211
10
33.937282
20
25.863318
11
33.846181
21
25.992116
0
LINE
8
annotation
62
1
39
211
10
33.846181
20
25.992116
11
33.734872
21
26.103424
0
LINE
8
annotation
62
1
39
211
10
33.734872
20
26.103424
11
33.605954
21
26.194597
0
LINE
8
annotation
62
1
39
211
10
33.605954
20
26.194597
11
33.462027
21
26.262994
0
LINE
8
annotation
62
1
39
211
10
33.462027
20
26.262994
11
33.305691
21
26.305970
0
LINE
8
annotation
62
1
39
211
10
33.305691
20
26.305970
11
33.139548
21
26.320883
0
LINE
8
annotation
62
1
39
211
10
33.139548
20
26.320883
11
32.215770
21
26.320883
0
LINE
8
annotation
62
1
39
211
10
29.350714
20
48.753614
11
27.040879
21
48.753614
0
LINE
8
annotation
62
1
39
211
10
27.040879
20
48.753614
11
27.963352
21
51.988793
0
LINE
8
annotation
62
1
39
211
10
28.658338
20
47.828793
11
28.658338
21
49.676348
0
LINE
8
annotation
62
1
39
211
10
29.646052
20
73.491876
11
30.569830
21
73.491876
0
LINE
8
annotation
62
1
39
211
10
30.569830
20
73.491876
11
30.569830
21
73.491876
0
LINE
8
annotation
62
1
39
211
10
30.569830
20
73.491876
11
30.735630
21
73.506784
0
LINE
8
annotation
62
1
39
211
10
30.735630
20
73.506784
11
30.891783
21
73.549761
0
LINE
8
annotation
62
1
39
211
10
30.891783
20
73.549761
11
31.035656
21
73.618191
0
LINE
8
annotation
62
1
39
211
10
31.035656
20
73.618191
11
31.164618
21
73.709456
0
LINE
8
annotation
62
1
39
211
10
31.164618
20
73.709456
11
31.276034
21
73.820938
0
LINE
8
annotation
62
1
39
211
10
31.276034
20
73.820938
11
31.367274
21
73.950021
0
LINE
8
annotation
62
1
39
211
10
31.367274
20
73.950021
11
31.435705
21
74.094087
0
LINE
8
annotation
62
1
39
211
10
31.435705
20
74.094087
11
31.478693
21
74.250518
0
LINE
8
annotation
62
1
39
211
10
31.478693
20
74.250518
11
31.493608
21
74.416697
0
LINE
8
annotation
62
1
39
211
10
31.493608
20
74.416697
11
31.493608
21
74.876891
0
LINE
8
annotation
62
1
39
211
10
31.493608
20
74.876891
11
31.493608
21
74.876891
0
LINE
8
annotation
62
1
39
211
10
31.493608
20
74.876891
11
31.478702
21
75.042990
0
LINE
8
annotation
62
1
39
211
10
31.478702
20
75.042990
11
31.435735
21
75.199205
0
LINE
8
annotation
62
1
39
211
10
31.435735
20
75.199205
11
31.367332
21
75.342958
0
LINE
8
annotation
62
1
39
211
10
31.367332
20
75.342958
11
31.276120
21
75.471671
0
LINE
8
annotation
62
1
39
211
10
31.276120
20
75.471671
11
31.164725
21
75.582764
0
LINE
8
annotation
62
1
39
211
10
31.164725
20
75.582764
11
31.035772
21
75.673658
0
LINE
8
annotation
62
1
39
211
10
31.035772
20
75.673658
11
30.891888
21
75.741776
0
LINE
8
annotation
62
1
39
211
10
30.891888
20
75.741776
11
30.735699
21
75.784537
0
LINE
8
annotation
62
1
39
211
10
30.735699
20
75.784537
11
30.569830
21
75.799364
0
LINE
8
annotation
62
1
39
211
10
30.569830
20
75.799364
11
29.646052
21
75.799364
0
LINE
8
annotation
62
1
39
211
10
29.646052
20
75.799364
11
29.646052
21
77.651876
0
LINE
8
annotation
62
1
39
211
10
29.646052
20
77.651876
11
31.493608
21
77.651876
0
LINE
8
annotation
62
1
39
211
10
30.481132
20
103.314960
11
30.481132
21
103.314960
0
LINE
8
annotation
62
1
39
211
10
30.481132
20
103.314960
11
30.216493
21
103.215736
0
LINE
8
annotation
62
1
39
211
10
30.216493
20
103.215736
11
29.973652
21
103.082044
0
LINE
8
annotation
62
1
39
211
10
29.973652
20
103.082044
11
29.755102
21
102.917233
0
LINE
8
annotation
62
1
39
211
10
29.755102
20
102.917233
11
29.563335
21
102.724653
0
LINE
8
annotation
62
1
39
211
10
29.563335
20
102.724653
11
29.400845
21
102.507653
0
LINE
8
annotation
62
1
39
211
10
29.400845
20
102.507653
11
29.270125
21
102.269583
0
LINE
8
annotation
62
1
39
211
10
29.270125
20
102.269583
11
29.173667
21
102.013792
0
LINE
8
annotation
62
1
39
211
10
29.173667
20
102.013792
11
29.113964
21
101.743630
0
LINE
8
annotation
62
1
39
211
10
29.113964
20
101.743630
11
29.093509
21
101.462447
0
LINE
8
annotation
62
1
39
211
10
29.093509
20
101.462447
11
29.093509
21
100.079781
0
LINE
8
annotation
62
1
39
211
10
29.093509
20
100.079781
11
29.093509
21
100.079781
0
LINE
8
annotation
62
1
39
211
10
29.093509
20
100.079781
11
29.108423
21
99.913602
0
LINE
8
annotation
62
1
39
211
10
29.108423
20
99.913602
11
29.151412
21
99.757170
0
LINE
8
annotation
62
1
39
211
10
29.151412
20
99.757170
11
29.219843
21
99.613104
0
LINE
8
annotation
62
1
39
211
10
29.219843
20
99.613104
11
29.311082
21
99.484022
0
LINE
8
annotation
62
1
39
211
10
29.311082
20
99.484022
11
29.422499
21
99.372539
0
LINE
8
annotation
62
1
39
211
10
29.422499
20
99.372539
11
29.551460
21
99.281274
0
LINE
8
annotation
62
1
39
211
10
29.551460
20
99.281274
11
29.695334
21
99.212844
0
LINE
8
annotation
62
1
39
211
10
29.695334
20
99.212844
11
29.851486
21
99.169867
0
LINE
8
annotation
62
1
39
211
10
29.851486
20
99.169867
11
30.017287
21
99.154960
0
LINE
8
annotation
62
1
39
211
10
30.017287
20
99.154960
11
30.017287
21
99.154960
0
LINE
8
annotation
62
1
39
211
10
30.017287
20
99.154960
11
30.183430
21
99.169867
0
LINE
8
annotation
62
1
39
211
10
30.183430
20
99.169867
11
30.339766
21
99.212844
0
LINE
8
annotation
62
1
39
211
10
30.339766
20
99.212844
11
30.483692
21
99.281274
0
LINE
8
annotation
62
1
39
211
10
30.483692
20
99.281274
11
30.612611
21
99.372539
0
LINE
8
annotation
62
1
39
211
10
30.612611
20
99.372539
11
30.723920
21
99.484022
0
LINE
8
annotation
62
1
39
211
10
30.723920
20
99.484022
11
30.815020
21
99.613104
0
LINE
8
annotation
62
1
39
211
10
30.815020
20
99.613104
11
30.883311
21
99.757170
0
LINE
8
annotation
62
1
39
211
10
30.883311
20
99.757170
11
30.926193
21
99.913602
0
LINE
8
annotation
62
1
39
211
10
30.926193
20
99.913602
11
30.941064
21
100.079781
0
LINE
8
annotation
62
1
39
211
10
30.941064
20
100.079781
11
30.941064
21
100.539974
0
LINE
8
annotation
62
1
39
211
10
30.941064
20
100.539974
11
30.941064
21
100.539974
0
LINE
8
annotation
62
1
39
211
10
30.941064
20
100.539974
11
30.926193
21
100.706073
0
LINE
8
annotation
62
1
39
211
10
30.926193
20
100.706073
11
30.883311
21
100.862289
0
LINE
8
annotation
62
1
39
211
10
30.883311
20
100.862289
11
30.815020
21
101.006042
0
LINE
8
annotation
62
1
39
211
10
30.815020
20
101.006042
11
30.723920
21
101.134754
0
LINE
8
annotation
62
1
39
211
10
30.723920
20
101.134754
11
30.612611
21
101.245847
0
LINE
8
annotation
62
1
39
211
10
30.612611
20
101.245847
11
30.483692
21
101.336742
0
LINE
8
annotation
62
1
39
211
10
30.483692
20
101.336742
11
30.339766
21
101.404859
0
LINE
8
annotation
62
1
39
211
10
30.339766
20
101.404859
11
30.183430
21
101.447621
0
LINE
8
annotation
62
1
39
211
10
30.183430
20
101.447621
11
30.017287
21
101.462447
0
LINE
8
annotation
62
1
39
211
10
30.017287
20
101.462447
11
29.093509
21
101.462447
0
LINE
8
annotation
62
1
39
211
10
28.977808
20
98.634960
11
31.057808
21
98.634960
0
LINE
8
annotation
62
1
39
211
10
32.390422
20
124.818043
11
33.315244
21
128.978043
0
LINE
8
annotation
62
1
39
211
10
33.315244
20
128.978043
11
31.465340
21
128.978043
0
LINE
8
annotation
62
1
39
211
10
33.315244
20
127.125531
11
32.390422
21
127.125531
0
LINE
8
annotation
62
1
39
211
10
34.732989
20
151.403470
11
34.732989
21
151.403470
0
LINE
8
annotation
62
1
39
211
10
34.732989
20
151.403470
11
34.747904
21
151.237371
0
LINE
8
annotation
62
1
39
211
10
34.747904
20
151.237371
11
34.790892
21
151.081155
0
LINE
8
annotation
62
1
39
211
10
34.790892
20
151.081155
11
34.859323
21
150.937402
0
LINE
8
annotation
62
1
39
211
10
34.859323
20
150.937402
11
34.950563
21
150.808689
0
LINE
8
annotation
62
1
39
211
10
34.950563
20
150.808689
11
35.061979
21
150.697597
0
LINE
8
annotation
62
1
39
211
10
35.061979
20
150.697597
11
35.190941
21
150.606702
0
LINE
8
annotation
62
1
39
211
10
35.190941
20
150.606702
11
35.334814
21
150.538585
0
LINE
8
annotation
62
1
39
211
10
35.334814
20
150.538585
11
35.490967
21
150.495823
0
LINE
8
annotation
62
1
39
211
10
35.490967
20
150.495823
11
35.656767
21
150.480996
0
LINE
8
annotation
62
1
39
211
10
35.656767
20
150.480996
11
35.656767
21
150.480996
0
LINE
8
annotation
62
1
39
211
10
35.656767
20
150.480996
11
35.822567
21
150.495823
0
LINE
8
annotation
62
1
39
211
10
35.822567
20
150.495823
11
35.978720
21
150.538585
0
LINE
8
annotation
62
1
39
211
10
35.978720
20
150.538585
11
36.122593
21
150.606702
0
LINE
8
annotation
62
1
39
211
10
36.122593
20
150.606702
11
36.251554
21
150.697597
0
LINE
8
annotation
62
1
39
211
10
36.251554
20
150.697597
11
36.362971
21
150.808689
0
LINE
8
annotation
62
1
39
211
10
36.362971
20
150.808689
11
36.454211
21
150.937402
0
LINE
8
annotation
62
1
39
211
10
36.454211
20
150.937402
11
36.522641
21
151.081155
0
LINE
8
annotation
62
1
39
211
10
36.522641
20
151.081155
11
36.565630
21
151.237371
0
LINE
8
annotation
62
1
39
211
10
36.565630
20
151.237371
11
36.580545
21
151.403470
0
LINE
8
annotation
62
1
39
211
10
36.580545
20
151.403470
11
36.580545
21
151.863663
0
LINE
8
annotation
62
1
39
211
10
36.580545
20
151.863663
11
36.580545
21
151.863663
0
LINE
8
annotation
62
1
39
211
10
36.580545
20
151.863663
11
36.565639
21
152.029842
0
LINE
8
annotation
62
1
39
211
10
36.565639
20
152.029842
11
36.522671
21
152.186274
0
LINE
8
annotation
62
1
39
211
10
36.522671
20
152.186274
11
36.454269
21
152.330339
0
LINE
8
annotation
62
1
39
211
10
36.454269
20
152.330339
11
36.363057
21
152.459422
0
LINE
8
annotation
62
1
39
211
10
36.363057
20
152.459422
11
36.251662
21
152.570905
0
LINE
8
annotation
62
1
39
211
10
36.251662
20
152.570905
11
36.122709
21
152.662170
0
LINE
8
annotation
62
1
39
211
10
36.122709
20
152.662170
11
35.978825
21
152.730599
0
LINE
8
annotation
62
1
39
211
10
35.978825
20
152.730599
11
35.822636
21
152.773577
0
LINE
8
annotation
62
1
39
211
10
35.822636
20
152.773577
11
35.656767
21
152.788484
0
LINE
8
annotation
62
1
39
211
10
35.656767
20
152.788484
11
35.656767
21
152.788484
0
LINE
8
annotation
62
1
39
211
10
35.656767
20
152.788484
11
35.490898
21
152.773568
0
LINE
8
annotation
62
1
39
211
10
35.490898
20
152.773568
11
35.334709
21
152.730569
0
LINE
8
annotation
62
1
39
211
10
35.334709
20
152.730569
11
35.190825
21
152.662112
0
LINE
8
annotation
62
1
39
211
10
35.190825
20
152.662112
11
35.061872
21
152.570819
0
LINE
8
annotation
62
1
39
211
10
35.061872
20
152.570819
11
34.950477
21
152.459315
0
LINE
8
annotation
62
1
39
211
10
34.950477
20
152.459315
11
34.859265
21
152.330223
0
LINE
8
annotation
62
1
39
211
10
34.859265
20
152.330223
11
34.790862
21
152.186168
0
LINE
8
annotation
62
1
39
211
10
34.790862
20
152.186168
11
34.747895
21
152.029774
0
LINE
8
annotation
62
1
39
211
10
34.747895
20
152.029774
11
34.732989
21
151.863663
0
LINE
8
annotation
62
1
39
211
10
34.732989
20
151.863663
11
34.732989
21
151.403470
0
LINE
8
annotation
62
1
39
211
10
36.580545
20
153.713566
11
36.580545
21
153.713566
0
LINE
8
annotation
62
1
39
211
10
36.580545
20
153.713566
11
36.565639
21
153.878978
0
LINE
8
annotation
62
1
39
211
10
36.565639
20
153.878978
11
36.522671
21
154.034829
0
LINE
8
annotation
62
1
39
211
10
36.522671
20
154.034829
11
36.454269
21
154.178475
0
LINE
8
annotation
62
1
39
211
10
36.454269
20
154.178475
11
36.363057
21
154.307273
0
LINE
8
annotation
62
1
39
211
10
36.363057
20
154.307273
11
36.251662
21
154.418580
0
LINE
8
annotation
62
1
39
211
10
36.251662
20
154.418580
11
36.122709
21
154.509754
0
LINE
8
annotation
62
1
39
211
10
36.122709
20
154.509754
11
35.978825
21
154.578151
0
LINE
8
annotation
62
1
39
211
10
35.978825
20
154.578151
11
35.822636
21
154.621127
0
LINE
8
annotation
62
1
39
211
10
35.822636
20
154.621127
11
35.656767
21
154.636040
0
LINE
8
annotation
62
1
39
211
10
35.656767
20
154.636040
11
35.656767
21
154.636040
0
LINE
8
annotation
62
1
39
211
10
35.656767
20
154.636040
11
35.490898
21
154.621127
0
LINE
8
annotation
62
1
39
211
10
35.490898
20
154.621127
11
35.334709
21
154.578151
0
LINE
8
annotation
62
1
39
211
10
35.334709
20
154.578151
11
35.190825
21
154.509754
0
LINE
8
annotation
62
1
39
211
10
35.190825
20
154.509754
11
35.061872
21
154.418580
0
LINE
8
annotation
62
1
39
211
10
35.061872
20
154.418580
11
34.950477
21
154.307273
0
LINE
8
annotation
62
1
39
211
10
34.950477
20
154.307273
11
34.859265
21
154.178475
0
LINE
8
annotation
62
1
39
211
10
34.859265
20
154.178475
11
34.790862
21
154.034829
0
LINE
8
annotation
62
1
39
211
10
34.790862
20
154.034829
11
34.747895
21
153.878978
0
LINE
8
annotation
62
1
39
211
10
34.747895
20
153.878978
11
34.732989
21
153.713566
0
LINE
8
annotation
62
1
39
211
10
34.732989
20
153.713566
11
34.732989
21
153.713566
0
LINE
8
annotation
62
1
39
211
10
34.732989
20
153.713566
11
34.747904
21
153.547378
0
LINE
8
annotation
62
1
39
211
10
34.747904
20
153.547378
11
34.790892
21
153.390923
0
LINE
8
annotation
62
1
39
211
10
34.790892
20
153.390923
11
34.859323
21
153.246822
0
LINE
8
annotation
62
1
39
211
10
34.859323
20
153.246822
11
34.950563
21
153.117698
0
LINE
8
annotation
62
1
39
211
10
34.950563
20
153.117698
11
35.061979
21
153.006172
0
LINE
8
annotation
62
1
39
211
10
35.061979
20
153.006172
11
35.190941
21
152.914866
0
LINE
8
annotation
62
1
39
211
10
35.190941
20
152.914866
11
35.334814
21
152.846402
0
LINE
8
annotation
62
1
39
211
10
35.334814
20
152.846402
11
35.490967
21
152.803400
0
LINE
8
annotation
62
1
39
211
10
35.490967
20
152.803400
11
35.656767
21
152.788484
0
LINE
8
annotation
62
1
39
211
10
35.656767
20
152.788484
11
35.656767
21
152.788484
0
LINE
8
annotation
62
1
39
211
10
35.656767
20
152.788484
11
35.822567
21
152.803400
0
LINE
8
annotation
62
1
39
211
10
35.822567
20
152.803400
11
35.978720
21
152.846402
0
LINE
8
annotation
62
1
39
211
10
35.978720
20
152.846402
11
36.122593
21
152.914866
0
LINE
8
annotation
62
1
39
211
10
36.122593
20
152.914866
11
36.251554
21
153.006172
0
LINE
8
annotation
62
1
39
211
10
36.251554
20
153.006172
11
36.362971
21
153.117698
0
LINE
8
annotation
62
1
39
211
10
36.362971
20
153.117698
11
36.454211
21
153.246822
0
LINE
8
annotation
62
1
39
211
10
36.454211
20
153.246822
11
36.522641
21
153.390923
0
LINE
8
annotation
62
1
39
211
10
36.522641
20
153.390923
11
36.565630
21
153.547378
0
LINE
8
annotation
62
1
39
211
10
36.565630
20
153.547378
11
36.580545
21
153.713566
0
LINE
8
annotation
62
1
39
211
10
30.496712
20
68.538154
11
28.528069
21
65.690692
0
LINE
8
annotation
62
1
39
211
10
28.528069
20
65.690692
11
26.559056
21
68.538154
0
LINE
8
annotation
62
1
39
211
10
28.528069
20
65.919837
11
28.528069
21
62.634817
0
LINE
8
annotation
62
1
39
211
10
35.938705
20
65.586485
11
32.711064
21
65.586485
0
LINE
8
annotation
62
1
39
211
10
40.773857
20
62.634954
11
38.152208
21
62.634954
0
LINE
8
annotation
62
1
39
211
10
38.152208
20
62.634954
11
40.574697
21
66.534851
0
LINE
8
annotation
62
1
39
211
10
40.574697
20
66.534851
11
40.574697
21
66.534851
0
LINE
8
annotation
62
1
39
211
10
40.574697
20
66.534851
11
40.577593
21
66.538434
0
LINE
8
annotation
62
1
39
211
10
40.577593
20
66.538434
11
40.580371
21
66.542048
0
LINE
8
annotation
62
1
39
211
10
40.580371
20
66.542048
11
40.583047
21
66.545723
0
LINE
8
annotation
62
1
39
211
10
40.583047
20
66.545723
11
40.585642
21
66.549489
0
LINE
8
annotation
62
1
39
211
10
40.585642
20
66.549489
11
40.588172
21
66.553378
0
LINE
8
annotation
62
1
39
211
10
40.588172
20
66.553378
11
40.590657
21
66.557418
0
LINE
8
annotation
62
1
39
211
10
40.590657
20
66.557418
11
40.593114
21
66.561642
0
LINE
8
annotation
62
1
39
211
10
40.593114
20
66.561642
11
40.595562
21
66.566078
0
LINE
8
annotation
62
1
39
211
10
40.595562
20
66.566078
11
40.598019
21
66.570759
0
LINE
8
annotation
62
1
39
211
10
40.598019
20
66.570759
11
40.598019
21
66.570759
0
LINE
8
annotation
62
1
39
211
10
40.598019
20
66.570759
11
40.698043
21
66.785519
0
LINE
8
annotation
62
1
39
211
10
40.698043
20
66.785519
11
40.756475
21
67.008136
0
LINE
8
annotation
62
1
39
211
10
40.756475
20
67.008136
11
40.774748
21
67.233581
0
LINE
8
annotation
62
1
39
211
10
40.774748
20
67.233581
11
40.754293
21
67.456824
0
LINE
8
annotation
62
1
39
211
10
40.754293
20
67.456824
11
40.696542
21
67.672833
0
LINE
8
annotation
62
1
39
211
10
40.696542
20
67.672833
11
40.602927
21
67.876579
0
LINE
8
annotation
62
1
39
211
10
40.602927
20
67.876579
11
40.474881
21
68.063031
0
LINE
8
annotation
62
1
39
211
10
40.474881
20
68.063031
11
40.313835
21
68.227159
0
LINE
8
annotation
62
1
39
211
10
40.313835
20
68.227159
11
40.121221
21
68.363934
0
LINE
8
annotation
62
1
39
211
10
40.121221
20
68.363934
11
40.121221
21
68.363934
0
LINE
8
annotation
62
1
39
211
10
40.121221
20
68.363934
11
39.905864
21
68.462536
0
LINE
8
annotation
62
1
39
211
10
39.905864
20
68.462536
11
39.682905
21
68.520068
0
LINE
8
annotation
62
1
39
211
10
39.682905
20
68.520068
11
39.457329
21
68.537825
0
LINE
8
annotation
62
1
39
211
10
39.457329
20
68.537825
11
39.234120
21
68.517100
0
LINE
8
annotation
62
1
39
211
10
39.234120
20
68.517100
11
39.018263
21
68.459189
0
LINE
8
annotation
62
1
39
211
10
39.018263
20
68.459189
11
38.814743
21
68.365387
0
LINE
8
annotation
62
1
39
211
10
38.814743
20
68.365387
11
38.628544
21
68.236989
0
LINE
8
annotation
62
1
39
211
10
38.628544
20
68.236989
11
38.464650
21
68.075289
0
LINE
8
annotation
62
1
39
211
10
38.464650
20
68.075289
11
38.328046
21
67.881583
0
LINE
8
annotation
62
1
39
211
10
38.328046
20
67.881583
11
38.155910
21
67.551378
0
LINE
8
boundary
62
5
39
2
10
76.946269
20
166.537360
11
63.842524
21
166.537365
0
LINE
8
boundary
62
5
39
2
10
63.842524
20
166.537365
11
63.842526
21
86.602377
0
LINE
8
boundary
62
5
39
2
10
63.842526
20
86.602377
11
63.842524
21
6.667500
0
LINE
8
boundary
62
5
39
2
10
63.842524
20
6.667500
11
76.946322
21
6.667543
0
LINE
8
boundary
62
5
39
2
10
76.946322
20
6.667543
11
117.842526
21
6.667591
0
LINE
8
boundary
62
5
39
2
10
117.842526
20
6.667591
11
116.734393
21
13.509232
0
LINE
8
boundary
62
5
39
2
10
116.734393
20
13.509232
11
90.404931
21
13.639232
0
LINE
8
boundary
62
5
39
2
10
90.404931
20
13.639232
11
90.404931
21
15.985232
0
LINE
8
boundary
62
5
39
2
10
90.404931
20
15.985232
11
116.322002
21
15.985232
0
LINE
8
boundary
62
5
39
2
10
116.322002
20
15.985232
11
112.837414
21
37.569284
0
LINE
8
boundary
62
5
39
2
10
112.837414
20
37.569284
11
88.466970
21
37.569284
0
LINE
8
boundary
62
5
39
2
10
88.466970
20
37.569284
11
88.466969
21
39.915284
0
LINE
8
boundary
62
5
39
2
10
88.466969
20
39.915284
11
112.446079
21
39.915284
0
LINE
8
boundary
62
5
39
2
10
112.446079
20
39.915284
11
109.867764
21
55.903982
0
LINE
8
boundary
62
5
39
2
10
109.867764
20
55.903982
11
107.831388
21
61.499337
0
LINE
8
boundary
62
5
39
2
10
107.831388
20
61.499337
11
85.963957
21
61.499337
0
LINE
8
boundary
62
5
39
2
10
85.963957
20
61.499337
11
85.963957
21
63.845337
0
LINE
8
boundary
62
5
39
2
10
85.963957
20
63.845337
11
106.939972
21
63.845337
0
LINE
8
boundary
62
5
39
2
10
106.939972
20
63.845337
11
101.892989
21
77.816292
0
LINE
8
boundary
62
5
39
2
10
101.892989
20
77.816292
11
88.308830
21
85.299389
0
LINE
8
boundary
62
5
39
2
10
88.308830
20
85.299389
11
75.506006
21
85.429389
0
LINE
8
boundary
62
5
39
2
10
75.506006
20
85.429389
11
75.506006
21
87.775389
0
LINE
8
boundary
62
5
39
2
10
75.506006
20
87.775389
11
88.072808
21
87.775389
0
LINE
8
boundary
62
5
39
2
10
88.072808
20
87.775389
11
101.892983
21
95.388515
0
LINE
8
boundary
62
5
39
2
10
101.892983
20
95.388515
11
106.930256
21
109.229442
0
LINE
8
boundary
62
5
39
2
10
106.930256
20
109.229442
11
85.963949
21
109.359442
0
LINE
8
boundary
62
5
39
2
10
85.963949
20
109.359442
11
85.963949
21
111.705442
0
LINE
8
boundary
62
5
39
2
10
85.963949
20
111.705442
11
107.831372
21
111.705442
0
LINE
8
boundary
62
5
39
2
10
107.831372
20
111.705442
11
109.867757
21
117.300820
0
LINE
8
boundary
62
5
39
2
10
109.867757
20
117.300820
11
112.436365
21
133.159495
0
LINE
8
boundary
62
5
39
2
10
112.436365
20
133.159495
11
88.466962
21
133.289494
0
LINE
8
boundary
62
5
39
2
10
88.466962
20
133.289494
11
88.466962
21
135.635494
0
LINE
8
boundary
62
5
39
2
10
88.466962
20
135.635494
11
112.837400
21
135.635494
0
LINE
8
boundary
62
5
39
2
10
112.837400
20
135.635494
11
116.312284
21
157.089549
0
LINE
8
boundary
62
5
39
2
10
116.312284
20
157.089549
11
90.404921
21
157.219547
0
LINE
8
boundary
62
5
39
2
10
90.404921
20
157.219547
11
90.404921
21
159.565547
0
LINE
8
boundary
62
5
39
2
10
90.404921
20
159.565547
11
116.713318
21
159.565547
0
LINE
8
boundary
62
5
39
2
10
116.713318
20
159.565547
11
117.842526
21
166.537312
0
LINE
8
boundary
62
5
39
2
10
117.842526
20
166.537312
11
76.946269
21
166.537360
0
LINE
8
annotation
62
1
39
211
10
84.153631
20
12.732362
11
85.077409
21
12.732362
0
LINE
8
annotation
62
1
39
211
10
85.077409
20
12.732362
11
85.077409
21
12.732362
0
LINE
8
annotation
62
1
39
211
10
85.077409
20
12.732362
11
85.243553
21
12.747266
0
LINE
8
annotation
62
1
39
211
10
85.243553
20
12.747266
11
85.399888
21
12.790221
0
LINE
8
annotation
62
1
39
211
10
85.399888
20
12.790221
11
85.543815
21
12.858590
0
LINE
8
annotation
62
1
39
211
10
85.543815
20
12.858590
11
85.672733
21
12.949735
0
LINE
8
annotation
62
1
39
211
10
85.672733
20
12.949735
11
85.784043
21
13.061022
0
LINE
8
annotation
62
1
39
211
10
85.784043
20
13.061022
11
85.875143
21
13.189811
0
LINE
8
annotation
62
1
39
211
10
85.875143
20
13.189811
11
85.943434
21
13.333468
0
LINE
8
annotation
62
1
39
211
10
85.943434
20
13.333468
11
85.986315
21
13.489355
0
LINE
8
annotation
62
1
39
211
10
85.986315
20
13.489355
11
86.001187
21
13.654836
0
LINE
8
annotation
62
1
39
211
10
86.001187
20
13.654836
11
86.001187
21
14.117377
0
LINE
8
annotation
62
1
39
211
10
86.001187
20
14.117377
11
86.001187
21
14.117377
0
LINE
8
annotation
62
1
39
211
10
86.001187
20
14.117377
11
85.986315
21
14.282788
0
LINE
8
annotation
62
1
39
211
10
85.986315
20
14.282788
11
85.943434
21
14.438639
0
LINE
8
annotation
62
1
39
211
10
85.943434
20
14.438639
11
85.875143
21
14.582285
0
LINE
8
annotation
62
1
39
211
10
85.875143
20
14.582285
11
85.784043
21
14.711083
0
LINE
8
annotation
62
1
39
211
10
85.784043
20
14.711083
11
85.672733
21
14.822391
0
LINE
8
annotation
62
1
39
211
10
85.672733
20
14.822391
11
85.543815
21
14.913565
0
LINE
8
annotation
62
1
39
211
10
85.543815
20
14.913565
11
85.399888
21
14.981961
0
LINE
8
annotation
62
1
39
211
10
85.399888
20
14.981961
11
85.243553
21
15.024937
0
LINE
8
annotation
62
1
39
211
10
85.243553
20
15.024937
11
85.077409
21
15.039850
0
LINE
8
annotation
62
1
39
211
10
85.077409
20
15.039850
11
84.614868
21
15.039850
0
LINE
8
annotation
62
1
39
211
10
84.614868
20
15.039850
11
85.077409
21
15.039850
0
LINE
8
annotation
62
1
39
211
10
85.077409
20
15.039850
11
85.077409
21
15.039850
0
LINE
8
annotation
62
1
39
211
10
85.077409
20
15.039850
11
85.243553
21
15.054766
0
LINE
8
annotation
62
1
39
211
10
85.243553
20
15.054766
11
85.399888
21
15.097768
0
LINE
8
annotation
62
1
39
211
10
85.399888
20
15.097768
11
85.543815
21
15.166232
0
LINE
8
annotation
62
1
39
211
10
85.543815
20
15.166232
11
85.672733
21
15.257538
0
LINE
8
annotation
62
1
39
211
10
85.672733
20
15.257538
11
85.784043
21
15.369064
0
LINE
8
annotation
62
1
39
211
10
85.784043
20
15.369064
11
85.875143
21
15.498188
0
LINE
8
annotation
62
1
39
211
10
85.875143
20
15.498188
11
85.943434
21
15.642288
0
LINE
8
annotation
62
1
39
211
10
85.943434
20
15.642288
11
85.986315
21
15.798744
0
LINE
8
annotation
62
1
39
211
10
85.986315
20
15.798744
11
86.001187
21
15.964932
0
LINE
8
annotation
62
1
39
211
10
86.001187
20
15.964932
11
86.001187
21
15.964932
0
LINE
8
annotation
62
1
39
211
10
86.001187
20
15.964932
11
85.986315
21
16.130344
0
LINE
8
annotation
62
1
39
211
10
85.986315
20
16.130344
11
85.943434
21
16.286194
0
LINE
8
annotation
62
1
39
211
10
85.943434
20
16.286194
11
85.875143
21
16.429840
0
LINE
8
annotation
62
1
39
211
10
85.875143
20
16.429840
11
85.784043
21
16.558639
0
LINE
8
annotation
62
1
39
211
10
85.784043
20
16.558639
11
85.672733
21
16.669946
0
LINE
8
annotation
62
1
39
211
10
85.672733
20
16.669946
11
85.543815
21
16.761120
0
LINE
8
annotation
62
1
39
211
10
85.543815
20
16.761120
11
85.399888
21
16.829517
0
LINE
8
annotation
62
1
39
211
10
85.399888
20
16.829517
11
85.243553
21
16.872493
0
LINE
8
annotation
62
1
39
211
10
85.243553
20
16.872493
11
85.077409
21
16.887405
0
LINE
8
annotation
62
1
39
211
10
85.077409
20
16.887405
11
84.153631
21
16.887405
0
LINE
8
annotation
62
1
39
211
10
84.294366
20
37.587106
11
81.984530
21
37.587106
0
LINE
8
annotation
62
1
39
211
10
81.984530
20
37.587106
11
82.907003
21
40.822284
0
LINE
8
annotation
62
1
39
211
10
83.601989
20
36.662284
11
83.601989
21
38.509840
0
LINE
8
annotation
62
1
39
211
10
79.712657
20
60.592337
11
80.636435
21
60.592337
0
LINE
8
annotation
62
1
39
211
10
80.636435
20
60.592337
11
80.636435
21
60.592337
0
LINE
8
annotation
62
1
39
211
10
80.636435
20
60.592337
11
80.802235
21
60.607244
0
LINE
8
annotation
62
1
39
211
10
80.802235
20
60.607244
11
80.958388
21
60.650221
0
LINE
8
annotation
62
1
39
211
10
80.958388
20
60.650221
11
81.102261
21
60.718651
0
LINE
8
annotation
62
1
39
211
10
81.102261
20
60.718651
11
81.231223
21
60.809916
0
LINE
8
annotation
62
1
39
211
10
81.231223
20
60.809916
11
81.342639
21
60.921399
0
LINE
8
annotation
62
1
39
211
10
81.342639
20
60.921399
11
81.433879
21
61.050482
0
LINE
8
annotation
62
1
39
211
10
81.433879
20
61.050482
11
81.502310
21
61.194547
0
LINE
8
annotation
62
1
39
211
10
81.502310
20
61.194547
11
81.545298
21
61.350979
0
LINE
8
annotation
62
1
39
211
10
81.545298
20
61.350979
11
81.560213
21
61.517158
0
LINE
8
annotation
62
1
39
211
10
81.560213
20
61.517158
11
81.560213
21
61.977351
0
LINE
8
annotation
62
1
39
211
10
81.560213
20
61.977351
11
81.560213
21
61.977351
0
LINE
8
annotation
62
1
39
211
10
81.560213
20
61.977351
11
81.545307
21
62.143450
0
LINE
8
annotation
62
1
39
211
10
81.545307
20
62.143450
11
81.502340
21
62.299666
0
LINE
8
annotation
62
1
39
211
10
81.502340
20
62.299666
11
81.433937
21
62.443419
0
LINE
8
annotation
62
1
39
211
10
81.433937
20
62.443419
11
81.342725
21
62.572131
0
LINE
8
annotation
62
1
39
211
10
81.342725
20
62.572131
11
81.231330
21
62.683224
0
LINE
8
annotation
62
1
39
211
10
81.231330
20
62.683224
11
81.102377
21
62.774119
0
LINE
8
annotation
62
1
39
211
10
81.102377
20
62.774119
11
80.958493
21
62.842236
0
LINE
8
annotation
62
1
39
211
10
80.958493
20
62.842236
11
80.802304
21
62.884998
0
LINE
8
annotation
62
1
39
211
10
80.802304
20
62.884998
11
80.636435
21
62.899825
0
LINE
8
annotation
62
1
39
211
10
80.636435
20
62.899825
11
79.712657
21
62.899825
0
LINE
8
annotation
62
1
39
211
10
79.712657
20
62.899825
11
79.712657
21
64.752337
0
LINE
8
annotation
62
1
39
211
10
79.712657
20
64.752337
11
81.560213
21
64.752337
0
LINE
8
annotation
62
1
39
211
10
70.642330
20
88.682389
11
70.642330
21
88.682389
0
LINE
8
annotation
62
1
39
211
10
70.642330
20
88.682389
11
70.377691
21
88.583166
0
LINE
8
annotation
62
1
39
211
10
70.377691
20
88.583166
11
70.134850
21
88.449473
0
LINE
8
annotation
62
1
39
211
10
70.134850
20
88.449473
11
69.916300
21
88.284663
0
LINE
8
annotation
62
1
39
211
10
69.916300
20
88.284663
11
69.724533
21
88.092082
0
LINE
8
annotation
62
1
39
211
10
69.724533
20
88.092082
11
69.562043
21
87.875082
0
LINE
8
annotation
62
1
39
211
10
69.562043
20
87.875082
11
69.431323
21
87.637012
0
LINE
8
annotation
62
1
39
211
10
69.431323
20
87.637012
11
69.334865
21
87.381222
0
LINE
8
annotation
62
1
39
211
10
69.334865
20
87.381222
11
69.275162
21
87.111060
0
LINE
8
annotation
62
1
39
211
10
69.275162
20
87.111060
11
69.254707
21
86.829877
0
LINE
8
annotation
62
1
39
211
10
69.254707
20
86.829877
11
69.254707
21
85.447211
0
LINE
8
annotation
62
1
39
211
10
69.254707
20
85.447211
11
69.254707
21
85.447211
0
LINE
8
annotation
62
1
39
211
10
69.254707
20
85.447211
11
69.269621
21
85.281031
0
LINE
8
annotation
62
1
39
211
10
69.269621
20
85.281031
11
69.312610
21
85.124600
0
LINE
8
annotation
62
1
39
211
10
69.312610
20
85.124600
11
69.381041
21
84.980534
0
LINE
8
annotation
62
1
39
211
10
69.381041
20
84.980534
11
69.472280
21
84.851451
0
LINE
8
annotation
62
1
39
211
10
69.472280
20
84.851451
11
69.583697
21
84.739969
0
LINE
8
annotation
62
1
39
211
10
69.583697
20
84.739969
11
69.712658
21
84.648704
0
LINE
8
annotation
62
1
39
211
10
69.712658
20
84.648704
11
69.856532
21
84.580274
0
LINE
8
annotation
62
1
39
211
10
69.856532
20
84.580274
11
70.012684
21
84.537297
0
LINE
8
annotation
62
1
39
211
10
70.012684
20
84.537297
11
70.178485
21
84.522389
0
LINE
8
annotation
62
1
39
211
10
70.178485
20
84.522389
11
70.178485
21
84.522389
0
LINE
8
annotation
62
1
39
211
10
70.178485
20
84.522389
11
70.344628
21
84.537297
0
LINE
8
annotation
62
1
39
211
10
70.344628
20
84.537297
11
70.500964
21
84.580274
0
LINE
8
annotation
62
1
39
211
10
70.500964
20
84.580274
11
70.644891
21
84.648704
0
LINE
8
annotation
62
1
39
211
10
70.644891
20
84.648704
11
70.773809
21
84.739969
0
LINE
8
annotation
62
1
39
211
10
70.773809
20
84.739969
11
70.885118
21
84.851451
0
LINE
8
annotation
62
1
39
211
10
70.885118
20
84.851451
11
70.976218
21
84.980534
0
LINE
8
annotation
62
1
39
211
10
70.976218
20
84.980534
11
71.044509
21
85.124600
0
LINE
8
annotation
62
1
39
211
10
71.044509
20
85.124600
11
71.087391
21
85.281031
0
LINE
8
annotation
62
1
39
211
10
71.087391
20
85.281031
11
71.102262
21
85.447211
0
LINE
8
annotation
62
1
39
211
10
71.102262
20
85.447211
11
71.102262
21
85.907404
0
LINE
8
annotation
62
1
39
211
10
71.102262
20
85.907404
11
71.102262
21
85.907404
0
LINE
8
annotation
62
1
39
211
10
71.102262
20
85.907404
11
71.087391
21
86.073503
0
LINE
8
annotation
62
1
39
211
10
71.087391
20
86.073503
11
71.044509
21
86.229718
0
LINE
8
annotation
62
1
39
211
10
71.044509
20
86.229718
11
70.976218
21
86.373472
0
LINE
8
annotation
62
1
39
211
10
70.976218
20
86.373472
11
70.885118
21
86.502184
0
LINE
8
annotation
62
1
39
211
10
70.885118
20
86.502184
11
70.773809
21
86.613277
0
LINE
8
annotation
62
1
39
211
10
70.773809
20
86.613277
11
70.644891
21
86.704171
0
LINE
8
annotation
62
1
39
211
10
70.644891
20
86.704171
11
70.500964
21
86.772289
0
LINE
8
annotation
62
1
39
211
10
70.500964
20
86.772289
11
70.344628
21
86.815050
0
LINE
8
annotation
62
1
39
211
10
70.344628
20
86.815050
11
70.178485
21
86.829877
0
LINE
8
annotation
62
1
39
211
10
70.178485
20
86.829877
11
69.254707
21
86.829877
0
LINE
8
annotation
62
1
39
211
10
69.139006
20
84.002389
11
71.219006
21
84.002389
0
LINE
8
annotation
62
1
39
211
10
80.636427
20
108.452442
11
81.561248
21
112.612442
0
LINE
8
annotation
62
1
39
211
10
81.561248
20
112.612442
11
79.711345
21
112.612442
0
LINE
8
annotation
62
1
39
211
10
81.561248
20
110.759930
11
80.636427
21
110.759930
0
LINE
8
annotation
62
1
39
211
10
82.215663
20
133.304837
11
82.215663
21
133.304837
0
LINE
8
annotation
62
1
39
211
10
82.215663
20
133.304837
11
82.230577
21
133.138738
0
LINE
8
annotation
62
1
39
211
10
82.230577
20
133.138738
11
82.273566
21
132.982523
0
LINE
8
annotation
62
1
39
211
10
82.273566
20
132.982523
11
82.341996
21
132.838769
0
LINE
8
annotation
62
1
39
211
10
82.341996
20
132.838769
11
82.433236
21
132.710057
0
LINE
8
annotation
62
1
39
211
10
82.433236
20
132.710057
11
82.544653
21
132.598964
0
LINE
8
annotation
62
1
39
211
10
82.544653
20
132.598964
11
82.673614
21
132.508070
0
LINE
8
annotation
62
1
39
211
10
82.673614
20
132.508070
11
82.817487
21
132.439952
0
LINE
8
annotation
62
1
39
211
10
82.817487
20
132.439952
11
82.973640
21
132.397191
0
LINE
8
annotation
62
1
39
211
10
82.973640
20
132.397191
11
83.139440
21
132.382364
0
LINE
8
annotation
62
1
39
211
10
83.139440
20
132.382364
11
83.139440
21
132.382364
0
LINE
8
annotation
62
1
39
211
10
83.139440
20
132.382364
11
83.305241
21
132.397191
0
LINE
8
annotation
62
1
39
211
10
83.305241
20
132.397191
11
83.461393
21
132.439952
0
LINE
8
annotation
62
1
39
211
10
83.461393
20
132.439952
11
83.605267
21
132.508070
0
LINE
8
annotation
62
1
39
211
10
83.605267
20
132.508070
11
83.734228
21
132.598964
0
LINE
8
annotation
62
1
39
211
10
83.734228
20
132.598964
11
83.845645
21
132.710057
0
LINE
8
annotation
62
1
39
211
10
83.845645
20
132.710057
11
83.936884
21
132.838769
0
LINE
8
annotation
62
1
39
211
10
83.936884
20
132.838769
11
84.005315
21
132.982523
0
LINE
8
annotation
62
1
39
211
10
84.005315
20
132.982523
11
84.048304
21
133.138738
0
LINE
8
annotation
62
1
39
211
10
84.048304
20
133.138738
11
84.063218
21
133.304837
0
LINE
8
annotation
62
1
39
211
10
84.063218
20
133.304837
11
84.063218
21
133.765030
0
LINE
8
annotation
62
1
39
211
10
84.063218
20
133.765030
11
84.063218
21
133.765030
0
LINE
8
annotation
62
1
39
211
10
84.063218
20
133.765030
11
84.048312
21
133.931210
0
LINE
8
annotation
62
1
39
211
10
84.048312
20
133.931210
11
84.005345
21
134.087641
0
LINE
8
annotation
62
1
39
211
10
84.005345
20
134.087641
11
83.936942
21
134.231707
0
LINE
8
annotation
62
1
39
211
10
83.936942
20
134.231707
11
83.845730
21
134.360790
0
LINE
8
annotation
62
1
39
211
10
83.845730
20
134.360790
11
83.734335
21
134.472272
0
LINE
8
annotation
62
1
39
211
10
83.734335
20
134.472272
11
83.605383
21
134.563537
0
LINE
8
annotation
62
1
39
211
10
83.605383
20
134.563537
11
83.461499
21
134.631967
0
LINE
8
annotation
62
1
39
211
10
83.461499
20
134.631967
11
83.305309
21
134.674944
0
LINE
8
annotation
62
1
39
211
10
83.305309
20
134.674944
11
83.139440
21
134.689852
0
LINE
8
annotation
62
1
39
211
10
83.139440
20
134.689852
11
83.139440
21
134.689852
0
LINE
8
annotation
62
1
39
211
10
83.139440
20
134.689852
11
82.973572
21
134.674936
0
LINE
8
annotation
62
1
39
211
10
82.973572
20
134.674936
11
82.817382
21
134.631937
0
LINE
8
annotation
62
1
39
211
10
82.817382
20
134.631937
11
82.673498
21
134.563479
0
LINE
8
annotation
62
1
39
211
10
82.673498
20
134.563479
11
82.544546
21
134.472186
0
LINE
8
annotation
62
1
39
211
10
82.544546
20
134.472186
11
82.433150
21
134.360682
0
LINE
8
annotation
62
1
39
211
10
82.433150
20
134.360682
11
82.341938
21
134.231591
0
LINE
8
annotation
62
1
39
211
10
82.341938
20
134.231591
11
82.273536
21
134.087536
0
LINE
8
annotation
62
1
39
211
10
82.273536
20
134.087536
11
82.230569
21
133.931141
0
LINE
8
annotation
62
1
39
211
10
82.230569
20
133.931141
11
82.215663
21
133.765030
0
LINE
8
annotation
62
1
39
211
10
82.215663
20
133.765030
11
82.215663
21
133.304837
0
LINE
8
annotation
62
1
39
211
10
84.063218
20
135.614934
11
84.063218
21
135.614934
0
LINE
8
annotation
62
1
39
211
10
84.063218
20
135.614934
11
84.048312
21
135.780346
0
LINE
8
annotation
62
1
39
211
10
84.048312
20
135.780346
11
84.005345
21
135.936196
0
LINE
8
annotation
62
1
39
211
10
84.005345
20
135.936196
11
83.936942
21
136.079842
0
LINE
8
annotation
62
1
39
211
10
83.936942
20
136.079842
11
83.845730
21
136.208640
0
LINE
8
annotation
62
1
39
211
10
83.845730
20
136.208640
11
83.734335
21
136.319948
0
LINE
8
annotation
62
1
39
211
10
83.734335
20
136.319948
11
83.605383
21
136.411122
0
LINE
8
annotation
62
1
39
211
10
83.605383
20
136.411122
11
83.461499
21
136.479518
0
LINE
8
annotation
62
1
39
211
10
83.461499
20
136.479518
11
83.305309
21
136.522494
0
LINE
8
annotation
62
1
39
211
10
83.305309
20
136.522494
11
83.139440
21
136.537407
0
LINE
8
annotation
62
1
39
211
10
83.139440
20
136.537407
11
83.139440
21
136.537407
0
LINE
8
annotation
62
1
39
211
10
83.139440
20
136.537407
11
82.973572
21
136.522494
0
LINE
8
annotation
62
1
39
211
10
82.973572
20
136.522494
11
82.817382
21
136.479518
0
LINE
8
annotation
62
1
39
211
10
82.817382
20
136.479518
11
82.673498
21
136.411122
0
LINE
8
annotation
62
1
39
211
10
82.673498
20
136.411122
11
82.544546
21
136.319948
0
LINE
8
annotation
62
1
39
211
10
82.544546
20
136.319948
11
82.433150
21
136.208640
0
LINE
8
annotation
62
1
39
211
10
82.433150
20
136.208640
11
82.341938
21
136.079842
0
LINE
8
annotation
62
1
39
211
10
82.341938
20
136.079842
11
82.273536
21
135.936196
0
LINE
8
annotation
62
1
39
211
10
82.273536
20
135.936196
11
82.230569
21
135.780346
0
LINE
8
annotation
62
1
39
211
10
82.230569
20
135.780346
11
82.215663
21
135.614934
0
LINE
8
annotation
62
1
39
211
10
82.215663
20
135.614934
11
82.215663
21
135.614934
0
LINE
8
annotation
62
1
39
211
10
82.215663
20
135.614934
11
82.230577
21
135.448745
0
LINE
8
annotation
62
1
39
211
10
82.230577
20
135.448745
11
82.273566
21
135.292290
0
LINE
8
annotation
62
1
39
211
10
82.273566
20
135.292290
11
82.341996
21
135.148190
0
LINE
8
annotation
62
1
39
211
10
82.341996
20
135.148190
11
82.433236
21
135.019066
0
LINE
8
annotation
62
1
39
211
10
82.433236
20
135.019066
11
82.544653
21
134.907540
0
LINE
8
annotation
62
1
39
211
10
82.544653
20
134.907540
11
82.673614
21
134.816234
0
LINE
8
annotation
62
1
39
211
10
82.673614
20
134.816234
11
82.817487
21
134.747769
0
LINE
8
annotation
62
1
39
211
10
82.817487
20
134.747769
11
82.973640
21
134.704768
0
LINE
8
annotation
62
1
39
211
10
82.973640
20
134.704768
11
83.139440
21
134.689852
0
LINE
8
annotation
62
1
39
211
10
83.139440
20
134.689852
11
83.139440
21
134.689852
0
LINE
8
annotation
62
1
39
211
10
83.139440
20
134.689852
11
83.305241
21
134.704768
0
LINE
8
annotation
62
1
39
211
10
83.305241
20
134.704768
11
83.461393
21
134.747769
0
LINE
8
annotation
62
1
39
211
10
83.461393
20
134.747769
11
83.605267
21
134.816234
0
LINE
8
annotation
62
1
39
211
10
83.605267
20
134.816234
11
83.734228
21
134.907540
0
LINE
8
annotation
62
1
39
211
10
83.734228
20
134.907540
11
83.845645
21
135.019066
0
LINE
8
annotation
62
1
39
211
10
83.845645
20
135.019066
11
83.936884
21
135.148190
0
LINE
8
annotation
62
1
39
211
10
83.936884
20
135.148190
11
84.005315
21
135.292290
0
LINE
8
annotation
62
1
39
211
10
84.005315
20
135.292290
11
84.048304
21
135.448745
0
LINE
8
annotation
62
1
39
211
10
84.048304
20
135.448745
11
84.063218
21
135.614934
0
LINE
8
annotation
62
1
39
211
10
84.614858
20
156.312547
11
84.614858
21
156.312547
0
LINE
8
annotation
62
1
39
211
10
84.614858
20
156.312547
11
84.879032
21
156.410991
0
LINE
8
annotation
62
1
39
211
10
84.879032
20
156.410991
11
85.121510
21
156.544056
0
LINE
8
annotation
62
1
39
211
10
85.121510
20
156.544056
11
85.339787
21
156.708351
0
LINE
8
annotation
62
1
39
211
10
85.339787
20
156.708351
11
85.531358
21
156.900486
0
LINE
8
annotation
62
1
39
211
10
85.531358
20
156.900486
11
85.693717
21
157.117071
0
LINE
8
annotation
62
1
39
211
10
85.693717
20
157.117071
11
85.824358
21
157.354716
0
LINE
8
annotation
62
1
39
211
10
85.824358
20
157.354716
11
85.920776
21
157.610030
0
LINE
8
annotation
62
1
39
211
10
85.920776
20
157.610030
11
85.980464
21
157.879622
0
LINE
8
annotation
62
1
39
211
10
85.980464
20
157.879622
11
86.000916
21
158.160102
0
LINE
8
annotation
62
1
39
211
10
86.000916
20
158.160102
11
86.000916
21
159.547465
0
LINE
8
annotation
62
1
39
211
10
86.000916
20
159.547465
11
86.000916
21
159.547465
0
LINE
8
annotation
62
1
39
211
10
86.000916
20
159.547465
11
85.986045
21
159.713653
0
LINE
8
annotation
62
1
39
211
10
85.986045
20
159.713653
11
85.943163
21
159.870108
0
LINE
8
annotation
62
1
39
211
10
85.943163
20
159.870108
11
85.874873
21
160.014209
0
LINE
8
annotation
62
1
39
211
10
85.874873
20
160.014209
11
85.783772
21
160.143333
0
LINE
8
annotation
62
1
39
211
10
85.783772
20
160.143333
11
85.672463
21
160.254859
0
LINE
8
annotation
62
1
39
211
10
85.672463
20
160.254859
11
85.543545
21
160.346165
0
LINE
8
annotation
62
1
39
211
10
85.543545
20
160.346165
11
85.399618
21
160.414629
0
LINE
8
annotation
62
1
39
211
10
85.399618
20
160.414629
11
85.243282
21
160.457630
0
LINE
8
annotation
62
1
39
211
10
85.243282
20
160.457630
11
85.077139
21
160.472547
0
LINE
8
annotation
62
1
39
211
10
85.077139
20
160.472547
11
85.077139
21
160.472547
0
LINE
8
annotation
62
1
39
211
10
85.077139
20
160.472547
11
84.911339
21
160.457630
0
LINE
8
annotation
62
1
39
211
10
84.911339
20
160.457630
11
84.755186
21
160.414629
0
LINE
8
annotation
62
1
39
211
10
84.755186
20
160.414629
11
84.611312
21
160.346165
0
LINE
8
annotation
62
1
39
211
10
84.611312
20
160.346165
11
84.482351
21
160.254859
0
LINE
8
annotation
62
1
39
211
10
84.482351
20
160.254859
11
84.370935
21
160.143333
0
LINE
8
annotation
62
1
39
211
10
84.370935
20
160.143333
11
84.279695
21
160.014209
0
LINE
8
annotation
62
1
39
211
10
84.279695
20
160.014209
11
84.211264
21
159.870108
0
LINE
8
annotation
62
1
39
211
10
84.211264
20
159.870108
11
84.168276
21
159.713653
0
LINE
8
annotation
62
1
39
211
10
84.168276
20
159.713653
11
84.153361
21
159.547465
0
LINE
8
annotation
62
1
39
211
10
84.153361
20
159.547465
11
84.153361
21
159.084924
0
LINE
8
annotation
62
1
39
211
10
84.153361
20
159.084924
11
84.153361
21
159.084924
0
LINE
8
annotation
62
1
39
211
10
84.153361
20
159.084924
11
84.168276
21
158.918744
0
LINE
8
annotation
62
1
39
211
10
84.168276
20
158.918744
11
84.211264
21
158.762313
0
LINE
8
annotation
62
1
39
211
10
84.211264
20
158.762313
11
84.279695
21
158.618247
0
LINE
8
annotation
62
1
39
211
10
84.279695
20
158.618247
11
84.370935
21
158.489164
0
LINE
8
annotation
62
1
39
211
10
84.370935
20
158.489164
11
84.482351
21
158.377682
0
LINE
8
annotation
62
1
39
211
10
84.482351
20
158.377682
11
84.611312
21
158.286417
0
LINE
8
annotation
62
1
39
211
10
84.611312
20
158.286417
11
84.755186
21
158.217987
0
LINE
8
annotation
62
1
39
211
10
84.755186
20
158.217987
11
84.911339
21
158.175010
0
LINE
8
annotation
62
1
39
211
10
84.911339
20
158.175010
11
85.077139
21
158.160102
0
LINE
8
annotation
62
1
39
211
10
85.077139
20
158.160102
11
86.000916
21
158.160102
0
LINE
8
annotation
62
1
39
211
10
84.037921
20
155.792547
11
86.117921
21
155.792547
0
LINE
8
annotation
62
1
39
211
10
77.436679
20
116.201301
11
74.240727
21
116.201301
0
LINE
8
annotation
62
1
39
211
10
74.240727
20
116.201301
11
77.436679
21
121.957192
0
LINE
8
annotation
62
1
39
211
10
77.436679
20
121.957192
11
74.240727
21
121.957192
0
LINE
8
annotation
62
1
39
211
10
82.742902
20
119.079246
11
79.595679
21
119.079246
0
LINE
8
annotation
62
1
39
211
10
85.538999
20
116.201301
11
85.538999
21
116.201301
0
LINE
8
annotation
62
1
39
211
10
85.538999
20
116.201301
11
85.904516
21
116.337511
0
LINE
8
annotation
62
1
39
211
10
85.904516
20
116.337511
11
86.240016
21
116.521623
0
LINE
8
annotation
62
1
39
211
10
86.240016
20
116.521623
11
86.542031
21
116.748946
0
LINE
8
annotation
62
1
39
211
10
86.542031
20
116.748946
11
86.807094
21
117.014790
0
LINE
8
annotation
62
1
39
211
10
86.807094
20
117.014790
11
87.031738
21
117.314463
0
LINE
8
annotation
62
1
39
211
10
87.031738
20
117.314463
11
87.212497
21
117.643275
0
LINE
8
annotation
62
1
39
211
10
87.212497
20
117.643275
11
87.345902
21
117.996534
0
LINE
8
annotation
62
1
39
211
10
87.345902
20
117.996534
11
87.428488
21
118.369549
0
LINE
8
annotation
62
1
39
211
10
87.428488
20
118.369549
11
87.456787
21
118.757630
0
LINE
8
annotation
62
1
39
211
10
87.456787
20
118.757630
11
87.456787
21
120.677222
0
LINE
8
annotation
62
1
39
211
10
87.456787
20
120.677222
11
87.456787
21
120.677222
0
LINE
8
annotation
62
1
39
211
10
87.456787
20
120.677222
11
87.436210
21
120.907165
0
LINE
8
annotation
62
1
39
211
10
87.436210
20
120.907165
11
87.376879
21
121.123641
0
LINE
8
annotation
62
1
39
211
10
87.376879
20
121.123641
11
87.282389
21
121.323023
0
LINE
8
annotation
62
1
39
211
10
87.282389
20
121.323023
11
87.156341
21
121.501682
0
LINE
8
annotation
62
1
39
211
10
87.156341
20
121.501682
11
87.002330
21
121.655992
0
LINE
8
annotation
62
1
39
211
10
87.002330
20
121.655992
11
86.823955
21
121.782326
0
LINE
8
annotation
62
1
39
211
10
86.823955
20
121.782326
11
86.624814
21
121.877055
0
LINE
8
annotation
62
1
39
211
10
86.624814
20
121.877055
11
86.408504
21
121.936553
0
LINE
8
annotation
62
1
39
211
10
86.408504
20
121.936553
11
86.178623
21
121.957192
0
LINE
8
annotation
62
1
39
211
10
86.178623
20
121.957192
11
86.178623
21
121.957192
0
LINE
8
annotation
62
1
39
211
10
86.178623
20
121.957192
11
85.949217
21
121.936553
0
LINE
8
annotation
62
1
39
211
10
85.949217
20
121.936553
11
85.733160
21
121.877055
0
LINE
8
annotation
62
1
39
211
10
85.733160
20
121.877055
11
85.534093
21
121.782326
0
LINE
8
annotation
62
1
39
211
10
85.534093
20
121.782326
11
85.355659
21
121.655992
0
LINE
8
annotation
62
1
39
211
10
85.355659
20
121.655992
11
85.201499
21
121.501682
0
LINE
8
annotation
62
1
39
211
10
85.201499
20
121.501682
11
85.075257
21
121.323023
0
LINE
8
annotation
62
1
39
211
10
85.075257
20
121.323023
11
84.980575
21
121.123641
0
LINE
8
annotation
62
1
39
211
10
84.980575
20
121.123641
11
84.921095
21
120.907165
0
LINE
8
annotation
62
1
39
211
10
84.921095
20
120.907165
11
84.900458
21
120.677222
0
LINE
8
annotation
62
1
39
211
10
84.900458
20
120.677222
11
84.900458
21
120.037238
0
LINE
8
annotation
62
1
39
211
10
84.900458
20
120.037238
11
84.900458
21
120.037238
0
LINE
8
annotation
62
1
39
211
10
84.900458
20
120.037238
11
84.921095
21
119.807307
0
LINE
8
annotation
62
1
39
211
10
84.921095
20
119.807307
11
84.980575
21
119.590865
0
LINE
8
annotation
62
1
39
211
10
84.980575
20
119.590865
11
85.075257
21
119.391531
0
LINE
8
annotation
62
1
39
211
10
85.075257
20
119.391531
11
85.201499
21
119.212929
0
LINE
8
annotation
62
1
39
211
10
85.201499
20
119.212929
11
85.355659
21
119.058678
0
LINE
8
annotation
62
1
39
211
10
85.355659
20
119.058678
11
85.534093
21
118.932402
0
LINE
8
annotation
62
1
39
211
10
85.534093
20
118.932402
11
85.733160
21
118.837721
0
LINE
8
annotation
62
1
39
211
10
85.733160
20
118.837721
11
85.949217
21
118.778256
0
LINE
8
annotation
62
1
39
211
10
85.949217
20
118.778256
11
86.178623
21
118.757630
0
LINE
8
annotation
62
1
39
211
10
86.178623
20
118.757630
11
87.456787
21
118.757630
0
LINE
8
annotation
62
1
39
211
10
84.740733
20
115.481815
11
87.618678
21
115.481815
0
LINE
8
boundary
62
5
39
2
10
121.017526
20
144.281700
11
121.017526
21
127.869586
0
LINE
8
boundary
62
5
39
2
10
121.017526
20
127.869586
11
121.017526
21
23.079621
0
LINE
8
boundary
62
5
39
2
10
121.017526
20
23.079621
11
121.017526
21
6.667503
0
LINE
8
boundary
62
5
39
2
10
121.017526
20
6.667503
11
128.582744
21
6.667500
0
LINE
8
boundary
62
5
39
2
10
128.582744
20
6.667500
11
175.017528
21
6.667511
0
LINE
8
boundary
62
5
39
2
10
175.017528
20
6.667511
11
168.622264
21
13.971611
0
LINE
8
boundary
62
5
39
2
10
168.622264
20
13.971611
11
167.042765
21
19.829037
0
LINE
8
boundary
62
5
39
2
10
167.042765
20
19.829037
11
172.067088
21
23.079687
0
LINE
8
boundary
62
5
39
2
10
172.067088
20
23.079687
11
163.848022
21
26.311479
0
LINE
8
boundary
62
5
39
2
10
163.848022
20
26.311479
11
141.866303
21
26.441479
0
LINE
8
boundary
62
5
39
2
10
141.866303
20
26.441479
11
141.866303
21
28.787479
0
LINE
8
boundary
62
5
39
2
10
141.866303
20
28.787479
11
161.126535
21
28.787479
0
LINE
8
boundary
62
5
39
2
10
161.126535
20
28.787479
11
155.857514
21
43.545254
0
LINE
8
boundary
62
5
39
2
10
155.857514
20
43.545254
11
155.857523
21
50.241532
0
LINE
8
boundary
62
5
39
2
10
155.857523
20
50.241532
11
138.564526
21
50.371531
0
LINE
8
boundary
62
5
39
2
10
138.564526
20
50.371531
11
138.564526
21
52.717531
0
LINE
8
boundary
62
5
39
2
10
138.564526
20
52.717531
11
155.857527
21
52.717531
0
LINE
8
boundary
62
5
39
2
10
155.857527
20
52.717531
11
155.857556
21
74.301584
0
LINE
8
boundary
62
5
39
2
10
155.857556
20
74.301584
11
138.564543
21
74.301584
0
LINE
8
boundary
62
5
39
2
10
138.564543
20
74.301584
11
138.564543
21
76.647584
0
LINE
8
boundary
62
5
39
2
10
138.564543
20
76.647584
11
155.857560
21
76.647584
0
LINE
8
boundary
62
5
39
2
10
155.857560
20
76.647584
11
155.857590
21
98.231636
0
LINE
8
boundary
62
5
39
2
10
155.857590
20
98.231636
11
138.564559
21
98.231636
0
LINE
8
boundary
62
5
39
2
10
138.564559
20
98.231636
11
138.564559
21
100.577636
0
LINE
8
boundary
62
5
39
2
10
138.564559
20
100.577636
11
155.857593
21
100.577636
0
LINE
8
boundary
62
5
39
2
10
155.857593
20
100.577636
11
155.857602
21
107.404075
0
LINE
8
boundary
62
5
39
2
10
155.857602
20
107.404075
11
161.116867
21
122.031689
0
LINE
8
boundary
62
5
39
2
10
161.116867
20
122.031689
11
141.866321
21
122.161689
0
LINE
8
boundary
62
5
39
2
10
141.866321
20
122.161689
11
141.866321
21
124.507689
0
LINE
8
boundary
62
5
39
2
10
141.866321
20
124.507689
11
163.517172
21
124.507689
0
LINE
8
boundary
62
5
39
2
10
163.517172
20
124.507689
11
172.067133
21
127.869619
0
LINE
8
boundary
62
5
39
2
10
172.067133
20
127.869619
11
167.042833
21
131.120220
0
LINE
8
boundary
62
5
39
2
10
167.042833
20
131.120220
11
168.622329
21
136.977610
0
LINE
8
boundary
62
5
39
2
10
168.622329
20
136.977610
11
175.017564
21
144.281660
0
LINE
8
boundary
62
5
39
2
10
175.017564
20
144.281660
11
128.582740
21
144.281694
0
LINE
8
boundary
62
5
39
2
10
128.582740
20
144.281694
11
121.017526
21
144.281700
0
LINE
8
annotation
62
1
39
211
10
137.693699
20
26.459300
11
135.383863
21
26.459300
0
LINE
8
annotation
62
1
39
211
10
135.383863
20
26.459300
11
136.306336
21
29.694479
0
LINE
8
annotation
62
1
39
211
10
137.001322
20
25.534479
11
137.001322
21
27.382034
0
LINE
8
annotation
62
1
39
211
10
132.313227
20
49.464531
11
133.237004
21
49.464531
0
LINE
8
annotation
62
1
39
211
10
133.237004
20
49.464531
11
133.237004
21
49.464531
0
LINE
8
annotation
62
1
39
211
10
133.237004
20
49.464531
11
133.402804
21
49.479439
0
LINE
8
annotation
62
1
39
211
10
133.402804
20
49.479439
11
133.558957
21
49.522416
0
LINE
8
annotation
62
1
39
211
10
133.558957
20
49.522416
11
133.702831
21
49.590846
0
LINE
8
annotation
62
1
39
211
10
133.702831
20
49.590846
11
133.831792
21
49.682111
0
LINE
8
annotation
62
1
39
211
10
133.831792
20
49.682111
11
133.943208
21
49.793593
0
LINE
8
annotation
62
1
39
211
10
133.943208
20
49.793593
11
134.034448
21
49.922676
0
LINE
8
annotation
62
1
39
211
10
134.034448
20
49.922676
11
134.102879
21
50.066742
0
LINE
8
annotation
62
1
39
211
10
134.102879
20
50.066742
11
134.145867
21
50.223173
0
LINE
8
annotation
62
1
39
211
10
134.145867
20
50.223173
11
134.160782
21
50.389353
0
LINE
8
annotation
62
1
39
211
10
134.160782
20
50.389353
11
134.160782
21
50.849546
0
LINE
8
annotation
62
1
39
211
10
134.160782
20
50.849546
11
134.160782
21
50.849546
0
LINE
8
annotation
62
1
39
211
10
134.160782
20
50.849546
11
134.145876
21
51.015645
0
LINE
8
annotation
62
1
39
211
10
134.145876
20
51.015645
11
134.102909
21
51.171860
0
LINE
8
annotation
62
1
39
211
10
134.102909
20
51.171860
11
134.034506
21
51.315614
0
LINE
8
annotation
62
1
39
211
10
134.034506
20
51.315614
11
133.943294
21
51.444326
0
LINE
8
annotation
62
1
39
211
10
133.943294
20
51.444326
11
133.831899
21
51.555419
0
LINE
8
annotation
62
1
39
211
10
133.831899
20
51.555419
11
133.702946
21
51.646313
0
LINE
8
annotation
62
1
39
211
10
133.702946
20
51.646313
11
133.559062
21
51.714431
0
LINE
8
annotation
62
1
39
211
10
133.559062
20
51.714431
11
133.402873
21
51.757192
0
LINE
8
annotation
62
1
39
211
10
133.402873
20
51.757192
11
133.237004
21
51.772019
0
LINE
8
annotation
62
1
39
211
10
133.237004
20
51.772019
11
132.313227
21
51.772019
0
LINE
8
annotation
62
1
39
211
10
132.313227
20
51.772019
11
132.313227
21
53.624531
0
LINE
8
annotation
62
1
39
211
10
132.313227
20
53.624531
11
134.160782
21
53.624531
0
LINE
8
annotation
62
1
39
211
10
133.700866
20
77.554584
11
133.700866
21
77.554584
0
LINE
8
annotation
62
1
39
211
10
133.700866
20
77.554584
11
133.436227
21
77.455360
0
LINE
8
annotation
62
1
39
211
10
133.436227
20
77.455360
11
133.193386
21
77.321668
0
LINE
8
annotation
62
1
39
211
10
133.193386
20
77.321668
11
132.974836
21
77.156857
0
LINE
8
annotation
62
1
39
211
10
132.974836
20
77.156857
11
132.783070
21
76.964277
0
LINE
8
annotation
62
1
39
211
10
132.783070
20
76.964277
11
132.620580
21
76.747277
0
LINE
8
annotation
62
1
39
211
10
132.620580
20
76.747277
11
132.489859
21
76.509207
0
LINE
8
annotation
62
1
39
211
10
132.489859
20
76.509207
11
132.393401
21
76.253416
0
LINE
8
annotation
62
1
39
211
10
132.393401
20
76.253416
11
132.333698
21
75.983255
0
LINE
8
annotation
62
1
39
211
10
132.333698
20
75.983255
11
132.313243
21
75.702072
0
LINE
8
annotation
62
1
39
211
10
132.313243
20
75.702072
11
132.313243
21
74.319405
0
LINE
8
annotation
62
1
39
211
10
132.313243
20
74.319405
11
132.313243
21
74.319405
0
LINE
8
annotation
62
1
39
211
10
132.313243
20
74.319405
11
132.328158
21
74.153226
0
LINE
8
annotation
62
1
39
211
10
132.328158
20
74.153226
11
132.371146
21
73.996794
0
LINE
8
annotation
62
1
39
211
10
132.371146
20
73.996794
11
132.439577
21
73.852729
0
LINE
8
annotation
62
1
39
211
10
132.439577
20
73.852729
11
132.530817
21
73.723646
0
LINE
8
annotation
62
1
39
211
10
132.530817
20
73.723646
11
132.642234
21
73.612163
0
LINE
8
annotation
62
1
39
211
10
132.642234
20
73.612163
11
132.771195
21
73.520898
0
LINE
8
annotation
62
1
39
211
10
132.771195
20
73.520898
11
132.915068
21
73.452469
0
LINE
8
annotation
62
1
39
211
10
132.915068
20
73.452469
11
133.071221
21
73.409491
0
LINE
8
annotation
62
1
39
211
10
133.071221
20
73.409491
11
133.237021
21
73.394584
0
LINE
8
annotation
62
1
39
211
10
133.237021
20
73.394584
11
133.237021
21
73.394584
0
LINE
8
annotation
62
1
39
211
10
133.237021
20
73.394584
11
133.403165
21
73.409491
0
LINE
8
annotation
62
1
39
211
10
133.403165
20
73.409491
11
133.559500
21
73.452469
0
LINE
8
annotation
62
1
39
211
10
133.559500
20
73.452469
11
133.703427
21
73.520898
0
LINE
8
annotation
62
1
39
211
10
133.703427
20
73.520898
11
133.832345
21
73.612163
0
LINE
8
annotation
62
1
39
211
10
133.832345
20
73.612163
11
133.943655
21
73.723646
0
LINE
8
annotation
62
1
39
211
10
133.943655
20
73.723646
11
134.034755
21
73.852729
0
LINE
8
annotation
62
1
39
211
10
134.034755
20
73.852729
11
134.103046
21
73.996794
0
LINE
8
annotation
62
1
39
211
10
134.103046
20
73.996794
11
134.145927
21
74.153226
0
LINE
8
annotation
62
1
39
211
10
134.145927
20
74.153226
11
134.160799
21
74.319405
0
LINE
8
annotation
62
1
39
211
10
134.160799
20
74.319405
11
134.160799
21
74.779598
0
LINE
8
annotation
62
1
39
211
10
134.160799
20
74.779598
11
134.160799
21
74.779598
0
LINE
8
annotation
62
1
39
211
10
134.160799
20
74.779598
11
134.145927
21
74.945697
0
LINE
8
annotation
62
1
39
211
10
134.145927
20
74.945697
11
134.103046
21
75.101913
0
LINE
8
annotation
62
1
39
211
10
134.103046
20
75.101913
11
134.034755
21
75.245666
0
LINE
8
annotation
62
1
39
211
10
134.034755
20
75.245666
11
133.943655
21
75.374379
0
LINE
8
annotation
62
1
39
211
10
133.943655
20
75.374379
11
133.832345
21
75.485471
0
LINE
8
annotation
62
1
39
211
10
133.832345
20
75.485471
11
133.703427
21
75.576366
0
LINE
8
annotation
62
1
39
211
10
133.703427
20
75.576366
11
133.559500
21
75.644483
0
LINE
8
annotation
62
1
39
211
10
133.559500
20
75.644483
11
133.403165
21
75.687245
0
LINE
8
annotation
62
1
39
211
10
133.403165
20
75.687245
11
133.237021
21
75.702072
0
LINE
8
annotation
62
1
39
211
10
133.237021
20
75.702072
11
132.313243
21
75.702072
0
LINE
8
annotation
62
1
39
211
10
132.197543
20
72.874584
11
134.277543
21
72.874584
0
LINE
8
annotation
62
1
39
211
10
133.237038
20
97.324636
11
134.161859
21
101.484636
0
LINE
8
annotation
62
1
39
211
10
134.161859
20
101.484636
11
132.311955
21
101.484636
0
LINE
8
annotation
62
1
39
211
10
134.161859
20
99.632124
11
133.237038
21
99.632124
0
LINE
8
annotation
62
1
39
211
10
135.615021
20
122.177032
11
135.615021
21
122.177032
0
LINE
8
annotation
62
1
39
211
10
135.615021
20
122.177032
11
135.629936
21
122.010933
0
LINE
8
annotation
62
1
39
211
10
135.629936
20
122.010933
11
135.672925
21
121.854717
0
LINE
8
annotation
62
1
39
211
10
135.672925
20
121.854717
11
135.741355
21
121.710964
0
LINE
8
annotation
62
1
39
211
10
135.741355
20
121.710964
11
135.832595
21
121.582251
0
LINE
8
annotation
62
1
39
211
10
135.832595
20
121.582251
11
135.944012
21
121.471159
0
LINE
8
annotation
62
1
39
211
10
135.944012
20
121.471159
11
136.072973
21
121.380264
0
LINE
8
annotation
62
1
39
211
10
136.072973
20
121.380264
11
136.216846
21
121.312147
0
LINE
8
annotation
62
1
39
211
10
136.216846
20
121.312147
11
136.372999
21
121.269385
0
LINE
8
annotation
62
1
39
211
10
136.372999
20
121.269385
11
136.538799
21
121.254558
0
LINE
8
annotation
62
1
39
211
10
136.538799
20
121.254558
11
136.538799
21
121.254558
0
LINE
8
annotation
62
1
39
211
10
136.538799
20
121.254558
11
136.704599
21
121.269385
0
LINE
8
annotation
62
1
39
211
10
136.704599
20
121.269385
11
136.860752
21
121.312147
0
LINE
8
annotation
62
1
39
211
10
136.860752
20
121.312147
11
137.004625
21
121.380264
0
LINE
8
annotation
62
1
39
211
10
137.004625
20
121.380264
11
137.133587
21
121.471159
0
LINE
8
annotation
62
1
39
211
10
137.133587
20
121.471159
11
137.245003
21
121.582251
0
LINE
8
annotation
62
1
39
211
10
137.245003
20
121.582251
11
137.336243
21
121.710964
0
LINE
8
annotation
62
1
39
211
10
137.336243
20
121.710964
11
137.404674
21
121.854717
0
LINE
8
annotation
62
1
39
211
10
137.404674
20
121.854717
11
137.447662
21
122.010933
0
LINE
8
annotation
62
1
39
211
10
137.447662
20
122.010933
11
137.462577
21
122.177032
0
LINE
8
annotation
62
1
39
211
10
137.462577
20
122.177032
11
137.462577
21
122.637225
0
LINE
8
annotation
62
1
39
211
10
137.462577
20
122.637225
11
137.462577
21
122.637225
0
LINE
8
annotation
62
1
39
211
10
137.462577
20
122.637225
11
137.447671
21
122.803404
0
LINE
8
annotation
62
1
39
211
10
137.447671
20
122.803404
11
137.404704
21
122.959836
0
LINE
8
annotation
62
1
39
211
10
137.404704
20
122.959836
11
137.336301
21
123.103901
0
LINE
8
annotation
62
1
39
211
10
137.336301
20
123.103901
11
137.245089
21
123.232984
0
LINE
8
annotation
62
1
39
211
10
137.245089
20
123.232984
11
137.133694
21
123.344467
0
LINE
8
annotation
62
1
39
211
10
137.133694
20
123.344467
11
137.004741
21
123.435732
0
LINE
8
annotation
62
1
39
211
10
137.004741
20
123.435732
11
136.860857
21
123.504162
0
LINE
8
annotation
62
1
39
211
10
136.860857
20
123.504162
11
136.704668
21
123.547139
0
LINE
8
annotation
62
1
39
211
10
136.704668
20
123.547139
11
136.538799
21
123.562046
0
LINE
8
annotation
62
1
39
211
10
136.538799
20
123.562046
11
136.538799
21
123.562046
0
LINE
8
annotation
62
1
39
211
10
136.538799
20
123.562046
11
136.372930
21
123.547130
0
LINE
8
annotation
62
1
39
211
10
136.372930
20
123.547130
11
136.216741
21
123.504131
0
LINE
8
annotation
62
1
39
211
10
136.216741
20
123.504131
11
136.072857
21
123.435674
0
LINE
8
annotation
62
1
39
211
10
136.072857
20
123.435674
11
135.943904
21
123.344381
0
LINE
8
annotation
62
1
39
211
10
135.943904
20
123.344381
11
135.832509
21
123.232877
0
LINE
8
annotation
62
1
39
211
10
135.832509
20
123.232877
11
135.741297
21
123.103785
0
LINE
8
annotation
62
1
39
211
10
135.741297
20
123.103785
11
135.672895
21
122.959730
0
LINE
8
annotation
62
1
39
211
10
135.672895
20
122.959730
11
135.629927
21
122.803336
0
LINE
8
annotation
62
1
39
211
10
135.629927
20
122.803336
11
135.615021
21
122.637225
0
LINE
8
annotation
62
1
39
211
10
135.615021
20
122.637225
11
135.615021
21
122.177032
0
LINE
8
annotation
62
1
39
211
10
137.462577
20
124.487128
11
137.462577
21
124.487128
0
LINE
8
annotation
62
1
39
211
10
137.462577
20
124.487128
11
137.447671
21
124.652540
0
LINE
8
annotation
62
1
39
211
10
137.447671
20
124.652540
11
137.404704
21
124.808391
0
LINE
8
annotation
62
1
39
211
10
137.404704
20
124.808391
11
137.336301
21
124.952037
0
LINE
8
annotation
62
1
39
211
10
137.336301
20
124.952037
11
137.245089
21
125.080835
0
LINE
8
annotation
62
1
39
211
10
137.245089
20
125.080835
11
137.133694
21
125.192143
0
LINE
8
annotation
62
1
39
211
10
137.133694
20
125.192143
11
137.004741
21
125.283316
0
LINE
8
annotation
62
1
39
211
10
137.004741
20
125.283316
11
136.860857
21
125.351713
0
LINE
8
annotation
62
1
39
211
10
136.860857
20
125.351713
11
136.704668
21
125.394689
0
LINE
8
annotation
62
1
39
211
10
136.704668
20
125.394689
11
136.538799
21
125.409602
0
LINE
8
annotation
62
1
39
211
10
136.538799
20
125.409602
11
136.538799
21
125.409602
0
LINE
8
annotation
62
1
39
211
10
136.538799
20
125.409602
11
136.372930
21
125.394689
0
LINE
8
annotation
62
1
39
211
10
136.372930
20
125.394689
11
136.216741
21
125.351713
0
LINE
8
annotation
62
1
39
211
10
136.216741
20
125.351713
11
136.072857
21
125.283316
0
LINE
8
annotation
62
1
39
211
10
136.072857
20
125.283316
11
135.943904
21
125.192143
0
LINE
8
annotation
62
1
39
211
10
135.943904
20
125.192143
11
135.832509
21
125.080835
0
LINE
8
annotation
62
1
39
211
10
135.832509
20
125.080835
11
135.741297
21
124.952037
0
LINE
8
annotation
62
1
39
211
10
135.741297
20
124.952037
11
135.672895
21
124.808391
0
LINE
8
annotation
62
1
39
211
10
135.672895
20
124.808391
11
135.629927
21
124.652540
0
LINE
8
annotation
62
1
39
211
10
135.629927
20
124.652540
11
135.615021
21
124.487128
0
LINE
8
annotation
62
1
39
211
10
135.615021
20
124.487128
11
135.615021
21
124.487128
0
LINE
8
annotation
62
1
39
211
10
135.615021
20
124.487128
11
135.629936
21
124.320940
0
LINE
8
annotation
62
1
39
211
10
135.629936
20
124.320940
11
135.672925
21
124.164485
0
LINE
8
annotation
62
1
39
211
10
135.672925
20
124.164485
11
135.741355
21
124.020384
0
LINE
8
annotation
62
1
39
211
10
135.741355
20
124.020384
11
135.832595
21
123.891260
0
LINE
8
annotation
62
1
39
211
10
135.832595
20
123.891260
11
135.944012
21
123.779734
0
LINE
8
annotation
62
1
39
211
10
135.944012
20
123.779734
11
136.072973
21
123.688428
0
LINE
8
annotation
62
1
39
211
10
136.072973
20
123.688428
11
136.216846
21
123.619964
0
LINE
8
annotation
62
1
39
211
10
136.216846
20
123.619964
11
136.372999
21
123.576963
0
LINE
8
annotation
62
1
39
211
10
136.372999
20
123.576963
11
136.538799
21
123.562046
0
LINE
8
annotation
62
1
39
211
10
136.538799
20
123.562046
11
136.538799
21
123.562046
0
LINE
8
annotation
62
1
39
211
10
136.538799
20
123.562046
11
136.704599
21
123.576963
0
LINE
8
annotation
62
1
39
211
10
136.704599
20
123.576963
11
136.860752
21
123.619964
0
LINE
8
annotation
62
1
39
211
10
136.860752
20
123.619964
11
137.004625
21
123.688428
0
LINE
8
annotation
62
1
39
211
10
137.004625
20
123.688428
11
137.133587
21
123.779734
0
LINE
8
annotation
62
1
39
211
10
137.133587
20
123.779734
11
137.245003
21
123.891260
0
LINE
8
annotation
62
1
39
211
10
137.245003
20
123.891260
11
137.336243
21
124.020384
0
LINE
8
annotation
62
1
39
211
10
137.336243
20
124.020384
11
137.404674
21
124.164485
0
LINE
8
annotation
62
1
39
211
10
137.404674
20
124.164485
11
137.447662
21
124.320940
0
LINE
8
annotation
62
1
39
211
10
137.447662
20
124.320940
11
137.462577
21
124.487128
0
LINE
8
annotation
62
1
39
211
10
138.939947
20
12.458197
11
133.437866
21
12.458197
0
LINE
8
annotation
62
1
39
211
10
133.437866
20
12.458197
11
138.939947
21
22.367410
0
LINE
8
annotation
62
1
39
211
10
138.939947
20
22.367410
11
133.437866
21
22.367410
0
LINE
8
annotation
62
1
39
211
10
148.075022
20
17.412804
11
142.656834
21
17.412804
0
LINE
8
annotation
62
1
39
211
10
153.993301
20
12.458197
11
153.993301
21
22.367410
0
LINE
8
annotation
62
1
39
211
10
153.993301
20
22.367410
11
151.790356
21
20.163844
0
LINE
8
frame
62
5
39
2
10
0.000000
20
0.000000
11
200.000000
21
0.000000
0
LINE
8
frame
62
5
39
2
10
200.000000
20
0.000000
11
200.000000
21
296.926000
0
LINE
8
frame
62
5
39
2
10
200.000000
20
296.926000
11
0.000000
21
296.926000
0
LINE
8
frame
62
5
39
2
10
0.000000
20
296.926000
11
0.000000
21
0.000000
0
ENDSEC
0
EOF
