0
SECTION
2
HEADER
9
$ACADVER
1
AC1009
0
ENDSEC
0
SECTION
2
TABLES
0
TABLE
2
VPORT
70
1
0
VPORT
2
ACTIVE
70
0
10
0.0
20
0.0
11
0.0
21
0.0
12
0.0
22
0.0
13
0.0
23
0.0
14
0.0
24
0.0
15
0.0
25
0.0
16
0.0
26
0.0
36
0.0
17
0.0
27
0.0
37
0.0
40
0.0
41
0.0
42
0.0
43
0.0
44
0.0
50
0.0
51
0.0
71
0
72
1000
73
1
74
3
75
0
76
0
77
0
78
0
0
ENDTAB
0
ENDSEC
0
SECTION
2
ENTITIES
0
LINE
8
boundary
62
5
39
2
10
6.667505
20
267.075522
11
6.667500
21
152.190443
0
LINE
8
boundary
62
5
39
2
10
6.667500
20
152.190443
11
6.667501
21
121.552628
0
LINE
8
boundary
62
5
39
2
10
6.667501
20
121.552628
11
6.667505
21
6.667524
0
LINE
8
boundary
62
5
39
2
10
6.667505
20
6.667524
11
59.624160
21
6.667500
0
LINE
8
boundary
62
5
39
2
10
59.624160
20
6.667500
11
60.667504
21
6.667500
0
LINE
8
boundary
62
5
39
2
10
60.667504
20
6.667500
11
58.685686
21
8.930956
0
LINE
8
boundary
62
5
39
2
10
58.685686
20
8.930956
11
54.373206
21
16.048263
0
LINE
8
boundary
62
5
39
2
10
54.373206
20
16.048263
11
30.373097
21
16.048263
0
LINE
8
boundary
62
5
39
2
10
30.373097
20
16.048263
11
30.373097
21
18.394263
0
LINE
8
boundary
62
5
39
2
10
30.373097
20
18.394263
11
52.882662
21
18.394263
0
LINE
8
boundary
62
5
39
2
10
52.882662
20
18.394263
11
39.952410
21
39.848316
0
LINE
8
boundary
62
5
39
2
10
39.952410
20
39.848316
11
23.123314
21
39.978316
0
LINE
8
boundary
62
5
39
2
10
23.123314
20
39.978316
11
23.123314
21
42.324316
0
LINE
8
boundary
62
5
39
2
10
23.123314
20
42.324316
11
38.383097
21
42.324316
0
LINE
8
boundary
62
5
39
2
10
38.383097
20
42.324316
11
29.077505
21
57.796236
0
LINE
8
boundary
62
5
39
2
10
29.077505
20
57.796236
11
29.077504
21
63.908368
0
LINE
8
boundary
62
5
39
2
10
29.077504
20
63.908368
11
17.999504
21
63.908368
0
LINE
8
boundary
62
5
39
2
10
17.999504
20
63.908368
11
17.999504
21
66.254368
0
LINE
8
boundary
62
5
39
2
10
17.999504
20
66.254368
11
29.077504
21
66.254368
0
LINE
8
boundary
62
5
39
2
10
29.077504
20
66.254368
11
29.077500
21
87.708423
0
LINE
8
boundary
62
5
39
2
10
29.077500
20
87.708423
11
17.999501
21
87.838421
0
LINE
8
boundary
62
5
39
2
10
17.999501
20
87.838421
11
17.999501
21
90.184421
0
LINE
8
boundary
62
5
39
2
10
17.999501
20
90.184421
11
29.077500
21
90.184421
0
LINE
8
boundary
62
5
39
2
10
29.077500
20
90.184421
11
29.077499
21
96.983008
0
LINE
8
boundary
62
5
39
2
10
29.077499
20
96.983008
11
29.077499
21
98.798210
0
LINE
8
boundary
62
5
39
2
10
29.077499
20
98.798210
11
29.891332
21
99.246531
0
LINE
8
boundary
62
5
39
2
10
29.891332
20
99.246531
11
41.138906
21
111.638474
0
LINE
8
boundary
62
5
39
2
10
41.138906
20
111.638474
11
24.877898
21
111.768474
0
LINE
8
boundary
62
5
39
2
10
24.877898
20
111.768474
11
24.877898
21
114.114474
0
LINE
8
boundary
62
5
39
2
10
24.877898
20
114.114474
11
43.386252
21
114.114473
0
LINE
8
boundary
62
5
39
2
10
43.386252
20
114.114473
11
50.137515
21
121.552635
0
LINE
8
boundary
62
5
39
2
10
50.137515
20
121.552635
11
47.055761
21
123.816168
0
LINE
8
boundary
62
5
39
2
10
47.055761
20
123.816168
11
47.055759
21
135.568529
0
LINE
8
boundary
62
5
39
2
10
47.055759
20
135.568529
11
26.988629
21
135.698526
0
LINE
8
boundary
62
5
39
2
10
26.988629
20
135.698526
11
26.988629
21
138.044526
0
LINE
8
boundary
62
5
39
2
10
26.988629
20
138.044526
11
47.055759
21
138.044526
0
LINE
8
boundary
62
5
39
2
10
47.055759
20
138.044526
11
47.055757
21
149.926902
0
LINE
8
boundary
62
5
39
2
10
47.055757
20
149.926902
11
50.137516
21
152.190440
0
LINE
8
boundary
62
5
39
2
10
50.137516
20
152.190440
11
43.504269
21
159.498578
0
LINE
8
boundary
62
5
39
2
10
43.504269
20
159.498578
11
24.877910
21
159.628579
0
LINE
8
boundary
62
5
39
2
10
24.877910
20
159.628579
11
24.877910
21
161.974579
0
LINE
8
boundary
62
5
39
2
10
24.877910
20
161.974579
11
41.148627
21
161.974579
0
LINE
8
boundary
62
5
39
2
10
41.148627
20
161.974579
11
29.891344
21
174.496533
0
LINE
8
boundary
62
5
39
2
10
29.891344
20
174.496533
11
29.077501
21
174.944854
0
LINE
8
boundary
62
5
39
2
10
29.077501
20
174.944854
11
29.077500
21
176.760077
0
LINE
8
boundary
62
5
39
2
10
29.077500
20
176.760077
11
29.077501
21
183.558631
0
LINE
8
boundary
62
5
39
2
10
29.077501
20
183.558631
11
17.999502
21
183.558631
0
LINE
8
boundary
62
5
39
2
10
17.999502
20
183.558631
11
17.999501
21
185.904631
0
LINE
8
boundary
62
5
39
2
10
17.999501
20
185.904631
11
29.077502
21
185.904631
0
LINE
8
boundary
62
5
39
2
10
29.077502
20
185.904631
11
29.077505
21
207.358689
0
LINE
8
boundary
62
5
39
2
10
29.077505
20
207.358689
11
17.999504
21
207.488684
0
LINE
8
boundary
62
5
39
2
10
17.999504
20
207.488684
11
17.999504
21
209.834683
0
LINE
8
boundary
62
5
39
2
10
17.999504
20
209.834683
11
29.077505
21
209.834683
0
LINE
8
boundary
62
5
39
2
10
29.077505
20
209.834683
11
29.077506
21
215.946844
0
LINE
8
boundary
62
5
39
2
10
29.077506
20
215.946844
11
38.373398
21
231.288736
0
LINE
8
boundary
62
5
39
2
10
38.373398
20
231.288736
11
23.123315
21
231.418736
0
LINE
8
boundary
62
5
39
2
10
23.123315
20
231.418736
11
23.123316
21
233.764736
0
LINE
8
boundary
62
5
39
2
10
23.123316
20
233.764736
11
39.873646
21
233.764736
0
LINE
8
boundary
62
5
39
2
10
39.873646
20
233.764736
11
52.872992
21
255.218788
0
LINE
8
boundary
62
5
39
2
10
52.872992
20
255.218788
11
30.373113
21
255.348789
0
LINE
8
boundary
62
5
39
2
10
30.373113
20
255.348789
11
30.373113
21
257.694789
0
LINE
8
boundary
62
5
39
2
10
30.373113
20
257.694789
11
54.373239
21
257.694789
0
LINE
8
boundary
62
5
39
2
10
54.373239
20
257.694789
11
58.685604
21
264.811893
0
LINE
8
boundary
62
5
39
2
10
58.685604
20
264.811893
11
60.667541
21
267.075479
0
LINE
8
boundary
62
5
39
2
10
60.667541
20
267.075479
11
59.624133
21
267.075480
0
LINE
8
boundary
62
5
39
2
10
59.624133
20
267.075480
11
6.667505
21
267.075522
0
LINE
8
annotation
62
1
39
211
10
25.508116
20
15.141263
11
25.508116
21
19.301263
0
LINE
8
annotation
62
1
39
211
10
25.508116
20
19.301263
11
24.583295
21
18.376181
0
LINE
8
annotation
62
1
39
211
10
18.719570
20
39.071282
11
16.872014
21
39.071282
0
LINE
8
annotation
62
1
39
211
10
16.872014
20
39.071282
11
18.579216
21
41.819658
0
LINE
8
annotation
62
1
39
211
10
18.579216
20
41.819658
11
18.579216
21
41.819658
0
LINE
8
annotation
62
1
39
211
10
18.579216
20
41.819658
11
18.581257
21
41.822183
0
LINE
8
annotation
62
1
39
211
10
18.581257
20
41.822183
11
18.583214
21
41.824730
0
LINE
8
annotation
62
1
39
211
10
18.583214
20
41.824730
11
18.585101
21
41.827320
0
LINE
8
annotation
62
1
39
211
10
18.585101
20
41.827320
11
18.586929
21
41.829974
0
LINE
8
annotation
62
1
39
211
10
18.586929
20
41.829974
11
18.588712
21
41.832714
0
LINE
8
annotation
62
1
39
211
10
18.588712
20
41.832714
11
18.590463
21
41.835562
0
LINE
8
annotation
62
1
39
211
10
18.590463
20
41.835562
11
18.592195
21
41.838538
0
LINE
8
annotation
62
1
39
211
10
18.592195
20
41.838538
11
18.593920
21
41.841665
0
LINE
8
annotation
62
1
39
211
10
18.593920
20
41.841665
11
18.595652
21
41.844963
0
LINE
8
annotation
62
1
39
211
10
18.595652
20
41.844963
11
18.595652
21
41.844963
0
LINE
8
annotation
62
1
39
211
10
18.595652
20
41.844963
11
18.666142
21
41.996311
0
LINE
8
annotation
62
1
39
211
10
18.666142
20
41.996311
11
18.707321
21
42.153197
0
LINE
8
annotation
62
1
39
211
10
18.707321
20
42.153197
11
18.720198
21
42.312075
0
LINE
8
annotation
62
1
39
211
10
18.720198
20
42.312075
11
18.705783
21
42.469400
0
LINE
8
annotation
62
1
39
211
10
18.705783
20
42.469400
11
18.665084
21
42.621628
0
LINE
8
annotation
62
1
39
211
10
18.665084
20
42.621628
11
18.599111
21
42.765214
0
LINE
8
annotation
62
1
39
211
10
18.599111
20
42.765214
11
18.508873
21
42.896613
0
LINE
8
annotation
62
1
39
211
10
18.508873
20
42.896613
11
18.395378
21
43.012279
0
LINE
8
annotation
62
1
39
211
10
18.395378
20
43.012279
11
18.259638
21
43.108668
0
LINE
8
annotation
62
1
39
211
10
18.259638
20
43.108668
11
18.259638
21
43.108668
0
LINE
8
annotation
62
1
39
211
10
18.259638
20
43.108668
11
18.107869
21
43.178157
0
LINE
8
annotation
62
1
39
211
10
18.107869
20
43.178157
11
17.950743
21
43.218701
0
LINE
8
annotation
62
1
39
211
10
17.950743
20
43.218701
11
17.791773
21
43.231215
0
LINE
8
annotation
62
1
39
211
10
17.791773
20
43.231215
11
17.634471
21
43.216609
0
LINE
8
annotation
62
1
39
211
10
17.634471
20
43.216609
11
17.482350
21
43.175798
0
LINE
8
annotation
62
1
39
211
10
17.482350
20
43.175798
11
17.338923
21
43.109693
0
LINE
8
annotation
62
1
39
211
10
17.338923
20
43.109693
11
17.207702
21
43.019206
0
LINE
8
annotation
62
1
39
211
10
17.207702
20
43.019206
11
17.092201
21
42.905252
0
LINE
8
annotation
62
1
39
211
10
17.092201
20
42.905252
11
16.995933
21
42.768741
0
LINE
8
annotation
62
1
39
211
10
16.995933
20
42.768741
11
16.874623
21
42.536036
0
LINE
8
annotation
62
1
39
211
10
11.748204
20
63.001499
11
12.671982
21
63.001499
0
LINE
8
annotation
62
1
39
211
10
12.671982
20
63.001499
11
12.671982
21
63.001499
0
LINE
8
annotation
62
1
39
211
10
12.671982
20
63.001499
11
12.838126
21
63.016403
0
LINE
8
annotation
62
1
39
211
10
12.838126
20
63.016403
11
12.994461
21
63.059358
0
LINE
8
annotation
62
1
39
211
10
12.994461
20
63.059358
11
13.138388
21
63.127726
0
LINE
8
annotation
62
1
39
211
10
13.138388
20
63.127726
11
13.267306
21
63.218872
0
LINE
8
annotation
62
1
39
211
10
13.267306
20
63.218872
11
13.378616
21
63.330158
0
LINE
8
annotation
62
1
39
211
10
13.378616
20
63.330158
11
13.469716
21
63.458948
0
LINE
8
annotation
62
1
39
211
10
13.469716
20
63.458948
11
13.538007
21
63.602605
0
LINE
8
annotation
62
1
39
211
10
13.538007
20
63.602605
11
13.580888
21
63.758492
0
LINE
8
annotation
62
1
39
211
10
13.580888
20
63.758492
11
13.595760
21
63.923972
0
LINE
8
annotation
62
1
39
211
10
13.595760
20
63.923972
11
13.595760
21
64.386513
0
LINE
8
annotation
62
1
39
211
10
13.595760
20
64.386513
11
13.595760
21
64.386513
0
LINE
8
annotation
62
1
39
211
10
13.595760
20
64.386513
11
13.580888
21
64.551925
0
LINE
8
annotation
62
1
39
211
10
13.580888
20
64.551925
11
13.538007
21
64.707776
0
LINE
8
annotation
62
1
39
211
10
13.538007
20
64.707776
11
13.469716
21
64.851422
0
LINE
8
annotation
62
1
39
211
10
13.469716
20
64.851422
11
13.378616
21
64.980220
0
LINE
8
annotation
62
1
39
211
10
13.378616
20
64.980220
11
13.267306
21
65.091528
0
LINE
8
annotation
62
1
39
211
10
13.267306
20
65.091528
11
13.138388
21
65.182701
0
LINE
8
annotation
62
1
39
211
10
13.138388
20
65.182701
11
12.994461
21
65.251098
0
LINE
8
annotation
62
1
39
211
10
12.994461
20
65.251098
11
12.838126
21
65.294074
0
LINE
8
annotation
62
1
39
211
10
12.838126
20
65.294074
11
12.671982
21
65.308987
0
LINE
8
annotation
62
1
39
211
10
12.671982
20
65.308987
11
12.209441
21
65.308987
0
LINE
8
annotation
62
1
39
211
10
12.209441
20
65.308987
11
12.671982
21
65.308987
0
LINE
8
annotation
62
1
39
211
10
12.671982
20
65.308987
11
12.671982
21
65.308987
0
LINE
8
annotation
62
1
39
211
10
12.671982
20
65.308987
11
12.838126
21
65.323903
0
LINE
8
annotation
62
1
39
211
10
12.838126
20
65.323903
11
12.994461
21
65.366904
0
LINE
8
annotation
62
1
39
211
10
12.994461
20
65.366904
11
13.138388
21
65.435369
0
LINE
8
annotation
62
1
39
211
10
13.138388
20
65.435369
11
13.267306
21
65.526675
0
LINE
8
annotation
62
1
39
211
10
13.267306
20
65.526675
11
13.378616
21
65.638201
0
LINE
8
annotation
62
1
39
211
10
13.378616
20
65.638201
11
13.469716
21
65.767325
0
LINE
8
annotation
62
1
39
211
10
13.469716
20
65.767325
11
13.538007
21
65.911425
0
LINE
8
annotation
62
1
39
211
10
13.538007
20
65.911425
11
13.580888
21
66.067880
0
LINE
8
annotation
62
1
39
211
10
13.580888
20
66.067880
11
13.595760
21
66.234069
0
LINE
8
annotation
62
1
39
211
10
13.595760
20
66.234069
11
13.595760
21
66.234069
0
LINE
8
annotation
62
1
39
211
10
13.595760
20
66.234069
11
13.580888
21
66.399481
0
LINE
8
annotation
62
1
39
211
10
13.580888
20
66.399481
11
13.538007
21
66.555331
0
LINE
8
annotation
62
1
39
211
10
13.538007
20
66.555331
11
13.469716
21
66.698977
0
LINE
8
annotation
62
1
39
211
10
13.469716
20
66.698977
11
13.378616
21
66.827776
0
LINE
8
annotation
62
1
39
211
10
13.378616
20
66.827776
11
13.267306
21
66.939083
0
LINE
8
annotation
62
1
39
211
10
13.267306
20
66.939083
11
13.138388
21
67.030257
0
LINE
8
annotation
62
1
39
211
10
13.138388
20
67.030257
11
12.994461
21
67.098653
0
LINE
8
annotation
62
1
39
211
10
12.994461
20
67.098653
11
12.838126
21
67.141629
0
LINE
8
annotation
62
1
39
211
10
12.838126
20
67.141629
11
12.671982
21
67.156542
0
LINE
8
annotation
62
1
39
211
10
12.671982
20
67.156542
11
11.748204
21
67.156542
0
LINE
8
annotation
62
1
39
211
10
13.826897
20
87.856242
11
11.517061
21
87.856242
0
LINE
8
annotation
62
1
39
211
10
11.517061
20
87.856242
11
12.439535
21
91.091421
0
LINE
8
annotation
62
1
39
211
10
13.134520
20
86.931421
11
13.134520
21
88.778976
0
LINE
8
annotation
62
1
39
211
10
18.626598
20
110.861473
11
19.550376
21
110.861473
0
LINE
8
annotation
62
1
39
211
10
19.550376
20
110.861473
11
19.550376
21
110.861473
0
LINE
8
annotation
62
1
39
211
10
19.550376
20
110.861473
11
19.716176
21
110.876381
0
LINE
8
annotation
62
1
39
211
10
19.716176
20
110.876381
11
19.872329
21
110.919358
0
LINE
8
annotation
62
1
39
211
10
19.872329
20
110.919358
11
20.016202
21
110.987788
0
LINE
8
annotation
62
1
39
211
10
20.016202
20
110.987788
11
20.145164
21
111.079053
0
LINE
8
annotation
62
1
39
211
10
20.145164
20
111.079053
11
20.256580
21
111.190535
0
LINE
8
annotation
62
1
39
211
10
20.256580
20
111.190535
11
20.347820
21
111.319618
0
LINE
8
annotation
62
1
39
211
10
20.347820
20
111.319618
11
20.416251
21
111.463684
0
LINE
8
annotation
62
1
39
211
10
20.416251
20
111.463684
11
20.459239
21
111.620115
0
LINE
8
annotation
62
1
39
211
10
20.459239
20
111.620115
11
20.474154
21
111.786295
0
LINE
8
annotation
62
1
39
211
10
20.474154
20
111.786295
11
20.474154
21
112.246488
0
LINE
8
annotation
62
1
39
211
10
20.474154
20
112.246488
11
20.474154
21
112.246488
0
LINE
8
annotation
62
1
39
211
10
20.474154
20
112.246488
11
20.459248
21
112.412587
0
LINE
8
annotation
62
1
39
211
10
20.459248
20
112.412587
11
20.416281
21
112.568802
0
LINE
8
annotation
62
1
39
211
10
20.416281
20
112.568802
11
20.347878
21
112.712556
0
LINE
8
annotation
62
1
39
211
10
20.347878
20
112.712556
11
20.256666
21
112.841268
0
LINE
8
annotation
62
1
39
211
10
20.256666
20
112.841268
11
20.145271
21
112.952361
0
LINE
8
annotation
62
1
39
211
10
20.145271
20
112.952361
11
20.016318
21
113.043256
0
LINE
8
annotation
62
1
39
211
10
20.016318
20
113.043256
11
19.872434
21
113.111373
0
LINE
8
annotation
62
1
39
211
10
19.872434
20
113.111373
11
19.716245
21
113.154134
0
LINE
8
annotation
62
1
39
211
10
19.716245
20
113.154134
11
19.550376
21
113.168961
0
LINE
8
annotation
62
1
39
211
10
19.550376
20
113.168961
11
18.626598
21
113.168961
0
LINE
8
annotation
62
1
39
211
10
18.626598
20
113.168961
11
18.626598
21
115.021473
0
LINE
8
annotation
62
1
39
211
10
18.626598
20
115.021473
11
20.474154
21
115.021473
0
LINE
8
annotation
62
1
39
211
10
22.124953
20
138.951526
11
22.124953
21
138.951526
0
LINE
8
annotation
62
1
39
211
10
22.124953
20
138.951526
11
21.860314
21
138.852302
0
LINE
8
annotation
62
1
39
211
10
21.860314
20
138.852302
11
21.617473
21
138.718610
0
LINE
8
annotation
62
1
39
211
10
21.617473
20
138.718610
11
21.398923
21
138.553799
0
LINE
8
annotation
62
1
39
211
10
21.398923
20
138.553799
11
21.207156
21
138.361219
0
LINE
8
annotation
62
1
39
211
10
21.207156
20
138.361219
11
21.044666
21
138.144219
0
LINE
8
annotation
62
1
39
211
10
21.044666
20
138.144219
11
20.913946
21
137.906149
0
LINE
8
annotation
62
1
39
211
10
20.913946
20
137.906149
11
20.817488
21
137.650358
0
LINE
8
annotation
62
1
39
211
10
20.817488
20
137.650358
11
20.757785
21
137.380197
0
LINE
8
annotation
62
1
39
211
10
20.757785
20
137.380197
11
20.737330
21
137.099014
0
LINE
8
annotation
62
1
39
211
10
20.737330
20
137.099014
11
20.737330
21
135.716347
0
LINE
8
annotation
62
1
39
211
10
20.737330
20
135.716347
11
20.737330
21
135.716347
0
LINE
8
annotation
62
1
39
211
10
20.737330
20
135.716347
11
20.752245
21
135.550168
0
LINE
8
annotation
62
1
39
211
10
20.752245
20
135.550168
11
20.795233
21
135.393737
0
LINE
8
annotation
62
1
39
211
10
20.795233
20
135.393737
11
20.863664
21
135.249671
0
LINE
8
annotation
62
1
39
211
10
20.863664
20
135.249671
11
20.954904
21
135.120588
0
LINE
8
annotation
62
1
39
211
10
20.954904
20
135.120588
11
21.066320
21
135.009105
0
LINE
8
annotation
62
1
39
211
10
21.066320
20
135.009105
11
21.195281
21
134.917840
0
LINE
8
annotation
62
1
39
211
10
21.195281
20
134.917840
11
21.339155
21
134.849411
0
LINE
8
annotation
62
1
39
211
10
21.339155
20
134.849411
11
21.495308
21
134.806433
0
LINE
8
annotation
62
1
39
211
10
21.495308
20
134.806433
11
21.661108
21
134.791526
0
LINE
8
annotation
62
1
39
211
10
21.661108
20
134.791526
11
21.661108
21
134.791526
0
LINE
8
annotation
62
1
39
211
10
21.661108
20
134.791526
11
21.827251
21
134.806433
0
LINE
8
annotation
62
1
39
211
10
21.827251
20
134.806433
11
21.983587
21
134.849411
0
LINE
8
annotation
62
1
39
211
10
21.983587
20
134.849411
11
22.127514
21
134.917840
0
LINE
8
annotation
62
1
39
211
10
22.127514
20
134.917840
11
22.256432
21
135.009105
0
LINE
8
annotation
62
1
39
211
10
22.256432
20
135.009105
11
22.367741
21
135.120588
0
LINE
8
annotation
62
1
39
211
10
22.367741
20
135.120588
11
22.458842
21
135.249671
0
LINE
8
annotation
62
1
39
211
10
22.458842
20
135.249671
11
22.527132
21
135.393737
0
LINE
8
annotation
62
1
39
211
10
22.527132
20
135.393737
11
22.570014
21
135.550168
0
LINE
8
annotation
62
1
39
211
10
22.570014
20
135.550168
11
22.584885
21
135.716347
0
LINE
8
annotation
62
1
39
211
10
22.584885
20
135.716347
11
22.584885
21
136.176540
0
LINE
8
annotation
62
1
39
211
10
22.584885
20
136.176540
11
22.584885
21
136.176540
0
LINE
8
annotation
62
1
39
211
10
22.584885
20
136.176540
11
22.570014
21
136.342639
0
LINE
8
annotation
62
1
39
211
10
22.570014
20
136.342639
11
22.527132
21
136.498855
0
LINE
8
annotation
62
1
39
211
10
22.527132
20
136.498855
11
22.458842
21
136.642608
0
LINE
8
annotation
62
1
39
211
10
22.458842
20
136.642608
11
22.367741
21
136.771321
0
LINE
8
annotation
62
1
39
211
10
22.367741
20
136.771321
11
22.256432
21
136.882414
0
LINE
8
annotation
62
1
39
211
10
22.256432
20
136.882414
11
22.127514
21
136.973308
0
LINE
8
annotation
62
1
39
211
10
22.127514
20
136.973308
11
21.983587
21
137.041425
0
LINE
8
annotation
62
1
39
211
10
21.983587
20
137.041425
11
21.827251
21
137.084187
0
LINE
8
annotation
62
1
39
211
10
21.827251
20
137.084187
11
21.661108
21
137.099014
0
LINE
8
annotation
62
1
39
211
10
21.661108
20
137.099014
11
20.737330
21
137.099014
0
LINE
8
annotation
62
1
39
211
10
20.621629
20
134.271526
11
22.701629
21
134.271526
0
LINE
8
annotation
62
1
39
211
10
19.550388
20
158.721579
11
20.475210
21
162.881579
0
LINE
8
annotation
62
1
39
211
10
20.475210
20
162.881579
11
18.625306
21
162.881579
0
LINE
8
annotation
62
1
39
211
10
20.475210
20
161.029066
11
19.550388
21
161.029066
0
LINE
8
annotation
62
1
39
211
10
11.748202
20
183.573974
11
11.748202
21
183.573974
0
LINE
8
annotation
62
1
39
211
10
11.748202
20
183.573974
11
11.763117
21
183.407875
0
LINE
8
annotation
62
1
39
211
10
11.763117
20
183.407875
11
11.806105
21
183.251659
0
LINE
8
annotation
62
1
39
211
10
11.806105
20
183.251659
11
11.874536
21
183.107906
0
LINE
8
annotation
62
1
39
211
10
11.874536
20
183.107906
11
11.965776
21
182.979194
0
LINE
8
annotation
62
1
39
211
10
11.965776
20
182.979194
11
12.077192
21
182.868101
0
LINE
8
annotation
62
1
39
211
10
12.077192
20
182.868101
11
12.206154
21
182.777206
0
LINE
8
annotation
62
1
39
211
10
12.206154
20
182.777206
11
12.350027
21
182.709089
0
LINE
8
annotation
62
1
39
211
10
12.350027
20
182.709089
11
12.506180
21
182.666327
0
LINE
8
annotation
62
1
39
211
10
12.506180
20
182.666327
11
12.671980
21
182.651501
0
LINE
8
annotation
62
1
39
211
10
12.671980
20
182.651501
11
12.671980
21
182.651501
0
LINE
8
annotation
62
1
39
211
10
12.671980
20
182.651501
11
12.837780
21
182.666327
0
LINE
8
annotation
62
1
39
211
10
12.837780
20
182.666327
11
12.993933
21
182.709089
0
LINE
8
annotation
62
1
39
211
10
12.993933
20
182.709089
11
13.137806
21
182.777206
0
LINE
8
annotation
62
1
39
211
10
13.137806
20
182.777206
11
13.266767
21
182.868101
0
LINE
8
annotation
62
1
39
211
10
13.266767
20
182.868101
11
13.378184
21
182.979194
0
LINE
8
annotation
62
1
39
211
10
13.378184
20
182.979194
11
13.469424
21
183.107906
0
LINE
8
annotation
62
1
39
211
10
13.469424
20
183.107906
11
13.537854
21
183.251659
0
LINE
8
annotation
62
1
39
211
10
13.537854
20
183.251659
11
13.580843
21
183.407875
0
LINE
8
annotation
62
1
39
211
10
13.580843
20
183.407875
11
13.595758
21
183.573974
0
LINE
8
annotation
62
1
39
211
10
13.595758
20
183.573974
11
13.595758
21
184.034167
0
LINE
8
annotation
62
1
39
211
10
13.595758
20
184.034167
11
13.595758
21
184.034167
0
LINE
8
annotation
62
1
39
211
10
13.595758
20
184.034167
11
13.580852
21
184.200347
0
LINE
8
annotation
62
1
39
211
10
13.580852
20
184.200347
11
13.537884
21
184.356778
0
LINE
8
annotation
62
1
39
211
10
13.537884
20
184.356778
11
13.469482
21
184.500844
0
LINE
8
annotation
62
1
39
211
10
13.469482
20
184.500844
11
13.378270
21
184.629926
0
LINE
8
annotation
62
1
39
211
10
13.378270
20
184.629926
11
13.266875
21
184.741409
0
LINE
8
annotation
62
1
39
211
10
13.266875
20
184.741409
11
13.137922
21
184.832674
0
LINE
8
annotation
62
1
39
211
10
13.137922
20
184.832674
11
12.994038
21
184.901104
0
LINE
8
annotation
62
1
39
211
10
12.994038
20
184.901104
11
12.837849
21
184.944081
0
LINE
8
annotation
62
1
39
211
10
12.837849
20
184.944081
11
12.671980
21
184.958988
0
LINE
8
annotation
62
1
39
211
10
12.671980
20
184.958988
11
12.671980
21
184.958988
0
LINE
8
annotation
62
1
39
211
10
12.671980
20
184.958988
11
12.506111
21
184.944072
0
LINE
8
annotation
62
1
39
211
10
12.506111
20
184.944072
11
12.349922
21
184.901074
0
LINE
8
annotation
62
1
39
211
10
12.349922
20
184.901074
11
12.206038
21
184.832616
0
LINE
8
annotation
62
1
39
211
10
12.206038
20
184.832616
11
12.077085
21
184.741323
0
LINE
8
annotation
62
1
39
211
10
12.077085
20
184.741323
11
11.965690
21
184.629819
0
LINE
8
annotation
62
1
39
211
10
11.965690
20
184.629819
11
11.874478
21
184.500728
0
LINE
8
annotation
62
1
39
211
10
11.874478
20
184.500728
11
11.806075
21
184.356673
0
LINE
8
annotation
62
1
39
211
10
11.806075
20
184.356673
11
11.763108
21
184.200278
0
LINE
8
annotation
62
1
39
211
10
11.763108
20
184.200278
11
11.748202
21
184.034167
0
LINE
8
annotation
62
1
39
211
10
11.748202
20
184.034167
11
11.748202
21
183.573974
0
LINE
8
annotation
62
1
39
211
10
13.595758
20
185.884070
11
13.595758
21
185.884070
0
LINE
8
annotation
62
1
39
211
10
13.595758
20
185.884070
11
13.580852
21
186.049482
0
LINE
8
annotation
62
1
39
211
10
13.580852
20
186.049482
11
13.537884
21
186.205333
0
LINE
8
annotation
62
1
39
211
10
13.537884
20
186.205333
11
13.469482
21
186.348979
0
LINE
8
annotation
62
1
39
211
10
13.469482
20
186.348979
11
13.378270
21
186.477777
0
LINE
8
annotation
62
1
39
211
10
13.378270
20
186.477777
11
13.266875
21
186.589085
0
LINE
8
annotation
62
1
39
211
10
13.266875
20
186.589085
11
13.137922
21
186.680258
0
LINE
8
annotation
62
1
39
211
10
13.137922
20
186.680258
11
12.994038
21
186.748655
0
LINE
8
annotation
62
1
39
211
10
12.994038
20
186.748655
11
12.837849
21
186.791631
0
LINE
8
annotation
62
1
39
211
10
12.837849
20
186.791631
11
12.671980
21
186.806544
0
LINE
8
annotation
62
1
39
211
10
12.671980
20
186.806544
11
12.671980
21
186.806544
0
LINE
8
annotation
62
1
39
211
10
12.671980
20
186.806544
11
12.506111
21
186.791631
0
LINE
8
annotation
62
1
39
211
10
12.506111
20
186.791631
11
12.349922
21
186.748655
0
LINE
8
annotation
62
1
39
211
10
12.349922
20
186.748655
11
12.206038
21
186.680258
0
LINE
8
annotation
62
1
39
211
10
12.206038
20
186.680258
11
12.077085
21
186.589085
0
LINE
8
annotation
62
1
39
211
10
12.077085
20
186.589085
11
11.965690
21
186.477777
0
LINE
8
annotation
62
1
39
211
10
11.965690
20
186.477777
11
11.874478
21
186.348979
0
LINE
8
annotation
62
1
39
211
10
11.874478
20
186.348979
11
11.806075
21
186.205333
0
LINE
8
annotation
62
1
39
211
10
11.806075
20
186.205333
11
11.763108
21
186.049482
0
LINE
8
annotation
62
1
39
211
10
11.763108
20
186.049482
11
11.748202
21
185.884070
0
LINE
8
annotation
62
1
39
211
10
11.748202
20
185.884070
11
11.748202
21
185.884070
0
LINE
8
annotation
62
1
39
211
10
11.748202
20
185.884070
11
11.763117
21
185.717882
0
LINE
8
annotation
62
1
39
211
10
11.763117
20
185.717882
11
11.806105
21
185.561427
0
LINE
8
annotation
62
1
39
211
10
11.806105
20
185.561427
11
11.874536
21
185.417326
0
LINE
8
annotation
62
1
39
211
10
11.874536
20
185.417326
11
11.965776
21
185.288202
0
LINE
8
annotation
62
1
39
211
10
11.965776
20
185.288202
11
12.077192
21
185.176676
0
LINE
8
annotation
62
1
39
211
10
12.077192
20
185.176676
11
12.206154
21
185.085370
0
LINE
8
annotation
62
1
39
211
10
12.206154
20
185.085370
11
12.350027
21
185.016906
0
LINE
8
annotation
62
1
39
211
10
12.350027
20
185.016906
11
12.506180
21
184.973905
0
LINE
8
annotation
62
1
39
211
10
12.506180
20
184.973905
11
12.671980
21
184.958988
0
LINE
8
annotation
62
1
39
211
10
12.671980
20
184.958988
11
12.671980
21
184.958988
0
LINE
8
annotation
62
1
39
211
10
12.671980
20
184.958988
11
12.837780
21
184.973905
0
LINE
8
annotation
62
1
39
211
10
12.837780
20
184.973905
11
12.993933
21
185.016906
0
LINE
8
annotation
62
1
39
211
10
12.993933
20
185.016906
11
13.137806
21
185.085370
0
LINE
8
annotation
62
1
39
211
10
13.137806
20
185.085370
11
13.266767
21
185.176676
0
LINE
8
annotation
62
1
39
211
10
13.266767
20
185.176676
11
13.378184
21
185.288202
0
LINE
8
annotation
62
1
39
211
10
13.378184
20
185.288202
11
13.469424
21
185.417326
0
LINE
8
annotation
62
1
39
211
10
13.469424
20
185.417326
11
13.537854
21
185.561427
0
LINE
8
annotation
62
1
39
211
10
13.537854
20
185.561427
11
13.580843
21
185.717882
0
LINE
8
annotation
62
1
39
211
10
13.580843
20
185.717882
11
13.595758
21
185.884070
0
LINE
8
annotation
62
1
39
211
10
12.209441
20
206.581684
11
12.209441
21
206.581684
0
LINE
8
annotation
62
1
39
211
10
12.209441
20
206.581684
11
12.473614
21
206.680127
0
LINE
8
annotation
62
1
39
211
10
12.473614
20
206.680127
11
12.716092
21
206.813192
0
LINE
8
annotation
62
1
39
211
10
12.716092
20
206.813192
11
12.934370
21
206.977488
0
LINE
8
annotation
62
1
39
211
10
12.934370
20
206.977488
11
13.125941
21
207.169623
0
LINE
8
annotation
62
1
39
211
10
13.125941
20
207.169623
11
13.288300
21
207.386208
0
LINE
8
annotation
62
1
39
211
10
13.288300
20
207.386208
11
13.418941
21
207.623853
0
LINE
8
annotation
62
1
39
211
10
13.418941
20
207.623853
11
13.515358
21
207.879166
0
LINE
8
annotation
62
1
39
211
10
13.515358
20
207.879166
11
13.575046
21
208.148759
0
LINE
8
annotation
62
1
39
211
10
13.575046
20
208.148759
11
13.595499
21
208.429239
0
LINE
8
annotation
62
1
39
211
10
13.595499
20
208.429239
11
13.595499
21
209.816601
0
LINE
8
annotation
62
1
39
211
10
13.595499
20
209.816601
11
13.595499
21
209.816601
0
LINE
8
annotation
62
1
39
211
10
13.595499
20
209.816601
11
13.580627
21
209.982790
0
LINE
8
annotation
62
1
39
211
10
13.580627
20
209.982790
11
13.537746
21
210.139245
0
LINE
8
annotation
62
1
39
211
10
13.537746
20
210.139245
11
13.469455
21
210.283346
0
LINE
8
annotation
62
1
39
211
10
13.469455
20
210.283346
11
13.378355
21
210.412470
0
LINE
8
annotation
62
1
39
211
10
13.378355
20
210.412470
11
13.267045
21
210.523995
0
LINE
8
annotation
62
1
39
211
10
13.267045
20
210.523995
11
13.138127
21
210.615301
0
LINE
8
annotation
62
1
39
211
10
13.138127
20
210.615301
11
12.994200
21
210.683766
0
LINE
8
annotation
62
1
39
211
10
12.994200
20
210.683766
11
12.837865
21
210.726767
0
LINE
8
annotation
62
1
39
211
10
12.837865
20
210.726767
11
12.671721
21
210.741684
0
LINE
8
annotation
62
1
39
211
10
12.671721
20
210.741684
11
12.671721
21
210.741684
0
LINE
8
annotation
62
1
39
211
10
12.671721
20
210.741684
11
12.505921
21
210.726767
0
LINE
8
annotation
62
1
39
211
10
12.505921
20
210.726767
11
12.349768
21
210.683766
0
LINE
8
annotation
62
1
39
211
10
12.349768
20
210.683766
11
12.205895
21
210.615301
0
LINE
8
annotation
62
1
39
211
10
12.205895
20
210.615301
11
12.076934
21
210.523995
0
LINE
8
annotation
62
1
39
211
10
12.076934
20
210.523995
11
11.965517
21
210.412470
0
LINE
8
annotation
62
1
39
211
10
11.965517
20
210.412470
11
11.874277
21
210.283346
0
LINE
8
annotation
62
1
39
211
10
11.874277
20
210.283346
11
11.805847
21
210.139245
0
LINE
8
annotation
62
1
39
211
10
11.805847
20
210.139245
11
11.762858
21
209.982790
0
LINE
8
annotation
62
1
39
211
10
11.762858
20
209.982790
11
11.747943
21
209.816601
0
LINE
8
annotation
62
1
39
211
10
11.747943
20
209.816601
11
11.747943
21
209.354060
0
LINE
8
annotation
62
1
39
211
10
11.747943
20
209.354060
11
11.747943
21
209.354060
0
LINE
8
annotation
62
1
39
211
10
11.747943
20
209.354060
11
11.762858
21
209.187881
0
LINE
8
annotation
62
1
39
211
10
11.762858
20
209.187881
11
11.805847
21
209.031450
0
LINE
8
annotation
62
1
39
211
10
11.805847
20
209.031450
11
11.874277
21
208.887384
0
LINE
8
annotation
62
1
39
211
10
11.874277
20
208.887384
11
11.965517
21
208.758301
0
LINE
8
annotation
62
1
39
211
10
11.965517
20
208.758301
11
12.076934
21
208.646818
0
LINE
8
annotation
62
1
39
211
10
12.076934
20
208.646818
11
12.205895
21
208.555553
0
LINE
8
annotation
62
1
39
211
10
12.205895
20
208.555553
11
12.349768
21
208.487124
0
LINE
8
annotation
62
1
39
211
10
12.349768
20
208.487124
11
12.505921
21
208.444146
0
LINE
8
annotation
62
1
39
211
10
12.505921
20
208.444146
11
12.671721
21
208.429239
0
LINE
8
annotation
62
1
39
211
10
12.671721
20
208.429239
11
13.595499
21
208.429239
0
LINE
8
annotation
62
1
39
211
10
11.632504
20
206.061684
11
13.712504
21
206.061684
0
LINE
8
annotation
62
1
39
211
10
16.605640
20
230.590724
11
16.605640
21
234.592748
0
LINE
8
annotation
62
1
39
211
10
16.605640
20
234.592748
11
15.715939
21
233.702796
0
LINE
8
annotation
62
1
39
211
10
18.749105
20
230.643512
11
18.749105
21
230.643512
0
LINE
8
annotation
62
1
39
211
10
18.749105
20
230.643512
11
18.842117
21
230.608742
0
LINE
8
annotation
62
1
39
211
10
18.842117
20
230.608742
11
18.937509
21
230.591467
0
LINE
8
annotation
62
1
39
211
10
18.937509
20
230.591467
11
19.033123
21
230.590984
0
LINE
8
annotation
62
1
39
211
10
19.033123
20
230.590984
11
19.126805
21
230.606588
0
LINE
8
annotation
62
1
39
211
10
19.126805
20
230.606588
11
19.216396
21
230.637575
0
LINE
8
annotation
62
1
39
211
10
19.216396
20
230.637575
11
19.299741
21
230.683240
0
LINE
8
annotation
62
1
39
211
10
19.299741
20
230.683240
11
19.374683
21
230.742879
0
LINE
8
annotation
62
1
39
211
10
19.374683
20
230.742879
11
19.439065
21
230.815788
0
LINE
8
annotation
62
1
39
211
10
19.439065
20
230.815788
11
19.490732
21
230.901262
0
LINE
8
annotation
62
1
39
211
10
19.490732
20
230.901262
11
19.490732
21
230.901262
0
LINE
8
annotation
62
1
39
211
10
19.490732
20
230.901262
11
19.644885
21
231.262096
0
LINE
8
annotation
62
1
39
211
10
19.644885
20
231.262096
11
19.760501
21
231.633374
0
LINE
8
annotation
62
1
39
211
10
19.760501
20
231.633374
11
19.837577
21
232.012136
0
LINE
8
annotation
62
1
39
211
10
19.837577
20
232.012136
11
19.876116
21
232.395421
0
LINE
8
annotation
62
1
39
211
10
19.876116
20
232.395421
11
19.876116
21
232.780271
0
LINE
8
annotation
62
1
39
211
10
19.876116
20
232.780271
11
19.837577
21
233.163723
0
LINE
8
annotation
62
1
39
211
10
19.837577
20
233.163723
11
19.760501
21
233.542820
0
LINE
8
annotation
62
1
39
211
10
19.760501
20
233.542820
11
19.644885
21
233.914600
0
LINE
8
annotation
62
1
39
211
10
19.644885
20
233.914600
11
19.490732
21
234.276103
0
LINE
8
annotation
62
1
39
211
10
19.490732
20
234.276103
11
19.490732
21
234.276103
0
LINE
8
annotation
62
1
39
211
10
19.490732
20
234.276103
11
19.471128
21
234.312586
0
LINE
8
annotation
62
1
39
211
10
19.471128
20
234.312586
11
19.448903
21
234.347467
0
LINE
8
annotation
62
1
39
211
10
19.448903
20
234.347467
11
19.424224
21
234.380573
0
LINE
8
annotation
62
1
39
211
10
19.424224
20
234.380573
11
19.397258
21
234.411733
0
LINE
8
annotation
62
1
39
211
10
19.397258
20
234.411733
11
19.368173
21
234.440776
0
LINE
8
annotation
62
1
39
211
10
19.368173
20
234.440776
11
19.337136
21
234.467531
0
LINE
8
annotation
62
1
39
211
10
19.337136
20
234.467531
11
19.304314
21
234.491825
0
LINE
8
annotation
62
1
39
211
10
19.304314
20
234.491825
11
19.269875
21
234.513487
0
LINE
8
annotation
62
1
39
211
10
19.269875
20
234.513487
11
19.233986
21
234.532347
0
LINE
8
annotation
62
1
39
211
10
19.233986
20
234.532347
11
19.233986
21
234.532347
0
LINE
8
annotation
62
1
39
211
10
19.233986
20
234.532347
11
19.140235
21
234.567871
0
LINE
8
annotation
62
1
39
211
10
19.140235
20
234.567871
11
19.044285
21
234.585736
0
LINE
8
annotation
62
1
39
211
10
19.044285
20
234.585736
11
18.948267
21
234.586650
0
LINE
8
annotation
62
1
39
211
10
18.948267
20
234.586650
11
18.854312
21
234.571323
0
LINE
8
annotation
62
1
39
211
10
18.854312
20
234.571323
11
18.764552
21
234.540461
0
LINE
8
annotation
62
1
39
211
10
18.764552
20
234.540461
11
18.681119
21
234.494775
0
LINE
8
annotation
62
1
39
211
10
18.681119
20
234.494775
11
18.606145
21
234.434973
0
LINE
8
annotation
62
1
39
211
10
18.606145
20
234.434973
11
18.541762
21
234.361762
0
LINE
8
annotation
62
1
39
211
10
18.541762
20
234.361762
11
18.490100
21
234.275852
0
LINE
8
annotation
62
1
39
211
10
18.490100
20
234.275852
11
18.490100
21
234.275852
0
LINE
8
annotation
62
1
39
211
10
18.490100
20
234.275852
11
18.336691
21
233.915092
0
LINE
8
annotation
62
1
39
211
10
18.336691
20
233.915092
11
18.221633
21
233.543870
0
LINE
8
annotation
62
1
39
211
10
18.221633
20
233.543870
11
18.144928
21
233.165145
0
LINE
8
annotation
62
1
39
211
10
18.144928
20
233.165145
11
18.106576
21
232.781879
0
LINE
8
annotation
62
1
39
211
10
18.106576
20
232.781879
11
18.106576
21
232.397029
0
LINE
8
annotation
62
1
39
211
10
18.106576
20
232.397029
11
18.144928
21
232.013558
0
LINE
8
annotation
62
1
39
211
10
18.144928
20
232.013558
11
18.221633
21
231.634425
0
LINE
8
annotation
62
1
39
211
10
18.221633
20
231.634425
11
18.336691
21
231.262589
0
LINE
8
annotation
62
1
39
211
10
18.336691
20
231.262589
11
18.490100
21
230.901011
0
LINE
8
annotation
62
1
39
211
10
18.490100
20
230.901011
11
18.490100
21
230.901011
0
LINE
8
annotation
62
1
39
211
10
18.490100
20
230.901011
11
18.509633
21
230.864600
0
LINE
8
annotation
62
1
39
211
10
18.509633
20
230.864600
11
18.531694
21
230.829894
0
LINE
8
annotation
62
1
39
211
10
18.531694
20
230.829894
11
18.556190
21
230.796996
0
LINE
8
annotation
62
1
39
211
10
18.556190
20
230.796996
11
18.583029
21
230.766014
0
LINE
8
annotation
62
1
39
211
10
18.583029
20
230.766014
11
18.612117
21
230.737052
0
LINE
8
annotation
62
1
39
211
10
18.612117
20
230.737052
11
18.643362
21
230.710215
0
LINE
8
annotation
62
1
39
211
10
18.643362
20
230.710215
11
18.676670
21
230.685610
0
LINE
8
annotation
62
1
39
211
10
18.676670
20
230.685610
11
18.711949
21
230.663340
0
LINE
8
annotation
62
1
39
211
10
18.711949
20
230.663340
11
18.749105
21
230.643512
0
LINE
8
annotation
62
1
39
211
10
24.265722
20
254.441789
11
24.265722
21
258.601789
0
LINE
8
annotation
62
1
39
211
10
24.265722
20
258.601789
11
23.340900
21
257.676706
0
LINE
8
annotation
62
1
39
211
10
26.750543
20
254.441789
11
26.750543
21
258.601789
0
LINE
8
annotation
62
1
39
211
10
26.750543
20
258.601789
11
25.825722
21
257.676706
0
LINE
8
annotation
62
1
39
211
10
19.448704
20
144.391545
11
14.242897
21
144.391545
0
LINE
8
annotation
62
1
39
211
10
14.242897
20
144.391545
11
19.448704
21
153.767171
0
LINE
8
annotation
62
1
39
211
10
19.448704
20
153.767171
11
14.242897
21
153.767171
0
LINE
8
annotation
62
1
39
211
10
28.091878
20
149.079358
11
22.965446
21
149.079358
0
LINE
8
annotation
62
1
39
211
10
36.812662
20
146.475867
11
31.606856
21
146.475867
0
LINE
8
annotation
62
1
39
211
10
31.606856
20
146.475867
11
33.685886
21
153.767171
0
LINE
8
annotation
62
1
39
211
10
35.252214
20
144.391545
11
35.252214
21
148.555485
0
LINE
8
boundary
62
5
39
2
10
90.842561
20
6.667500
11
117.842560
21
6.667524
0
LINE
8
boundary
62
5
39
2
10
117.842560
20
6.667524
11
75.722552
21
34.875430
0
LINE
8
boundary
62
5
39
2
10
75.722552
20
34.875430
11
75.722614
21
80.117404
0
LINE
8
boundary
62
5
39
2
10
75.722614
20
80.117404
11
107.312572
21
98.257977
0
LINE
8
boundary
62
5
39
2
10
107.312572
20
98.257977
11
112.250926
21
111.775561
0
LINE
8
boundary
62
5
39
2
10
112.250926
20
111.775561
11
117.842501
21
127.081172
0
LINE
8
boundary
62
5
39
2
10
117.842501
20
127.081172
11
117.842575
21
128.388153
0
LINE
8
boundary
62
5
39
2
10
117.842575
20
128.388153
11
117.842618
21
129.648307
0
LINE
8
boundary
62
5
39
2
10
117.842618
20
129.648307
11
75.722583
21
161.640568
0
LINE
8
boundary
62
5
39
2
10
75.722583
20
161.640568
11
75.722583
21
189.089147
0
LINE
8
boundary
62
5
39
2
10
75.722583
20
189.089147
11
75.722608
21
212.469473
0
LINE
8
boundary
62
5
39
2
10
75.722608
20
212.469473
11
81.249531
21
219.139169
0
LINE
8
boundary
62
5
39
2
10
81.249531
20
219.139169
11
117.842579
21
263.298240
0
LINE
8
boundary
62
5
39
2
10
117.842579
20
263.298240
11
77.039462
21
263.298305
0
LINE
8
boundary
62
5
39
2
10
77.039462
20
263.298305
11
63.842589
21
263.298308
0
LINE
8
boundary
62
5
39
2
10
63.842589
20
263.298308
11
63.842587
21
251.639775
0
LINE
8
boundary
62
5
39
2
10
63.842587
20
251.639775
11
85.885105
21
251.639775
0
LINE
8
boundary
62
5
39
2
10
85.885105
20
251.639775
11
85.885105
21
249.293775
0
LINE
8
boundary
62
5
39
2
10
85.885105
20
249.293775
11
63.842586
21
249.293775
0
LINE
8
boundary
62
5
39
2
10
63.842586
20
249.293775
11
63.842581
21
226.106690
0
LINE
8
boundary
62
5
39
2
10
63.842581
20
226.106690
11
75.252062
21
225.976692
0
LINE
8
boundary
62
5
39
2
10
75.252062
20
225.976692
11
75.252062
21
223.630692
0
LINE
8
boundary
62
5
39
2
10
75.252062
20
223.630692
11
63.842581
21
223.630692
0
LINE
8
boundary
62
5
39
2
10
63.842581
20
223.630692
11
63.842576
21
200.443608
0
LINE
8
boundary
62
5
39
2
10
63.842576
20
200.443608
11
69.655586
21
200.313608
0
LINE
8
boundary
62
5
39
2
10
69.655586
20
200.313608
11
69.655585
21
197.967608
0
LINE
8
boundary
62
5
39
2
10
69.655585
20
197.967608
11
63.842576
21
197.967608
0
LINE
8
boundary
62
5
39
2
10
63.842576
20
197.967608
11
63.842571
21
174.780524
0
LINE
8
boundary
62
5
39
2
10
63.842571
20
174.780524
11
69.655576
21
174.650524
0
LINE
8
boundary
62
5
39
2
10
69.655576
20
174.650524
11
69.655577
21
172.304524
0
LINE
8
boundary
62
5
39
2
10
69.655577
20
172.304524
11
63.842571
21
172.304525
0
LINE
8
boundary
62
5
39
2
10
63.842571
20
172.304525
11
63.842567
21
157.013385
0
LINE
8
boundary
62
5
39
2
10
63.842567
20
157.013385
11
63.842566
21
149.117438
0
LINE
8
boundary
62
5
39
2
10
63.842566
20
149.117438
11
78.757102
21
148.987441
0
LINE
8
boundary
62
5
39
2
10
78.757102
20
148.987441
11
78.757101
21
146.641441
0
LINE
8
boundary
62
5
39
2
10
78.757101
20
146.641441
11
63.842565
21
146.641441
0
LINE
8
boundary
62
5
39
2
10
63.842565
20
146.641441
11
63.842561
21
128.298298
0
LINE
8
boundary
62
5
39
2
10
63.842561
20
128.298298
11
63.842561
21
123.454357
0
LINE
8
boundary
62
5
39
2
10
63.842561
20
123.454357
11
89.815030
21
123.324358
0
LINE
8
boundary
62
5
39
2
10
89.815030
20
123.324358
11
89.815030
21
120.978358
0
LINE
8
boundary
62
5
39
2
10
89.815030
20
120.978358
11
63.842560
21
120.978357
0
LINE
8
boundary
62
5
39
2
10
63.842560
20
120.978357
11
63.842556
21
97.791273
0
LINE
8
boundary
62
5
39
2
10
63.842556
20
97.791273
11
83.909685
21
97.661274
0
LINE
8
boundary
62
5
39
2
10
83.909685
20
97.661274
11
83.909685
21
95.315274
0
LINE
8
boundary
62
5
39
2
10
83.909685
20
95.315274
11
63.842556
21
95.315274
0
LINE
8
boundary
62
5
39
2
10
63.842556
20
95.315274
11
63.842552
21
71.998190
0
LINE
8
boundary
62
5
39
2
10
63.842552
20
71.998190
11
69.655550
21
71.998190
0
LINE
8
boundary
62
5
39
2
10
69.655550
20
71.998190
11
69.655550
21
69.652190
0
LINE
8
boundary
62
5
39
2
10
69.655550
20
69.652190
11
63.842551
21
69.652191
0
LINE
8
boundary
62
5
39
2
10
63.842551
20
69.652191
11
63.842547
21
46.335107
0
LINE
8
boundary
62
5
39
2
10
63.842547
20
46.335107
11
69.655549
21
46.335107
0
LINE
8
boundary
62
5
39
2
10
69.655549
20
46.335107
11
69.655549
21
43.989107
0
LINE
8
boundary
62
5
39
2
10
69.655549
20
43.989107
11
63.842547
21
43.989107
0
LINE
8
boundary
62
5
39
2
10
63.842547
20
43.989107
11
63.842543
21
20.802023
0
LINE
8
boundary
62
5
39
2
10
63.842543
20
20.802023
11
81.135560
21
20.672024
0
LINE
8
boundary
62
5
39
2
10
81.135560
20
20.672024
11
81.135560
21
18.326024
0
LINE
8
boundary
62
5
39
2
10
81.135560
20
18.326024
11
63.842543
21
18.326024
0
LINE
8
boundary
62
5
39
2
10
63.842543
20
18.326024
11
63.842541
21
6.667518
0
LINE
8
boundary
62
5
39
2
10
63.842541
20
6.667518
11
90.842561
21
6.667500
0
LINE
8
annotation
62
1
39
211
10
86.924579
20
17.419024
11
86.924579
21
21.579024
0
LINE
8
annotation
62
1
39
211
10
86.924579
20
21.579024
11
85.999758
21
20.653941
0
LINE
8
annotation
62
1
39
211
10
75.233311
20
43.310516
11
73.588665
21
43.310516
0
LINE
8
annotation
62
1
39
211
10
73.588665
20
43.310516
11
75.108371
21
45.757047
0
LINE
8
annotation
62
1
39
211
10
75.108371
20
45.757047
11
75.108371
21
45.757047
0
LINE
8
annotation
62
1
39
211
10
75.108371
20
45.757047
11
75.110188
21
45.759296
0
LINE
8
annotation
62
1
39
211
10
75.110188
20
45.759296
11
75.111930
21
45.761563
0
LINE
8
annotation
62
1
39
211
10
75.111930
20
45.761563
11
75.113610
21
45.763868
0
LINE
8
annotation
62
1
39
211
10
75.113610
20
45.763868
11
75.115237
21
45.766231
0
LINE
8
annotation
62
1
39
211
10
75.115237
20
45.766231
11
75.116824
21
45.768670
0
LINE
8
annotation
62
1
39
211
10
75.116824
20
45.768670
11
75.118383
21
45.771205
0
LINE
8
annotation
62
1
39
211
10
75.118383
20
45.771205
11
75.119925
21
45.773854
0
LINE
8
annotation
62
1
39
211
10
75.119925
20
45.773854
11
75.121460
21
45.776637
0
LINE
8
annotation
62
1
39
211
10
75.121460
20
45.776637
11
75.123002
21
45.779574
0
LINE
8
annotation
62
1
39
211
10
75.123002
20
45.779574
11
75.123002
21
45.779574
0
LINE
8
annotation
62
1
39
211
10
75.123002
20
45.779574
11
75.185750
21
45.914300
0
LINE
8
annotation
62
1
39
211
10
75.185750
20
45.914300
11
75.222407
21
46.053955
0
LINE
8
annotation
62
1
39
211
10
75.222407
20
46.053955
11
75.233870
21
46.195384
0
LINE
8
annotation
62
1
39
211
10
75.233870
20
46.195384
11
75.221038
21
46.335431
0
LINE
8
annotation
62
1
39
211
10
75.221038
20
46.335431
11
75.184809
21
46.470941
0
LINE
8
annotation
62
1
39
211
10
75.184809
20
46.470941
11
75.126081
21
46.598757
0
LINE
8
annotation
62
1
39
211
10
75.126081
20
46.598757
11
75.045753
21
46.715724
0
LINE
8
annotation
62
1
39
211
10
75.045753
20
46.715724
11
74.944724
21
46.818688
0
LINE
8
annotation
62
1
39
211
10
74.944724
20
46.818688
11
74.823891
21
46.904491
0
LINE
8
annotation
62
1
39
211
10
74.823891
20
46.904491
11
74.823891
21
46.904491
0
LINE
8
annotation
62
1
39
211
10
74.823891
20
46.904491
11
74.688790
21
46.966347
0
LINE
8
annotation
62
1
39
211
10
74.688790
20
46.966347
11
74.548921
21
47.002439
0
LINE
8
annotation
62
1
39
211
10
74.548921
20
47.002439
11
74.407410
21
47.013578
0
LINE
8
annotation
62
1
39
211
10
74.407410
20
47.013578
11
74.267384
21
47.000577
0
LINE
8
annotation
62
1
39
211
10
74.267384
20
47.000577
11
74.131970
21
46.964247
0
LINE
8
annotation
62
1
39
211
10
74.131970
20
46.964247
11
74.004295
21
46.905402
0
LINE
8
annotation
62
1
39
211
10
74.004295
20
46.905402
11
73.887486
21
46.824854
0
LINE
8
annotation
62
1
39
211
10
73.887486
20
46.824854
11
73.784670
21
46.723414
0
LINE
8
annotation
62
1
39
211
10
73.784670
20
46.723414
11
73.698974
21
46.601896
0
LINE
8
annotation
62
1
39
211
10
73.698974
20
46.601896
11
73.590988
21
46.394748
0
LINE
8
annotation
62
1
39
211
10
73.588923
20
68.973620
11
74.411302
21
68.973620
0
LINE
8
annotation
62
1
39
211
10
74.411302
20
68.973620
11
74.411302
21
68.973620
0
LINE
8
annotation
62
1
39
211
10
74.411302
20
68.973620
11
74.559208
21
68.986889
0
LINE
8
annotation
62
1
39
211
10
74.559208
20
68.986889
11
74.698383
21
69.025128
0
LINE
8
annotation
62
1
39
211
10
74.698383
20
69.025128
11
74.826512
21
69.085992
0
LINE
8
annotation
62
1
39
211
10
74.826512
20
69.085992
11
74.941279
21
69.167133
0
LINE
8
annotation
62
1
39
211
10
74.941279
20
69.167133
11
75.040371
21
69.266204
0
LINE
8
annotation
62
1
39
211
10
75.040371
20
69.266204
11
75.121471
21
69.380857
0
LINE
8
annotation
62
1
39
211
10
75.121471
20
69.380857
11
75.182266
21
69.508745
0
LINE
8
annotation
62
1
39
211
10
75.182266
20
69.508745
11
75.220440
21
69.647521
0
LINE
8
annotation
62
1
39
211
10
75.220440
20
69.647521
11
75.233680
21
69.794837
0
LINE
8
annotation
62
1
39
211
10
75.233680
20
69.794837
11
75.233680
21
70.206607
0
LINE
8
annotation
62
1
39
211
10
75.233680
20
70.206607
11
75.233680
21
70.206607
0
LINE
8
annotation
62
1
39
211
10
75.233680
20
70.206607
11
75.220440
21
70.353862
0
LINE
8
annotation
62
1
39
211
10
75.220440
20
70.353862
11
75.182266
21
70.492606
0
LINE
8
annotation
62
1
39
211
10
75.182266
20
70.492606
11
75.121471
21
70.620484
0
LINE
8
annotation
62
1
39
211
10
75.121471
20
70.620484
11
75.040371
21
70.735145
0
LINE
8
annotation
62
1
39
211
10
75.040371
20
70.735145
11
74.941279
21
70.834235
0
LINE
8
annotation
62
1
39
211
10
74.941279
20
70.834235
11
74.826512
21
70.915400
0
LINE
8
annotation
62
1
39
211
10
74.826512
20
70.915400
11
74.698383
21
70.976289
0
LINE
8
annotation
62
1
39
211
10
74.698383
20
70.976289
11
74.559208
21
71.014548
0
LINE
8
annotation
62
1
39
211
10
74.559208
20
71.014548
11
74.411302
21
71.027824
0
LINE
8
annotation
62
1
39
211
10
74.411302
20
71.027824
11
73.999532
21
71.027824
0
LINE
8
annotation
62
1
39
211
10
73.999532
20
71.027824
11
74.411302
21
71.027824
0
LINE
8
annotation
62
1
39
211
10
74.411302
20
71.027824
11
74.411302
21
71.027824
0
LINE
8
annotation
62
1
39
211
10
74.411302
20
71.027824
11
74.559208
21
71.041103
0
LINE
8
annotation
62
1
39
211
10
74.559208
20
71.041103
11
74.698383
21
71.079384
0
LINE
8
annotation
62
1
39
211
10
74.698383
20
71.079384
11
74.826512
21
71.140334
0
LINE
8
annotation
62
1
39
211
10
74.826512
20
71.140334
11
74.941279
21
71.221617
0
LINE
8
annotation
62
1
39
211
10
74.941279
20
71.221617
11
75.040371
21
71.320901
0
LINE
8
annotation
62
1
39
211
10
75.040371
20
71.320901
11
75.121471
21
71.435852
0
LINE
8
annotation
62
1
39
211
10
75.121471
20
71.435852
11
75.182266
21
71.564135
0
LINE
8
annotation
62
1
39
211
10
75.182266
20
71.564135
11
75.220440
21
71.703417
0
LINE
8
annotation
62
1
39
211
10
75.220440
20
71.703417
11
75.233680
21
71.851363
0
LINE
8
annotation
62
1
39
211
10
75.233680
20
71.851363
11
75.233680
21
71.851363
0
LINE
8
annotation
62
1
39
211
10
75.233680
20
71.851363
11
75.220440
21
71.998619
0
LINE
8
annotation
62
1
39
211
10
75.220440
20
71.998619
11
75.182266
21
72.137362
0
LINE
8
annotation
62
1
39
211
10
75.182266
20
72.137362
11
75.121471
21
72.265240
0
LINE
8
annotation
62
1
39
211
10
75.121471
20
72.265240
11
75.040371
21
72.379901
0
LINE
8
annotation
62
1
39
211
10
75.040371
20
72.379901
11
74.941279
21
72.478991
0
LINE
8
annotation
62
1
39
211
10
74.941279
20
72.478991
11
74.826512
21
72.560157
0
LINE
8
annotation
62
1
39
211
10
74.826512
20
72.560157
11
74.698383
21
72.621046
0
LINE
8
annotation
62
1
39
211
10
74.698383
20
72.621046
11
74.559208
21
72.659304
0
LINE
8
annotation
62
1
39
211
10
74.559208
20
72.659304
11
74.411302
21
72.672580
0
LINE
8
annotation
62
1
39
211
10
74.411302
20
72.672580
11
73.588923
21
72.672580
0
LINE
8
annotation
62
1
39
211
10
90.391081
20
95.333095
11
88.081246
21
95.333095
0
LINE
8
annotation
62
1
39
211
10
88.081246
20
95.333095
11
89.003719
21
98.568274
0
LINE
8
annotation
62
1
39
211
10
89.698705
20
94.408274
11
89.698705
21
96.255830
0
LINE
8
annotation
62
1
39
211
10
94.217731
20
120.071358
11
95.141509
21
120.071358
0
LINE
8
annotation
62
1
39
211
10
95.141509
20
120.071358
11
95.141509
21
120.071358
0
LINE
8
annotation
62
1
39
211
10
95.141509
20
120.071358
11
95.307309
21
120.086265
0
LINE
8
annotation
62
1
39
211
10
95.307309
20
120.086265
11
95.463461
21
120.129242
0
LINE
8
annotation
62
1
39
211
10
95.463461
20
120.129242
11
95.607335
21
120.197672
0
LINE
8
annotation
62
1
39
211
10
95.607335
20
120.197672
11
95.736296
21
120.288937
0
LINE
8
annotation
62
1
39
211
10
95.736296
20
120.288937
11
95.847713
21
120.400419
0
LINE
8
annotation
62
1
39
211
10
95.847713
20
120.400419
11
95.938952
21
120.529502
0
LINE
8
annotation
62
1
39
211
10
95.938952
20
120.529502
11
96.007383
21
120.673568
0
LINE
8
annotation
62
1
39
211
10
96.007383
20
120.673568
11
96.050372
21
120.829999
0
LINE
8
annotation
62
1
39
211
10
96.050372
20
120.829999
11
96.065286
21
120.996179
0
LINE
8
annotation
62
1
39
211
10
96.065286
20
120.996179
11
96.065286
21
121.456372
0
LINE
8
annotation
62
1
39
211
10
96.065286
20
121.456372
11
96.065286
21
121.456372
0
LINE
8
annotation
62
1
39
211
10
96.065286
20
121.456372
11
96.050380
21
121.622471
0
LINE
8
annotation
62
1
39
211
10
96.050380
20
121.622471
11
96.007413
21
121.778686
0
LINE
8
annotation
62
1
39
211
10
96.007413
20
121.778686
11
95.939010
21
121.922440
0
LINE
8
annotation
62
1
39
211
10
95.939010
20
121.922440
11
95.847799
21
122.051152
0
LINE
8
annotation
62
1
39
211
10
95.847799
20
122.051152
11
95.736403
21
122.162245
0
LINE
8
annotation
62
1
39
211
10
95.736403
20
122.162245
11
95.607451
21
122.253140
0
LINE
8
annotation
62
1
39
211
10
95.607451
20
122.253140
11
95.463567
21
122.321257
0
LINE
8
annotation
62
1
39
211
10
95.463567
20
122.321257
11
95.307377
21
122.364018
0
LINE
8
annotation
62
1
39
211
10
95.307377
20
122.364018
11
95.141509
21
122.378845
0
LINE
8
annotation
62
1
39
211
10
95.141509
20
122.378845
11
94.217731
21
122.378845
0
LINE
8
annotation
62
1
39
211
10
94.217731
20
122.378845
11
94.217731
21
124.231358
0
LINE
8
annotation
62
1
39
211
10
94.217731
20
124.231358
11
96.065286
21
124.231358
0
LINE
8
annotation
62
1
39
211
10
84.547425
20
149.894441
11
84.547425
21
149.894441
0
LINE
8
annotation
62
1
39
211
10
84.547425
20
149.894441
11
84.282786
21
149.795217
0
LINE
8
annotation
62
1
39
211
10
84.282786
20
149.795217
11
84.039945
21
149.661525
0
LINE
8
annotation
62
1
39
211
10
84.039945
20
149.661525
11
83.821395
21
149.496714
0
LINE
8
annotation
62
1
39
211
10
83.821395
20
149.496714
11
83.629628
21
149.304134
0
LINE
8
annotation
62
1
39
211
10
83.629628
20
149.304134
11
83.467138
21
149.087134
0
LINE
8
annotation
62
1
39
211
10
83.467138
20
149.087134
11
83.336418
21
148.849064
0
LINE
8
annotation
62
1
39
211
10
83.336418
20
148.849064
11
83.239960
21
148.593273
0
LINE
8
annotation
62
1
39
211
10
83.239960
20
148.593273
11
83.180257
21
148.323112
0
LINE
8
annotation
62
1
39
211
10
83.180257
20
148.323112
11
83.159802
21
148.041929
0
LINE
8
annotation
62
1
39
211
10
83.159802
20
148.041929
11
83.159802
21
146.659262
0
LINE
8
annotation
62
1
39
211
10
83.159802
20
146.659262
11
83.159802
21
146.659262
0
LINE
8
annotation
62
1
39
211
10
83.159802
20
146.659262
11
83.174717
21
146.493083
0
LINE
8
annotation
62
1
39
211
10
83.174717
20
146.493083
11
83.217705
21
146.336652
0
LINE
8
annotation
62
1
39
211
10
83.217705
20
146.336652
11
83.286136
21
146.192586
0
LINE
8
annotation
62
1
39
211
10
83.286136
20
146.192586
11
83.377376
21
146.063503
0
LINE
8
annotation
62
1
39
211
10
83.377376
20
146.063503
11
83.488792
21
145.952020
0
LINE
8
annotation
62
1
39
211
10
83.488792
20
145.952020
11
83.617753
21
145.860756
0
LINE
8
annotation
62
1
39
211
10
83.617753
20
145.860756
11
83.761627
21
145.792326
0
LINE
8
annotation
62
1
39
211
10
83.761627
20
145.792326
11
83.917780
21
145.749348
0
LINE
8
annotation
62
1
39
211
10
83.917780
20
145.749348
11
84.083580
21
145.734441
0
LINE
8
annotation
62
1
39
211
10
84.083580
20
145.734441
11
84.083580
21
145.734441
0
LINE
8
annotation
62
1
39
211
10
84.083580
20
145.734441
11
84.249723
21
145.749348
0
LINE
8
annotation
62
1
39
211
10
84.249723
20
145.749348
11
84.406059
21
145.792326
0
LINE
8
annotation
62
1
39
211
10
84.406059
20
145.792326
11
84.549986
21
145.860756
0
LINE
8
annotation
62
1
39
211
10
84.549986
20
145.860756
11
84.678904
21
145.952020
0
LINE
8
annotation
62
1
39
211
10
84.678904
20
145.952020
11
84.790213
21
146.063503
0
LINE
8
annotation
62
1
39
211
10
84.790213
20
146.063503
11
84.881314
21
146.192586
0
LINE
8
annotation
62
1
39
211
10
84.881314
20
146.192586
11
84.949604
21
146.336652
0
LINE
8
annotation
62
1
39
211
10
84.949604
20
146.336652
11
84.992486
21
146.493083
0
LINE
8
annotation
62
1
39
211
10
84.992486
20
146.493083
11
85.007357
21
146.659262
0
LINE
8
annotation
62
1
39
211
10
85.007357
20
146.659262
11
85.007357
21
147.119455
0
LINE
8
annotation
62
1
39
211
10
85.007357
20
147.119455
11
85.007357
21
147.119455
0
LINE
8
annotation
62
1
39
211
10
85.007357
20
147.119455
11
84.992486
21
147.285554
0
LINE
8
annotation
62
1
39
211
10
84.992486
20
147.285554
11
84.949604
21
147.441770
0
LINE
8
annotation
62
1
39
211
10
84.949604
20
147.441770
11
84.881314
21
147.585523
0
LINE
8
annotation
62
1
39
211
10
84.881314
20
147.585523
11
84.790213
21
147.714236
0
LINE
8
annotation
62
1
39
211
10
84.790213
20
147.714236
11
84.678904
21
147.825329
0
LINE
8
annotation
62
1
39
211
10
84.678904
20
147.825329
11
84.549986
21
147.916223
0
LINE
8
annotation
62
1
39
211
10
84.549986
20
147.916223
11
84.406059
21
147.984340
0
LINE
8
annotation
62
1
39
211
10
84.406059
20
147.984340
11
84.249723
21
148.027102
0
LINE
8
annotation
62
1
39
211
10
84.249723
20
148.027102
11
84.083580
21
148.041929
0
LINE
8
annotation
62
1
39
211
10
84.083580
20
148.041929
11
83.159802
21
148.041929
0
LINE
8
annotation
62
1
39
211
10
83.044101
20
145.214441
11
85.124101
21
145.214441
0
LINE
8
annotation
62
1
39
211
10
74.410226
20
171.626279
11
75.233338
21
175.328770
0
LINE
8
annotation
62
1
39
211
10
75.233338
20
175.328770
11
73.586883
21
175.328770
0
LINE
8
annotation
62
1
39
211
10
75.233338
20
173.679994
11
74.410226
21
173.679994
0
LINE
8
annotation
62
1
39
211
10
73.588931
20
198.110030
11
73.588931
21
198.110030
0
LINE
8
annotation
62
1
39
211
10
73.588931
20
198.110030
11
73.602209
21
197.962164
0
LINE
8
annotation
62
1
39
211
10
73.602209
20
197.962164
11
73.640478
21
197.823097
0
LINE
8
annotation
62
1
39
211
10
73.640478
20
197.823097
11
73.701397
21
197.695124
0
LINE
8
annotation
62
1
39
211
10
73.701397
20
197.695124
11
73.782621
21
197.580540
0
LINE
8
annotation
62
1
39
211
10
73.782621
20
197.580540
11
73.881807
21
197.481642
0
LINE
8
annotation
62
1
39
211
10
73.881807
20
197.481642
11
73.996612
21
197.400726
0
LINE
8
annotation
62
1
39
211
10
73.996612
20
197.400726
11
74.124692
21
197.340086
0
LINE
8
annotation
62
1
39
211
10
74.124692
20
197.340086
11
74.263704
21
197.302018
0
LINE
8
annotation
62
1
39
211
10
74.263704
20
197.302018
11
74.411304
21
197.288819
0
LINE
8
annotation
62
1
39
211
10
74.411304
20
197.288819
11
74.411304
21
197.288819
0
LINE
8
annotation
62
1
39
211
10
74.411304
20
197.288819
11
74.558903
21
197.302018
0
LINE
8
annotation
62
1
39
211
10
74.558903
20
197.302018
11
74.697915
21
197.340086
0
LINE
8
annotation
62
1
39
211
10
74.697915
20
197.340086
11
74.825995
21
197.400726
0
LINE
8
annotation
62
1
39
211
10
74.825995
20
197.400726
11
74.940800
21
197.481642
0
LINE
8
annotation
62
1
39
211
10
74.940800
20
197.481642
11
75.039986
21
197.580540
0
LINE
8
annotation
62
1
39
211
10
75.039986
20
197.580540
11
75.121210
21
197.695124
0
LINE
8
annotation
62
1
39
211
10
75.121210
20
197.695124
11
75.182129
21
197.823097
0
LINE
8
annotation
62
1
39
211
10
75.182129
20
197.823097
11
75.220399
21
197.962164
0
LINE
8
annotation
62
1
39
211
10
75.220399
20
197.962164
11
75.233676
21
198.110030
0
LINE
8
annotation
62
1
39
211
10
75.233676
20
198.110030
11
75.233676
21
198.519707
0
LINE
8
annotation
62
1
39
211
10
75.233676
20
198.519707
11
75.233676
21
198.519707
0
LINE
8
annotation
62
1
39
211
10
75.233676
20
198.519707
11
75.220406
21
198.667644
0
LINE
8
annotation
62
1
39
211
10
75.220406
20
198.667644
11
75.182156
21
198.806903
0
LINE
8
annotation
62
1
39
211
10
75.182156
20
198.806903
11
75.121262
21
198.935155
0
LINE
8
annotation
62
1
39
211
10
75.121262
20
198.935155
11
75.040062
21
199.050068
0
LINE
8
annotation
62
1
39
211
10
75.040062
20
199.050068
11
74.940895
21
199.149313
0
LINE
8
annotation
62
1
39
211
10
74.940895
20
199.149313
11
74.826098
21
199.230559
0
LINE
8
annotation
62
1
39
211
10
74.826098
20
199.230559
11
74.698009
21
199.291477
0
LINE
8
annotation
62
1
39
211
10
74.698009
20
199.291477
11
74.558965
21
199.329737
0
LINE
8
annotation
62
1
39
211
10
74.558965
20
199.329737
11
74.411304
21
199.343008
0
LINE
8
annotation
62
1
39
211
10
74.411304
20
199.343008
11
74.411304
21
199.343008
0
LINE
8
annotation
62
1
39
211
10
74.411304
20
199.343008
11
74.263643
21
199.329729
0
LINE
8
annotation
62
1
39
211
10
74.263643
20
199.329729
11
74.124599
21
199.291450
0
LINE
8
annotation
62
1
39
211
10
74.124599
20
199.291450
11
73.996509
21
199.230508
0
LINE
8
annotation
62
1
39
211
10
73.996509
20
199.230508
11
73.881712
21
199.149236
0
LINE
8
annotation
62
1
39
211
10
73.881712
20
199.149236
11
73.782545
21
199.049972
0
LINE
8
annotation
62
1
39
211
10
73.782545
20
199.049972
11
73.701345
21
198.935052
0
LINE
8
annotation
62
1
39
211
10
73.701345
20
198.935052
11
73.640452
21
198.806810
0
LINE
8
annotation
62
1
39
211
10
73.640452
20
198.806810
11
73.602201
21
198.667583
0
LINE
8
annotation
62
1
39
211
10
73.602201
20
198.667583
11
73.588931
21
198.519707
0
LINE
8
annotation
62
1
39
211
10
73.588931
20
198.519707
11
73.588931
21
198.110030
0
LINE
8
annotation
62
1
39
211
10
75.233676
20
200.166541
11
75.233676
21
200.166541
0
LINE
8
annotation
62
1
39
211
10
75.233676
20
200.166541
11
75.220406
21
200.313795
0
LINE
8
annotation
62
1
39
211
10
75.220406
20
200.313795
11
75.182156
21
200.452538
0
LINE
8
annotation
62
1
39
211
10
75.182156
20
200.452538
11
75.121262
21
200.580415
0
LINE
8
annotation
62
1
39
211
10
75.121262
20
200.580415
11
75.040062
21
200.695075
0
LINE
8
annotation
62
1
39
211
10
75.040062
20
200.695075
11
74.940895
21
200.794164
0
LINE
8
annotation
62
1
39
211
10
74.940895
20
200.794164
11
74.826098
21
200.875330
0
LINE
8
annotation
62
1
39
211
10
74.826098
20
200.875330
11
74.698009
21
200.936218
0
LINE
8
annotation
62
1
39
211
10
74.698009
20
200.936218
11
74.558965
21
200.974477
0
LINE
8
annotation
62
1
39
211
10
74.558965
20
200.974477
11
74.411304
21
200.987752
0
LINE
8
annotation
62
1
39
211
10
74.411304
20
200.987752
11
74.411304
21
200.987752
0
LINE
8
annotation
62
1
39
211
10
74.411304
20
200.987752
11
74.263643
21
200.974477
0
LINE
8
annotation
62
1
39
211
10
74.263643
20
200.974477
11
74.124599
21
200.936218
0
LINE
8
annotation
62
1
39
211
10
74.124599
20
200.936218
11
73.996509
21
200.875330
0
LINE
8
annotation
62
1
39
211
10
73.996509
20
200.875330
11
73.881712
21
200.794164
0
LINE
8
annotation
62
1
39
211
10
73.881712
20
200.794164
11
73.782545
21
200.695075
0
LINE
8
annotation
62
1
39
211
10
73.782545
20
200.695075
11
73.701345
21
200.580415
0
LINE
8
annotation
62
1
39
211
10
73.701345
20
200.580415
11
73.640452
21
200.452538
0
LINE
8
annotation
62
1
39
211
10
73.640452
20
200.452538
11
73.602201
21
200.313795
0
LINE
8
annotation
62
1
39
211
10
73.602201
20
200.313795
11
73.588931
21
200.166541
0
LINE
8
annotation
62
1
39
211
10
73.588931
20
200.166541
11
73.588931
21
200.166541
0
LINE
8
annotation
62
1
39
211
10
73.588931
20
200.166541
11
73.602209
21
200.018596
0
LINE
8
annotation
62
1
39
211
10
73.602209
20
200.018596
11
73.640478
21
199.879315
0
LINE
8
annotation
62
1
39
211
10
73.640478
20
199.879315
11
73.701397
21
199.751033
0
LINE
8
annotation
62
1
39
211
10
73.701397
20
199.751033
11
73.782621
21
199.636083
0
LINE
8
annotation
62
1
39
211
10
73.782621
20
199.636083
11
73.881807
21
199.536800
0
LINE
8
annotation
62
1
39
211
10
73.881807
20
199.536800
11
73.996612
21
199.455517
0
LINE
8
annotation
62
1
39
211
10
73.996612
20
199.455517
11
74.124692
21
199.394568
0
LINE
8
annotation
62
1
39
211
10
74.124692
20
199.394568
11
74.263704
21
199.356287
0
LINE
8
annotation
62
1
39
211
10
74.263704
20
199.356287
11
74.411304
21
199.343008
0
LINE
8
annotation
62
1
39
211
10
74.411304
20
199.343008
11
74.411304
21
199.343008
0
LINE
8
annotation
62
1
39
211
10
74.411304
20
199.343008
11
74.558903
21
199.356287
0
LINE
8
annotation
62
1
39
211
10
74.558903
20
199.356287
11
74.697915
21
199.394568
0
LINE
8
annotation
62
1
39
211
10
74.697915
20
199.394568
11
74.825995
21
199.455517
0
LINE
8
annotation
62
1
39
211
10
74.825995
20
199.455517
11
74.940800
21
199.536800
0
LINE
8
annotation
62
1
39
211
10
74.940800
20
199.536800
11
75.039986
21
199.636083
0
LINE
8
annotation
62
1
39
211
10
75.039986
20
199.636083
11
75.121210
21
199.751033
0
LINE
8
annotation
62
1
39
211
10
75.121210
20
199.751033
11
75.182129
21
199.879315
0
LINE
8
annotation
62
1
39
211
10
75.182129
20
199.879315
11
75.220399
21
200.018596
0
LINE
8
annotation
62
1
39
211
10
75.220399
20
200.018596
11
75.233676
21
200.166541
0
LINE
8
annotation
62
1
39
211
10
80.115999
20
222.723692
11
80.115999
21
222.723692
0
LINE
8
annotation
62
1
39
211
10
80.115999
20
222.723692
11
80.380172
21
222.822135
0
LINE
8
annotation
62
1
39
211
10
80.380172
20
222.822135
11
80.622650
21
222.955200
0
LINE
8
annotation
62
1
39
211
10
80.622650
20
222.955200
11
80.840928
21
223.119496
0
LINE
8
annotation
62
1
39
211
10
80.840928
20
223.119496
11
81.032499
21
223.311631
0
LINE
8
annotation
62
1
39
211
10
81.032499
20
223.311631
11
81.194858
21
223.528216
0
LINE
8
annotation
62
1
39
211
10
81.194858
20
223.528216
11
81.325499
21
223.765861
0
LINE
8
annotation
62
1
39
211
10
81.325499
20
223.765861
11
81.421916
21
224.021174
0
LINE
8
annotation
62
1
39
211
10
81.421916
20
224.021174
11
81.481604
21
224.290767
0
LINE
8
annotation
62
1
39
211
10
81.481604
20
224.290767
11
81.502057
21
224.571247
0
LINE
8
annotation
62
1
39
211
10
81.502057
20
224.571247
11
81.502057
21
225.958609
0
LINE
8
annotation
62
1
39
211
10
81.502057
20
225.958609
11
81.502057
21
225.958609
0
LINE
8
annotation
62
1
39
211
10
81.502057
20
225.958609
11
81.487185
21
226.124798
0
LINE
8
annotation
62
1
39
211
10
81.487185
20
226.124798
11
81.444304
21
226.281253
0
LINE
8
annotation
62
1
39
211
10
81.444304
20
226.281253
11
81.376013
21
226.425354
0
LINE
8
annotation
62
1
39
211
10
81.376013
20
226.425354
11
81.284913
21
226.554478
0
LINE
8
annotation
62
1
39
211
10
81.284913
20
226.554478
11
81.173603
21
226.666003
0
LINE
8
annotation
62
1
39
211
10
81.173603
20
226.666003
11
81.044685
21
226.757309
0
LINE
8
annotation
62
1
39
211
10
81.044685
20
226.757309
11
80.900758
21
226.825774
0
LINE
8
annotation
62
1
39
211
10
80.900758
20
226.825774
11
80.744423
21
226.868775
0
LINE
8
annotation
62
1
39
211
10
80.744423
20
226.868775
11
80.578279
21
226.883692
0
LINE
8
annotation
62
1
39
211
10
80.578279
20
226.883692
11
80.578279
21
226.883692
0
LINE
8
annotation
62
1
39
211
10
80.578279
20
226.883692
11
80.412479
21
226.868775
0
LINE
8
annotation
62
1
39
211
10
80.412479
20
226.868775
11
80.256326
21
226.825774
0
LINE
8
annotation
62
1
39
211
10
80.256326
20
226.825774
11
80.112453
21
226.757309
0
LINE
8
annotation
62
1
39
211
10
80.112453
20
226.757309
11
79.983492
21
226.666003
0
LINE
8
annotation
62
1
39
211
10
79.983492
20
226.666003
11
79.872075
21
226.554478
0
LINE
8
annotation
62
1
39
211
10
79.872075
20
226.554478
11
79.780835
21
226.425354
0
LINE
8
annotation
62
1
39
211
10
79.780835
20
226.425354
11
79.712405
21
226.281253
0
LINE
8
annotation
62
1
39
211
10
79.712405
20
226.281253
11
79.669416
21
226.124798
0
LINE
8
annotation
62
1
39
211
10
79.669416
20
226.124798
11
79.654501
21
225.958609
0
LINE
8
annotation
62
1
39
211
10
79.654501
20
225.958609
11
79.654501
21
225.496068
0
LINE
8
annotation
62
1
39
211
10
79.654501
20
225.496068
11
79.654501
21
225.496068
0
LINE
8
annotation
62
1
39
211
10
79.654501
20
225.496068
11
79.669416
21
225.329889
0
LINE
8
annotation
62
1
39
211
10
79.669416
20
225.329889
11
79.712405
21
225.173458
0
LINE
8
annotation
62
1
39
211
10
79.712405
20
225.173458
11
79.780835
21
225.029392
0
LINE
8
annotation
62
1
39
211
10
79.780835
20
225.029392
11
79.872075
21
224.900309
0
LINE
8
annotation
62
1
39
211
10
79.872075
20
224.900309
11
79.983492
21
224.788826
0
LINE
8
annotation
62
1
39
211
10
79.983492
20
224.788826
11
80.112453
21
224.697562
0
LINE
8
annotation
62
1
39
211
10
80.112453
20
224.697562
11
80.256326
21
224.629132
0
LINE
8
annotation
62
1
39
211
10
80.256326
20
224.629132
11
80.412479
21
224.586154
0
LINE
8
annotation
62
1
39
211
10
80.412479
20
224.586154
11
80.578279
21
224.571247
0
LINE
8
annotation
62
1
39
211
10
80.578279
20
224.571247
11
81.502057
21
224.571247
0
LINE
8
annotation
62
1
39
211
10
79.539062
20
222.203692
11
81.619062
21
222.203692
0
LINE
8
annotation
62
1
39
211
10
90.021430
20
248.465763
11
90.021430
21
252.467787
0
LINE
8
annotation
62
1
39
211
10
90.021430
20
252.467787
11
89.131729
21
251.577835
0
LINE
8
annotation
62
1
39
211
10
92.164895
20
248.518551
11
92.164895
21
248.518551
0
LINE
8
annotation
62
1
39
211
10
92.164895
20
248.518551
11
92.257907
21
248.483781
0
LINE
8
annotation
62
1
39
211
10
92.257907
20
248.483781
11
92.353299
21
248.466506
0
LINE
8
annotation
62
1
39
211
10
92.353299
20
248.466506
11
92.448913
21
248.466023
0
LINE
8
annotation
62
1
39
211
10
92.448913
20
248.466023
11
92.542595
21
248.481628
0
LINE
8
annotation
62
1
39
211
10
92.542595
20
248.481628
11
92.632186
21
248.512614
0
LINE
8
annotation
62
1
39
211
10
92.632186
20
248.512614
11
92.715531
21
248.558279
0
LINE
8
annotation
62
1
39
211
10
92.715531
20
248.558279
11
92.790473
21
248.617919
0
LINE
8
annotation
62
1
39
211
10
92.790473
20
248.617919
11
92.854855
21
248.690827
0
LINE
8
annotation
62
1
39
211
10
92.854855
20
248.690827
11
92.906522
21
248.776301
0
LINE
8
annotation
62
1
39
211
10
92.906522
20
248.776301
11
92.906522
21
248.776301
0
LINE
8
annotation
62
1
39
211
10
92.906522
20
248.776301
11
93.060675
21
249.137135
0
LINE
8
annotation
62
1
39
211
10
93.060675
20
249.137135
11
93.176290
21
249.508413
0
LINE
8
annotation
62
1
39
211
10
93.176290
20
249.508413
11
93.253367
21
249.887175
0
LINE
8
annotation
62
1
39
211
10
93.253367
20
249.887175
11
93.291905
21
250.270460
0
LINE
8
annotation
62
1
39
211
10
93.291905
20
250.270460
11
93.291905
21
250.655310
0
LINE
8
annotation
62
1
39
211
10
93.291905
20
250.655310
11
93.253367
21
251.038762
0
LINE
8
annotation
62
1
39
211
10
93.253367
20
251.038762
11
93.176290
21
251.417859
0
LINE
8
annotation
62
1
39
211
10
93.176290
20
251.417859
11
93.060675
21
251.789639
0
LINE
8
annotation
62
1
39
211
10
93.060675
20
251.789639
11
92.906522
21
252.151142
0
LINE
8
annotation
62
1
39
211
10
92.906522
20
252.151142
11
92.906522
21
252.151142
0
LINE
8
annotation
62
1
39
211
10
92.906522
20
252.151142
11
92.886918
21
252.187625
0
LINE
8
annotation
62
1
39
211
10
92.886918
20
252.187625
11
92.864693
21
252.222506
0
LINE
8
annotation
62
1
39
211
10
92.864693
20
252.222506
11
92.840014
21
252.255612
0
LINE
8
annotation
62
1
39
211
10
92.840014
20
252.255612
11
92.813048
21
252.286772
0
LINE
8
annotation
62
1
39
211
10
92.813048
20
252.286772
11
92.783963
21
252.315815
0
LINE
8
annotation
62
1
39
211
10
92.783963
20
252.315815
11
92.752926
21
252.342570
0
LINE
8
annotation
62
1
39
211
10
92.752926
20
252.342570
11
92.720104
21
252.366864
0
LINE
8
annotation
62
1
39
211
10
92.720104
20
252.366864
11
92.685665
21
252.388526
0
LINE
8
annotation
62
1
39
211
10
92.685665
20
252.388526
11
92.649776
21
252.407386
0
LINE
8
annotation
62
1
39
211
10
92.649776
20
252.407386
11
92.649776
21
252.407386
0
LINE
8
annotation
62
1
39
211
10
92.649776
20
252.407386
11
92.556025
21
252.442910
0
LINE
8
annotation
62
1
39
211
10
92.556025
20
252.442910
11
92.460075
21
252.460775
0
LINE
8
annotation
62
1
39
211
10
92.460075
20
252.460775
11
92.364056
21
252.461689
0
LINE
8
annotation
62
1
39
211
10
92.364056
20
252.461689
11
92.270101
21
252.446362
0
LINE
8
annotation
62
1
39
211
10
92.270101
20
252.446362
11
92.180342
21
252.415500
0
LINE
8
annotation
62
1
39
211
10
92.180342
20
252.415500
11
92.096909
21
252.369814
0
LINE
8
annotation
62
1
39
211
10
92.096909
20
252.369814
11
92.021935
21
252.310012
0
LINE
8
annotation
62
1
39
211
10
92.021935
20
252.310012
11
91.957552
21
252.236801
0
LINE
8
annotation
62
1
39
211
10
91.957552
20
252.236801
11
91.905890
21
252.150891
0
LINE
8
annotation
62
1
39
211
10
91.905890
20
252.150891
11
91.905890
21
252.150891
0
LINE
8
annotation
62
1
39
211
10
91.905890
20
252.150891
11
91.752480
21
251.790131
0
LINE
8
annotation
62
1
39
211
10
91.752480
20
251.790131
11
91.637423
21
251.418909
0
LINE
8
annotation
62
1
39
211
10
91.637423
20
251.418909
11
91.560718
21
251.040184
0
LINE
8
annotation
62
1
39
211
10
91.560718
20
251.040184
11
91.522366
21
250.656918
0
LINE
8
annotation
62
1
39
211
10
91.522366
20
250.656918
11
91.522366
21
250.272068
0
LINE
8
annotation
62
1
39
211
10
91.522366
20
250.272068
11
91.560718
21
249.888597
0
LINE
8
annotation
62
1
39
211
10
91.560718
20
249.888597
11
91.637423
21
249.509464
0
LINE
8
annotation
62
1
39
211
10
91.637423
20
249.509464
11
91.752480
21
249.137628
0
LINE
8
annotation
62
1
39
211
10
91.752480
20
249.137628
11
91.905890
21
248.776050
0
LINE
8
annotation
62
1
39
211
10
91.905890
20
248.776050
11
91.905890
21
248.776050
0
LINE
8
annotation
62
1
39
211
10
91.905890
20
248.776050
11
91.925423
21
248.739639
0
LINE
8
annotation
62
1
39
211
10
91.925423
20
248.739639
11
91.947484
21
248.704933
0
LINE
8
annotation
62
1
39
211
10
91.947484
20
248.704933
11
91.971980
21
248.672036
0
LINE
8
annotation
62
1
39
211
10
91.971980
20
248.672036
11
91.998819
21
248.641053
0
LINE
8
annotation
62
1
39
211
10
91.998819
20
248.641053
11
92.027907
21
248.612091
0
LINE
8
annotation
62
1
39
211
10
92.027907
20
248.612091
11
92.059151
21
248.585254
0
LINE
8
annotation
62
1
39
211
10
92.059151
20
248.585254
11
92.092460
21
248.560649
0
LINE
8
annotation
62
1
39
211
10
92.092460
20
248.560649
11
92.127738
21
248.538379
0
LINE
8
annotation
62
1
39
211
10
92.127738
20
248.538379
11
92.164895
21
248.518551
0
LINE
8
annotation
62
1
39
211
10
77.859658
20
111.531209
11
74.778235
21
107.074213
0
LINE
8
annotation
62
1
39
211
10
74.778235
20
107.074213
11
71.696233
21
111.531209
0
LINE
8
annotation
62
1
39
211
10
74.778235
20
107.432881
11
74.778235
21
102.290996
0
LINE
8
annotation
62
1
39
211
10
86.377753
20
106.911102
11
81.325679
21
106.911102
0
LINE
8
annotation
62
1
39
211
10
92.923748
20
111.530919
11
92.923748
21
111.530919
0
LINE
8
annotation
62
1
39
211
10
92.923748
20
111.530919
11
92.335967
21
111.310537
0
LINE
8
annotation
62
1
39
211
10
92.335967
20
111.310537
11
91.796601
21
111.013598
0
LINE
8
annotation
62
1
39
211
10
91.796601
20
111.013598
11
91.311187
21
110.647542
0
LINE
8
annotation
62
1
39
211
10
91.311187
20
110.647542
11
90.885261
21
110.219808
0
LINE
8
annotation
62
1
39
211
10
90.885261
20
110.219808
11
90.524360
21
109.737837
0
LINE
8
annotation
62
1
39
211
10
90.524360
20
109.737837
11
90.234022
21
109.209068
0
LINE
8
annotation
62
1
39
211
10
90.234022
20
109.209068
11
90.019782
21
108.640940
0
LINE
8
annotation
62
1
39
211
10
90.019782
20
108.640940
11
89.887178
21
108.040894
0
LINE
8
annotation
62
1
39
211
10
89.887178
20
108.040894
11
89.841746
21
107.416368
0
LINE
8
annotation
62
1
39
211
10
89.841746
20
107.416368
11
89.841746
21
104.345375
0
LINE
8
annotation
62
1
39
211
10
89.841746
20
104.345375
11
89.841746
21
104.345375
0
LINE
8
annotation
62
1
39
211
10
89.841746
20
104.345375
11
89.874872
21
103.976279
0
LINE
8
annotation
62
1
39
211
10
89.874872
20
103.976279
11
89.970353
21
103.628835
0
LINE
8
annotation
62
1
39
211
10
89.970353
20
103.628835
11
90.122341
21
103.308855
0
LINE
8
annotation
62
1
39
211
10
90.122341
20
103.308855
11
90.324991
21
103.022154
0
LINE
8
annotation
62
1
39
211
10
90.324991
20
103.022154
11
90.572455
21
102.774544
0
LINE
8
annotation
62
1
39
211
10
90.572455
20
102.774544
11
90.858886
21
102.571839
0
LINE
8
annotation
62
1
39
211
10
90.858886
20
102.571839
11
91.178438
21
102.419852
0
LINE
8
annotation
62
1
39
211
10
91.178438
20
102.419852
11
91.525264
21
102.324396
0
LINE
8
annotation
62
1
39
211
10
91.525264
20
102.324396
11
91.893517
21
102.291286
0
LINE
8
annotation
62
1
39
211
10
91.893517
20
102.291286
11
91.893517
21
102.291286
0
LINE
8
annotation
62
1
39
211
10
91.893517
20
102.291286
11
92.262533
21
102.324396
0
LINE
8
annotation
62
1
39
211
10
92.262533
20
102.324396
11
92.609764
21
102.419852
0
LINE
8
annotation
62
1
39
211
10
92.609764
20
102.419852
11
92.929435
21
102.571839
0
LINE
8
annotation
62
1
39
211
10
92.929435
20
102.571839
11
93.215771
21
102.774544
0
LINE
8
annotation
62
1
39
211
10
93.215771
20
102.774544
11
93.462996
21
103.022154
0
LINE
8
annotation
62
1
39
211
10
93.462996
20
103.022154
11
93.665336
21
103.308855
0
LINE
8
annotation
62
1
39
211
10
93.665336
20
103.308855
11
93.817015
21
103.628835
0
LINE
8
annotation
62
1
39
211
10
93.817015
20
103.628835
11
93.912257
21
103.976279
0
LINE
8
annotation
62
1
39
211
10
93.912257
20
103.976279
11
93.945288
21
104.345375
0
LINE
8
annotation
62
1
39
211
10
93.945288
20
104.345375
11
93.945288
21
105.367494
0
LINE
8
annotation
62
1
39
211
10
93.945288
20
105.367494
11
93.945288
21
105.367494
0
LINE
8
annotation
62
1
39
211
10
93.945288
20
105.367494
11
93.912257
21
105.736410
0
LINE
8
annotation
62
1
39
211
10
93.912257
20
105.736410
11
93.817015
21
106.083375
0
LINE
8
annotation
62
1
39
211
10
93.817015
20
106.083375
11
93.665336
21
106.402661
0
LINE
8
annotation
62
1
39
211
10
93.665336
20
106.402661
11
93.462996
21
106.688540
0
LINE
8
annotation
62
1
39
211
10
93.462996
20
106.688540
11
93.215771
21
106.935284
0
LINE
8
annotation
62
1
39
211
10
93.215771
20
106.935284
11
92.929435
21
107.137167
0
LINE
8
annotation
62
1
39
211
10
92.929435
20
107.137167
11
92.609764
21
107.288460
0
LINE
8
annotation
62
1
39
211
10
92.609764
20
107.288460
11
92.262533
21
107.383436
0
LINE
8
annotation
62
1
39
211
10
92.262533
20
107.383436
11
91.893517
21
107.416368
0
LINE
8
annotation
62
1
39
211
10
91.893517
20
107.416368
11
89.841746
21
107.416368
0
LINE
8
annotation
62
1
39
211
10
89.584767
20
101.136332
11
94.204584
21
101.136332
0
LINE
8
boundary
62
5
39
2
10
121.017618
20
159.760837
11
121.017618
21
135.789499
0
LINE
8
boundary
62
5
39
2
10
121.017618
20
135.789499
11
121.017618
21
129.869067
0
LINE
8
boundary
62
5
39
2
10
121.017618
20
129.869067
11
121.017619
21
105.897734
0
LINE
8
boundary
62
5
39
2
10
121.017619
20
105.897734
11
121.017622
21
6.667501
0
LINE
8
boundary
62
5
39
2
10
121.017622
20
6.667501
11
132.314591
21
6.667500
0
LINE
8
boundary
62
5
39
2
10
132.314591
20
6.667500
11
175.017619
21
6.667530
0
LINE
8
boundary
62
5
39
2
10
175.017619
20
6.667530
11
171.131842
21
12.006014
0
LINE
8
boundary
62
5
39
2
10
171.131842
20
12.006014
11
145.872268
21
12.006015
0
LINE
8
boundary
62
5
39
2
10
145.872268
20
12.006015
11
145.872268
21
14.352015
0
LINE
8
boundary
62
5
39
2
10
145.872268
20
14.352015
11
169.339311
21
14.352015
0
LINE
8
boundary
62
5
39
2
10
169.339311
20
14.352015
11
165.117817
21
20.268397
0
LINE
8
boundary
62
5
39
2
10
165.117817
20
20.268397
11
158.788976
21
35.936067
0
LINE
8
boundary
62
5
39
2
10
158.788976
20
35.936067
11
139.847460
21
35.936067
0
LINE
8
boundary
62
5
39
2
10
139.847460
20
35.936067
11
139.847460
21
38.282067
0
LINE
8
boundary
62
5
39
2
10
139.847460
20
38.282067
11
157.798514
21
38.282067
0
LINE
8
boundary
62
5
39
2
10
157.798514
20
38.282067
11
153.957616
21
47.896576
0
LINE
8
boundary
62
5
39
2
10
153.957616
20
47.896576
11
154.696227
21
50.829260
0
LINE
8
boundary
62
5
39
2
10
154.696227
20
50.829260
11
156.939464
21
59.736119
0
LINE
8
boundary
62
5
39
2
10
156.939464
20
59.736119
11
139.303340
21
59.866120
0
LINE
8
boundary
62
5
39
2
10
139.303340
20
59.866120
11
139.303340
21
62.212120
0
LINE
8
boundary
62
5
39
2
10
139.303340
20
62.212120
11
157.563057
21
62.212120
0
LINE
8
boundary
62
5
39
2
10
157.563057
20
62.212120
11
158.456528
21
65.759680
0
LINE
8
boundary
62
5
39
2
10
158.456528
20
65.759680
11
156.449437
21
83.666173
0
LINE
8
boundary
62
5
39
2
10
156.449437
20
83.666173
11
138.853242
21
83.796172
0
LINE
8
boundary
62
5
39
2
10
138.853242
20
83.796172
11
138.853242
21
86.142172
0
LINE
8
boundary
62
5
39
2
10
138.853242
20
86.142172
11
156.167037
21
86.142172
0
LINE
8
boundary
62
5
39
2
10
156.167037
20
86.142172
11
154.696140
21
99.308410
0
LINE
8
boundary
62
5
39
2
10
154.696140
20
99.308410
11
153.482661
21
100.613433
0
LINE
8
boundary
62
5
39
2
10
153.482661
20
100.613433
11
157.201132
21
102.734237
0
LINE
8
boundary
62
5
39
2
10
157.201132
20
102.734237
11
157.721459
21
103.074457
0
LINE
8
boundary
62
5
39
2
10
157.721459
20
103.074457
11
158.277836
21
103.631132
0
LINE
8
boundary
62
5
39
2
10
158.277836
20
103.631132
11
162.783903
21
107.596225
0
LINE
8
boundary
62
5
39
2
10
162.783903
20
107.596225
11
143.026662
21
107.726225
0
LINE
8
boundary
62
5
39
2
10
143.026662
20
107.726225
11
143.026662
21
110.072225
0
LINE
8
boundary
62
5
39
2
10
143.026662
20
110.072225
11
165.597715
21
110.072225
0
LINE
8
boundary
62
5
39
2
10
165.597715
20
110.072225
11
173.216561
21
116.776392
0
LINE
8
boundary
62
5
39
2
10
173.216561
20
116.776392
11
173.216557
21
131.656277
0
LINE
8
boundary
62
5
39
2
10
173.216557
20
131.656277
11
147.244087
21
131.656277
0
LINE
8
boundary
62
5
39
2
10
147.244087
20
131.656277
11
147.244087
21
134.002277
0
LINE
8
boundary
62
5
39
2
10
147.244087
20
134.002277
11
173.216556
21
134.002277
0
LINE
8
boundary
62
5
39
2
10
173.216556
20
134.002277
11
173.216553
21
143.933555
0
LINE
8
boundary
62
5
39
2
10
173.216553
20
143.933555
11
173.216553
21
148.882206
0
LINE
8
boundary
62
5
39
2
10
173.216553
20
148.882206
11
165.745521
21
155.456330
0
LINE
8
boundary
62
5
39
2
10
165.745521
20
155.456330
11
143.026700
21
155.586330
0
LINE
8
boundary
62
5
39
2
10
143.026700
20
155.586330
11
143.026700
21
157.932330
0
LINE
8
boundary
62
5
39
2
10
143.026700
20
157.932330
11
162.793684
21
157.932330
0
LINE
8
boundary
62
5
39
2
10
162.793684
20
157.932330
11
158.278132
21
162.027248
0
LINE
8
boundary
62
5
39
2
10
158.278132
20
162.027248
11
157.721720
21
162.583956
0
LINE
8
boundary
62
5
39
2
10
157.721720
20
162.583956
11
157.201362
21
162.924192
0
LINE
8
boundary
62
5
39
2
10
157.201362
20
162.924192
11
153.482630
21
165.045145
0
LINE
8
boundary
62
5
39
2
10
153.482630
20
165.045145
11
154.696206
21
166.350271
0
LINE
8
boundary
62
5
39
2
10
154.696206
20
166.350271
11
156.157366
21
179.386382
0
LINE
8
boundary
62
5
39
2
10
156.157366
20
179.386382
11
138.853255
21
179.516382
0
LINE
8
boundary
62
5
39
2
10
138.853255
20
179.516382
11
138.853255
21
181.862382
0
LINE
8
boundary
62
5
39
2
10
138.853255
20
181.862382
11
156.434891
21
181.862382
0
LINE
8
boundary
62
5
39
2
10
156.434891
20
181.862382
11
158.456525
21
199.898894
0
LINE
8
boundary
62
5
39
2
10
158.456525
20
199.898894
11
157.595802
21
203.316436
0
LINE
8
boundary
62
5
39
2
10
157.595802
20
203.316436
11
139.303342
21
203.446435
0
LINE
8
boundary
62
5
39
2
10
139.303342
20
203.446435
11
139.303342
21
205.792435
0
LINE
8
boundary
62
5
39
2
10
139.303342
20
205.792435
11
156.949169
21
205.792434
0
LINE
8
boundary
62
5
39
2
10
156.949169
20
205.792434
11
154.696160
21
214.829600
0
LINE
8
boundary
62
5
39
2
10
154.696160
20
214.829600
11
153.957618
21
217.762014
0
LINE
8
boundary
62
5
39
2
10
153.957618
20
217.762014
11
157.788814
21
227.246487
0
LINE
8
boundary
62
5
39
2
10
157.788814
20
227.246487
11
139.847461
21
227.376487
0
LINE
8
boundary
62
5
39
2
10
139.847461
20
227.376487
11
139.847460
21
229.722487
0
LINE
8
boundary
62
5
39
2
10
139.847460
20
229.722487
11
158.788979
21
229.722487
0
LINE
8
boundary
62
5
39
2
10
158.788979
20
229.722487
11
165.117869
21
245.390230
0
LINE
8
boundary
62
5
39
2
10
165.117869
20
245.390230
11
169.329614
21
251.176540
0
LINE
8
boundary
62
5
39
2
10
169.329614
20
251.176540
11
145.872270
21
251.306540
0
LINE
8
boundary
62
5
39
2
10
145.872270
20
251.306540
11
145.872269
21
253.652540
0
LINE
8
boundary
62
5
39
2
10
145.872269
20
253.652540
11
171.131847
21
253.652540
0
LINE
8
boundary
62
5
39
2
10
171.131847
20
253.652540
11
175.017648
21
258.991052
0
LINE
8
boundary
62
5
39
2
10
175.017648
20
258.991052
11
132.314580
21
258.991054
0
LINE
8
boundary
62
5
39
2
10
132.314580
20
258.991054
11
121.017622
21
258.991055
0
LINE
8
boundary
62
5
39
2
10
121.017622
20
258.991055
11
121.017618
21
159.760837
0
LINE
8
annotation
62
1
39
211
10
141.007287
20
11.099015
11
141.007287
21
15.259015
0
LINE
8
annotation
62
1
39
211
10
141.007287
20
15.259015
11
140.082466
21
14.333932
0
LINE
8
annotation
62
1
39
211
10
135.443716
20
35.029033
11
133.596161
21
35.029033
0
LINE
8
annotation
62
1
39
211
10
133.596161
20
35.029033
11
135.303362
21
37.777409
0
LINE
8
annotation
62
1
39
211
10
135.303362
20
37.777409
11
135.303362
21
37.777409
0
LINE
8
annotation
62
1
39
211
10
135.303362
20
37.777409
11
135.305403
21
37.779934
0
LINE
8
annotation
62
1
39
211
10
135.305403
20
37.779934
11
135.307361
21
37.782481
0
LINE
8
annotation
62
1
39
211
10
135.307361
20
37.782481
11
135.309247
21
37.785071
0
LINE
8
annotation
62
1
39
211
10
135.309247
20
37.785071
11
135.311075
21
37.787725
0
LINE
8
annotation
62
1
39
211
10
135.311075
20
37.787725
11
135.312858
21
37.790466
0
LINE
8
annotation
62
1
39
211
10
135.312858
20
37.790466
11
135.314609
21
37.793313
0
LINE
8
annotation
62
1
39
211
10
135.314609
20
37.793313
11
135.316341
21
37.796289
0
LINE
8
annotation
62
1
39
211
10
135.316341
20
37.796289
11
135.318066
21
37.799416
0
LINE
8
annotation
62
1
39
211
10
135.318066
20
37.799416
11
135.319798
21
37.802714
0
LINE
8
annotation
62
1
39
211
10
135.319798
20
37.802714
11
135.319798
21
37.802714
0
LINE
8
annotation
62
1
39
211
10
135.319798
20
37.802714
11
135.390288
21
37.954062
0
LINE
8
annotation
62
1
39
211
10
135.390288
20
37.954062
11
135.431467
21
38.110948
0
LINE
8
annotation
62
1
39
211
10
135.431467
20
38.110948
11
135.444344
21
38.269826
0
LINE
8
annotation
62
1
39
211
10
135.444344
20
38.269826
11
135.429929
21
38.427151
0
LINE
8
annotation
62
1
39
211
10
135.429929
20
38.427151
11
135.389230
21
38.579380
0
LINE
8
annotation
62
1
39
211
10
135.389230
20
38.579380
11
135.323257
21
38.722966
0
LINE
8
annotation
62
1
39
211
10
135.323257
20
38.722966
11
135.233019
21
38.854364
0
LINE
8
annotation
62
1
39
211
10
135.233019
20
38.854364
11
135.119525
21
38.970030
0
LINE
8
annotation
62
1
39
211
10
135.119525
20
38.970030
11
134.983784
21
39.066419
0
LINE
8
annotation
62
1
39
211
10
134.983784
20
39.066419
11
134.983784
21
39.066419
0
LINE
8
annotation
62
1
39
211
10
134.983784
20
39.066419
11
134.832015
21
39.135908
0
LINE
8
annotation
62
1
39
211
10
134.832015
20
39.135908
11
134.674889
21
39.176452
0
LINE
8
annotation
62
1
39
211
10
134.674889
20
39.176452
11
134.515919
21
39.188966
0
LINE
8
annotation
62
1
39
211
10
134.515919
20
39.188966
11
134.358617
21
39.174360
0
LINE
8
annotation
62
1
39
211
10
134.358617
20
39.174360
11
134.206496
21
39.133549
0
LINE
8
annotation
62
1
39
211
10
134.206496
20
39.133549
11
134.063069
21
39.067444
0
LINE
8
annotation
62
1
39
211
10
134.063069
20
39.067444
11
133.931849
21
38.976958
0
LINE
8
annotation
62
1
39
211
10
133.931849
20
38.976958
11
133.816348
21
38.863003
0
LINE
8
annotation
62
1
39
211
10
133.816348
20
38.863003
11
133.720079
21
38.726492
0
LINE
8
annotation
62
1
39
211
10
133.720079
20
38.726492
11
133.598769
21
38.493787
0
LINE
8
annotation
62
1
39
211
10
133.052040
20
58.959250
11
133.975818
21
58.959250
0
LINE
8
annotation
62
1
39
211
10
133.975818
20
58.959250
11
133.975818
21
58.959250
0
LINE
8
annotation
62
1
39
211
10
133.975818
20
58.959250
11
134.141962
21
58.974154
0
LINE
8
annotation
62
1
39
211
10
134.141962
20
58.974154
11
134.298297
21
59.017109
0
LINE
8
annotation
62
1
39
211
10
134.298297
20
59.017109
11
134.442224
21
59.085478
0
LINE
8
annotation
62
1
39
211
10
134.442224
20
59.085478
11
134.571142
21
59.176623
0
LINE
8
annotation
62
1
39
211
10
134.571142
20
59.176623
11
134.682452
21
59.287909
0
LINE
8
annotation
62
1
39
211
10
134.682452
20
59.287909
11
134.773552
21
59.416699
0
LINE
8
annotation
62
1
39
211
10
134.773552
20
59.416699
11
134.841843
21
59.560356
0
LINE
8
annotation
62
1
39
211
10
134.841843
20
59.560356
11
134.884724
21
59.716243
0
LINE
8
annotation
62
1
39
211
10
134.884724
20
59.716243
11
134.899596
21
59.881723
0
LINE
8
annotation
62
1
39
211
10
134.899596
20
59.881723
11
134.899596
21
60.344264
0
LINE
8
annotation
62
1
39
211
10
134.899596
20
60.344264
11
134.899596
21
60.344264
0
LINE
8
annotation
62
1
39
211
10
134.899596
20
60.344264
11
134.884724
21
60.509676
0
LINE
8
annotation
62
1
39
211
10
134.884724
20
60.509676
11
134.841843
21
60.665527
0
LINE
8
annotation
62
1
39
211
10
134.841843
20
60.665527
11
134.773552
21
60.809173
0
LINE
8
annotation
62
1
39
211
10
134.773552
20
60.809173
11
134.682452
21
60.937971
0
LINE
8
annotation
62
1
39
211
10
134.682452
20
60.937971
11
134.571142
21
61.049279
0
LINE
8
annotation
62
1
39
211
10
134.571142
20
61.049279
11
134.442224
21
61.140452
0
LINE
8
annotation
62
1
39
211
10
134.442224
20
61.140452
11
134.298297
21
61.208849
0
LINE
8
annotation
62
1
39
211
10
134.298297
20
61.208849
11
134.141962
21
61.251825
0
LINE
8
annotation
62
1
39
211
10
134.141962
20
61.251825
11
133.975818
21
61.266738
0
LINE
8
annotation
62
1
39
211
10
133.975818
20
61.266738
11
133.513277
21
61.266738
0
LINE
8
annotation
62
1
39
211
10
133.513277
20
61.266738
11
133.975818
21
61.266738
0
LINE
8
annotation
62
1
39
211
10
133.975818
20
61.266738
11
133.975818
21
61.266738
0
LINE
8
annotation
62
1
39
211
10
133.975818
20
61.266738
11
134.141962
21
61.281654
0
LINE
8
annotation
62
1
39
211
10
134.141962
20
61.281654
11
134.298297
21
61.324655
0
LINE
8
annotation
62
1
39
211
10
134.298297
20
61.324655
11
134.442224
21
61.393120
0
LINE
8
annotation
62
1
39
211
10
134.442224
20
61.393120
11
134.571142
21
61.484426
0
LINE
8
annotation
62
1
39
211
10
134.571142
20
61.484426
11
134.682452
21
61.595952
0
LINE
8
annotation
62
1
39
211
10
134.682452
20
61.595952
11
134.773552
21
61.725076
0
LINE
8
annotation
62
1
39
211
10
134.773552
20
61.725076
11
134.841843
21
61.869176
0
LINE
8
annotation
62
1
39
211
10
134.841843
20
61.869176
11
134.884724
21
62.025632
0
LINE
8
annotation
62
1
39
211
10
134.884724
20
62.025632
11
134.899596
21
62.191820
0
LINE
8
annotation
62
1
39
211
10
134.899596
20
62.191820
11
134.899596
21
62.191820
0
LINE
8
annotation
62
1
39
211
10
134.899596
20
62.191820
11
134.884724
21
62.357232
0
LINE
8
annotation
62
1
39
211
10
134.884724
20
62.357232
11
134.841843
21
62.513082
0
LINE
8
annotation
62
1
39
211
10
134.841843
20
62.513082
11
134.773552
21
62.656728
0
LINE
8
annotation
62
1
39
211
10
134.773552
20
62.656728
11
134.682452
21
62.785527
0
LINE
8
annotation
62
1
39
211
10
134.682452
20
62.785527
11
134.571142
21
62.896834
0
LINE
8
annotation
62
1
39
211
10
134.571142
20
62.896834
11
134.442224
21
62.988008
0
LINE
8
annotation
62
1
39
211
10
134.442224
20
62.988008
11
134.298297
21
63.056404
0
LINE
8
annotation
62
1
39
211
10
134.298297
20
63.056404
11
134.141962
21
63.099381
0
LINE
8
annotation
62
1
39
211
10
134.141962
20
63.099381
11
133.975818
21
63.114293
0
LINE
8
annotation
62
1
39
211
10
133.975818
20
63.114293
11
133.052040
21
63.114293
0
LINE
8
annotation
62
1
39
211
10
134.680638
20
83.813993
11
132.370803
21
83.813993
0
LINE
8
annotation
62
1
39
211
10
132.370803
20
83.813993
11
133.293276
21
87.049172
0
LINE
8
annotation
62
1
39
211
10
133.988262
20
82.889172
11
133.988262
21
84.736728
0
LINE
8
annotation
62
1
39
211
10
136.775363
20
106.819225
11
137.699140
21
106.819225
0
LINE
8
annotation
62
1
39
211
10
137.699140
20
106.819225
11
137.699140
21
106.819225
0
LINE
8
annotation
62
1
39
211
10
137.699140
20
106.819225
11
137.864940
21
106.834132
0
LINE
8
annotation
62
1
39
211
10
137.864940
20
106.834132
11
138.021093
21
106.877109
0
LINE
8
annotation
62
1
39
211
10
138.021093
20
106.877109
11
138.164966
21
106.945539
0
LINE
8
annotation
62
1
39
211
10
138.164966
20
106.945539
11
138.293928
21
107.036804
0
LINE
8
annotation
62
1
39
211
10
138.293928
20
107.036804
11
138.405344
21
107.148287
0
LINE
8
annotation
62
1
39
211
10
138.405344
20
107.148287
11
138.496584
21
107.277369
0
LINE
8
annotation
62
1
39
211
10
138.496584
20
107.277369
11
138.565015
21
107.421435
0
LINE
8
annotation
62
1
39
211
10
138.565015
20
107.421435
11
138.608003
21
107.577866
0
LINE
8
annotation
62
1
39
211
10
138.608003
20
107.577866
11
138.622918
21
107.744046
0
LINE
8
annotation
62
1
39
211
10
138.622918
20
107.744046
11
138.622918
21
108.204239
0
LINE
8
annotation
62
1
39
211
10
138.622918
20
108.204239
11
138.622918
21
108.204239
0
LINE
8
annotation
62
1
39
211
10
138.622918
20
108.204239
11
138.608012
21
108.370338
0
LINE
8
annotation
62
1
39
211
10
138.608012
20
108.370338
11
138.565045
21
108.526553
0
LINE
8
annotation
62
1
39
211
10
138.565045
20
108.526553
11
138.496642
21
108.670307
0
LINE
8
annotation
62
1
39
211
10
138.496642
20
108.670307
11
138.405430
21
108.799019
0
LINE
8
annotation
62
1
39
211
10
138.405430
20
108.799019
11
138.294035
21
108.910112
0
LINE
8
annotation
62
1
39
211
10
138.294035
20
108.910112
11
138.165082
21
109.001007
0
LINE
8
annotation
62
1
39
211
10
138.165082
20
109.001007
11
138.021198
21
109.069124
0
LINE
8
annotation
62
1
39
211
10
138.021198
20
109.069124
11
137.865009
21
109.111886
0
LINE
8
annotation
62
1
39
211
10
137.865009
20
109.111886
11
137.699140
21
109.126712
0
LINE
8
annotation
62
1
39
211
10
137.699140
20
109.126712
11
136.775363
21
109.126712
0
LINE
8
annotation
62
1
39
211
10
136.775363
20
109.126712
11
136.775363
21
110.979225
0
LINE
8
annotation
62
1
39
211
10
136.775363
20
110.979225
11
138.622918
21
110.979225
0
LINE
8
annotation
62
1
39
211
10
142.380411
20
134.909277
11
142.380411
21
134.909277
0
LINE
8
annotation
62
1
39
211
10
142.380411
20
134.909277
11
142.115772
21
134.810053
0
LINE
8
annotation
62
1
39
211
10
142.115772
20
134.810053
11
141.872931
21
134.676361
0
LINE
8
annotation
62
1
39
211
10
141.872931
20
134.676361
11
141.654380
21
134.511550
0
LINE
8
annotation
62
1
39
211
10
141.654380
20
134.511550
11
141.462614
21
134.318970
0
LINE
8
annotation
62
1
39
211
10
141.462614
20
134.318970
11
141.300124
21
134.101970
0
LINE
8
annotation
62
1
39
211
10
141.300124
20
134.101970
11
141.169404
21
133.863900
0
LINE
8
annotation
62
1
39
211
10
141.169404
20
133.863900
11
141.072946
21
133.608109
0
LINE
8
annotation
62
1
39
211
10
141.072946
20
133.608109
11
141.013243
21
133.337948
0
LINE
8
annotation
62
1
39
211
10
141.013243
20
133.337948
11
140.992788
21
133.056765
0
LINE
8
annotation
62
1
39
211
10
140.992788
20
133.056765
11
140.992788
21
131.674098
0
LINE
8
annotation
62
1
39
211
10
140.992788
20
131.674098
11
140.992788
21
131.674098
0
LINE
8
annotation
62
1
39
211
10
140.992788
20
131.674098
11
141.007702
21
131.507919
0
LINE
8
annotation
62
1
39
211
10
141.007702
20
131.507919
11
141.050691
21
131.351488
0
LINE
8
annotation
62
1
39
211
10
141.050691
20
131.351488
11
141.119121
21
131.207422
0
LINE
8
annotation
62
1
39
211
10
141.119121
20
131.207422
11
141.210361
21
131.078339
0
LINE
8
annotation
62
1
39
211
10
141.210361
20
131.078339
11
141.321778
21
130.966856
0
LINE
8
annotation
62
1
39
211
10
141.321778
20
130.966856
11
141.450739
21
130.875592
0
LINE
8
annotation
62
1
39
211
10
141.450739
20
130.875592
11
141.594612
21
130.807162
0
LINE
8
annotation
62
1
39
211
10
141.594612
20
130.807162
11
141.750765
21
130.764185
0
LINE
8
annotation
62
1
39
211
10
141.750765
20
130.764185
11
141.916565
21
130.749277
0
LINE
8
annotation
62
1
39
211
10
141.916565
20
130.749277
11
141.916565
21
130.749277
0
LINE
8
annotation
62
1
39
211
10
141.916565
20
130.749277
11
142.082709
21
130.764185
0
LINE
8
annotation
62
1
39
211
10
142.082709
20
130.764185
11
142.239044
21
130.807162
0
LINE
8
annotation
62
1
39
211
10
142.239044
20
130.807162
11
142.382971
21
130.875592
0
LINE
8
annotation
62
1
39
211
10
142.382971
20
130.875592
11
142.511890
21
130.966856
0
LINE
8
annotation
62
1
39
211
10
142.511890
20
130.966856
11
142.623199
21
131.078339
0
LINE
8
annotation
62
1
39
211
10
142.623199
20
131.078339
11
142.714299
21
131.207422
0
LINE
8
annotation
62
1
39
211
10
142.714299
20
131.207422
11
142.782590
21
131.351488
0
LINE
8
annotation
62
1
39
211
10
142.782590
20
131.351488
11
142.825471
21
131.507919
0
LINE
8
annotation
62
1
39
211
10
142.825471
20
131.507919
11
142.840343
21
131.674098
0
LINE
8
annotation
62
1
39
211
10
142.840343
20
131.674098
11
142.840343
21
132.134292
0
LINE
8
annotation
62
1
39
211
10
142.840343
20
132.134292
11
142.840343
21
132.134292
0
LINE
8
annotation
62
1
39
211
10
142.840343
20
132.134292
11
142.825471
21
132.300390
0
LINE
8
annotation
62
1
39
211
10
142.825471
20
132.300390
11
142.782590
21
132.456606
0
LINE
8
annotation
62
1
39
211
10
142.782590
20
132.456606
11
142.714299
21
132.600359
0
LINE
8
annotation
62
1
39
211
10
142.714299
20
132.600359
11
142.623199
21
132.729072
0
LINE
8
annotation
62
1
39
211
10
142.623199
20
132.729072
11
142.511890
21
132.840165
0
LINE
8
annotation
62
1
39
211
10
142.511890
20
132.840165
11
142.382971
21
132.931059
0
LINE
8
annotation
62
1
39
211
10
142.382971
20
132.931059
11
142.239044
21
132.999177
0
LINE
8
annotation
62
1
39
211
10
142.239044
20
132.999177
11
142.082709
21
133.041938
0
LINE
8
annotation
62
1
39
211
10
142.082709
20
133.041938
11
141.916565
21
133.056765
0
LINE
8
annotation
62
1
39
211
10
141.916565
20
133.056765
11
140.992788
21
133.056765
0
LINE
8
annotation
62
1
39
211
10
140.877087
20
130.229277
11
142.957087
21
130.229277
0
LINE
8
annotation
62
1
39
211
10
137.699178
20
154.679330
11
138.623999
21
158.839330
0
LINE
8
annotation
62
1
39
211
10
138.623999
20
158.839330
11
136.774096
21
158.839330
0
LINE
8
annotation
62
1
39
211
10
138.623999
20
156.986817
11
137.699178
21
156.986817
0
LINE
8
annotation
62
1
39
211
10
132.601955
20
179.531725
11
132.601955
21
179.531725
0
LINE
8
annotation
62
1
39
211
10
132.601955
20
179.531725
11
132.616870
21
179.365626
0
LINE
8
annotation
62
1
39
211
10
132.616870
20
179.365626
11
132.659859
21
179.209411
0
LINE
8
annotation
62
1
39
211
10
132.659859
20
179.209411
11
132.728289
21
179.065657
0
LINE
8
annotation
62
1
39
211
10
132.728289
20
179.065657
11
132.819529
21
178.936945
0
LINE
8
annotation
62
1
39
211
10
132.819529
20
178.936945
11
132.930946
21
178.825852
0
LINE
8
annotation
62
1
39
211
10
132.930946
20
178.825852
11
133.059907
21
178.734957
0
LINE
8
annotation
62
1
39
211
10
133.059907
20
178.734957
11
133.203780
21
178.666840
0
LINE
8
annotation
62
1
39
211
10
133.203780
20
178.666840
11
133.359933
21
178.624079
0
LINE
8
annotation
62
1
39
211
10
133.359933
20
178.624079
11
133.525733
21
178.609252
0
LINE
8
annotation
62
1
39
211
10
133.525733
20
178.609252
11
133.525733
21
178.609252
0
LINE
8
annotation
62
1
39
211
10
133.525733
20
178.609252
11
133.691533
21
178.624079
0
LINE
8
annotation
62
1
39
211
10
133.691533
20
178.624079
11
133.847686
21
178.666840
0
LINE
8
annotation
62
1
39
211
10
133.847686
20
178.666840
11
133.991559
21
178.734957
0
LINE
8
annotation
62
1
39
211
10
133.991559
20
178.734957
11
134.120521
21
178.825852
0
LINE
8
annotation
62
1
39
211
10
134.120521
20
178.825852
11
134.231937
21
178.936945
0
LINE
8
annotation
62
1
39
211
10
134.231937
20
178.936945
11
134.323177
21
179.065657
0
LINE
8
annotation
62
1
39
211
10
134.323177
20
179.065657
11
134.391608
21
179.209411
0
LINE
8
annotation
62
1
39
211
10
134.391608
20
179.209411
11
134.434596
21
179.365626
0
LINE
8
annotation
62
1
39
211
10
134.434596
20
179.365626
11
134.449511
21
179.531725
0
LINE
8
annotation
62
1
39
211
10
134.449511
20
179.531725
11
134.449511
21
179.991918
0
LINE
8
annotation
62
1
39
211
10
134.449511
20
179.991918
11
134.449511
21
179.991918
0
LINE
8
annotation
62
1
39
211
10
134.449511
20
179.991918
11
134.434605
21
180.158098
0
LINE
8
annotation
62
1
39
211
10
134.434605
20
180.158098
11
134.391638
21
180.314529
0
LINE
8
annotation
62
1
39
211
10
134.391638
20
180.314529
11
134.323235
21
180.458595
0
LINE
8
annotation
62
1
39
211
10
134.323235
20
180.458595
11
134.232023
21
180.587678
0
LINE
8
annotation
62
1
39
211
10
134.232023
20
180.587678
11
134.120628
21
180.699160
0
LINE
8
annotation
62
1
39
211
10
134.120628
20
180.699160
11
133.991675
21
180.790425
0
LINE
8
annotation
62
1
39
211
10
133.991675
20
180.790425
11
133.847791
21
180.858855
0
LINE
8
annotation
62
1
39
211
10
133.847791
20
180.858855
11
133.691602
21
180.901832
0
LINE
8
annotation
62
1
39
211
10
133.691602
20
180.901832
11
133.525733
21
180.916739
0
LINE
8
annotation
62
1
39
211
10
133.525733
20
180.916739
11
133.525733
21
180.916739
0
LINE
8
annotation
62
1
39
211
10
133.525733
20
180.916739
11
133.359864
21
180.901823
0
LINE
8
annotation
62
1
39
211
10
133.359864
20
180.901823
11
133.203675
21
180.858825
0
LINE
8
annotation
62
1
39
211
10
133.203675
20
180.858825
11
133.059791
21
180.790367
0
LINE
8
annotation
62
1
39
211
10
133.059791
20
180.790367
11
132.930838
21
180.699074
0
LINE
8
annotation
62
1
39
211
10
132.930838
20
180.699074
11
132.819443
21
180.587570
0
LINE
8
annotation
62
1
39
211
10
132.819443
20
180.587570
11
132.728231
21
180.458479
0
LINE
8
annotation
62
1
39
211
10
132.728231
20
180.458479
11
132.659829
21
180.314424
0
LINE
8
annotation
62
1
39
211
10
132.659829
20
180.314424
11
132.616861
21
180.158029
0
LINE
8
annotation
62
1
39
211
10
132.616861
20
180.158029
11
132.601955
21
179.991918
0
LINE
8
annotation
62
1
39
211
10
132.601955
20
179.991918
11
132.601955
21
179.531725
0
LINE
8
annotation
62
1
39
211
10
134.449511
20
181.841822
11
134.449511
21
181.841822
0
LINE
8
annotation
62
1
39
211
10
134.449511
20
181.841822
11
134.434605
21
182.007233
0
LINE
8
annotation
62
1
39
211
10
134.434605
20
182.007233
11
134.391638
21
182.163084
0
LINE
8
annotation
62
1
39
211
10
134.391638
20
182.163084
11
134.323235
21
182.306730
0
LINE
8
annotation
62
1
39
211
10
134.323235
20
182.306730
11
134.232023
21
182.435528
0
LINE
8
annotation
62
1
39
211
10
134.232023
20
182.435528
11
134.120628
21
182.546836
0
LINE
8
annotation
62
1
39
211
10
134.120628
20
182.546836
11
133.991675
21
182.638010
0
LINE
8
annotation
62
1
39
211
10
133.991675
20
182.638010
11
133.847791
21
182.706406
0
LINE
8
annotation
62
1
39
211
10
133.847791
20
182.706406
11
133.691602
21
182.749382
0
LINE
8
annotation
62
1
39
211
10
133.691602
20
182.749382
11
133.525733
21
182.764295
0
LINE
8
annotation
62
1
39
211
10
133.525733
20
182.764295
11
133.525733
21
182.764295
0
LINE
8
annotation
62
1
39
211
10
133.525733
20
182.764295
11
133.359864
21
182.749382
0
LINE
8
annotation
62
1
39
211
10
133.359864
20
182.749382
11
133.203675
21
182.706406
0
LINE
8
annotation
62
1
39
211
10
133.203675
20
182.706406
11
133.059791
21
182.638010
0
LINE
8
annotation
62
1
39
211
10
133.059791
20
182.638010
11
132.930838
21
182.546836
0
LINE
8
annotation
62
1
39
211
10
132.930838
20
182.546836
11
132.819443
21
182.435528
0
LINE
8
annotation
62
1
39
211
10
132.819443
20
182.435528
11
132.728231
21
182.306730
0
LINE
8
annotation
62
1
39
211
10
132.728231
20
182.306730
11
132.659829
21
182.163084
0
LINE
8
annotation
62
1
39
211
10
132.659829
20
182.163084
11
132.616861
21
182.007233
0
LINE
8
annotation
62
1
39
211
10
132.616861
20
182.007233
11
132.601955
21
181.841822
0
LINE
8
annotation
62
1
39
211
10
132.601955
20
181.841822
11
132.601955
21
181.841822
0
LINE
8
annotation
62
1
39
211
10
132.601955
20
181.841822
11
132.616870
21
181.675633
0
LINE
8
annotation
62
1
39
211
10
132.616870
20
181.675633
11
132.659859
21
181.519178
0
LINE
8
annotation
62
1
39
211
10
132.659859
20
181.519178
11
132.728289
21
181.375077
0
LINE
8
annotation
62
1
39
211
10
132.728289
20
181.375077
11
132.819529
21
181.245953
0
LINE
8
annotation
62
1
39
211
10
132.819529
20
181.245953
11
132.930946
21
181.134428
0
LINE
8
annotation
62
1
39
211
10
132.930946
20
181.134428
11
133.059907
21
181.043122
0
LINE
8
annotation
62
1
39
211
10
133.059907
20
181.043122
11
133.203780
21
180.974657
0
LINE
8
annotation
62
1
39
211
10
133.203780
20
180.974657
11
133.359933
21
180.931656
0
LINE
8
annotation
62
1
39
211
10
133.359933
20
180.931656
11
133.525733
21
180.916739
0
LINE
8
annotation
62
1
39
211
10
133.525733
20
180.916739
11
133.525733
21
180.916739
0
LINE
8
annotation
62
1
39
211
10
133.525733
20
180.916739
11
133.691533
21
180.931656
0
LINE
8
annotation
62
1
39
211
10
133.691533
20
180.931656
11
133.847686
21
180.974657
0
LINE
8
annotation
62
1
39
211
10
133.847686
20
180.974657
11
133.991559
21
181.043122
0
LINE
8
annotation
62
1
39
211
10
133.991559
20
181.043122
11
134.120521
21
181.134428
0
LINE
8
annotation
62
1
39
211
10
134.120521
20
181.134428
11
134.231937
21
181.245953
0
LINE
8
annotation
62
1
39
211
10
134.231937
20
181.245953
11
134.323177
21
181.375077
0
LINE
8
annotation
62
1
39
211
10
134.323177
20
181.375077
11
134.391608
21
181.519178
0
LINE
8
annotation
62
1
39
211
10
134.391608
20
181.519178
11
134.434596
21
181.675633
0
LINE
8
annotation
62
1
39
211
10
134.434596
20
181.675633
11
134.449511
21
181.841822
0
LINE
8
annotation
62
1
39
211
10
133.513279
20
202.539435
11
133.513279
21
202.539435
0
LINE
8
annotation
62
1
39
211
10
133.513279
20
202.539435
11
133.777453
21
202.637879
0
LINE
8
annotation
62
1
39
211
10
133.777453
20
202.637879
11
134.019931
21
202.770943
0
LINE
8
annotation
62
1
39
211
10
134.019931
20
202.770943
11
134.238208
21
202.935239
0
LINE
8
annotation
62
1
39
211
10
134.238208
20
202.935239
11
134.429779
21
203.127374
0
LINE
8
annotation
62
1
39
211
10
134.429779
20
203.127374
11
134.592138
21
203.343959
0
LINE
8
annotation
62
1
39
211
10
134.592138
20
203.343959
11
134.722779
21
203.581604
0
LINE
8
annotation
62
1
39
211
10
134.722779
20
203.581604
11
134.819197
21
203.836917
0
LINE
8
annotation
62
1
39
211
10
134.819197
20
203.836917
11
134.878885
21
204.106510
0
LINE
8
annotation
62
1
39
211
10
134.878885
20
204.106510
11
134.899337
21
204.386990
0
LINE
8
annotation
62
1
39
211
10
134.899337
20
204.386990
11
134.899337
21
205.774353
0
LINE
8
annotation
62
1
39
211
10
134.899337
20
205.774353
11
134.899337
21
205.774353
0
LINE
8
annotation
62
1
39
211
10
134.899337
20
205.774353
11
134.884466
21
205.940541
0
LINE
8
annotation
62
1
39
211
10
134.884466
20
205.940541
11
134.841584
21
206.096996
0
LINE
8
annotation
62
1
39
211
10
134.841584
20
206.096996
11
134.773293
21
206.241097
0
LINE
8
annotation
62
1
39
211
10
134.773293
20
206.241097
11
134.682193
21
206.370221
0
LINE
8
annotation
62
1
39
211
10
134.682193
20
206.370221
11
134.570884
21
206.481747
0
LINE
8
annotation
62
1
39
211
10
134.570884
20
206.481747
11
134.441966
21
206.573053
0
LINE
8
annotation
62
1
39
211
10
134.441966
20
206.573053
11
134.298039
21
206.641517
0
LINE
8
annotation
62
1
39
211
10
134.298039
20
206.641517
11
134.141703
21
206.684518
0
LINE
8
annotation
62
1
39
211
10
134.141703
20
206.684518
11
133.975560
21
206.699435
0
LINE
8
annotation
62
1
39
211
10
133.975560
20
206.699435
11
133.975560
21
206.699435
0
LINE
8
annotation
62
1
39
211
10
133.975560
20
206.699435
11
133.809759
21
206.684518
0
LINE
8
annotation
62
1
39
211
10
133.809759
20
206.684518
11
133.653607
21
206.641517
0
LINE
8
annotation
62
1
39
211
10
133.653607
20
206.641517
11
133.509733
21
206.573053
0
LINE
8
annotation
62
1
39
211
10
133.509733
20
206.573053
11
133.380772
21
206.481747
0
LINE
8
annotation
62
1
39
211
10
133.380772
20
206.481747
11
133.269355
21
206.370221
0
LINE
8
annotation
62
1
39
211
10
133.269355
20
206.370221
11
133.178116
21
206.241097
0
LINE
8
annotation
62
1
39
211
10
133.178116
20
206.241097
11
133.109685
21
206.096996
0
LINE
8
annotation
62
1
39
211
10
133.109685
20
206.096996
11
133.066696
21
205.940541
0
LINE
8
annotation
62
1
39
211
10
133.066696
20
205.940541
11
133.051782
21
205.774353
0
LINE
8
annotation
62
1
39
211
10
133.051782
20
205.774353
11
133.051782
21
205.311811
0
LINE
8
annotation
62
1
39
211
10
133.051782
20
205.311811
11
133.051782
21
205.311811
0
LINE
8
annotation
62
1
39
211
10
133.051782
20
205.311811
11
133.066696
21
205.145632
0
LINE
8
annotation
62
1
39
211
10
133.066696
20
205.145632
11
133.109685
21
204.989201
0
LINE
8
annotation
62
1
39
211
10
133.109685
20
204.989201
11
133.178116
21
204.845135
0
LINE
8
annotation
62
1
39
211
10
133.178116
20
204.845135
11
133.269355
21
204.716052
0
LINE
8
annotation
62
1
39
211
10
133.269355
20
204.716052
11
133.380772
21
204.604569
0
LINE
8
annotation
62
1
39
211
10
133.380772
20
204.604569
11
133.509733
21
204.513305
0
LINE
8
annotation
62
1
39
211
10
133.509733
20
204.513305
11
133.653607
21
204.444875
0
LINE
8
annotation
62
1
39
211
10
133.653607
20
204.444875
11
133.809759
21
204.401898
0
LINE
8
annotation
62
1
39
211
10
133.809759
20
204.401898
11
133.975560
21
204.386990
0
LINE
8
annotation
62
1
39
211
10
133.975560
20
204.386990
11
134.899337
21
204.386990
0
LINE
8
annotation
62
1
39
211
10
132.936342
20
202.019435
11
135.016342
21
202.019435
0
LINE
8
annotation
62
1
39
211
10
133.329785
20
226.548475
11
133.329785
21
230.550499
0
LINE
8
annotation
62
1
39
211
10
133.329785
20
230.550499
11
132.440084
21
229.660547
0
LINE
8
annotation
62
1
39
211
10
135.473250
20
226.601263
11
135.473250
21
226.601263
0
LINE
8
annotation
62
1
39
211
10
135.473250
20
226.601263
11
135.566262
21
226.566493
0
LINE
8
annotation
62
1
39
211
10
135.566262
20
226.566493
11
135.661654
21
226.549219
0
LINE
8
annotation
62
1
39
211
10
135.661654
20
226.549219
11
135.757268
21
226.548736
0
LINE
8
annotation
62
1
39
211
10
135.757268
20
226.548736
11
135.850950
21
226.564340
0
LINE
8
annotation
62
1
39
211
10
135.850950
20
226.564340
11
135.940541
21
226.595326
0
LINE
8
annotation
62
1
39
211
10
135.940541
20
226.595326
11
136.023886
21
226.640992
0
LINE
8
annotation
62
1
39
211
10
136.023886
20
226.640992
11
136.098828
21
226.700631
0
LINE
8
annotation
62
1
39
211
10
136.098828
20
226.700631
11
136.163210
21
226.773539
0
LINE
8
annotation
62
1
39
211
10
136.163210
20
226.773539
11
136.214877
21
226.859013
0
LINE
8
annotation
62
1
39
211
10
136.214877
20
226.859013
11
136.214877
21
226.859013
0
LINE
8
annotation
62
1
39
211
10
136.214877
20
226.859013
11
136.369030
21
227.219847
0
LINE
8
annotation
62
1
39
211
10
136.369030
20
227.219847
11
136.484645
21
227.591125
0
LINE
8
annotation
62
1
39
211
10
136.484645
20
227.591125
11
136.561722
21
227.969887
0
LINE
8
annotation
62
1
39
211
10
136.561722
20
227.969887
11
136.600261
21
228.353173
0
LINE
8
annotation
62
1
39
211
10
136.600261
20
228.353173
11
136.600261
21
228.738022
0
LINE
8
annotation
62
1
39
211
10
136.600261
20
228.738022
11
136.561722
21
229.121474
0
LINE
8
annotation
62
1
39
211
10
136.561722
20
229.121474
11
136.484645
21
229.500571
0
LINE
8
annotation
62
1
39
211
10
136.484645
20
229.500571
11
136.369030
21
229.872351
0
LINE
8
annotation
62
1
39
211
10
136.369030
20
229.872351
11
136.214877
21
230.233854
0
LINE
8
annotation
62
1
39
211
10
136.214877
20
230.233854
11
136.214877
21
230.233854
0
LINE
8
annotation
62
1
39
211
10
136.214877
20
230.233854
11
136.195273
21
230.270338
0
LINE
8
annotation
62
1
39
211
10
136.195273
20
230.270338
11
136.173048
21
230.305218
0
LINE
8
annotation
62
1
39
211
10
136.173048
20
230.305218
11
136.148369
21
230.338324
0
LINE
8
annotation
62
1
39
211
10
136.148369
20
230.338324
11
136.121403
21
230.369484
0
LINE
8
annotation
62
1
39
211
10
136.121403
20
230.369484
11
136.092318
21
230.398528
0
LINE
8
annotation
62
1
39
211
10
136.092318
20
230.398528
11
136.061281
21
230.425282
0
LINE
8
annotation
62
1
39
211
10
136.061281
20
230.425282
11
136.028459
21
230.449576
0
LINE
8
annotation
62
1
39
211
10
136.028459
20
230.449576
11
135.994020
21
230.471239
0
LINE
8
annotation
62
1
39
211
10
135.994020
20
230.471239
11
135.958131
21
230.490098
0
LINE
8
annotation
62
1
39
211
10
135.958131
20
230.490098
11
135.958131
21
230.490098
0
LINE
8
annotation
62
1
39
211
10
135.958131
20
230.490098
11
135.864380
21
230.525622
0
LINE
8
annotation
62
1
39
211
10
135.864380
20
230.525622
11
135.768430
21
230.543487
0
LINE
8
annotation
62
1
39
211
10
135.768430
20
230.543487
11
135.672411
21
230.544401
0
LINE
8
annotation
62
1
39
211
10
135.672411
20
230.544401
11
135.578456
21
230.529074
0
LINE
8
annotation
62
1
39
211
10
135.578456
20
230.529074
11
135.488697
21
230.498213
0
LINE
8
annotation
62
1
39
211
10
135.488697
20
230.498213
11
135.405264
21
230.452526
0
LINE
8
annotation
62
1
39
211
10
135.405264
20
230.452526
11
135.330290
21
230.392724
0
LINE
8
annotation
62
1
39
211
10
135.330290
20
230.392724
11
135.265907
21
230.319513
0
LINE
8
annotation
62
1
39
211
10
135.265907
20
230.319513
11
135.214245
21
230.233603
0
LINE
8
annotation
62
1
39
211
10
135.214245
20
230.233603
11
135.214245
21
230.233603
0
LINE
8
annotation
62
1
39
211
10
135.214245
20
230.233603
11
135.060835
21
229.872843
0
LINE
8
annotation
62
1
39
211
10
135.060835
20
229.872843
11
134.945778
21
229.501621
0
LINE
8
annotation
62
1
39
211
10
134.945778
20
229.501621
11
134.869073
21
229.122897
0
LINE
8
annotation
62
1
39
211
10
134.869073
20
229.122897
11
134.830721
21
228.739630
0
LINE
8
annotation
62
1
39
211
10
134.830721
20
228.739630
11
134.830721
21
228.354781
0
LINE
8
annotation
62
1
39
211
10
134.830721
20
228.354781
11
134.869073
21
227.971309
0
LINE
8
annotation
62
1
39
211
10
134.869073
20
227.971309
11
134.945778
21
227.592176
0
LINE
8
annotation
62
1
39
211
10
134.945778
20
227.592176
11
135.060835
21
227.220340
0
LINE
8
annotation
62
1
39
211
10
135.060835
20
227.220340
11
135.214245
21
226.858762
0
LINE
8
annotation
62
1
39
211
10
135.214245
20
226.858762
11
135.214245
21
226.858762
0
LINE
8
annotation
62
1
39
211
10
135.214245
20
226.858762
11
135.233778
21
226.822351
0
LINE
8
annotation
62
1
39
211
10
135.233778
20
226.822351
11
135.255839
21
226.787645
0
LINE
8
annotation
62
1
39
211
10
135.255839
20
226.787645
11
135.280335
21
226.754748
0
LINE
8
annotation
62
1
39
211
10
135.280335
20
226.754748
11
135.307174
21
226.723765
0
LINE
8
annotation
62
1
39
211
10
135.307174
20
226.723765
11
135.336262
21
226.694803
0
LINE
8
annotation
62
1
39
211
10
135.336262
20
226.694803
11
135.367507
21
226.667967
0
LINE
8
annotation
62
1
39
211
10
135.367507
20
226.667967
11
135.400815
21
226.643361
0
LINE
8
annotation
62
1
39
211
10
135.400815
20
226.643361
11
135.436094
21
226.621091
0
LINE
8
annotation
62
1
39
211
10
135.436094
20
226.621091
11
135.473250
21
226.601263
0
LINE
8
annotation
62
1
39
211
10
139.764878
20
250.399540
11
139.764878
21
254.559540
0
LINE
8
annotation
62
1
39
211
10
139.764878
20
254.559540
11
138.840057
21
253.634458
0
LINE
8
annotation
62
1
39
211
10
142.249699
20
250.399540
11
142.249699
21
254.559540
0
LINE
8
annotation
62
1
39
211
10
142.249699
20
254.559540
11
141.324878
21
253.634458
0
LINE
8
annotation
62
1
39
211
10
142.630906
20
140.115849
11
137.586715
21
140.115849
0
LINE
8
annotation
62
1
39
211
10
137.586715
20
140.115849
11
142.630906
21
149.200405
0
LINE
8
annotation
62
1
39
211
10
142.630906
20
149.200405
11
137.586715
21
149.200405
0
LINE
8
annotation
62
1
39
211
10
151.005749
20
144.658127
11
146.038469
21
144.658127
0
LINE
8
annotation
62
1
39
211
10
154.411603
20
140.115849
11
156.428937
21
140.115849
0
LINE
8
annotation
62
1
39
211
10
156.428937
20
140.115849
11
156.428937
21
140.115849
0
LINE
8
annotation
62
1
39
211
10
156.428937
20
140.115849
11
156.791010
21
140.148404
0
LINE
8
annotation
62
1
39
211
10
156.791010
20
140.148404
11
157.132014
21
140.242257
0
LINE
8
annotation
62
1
39
211
10
157.132014
20
140.242257
11
157.446203
21
140.391693
0
LINE
8
annotation
62
1
39
211
10
157.446203
20
140.391693
11
157.727827
21
140.590996
0
LINE
8
annotation
62
1
39
211
10
157.727827
20
140.590996
11
157.971137
21
140.834450
0
LINE
8
annotation
62
1
39
211
10
157.971137
20
140.834450
11
158.170386
21
141.116340
0
LINE
8
annotation
62
1
39
211
10
158.170386
20
141.116340
11
158.319823
21
141.430949
0
LINE
8
annotation
62
1
39
211
10
158.319823
20
141.430949
11
158.413702
21
141.772562
0
LINE
8
annotation
62
1
39
211
10
158.413702
20
141.772562
11
158.446272
21
142.135462
0
LINE
8
annotation
62
1
39
211
10
158.446272
20
142.135462
11
158.446272
21
143.140426
0
LINE
8
annotation
62
1
39
211
10
158.446272
20
143.140426
11
158.446272
21
143.140426
0
LINE
8
annotation
62
1
39
211
10
158.446272
20
143.140426
11
158.413720
21
143.503151
0
LINE
8
annotation
62
1
39
211
10
158.413720
20
143.503151
11
158.319889
21
143.844293
0
LINE
8
annotation
62
1
39
211
10
158.319889
20
143.844293
11
158.170512
21
144.158219
0
LINE
8
annotation
62
1
39
211
10
158.170512
20
144.158219
11
157.971325
21
144.439300
0
LINE
8
annotation
62
1
39
211
10
157.971325
20
144.439300
11
157.728061
21
144.681903
0
LINE
8
annotation
62
1
39
211
10
157.728061
20
144.681903
11
157.446456
21
144.880398
0
LINE
8
annotation
62
1
39
211
10
157.446456
20
144.880398
11
157.132244
21
145.029151
0
LINE
8
annotation
62
1
39
211
10
157.132244
20
145.029151
11
156.791160
21
145.122533
0
LINE
8
annotation
62
1
39
211
10
156.791160
20
145.122533
11
156.428937
21
145.154912
0
LINE
8
annotation
62
1
39
211
10
156.428937
20
145.154912
11
154.411603
21
145.154912
0
LINE
8
annotation
62
1
39
211
10
154.411603
20
145.154912
11
154.411603
21
149.200405
0
LINE
8
annotation
62
1
39
211
10
154.411603
20
149.200405
11
158.446272
21
149.200405
0
LINE
8
frame
62
5
39
2
10
0.000000
20
0.000000
11
200.000000
21
0.000000
0
LINE
8
frame
62
5
39
2
10
200.000000
20
0.000000
11
200.000000
21
296.926000
0
LINE
8
frame
62
5
39
2
10
200.000000
20
296.926000
11
0.000000
21
296.926000
0
LINE
8
frame
62
5
39
2
10
0.000000
20
296.926000
11
0.000000
21
0.000000
0
ENDSEC
0
EOF
