0
SECTION
2
HEADER
9
$ACADVER
1
AC1009
0
ENDSEC
0
SECTION
2
TABLES
0
TABLE
2
VPORT
70
1
0
VPORT
2
ACTIVE
70
0
10
0.0
20
0.0
11
0.0
21
0.0
12
0.0
22
0.0
13
0.0
23
0.0
14
0.0
24
0.0
15
0.0
25
0.0
16
0.0
26
0.0
36
0.0
17
0.0
27
0.0
37
0.0
40
0.0
41
0.0
42
0.0
43
0.0
44
0.0
50
0.0
51
0.0
71
0
72
1000
73
1
74
3
75
0
76
0
77
0
78
0
0
ENDTAB
0
ENDSEC
0
SECTION
2
ENTITIES
0
LINE
8
boundary
62
5
39
2
10
6.667536
20
212.153814
11
6.667536
21
209.534513
0
LINE
8
boundary
62
5
39
2
10
6.667536
20
209.534513
11
32.975942
21
209.404516
0
LINE
8
boundary
62
5
39
2
10
32.975942
20
209.404516
11
32.975942
21
207.058516
0
LINE
8
boundary
62
5
39
2
10
32.975942
20
207.058516
11
6.667535
21
207.058516
0
LINE
8
boundary
62
5
39
2
10
6.667535
20
207.058516
11
6.667530
21
183.871430
0
LINE
8
boundary
62
5
39
2
10
6.667530
20
183.871430
11
30.021669
21
183.741432
0
LINE
8
boundary
62
5
39
2
10
30.021669
20
183.741432
11
30.021669
21
181.395433
0
LINE
8
boundary
62
5
39
2
10
30.021669
20
181.395433
11
6.667530
21
181.395433
0
LINE
8
boundary
62
5
39
2
10
6.667530
20
181.395433
11
6.667527
21
168.976861
0
LINE
8
boundary
62
5
39
2
10
6.667527
20
168.976861
11
6.667526
21
158.078349
0
LINE
8
boundary
62
5
39
2
10
6.667526
20
158.078349
11
22.460389
21
158.078349
0
LINE
8
boundary
62
5
39
2
10
22.460389
20
158.078349
11
22.460389
21
155.732349
0
LINE
8
boundary
62
5
39
2
10
22.460389
20
155.732349
11
6.667526
21
155.732349
0
LINE
8
boundary
62
5
39
2
10
6.667526
20
155.732349
11
6.667522
21
132.415265
0
LINE
8
boundary
62
5
39
2
10
6.667522
20
132.415265
11
25.155515
21
132.415265
0
LINE
8
boundary
62
5
39
2
10
25.155515
20
132.415265
11
25.155515
21
130.069265
0
LINE
8
boundary
62
5
39
2
10
25.155515
20
130.069265
11
6.667522
21
130.069265
0
LINE
8
boundary
62
5
39
2
10
6.667522
20
130.069265
11
6.667519
21
106.752182
0
LINE
8
boundary
62
5
39
2
10
6.667519
20
106.752182
11
24.699238
21
106.752182
0
LINE
8
boundary
62
5
39
2
10
24.699238
20
106.752182
11
24.699238
21
104.406182
0
LINE
8
boundary
62
5
39
2
10
24.699238
20
104.406182
11
6.667519
21
104.406182
0
LINE
8
boundary
62
5
39
2
10
6.667519
20
104.406182
11
6.667517
21
95.340493
0
LINE
8
boundary
62
5
39
2
10
6.667517
20
95.340493
11
6.667515
21
81.089098
0
LINE
8
boundary
62
5
39
2
10
6.667515
20
81.089098
11
17.745515
21
81.089098
0
LINE
8
boundary
62
5
39
2
10
17.745515
20
81.089098
11
17.745515
21
78.743098
0
LINE
8
boundary
62
5
39
2
10
17.745515
20
78.743098
11
6.667514
21
78.743098
0
LINE
8
boundary
62
5
39
2
10
6.667514
20
78.743098
11
6.667510
21
55.426015
0
LINE
8
boundary
62
5
39
2
10
6.667510
20
55.426015
11
17.745508
21
55.426015
0
LINE
8
boundary
62
5
39
2
10
17.745508
20
55.426015
11
17.745508
21
53.080015
0
LINE
8
boundary
62
5
39
2
10
17.745508
20
53.080015
11
6.667509
21
53.080015
0
LINE
8
boundary
62
5
39
2
10
6.667509
20
53.080015
11
6.667504
21
29.892929
0
LINE
8
boundary
62
5
39
2
10
6.667504
20
29.892929
11
26.296405
21
29.762931
0
LINE
8
boundary
62
5
39
2
10
26.296405
20
29.762931
11
26.296405
21
27.416931
0
LINE
8
boundary
62
5
39
2
10
26.296405
20
27.416931
11
6.667504
21
27.416931
0
LINE
8
boundary
62
5
39
2
10
6.667504
20
27.416931
11
6.667500
21
6.667506
0
LINE
8
boundary
62
5
39
2
10
6.667500
20
6.667506
11
16.438137
21
6.667500
0
LINE
8
boundary
62
5
39
2
10
16.438137
20
6.667500
11
60.667501
21
6.667513
0
LINE
8
boundary
62
5
39
2
10
60.667501
20
6.667513
11
31.808806
21
47.997789
0
LINE
8
boundary
62
5
39
2
10
31.808806
20
47.997789
11
29.077506
21
52.875551
0
LINE
8
boundary
62
5
39
2
10
29.077506
20
52.875551
11
29.077506
21
54.475392
0
LINE
8
boundary
62
5
39
2
10
29.077506
20
54.475392
11
29.077517
21
81.685788
0
LINE
8
boundary
62
5
39
2
10
29.077517
20
81.685788
11
37.171243
21
90.379431
0
LINE
8
boundary
62
5
39
2
10
37.171243
20
90.379431
11
39.607514
21
95.340500
0
LINE
8
boundary
62
5
39
2
10
39.607514
20
95.340500
11
42.689766
21
101.616957
0
LINE
8
boundary
62
5
39
2
10
42.689766
20
101.616957
11
43.200168
21
110.496014
0
LINE
8
boundary
62
5
39
2
10
43.200168
20
110.496014
11
44.212797
21
128.111758
0
LINE
8
boundary
62
5
39
2
10
44.212797
20
128.111758
11
40.112761
21
153.567246
0
LINE
8
boundary
62
5
39
2
10
40.112761
20
153.567246
11
37.786701
21
156.704045
0
LINE
8
boundary
62
5
39
2
10
37.786701
20
156.704045
11
33.833149
21
168.976756
0
LINE
8
boundary
62
5
39
2
10
33.833149
20
168.976756
11
53.100119
21
179.640622
0
LINE
8
boundary
62
5
39
2
10
53.100119
20
179.640622
11
55.199935
21
195.897229
0
LINE
8
boundary
62
5
39
2
10
55.199935
20
195.897229
11
60.667540
21
212.153766
0
LINE
8
boundary
62
5
39
2
10
60.667540
20
212.153766
11
23.938313
21
212.153787
0
LINE
8
boundary
62
5
39
2
10
23.938313
20
212.153787
11
6.667536
21
212.153814
0
LINE
8
annotation
62
1
39
211
10
32.546661
20
26.509897
11
30.699105
21
26.509897
0
LINE
8
annotation
62
1
39
211
10
30.699105
20
26.509897
11
32.406307
21
29.258273
0
LINE
8
annotation
62
1
39
211
10
32.406307
20
29.258273
11
32.406307
21
29.258273
0
LINE
8
annotation
62
1
39
211
10
32.406307
20
29.258273
11
32.408348
21
29.260799
0
LINE
8
annotation
62
1
39
211
10
32.408348
20
29.260799
11
32.410305
21
29.263346
0
LINE
8
annotation
62
1
39
211
10
32.410305
20
29.263346
11
32.412191
21
29.265935
0
LINE
8
annotation
62
1
39
211
10
32.412191
20
29.265935
11
32.414020
21
29.268590
0
LINE
8
annotation
62
1
39
211
10
32.414020
20
29.268590
11
32.415803
21
29.271330
0
LINE
8
annotation
62
1
39
211
10
32.415803
20
29.271330
11
32.417554
21
29.274177
0
LINE
8
annotation
62
1
39
211
10
32.417554
20
29.274177
11
32.419286
21
29.277154
0
LINE
8
annotation
62
1
39
211
10
32.419286
20
29.277154
11
32.421011
21
29.280280
0
LINE
8
annotation
62
1
39
211
10
32.421011
20
29.280280
11
32.422743
21
29.283579
0
LINE
8
annotation
62
1
39
211
10
32.422743
20
29.283579
11
32.422743
21
29.283579
0
LINE
8
annotation
62
1
39
211
10
32.422743
20
29.283579
11
32.493233
21
29.434927
0
LINE
8
annotation
62
1
39
211
10
32.493233
20
29.434927
11
32.534412
21
29.591812
0
LINE
8
annotation
62
1
39
211
10
32.534412
20
29.591812
11
32.547289
21
29.750690
0
LINE
8
annotation
62
1
39
211
10
32.547289
20
29.750690
11
32.532874
21
29.908016
0
LINE
8
annotation
62
1
39
211
10
32.532874
20
29.908016
11
32.492175
21
30.060244
0
LINE
8
annotation
62
1
39
211
10
32.492175
20
30.060244
11
32.426202
21
30.203830
0
LINE
8
annotation
62
1
39
211
10
32.426202
20
30.203830
11
32.335964
21
30.335228
0
LINE
8
annotation
62
1
39
211
10
32.335964
20
30.335228
11
32.222469
21
30.450895
0
LINE
8
annotation
62
1
39
211
10
32.222469
20
30.450895
11
32.086729
21
30.547284
0
LINE
8
annotation
62
1
39
211
10
32.086729
20
30.547284
11
32.086729
21
30.547284
0
LINE
8
annotation
62
1
39
211
10
32.086729
20
30.547284
11
31.934960
21
30.616772
0
LINE
8
annotation
62
1
39
211
10
31.934960
20
30.616772
11
31.777834
21
30.657317
0
LINE
8
annotation
62
1
39
211
10
31.777834
20
30.657317
11
31.618864
21
30.669830
0
LINE
8
annotation
62
1
39
211
10
31.618864
20
30.669830
11
31.461562
21
30.655224
0
LINE
8
annotation
62
1
39
211
10
31.461562
20
30.655224
11
31.309441
21
30.614413
0
LINE
8
annotation
62
1
39
211
10
31.309441
20
30.614413
11
31.166014
21
30.548308
0
LINE
8
annotation
62
1
39
211
10
31.166014
20
30.548308
11
31.034793
21
30.457822
0
LINE
8
annotation
62
1
39
211
10
31.034793
20
30.457822
11
30.919292
21
30.343867
0
LINE
8
annotation
62
1
39
211
10
30.919292
20
30.343867
11
30.823024
21
30.207356
0
LINE
8
annotation
62
1
39
211
10
30.823024
20
30.207356
11
30.701714
21
29.974651
0
LINE
8
annotation
62
1
39
211
10
22.148208
20
52.173145
11
23.071986
21
52.173145
0
LINE
8
annotation
62
1
39
211
10
23.071986
20
52.173145
11
23.071986
21
52.173145
0
LINE
8
annotation
62
1
39
211
10
23.071986
20
52.173145
11
23.238130
21
52.188049
0
LINE
8
annotation
62
1
39
211
10
23.238130
20
52.188049
11
23.394465
21
52.231004
0
LINE
8
annotation
62
1
39
211
10
23.394465
20
52.231004
11
23.538392
21
52.299373
0
LINE
8
annotation
62
1
39
211
10
23.538392
20
52.299373
11
23.667310
21
52.390518
0
LINE
8
annotation
62
1
39
211
10
23.667310
20
52.390518
11
23.778620
21
52.501805
0
LINE
8
annotation
62
1
39
211
10
23.778620
20
52.501805
11
23.869720
21
52.630594
0
LINE
8
annotation
62
1
39
211
10
23.869720
20
52.630594
11
23.938011
21
52.774251
0
LINE
8
annotation
62
1
39
211
10
23.938011
20
52.774251
11
23.980892
21
52.930138
0
LINE
8
annotation
62
1
39
211
10
23.980892
20
52.930138
11
23.995764
21
53.095619
0
LINE
8
annotation
62
1
39
211
10
23.995764
20
53.095619
11
23.995764
21
53.558160
0
LINE
8
annotation
62
1
39
211
10
23.995764
20
53.558160
11
23.995764
21
53.558160
0
LINE
8
annotation
62
1
39
211
10
23.995764
20
53.558160
11
23.980892
21
53.723571
0
LINE
8
annotation
62
1
39
211
10
23.980892
20
53.723571
11
23.938011
21
53.879422
0
LINE
8
annotation
62
1
39
211
10
23.938011
20
53.879422
11
23.869720
21
54.023068
0
LINE
8
annotation
62
1
39
211
10
23.869720
20
54.023068
11
23.778620
21
54.151866
0
LINE
8
annotation
62
1
39
211
10
23.778620
20
54.151866
11
23.667310
21
54.263174
0
LINE
8
annotation
62
1
39
211
10
23.667310
20
54.263174
11
23.538392
21
54.354348
0
LINE
8
annotation
62
1
39
211
10
23.538392
20
54.354348
11
23.394465
21
54.422744
0
LINE
8
annotation
62
1
39
211
10
23.394465
20
54.422744
11
23.238130
21
54.465720
0
LINE
8
annotation
62
1
39
211
10
23.238130
20
54.465720
11
23.071986
21
54.480633
0
LINE
8
annotation
62
1
39
211
10
23.071986
20
54.480633
11
22.609445
21
54.480633
0
LINE
8
annotation
62
1
39
211
10
22.609445
20
54.480633
11
23.071986
21
54.480633
0
LINE
8
annotation
62
1
39
211
10
23.071986
20
54.480633
11
23.071986
21
54.480633
0
LINE
8
annotation
62
1
39
211
10
23.071986
20
54.480633
11
23.238130
21
54.495549
0
LINE
8
annotation
62
1
39
211
10
23.238130
20
54.495549
11
23.394465
21
54.538551
0
LINE
8
annotation
62
1
39
211
10
23.394465
20
54.538551
11
23.538392
21
54.607015
0
LINE
8
annotation
62
1
39
211
10
23.538392
20
54.607015
11
23.667310
21
54.698321
0
LINE
8
annotation
62
1
39
211
10
23.667310
20
54.698321
11
23.778620
21
54.809847
0
LINE
8
annotation
62
1
39
211
10
23.778620
20
54.809847
11
23.869720
21
54.938971
0
LINE
8
annotation
62
1
39
211
10
23.869720
20
54.938971
11
23.938011
21
55.083072
0
LINE
8
annotation
62
1
39
211
10
23.938011
20
55.083072
11
23.980892
21
55.239527
0
LINE
8
annotation
62
1
39
211
10
23.980892
20
55.239527
11
23.995764
21
55.405715
0
LINE
8
annotation
62
1
39
211
10
23.995764
20
55.405715
11
23.995764
21
55.405715
0
LINE
8
annotation
62
1
39
211
10
23.995764
20
55.405715
11
23.980892
21
55.571127
0
LINE
8
annotation
62
1
39
211
10
23.980892
20
55.571127
11
23.938011
21
55.726977
0
LINE
8
annotation
62
1
39
211
10
23.938011
20
55.726977
11
23.869720
21
55.870623
0
LINE
8
annotation
62
1
39
211
10
23.869720
20
55.870623
11
23.778620
21
55.999422
0
LINE
8
annotation
62
1
39
211
10
23.778620
20
55.999422
11
23.667310
21
56.110729
0
LINE
8
annotation
62
1
39
211
10
23.667310
20
56.110729
11
23.538392
21
56.201903
0
LINE
8
annotation
62
1
39
211
10
23.538392
20
56.201903
11
23.394465
21
56.270300
0
LINE
8
annotation
62
1
39
211
10
23.394465
20
56.270300
11
23.238130
21
56.313276
0
LINE
8
annotation
62
1
39
211
10
23.238130
20
56.313276
11
23.071986
21
56.328189
0
LINE
8
annotation
62
1
39
211
10
23.071986
20
56.328189
11
22.148208
21
56.328189
0
LINE
8
annotation
62
1
39
211
10
24.226911
20
78.760920
11
21.917075
21
78.760920
0
LINE
8
annotation
62
1
39
211
10
21.917075
20
78.760920
11
22.839549
21
81.996098
0
LINE
8
annotation
62
1
39
211
10
23.534534
20
77.836098
11
23.534534
21
79.683654
0
LINE
8
annotation
62
1
39
211
10
29.101939
20
103.499182
11
30.025717
21
103.499182
0
LINE
8
annotation
62
1
39
211
10
30.025717
20
103.499182
11
30.025717
21
103.499182
0
LINE
8
annotation
62
1
39
211
10
30.025717
20
103.499182
11
30.191517
21
103.514089
0
LINE
8
annotation
62
1
39
211
10
30.191517
20
103.514089
11
30.347670
21
103.557067
0
LINE
8
annotation
62
1
39
211
10
30.347670
20
103.557067
11
30.491543
21
103.625496
0
LINE
8
annotation
62
1
39
211
10
30.491543
20
103.625496
11
30.620504
21
103.716761
0
LINE
8
annotation
62
1
39
211
10
30.620504
20
103.716761
11
30.731921
21
103.828244
0
LINE
8
annotation
62
1
39
211
10
30.731921
20
103.828244
11
30.823161
21
103.957327
0
LINE
8
annotation
62
1
39
211
10
30.823161
20
103.957327
11
30.891591
21
104.101392
0
LINE
8
annotation
62
1
39
211
10
30.891591
20
104.101392
11
30.934580
21
104.257824
0
LINE
8
annotation
62
1
39
211
10
30.934580
20
104.257824
11
30.949494
21
104.424003
0
LINE
8
annotation
62
1
39
211
10
30.949494
20
104.424003
11
30.949494
21
104.884196
0
LINE
8
annotation
62
1
39
211
10
30.949494
20
104.884196
11
30.949494
21
104.884196
0
LINE
8
annotation
62
1
39
211
10
30.949494
20
104.884196
11
30.934588
21
105.050295
0
LINE
8
annotation
62
1
39
211
10
30.934588
20
105.050295
11
30.891621
21
105.206511
0
LINE
8
annotation
62
1
39
211
10
30.891621
20
105.206511
11
30.823219
21
105.350264
0
LINE
8
annotation
62
1
39
211
10
30.823219
20
105.350264
11
30.732007
21
105.478977
0
LINE
8
annotation
62
1
39
211
10
30.732007
20
105.478977
11
30.620611
21
105.590069
0
LINE
8
annotation
62
1
39
211
10
30.620611
20
105.590069
11
30.491659
21
105.680964
0
LINE
8
annotation
62
1
39
211
10
30.491659
20
105.680964
11
30.347775
21
105.749081
0
LINE
8
annotation
62
1
39
211
10
30.347775
20
105.749081
11
30.191585
21
105.791843
0
LINE
8
annotation
62
1
39
211
10
30.191585
20
105.791843
11
30.025717
21
105.806670
0
LINE
8
annotation
62
1
39
211
10
30.025717
20
105.806670
11
29.101939
21
105.806670
0
LINE
8
annotation
62
1
39
211
10
29.101939
20
105.806670
11
29.101939
21
107.659182
0
LINE
8
annotation
62
1
39
211
10
29.101939
20
107.659182
11
30.949494
21
107.659182
0
LINE
8
annotation
62
1
39
211
10
30.945839
20
133.322265
11
30.945839
21
133.322265
0
LINE
8
annotation
62
1
39
211
10
30.945839
20
133.322265
11
30.681200
21
133.223042
0
LINE
8
annotation
62
1
39
211
10
30.681200
20
133.223042
11
30.438359
21
133.089350
0
LINE
8
annotation
62
1
39
211
10
30.438359
20
133.089350
11
30.219808
21
132.924539
0
LINE
8
annotation
62
1
39
211
10
30.219808
20
132.924539
11
30.028042
21
132.731958
0
LINE
8
annotation
62
1
39
211
10
30.028042
20
132.731958
11
29.865552
21
132.514958
0
LINE
8
annotation
62
1
39
211
10
29.865552
20
132.514958
11
29.734832
21
132.276888
0
LINE
8
annotation
62
1
39
211
10
29.734832
20
132.276888
11
29.638373
21
132.021098
0
LINE
8
annotation
62
1
39
211
10
29.638373
20
132.021098
11
29.578670
21
131.750936
0
LINE
8
annotation
62
1
39
211
10
29.578670
20
131.750936
11
29.558215
21
131.469753
0
LINE
8
annotation
62
1
39
211
10
29.558215
20
131.469753
11
29.558215
21
130.087087
0
LINE
8
annotation
62
1
39
211
10
29.558215
20
130.087087
11
29.558215
21
130.087087
0
LINE
8
annotation
62
1
39
211
10
29.558215
20
130.087087
11
29.573130
21
129.920907
0
LINE
8
annotation
62
1
39
211
10
29.573130
20
129.920907
11
29.616119
21
129.764476
0
LINE
8
annotation
62
1
39
211
10
29.616119
20
129.764476
11
29.684549
21
129.620410
0
LINE
8
annotation
62
1
39
211
10
29.684549
20
129.620410
11
29.775789
21
129.491327
0
LINE
8
annotation
62
1
39
211
10
29.775789
20
129.491327
11
29.887206
21
129.379845
0
LINE
8
annotation
62
1
39
211
10
29.887206
20
129.379845
11
30.016167
21
129.288580
0
LINE
8
annotation
62
1
39
211
10
30.016167
20
129.288580
11
30.160040
21
129.220150
0
LINE
8
annotation
62
1
39
211
10
30.160040
20
129.220150
11
30.316193
21
129.177173
0
LINE
8
annotation
62
1
39
211
10
30.316193
20
129.177173
11
30.481993
21
129.162265
0
LINE
8
annotation
62
1
39
211
10
30.481993
20
129.162265
11
30.481993
21
129.162265
0
LINE
8
annotation
62
1
39
211
10
30.481993
20
129.162265
11
30.648137
21
129.177173
0
LINE
8
annotation
62
1
39
211
10
30.648137
20
129.177173
11
30.804472
21
129.220150
0
LINE
8
annotation
62
1
39
211
10
30.804472
20
129.220150
11
30.948399
21
129.288580
0
LINE
8
annotation
62
1
39
211
10
30.948399
20
129.288580
11
31.077317
21
129.379845
0
LINE
8
annotation
62
1
39
211
10
31.077317
20
129.379845
11
31.188627
21
129.491327
0
LINE
8
annotation
62
1
39
211
10
31.188627
20
129.491327
11
31.279727
21
129.620410
0
LINE
8
annotation
62
1
39
211
10
31.279727
20
129.620410
11
31.348018
21
129.764476
0
LINE
8
annotation
62
1
39
211
10
31.348018
20
129.764476
11
31.390899
21
129.920907
0
LINE
8
annotation
62
1
39
211
10
31.390899
20
129.920907
11
31.405771
21
130.087087
0
LINE
8
annotation
62
1
39
211
10
31.405771
20
130.087087
11
31.405771
21
130.547280
0
LINE
8
annotation
62
1
39
211
10
31.405771
20
130.547280
11
31.405771
21
130.547280
0
LINE
8
annotation
62
1
39
211
10
31.405771
20
130.547280
11
31.390899
21
130.713379
0
LINE
8
annotation
62
1
39
211
10
31.390899
20
130.713379
11
31.348018
21
130.869594
0
LINE
8
annotation
62
1
39
211
10
31.348018
20
130.869594
11
31.279727
21
131.013348
0
LINE
8
annotation
62
1
39
211
10
31.279727
20
131.013348
11
31.188627
21
131.142060
0
LINE
8
annotation
62
1
39
211
10
31.188627
20
131.142060
11
31.077317
21
131.253153
0
LINE
8
annotation
62
1
39
211
10
31.077317
20
131.253153
11
30.948399
21
131.344047
0
LINE
8
annotation
62
1
39
211
10
30.948399
20
131.344047
11
30.804472
21
131.412165
0
LINE
8
annotation
62
1
39
211
10
30.804472
20
131.412165
11
30.648137
21
131.454926
0
LINE
8
annotation
62
1
39
211
10
30.648137
20
131.454926
11
30.481993
21
131.469753
0
LINE
8
annotation
62
1
39
211
10
30.481993
20
131.469753
11
29.558215
21
131.469753
0
LINE
8
annotation
62
1
39
211
10
29.442515
20
128.642265
11
31.522515
21
128.642265
0
LINE
8
annotation
62
1
39
211
10
27.786867
20
154.825349
11
28.711688
21
158.985349
0
LINE
8
annotation
62
1
39
211
10
28.711688
20
158.985349
11
26.861785
21
158.985349
0
LINE
8
annotation
62
1
39
211
10
28.711688
20
157.132837
11
27.786867
21
157.132837
0
LINE
8
annotation
62
1
39
211
10
34.424370
20
181.410775
11
34.424370
21
181.410775
0
LINE
8
annotation
62
1
39
211
10
34.424370
20
181.410775
11
34.439284
21
181.244676
0
LINE
8
annotation
62
1
39
211
10
34.439284
20
181.244676
11
34.482273
21
181.088461
0
LINE
8
annotation
62
1
39
211
10
34.482273
20
181.088461
11
34.550703
21
180.944707
0
LINE
8
annotation
62
1
39
211
10
34.550703
20
180.944707
11
34.641943
21
180.815995
0
LINE
8
annotation
62
1
39
211
10
34.641943
20
180.815995
11
34.753360
21
180.704902
0
LINE
8
annotation
62
1
39
211
10
34.753360
20
180.704902
11
34.882321
21
180.614008
0
LINE
8
annotation
62
1
39
211
10
34.882321
20
180.614008
11
35.026194
21
180.545890
0
LINE
8
annotation
62
1
39
211
10
35.026194
20
180.545890
11
35.182347
21
180.503129
0
LINE
8
annotation
62
1
39
211
10
35.182347
20
180.503129
11
35.348147
21
180.488302
0
LINE
8
annotation
62
1
39
211
10
35.348147
20
180.488302
11
35.348147
21
180.488302
0
LINE
8
annotation
62
1
39
211
10
35.348147
20
180.488302
11
35.513947
21
180.503129
0
LINE
8
annotation
62
1
39
211
10
35.513947
20
180.503129
11
35.670100
21
180.545890
0
LINE
8
annotation
62
1
39
211
10
35.670100
20
180.545890
11
35.813974
21
180.614008
0
LINE
8
annotation
62
1
39
211
10
35.813974
20
180.614008
11
35.942935
21
180.704902
0
LINE
8
annotation
62
1
39
211
10
35.942935
20
180.704902
11
36.054351
21
180.815995
0
LINE
8
annotation
62
1
39
211
10
36.054351
20
180.815995
11
36.145591
21
180.944707
0
LINE
8
annotation
62
1
39
211
10
36.145591
20
180.944707
11
36.214022
21
181.088461
0
LINE
8
annotation
62
1
39
211
10
36.214022
20
181.088461
11
36.257011
21
181.244676
0
LINE
8
annotation
62
1
39
211
10
36.257011
20
181.244676
11
36.271925
21
181.410775
0
LINE
8
annotation
62
1
39
211
10
36.271925
20
181.410775
11
36.271925
21
181.870968
0
LINE
8
annotation
62
1
39
211
10
36.271925
20
181.870968
11
36.271925
21
181.870968
0
LINE
8
annotation
62
1
39
211
10
36.271925
20
181.870968
11
36.257019
21
182.037148
0
LINE
8
annotation
62
1
39
211
10
36.257019
20
182.037148
11
36.214052
21
182.193579
0
LINE
8
annotation
62
1
39
211
10
36.214052
20
182.193579
11
36.145649
21
182.337645
0
LINE
8
annotation
62
1
39
211
10
36.145649
20
182.337645
11
36.054437
21
182.466728
0
LINE
8
annotation
62
1
39
211
10
36.054437
20
182.466728
11
35.943042
21
182.578210
0
LINE
8
annotation
62
1
39
211
10
35.943042
20
182.578210
11
35.814090
21
182.669475
0
LINE
8
annotation
62
1
39
211
10
35.814090
20
182.669475
11
35.670206
21
182.737905
0
LINE
8
annotation
62
1
39
211
10
35.670206
20
182.737905
11
35.514016
21
182.780882
0
LINE
8
annotation
62
1
39
211
10
35.514016
20
182.780882
11
35.348147
21
182.795790
0
LINE
8
annotation
62
1
39
211
10
35.348147
20
182.795790
11
35.348147
21
182.795790
0
LINE
8
annotation
62
1
39
211
10
35.348147
20
182.795790
11
35.182279
21
182.780874
0
LINE
8
annotation
62
1
39
211
10
35.182279
20
182.780874
11
35.026089
21
182.737875
0
LINE
8
annotation
62
1
39
211
10
35.026089
20
182.737875
11
34.882205
21
182.669417
0
LINE
8
annotation
62
1
39
211
10
34.882205
20
182.669417
11
34.753253
21
182.578124
0
LINE
8
annotation
62
1
39
211
10
34.753253
20
182.578124
11
34.641857
21
182.466620
0
LINE
8
annotation
62
1
39
211
10
34.641857
20
182.466620
11
34.550645
21
182.337529
0
LINE
8
annotation
62
1
39
211
10
34.550645
20
182.337529
11
34.482243
21
182.193474
0
LINE
8
annotation
62
1
39
211
10
34.482243
20
182.193474
11
34.439276
21
182.037079
0
LINE
8
annotation
62
1
39
211
10
34.439276
20
182.037079
11
34.424370
21
181.870968
0
LINE
8
annotation
62
1
39
211
10
34.424370
20
181.870968
11
34.424370
21
181.410775
0
LINE
8
annotation
62
1
39
211
10
36.271925
20
183.720872
11
36.271925
21
183.720872
0
LINE
8
annotation
62
1
39
211
10
36.271925
20
183.720872
11
36.257019
21
183.886284
0
LINE
8
annotation
62
1
39
211
10
36.257019
20
183.886284
11
36.214052
21
184.042134
0
LINE
8
annotation
62
1
39
211
10
36.214052
20
184.042134
11
36.145649
21
184.185780
0
LINE
8
annotation
62
1
39
211
10
36.145649
20
184.185780
11
36.054437
21
184.314579
0
LINE
8
annotation
62
1
39
211
10
36.054437
20
184.314579
11
35.943042
21
184.425886
0
LINE
8
annotation
62
1
39
211
10
35.943042
20
184.425886
11
35.814090
21
184.517060
0
LINE
8
annotation
62
1
39
211
10
35.814090
20
184.517060
11
35.670206
21
184.585456
0
LINE
8
annotation
62
1
39
211
10
35.670206
20
184.585456
11
35.514016
21
184.628432
0
LINE
8
annotation
62
1
39
211
10
35.514016
20
184.628432
11
35.348147
21
184.643345
0
LINE
8
annotation
62
1
39
211
10
35.348147
20
184.643345
11
35.348147
21
184.643345
0
LINE
8
annotation
62
1
39
211
10
35.348147
20
184.643345
11
35.182279
21
184.628432
0
LINE
8
annotation
62
1
39
211
10
35.182279
20
184.628432
11
35.026089
21
184.585456
0
LINE
8
annotation
62
1
39
211
10
35.026089
20
184.585456
11
34.882205
21
184.517060
0
LINE
8
annotation
62
1
39
211
10
34.882205
20
184.517060
11
34.753253
21
184.425886
0
LINE
8
annotation
62
1
39
211
10
34.753253
20
184.425886
11
34.641857
21
184.314579
0
LINE
8
annotation
62
1
39
211
10
34.641857
20
184.314579
11
34.550645
21
184.185780
0
LINE
8
annotation
62
1
39
211
10
34.550645
20
184.185780
11
34.482243
21
184.042134
0
LINE
8
annotation
62
1
39
211
10
34.482243
20
184.042134
11
34.439276
21
183.886284
0
LINE
8
annotation
62
1
39
211
10
34.439276
20
183.886284
11
34.424370
21
183.720872
0
LINE
8
annotation
62
1
39
211
10
34.424370
20
183.720872
11
34.424370
21
183.720872
0
LINE
8
annotation
62
1
39
211
10
34.424370
20
183.720872
11
34.439284
21
183.554683
0
LINE
8
annotation
62
1
39
211
10
34.439284
20
183.554683
11
34.482273
21
183.398228
0
LINE
8
annotation
62
1
39
211
10
34.482273
20
183.398228
11
34.550703
21
183.254128
0
LINE
8
annotation
62
1
39
211
10
34.550703
20
183.254128
11
34.641943
21
183.125004
0
LINE
8
annotation
62
1
39
211
10
34.641943
20
183.125004
11
34.753360
21
183.013478
0
LINE
8
annotation
62
1
39
211
10
34.753360
20
183.013478
11
34.882321
21
182.922172
0
LINE
8
annotation
62
1
39
211
10
34.882321
20
182.922172
11
35.026194
21
182.853707
0
LINE
8
annotation
62
1
39
211
10
35.026194
20
182.853707
11
35.182347
21
182.810706
0
LINE
8
annotation
62
1
39
211
10
35.182347
20
182.810706
11
35.348147
21
182.795790
0
LINE
8
annotation
62
1
39
211
10
35.348147
20
182.795790
11
35.348147
21
182.795790
0
LINE
8
annotation
62
1
39
211
10
35.348147
20
182.795790
11
35.513947
21
182.810706
0
LINE
8
annotation
62
1
39
211
10
35.513947
20
182.810706
11
35.670100
21
182.853707
0
LINE
8
annotation
62
1
39
211
10
35.670100
20
182.853707
11
35.813974
21
182.922172
0
LINE
8
annotation
62
1
39
211
10
35.813974
20
182.922172
11
35.942935
21
183.013478
0
LINE
8
annotation
62
1
39
211
10
35.942935
20
183.013478
11
36.054351
21
183.125004
0
LINE
8
annotation
62
1
39
211
10
36.054351
20
183.125004
11
36.145591
21
183.254128
0
LINE
8
annotation
62
1
39
211
10
36.145591
20
183.254128
11
36.214022
21
183.398228
0
LINE
8
annotation
62
1
39
211
10
36.214022
20
183.398228
11
36.257011
21
183.554683
0
LINE
8
annotation
62
1
39
211
10
36.257011
20
183.554683
11
36.271925
21
183.720872
0
LINE
8
annotation
62
1
39
211
10
37.839879
20
206.151516
11
37.839879
21
206.151516
0
LINE
8
annotation
62
1
39
211
10
37.839879
20
206.151516
11
38.104052
21
206.249960
0
LINE
8
annotation
62
1
39
211
10
38.104052
20
206.249960
11
38.346530
21
206.383025
0
LINE
8
annotation
62
1
39
211
10
38.346530
20
206.383025
11
38.564808
21
206.547320
0
LINE
8
annotation
62
1
39
211
10
38.564808
20
206.547320
11
38.756379
21
206.739455
0
LINE
8
annotation
62
1
39
211
10
38.756379
20
206.739455
11
38.918738
21
206.956040
0
LINE
8
annotation
62
1
39
211
10
38.918738
20
206.956040
11
39.049379
21
207.193685
0
LINE
8
annotation
62
1
39
211
10
39.049379
20
207.193685
11
39.145796
21
207.448999
0
LINE
8
annotation
62
1
39
211
10
39.145796
20
207.448999
11
39.205484
21
207.718591
0
LINE
8
annotation
62
1
39
211
10
39.205484
20
207.718591
11
39.225937
21
207.999071
0
LINE
8
annotation
62
1
39
211
10
39.225937
20
207.999071
11
39.225937
21
209.386434
0
LINE
8
annotation
62
1
39
211
10
39.225937
20
209.386434
11
39.225937
21
209.386434
0
LINE
8
annotation
62
1
39
211
10
39.225937
20
209.386434
11
39.211065
21
209.552622
0
LINE
8
annotation
62
1
39
211
10
39.211065
20
209.552622
11
39.168184
21
209.709077
0
LINE
8
annotation
62
1
39
211
10
39.168184
20
209.709077
11
39.099893
21
209.853178
0
LINE
8
annotation
62
1
39
211
10
39.099893
20
209.853178
11
39.008793
21
209.982302
0
LINE
8
annotation
62
1
39
211
10
39.008793
20
209.982302
11
38.897483
21
210.093828
0
LINE
8
annotation
62
1
39
211
10
38.897483
20
210.093828
11
38.768565
21
210.185134
0
LINE
8
annotation
62
1
39
211
10
38.768565
20
210.185134
11
38.624638
21
210.253598
0
LINE
8
annotation
62
1
39
211
10
38.624638
20
210.253598
11
38.468303
21
210.296599
0
LINE
8
annotation
62
1
39
211
10
38.468303
20
210.296599
11
38.302159
21
210.311516
0
LINE
8
annotation
62
1
39
211
10
38.302159
20
210.311516
11
38.302159
21
210.311516
0
LINE
8
annotation
62
1
39
211
10
38.302159
20
210.311516
11
38.136359
21
210.296599
0
LINE
8
annotation
62
1
39
211
10
38.136359
20
210.296599
11
37.980206
21
210.253598
0
LINE
8
annotation
62
1
39
211
10
37.980206
20
210.253598
11
37.836333
21
210.185134
0
LINE
8
annotation
62
1
39
211
10
37.836333
20
210.185134
11
37.707372
21
210.093828
0
LINE
8
annotation
62
1
39
211
10
37.707372
20
210.093828
11
37.595955
21
209.982302
0
LINE
8
annotation
62
1
39
211
10
37.595955
20
209.982302
11
37.504715
21
209.853178
0
LINE
8
annotation
62
1
39
211
10
37.504715
20
209.853178
11
37.436285
21
209.709077
0
LINE
8
annotation
62
1
39
211
10
37.436285
20
209.709077
11
37.393296
21
209.552622
0
LINE
8
annotation
62
1
39
211
10
37.393296
20
209.552622
11
37.378381
21
209.386434
0
LINE
8
annotation
62
1
39
211
10
37.378381
20
209.386434
11
37.378381
21
208.923893
0
LINE
8
annotation
62
1
39
211
10
37.378381
20
208.923893
11
37.378381
21
208.923893
0
LINE
8
annotation
62
1
39
211
10
37.378381
20
208.923893
11
37.393296
21
208.757713
0
LINE
8
annotation
62
1
39
211
10
37.393296
20
208.757713
11
37.436285
21
208.601282
0
LINE
8
annotation
62
1
39
211
10
37.436285
20
208.601282
11
37.504715
21
208.457216
0
LINE
8
annotation
62
1
39
211
10
37.504715
20
208.457216
11
37.595955
21
208.328133
0
LINE
8
annotation
62
1
39
211
10
37.595955
20
208.328133
11
37.707372
21
208.216651
0
LINE
8
annotation
62
1
39
211
10
37.707372
20
208.216651
11
37.836333
21
208.125386
0
LINE
8
annotation
62
1
39
211
10
37.836333
20
208.125386
11
37.980206
21
208.056956
0
LINE
8
annotation
62
1
39
211
10
37.980206
20
208.056956
11
38.136359
21
208.013979
0
LINE
8
annotation
62
1
39
211
10
38.136359
20
208.013979
11
38.302159
21
207.999071
0
LINE
8
annotation
62
1
39
211
10
38.302159
20
207.999071
11
39.225937
21
207.999071
0
LINE
8
annotation
62
1
39
211
10
37.262942
20
205.631516
11
39.342942
21
205.631516
0
LINE
8
annotation
62
1
39
211
10
36.116172
20
199.808220
11
33.648852
21
196.239469
0
LINE
8
annotation
62
1
39
211
10
33.648852
20
196.239469
11
31.181068
21
199.808220
0
LINE
8
annotation
62
1
39
211
10
33.648852
20
196.526658
11
33.648852
21
192.409509
0
LINE
8
annotation
62
1
39
211
10
42.936677
20
196.108865
11
38.891442
21
196.108865
0
LINE
8
annotation
62
1
39
211
10
45.710324
20
192.409973
11
47.353193
21
192.409973
0
LINE
8
annotation
62
1
39
211
10
47.353193
20
192.409973
11
47.353193
21
192.409973
0
LINE
8
annotation
62
1
39
211
10
47.353193
20
192.409973
11
47.648667
21
192.436479
0
LINE
8
annotation
62
1
39
211
10
47.648667
20
192.436479
11
47.926698
21
192.512871
0
LINE
8
annotation
62
1
39
211
10
47.926698
20
192.512871
11
48.182661
21
192.634459
0
LINE
8
annotation
62
1
39
211
10
48.182661
20
192.634459
11
48.411932
21
192.796555
0
LINE
8
annotation
62
1
39
211
10
48.411932
20
192.796555
11
48.609888
21
192.994469
0
LINE
8
annotation
62
1
39
211
10
48.609888
20
192.994469
11
48.771903
21
193.223512
0
LINE
8
annotation
62
1
39
211
10
48.771903
20
193.223512
11
48.893353
21
193.478995
0
LINE
8
annotation
62
1
39
211
10
48.893353
20
193.478995
11
48.969614
21
193.756228
0
LINE
8
annotation
62
1
39
211
10
48.969614
20
193.756228
11
48.996062
21
194.050523
0
LINE
8
annotation
62
1
39
211
10
48.996062
20
194.050523
11
48.996062
21
194.873117
0
LINE
8
annotation
62
1
39
211
10
48.996062
20
194.873117
11
48.996062
21
194.873117
0
LINE
8
annotation
62
1
39
211
10
48.996062
20
194.873117
11
48.969614
21
195.167290
0
LINE
8
annotation
62
1
39
211
10
48.969614
20
195.167290
11
48.893353
21
195.444458
0
LINE
8
annotation
62
1
39
211
10
48.893353
20
195.444458
11
48.771903
21
195.699922
0
LINE
8
annotation
62
1
39
211
10
48.771903
20
195.699922
11
48.609888
21
195.928980
0
LINE
8
annotation
62
1
39
211
10
48.609888
20
195.928980
11
48.411932
21
196.126932
0
LINE
8
annotation
62
1
39
211
10
48.411932
20
196.126932
11
48.182661
21
196.289078
0
LINE
8
annotation
62
1
39
211
10
48.182661
20
196.289078
11
47.926698
21
196.410716
0
LINE
8
annotation
62
1
39
211
10
47.926698
20
196.410716
11
47.648667
21
196.487145
0
LINE
8
annotation
62
1
39
211
10
47.648667
20
196.487145
11
47.353193
21
196.513667
0
LINE
8
annotation
62
1
39
211
10
47.353193
20
196.513667
11
46.530598
21
196.513667
0
LINE
8
annotation
62
1
39
211
10
46.530598
20
196.513667
11
47.353193
21
196.513667
0
LINE
8
annotation
62
1
39
211
10
47.353193
20
196.513667
11
47.353193
21
196.513667
0
LINE
8
annotation
62
1
39
211
10
47.353193
20
196.513667
11
47.648667
21
196.540194
0
LINE
8
annotation
62
1
39
211
10
47.648667
20
196.540194
11
47.926698
21
196.616669
0
LINE
8
annotation
62
1
39
211
10
47.926698
20
196.616669
11
48.182661
21
196.738428
0
LINE
8
annotation
62
1
39
211
10
48.182661
20
196.738428
11
48.411932
21
196.900809
0
LINE
8
annotation
62
1
39
211
10
48.411932
20
196.900809
11
48.609888
21
197.099149
0
LINE
8
annotation
62
1
39
211
10
48.609888
20
197.099149
11
48.771903
21
197.328786
0
LINE
8
annotation
62
1
39
211
10
48.771903
20
197.328786
11
48.893353
21
197.585058
0
LINE
8
annotation
62
1
39
211
10
48.893353
20
197.585058
11
48.969614
21
197.863302
0
LINE
8
annotation
62
1
39
211
10
48.969614
20
197.863302
11
48.996062
21
198.158856
0
LINE
8
annotation
62
1
39
211
10
48.996062
20
198.158856
11
48.996062
21
198.158856
0
LINE
8
annotation
62
1
39
211
10
48.996062
20
198.158856
11
48.969614
21
198.453028
0
LINE
8
annotation
62
1
39
211
10
48.969614
20
198.453028
11
48.893353
21
198.730197
0
LINE
8
annotation
62
1
39
211
10
48.893353
20
198.730197
11
48.771903
21
198.985660
0
LINE
8
annotation
62
1
39
211
10
48.771903
20
198.985660
11
48.609888
21
199.214718
0
LINE
8
annotation
62
1
39
211
10
48.609888
20
199.214718
11
48.411932
21
199.412671
0
LINE
8
annotation
62
1
39
211
10
48.411932
20
199.412671
11
48.182661
21
199.574816
0
LINE
8
annotation
62
1
39
211
10
48.182661
20
199.574816
11
47.926698
21
199.696454
0
LINE
8
annotation
62
1
39
211
10
47.926698
20
199.696454
11
47.648667
21
199.772884
0
LINE
8
annotation
62
1
39
211
10
47.648667
20
199.772884
11
47.353193
21
199.799405
0
LINE
8
annotation
62
1
39
211
10
47.353193
20
199.799405
11
45.710324
21
199.799405
0
LINE
8
boundary
62
5
39
2
10
31.453106
20
282.754684
11
6.667510
21
282.754676
0
LINE
8
boundary
62
5
39
2
10
6.667510
20
282.754676
11
6.667510
21
281.061968
0
LINE
8
boundary
62
5
39
2
10
6.667510
20
281.061968
11
33.302470
21
281.061968
0
LINE
8
boundary
62
5
39
2
10
33.302470
20
281.061968
11
33.302470
21
278.715968
0
LINE
8
boundary
62
5
39
2
10
33.302470
20
278.715968
11
6.667510
21
278.715968
0
LINE
8
boundary
62
5
39
2
10
6.667510
20
278.715968
11
6.667507
21
255.398885
0
LINE
8
boundary
62
5
39
2
10
6.667507
20
255.398885
11
31.268153
21
255.398885
0
LINE
8
boundary
62
5
39
2
10
31.268153
20
255.398885
11
31.268153
21
253.052885
0
LINE
8
boundary
62
5
39
2
10
31.268153
20
253.052885
11
6.667506
21
253.052885
0
LINE
8
boundary
62
5
39
2
10
6.667506
20
253.052885
11
6.667504
21
233.063437
0
LINE
8
boundary
62
5
39
2
10
6.667504
20
233.063437
11
6.667503
21
229.735801
0
LINE
8
boundary
62
5
39
2
10
6.667503
20
229.735801
11
30.119095
21
229.735801
0
LINE
8
boundary
62
5
39
2
10
30.119095
20
229.735801
11
30.119095
21
227.389801
0
LINE
8
boundary
62
5
39
2
10
30.119095
20
227.389801
11
6.667502
21
227.389801
0
LINE
8
boundary
62
5
39
2
10
6.667502
20
227.389801
11
6.667500
21
215.328839
0
LINE
8
boundary
62
5
39
2
10
6.667500
20
215.328839
11
51.821640
21
215.328814
0
LINE
8
boundary
62
5
39
2
10
51.821640
20
215.328814
11
60.667499
21
215.328817
0
LINE
8
boundary
62
5
39
2
10
60.667499
20
215.328817
11
54.214595
21
224.570410
0
LINE
8
boundary
62
5
39
2
10
54.214595
20
224.570410
11
53.417732
21
230.332449
0
LINE
8
boundary
62
5
39
2
10
53.417732
20
230.332449
11
55.582537
21
233.063383
0
LINE
8
boundary
62
5
39
2
10
55.582537
20
233.063383
11
55.303080
21
236.094478
0
LINE
8
boundary
62
5
39
2
10
55.303080
20
236.094478
11
54.451026
21
245.336078
0
LINE
8
boundary
62
5
39
2
10
54.451026
20
245.336078
11
60.667507
21
282.754594
0
LINE
8
boundary
62
5
39
2
10
60.667507
20
282.754594
11
31.453106
21
282.754684
0
LINE
8
annotation
62
1
39
211
10
36.600491
20
227.407623
11
34.290655
21
227.407623
0
LINE
8
annotation
62
1
39
211
10
34.290655
20
227.407623
11
35.213128
21
230.642801
0
LINE
8
annotation
62
1
39
211
10
35.908114
20
226.482801
11
35.908114
21
228.330357
0
LINE
8
annotation
62
1
39
211
10
35.670853
20
252.145885
11
36.594631
21
252.145885
0
LINE
8
annotation
62
1
39
211
10
36.594631
20
252.145885
11
36.594631
21
252.145885
0
LINE
8
annotation
62
1
39
211
10
36.594631
20
252.145885
11
36.760431
21
252.160792
0
LINE
8
annotation
62
1
39
211
10
36.760431
20
252.160792
11
36.916584
21
252.203770
0
LINE
8
annotation
62
1
39
211
10
36.916584
20
252.203770
11
37.060457
21
252.272199
0
LINE
8
annotation
62
1
39
211
10
37.060457
20
252.272199
11
37.189418
21
252.363464
0
LINE
8
annotation
62
1
39
211
10
37.189418
20
252.363464
11
37.300835
21
252.474947
0
LINE
8
annotation
62
1
39
211
10
37.300835
20
252.474947
11
37.392075
21
252.604030
0
LINE
8
annotation
62
1
39
211
10
37.392075
20
252.604030
11
37.460505
21
252.748095
0
LINE
8
annotation
62
1
39
211
10
37.460505
20
252.748095
11
37.503494
21
252.904527
0
LINE
8
annotation
62
1
39
211
10
37.503494
20
252.904527
11
37.518409
21
253.070706
0
LINE
8
annotation
62
1
39
211
10
37.518409
20
253.070706
11
37.518409
21
253.530899
0
LINE
8
annotation
62
1
39
211
10
37.518409
20
253.530899
11
37.518409
21
253.530899
0
LINE
8
annotation
62
1
39
211
10
37.518409
20
253.530899
11
37.503503
21
253.696998
0
LINE
8
annotation
62
1
39
211
10
37.503503
20
253.696998
11
37.460535
21
253.853214
0
LINE
8
annotation
62
1
39
211
10
37.460535
20
253.853214
11
37.392133
21
253.996967
0
LINE
8
annotation
62
1
39
211
10
37.392133
20
253.996967
11
37.300921
21
254.125680
0
LINE
8
annotation
62
1
39
211
10
37.300921
20
254.125680
11
37.189526
21
254.236772
0
LINE
8
annotation
62
1
39
211
10
37.189526
20
254.236772
11
37.060573
21
254.327667
0
LINE
8
annotation
62
1
39
211
10
37.060573
20
254.327667
11
36.916689
21
254.395784
0
LINE
8
annotation
62
1
39
211
10
36.916689
20
254.395784
11
36.760500
21
254.438546
0
LINE
8
annotation
62
1
39
211
10
36.760500
20
254.438546
11
36.594631
21
254.453373
0
LINE
8
annotation
62
1
39
211
10
36.594631
20
254.453373
11
35.670853
21
254.453373
0
LINE
8
annotation
62
1
39
211
10
35.670853
20
254.453373
11
35.670853
21
256.305885
0
LINE
8
annotation
62
1
39
211
10
35.670853
20
256.305885
11
37.518409
21
256.305885
0
LINE
8
annotation
62
1
39
211
10
39.092794
20
281.968968
11
39.092794
21
281.968968
0
LINE
8
annotation
62
1
39
211
10
39.092794
20
281.968968
11
38.828155
21
281.869745
0
LINE
8
annotation
62
1
39
211
10
38.828155
20
281.869745
11
38.585314
21
281.736053
0
LINE
8
annotation
62
1
39
211
10
38.585314
20
281.736053
11
38.366763
21
281.571242
0
LINE
8
annotation
62
1
39
211
10
38.366763
20
281.571242
11
38.174997
21
281.378661
0
LINE
8
annotation
62
1
39
211
10
38.174997
20
281.378661
11
38.012507
21
281.161661
0
LINE
8
annotation
62
1
39
211
10
38.012507
20
281.161661
11
37.881787
21
280.923591
0
LINE
8
annotation
62
1
39
211
10
37.881787
20
280.923591
11
37.785329
21
280.667801
0
LINE
8
annotation
62
1
39
211
10
37.785329
20
280.667801
11
37.725626
21
280.397639
0
LINE
8
annotation
62
1
39
211
10
37.725626
20
280.397639
11
37.705171
21
280.116456
0
LINE
8
annotation
62
1
39
211
10
37.705171
20
280.116456
11
37.705171
21
278.733790
0
LINE
8
annotation
62
1
39
211
10
37.705171
20
278.733790
11
37.705171
21
278.733790
0
LINE
8
annotation
62
1
39
211
10
37.705171
20
278.733790
11
37.720085
21
278.567610
0
LINE
8
annotation
62
1
39
211
10
37.720085
20
278.567610
11
37.763074
21
278.411179
0
LINE
8
annotation
62
1
39
211
10
37.763074
20
278.411179
11
37.831504
21
278.267113
0
LINE
8
annotation
62
1
39
211
10
37.831504
20
278.267113
11
37.922744
21
278.138030
0
LINE
8
annotation
62
1
39
211
10
37.922744
20
278.138030
11
38.034161
21
278.026548
0
LINE
8
annotation
62
1
39
211
10
38.034161
20
278.026548
11
38.163122
21
277.935283
0
LINE
8
annotation
62
1
39
211
10
38.163122
20
277.935283
11
38.306995
21
277.866853
0
LINE
8
annotation
62
1
39
211
10
38.306995
20
277.866853
11
38.463148
21
277.823876
0
LINE
8
annotation
62
1
39
211
10
38.463148
20
277.823876
11
38.628948
21
277.808968
0
LINE
8
annotation
62
1
39
211
10
38.628948
20
277.808968
11
38.628948
21
277.808968
0
LINE
8
annotation
62
1
39
211
10
38.628948
20
277.808968
11
38.795092
21
277.823876
0
LINE
8
annotation
62
1
39
211
10
38.795092
20
277.823876
11
38.951427
21
277.866853
0
LINE
8
annotation
62
1
39
211
10
38.951427
20
277.866853
11
39.095354
21
277.935283
0
LINE
8
annotation
62
1
39
211
10
39.095354
20
277.935283
11
39.224273
21
278.026548
0
LINE
8
annotation
62
1
39
211
10
39.224273
20
278.026548
11
39.335582
21
278.138030
0
LINE
8
annotation
62
1
39
211
10
39.335582
20
278.138030
11
39.426682
21
278.267113
0
LINE
8
annotation
62
1
39
211
10
39.426682
20
278.267113
11
39.494973
21
278.411179
0
LINE
8
annotation
62
1
39
211
10
39.494973
20
278.411179
11
39.537854
21
278.567610
0
LINE
8
annotation
62
1
39
211
10
39.537854
20
278.567610
11
39.552726
21
278.733790
0
LINE
8
annotation
62
1
39
211
10
39.552726
20
278.733790
11
39.552726
21
279.193983
0
LINE
8
annotation
62
1
39
211
10
39.552726
20
279.193983
11
39.552726
21
279.193983
0
LINE
8
annotation
62
1
39
211
10
39.552726
20
279.193983
11
39.537854
21
279.360082
0
LINE
8
annotation
62
1
39
211
10
39.537854
20
279.360082
11
39.494973
21
279.516297
0
LINE
8
annotation
62
1
39
211
10
39.494973
20
279.516297
11
39.426682
21
279.660051
0
LINE
8
annotation
62
1
39
211
10
39.426682
20
279.660051
11
39.335582
21
279.788763
0
LINE
8
annotation
62
1
39
211
10
39.335582
20
279.788763
11
39.224273
21
279.899856
0
LINE
8
annotation
62
1
39
211
10
39.224273
20
279.899856
11
39.095354
21
279.990750
0
LINE
8
annotation
62
1
39
211
10
39.095354
20
279.990750
11
38.951427
21
280.058868
0
LINE
8
annotation
62
1
39
211
10
38.951427
20
280.058868
11
38.795092
21
280.101629
0
LINE
8
annotation
62
1
39
211
10
38.795092
20
280.101629
11
38.628948
21
280.116456
0
LINE
8
annotation
62
1
39
211
10
38.628948
20
280.116456
11
37.705171
21
280.116456
0
LINE
8
annotation
62
1
39
211
10
37.589470
20
277.288968
11
39.669470
21
277.288968
0
LINE
8
annotation
62
1
39
211
10
25.333771
20
273.022852
11
21.285785
21
267.167810
0
LINE
8
annotation
62
1
39
211
10
21.285785
20
267.167810
11
17.237037
21
273.022852
0
LINE
8
annotation
62
1
39
211
10
21.285785
20
267.638984
11
21.285785
21
260.884221
0
LINE
8
annotation
62
1
39
211
10
36.523775
20
266.953537
11
29.886995
21
266.953537
0
LINE
8
annotation
62
1
39
211
10
43.773119
20
260.884601
11
43.773119
21
273.022472
0
LINE
8
annotation
62
1
39
211
10
43.773119
20
273.022472
11
41.074715
21
270.323307
0
LINE
8
boundary
62
5
39
2
10
63.842542
20
185.212974
11
63.842540
21
135.976538
0
LINE
8
boundary
62
5
39
2
10
63.842540
20
135.976538
11
63.842540
21
55.903957
0
LINE
8
boundary
62
5
39
2
10
63.842540
20
55.903957
11
63.842542
21
6.667510
0
LINE
8
boundary
62
5
39
2
10
63.842542
20
6.667510
11
86.538238
21
6.667500
0
LINE
8
boundary
62
5
39
2
10
86.538238
20
6.667500
11
117.842542
21
6.667507
0
LINE
8
boundary
62
5
39
2
10
117.842542
20
6.667507
11
103.562345
21
22.977074
0
LINE
8
boundary
62
5
39
2
10
103.562345
20
22.977074
11
83.725442
21
22.977074
0
LINE
8
boundary
62
5
39
2
10
83.725442
20
22.977074
11
83.725442
21
25.323074
0
LINE
8
boundary
62
5
39
2
10
83.725442
20
25.323074
11
101.404130
21
25.323074
0
LINE
8
boundary
62
5
39
2
10
101.404130
20
25.323074
11
98.656751
21
28.579806
0
LINE
8
boundary
62
5
39
2
10
98.656751
20
28.579806
11
93.918255
21
46.152083
0
LINE
8
boundary
62
5
39
2
10
93.918255
20
46.152083
11
94.884344
21
46.777126
0
LINE
8
boundary
62
5
39
2
10
94.884344
20
46.777126
11
81.068837
21
46.907126
0
LINE
8
boundary
62
5
39
2
10
81.068837
20
46.907126
11
81.068837
21
49.253126
0
LINE
8
boundary
62
5
39
2
10
81.068837
20
49.253126
11
98.711339
21
49.253126
0
LINE
8
boundary
62
5
39
2
10
98.711339
20
49.253126
11
108.991224
21
55.904034
0
LINE
8
boundary
62
5
39
2
10
108.991224
20
55.904034
11
78.065107
21
68.064390
0
LINE
8
boundary
62
5
39
2
10
78.065107
20
68.064390
11
77.114909
21
70.707180
0
LINE
8
boundary
62
5
39
2
10
77.114909
20
70.707180
11
70.582354
21
70.837179
0
LINE
8
boundary
62
5
39
2
10
70.582354
20
70.837179
11
70.582354
21
73.183179
0
LINE
8
boundary
62
5
39
2
10
70.582354
20
73.183179
11
76.187639
21
73.183179
0
LINE
8
boundary
62
5
39
2
10
76.187639
20
73.183179
11
75.722545
21
74.579770
0
LINE
8
boundary
62
5
39
2
10
75.722545
20
74.579770
11
75.722543
21
94.767231
0
LINE
8
boundary
62
5
39
2
10
75.722543
20
94.767231
11
69.909542
21
94.767231
0
LINE
8
boundary
62
5
39
2
10
69.909542
20
94.767231
11
69.909541
21
97.113231
0
LINE
8
boundary
62
5
39
2
10
69.909541
20
97.113231
11
75.722543
21
97.113231
0
LINE
8
boundary
62
5
39
2
10
75.722543
20
97.113231
11
75.722544
21
117.300801
0
LINE
8
boundary
62
5
39
2
10
75.722544
20
117.300801
11
76.177900
21
118.567284
0
LINE
8
boundary
62
5
39
2
10
76.177900
20
118.567284
11
70.582335
21
118.697284
0
LINE
8
boundary
62
5
39
2
10
70.582335
20
118.697284
11
70.582335
21
121.043284
0
LINE
8
boundary
62
5
39
2
10
70.582335
20
121.043284
11
77.068130
21
121.043284
0
LINE
8
boundary
62
5
39
2
10
77.068130
20
121.043284
11
78.065084
21
123.816115
0
LINE
8
boundary
62
5
39
2
10
78.065084
20
123.816115
11
108.991247
21
135.976593
0
LINE
8
boundary
62
5
39
2
10
108.991247
20
135.976593
11
98.912441
21
142.497336
0
LINE
8
boundary
62
5
39
2
10
98.912441
20
142.497336
11
81.068915
21
142.627336
0
LINE
8
boundary
62
5
39
2
10
81.068915
20
142.627336
11
81.068915
21
144.973336
0
LINE
8
boundary
62
5
39
2
10
81.068915
20
144.973336
11
94.894169
21
144.973336
0
LINE
8
boundary
62
5
39
2
10
94.894169
20
144.973336
11
93.918280
21
145.728437
0
LINE
8
boundary
62
5
39
2
10
93.918280
20
145.728437
11
98.656789
21
163.300686
0
LINE
8
boundary
62
5
39
2
10
98.656789
20
163.300686
11
101.394448
21
166.427389
0
LINE
8
boundary
62
5
39
2
10
101.394448
20
166.427389
11
83.725452
21
166.557389
0
LINE
8
boundary
62
5
39
2
10
83.725452
20
166.557389
11
83.725453
21
168.903389
0
LINE
8
boundary
62
5
39
2
10
83.725453
20
168.903389
11
103.562369
21
168.903389
0
LINE
8
boundary
62
5
39
2
10
103.562369
20
168.903389
11
117.842578
21
185.212933
0
LINE
8
boundary
62
5
39
2
10
117.842578
20
185.212933
11
86.538227
21
185.212956
0
LINE
8
boundary
62
5
39
2
10
86.538227
20
185.212956
11
63.842542
21
185.212974
0
LINE
8
annotation
62
1
39
211
10
77.474142
20
22.070204
11
78.397920
21
22.070204
0
LINE
8
annotation
62
1
39
211
10
78.397920
20
22.070204
11
78.397920
21
22.070204
0
LINE
8
annotation
62
1
39
211
10
78.397920
20
22.070204
11
78.564063
21
22.085108
0
LINE
8
annotation
62
1
39
211
10
78.564063
20
22.085108
11
78.720399
21
22.128063
0
LINE
8
annotation
62
1
39
211
10
78.720399
20
22.128063
11
78.864326
21
22.196432
0
LINE
8
annotation
62
1
39
211
10
78.864326
20
22.196432
11
78.993244
21
22.287577
0
LINE
8
annotation
62
1
39
211
10
78.993244
20
22.287577
11
79.104553
21
22.398863
0
LINE
8
annotation
62
1
39
211
10
79.104553
20
22.398863
11
79.195654
21
22.527653
0
LINE
8
annotation
62
1
39
211
10
79.195654
20
22.527653
11
79.263945
21
22.671310
0
LINE
8
annotation
62
1
39
211
10
79.263945
20
22.671310
11
79.306826
21
22.827197
0
LINE
8
annotation
62
1
39
211
10
79.306826
20
22.827197
11
79.321698
21
22.992677
0
LINE
8
annotation
62
1
39
211
10
79.321698
20
22.992677
11
79.321698
21
23.455219
0
LINE
8
annotation
62
1
39
211
10
79.321698
20
23.455219
11
79.321698
21
23.455219
0
LINE
8
annotation
62
1
39
211
10
79.321698
20
23.455219
11
79.306826
21
23.620630
0
LINE
8
annotation
62
1
39
211
10
79.306826
20
23.620630
11
79.263945
21
23.776481
0
LINE
8
annotation
62
1
39
211
10
79.263945
20
23.776481
11
79.195654
21
23.920127
0
LINE
8
annotation
62
1
39
211
10
79.195654
20
23.920127
11
79.104553
21
24.048925
0
LINE
8
annotation
62
1
39
211
10
79.104553
20
24.048925
11
78.993244
21
24.160233
0
LINE
8
annotation
62
1
39
211
10
78.993244
20
24.160233
11
78.864326
21
24.251406
0
LINE
8
annotation
62
1
39
211
10
78.864326
20
24.251406
11
78.720399
21
24.319803
0
LINE
8
annotation
62
1
39
211
10
78.720399
20
24.319803
11
78.564063
21
24.362779
0
LINE
8
annotation
62
1
39
211
10
78.564063
20
24.362779
11
78.397920
21
24.377692
0
LINE
8
annotation
62
1
39
211
10
78.397920
20
24.377692
11
77.935379
21
24.377692
0
LINE
8
annotation
62
1
39
211
10
77.935379
20
24.377692
11
78.397920
21
24.377692
0
LINE
8
annotation
62
1
39
211
10
78.397920
20
24.377692
11
78.397920
21
24.377692
0
LINE
8
annotation
62
1
39
211
10
78.397920
20
24.377692
11
78.564063
21
24.392608
0
LINE
8
annotation
62
1
39
211
10
78.564063
20
24.392608
11
78.720399
21
24.435610
0
LINE
8
annotation
62
1
39
211
10
78.720399
20
24.435610
11
78.864326
21
24.504074
0
LINE
8
annotation
62
1
39
211
10
78.864326
20
24.504074
11
78.993244
21
24.595380
0
LINE
8
annotation
62
1
39
211
10
78.993244
20
24.595380
11
79.104553
21
24.706906
0
LINE
8
annotation
62
1
39
211
10
79.104553
20
24.706906
11
79.195654
21
24.836030
0
LINE
8
annotation
62
1
39
211
10
79.195654
20
24.836030
11
79.263945
21
24.980130
0
LINE
8
annotation
62
1
39
211
10
79.263945
20
24.980130
11
79.306826
21
25.136586
0
LINE
8
annotation
62
1
39
211
10
79.306826
20
25.136586
11
79.321698
21
25.302774
0
LINE
8
annotation
62
1
39
211
10
79.321698
20
25.302774
11
79.321698
21
25.302774
0
LINE
8
annotation
62
1
39
211
10
79.321698
20
25.302774
11
79.306826
21
25.468186
0
LINE
8
annotation
62
1
39
211
10
79.306826
20
25.468186
11
79.263945
21
25.624036
0
LINE
8
annotation
62
1
39
211
10
79.263945
20
25.624036
11
79.195654
21
25.767682
0
LINE
8
annotation
62
1
39
211
10
79.195654
20
25.767682
11
79.104553
21
25.896481
0
LINE
8
annotation
62
1
39
211
10
79.104553
20
25.896481
11
78.993244
21
26.007788
0
LINE
8
annotation
62
1
39
211
10
78.993244
20
26.007788
11
78.864326
21
26.098962
0
LINE
8
annotation
62
1
39
211
10
78.864326
20
26.098962
11
78.720399
21
26.167358
0
LINE
8
annotation
62
1
39
211
10
78.720399
20
26.167358
11
78.564063
21
26.210335
0
LINE
8
annotation
62
1
39
211
10
78.564063
20
26.210335
11
78.397920
21
26.225247
0
LINE
8
annotation
62
1
39
211
10
78.397920
20
26.225247
11
77.474142
21
26.225247
0
LINE
8
annotation
62
1
39
211
10
76.896233
20
46.924947
11
74.586397
21
46.924947
0
LINE
8
annotation
62
1
39
211
10
74.586397
20
46.924947
11
75.508871
21
50.160126
0
LINE
8
annotation
62
1
39
211
10
76.203856
20
46.000126
11
76.203856
21
47.847682
0
LINE
8
annotation
62
1
39
211
10
64.385798
20
69.948771
11
65.301319
21
69.948771
0
LINE
8
annotation
62
1
39
211
10
65.301319
20
69.948771
11
65.301319
21
69.948771
0
LINE
8
annotation
62
1
39
211
10
65.301319
20
69.948771
11
65.465637
21
69.963546
0
LINE
8
annotation
62
1
39
211
10
65.465637
20
69.963546
11
65.620394
21
70.006139
0
LINE
8
annotation
62
1
39
211
10
65.620394
20
70.006139
11
65.762981
21
70.073957
0
LINE
8
annotation
62
1
39
211
10
65.762981
20
70.073957
11
65.890789
21
70.164406
0
LINE
8
annotation
62
1
39
211
10
65.890789
20
70.164406
11
66.001210
21
70.274892
0
LINE
8
annotation
62
1
39
211
10
66.001210
20
70.274892
11
66.091635
21
70.402821
0
LINE
8
annotation
62
1
39
211
10
66.091635
20
70.402821
11
66.159453
21
70.545599
0
LINE
8
annotation
62
1
39
211
10
66.159453
20
70.545599
11
66.202058
21
70.700632
0
LINE
8
annotation
62
1
39
211
10
66.202058
20
70.700632
11
66.216839
21
70.865326
0
LINE
8
annotation
62
1
39
211
10
66.216839
20
70.865326
11
66.216839
21
71.321405
0
LINE
8
annotation
62
1
39
211
10
66.216839
20
71.321405
11
66.216839
21
71.321405
0
LINE
8
annotation
62
1
39
211
10
66.216839
20
71.321405
11
66.202066
21
71.486020
0
LINE
8
annotation
62
1
39
211
10
66.202066
20
71.486020
11
66.159483
21
71.640839
0
LINE
8
annotation
62
1
39
211
10
66.159483
20
71.640839
11
66.091692
21
71.783307
0
LINE
8
annotation
62
1
39
211
10
66.091692
20
71.783307
11
66.001295
21
71.910869
0
LINE
8
annotation
62
1
39
211
10
66.001295
20
71.910869
11
65.890896
21
72.020969
0
LINE
8
annotation
62
1
39
211
10
65.890896
20
72.020969
11
65.763096
21
72.111051
0
LINE
8
annotation
62
1
39
211
10
65.763096
20
72.111051
11
65.620498
21
72.178559
0
LINE
8
annotation
62
1
39
211
10
65.620498
20
72.178559
11
65.465705
21
72.220939
0
LINE
8
annotation
62
1
39
211
10
65.465705
20
72.220939
11
65.301319
21
72.235633
0
LINE
8
annotation
62
1
39
211
10
65.301319
20
72.235633
11
64.385798
21
72.235633
0
LINE
8
annotation
62
1
39
211
10
64.385798
20
72.235633
11
64.385798
21
74.071586
0
LINE
8
annotation
62
1
39
211
10
64.385798
20
74.071586
11
66.216839
21
74.071586
0
LINE
8
annotation
62
1
39
211
10
65.565825
20
97.791903
11
65.565825
21
97.791903
0
LINE
8
annotation
62
1
39
211
10
65.565825
20
97.791903
11
65.330236
21
97.703572
0
LINE
8
annotation
62
1
39
211
10
65.330236
20
97.703572
11
65.114052
21
97.584555
0
LINE
8
annotation
62
1
39
211
10
65.114052
20
97.584555
11
64.919493
21
97.437836
0
LINE
8
annotation
62
1
39
211
10
64.919493
20
97.437836
11
64.748777
21
97.266396
0
LINE
8
annotation
62
1
39
211
10
64.748777
20
97.266396
11
64.604124
21
97.073217
0
LINE
8
annotation
62
1
39
211
10
64.604124
20
97.073217
11
64.487754
21
96.861280
0
LINE
8
annotation
62
1
39
211
10
64.487754
20
96.861280
11
64.401884
21
96.633569
0
LINE
8
annotation
62
1
39
211
10
64.401884
20
96.633569
11
64.348735
21
96.393064
0
LINE
8
annotation
62
1
39
211
10
64.348735
20
96.393064
11
64.330525
21
96.142747
0
LINE
8
annotation
62
1
39
211
10
64.330525
20
96.142747
11
64.330525
21
94.911860
0
LINE
8
annotation
62
1
39
211
10
64.330525
20
94.911860
11
64.330525
21
94.911860
0
LINE
8
annotation
62
1
39
211
10
64.330525
20
94.911860
11
64.343803
21
94.763923
0
LINE
8
annotation
62
1
39
211
10
64.343803
20
94.763923
11
64.382072
21
94.624663
0
LINE
8
annotation
62
1
39
211
10
64.382072
20
94.624663
11
64.442991
21
94.496412
0
LINE
8
annotation
62
1
39
211
10
64.442991
20
94.496412
11
64.524215
21
94.381499
0
LINE
8
annotation
62
1
39
211
10
64.524215
20
94.381499
11
64.623401
21
94.282254
0
LINE
8
annotation
62
1
39
211
10
64.623401
20
94.282254
11
64.738206
21
94.201008
0
LINE
8
annotation
62
1
39
211
10
64.738206
20
94.201008
11
64.866286
21
94.140090
0
LINE
8
annotation
62
1
39
211
10
64.866286
20
94.140090
11
65.005297
21
94.101830
0
LINE
8
annotation
62
1
39
211
10
65.005297
20
94.101830
11
65.152897
21
94.088559
0
LINE
8
annotation
62
1
39
211
10
65.152897
20
94.088559
11
65.152897
21
94.088559
0
LINE
8
annotation
62
1
39
211
10
65.152897
20
94.088559
11
65.300803
21
94.101830
0
LINE
8
annotation
62
1
39
211
10
65.300803
20
94.101830
11
65.439977
21
94.140090
0
LINE
8
annotation
62
1
39
211
10
65.439977
20
94.140090
11
65.568104
21
94.201008
0
LINE
8
annotation
62
1
39
211
10
65.568104
20
94.201008
11
65.682871
21
94.282254
0
LINE
8
annotation
62
1
39
211
10
65.682871
20
94.282254
11
65.781961
21
94.381499
0
LINE
8
annotation
62
1
39
211
10
65.781961
20
94.381499
11
65.863061
21
94.496412
0
LINE
8
annotation
62
1
39
211
10
65.863061
20
94.496412
11
65.923856
21
94.624663
0
LINE
8
annotation
62
1
39
211
10
65.923856
20
94.624663
11
65.962030
21
94.763923
0
LINE
8
annotation
62
1
39
211
10
65.962030
20
94.763923
11
65.975269
21
94.911860
0
LINE
8
annotation
62
1
39
211
10
65.975269
20
94.911860
11
65.975269
21
95.321536
0
LINE
8
annotation
62
1
39
211
10
65.975269
20
95.321536
11
65.975269
21
95.321536
0
LINE
8
annotation
62
1
39
211
10
65.975269
20
95.321536
11
65.962030
21
95.469402
0
LINE
8
annotation
62
1
39
211
10
65.962030
20
95.469402
11
65.923856
21
95.608469
0
LINE
8
annotation
62
1
39
211
10
65.923856
20
95.608469
11
65.863061
21
95.736442
0
LINE
8
annotation
62
1
39
211
10
65.863061
20
95.736442
11
65.781961
21
95.851026
0
LINE
8
annotation
62
1
39
211
10
65.781961
20
95.851026
11
65.682871
21
95.949924
0
LINE
8
annotation
62
1
39
211
10
65.682871
20
95.949924
11
65.568104
21
96.030840
0
LINE
8
annotation
62
1
39
211
10
65.568104
20
96.030840
11
65.439977
21
96.091480
0
LINE
8
annotation
62
1
39
211
10
65.439977
20
96.091480
11
65.300803
21
96.129548
0
LINE
8
annotation
62
1
39
211
10
65.300803
20
96.129548
11
65.152897
21
96.142747
0
LINE
8
annotation
62
1
39
211
10
65.152897
20
96.142747
11
64.330525
21
96.142747
0
LINE
8
annotation
62
1
39
211
10
64.227526
20
93.625641
11
66.079198
21
93.625641
0
LINE
8
annotation
62
1
39
211
10
65.302504
20
117.809358
11
66.218845
21
121.931209
0
LINE
8
annotation
62
1
39
211
10
66.218845
20
121.931209
11
64.385906
21
121.931209
0
LINE
8
annotation
62
1
39
211
10
66.218845
20
120.095685
11
65.302504
21
120.095685
0
LINE
8
annotation
62
1
39
211
10
74.817615
20
142.642679
11
74.817615
21
142.642679
0
LINE
8
annotation
62
1
39
211
10
74.817615
20
142.642679
11
74.832530
21
142.476580
0
LINE
8
annotation
62
1
39
211
10
74.832530
20
142.476580
11
74.875519
21
142.320365
0
LINE
8
annotation
62
1
39
211
10
74.875519
20
142.320365
11
74.943949
21
142.176611
0
LINE
8
annotation
62
1
39
211
10
74.943949
20
142.176611
11
75.035189
21
142.047899
0
LINE
8
annotation
62
1
39
211
10
75.035189
20
142.047899
11
75.146606
21
141.936806
0
LINE
8
annotation
62
1
39
211
10
75.146606
20
141.936806
11
75.275567
21
141.845912
0
LINE
8
annotation
62
1
39
211
10
75.275567
20
141.845912
11
75.419440
21
141.777794
0
LINE
8
annotation
62
1
39
211
10
75.419440
20
141.777794
11
75.575593
21
141.735033
0
LINE
8
annotation
62
1
39
211
10
75.575593
20
141.735033
11
75.741393
21
141.720206
0
LINE
8
annotation
62
1
39
211
10
75.741393
20
141.720206
11
75.741393
21
141.720206
0
LINE
8
annotation
62
1
39
211
10
75.741393
20
141.720206
11
75.907193
21
141.735033
0
LINE
8
annotation
62
1
39
211
10
75.907193
20
141.735033
11
76.063346
21
141.777794
0
LINE
8
annotation
62
1
39
211
10
76.063346
20
141.777794
11
76.207219
21
141.845912
0
LINE
8
annotation
62
1
39
211
10
76.207219
20
141.845912
11
76.336181
21
141.936806
0
LINE
8
annotation
62
1
39
211
10
76.336181
20
141.936806
11
76.447597
21
142.047899
0
LINE
8
annotation
62
1
39
211
10
76.447597
20
142.047899
11
76.538837
21
142.176611
0
LINE
8
annotation
62
1
39
211
10
76.538837
20
142.176611
11
76.607268
21
142.320365
0
LINE
8
annotation
62
1
39
211
10
76.607268
20
142.320365
11
76.650256
21
142.476580
0
LINE
8
annotation
62
1
39
211
10
76.650256
20
142.476580
11
76.665171
21
142.642679
0
LINE
8
annotation
62
1
39
211
10
76.665171
20
142.642679
11
76.665171
21
143.102872
0
LINE
8
annotation
62
1
39
211
10
76.665171
20
143.102872
11
76.665171
21
143.102872
0
LINE
8
annotation
62
1
39
211
10
76.665171
20
143.102872
11
76.650265
21
143.269052
0
LINE
8
annotation
62
1
39
211
10
76.650265
20
143.269052
11
76.607298
21
143.425483
0
LINE
8
annotation
62
1
39
211
10
76.607298
20
143.425483
11
76.538895
21
143.569549
0
LINE
8
annotation
62
1
39
211
10
76.538895
20
143.569549
11
76.447683
21
143.698632
0
LINE
8
annotation
62
1
39
211
10
76.447683
20
143.698632
11
76.336288
21
143.810114
0
LINE
8
annotation
62
1
39
211
10
76.336288
20
143.810114
11
76.207335
21
143.901379
0
LINE
8
annotation
62
1
39
211
10
76.207335
20
143.901379
11
76.063451
21
143.969809
0
LINE
8
annotation
62
1
39
211
10
76.063451
20
143.969809
11
75.907262
21
144.012786
0
LINE
8
annotation
62
1
39
211
10
75.907262
20
144.012786
11
75.741393
21
144.027694
0
LINE
8
annotation
62
1
39
211
10
75.741393
20
144.027694
11
75.741393
21
144.027694
0
LINE
8
annotation
62
1
39
211
10
75.741393
20
144.027694
11
75.575524
21
144.012778
0
LINE
8
annotation
62
1
39
211
10
75.575524
20
144.012778
11
75.419335
21
143.969779
0
LINE
8
annotation
62
1
39
211
10
75.419335
20
143.969779
11
75.275451
21
143.901321
0
LINE
8
annotation
62
1
39
211
10
75.275451
20
143.901321
11
75.146498
21
143.810028
0
LINE
8
annotation
62
1
39
211
10
75.146498
20
143.810028
11
75.035103
21
143.698524
0
LINE
8
annotation
62
1
39
211
10
75.035103
20
143.698524
11
74.943891
21
143.569433
0
LINE
8
annotation
62
1
39
211
10
74.943891
20
143.569433
11
74.875489
21
143.425378
0
LINE
8
annotation
62
1
39
211
10
74.875489
20
143.425378
11
74.832521
21
143.268983
0
LINE
8
annotation
62
1
39
211
10
74.832521
20
143.268983
11
74.817615
21
143.102872
0
LINE
8
annotation
62
1
39
211
10
74.817615
20
143.102872
11
74.817615
21
142.642679
0
LINE
8
annotation
62
1
39
211
10
76.665171
20
144.952776
11
76.665171
21
144.952776
0
LINE
8
annotation
62
1
39
211
10
76.665171
20
144.952776
11
76.650265
21
145.118188
0
LINE
8
annotation
62
1
39
211
10
76.650265
20
145.118188
11
76.607298
21
145.274038
0
LINE
8
annotation
62
1
39
211
10
76.607298
20
145.274038
11
76.538895
21
145.417684
0
LINE
8
annotation
62
1
39
211
10
76.538895
20
145.417684
11
76.447683
21
145.546482
0
LINE
8
annotation
62
1
39
211
10
76.447683
20
145.546482
11
76.336288
21
145.657790
0
LINE
8
annotation
62
1
39
211
10
76.336288
20
145.657790
11
76.207335
21
145.748964
0
LINE
8
annotation
62
1
39
211
10
76.207335
20
145.748964
11
76.063451
21
145.817360
0
LINE
8
annotation
62
1
39
211
10
76.063451
20
145.817360
11
75.907262
21
145.860336
0
LINE
8
annotation
62
1
39
211
10
75.907262
20
145.860336
11
75.741393
21
145.875249
0
LINE
8
annotation
62
1
39
211
10
75.741393
20
145.875249
11
75.741393
21
145.875249
0
LINE
8
annotation
62
1
39
211
10
75.741393
20
145.875249
11
75.575524
21
145.860336
0
LINE
8
annotation
62
1
39
211
10
75.575524
20
145.860336
11
75.419335
21
145.817360
0
LINE
8
annotation
62
1
39
211
10
75.419335
20
145.817360
11
75.275451
21
145.748964
0
LINE
8
annotation
62
1
39
211
10
75.275451
20
145.748964
11
75.146498
21
145.657790
0
LINE
8
annotation
62
1
39
211
10
75.146498
20
145.657790
11
75.035103
21
145.546482
0
LINE
8
annotation
62
1
39
211
10
75.035103
20
145.546482
11
74.943891
21
145.417684
0
LINE
8
annotation
62
1
39
211
10
74.943891
20
145.417684
11
74.875489
21
145.274038
0
LINE
8
annotation
62
1
39
211
10
74.875489
20
145.274038
11
74.832521
21
145.118188
0
LINE
8
annotation
62
1
39
211
10
74.832521
20
145.118188
11
74.817615
21
144.952776
0
LINE
8
annotation
62
1
39
211
10
74.817615
20
144.952776
11
74.817615
21
144.952776
0
LINE
8
annotation
62
1
39
211
10
74.817615
20
144.952776
11
74.832530
21
144.786587
0
LINE
8
annotation
62
1
39
211
10
74.832530
20
144.786587
11
74.875519
21
144.630132
0
LINE
8
annotation
62
1
39
211
10
74.875519
20
144.630132
11
74.943949
21
144.486032
0
LINE
8
annotation
62
1
39
211
10
74.943949
20
144.486032
11
75.035189
21
144.356908
0
LINE
8
annotation
62
1
39
211
10
75.035189
20
144.356908
11
75.146606
21
144.245382
0
LINE
8
annotation
62
1
39
211
10
75.146606
20
144.245382
11
75.275567
21
144.154076
0
LINE
8
annotation
62
1
39
211
10
75.275567
20
144.154076
11
75.419440
21
144.085611
0
LINE
8
annotation
62
1
39
211
10
75.419440
20
144.085611
11
75.575593
21
144.042610
0
LINE
8
annotation
62
1
39
211
10
75.575593
20
144.042610
11
75.741393
21
144.027694
0
LINE
8
annotation
62
1
39
211
10
75.741393
20
144.027694
11
75.741393
21
144.027694
0
LINE
8
annotation
62
1
39
211
10
75.741393
20
144.027694
11
75.907193
21
144.042610
0
LINE
8
annotation
62
1
39
211
10
75.907193
20
144.042610
11
76.063346
21
144.085611
0
LINE
8
annotation
62
1
39
211
10
76.063346
20
144.085611
11
76.207219
21
144.154076
0
LINE
8
annotation
62
1
39
211
10
76.207219
20
144.154076
11
76.336181
21
144.245382
0
LINE
8
annotation
62
1
39
211
10
76.336181
20
144.245382
11
76.447597
21
144.356908
0
LINE
8
annotation
62
1
39
211
10
76.447597
20
144.356908
11
76.538837
21
144.486032
0
LINE
8
annotation
62
1
39
211
10
76.538837
20
144.486032
11
76.607268
21
144.630132
0
LINE
8
annotation
62
1
39
211
10
76.607268
20
144.630132
11
76.650256
21
144.786587
0
LINE
8
annotation
62
1
39
211
10
76.650256
20
144.786587
11
76.665171
21
144.952776
0
LINE
8
annotation
62
1
39
211
10
77.935390
20
165.650389
11
77.935390
21
165.650389
0
LINE
8
annotation
62
1
39
211
10
77.935390
20
165.650389
11
78.199563
21
165.748833
0
LINE
8
annotation
62
1
39
211
10
78.199563
20
165.748833
11
78.442041
21
165.881897
0
LINE
8
annotation
62
1
39
211
10
78.442041
20
165.881897
11
78.660318
21
166.046193
0
LINE
8
annotation
62
1
39
211
10
78.660318
20
166.046193
11
78.851889
21
166.238328
0
LINE
8
annotation
62
1
39
211
10
78.851889
20
166.238328
11
79.014248
21
166.454913
0
LINE
8
annotation
62
1
39
211
10
79.014248
20
166.454913
11
79.144889
21
166.692558
0
LINE
8
annotation
62
1
39
211
10
79.144889
20
166.692558
11
79.241307
21
166.947871
0
LINE
8
annotation
62
1
39
211
10
79.241307
20
166.947871
11
79.300995
21
167.217464
0
LINE
8
annotation
62
1
39
211
10
79.300995
20
167.217464
11
79.321447
21
167.497944
0
LINE
8
annotation
62
1
39
211
10
79.321447
20
167.497944
11
79.321447
21
168.885307
0
LINE
8
annotation
62
1
39
211
10
79.321447
20
168.885307
11
79.321447
21
168.885307
0
LINE
8
annotation
62
1
39
211
10
79.321447
20
168.885307
11
79.306576
21
169.051495
0
LINE
8
annotation
62
1
39
211
10
79.306576
20
169.051495
11
79.263694
21
169.207950
0
LINE
8
annotation
62
1
39
211
10
79.263694
20
169.207950
11
79.195404
21
169.352051
0
LINE
8
annotation
62
1
39
211
10
79.195404
20
169.352051
11
79.104303
21
169.481175
0
LINE
8
annotation
62
1
39
211
10
79.104303
20
169.481175
11
78.992994
21
169.592701
0
LINE
8
annotation
62
1
39
211
10
78.992994
20
169.592701
11
78.864076
21
169.684007
0
LINE
8
annotation
62
1
39
211
10
78.864076
20
169.684007
11
78.720149
21
169.752471
0
LINE
8
annotation
62
1
39
211
10
78.720149
20
169.752471
11
78.563813
21
169.795472
0
LINE
8
annotation
62
1
39
211
10
78.563813
20
169.795472
11
78.397670
21
169.810389
0
LINE
8
annotation
62
1
39
211
10
78.397670
20
169.810389
11
78.397670
21
169.810389
0
LINE
8
annotation
62
1
39
211
10
78.397670
20
169.810389
11
78.231870
21
169.795472
0
LINE
8
annotation
62
1
39
211
10
78.231870
20
169.795472
11
78.075717
21
169.752471
0
LINE
8
annotation
62
1
39
211
10
78.075717
20
169.752471
11
77.931843
21
169.684007
0
LINE
8
annotation
62
1
39
211
10
77.931843
20
169.684007
11
77.802882
21
169.592701
0
LINE
8
annotation
62
1
39
211
10
77.802882
20
169.592701
11
77.691466
21
169.481175
0
LINE
8
annotation
62
1
39
211
10
77.691466
20
169.481175
11
77.600226
21
169.352051
0
LINE
8
annotation
62
1
39
211
10
77.600226
20
169.352051
11
77.531795
21
169.207950
0
LINE
8
annotation
62
1
39
211
10
77.531795
20
169.207950
11
77.488807
21
169.051495
0
LINE
8
annotation
62
1
39
211
10
77.488807
20
169.051495
11
77.473892
21
168.885307
0
LINE
8
annotation
62
1
39
211
10
77.473892
20
168.885307
11
77.473892
21
168.422765
0
LINE
8
annotation
62
1
39
211
10
77.473892
20
168.422765
11
77.473892
21
168.422765
0
LINE
8
annotation
62
1
39
211
10
77.473892
20
168.422765
11
77.488807
21
168.256586
0
LINE
8
annotation
62
1
39
211
10
77.488807
20
168.256586
11
77.531795
21
168.100155
0
LINE
8
annotation
62
1
39
211
10
77.531795
20
168.100155
11
77.600226
21
167.956089
0
LINE
8
annotation
62
1
39
211
10
77.600226
20
167.956089
11
77.691466
21
167.827006
0
LINE
8
annotation
62
1
39
211
10
77.691466
20
167.827006
11
77.802882
21
167.715524
0
LINE
8
annotation
62
1
39
211
10
77.802882
20
167.715524
11
77.931843
21
167.624259
0
LINE
8
annotation
62
1
39
211
10
77.931843
20
167.624259
11
78.075717
21
167.555829
0
LINE
8
annotation
62
1
39
211
10
78.075717
20
167.555829
11
78.231870
21
167.512852
0
LINE
8
annotation
62
1
39
211
10
78.231870
20
167.512852
11
78.397670
21
167.497944
0
LINE
8
annotation
62
1
39
211
10
78.397670
20
167.497944
11
79.321447
21
167.497944
0
LINE
8
annotation
62
1
39
211
10
77.358452
20
165.130389
11
79.438452
21
165.130389
0
LINE
8
annotation
62
1
39
211
10
73.080137
20
22.974797
11
69.510841
21
22.974797
0
LINE
8
annotation
62
1
39
211
10
69.510841
20
22.974797
11
73.080137
21
29.403077
0
LINE
8
annotation
62
1
39
211
10
73.080137
20
29.403077
11
69.510841
21
29.403077
0
LINE
8
annotation
62
1
39
211
10
79.006220
20
26.188937
11
75.491347
21
26.188937
0
LINE
8
annotation
62
1
39
211
10
84.271658
20
22.974745
11
81.416706
21
22.974745
0
LINE
8
annotation
62
1
39
211
10
81.416706
20
22.974745
11
84.054776
21
27.221699
0
LINE
8
annotation
62
1
39
211
10
84.054776
20
27.221699
11
84.054776
21
27.221699
0
LINE
8
annotation
62
1
39
211
10
84.054776
20
27.221699
11
84.057929
21
27.225601
0
LINE
8
annotation
62
1
39
211
10
84.057929
20
27.225601
11
84.060954
21
27.229537
0
LINE
8
annotation
62
1
39
211
10
84.060954
20
27.229537
11
84.063868
21
27.233539
0
LINE
8
annotation
62
1
39
211
10
84.063868
20
27.233539
11
84.066694
21
27.237640
0
LINE
8
annotation
62
1
39
211
10
84.066694
20
27.237640
11
84.069449
21
27.241874
0
LINE
8
annotation
62
1
39
211
10
84.069449
20
27.241874
11
84.072155
21
27.246274
0
LINE
8
annotation
62
1
39
211
10
84.072155
20
27.246274
11
84.074831
21
27.250874
0
LINE
8
annotation
62
1
39
211
10
84.074831
20
27.250874
11
84.077497
21
27.255705
0
LINE
8
annotation
62
1
39
211
10
84.077497
20
27.255705
11
84.080173
21
27.260802
0
LINE
8
annotation
62
1
39
211
10
84.080173
20
27.260802
11
84.080173
21
27.260802
0
LINE
8
annotation
62
1
39
211
10
84.080173
20
27.260802
11
84.189098
21
27.494674
0
LINE
8
annotation
62
1
39
211
10
84.189098
20
27.494674
11
84.252730
21
27.737102
0
LINE
8
annotation
62
1
39
211
10
84.252730
20
27.737102
11
84.272629
21
27.982610
0
LINE
8
annotation
62
1
39
211
10
84.272629
20
27.982610
11
84.250353
21
28.225719
0
LINE
8
annotation
62
1
39
211
10
84.250353
20
28.225719
11
84.187463
21
28.460951
0
LINE
8
annotation
62
1
39
211
10
84.187463
20
28.460951
11
84.085518
21
28.682829
0
LINE
8
annotation
62
1
39
211
10
84.085518
20
28.682829
11
83.946076
21
28.885874
0
LINE
8
annotation
62
1
39
211
10
83.946076
20
28.885874
11
83.770699
21
29.064608
0
LINE
8
annotation
62
1
39
211
10
83.770699
20
29.064608
11
83.560944
21
29.213554
0
LINE
8
annotation
62
1
39
211
10
83.560944
20
29.213554
11
83.560944
21
29.213554
0
LINE
8
annotation
62
1
39
211
10
83.560944
20
29.213554
11
83.326422
21
29.320932
0
LINE
8
annotation
62
1
39
211
10
83.326422
20
29.320932
11
83.083621
21
29.383584
0
LINE
8
annotation
62
1
39
211
10
83.083621
20
29.383584
11
82.837971
21
29.402920
0
LINE
8
annotation
62
1
39
211
10
82.837971
20
29.402920
11
82.594898
21
29.380351
0
LINE
8
annotation
62
1
39
211
10
82.594898
20
29.380351
11
82.359832
21
29.317286
0
LINE
8
annotation
62
1
39
211
10
82.359832
20
29.317286
11
82.138200
21
29.215137
0
LINE
8
annotation
62
1
39
211
10
82.138200
20
29.215137
11
81.935431
21
29.075312
0
LINE
8
annotation
62
1
39
211
10
81.935431
20
29.075312
11
81.756952
21
28.899223
0
LINE
8
annotation
62
1
39
211
10
81.756952
20
28.899223
11
81.608191
21
28.688278
0
LINE
8
annotation
62
1
39
211
10
81.608191
20
28.688278
11
81.420737
21
28.328688
0
LINE
8
boundary
62
5
39
2
10
121.017605
20
170.622456
11
121.017602
21
158.053205
0
LINE
8
boundary
62
5
39
2
10
121.017602
20
158.053205
11
121.017602
21
153.734133
0
LINE
8
boundary
62
5
39
2
10
121.017602
20
153.734133
11
144.680385
21
153.734133
0
LINE
8
boundary
62
5
39
2
10
144.680385
20
153.734133
11
144.680385
21
151.388133
0
LINE
8
boundary
62
5
39
2
10
144.680385
20
151.388133
11
121.017601
21
151.388133
0
LINE
8
boundary
62
5
39
2
10
121.017601
20
151.388133
11
121.017598
21
128.071050
0
LINE
8
boundary
62
5
39
2
10
121.017598
20
128.071050
11
141.414016
21
128.071049
0
LINE
8
boundary
62
5
39
2
10
141.414016
20
128.071049
11
141.414016
21
125.725050
0
LINE
8
boundary
62
5
39
2
10
141.414016
20
125.725050
11
121.017598
21
125.725049
0
LINE
8
boundary
62
5
39
2
10
121.017598
20
125.725049
11
121.017595
21
102.407966
0
LINE
8
boundary
62
5
39
2
10
121.017595
20
102.407966
11
139.040881
21
102.407966
0
LINE
8
boundary
62
5
39
2
10
139.040881
20
102.407966
11
139.040881
21
100.061966
0
LINE
8
boundary
62
5
39
2
10
139.040881
20
100.061966
11
121.017594
21
100.061966
0
LINE
8
boundary
62
5
39
2
10
121.017594
20
100.061966
11
121.017591
21
76.874882
0
LINE
8
boundary
62
5
39
2
10
121.017591
20
76.874882
11
139.593430
21
76.744882
0
LINE
8
boundary
62
5
39
2
10
139.593430
20
76.744882
11
139.593430
21
74.398882
0
LINE
8
boundary
62
5
39
2
10
139.593430
20
74.398882
11
121.017591
21
74.398883
0
LINE
8
boundary
62
5
39
2
10
121.017591
20
74.398883
11
121.017589
21
59.871321
0
LINE
8
boundary
62
5
39
2
10
121.017589
20
59.871321
11
121.017587
21
51.081799
0
LINE
8
boundary
62
5
39
2
10
121.017587
20
51.081799
11
137.219398
21
51.081799
0
LINE
8
boundary
62
5
39
2
10
137.219398
20
51.081799
11
137.219398
21
48.735799
0
LINE
8
boundary
62
5
39
2
10
137.219398
20
48.735799
11
121.017586
21
48.735799
0
LINE
8
boundary
62
5
39
2
10
121.017586
20
48.735799
11
121.017582
21
25.548713
0
LINE
8
boundary
62
5
39
2
10
121.017582
20
25.548713
11
142.163173
21
25.418715
0
LINE
8
boundary
62
5
39
2
10
142.163173
20
25.418715
11
142.163173
21
23.072715
0
LINE
8
boundary
62
5
39
2
10
142.163173
20
23.072715
11
121.017581
21
23.072716
0
LINE
8
boundary
62
5
39
2
10
121.017581
20
23.072716
11
121.017578
21
6.667500
0
LINE
8
boundary
62
5
39
2
10
121.017578
20
6.667500
11
148.479965
21
6.667528
0
LINE
8
boundary
62
5
39
2
10
148.479965
20
6.667528
11
175.017614
21
6.667551
0
LINE
8
boundary
62
5
39
2
10
175.017614
20
6.667551
11
155.658847
21
34.392382
0
LINE
8
boundary
62
5
39
2
10
155.658847
20
34.392382
11
153.268245
21
51.678506
0
LINE
8
boundary
62
5
39
2
10
153.268245
20
51.678506
11
159.762670
21
59.871332
0
LINE
8
boundary
62
5
39
2
10
159.762670
20
59.871332
11
158.924286
21
68.964730
0
LINE
8
boundary
62
5
39
2
10
158.924286
20
68.964730
11
156.368132
21
96.689482
0
LINE
8
boundary
62
5
39
2
10
156.368132
20
96.689482
11
160.711781
21
122.834939
0
LINE
8
boundary
62
5
39
2
10
160.711781
20
122.834939
11
168.650917
21
153.567280
0
LINE
8
boundary
62
5
39
2
10
168.650917
20
153.567280
11
167.205877
21
158.053227
0
LINE
8
boundary
62
5
39
2
10
167.205877
20
158.053227
11
172.814658
21
161.157526
0
LINE
8
boundary
62
5
39
2
10
172.814658
20
161.157526
11
173.425924
21
165.889971
0
LINE
8
boundary
62
5
39
2
10
173.425924
20
165.889971
11
175.017602
21
170.622427
0
LINE
8
boundary
62
5
39
2
10
175.017602
20
170.622427
11
126.045310
21
170.622455
0
LINE
8
boundary
62
5
39
2
10
126.045310
20
170.622455
11
121.017605
21
170.622456
0
LINE
8
annotation
62
1
39
211
10
146.565874
20
22.165846
11
147.489651
21
22.165846
0
LINE
8
annotation
62
1
39
211
10
147.489651
20
22.165846
11
147.489651
21
22.165846
0
LINE
8
annotation
62
1
39
211
10
147.489651
20
22.165846
11
147.655795
21
22.180750
0
LINE
8
annotation
62
1
39
211
10
147.655795
20
22.180750
11
147.812130
21
22.223705
0
LINE
8
annotation
62
1
39
211
10
147.812130
20
22.223705
11
147.956057
21
22.292073
0
LINE
8
annotation
62
1
39
211
10
147.956057
20
22.292073
11
148.084976
21
22.383219
0
LINE
8
annotation
62
1
39
211
10
148.084976
20
22.383219
11
148.196285
21
22.494505
0
LINE
8
annotation
62
1
39
211
10
148.196285
20
22.494505
11
148.287385
21
22.623295
0
LINE
8
annotation
62
1
39
211
10
148.287385
20
22.623295
11
148.355676
21
22.766952
0
LINE
8
annotation
62
1
39
211
10
148.355676
20
22.766952
11
148.398558
21
22.922839
0
LINE
8
annotation
62
1
39
211
10
148.398558
20
22.922839
11
148.413429
21
23.088319
0
LINE
8
annotation
62
1
39
211
10
148.413429
20
23.088319
11
148.413429
21
23.550860
0
LINE
8
annotation
62
1
39
211
10
148.413429
20
23.550860
11
148.413429
21
23.550860
0
LINE
8
annotation
62
1
39
211
10
148.413429
20
23.550860
11
148.398558
21
23.716272
0
LINE
8
annotation
62
1
39
211
10
148.398558
20
23.716272
11
148.355676
21
23.872123
0
LINE
8
annotation
62
1
39
211
10
148.355676
20
23.872123
11
148.287385
21
24.015769
0
LINE
8
annotation
62
1
39
211
10
148.287385
20
24.015769
11
148.196285
21
24.144567
0
LINE
8
annotation
62
1
39
211
10
148.196285
20
24.144567
11
148.084976
21
24.255875
0
LINE
8
annotation
62
1
39
211
10
148.084976
20
24.255875
11
147.956057
21
24.347048
0
LINE
8
annotation
62
1
39
211
10
147.956057
20
24.347048
11
147.812130
21
24.415445
0
LINE
8
annotation
62
1
39
211
10
147.812130
20
24.415445
11
147.655795
21
24.458421
0
LINE
8
annotation
62
1
39
211
10
147.655795
20
24.458421
11
147.489651
21
24.473334
0
LINE
8
annotation
62
1
39
211
10
147.489651
20
24.473334
11
147.027110
21
24.473334
0
LINE
8
annotation
62
1
39
211
10
147.027110
20
24.473334
11
147.489651
21
24.473334
0
LINE
8
annotation
62
1
39
211
10
147.489651
20
24.473334
11
147.489651
21
24.473334
0
LINE
8
annotation
62
1
39
211
10
147.489651
20
24.473334
11
147.655795
21
24.488250
0
LINE
8
annotation
62
1
39
211
10
147.655795
20
24.488250
11
147.812130
21
24.531251
0
LINE
8
annotation
62
1
39
211
10
147.812130
20
24.531251
11
147.956057
21
24.599716
0
LINE
8
annotation
62
1
39
211
10
147.956057
20
24.599716
11
148.084976
21
24.691022
0
LINE
8
annotation
62
1
39
211
10
148.084976
20
24.691022
11
148.196285
21
24.802548
0
LINE
8
annotation
62
1
39
211
10
148.196285
20
24.802548
11
148.287385
21
24.931672
0
LINE
8
annotation
62
1
39
211
10
148.287385
20
24.931672
11
148.355676
21
25.075772
0
LINE
8
annotation
62
1
39
211
10
148.355676
20
25.075772
11
148.398558
21
25.232227
0
LINE
8
annotation
62
1
39
211
10
148.398558
20
25.232227
11
148.413429
21
25.398416
0
LINE
8
annotation
62
1
39
211
10
148.413429
20
25.398416
11
148.413429
21
25.398416
0
LINE
8
annotation
62
1
39
211
10
148.413429
20
25.398416
11
148.398558
21
25.563828
0
LINE
8
annotation
62
1
39
211
10
148.398558
20
25.563828
11
148.355676
21
25.719678
0
LINE
8
annotation
62
1
39
211
10
148.355676
20
25.719678
11
148.287385
21
25.863324
0
LINE
8
annotation
62
1
39
211
10
148.287385
20
25.863324
11
148.196285
21
25.992122
0
LINE
8
annotation
62
1
39
211
10
148.196285
20
25.992122
11
148.084976
21
26.103430
0
LINE
8
annotation
62
1
39
211
10
148.084976
20
26.103430
11
147.956057
21
26.194604
0
LINE
8
annotation
62
1
39
211
10
147.956057
20
26.194604
11
147.812130
21
26.263000
0
LINE
8
annotation
62
1
39
211
10
147.812130
20
26.263000
11
147.655795
21
26.305976
0
LINE
8
annotation
62
1
39
211
10
147.655795
20
26.305976
11
147.489651
21
26.320889
0
LINE
8
annotation
62
1
39
211
10
147.489651
20
26.320889
11
146.565874
21
26.320889
0
LINE
8
annotation
62
1
39
211
10
143.700794
20
48.753620
11
141.390958
21
48.753620
0
LINE
8
annotation
62
1
39
211
10
141.390958
20
48.753620
11
142.313432
21
51.988799
0
LINE
8
annotation
62
1
39
211
10
143.008417
20
47.828799
11
143.008417
21
49.676354
0
LINE
8
annotation
62
1
39
211
10
143.996131
20
73.491882
11
144.919908
21
73.491882
0
LINE
8
annotation
62
1
39
211
10
144.919908
20
73.491882
11
144.919908
21
73.491882
0
LINE
8
annotation
62
1
39
211
10
144.919908
20
73.491882
11
145.085709
21
73.506790
0
LINE
8
annotation
62
1
39
211
10
145.085709
20
73.506790
11
145.241861
21
73.549767
0
LINE
8
annotation
62
1
39
211
10
145.241861
20
73.549767
11
145.385735
21
73.618197
0
LINE
8
annotation
62
1
39
211
10
145.385735
20
73.618197
11
145.514696
21
73.709462
0
LINE
8
annotation
62
1
39
211
10
145.514696
20
73.709462
11
145.626113
21
73.820944
0
LINE
8
annotation
62
1
39
211
10
145.626113
20
73.820944
11
145.717352
21
73.950027
0
LINE
8
annotation
62
1
39
211
10
145.717352
20
73.950027
11
145.785783
21
74.094093
0
LINE
8
annotation
62
1
39
211
10
145.785783
20
74.094093
11
145.828772
21
74.250524
0
LINE
8
annotation
62
1
39
211
10
145.828772
20
74.250524
11
145.843686
21
74.416704
0
LINE
8
annotation
62
1
39
211
10
145.843686
20
74.416704
11
145.843686
21
74.876897
0
LINE
8
annotation
62
1
39
211
10
145.843686
20
74.876897
11
145.843686
21
74.876897
0
LINE
8
annotation
62
1
39
211
10
145.843686
20
74.876897
11
145.828780
21
75.042996
0
LINE
8
annotation
62
1
39
211
10
145.828780
20
75.042996
11
145.785813
21
75.199211
0
LINE
8
annotation
62
1
39
211
10
145.785813
20
75.199211
11
145.717410
21
75.342965
0
LINE
8
annotation
62
1
39
211
10
145.717410
20
75.342965
11
145.626199
21
75.471677
0
LINE
8
annotation
62
1
39
211
10
145.626199
20
75.471677
11
145.514803
21
75.582770
0
LINE
8
annotation
62
1
39
211
10
145.514803
20
75.582770
11
145.385851
21
75.673664
0
LINE
8
annotation
62
1
39
211
10
145.385851
20
75.673664
11
145.241967
21
75.741782
0
LINE
8
annotation
62
1
39
211
10
145.241967
20
75.741782
11
145.085777
21
75.784543
0
LINE
8
annotation
62
1
39
211
10
145.085777
20
75.784543
11
144.919908
21
75.799370
0
LINE
8
annotation
62
1
39
211
10
144.919908
20
75.799370
11
143.996131
21
75.799370
0
LINE
8
annotation
62
1
39
211
10
143.996131
20
75.799370
11
143.996131
21
77.651882
0
LINE
8
annotation
62
1
39
211
10
143.996131
20
77.651882
11
145.843686
21
77.651882
0
LINE
8
annotation
62
1
39
211
10
144.831204
20
103.314966
11
144.831204
21
103.314966
0
LINE
8
annotation
62
1
39
211
10
144.831204
20
103.314966
11
144.566565
21
103.215742
0
LINE
8
annotation
62
1
39
211
10
144.566565
20
103.215742
11
144.323724
21
103.082050
0
LINE
8
annotation
62
1
39
211
10
144.323724
20
103.082050
11
144.105174
21
102.917239
0
LINE
8
annotation
62
1
39
211
10
144.105174
20
102.917239
11
143.913407
21
102.724659
0
LINE
8
annotation
62
1
39
211
10
143.913407
20
102.724659
11
143.750918
21
102.507659
0
LINE
8
annotation
62
1
39
211
10
143.750918
20
102.507659
11
143.620197
21
102.269589
0
LINE
8
annotation
62
1
39
211
10
143.620197
20
102.269589
11
143.523739
21
102.013798
0
LINE
8
annotation
62
1
39
211
10
143.523739
20
102.013798
11
143.464036
21
101.743637
0
LINE
8
annotation
62
1
39
211
10
143.464036
20
101.743637
11
143.443581
21
101.462454
0
LINE
8
annotation
62
1
39
211
10
143.443581
20
101.462454
11
143.443581
21
100.079787
0
LINE
8
annotation
62
1
39
211
10
143.443581
20
100.079787
11
143.443581
21
100.079787
0
LINE
8
annotation
62
1
39
211
10
143.443581
20
100.079787
11
143.458496
21
99.913608
0
LINE
8
annotation
62
1
39
211
10
143.458496
20
99.913608
11
143.501484
21
99.757176
0
LINE
8
annotation
62
1
39
211
10
143.501484
20
99.757176
11
143.569915
21
99.613111
0
LINE
8
annotation
62
1
39
211
10
143.569915
20
99.613111
11
143.661155
21
99.484028
0
LINE
8
annotation
62
1
39
211
10
143.661155
20
99.484028
11
143.772571
21
99.372545
0
LINE
8
annotation
62
1
39
211
10
143.772571
20
99.372545
11
143.901533
21
99.281280
0
LINE
8
annotation
62
1
39
211
10
143.901533
20
99.281280
11
144.045406
21
99.212851
0
LINE
8
annotation
62
1
39
211
10
144.045406
20
99.212851
11
144.201559
21
99.169873
0
LINE
8
annotation
62
1
39
211
10
144.201559
20
99.169873
11
144.367359
21
99.154966
0
LINE
8
annotation
62
1
39
211
10
144.367359
20
99.154966
11
144.367359
21
99.154966
0
LINE
8
annotation
62
1
39
211
10
144.367359
20
99.154966
11
144.533502
21
99.169873
0
LINE
8
annotation
62
1
39
211
10
144.533502
20
99.169873
11
144.689838
21
99.212851
0
LINE
8
annotation
62
1
39
211
10
144.689838
20
99.212851
11
144.833765
21
99.281280
0
LINE
8
annotation
62
1
39
211
10
144.833765
20
99.281280
11
144.962683
21
99.372545
0
LINE
8
annotation
62
1
39
211
10
144.962683
20
99.372545
11
145.073992
21
99.484028
0
LINE
8
annotation
62
1
39
211
10
145.073992
20
99.484028
11
145.165093
21
99.613111
0
LINE
8
annotation
62
1
39
211
10
145.165093
20
99.613111
11
145.233384
21
99.757176
0
LINE
8
annotation
62
1
39
211
10
145.233384
20
99.757176
11
145.276265
21
99.913608
0
LINE
8
annotation
62
1
39
211
10
145.276265
20
99.913608
11
145.291137
21
100.079787
0
LINE
8
annotation
62
1
39
211
10
145.291137
20
100.079787
11
145.291137
21
100.539980
0
LINE
8
annotation
62
1
39
211
10
145.291137
20
100.539980
11
145.291137
21
100.539980
0
LINE
8
annotation
62
1
39
211
10
145.291137
20
100.539980
11
145.276265
21
100.706079
0
LINE
8
annotation
62
1
39
211
10
145.276265
20
100.706079
11
145.233384
21
100.862295
0
LINE
8
annotation
62
1
39
211
10
145.233384
20
100.862295
11
145.165093
21
101.006048
0
LINE
8
annotation
62
1
39
211
10
145.165093
20
101.006048
11
145.073992
21
101.134761
0
LINE
8
annotation
62
1
39
211
10
145.073992
20
101.134761
11
144.962683
21
101.245853
0
LINE
8
annotation
62
1
39
211
10
144.962683
20
101.245853
11
144.833765
21
101.336748
0
LINE
8
annotation
62
1
39
211
10
144.833765
20
101.336748
11
144.689838
21
101.404865
0
LINE
8
annotation
62
1
39
211
10
144.689838
20
101.404865
11
144.533502
21
101.447627
0
LINE
8
annotation
62
1
39
211
10
144.533502
20
101.447627
11
144.367359
21
101.462454
0
LINE
8
annotation
62
1
39
211
10
144.367359
20
101.462454
11
143.443581
21
101.462454
0
LINE
8
annotation
62
1
39
211
10
143.327881
20
98.634966
11
145.407881
21
98.634966
0
LINE
8
annotation
62
1
39
211
10
146.740494
20
124.818049
11
147.665315
21
128.978049
0
LINE
8
annotation
62
1
39
211
10
147.665315
20
128.978049
11
145.815412
21
128.978049
0
LINE
8
annotation
62
1
39
211
10
147.665315
20
127.125537
11
146.740494
21
127.125537
0
LINE
8
annotation
62
1
39
211
10
149.083086
20
151.403476
11
149.083086
21
151.403476
0
LINE
8
annotation
62
1
39
211
10
149.083086
20
151.403476
11
149.098000
21
151.237377
0
LINE
8
annotation
62
1
39
211
10
149.098000
20
151.237377
11
149.140989
21
151.081161
0
LINE
8
annotation
62
1
39
211
10
149.140989
20
151.081161
11
149.209419
21
150.937408
0
LINE
8
annotation
62
1
39
211
10
149.209419
20
150.937408
11
149.300659
21
150.808696
0
LINE
8
annotation
62
1
39
211
10
149.300659
20
150.808696
11
149.412076
21
150.697603
0
LINE
8
annotation
62
1
39
211
10
149.412076
20
150.697603
11
149.541037
21
150.606708
0
LINE
8
annotation
62
1
39
211
10
149.541037
20
150.606708
11
149.684910
21
150.538591
0
LINE
8
annotation
62
1
39
211
10
149.684910
20
150.538591
11
149.841063
21
150.495829
0
LINE
8
annotation
62
1
39
211
10
149.841063
20
150.495829
11
150.006863
21
150.481002
0
LINE
8
annotation
62
1
39
211
10
150.006863
20
150.481002
11
150.006863
21
150.481002
0
LINE
8
annotation
62
1
39
211
10
150.006863
20
150.481002
11
150.172663
21
150.495829
0
LINE
8
annotation
62
1
39
211
10
150.172663
20
150.495829
11
150.328816
21
150.538591
0
LINE
8
annotation
62
1
39
211
10
150.328816
20
150.538591
11
150.472690
21
150.606708
0
LINE
8
annotation
62
1
39
211
10
150.472690
20
150.606708
11
150.601651
21
150.697603
0
LINE
8
annotation
62
1
39
211
10
150.601651
20
150.697603
11
150.713067
21
150.808696
0
LINE
8
annotation
62
1
39
211
10
150.713067
20
150.808696
11
150.804307
21
150.937408
0
LINE
8
annotation
62
1
39
211
10
150.804307
20
150.937408
11
150.872738
21
151.081161
0
LINE
8
annotation
62
1
39
211
10
150.872738
20
151.081161
11
150.915726
21
151.237377
0
LINE
8
annotation
62
1
39
211
10
150.915726
20
151.237377
11
150.930641
21
151.403476
0
LINE
8
annotation
62
1
39
211
10
150.930641
20
151.403476
11
150.930641
21
151.863669
0
LINE
8
annotation
62
1
39
211
10
150.930641
20
151.863669
11
150.930641
21
151.863669
0
LINE
8
annotation
62
1
39
211
10
150.930641
20
151.863669
11
150.915735
21
152.029848
0
LINE
8
annotation
62
1
39
211
10
150.915735
20
152.029848
11
150.872768
21
152.186280
0
LINE
8
annotation
62
1
39
211
10
150.872768
20
152.186280
11
150.804365
21
152.330346
0
LINE
8
annotation
62
1
39
211
10
150.804365
20
152.330346
11
150.713153
21
152.459428
0
LINE
8
annotation
62
1
39
211
10
150.713153
20
152.459428
11
150.601758
21
152.570911
0
LINE
8
annotation
62
1
39
211
10
150.601758
20
152.570911
11
150.472805
21
152.662176
0
LINE
8
annotation
62
1
39
211
10
150.472805
20
152.662176
11
150.328921
21
152.730606
0
LINE
8
annotation
62
1
39
211
10
150.328921
20
152.730606
11
150.172732
21
152.773583
0
LINE
8
annotation
62
1
39
211
10
150.172732
20
152.773583
11
150.006863
21
152.788490
0
LINE
8
annotation
62
1
39
211
10
150.006863
20
152.788490
11
150.006863
21
152.788490
0
LINE
8
annotation
62
1
39
211
10
150.006863
20
152.788490
11
149.840994
21
152.773574
0
LINE
8
annotation
62
1
39
211
10
149.840994
20
152.773574
11
149.684805
21
152.730576
0
LINE
8
annotation
62
1
39
211
10
149.684805
20
152.730576
11
149.540921
21
152.662118
0
LINE
8
annotation
62
1
39
211
10
149.540921
20
152.662118
11
149.411968
21
152.570825
0
LINE
8
annotation
62
1
39
211
10
149.411968
20
152.570825
11
149.300573
21
152.459321
0
LINE
8
annotation
62
1
39
211
10
149.300573
20
152.459321
11
149.209361
21
152.330230
0
LINE
8
annotation
62
1
39
211
10
149.209361
20
152.330230
11
149.140959
21
152.186175
0
LINE
8
annotation
62
1
39
211
10
149.140959
20
152.186175
11
149.097992
21
152.029780
0
LINE
8
annotation
62
1
39
211
10
149.097992
20
152.029780
11
149.083086
21
151.863669
0
LINE
8
annotation
62
1
39
211
10
149.083086
20
151.863669
11
149.083086
21
151.403476
0
LINE
8
annotation
62
1
39
211
10
150.930641
20
153.713572
11
150.930641
21
153.713572
0
LINE
8
annotation
62
1
39
211
10
150.930641
20
153.713572
11
150.915735
21
153.878984
0
LINE
8
annotation
62
1
39
211
10
150.915735
20
153.878984
11
150.872768
21
154.034835
0
LINE
8
annotation
62
1
39
211
10
150.872768
20
154.034835
11
150.804365
21
154.178481
0
LINE
8
annotation
62
1
39
211
10
150.804365
20
154.178481
11
150.713153
21
154.307279
0
LINE
8
annotation
62
1
39
211
10
150.713153
20
154.307279
11
150.601758
21
154.418587
0
LINE
8
annotation
62
1
39
211
10
150.601758
20
154.418587
11
150.472805
21
154.509760
0
LINE
8
annotation
62
1
39
211
10
150.472805
20
154.509760
11
150.328921
21
154.578157
0
LINE
8
annotation
62
1
39
211
10
150.328921
20
154.578157
11
150.172732
21
154.621133
0
LINE
8
annotation
62
1
39
211
10
150.172732
20
154.621133
11
150.006863
21
154.636046
0
LINE
8
annotation
62
1
39
211
10
150.006863
20
154.636046
11
150.006863
21
154.636046
0
LINE
8
annotation
62
1
39
211
10
150.006863
20
154.636046
11
149.840994
21
154.621133
0
LINE
8
annotation
62
1
39
211
10
149.840994
20
154.621133
11
149.684805
21
154.578157
0
LINE
8
annotation
62
1
39
211
10
149.684805
20
154.578157
11
149.540921
21
154.509760
0
LINE
8
annotation
62
1
39
211
10
149.540921
20
154.509760
11
149.411968
21
154.418587
0
LINE
8
annotation
62
1
39
211
10
149.411968
20
154.418587
11
149.300573
21
154.307279
0
LINE
8
annotation
62
1
39
211
10
149.300573
20
154.307279
11
149.209361
21
154.178481
0
LINE
8
annotation
62
1
39
211
10
149.209361
20
154.178481
11
149.140959
21
154.034835
0
LINE
8
annotation
62
1
39
211
10
149.140959
20
154.034835
11
149.097992
21
153.878984
0
LINE
8
annotation
62
1
39
211
10
149.097992
20
153.878984
11
149.083086
21
153.713572
0
LINE
8
annotation
62
1
39
211
10
149.083086
20
153.713572
11
149.083086
21
153.713572
0
LINE
8
annotation
62
1
39
211
10
149.083086
20
153.713572
11
149.098000
21
153.547384
0
LINE
8
annotation
62
1
39
211
10
149.098000
20
153.547384
11
149.140989
21
153.390929
0
LINE
8
annotation
62
1
39
211
10
149.140989
20
153.390929
11
149.209419
21
153.246828
0
LINE
8
annotation
62
1
39
211
10
149.209419
20
153.246828
11
149.300659
21
153.117704
0
LINE
8
annotation
62
1
39
211
10
149.300659
20
153.117704
11
149.412076
21
153.006178
0
LINE
8
annotation
62
1
39
211
10
149.412076
20
153.006178
11
149.541037
21
152.914872
0
LINE
8
annotation
62
1
39
211
10
149.541037
20
152.914872
11
149.684910
21
152.846408
0
LINE
8
annotation
62
1
39
211
10
149.684910
20
152.846408
11
149.841063
21
152.803407
0
LINE
8
annotation
62
1
39
211
10
149.841063
20
152.803407
11
150.006863
21
152.788490
0
LINE
8
annotation
62
1
39
211
10
150.006863
20
152.788490
11
150.006863
21
152.788490
0
LINE
8
annotation
62
1
39
211
10
150.006863
20
152.788490
11
150.172663
21
152.803407
0
LINE
8
annotation
62
1
39
211
10
150.172663
20
152.803407
11
150.328816
21
152.846408
0
LINE
8
annotation
62
1
39
211
10
150.328816
20
152.846408
11
150.472690
21
152.914872
0
LINE
8
annotation
62
1
39
211
10
150.472690
20
152.914872
11
150.601651
21
153.006178
0
LINE
8
annotation
62
1
39
211
10
150.601651
20
153.006178
11
150.713067
21
153.117704
0
LINE
8
annotation
62
1
39
211
10
150.713067
20
153.117704
11
150.804307
21
153.246828
0
LINE
8
annotation
62
1
39
211
10
150.804307
20
153.246828
11
150.872738
21
153.390929
0
LINE
8
annotation
62
1
39
211
10
150.872738
20
153.390929
11
150.915726
21
153.547384
0
LINE
8
annotation
62
1
39
211
10
150.915726
20
153.547384
11
150.930641
21
153.713572
0
LINE
8
annotation
62
1
39
211
10
137.965969
20
165.896166
11
135.997325
21
163.048704
0
LINE
8
annotation
62
1
39
211
10
135.997325
20
163.048704
11
134.028312
21
165.896166
0
LINE
8
annotation
62
1
39
211
10
135.997325
20
163.277848
11
135.997325
21
159.992827
0
LINE
8
annotation
62
1
39
211
10
143.407965
20
162.944497
11
140.180322
21
162.944497
0
LINE
8
annotation
62
1
39
211
10
146.933513
20
159.993012
11
146.933513
21
165.895981
0
LINE
8
annotation
62
1
39
211
10
146.933513
20
165.895981
11
145.621208
21
164.583305
0
LINE
8
annotation
62
1
39
211
10
150.095115
20
160.070874
11
150.095115
21
160.070874
0
LINE
8
annotation
62
1
39
211
10
150.095115
20
160.070874
11
150.232307
21
160.019588
0
LINE
8
annotation
62
1
39
211
10
150.232307
20
160.019588
11
150.373010
21
159.994109
0
LINE
8
annotation
62
1
39
211
10
150.373010
20
159.994109
11
150.514041
21
159.993396
0
LINE
8
annotation
62
1
39
211
10
150.514041
20
159.993396
11
150.652221
21
160.016412
0
LINE
8
annotation
62
1
39
211
10
150.652221
20
160.016412
11
150.784367
21
160.062117
0
LINE
8
annotation
62
1
39
211
10
150.784367
20
160.062117
11
150.907301
21
160.129473
0
LINE
8
annotation
62
1
39
211
10
150.907301
20
160.129473
11
151.017840
21
160.217441
0
LINE
8
annotation
62
1
39
211
10
151.017840
20
160.217441
11
151.112804
21
160.324981
0
LINE
8
annotation
62
1
39
211
10
151.112804
20
160.324981
11
151.189011
21
160.451054
0
LINE
8
annotation
62
1
39
211
10
151.189011
20
160.451054
11
151.189011
21
160.451054
0
LINE
8
annotation
62
1
39
211
10
151.189011
20
160.451054
11
151.416387
21
160.983283
0
LINE
8
annotation
62
1
39
211
10
151.416387
20
160.983283
11
151.586919
21
161.530917
0
LINE
8
annotation
62
1
39
211
10
151.586919
20
161.530917
11
151.700607
21
162.089589
0
LINE
8
annotation
62
1
39
211
10
151.700607
20
162.089589
11
151.757451
21
162.654933
0
LINE
8
annotation
62
1
39
211
10
151.757451
20
162.654933
11
151.757451
21
163.222584
0
LINE
8
annotation
62
1
39
211
10
151.757451
20
163.222584
11
151.700607
21
163.788175
0
LINE
8
annotation
62
1
39
211
10
151.700607
20
163.788175
11
151.586919
21
164.347341
0
LINE
8
annotation
62
1
39
211
10
151.586919
20
164.347341
11
151.416387
21
164.895715
0
LINE
8
annotation
62
1
39
211
10
151.416387
20
164.895715
11
151.189011
21
165.428931
0
LINE
8
annotation
62
1
39
211
10
151.189011
20
165.428931
11
151.189011
21
165.428931
0
LINE
8
annotation
62
1
39
211
10
151.189011
20
165.428931
11
151.160096
21
165.482744
0
LINE
8
annotation
62
1
39
211
10
151.160096
20
165.482744
11
151.127314
21
165.534192
0
LINE
8
annotation
62
1
39
211
10
151.127314
20
165.534192
11
151.090912
21
165.583024
0
LINE
8
annotation
62
1
39
211
10
151.090912
20
165.583024
11
151.051138
21
165.628985
0
LINE
8
annotation
62
1
39
211
10
151.051138
20
165.628985
11
151.008238
21
165.671823
0
LINE
8
annotation
62
1
39
211
10
151.008238
20
165.671823
11
150.962458
21
165.711286
0
LINE
8
annotation
62
1
39
211
10
150.962458
20
165.711286
11
150.914046
21
165.747120
0
LINE
8
annotation
62
1
39
211
10
150.914046
20
165.747120
11
150.863249
21
165.779072
0
LINE
8
annotation
62
1
39
211
10
150.863249
20
165.779072
11
150.810312
21
165.806890
0
LINE
8
annotation
62
1
39
211
10
150.810312
20
165.806890
11
150.810312
21
165.806890
0
LINE
8
annotation
62
1
39
211
10
150.810312
20
165.806890
11
150.672031
21
165.859287
0
LINE
8
annotation
62
1
39
211
10
150.672031
20
165.859287
11
150.530504
21
165.885638
0
LINE
8
annotation
62
1
39
211
10
150.530504
20
165.885638
11
150.388877
21
165.886987
0
LINE
8
annotation
62
1
39
211
10
150.388877
20
165.886987
11
150.250294
21
165.864379
0
LINE
8
annotation
62
1
39
211
10
150.250294
20
165.864379
11
150.117899
21
165.818859
0
LINE
8
annotation
62
1
39
211
10
150.117899
20
165.818859
11
149.994836
21
165.751472
0
LINE
8
annotation
62
1
39
211
10
149.994836
20
165.751472
11
149.884250
21
165.663263
0
LINE
8
annotation
62
1
39
211
10
149.884250
20
165.663263
11
149.789284
21
165.555278
0
LINE
8
annotation
62
1
39
211
10
149.789284
20
165.555278
11
149.713084
21
165.428561
0
LINE
8
annotation
62
1
39
211
10
149.713084
20
165.428561
11
149.713084
21
165.428561
0
LINE
8
annotation
62
1
39
211
10
149.713084
20
165.428561
11
149.486805
21
164.896441
0
LINE
8
annotation
62
1
39
211
10
149.486805
20
164.896441
11
149.317096
21
164.348890
0
LINE
8
annotation
62
1
39
211
10
149.317096
20
164.348890
11
149.203957
21
163.790273
0
LINE
8
annotation
62
1
39
211
10
149.203957
20
163.790273
11
149.147387
21
163.224956
0
LINE
8
annotation
62
1
39
211
10
149.147387
20
163.224956
11
149.147387
21
162.657305
0
LINE
8
annotation
62
1
39
211
10
149.147387
20
162.657305
11
149.203957
21
162.091686
0
LINE
8
annotation
62
1
39
211
10
149.203957
20
162.091686
11
149.317096
21
161.532466
0
LINE
8
annotation
62
1
39
211
10
149.317096
20
161.532466
11
149.486805
21
160.984010
0
LINE
8
annotation
62
1
39
211
10
149.486805
20
160.984010
11
149.713084
21
160.450684
0
LINE
8
annotation
62
1
39
211
10
149.713084
20
160.450684
11
149.713084
21
160.450684
0
LINE
8
annotation
62
1
39
211
10
149.713084
20
160.450684
11
149.741895
21
160.396978
0
LINE
8
annotation
62
1
39
211
10
149.741895
20
160.396978
11
149.774434
21
160.345786
0
LINE
8
annotation
62
1
39
211
10
149.774434
20
160.345786
11
149.810566
21
160.297263
0
LINE
8
annotation
62
1
39
211
10
149.810566
20
160.297263
11
149.850153
21
160.251564
0
LINE
8
annotation
62
1
39
211
10
149.850153
20
160.251564
11
149.893058
21
160.208845
0
LINE
8
annotation
62
1
39
211
10
149.893058
20
160.208845
11
149.939144
21
160.169261
0
LINE
8
annotation
62
1
39
211
10
149.939144
20
160.169261
11
149.988273
21
160.132968
0
LINE
8
annotation
62
1
39
211
10
149.988273
20
160.132968
11
150.040309
21
160.100121
0
LINE
8
annotation
62
1
39
211
10
150.040309
20
160.100121
11
150.095115
21
160.070874
0
LINE
8
frame
62
5
39
2
10
0.000000
20
0.000000
11
200.000000
21
0.000000
0
LINE
8
frame
62
5
39
2
10
200.000000
20
0.000000
11
200.000000
21
296.926000
0
LINE
8
frame
62
5
39
2
10
200.000000
20
296.926000
11
0.000000
21
296.926000
0
LINE
8
frame
62
5
39
2
10
0.000000
20
296.926000
11
0.000000
21
0.000000
0
ENDSEC
0
EOF
