0
SECTION
2
HEADER
9
$ACADVER
1
AC1009
0
ENDSEC
0
SECTION
2
TABLES
0
TABLE
2
VPORT
70
1
0
VPORT
2
ACTIVE
70
0
10
0.0
20
0.0
11
0.0
21
0.0
12
0.0
22
0.0
13
0.0
23
0.0
14
0.0
24
0.0
15
0.0
25
0.0
16
0.0
26
0.0
36
0.0
17
0.0
27
0.0
37
0.0
40
0.0
41
0.0
42
0.0
43
0.0
44
0.0
50
0.0
51
0.0
71
0
72
1000
73
1
74
3
75
0
76
0
77
0
78
0
0
ENDTAB
0
ENDSEC
0
SECTION
2
ENTITIES
0
LINE
8
boundary
62
5
39
2
10
6.667504
20
226.144248
11
6.667500
21
144.083490
0
LINE
8
boundary
62
5
39
2
10
6.667500
20
144.083490
11
6.667500
21
88.728292
0
LINE
8
boundary
62
5
39
2
10
6.667500
20
88.728292
11
6.667504
21
6.667517
0
LINE
8
boundary
62
5
39
2
10
6.667504
20
6.667517
11
44.493679
21
6.667500
0
LINE
8
boundary
62
5
39
2
10
44.493679
20
6.667500
11
60.667503
21
6.667504
0
LINE
8
boundary
62
5
39
2
10
60.667503
20
6.667504
11
49.534463
21
19.382669
0
LINE
8
boundary
62
5
39
2
10
49.534463
20
19.382669
11
28.067069
21
19.512668
0
LINE
8
boundary
62
5
39
2
10
28.067069
20
19.512668
11
28.067069
21
21.858669
0
LINE
8
boundary
62
5
39
2
10
28.067069
20
21.858669
11
47.262423
21
21.858669
0
LINE
8
boundary
62
5
39
2
10
47.262423
20
21.858669
11
29.945543
21
41.755385
0
LINE
8
boundary
62
5
39
2
10
29.945543
20
41.755385
11
29.077499
21
43.188003
0
LINE
8
boundary
62
5
39
2
10
29.077499
20
43.188003
11
17.999500
21
43.442721
0
LINE
8
boundary
62
5
39
2
10
17.999500
20
43.442721
11
17.999501
21
45.788721
0
LINE
8
boundary
62
5
39
2
10
17.999501
20
45.788721
11
29.077499
21
45.788721
0
LINE
8
boundary
62
5
39
2
10
29.077499
20
45.788721
11
29.077500
21
67.242776
0
LINE
8
boundary
62
5
39
2
10
29.077500
20
67.242776
11
17.999501
21
67.372774
0
LINE
8
boundary
62
5
39
2
10
17.999501
20
67.372774
11
17.999501
21
69.718774
0
LINE
8
boundary
62
5
39
2
10
17.999501
20
69.718774
11
29.077500
21
69.718773
0
LINE
8
boundary
62
5
39
2
10
29.077500
20
69.718773
11
29.077501
21
72.475142
0
LINE
8
boundary
62
5
39
2
10
29.077501
20
72.475142
11
41.693102
21
79.424773
0
LINE
8
boundary
62
5
39
2
10
41.693102
20
79.424773
11
50.137507
21
88.728342
0
LINE
8
boundary
62
5
39
2
10
50.137507
20
88.728342
11
46.809392
21
91.172826
0
LINE
8
boundary
62
5
39
2
10
46.809392
20
91.172826
11
26.362982
21
91.302826
0
LINE
8
boundary
62
5
39
2
10
26.362982
20
91.302826
11
26.362982
21
93.648826
0
LINE
8
boundary
62
5
39
2
10
26.362982
20
93.648826
11
43.271076
21
93.648826
0
LINE
8
boundary
62
5
39
2
10
43.271076
20
93.648826
11
29.161992
21
104.134753
0
LINE
8
boundary
62
5
39
2
10
29.161992
20
104.134753
11
18.547497
21
108.995651
0
LINE
8
boundary
62
5
39
2
10
18.547497
20
108.995651
11
18.547497
21
115.102881
0
LINE
8
boundary
62
5
39
2
10
18.547497
20
115.102881
11
12.734499
21
115.232878
0
LINE
8
boundary
62
5
39
2
10
12.734499
20
115.232878
11
12.734499
21
117.578879
0
LINE
8
boundary
62
5
39
2
10
12.734499
20
117.578879
11
18.547497
21
117.578879
0
LINE
8
boundary
62
5
39
2
10
18.547497
20
117.578879
11
18.547497
21
123.816160
0
LINE
8
boundary
62
5
39
2
10
18.547497
20
123.816160
11
29.162010
21
128.677114
0
LINE
8
boundary
62
5
39
2
10
29.162010
20
128.677114
11
43.261235
21
139.032931
0
LINE
8
boundary
62
5
39
2
10
43.261235
20
139.032931
11
26.362913
21
139.162931
0
LINE
8
boundary
62
5
39
2
10
26.362913
20
139.162931
11
26.362914
21
141.508931
0
LINE
8
boundary
62
5
39
2
10
26.362914
20
141.508931
11
46.632257
21
141.508931
0
LINE
8
boundary
62
5
39
2
10
46.632257
20
141.508931
11
50.137511
21
144.083524
0
LINE
8
boundary
62
5
39
2
10
50.137511
20
144.083524
11
41.693123
21
153.387077
0
LINE
8
boundary
62
5
39
2
10
41.693123
20
153.387077
11
29.077501
21
160.336649
0
LINE
8
boundary
62
5
39
2
10
29.077501
20
160.336649
11
29.077501
21
162.962987
0
LINE
8
boundary
62
5
39
2
10
29.077501
20
162.962987
11
17.999501
21
163.092984
0
LINE
8
boundary
62
5
39
2
10
17.999501
20
163.092984
11
17.999501
21
165.438983
0
LINE
8
boundary
62
5
39
2
10
17.999501
20
165.438983
11
29.077501
21
165.438983
0
LINE
8
boundary
62
5
39
2
10
29.077501
20
165.438983
11
29.077500
21
186.893040
0
LINE
8
boundary
62
5
39
2
10
29.077500
20
186.893040
11
17.999501
21
187.023036
0
LINE
8
boundary
62
5
39
2
10
17.999501
20
187.023036
11
17.999501
21
189.369036
0
LINE
8
boundary
62
5
39
2
10
17.999501
20
189.369036
11
29.077500
21
189.369036
0
LINE
8
boundary
62
5
39
2
10
29.077500
20
189.369036
11
29.945514
21
191.056329
0
LINE
8
boundary
62
5
39
2
10
29.945514
20
191.056329
11
47.252771
21
210.823089
0
LINE
8
boundary
62
5
39
2
10
47.252771
20
210.823089
11
28.067095
21
210.953088
0
LINE
8
boundary
62
5
39
2
10
28.067095
20
210.953088
11
28.067095
21
213.299089
0
LINE
8
boundary
62
5
39
2
10
28.067095
20
213.299089
11
49.420691
21
213.299089
0
LINE
8
boundary
62
5
39
2
10
49.420691
20
213.299089
11
60.667539
21
226.144206
0
LINE
8
boundary
62
5
39
2
10
60.667539
20
226.144206
11
44.493660
21
226.144218
0
LINE
8
boundary
62
5
39
2
10
44.493660
20
226.144218
11
6.667504
21
226.144248
0
LINE
8
annotation
62
1
39
211
10
23.663325
20
18.605635
11
21.815770
21
18.605635
0
LINE
8
annotation
62
1
39
211
10
21.815770
20
18.605635
11
23.522972
21
21.354010
0
LINE
8
annotation
62
1
39
211
10
23.522972
20
21.354010
11
23.522972
21
21.354010
0
LINE
8
annotation
62
1
39
211
10
23.522972
20
21.354010
11
23.525012
21
21.356536
0
LINE
8
annotation
62
1
39
211
10
23.525012
20
21.356536
11
23.526970
21
21.359083
0
LINE
8
annotation
62
1
39
211
10
23.526970
20
21.359083
11
23.528856
21
21.361673
0
LINE
8
annotation
62
1
39
211
10
23.528856
20
21.361673
11
23.530684
21
21.364327
0
LINE
8
annotation
62
1
39
211
10
23.530684
20
21.364327
11
23.532467
21
21.367067
0
LINE
8
annotation
62
1
39
211
10
23.532467
20
21.367067
11
23.534218
21
21.369915
0
LINE
8
annotation
62
1
39
211
10
23.534218
20
21.369915
11
23.535950
21
21.372891
0
LINE
8
annotation
62
1
39
211
10
23.535950
20
21.372891
11
23.537675
21
21.376017
0
LINE
8
annotation
62
1
39
211
10
23.537675
20
21.376017
11
23.539407
21
21.379316
0
LINE
8
annotation
62
1
39
211
10
23.539407
20
21.379316
11
23.539407
21
21.379316
0
LINE
8
annotation
62
1
39
211
10
23.539407
20
21.379316
11
23.609897
21
21.530664
0
LINE
8
annotation
62
1
39
211
10
23.609897
20
21.530664
11
23.651076
21
21.687549
0
LINE
8
annotation
62
1
39
211
10
23.651076
20
21.687549
11
23.663953
21
21.846427
0
LINE
8
annotation
62
1
39
211
10
23.663953
20
21.846427
11
23.649538
21
22.003753
0
LINE
8
annotation
62
1
39
211
10
23.649538
20
22.003753
11
23.608839
21
22.155981
0
LINE
8
annotation
62
1
39
211
10
23.608839
20
22.155981
11
23.542866
21
22.299567
0
LINE
8
annotation
62
1
39
211
10
23.542866
20
22.299567
11
23.452628
21
22.430965
0
LINE
8
annotation
62
1
39
211
10
23.452628
20
22.430965
11
23.339134
21
22.546632
0
LINE
8
annotation
62
1
39
211
10
23.339134
20
22.546632
11
23.203393
21
22.643021
0
LINE
8
annotation
62
1
39
211
10
23.203393
20
22.643021
11
23.203393
21
22.643021
0
LINE
8
annotation
62
1
39
211
10
23.203393
20
22.643021
11
23.051624
21
22.712509
0
LINE
8
annotation
62
1
39
211
10
23.051624
20
22.712509
11
22.894498
21
22.753054
0
LINE
8
annotation
62
1
39
211
10
22.894498
20
22.753054
11
22.735528
21
22.765567
0
LINE
8
annotation
62
1
39
211
10
22.735528
20
22.765567
11
22.578226
21
22.750962
0
LINE
8
annotation
62
1
39
211
10
22.578226
20
22.750962
11
22.426105
21
22.710150
0
LINE
8
annotation
62
1
39
211
10
22.426105
20
22.710150
11
22.282678
21
22.644045
0
LINE
8
annotation
62
1
39
211
10
22.282678
20
22.644045
11
22.151458
21
22.553559
0
LINE
8
annotation
62
1
39
211
10
22.151458
20
22.553559
11
22.035957
21
22.439604
0
LINE
8
annotation
62
1
39
211
10
22.035957
20
22.439604
11
21.939688
21
22.303094
0
LINE
8
annotation
62
1
39
211
10
21.939688
20
22.303094
11
21.818379
21
22.070388
0
LINE
8
annotation
62
1
39
211
10
11.748201
20
42.535851
11
12.671979
21
42.535851
0
LINE
8
annotation
62
1
39
211
10
12.671979
20
42.535851
11
12.671979
21
42.535851
0
LINE
8
annotation
62
1
39
211
10
12.671979
20
42.535851
11
12.838122
21
42.550756
0
LINE
8
annotation
62
1
39
211
10
12.838122
20
42.550756
11
12.994458
21
42.593710
0
LINE
8
annotation
62
1
39
211
10
12.994458
20
42.593710
11
13.138385
21
42.662079
0
LINE
8
annotation
62
1
39
211
10
13.138385
20
42.662079
11
13.267303
21
42.753225
0
LINE
8
annotation
62
1
39
211
10
13.267303
20
42.753225
11
13.378612
21
42.864511
0
LINE
8
annotation
62
1
39
211
10
13.378612
20
42.864511
11
13.469713
21
42.993301
0
LINE
8
annotation
62
1
39
211
10
13.469713
20
42.993301
11
13.538004
21
43.136957
0
LINE
8
annotation
62
1
39
211
10
13.538004
20
43.136957
11
13.580885
21
43.292844
0
LINE
8
annotation
62
1
39
211
10
13.580885
20
43.292844
11
13.595757
21
43.458325
0
LINE
8
annotation
62
1
39
211
10
13.595757
20
43.458325
11
13.595757
21
43.920866
0
LINE
8
annotation
62
1
39
211
10
13.595757
20
43.920866
11
13.595757
21
43.920866
0
LINE
8
annotation
62
1
39
211
10
13.595757
20
43.920866
11
13.580885
21
44.086278
0
LINE
8
annotation
62
1
39
211
10
13.580885
20
44.086278
11
13.538004
21
44.242128
0
LINE
8
annotation
62
1
39
211
10
13.538004
20
44.242128
11
13.469713
21
44.385774
0
LINE
8
annotation
62
1
39
211
10
13.469713
20
44.385774
11
13.378612
21
44.514573
0
LINE
8
annotation
62
1
39
211
10
13.378612
20
44.514573
11
13.267303
21
44.625880
0
LINE
8
annotation
62
1
39
211
10
13.267303
20
44.625880
11
13.138385
21
44.717054
0
LINE
8
annotation
62
1
39
211
10
13.138385
20
44.717054
11
12.994458
21
44.785450
0
LINE
8
annotation
62
1
39
211
10
12.994458
20
44.785450
11
12.838122
21
44.828426
0
LINE
8
annotation
62
1
39
211
10
12.838122
20
44.828426
11
12.671979
21
44.843339
0
LINE
8
annotation
62
1
39
211
10
12.671979
20
44.843339
11
12.209438
21
44.843339
0
LINE
8
annotation
62
1
39
211
10
12.209438
20
44.843339
11
12.671979
21
44.843339
0
LINE
8
annotation
62
1
39
211
10
12.671979
20
44.843339
11
12.671979
21
44.843339
0
LINE
8
annotation
62
1
39
211
10
12.671979
20
44.843339
11
12.838122
21
44.858256
0
LINE
8
annotation
62
1
39
211
10
12.838122
20
44.858256
11
12.994458
21
44.901257
0
LINE
8
annotation
62
1
39
211
10
12.994458
20
44.901257
11
13.138385
21
44.969721
0
LINE
8
annotation
62
1
39
211
10
13.138385
20
44.969721
11
13.267303
21
45.061027
0
LINE
8
annotation
62
1
39
211
10
13.267303
20
45.061027
11
13.378612
21
45.172553
0
LINE
8
annotation
62
1
39
211
10
13.378612
20
45.172553
11
13.469713
21
45.301677
0
LINE
8
annotation
62
1
39
211
10
13.469713
20
45.301677
11
13.538004
21
45.445778
0
LINE
8
annotation
62
1
39
211
10
13.538004
20
45.445778
11
13.580885
21
45.602233
0
LINE
8
annotation
62
1
39
211
10
13.580885
20
45.602233
11
13.595757
21
45.768421
0
LINE
8
annotation
62
1
39
211
10
13.595757
20
45.768421
11
13.595757
21
45.768421
0
LINE
8
annotation
62
1
39
211
10
13.595757
20
45.768421
11
13.580885
21
45.933833
0
LINE
8
annotation
62
1
39
211
10
13.580885
20
45.933833
11
13.538004
21
46.089684
0
LINE
8
annotation
62
1
39
211
10
13.538004
20
46.089684
11
13.469713
21
46.233330
0
LINE
8
annotation
62
1
39
211
10
13.469713
20
46.233330
11
13.378612
21
46.362128
0
LINE
8
annotation
62
1
39
211
10
13.378612
20
46.362128
11
13.267303
21
46.473436
0
LINE
8
annotation
62
1
39
211
10
13.267303
20
46.473436
11
13.138385
21
46.564609
0
LINE
8
annotation
62
1
39
211
10
13.138385
20
46.564609
11
12.994458
21
46.633006
0
LINE
8
annotation
62
1
39
211
10
12.994458
20
46.633006
11
12.838122
21
46.675982
0
LINE
8
annotation
62
1
39
211
10
12.838122
20
46.675982
11
12.671979
21
46.690895
0
LINE
8
annotation
62
1
39
211
10
12.671979
20
46.690895
11
11.748201
21
46.690895
0
LINE
8
annotation
62
1
39
211
10
13.826897
20
67.390595
11
11.517061
21
67.390595
0
LINE
8
annotation
62
1
39
211
10
11.517061
20
67.390595
11
12.439534
21
70.625774
0
LINE
8
annotation
62
1
39
211
10
13.134520
20
66.465774
11
13.134520
21
68.313329
0
LINE
8
annotation
62
1
39
211
10
20.111682
20
90.395826
11
21.035460
21
90.395826
0
LINE
8
annotation
62
1
39
211
10
21.035460
20
90.395826
11
21.035460
21
90.395826
0
LINE
8
annotation
62
1
39
211
10
21.035460
20
90.395826
11
21.201260
21
90.410733
0
LINE
8
annotation
62
1
39
211
10
21.201260
20
90.410733
11
21.357413
21
90.453711
0
LINE
8
annotation
62
1
39
211
10
21.357413
20
90.453711
11
21.501286
21
90.522140
0
LINE
8
annotation
62
1
39
211
10
21.501286
20
90.522140
11
21.630247
21
90.613405
0
LINE
8
annotation
62
1
39
211
10
21.630247
20
90.613405
11
21.741664
21
90.724888
0
LINE
8
annotation
62
1
39
211
10
21.741664
20
90.724888
11
21.832904
21
90.853971
0
LINE
8
annotation
62
1
39
211
10
21.832904
20
90.853971
11
21.901334
21
90.998037
0
LINE
8
annotation
62
1
39
211
10
21.901334
20
90.998037
11
21.944323
21
91.154468
0
LINE
8
annotation
62
1
39
211
10
21.944323
20
91.154468
11
21.959238
21
91.320647
0
LINE
8
annotation
62
1
39
211
10
21.959238
20
91.320647
11
21.959238
21
91.780840
0
LINE
8
annotation
62
1
39
211
10
21.959238
20
91.780840
11
21.959238
21
91.780840
0
LINE
8
annotation
62
1
39
211
10
21.959238
20
91.780840
11
21.944332
21
91.946939
0
LINE
8
annotation
62
1
39
211
10
21.944332
20
91.946939
11
21.901364
21
92.103155
0
LINE
8
annotation
62
1
39
211
10
21.901364
20
92.103155
11
21.832962
21
92.246908
0
LINE
8
annotation
62
1
39
211
10
21.832962
20
92.246908
11
21.741750
21
92.375621
0
LINE
8
annotation
62
1
39
211
10
21.741750
20
92.375621
11
21.630355
21
92.486714
0
LINE
8
annotation
62
1
39
211
10
21.630355
20
92.486714
11
21.501402
21
92.577608
0
LINE
8
annotation
62
1
39
211
10
21.501402
20
92.577608
11
21.357518
21
92.645725
0
LINE
8
annotation
62
1
39
211
10
21.357518
20
92.645725
11
21.201329
21
92.688487
0
LINE
8
annotation
62
1
39
211
10
21.201329
20
92.688487
11
21.035460
21
92.703314
0
LINE
8
annotation
62
1
39
211
10
21.035460
20
92.703314
11
20.111682
21
92.703314
0
LINE
8
annotation
62
1
39
211
10
20.111682
20
92.703314
11
20.111682
21
94.555826
0
LINE
8
annotation
62
1
39
211
10
20.111682
20
94.555826
11
21.959238
21
94.555826
0
LINE
8
annotation
62
1
39
211
10
8.390784
20
118.257549
11
8.390784
21
118.257549
0
LINE
8
annotation
62
1
39
211
10
8.390784
20
118.257549
11
8.155196
21
118.169218
0
LINE
8
annotation
62
1
39
211
10
8.155196
20
118.169218
11
7.939012
21
118.050202
0
LINE
8
annotation
62
1
39
211
10
7.939012
20
118.050202
11
7.744453
21
117.903483
0
LINE
8
annotation
62
1
39
211
10
7.744453
20
117.903483
11
7.573737
21
117.732043
0
LINE
8
annotation
62
1
39
211
10
7.573737
20
117.732043
11
7.429085
21
117.538863
0
LINE
8
annotation
62
1
39
211
10
7.429085
20
117.538863
11
7.312714
21
117.326927
0
LINE
8
annotation
62
1
39
211
10
7.312714
20
117.326927
11
7.226844
21
117.099216
0
LINE
8
annotation
62
1
39
211
10
7.226844
20
117.099216
11
7.173695
21
116.858711
0
LINE
8
annotation
62
1
39
211
10
7.173695
20
116.858711
11
7.155485
21
116.608394
0
LINE
8
annotation
62
1
39
211
10
7.155485
20
116.608394
11
7.155485
21
115.377508
0
LINE
8
annotation
62
1
39
211
10
7.155485
20
115.377508
11
7.155485
21
115.377508
0
LINE
8
annotation
62
1
39
211
10
7.155485
20
115.377508
11
7.168763
21
115.229571
0
LINE
8
annotation
62
1
39
211
10
7.168763
20
115.229571
11
7.207032
21
115.090311
0
LINE
8
annotation
62
1
39
211
10
7.207032
20
115.090311
11
7.267951
21
114.962060
0
LINE
8
annotation
62
1
39
211
10
7.267951
20
114.962060
11
7.349175
21
114.847147
0
LINE
8
annotation
62
1
39
211
10
7.349175
20
114.847147
11
7.448361
21
114.747902
0
LINE
8
annotation
62
1
39
211
10
7.448361
20
114.747902
11
7.563166
21
114.666656
0
LINE
8
annotation
62
1
39
211
10
7.563166
20
114.666656
11
7.691246
21
114.605738
0
LINE
8
annotation
62
1
39
211
10
7.691246
20
114.605738
11
7.830257
21
114.567479
0
LINE
8
annotation
62
1
39
211
10
7.830257
20
114.567479
11
7.977857
21
114.554208
0
LINE
8
annotation
62
1
39
211
10
7.977857
20
114.554208
11
7.977857
21
114.554208
0
LINE
8
annotation
62
1
39
211
10
7.977857
20
114.554208
11
8.125762
21
114.567479
0
LINE
8
annotation
62
1
39
211
10
8.125762
20
114.567479
11
8.264936
21
114.605738
0
LINE
8
annotation
62
1
39
211
10
8.264936
20
114.605738
11
8.393064
21
114.666656
0
LINE
8
annotation
62
1
39
211
10
8.393064
20
114.666656
11
8.507830
21
114.747902
0
LINE
8
annotation
62
1
39
211
10
8.507830
20
114.747902
11
8.606921
21
114.847147
0
LINE
8
annotation
62
1
39
211
10
8.606921
20
114.847147
11
8.688020
21
114.962060
0
LINE
8
annotation
62
1
39
211
10
8.688020
20
114.962060
11
8.748815
21
115.090311
0
LINE
8
annotation
62
1
39
211
10
8.748815
20
115.090311
11
8.786989
21
115.229571
0
LINE
8
annotation
62
1
39
211
10
8.786989
20
115.229571
11
8.800228
21
115.377508
0
LINE
8
annotation
62
1
39
211
10
8.800228
20
115.377508
11
8.800228
21
115.787184
0
LINE
8
annotation
62
1
39
211
10
8.800228
20
115.787184
11
8.800228
21
115.787184
0
LINE
8
annotation
62
1
39
211
10
8.800228
20
115.787184
11
8.786989
21
115.935050
0
LINE
8
annotation
62
1
39
211
10
8.786989
20
115.935050
11
8.748815
21
116.074117
0
LINE
8
annotation
62
1
39
211
10
8.748815
20
116.074117
11
8.688020
21
116.202090
0
LINE
8
annotation
62
1
39
211
10
8.688020
20
116.202090
11
8.606921
21
116.316673
0
LINE
8
annotation
62
1
39
211
10
8.606921
20
116.316673
11
8.507830
21
116.415571
0
LINE
8
annotation
62
1
39
211
10
8.507830
20
116.415571
11
8.393064
21
116.496488
0
LINE
8
annotation
62
1
39
211
10
8.393064
20
116.496488
11
8.264936
21
116.557127
0
LINE
8
annotation
62
1
39
211
10
8.264936
20
116.557127
11
8.125762
21
116.595195
0
LINE
8
annotation
62
1
39
211
10
8.125762
20
116.595195
11
7.977857
21
116.608394
0
LINE
8
annotation
62
1
39
211
10
7.977857
20
116.608394
11
7.155485
21
116.608394
0
LINE
8
annotation
62
1
39
211
10
7.052486
20
114.091290
11
8.904157
21
114.091290
0
LINE
8
annotation
62
1
39
211
10
21.035392
20
138.255931
11
21.960213
21
142.415931
0
LINE
8
annotation
62
1
39
211
10
21.960213
20
142.415931
11
20.110310
21
142.415931
0
LINE
8
annotation
62
1
39
211
10
21.960213
20
140.563419
11
21.035392
21
140.563419
0
LINE
8
annotation
62
1
39
211
10
11.748201
20
163.108326
11
11.748201
21
163.108326
0
LINE
8
annotation
62
1
39
211
10
11.748201
20
163.108326
11
11.763116
21
162.942228
0
LINE
8
annotation
62
1
39
211
10
11.763116
20
162.942228
11
11.806105
21
162.786012
0
LINE
8
annotation
62
1
39
211
10
11.806105
20
162.786012
11
11.874535
21
162.642259
0
LINE
8
annotation
62
1
39
211
10
11.874535
20
162.642259
11
11.965775
21
162.513546
0
LINE
8
annotation
62
1
39
211
10
11.965775
20
162.513546
11
12.077192
21
162.402453
0
LINE
8
annotation
62
1
39
211
10
12.077192
20
162.402453
11
12.206153
21
162.311559
0
LINE
8
annotation
62
1
39
211
10
12.206153
20
162.311559
11
12.350026
21
162.243441
0
LINE
8
annotation
62
1
39
211
10
12.350026
20
162.243441
11
12.506179
21
162.200680
0
LINE
8
annotation
62
1
39
211
10
12.506179
20
162.200680
11
12.671979
21
162.185853
0
LINE
8
annotation
62
1
39
211
10
12.671979
20
162.185853
11
12.671979
21
162.185853
0
LINE
8
annotation
62
1
39
211
10
12.671979
20
162.185853
11
12.837779
21
162.200680
0
LINE
8
annotation
62
1
39
211
10
12.837779
20
162.200680
11
12.993932
21
162.243441
0
LINE
8
annotation
62
1
39
211
10
12.993932
20
162.243441
11
13.137805
21
162.311559
0
LINE
8
annotation
62
1
39
211
10
13.137805
20
162.311559
11
13.266767
21
162.402453
0
LINE
8
annotation
62
1
39
211
10
13.266767
20
162.402453
11
13.378183
21
162.513546
0
LINE
8
annotation
62
1
39
211
10
13.378183
20
162.513546
11
13.469423
21
162.642259
0
LINE
8
annotation
62
1
39
211
10
13.469423
20
162.642259
11
13.537854
21
162.786012
0
LINE
8
annotation
62
1
39
211
10
13.537854
20
162.786012
11
13.580842
21
162.942228
0
LINE
8
annotation
62
1
39
211
10
13.580842
20
162.942228
11
13.595757
21
163.108326
0
LINE
8
annotation
62
1
39
211
10
13.595757
20
163.108326
11
13.595757
21
163.568520
0
LINE
8
annotation
62
1
39
211
10
13.595757
20
163.568520
11
13.595757
21
163.568520
0
LINE
8
annotation
62
1
39
211
10
13.595757
20
163.568520
11
13.580851
21
163.734699
0
LINE
8
annotation
62
1
39
211
10
13.580851
20
163.734699
11
13.537884
21
163.891130
0
LINE
8
annotation
62
1
39
211
10
13.537884
20
163.891130
11
13.469481
21
164.035196
0
LINE
8
annotation
62
1
39
211
10
13.469481
20
164.035196
11
13.378269
21
164.164279
0
LINE
8
annotation
62
1
39
211
10
13.378269
20
164.164279
11
13.266874
21
164.275762
0
LINE
8
annotation
62
1
39
211
10
13.266874
20
164.275762
11
13.137921
21
164.367026
0
LINE
8
annotation
62
1
39
211
10
13.137921
20
164.367026
11
12.994037
21
164.435456
0
LINE
8
annotation
62
1
39
211
10
12.994037
20
164.435456
11
12.837848
21
164.478433
0
LINE
8
annotation
62
1
39
211
10
12.837848
20
164.478433
11
12.671979
21
164.493341
0
LINE
8
annotation
62
1
39
211
10
12.671979
20
164.493341
11
12.671979
21
164.493341
0
LINE
8
annotation
62
1
39
211
10
12.671979
20
164.493341
11
12.506110
21
164.478425
0
LINE
8
annotation
62
1
39
211
10
12.506110
20
164.478425
11
12.349921
21
164.435426
0
LINE
8
annotation
62
1
39
211
10
12.349921
20
164.435426
11
12.206037
21
164.366968
0
LINE
8
annotation
62
1
39
211
10
12.206037
20
164.366968
11
12.077084
21
164.275676
0
LINE
8
annotation
62
1
39
211
10
12.077084
20
164.275676
11
11.965689
21
164.164172
0
LINE
8
annotation
62
1
39
211
10
11.965689
20
164.164172
11
11.874477
21
164.035080
0
LINE
8
annotation
62
1
39
211
10
11.874477
20
164.035080
11
11.806075
21
163.891025
0
LINE
8
annotation
62
1
39
211
10
11.806075
20
163.891025
11
11.763107
21
163.734630
0
LINE
8
annotation
62
1
39
211
10
11.763107
20
163.734630
11
11.748201
21
163.568520
0
LINE
8
annotation
62
1
39
211
10
11.748201
20
163.568520
11
11.748201
21
163.108326
0
LINE
8
annotation
62
1
39
211
10
13.595757
20
165.418423
11
13.595757
21
165.418423
0
LINE
8
annotation
62
1
39
211
10
13.595757
20
165.418423
11
13.580851
21
165.583835
0
LINE
8
annotation
62
1
39
211
10
13.580851
20
165.583835
11
13.537884
21
165.739685
0
LINE
8
annotation
62
1
39
211
10
13.537884
20
165.739685
11
13.469481
21
165.883331
0
LINE
8
annotation
62
1
39
211
10
13.469481
20
165.883331
11
13.378269
21
166.012130
0
LINE
8
annotation
62
1
39
211
10
13.378269
20
166.012130
11
13.266874
21
166.123437
0
LINE
8
annotation
62
1
39
211
10
13.266874
20
166.123437
11
13.137921
21
166.214611
0
LINE
8
annotation
62
1
39
211
10
13.137921
20
166.214611
11
12.994037
21
166.283007
0
LINE
8
annotation
62
1
39
211
10
12.994037
20
166.283007
11
12.837848
21
166.325984
0
LINE
8
annotation
62
1
39
211
10
12.837848
20
166.325984
11
12.671979
21
166.340896
0
LINE
8
annotation
62
1
39
211
10
12.671979
20
166.340896
11
12.671979
21
166.340896
0
LINE
8
annotation
62
1
39
211
10
12.671979
20
166.340896
11
12.506110
21
166.325984
0
LINE
8
annotation
62
1
39
211
10
12.506110
20
166.325984
11
12.349921
21
166.283007
0
LINE
8
annotation
62
1
39
211
10
12.349921
20
166.283007
11
12.206037
21
166.214611
0
LINE
8
annotation
62
1
39
211
10
12.206037
20
166.214611
11
12.077084
21
166.123437
0
LINE
8
annotation
62
1
39
211
10
12.077084
20
166.123437
11
11.965689
21
166.012130
0
LINE
8
annotation
62
1
39
211
10
11.965689
20
166.012130
11
11.874477
21
165.883331
0
LINE
8
annotation
62
1
39
211
10
11.874477
20
165.883331
11
11.806075
21
165.739685
0
LINE
8
annotation
62
1
39
211
10
11.806075
20
165.739685
11
11.763107
21
165.583835
0
LINE
8
annotation
62
1
39
211
10
11.763107
20
165.583835
11
11.748201
21
165.418423
0
LINE
8
annotation
62
1
39
211
10
11.748201
20
165.418423
11
11.748201
21
165.418423
0
LINE
8
annotation
62
1
39
211
10
11.748201
20
165.418423
11
11.763116
21
165.252235
0
LINE
8
annotation
62
1
39
211
10
11.763116
20
165.252235
11
11.806105
21
165.095779
0
LINE
8
annotation
62
1
39
211
10
11.806105
20
165.095779
11
11.874535
21
164.951679
0
LINE
8
annotation
62
1
39
211
10
11.874535
20
164.951679
11
11.965775
21
164.822555
0
LINE
8
annotation
62
1
39
211
10
11.965775
20
164.822555
11
12.077192
21
164.711029
0
LINE
8
annotation
62
1
39
211
10
12.077192
20
164.711029
11
12.206153
21
164.619723
0
LINE
8
annotation
62
1
39
211
10
12.206153
20
164.619723
11
12.350026
21
164.551258
0
LINE
8
annotation
62
1
39
211
10
12.350026
20
164.551258
11
12.506179
21
164.508257
0
LINE
8
annotation
62
1
39
211
10
12.506179
20
164.508257
11
12.671979
21
164.493341
0
LINE
8
annotation
62
1
39
211
10
12.671979
20
164.493341
11
12.671979
21
164.493341
0
LINE
8
annotation
62
1
39
211
10
12.671979
20
164.493341
11
12.837779
21
164.508257
0
LINE
8
annotation
62
1
39
211
10
12.837779
20
164.508257
11
12.993932
21
164.551258
0
LINE
8
annotation
62
1
39
211
10
12.993932
20
164.551258
11
13.137805
21
164.619723
0
LINE
8
annotation
62
1
39
211
10
13.137805
20
164.619723
11
13.266767
21
164.711029
0
LINE
8
annotation
62
1
39
211
10
13.266767
20
164.711029
11
13.378183
21
164.822555
0
LINE
8
annotation
62
1
39
211
10
13.378183
20
164.822555
11
13.469423
21
164.951679
0
LINE
8
annotation
62
1
39
211
10
13.469423
20
164.951679
11
13.537854
21
165.095779
0
LINE
8
annotation
62
1
39
211
10
13.537854
20
165.095779
11
13.580842
21
165.252235
0
LINE
8
annotation
62
1
39
211
10
13.580842
20
165.252235
11
13.595757
21
165.418423
0
LINE
8
annotation
62
1
39
211
10
12.209438
20
186.116036
11
12.209438
21
186.116036
0
LINE
8
annotation
62
1
39
211
10
12.209438
20
186.116036
11
12.473611
21
186.214480
0
LINE
8
annotation
62
1
39
211
10
12.473611
20
186.214480
11
12.716089
21
186.347545
0
LINE
8
annotation
62
1
39
211
10
12.716089
20
186.347545
11
12.934367
21
186.511840
0
LINE
8
annotation
62
1
39
211
10
12.934367
20
186.511840
11
13.125938
21
186.703975
0
LINE
8
annotation
62
1
39
211
10
13.125938
20
186.703975
11
13.288297
21
186.920561
0
LINE
8
annotation
62
1
39
211
10
13.288297
20
186.920561
11
13.418938
21
187.158205
0
LINE
8
annotation
62
1
39
211
10
13.418938
20
187.158205
11
13.515355
21
187.413519
0
LINE
8
annotation
62
1
39
211
10
13.515355
20
187.413519
11
13.575043
21
187.683111
0
LINE
8
annotation
62
1
39
211
10
13.575043
20
187.683111
11
13.595496
21
187.963592
0
LINE
8
annotation
62
1
39
211
10
13.595496
20
187.963592
11
13.595496
21
189.350954
0
LINE
8
annotation
62
1
39
211
10
13.595496
20
189.350954
11
13.595496
21
189.350954
0
LINE
8
annotation
62
1
39
211
10
13.595496
20
189.350954
11
13.580624
21
189.517142
0
LINE
8
annotation
62
1
39
211
10
13.580624
20
189.517142
11
13.537743
21
189.673598
0
LINE
8
annotation
62
1
39
211
10
13.537743
20
189.673598
11
13.469452
21
189.817698
0
LINE
8
annotation
62
1
39
211
10
13.469452
20
189.817698
11
13.378352
21
189.946822
0
LINE
8
annotation
62
1
39
211
10
13.378352
20
189.946822
11
13.267042
21
190.058348
0
LINE
8
annotation
62
1
39
211
10
13.267042
20
190.058348
11
13.138124
21
190.149654
0
LINE
8
annotation
62
1
39
211
10
13.138124
20
190.149654
11
12.994197
21
190.218118
0
LINE
8
annotation
62
1
39
211
10
12.994197
20
190.218118
11
12.837862
21
190.261120
0
LINE
8
annotation
62
1
39
211
10
12.837862
20
190.261120
11
12.671718
21
190.276036
0
LINE
8
annotation
62
1
39
211
10
12.671718
20
190.276036
11
12.671718
21
190.276036
0
LINE
8
annotation
62
1
39
211
10
12.671718
20
190.276036
11
12.505918
21
190.261120
0
LINE
8
annotation
62
1
39
211
10
12.505918
20
190.261120
11
12.349765
21
190.218118
0
LINE
8
annotation
62
1
39
211
10
12.349765
20
190.218118
11
12.205892
21
190.149654
0
LINE
8
annotation
62
1
39
211
10
12.205892
20
190.149654
11
12.076931
21
190.058348
0
LINE
8
annotation
62
1
39
211
10
12.076931
20
190.058348
11
11.965514
21
189.946822
0
LINE
8
annotation
62
1
39
211
10
11.965514
20
189.946822
11
11.874274
21
189.817698
0
LINE
8
annotation
62
1
39
211
10
11.874274
20
189.817698
11
11.805844
21
189.673598
0
LINE
8
annotation
62
1
39
211
10
11.805844
20
189.673598
11
11.762855
21
189.517142
0
LINE
8
annotation
62
1
39
211
10
11.762855
20
189.517142
11
11.747940
21
189.350954
0
LINE
8
annotation
62
1
39
211
10
11.747940
20
189.350954
11
11.747940
21
188.888413
0
LINE
8
annotation
62
1
39
211
10
11.747940
20
188.888413
11
11.747940
21
188.888413
0
LINE
8
annotation
62
1
39
211
10
11.747940
20
188.888413
11
11.762855
21
188.722233
0
LINE
8
annotation
62
1
39
211
10
11.762855
20
188.722233
11
11.805844
21
188.565802
0
LINE
8
annotation
62
1
39
211
10
11.805844
20
188.565802
11
11.874274
21
188.421736
0
LINE
8
annotation
62
1
39
211
10
11.874274
20
188.421736
11
11.965514
21
188.292653
0
LINE
8
annotation
62
1
39
211
10
11.965514
20
188.292653
11
12.076931
21
188.181171
0
LINE
8
annotation
62
1
39
211
10
12.076931
20
188.181171
11
12.205892
21
188.089906
0
LINE
8
annotation
62
1
39
211
10
12.205892
20
188.089906
11
12.349765
21
188.021476
0
LINE
8
annotation
62
1
39
211
10
12.349765
20
188.021476
11
12.505918
21
187.978499
0
LINE
8
annotation
62
1
39
211
10
12.505918
20
187.978499
11
12.671718
21
187.963592
0
LINE
8
annotation
62
1
39
211
10
12.671718
20
187.963592
11
13.595496
21
187.963592
0
LINE
8
annotation
62
1
39
211
10
11.632501
20
185.596036
11
13.712501
21
185.596036
0
LINE
8
annotation
62
1
39
211
10
21.549419
20
210.125077
11
21.549419
21
214.127100
0
LINE
8
annotation
62
1
39
211
10
21.549419
20
214.127100
11
20.659718
21
213.237148
0
LINE
8
annotation
62
1
39
211
10
23.692884
20
210.177865
11
23.692884
21
210.177865
0
LINE
8
annotation
62
1
39
211
10
23.692884
20
210.177865
11
23.785896
21
210.143094
0
LINE
8
annotation
62
1
39
211
10
23.785896
20
210.143094
11
23.881288
21
210.125820
0
LINE
8
annotation
62
1
39
211
10
23.881288
20
210.125820
11
23.976903
21
210.125337
0
LINE
8
annotation
62
1
39
211
10
23.976903
20
210.125337
11
24.070584
21
210.140941
0
LINE
8
annotation
62
1
39
211
10
24.070584
20
210.140941
11
24.160175
21
210.171928
0
LINE
8
annotation
62
1
39
211
10
24.160175
20
210.171928
11
24.243520
21
210.217593
0
LINE
8
annotation
62
1
39
211
10
24.243520
20
210.217593
11
24.318462
21
210.277232
0
LINE
8
annotation
62
1
39
211
10
24.318462
20
210.277232
11
24.382845
21
210.350141
0
LINE
8
annotation
62
1
39
211
10
24.382845
20
210.350141
11
24.434511
21
210.435615
0
LINE
8
annotation
62
1
39
211
10
24.434511
20
210.435615
11
24.434511
21
210.435615
0
LINE
8
annotation
62
1
39
211
10
24.434511
20
210.435615
11
24.588665
21
210.796449
0
LINE
8
annotation
62
1
39
211
10
24.588665
20
210.796449
11
24.704280
21
211.167727
0
LINE
8
annotation
62
1
39
211
10
24.704280
20
211.167727
11
24.781357
21
211.546488
0
LINE
8
annotation
62
1
39
211
10
24.781357
20
211.546488
11
24.819895
21
211.929774
0
LINE
8
annotation
62
1
39
211
10
24.819895
20
211.929774
11
24.819895
21
212.314623
0
LINE
8
annotation
62
1
39
211
10
24.819895
20
212.314623
11
24.781357
21
212.698076
0
LINE
8
annotation
62
1
39
211
10
24.781357
20
212.698076
11
24.704280
21
213.077172
0
LINE
8
annotation
62
1
39
211
10
24.704280
20
213.077172
11
24.588665
21
213.448952
0
LINE
8
annotation
62
1
39
211
10
24.588665
20
213.448952
11
24.434511
21
213.810456
0
LINE
8
annotation
62
1
39
211
10
24.434511
20
213.810456
11
24.434511
21
213.810456
0
LINE
8
annotation
62
1
39
211
10
24.434511
20
213.810456
11
24.414907
21
213.846939
0
LINE
8
annotation
62
1
39
211
10
24.414907
20
213.846939
11
24.392682
21
213.881819
0
LINE
8
annotation
62
1
39
211
10
24.392682
20
213.881819
11
24.368003
21
213.914926
0
LINE
8
annotation
62
1
39
211
10
24.368003
20
213.914926
11
24.341037
21
213.946086
0
LINE
8
annotation
62
1
39
211
10
24.341037
20
213.946086
11
24.311952
21
213.975129
0
LINE
8
annotation
62
1
39
211
10
24.311952
20
213.975129
11
24.280915
21
214.001883
0
LINE
8
annotation
62
1
39
211
10
24.280915
20
214.001883
11
24.248094
21
214.026177
0
LINE
8
annotation
62
1
39
211
10
24.248094
20
214.026177
11
24.213654
21
214.047840
0
LINE
8
annotation
62
1
39
211
10
24.213654
20
214.047840
11
24.177765
21
214.066699
0
LINE
8
annotation
62
1
39
211
10
24.177765
20
214.066699
11
24.177765
21
214.066699
0
LINE
8
annotation
62
1
39
211
10
24.177765
20
214.066699
11
24.084015
21
214.102223
0
LINE
8
annotation
62
1
39
211
10
24.084015
20
214.102223
11
23.988064
21
214.120088
0
LINE
8
annotation
62
1
39
211
10
23.988064
20
214.120088
11
23.892046
21
214.121003
0
LINE
8
annotation
62
1
39
211
10
23.892046
20
214.121003
11
23.798091
21
214.105675
0
LINE
8
annotation
62
1
39
211
10
23.798091
20
214.105675
11
23.708331
21
214.074814
0
LINE
8
annotation
62
1
39
211
10
23.708331
20
214.074814
11
23.624898
21
214.029128
0
LINE
8
annotation
62
1
39
211
10
23.624898
20
214.029128
11
23.549925
21
213.969325
0
LINE
8
annotation
62
1
39
211
10
23.549925
20
213.969325
11
23.485541
21
213.896115
0
LINE
8
annotation
62
1
39
211
10
23.485541
20
213.896115
11
23.433880
21
213.810205
0
LINE
8
annotation
62
1
39
211
10
23.433880
20
213.810205
11
23.433880
21
213.810205
0
LINE
8
annotation
62
1
39
211
10
23.433880
20
213.810205
11
23.280470
21
213.449445
0
LINE
8
annotation
62
1
39
211
10
23.280470
20
213.449445
11
23.165412
21
213.078223
0
LINE
8
annotation
62
1
39
211
10
23.165412
20
213.078223
11
23.088707
21
212.699498
0
LINE
8
annotation
62
1
39
211
10
23.088707
20
212.699498
11
23.050355
21
212.316231
0
LINE
8
annotation
62
1
39
211
10
23.050355
20
212.316231
11
23.050355
21
211.931382
0
LINE
8
annotation
62
1
39
211
10
23.050355
20
211.931382
11
23.088707
21
211.547911
0
LINE
8
annotation
62
1
39
211
10
23.088707
20
211.547911
11
23.165412
21
211.168777
0
LINE
8
annotation
62
1
39
211
10
23.165412
20
211.168777
11
23.280470
21
210.796941
0
LINE
8
annotation
62
1
39
211
10
23.280470
20
210.796941
11
23.433880
21
210.435364
0
LINE
8
annotation
62
1
39
211
10
23.433880
20
210.435364
11
23.433880
21
210.435364
0
LINE
8
annotation
62
1
39
211
10
23.433880
20
210.435364
11
23.453412
21
210.398953
0
LINE
8
annotation
62
1
39
211
10
23.453412
20
210.398953
11
23.475473
21
210.364246
0
LINE
8
annotation
62
1
39
211
10
23.475473
20
210.364246
11
23.499969
21
210.331349
0
LINE
8
annotation
62
1
39
211
10
23.499969
20
210.331349
11
23.526808
21
210.300367
0
LINE
8
annotation
62
1
39
211
10
23.526808
20
210.300367
11
23.555896
21
210.271405
0
LINE
8
annotation
62
1
39
211
10
23.555896
20
210.271405
11
23.587141
21
210.244568
0
LINE
8
annotation
62
1
39
211
10
23.587141
20
210.244568
11
23.620449
21
210.219962
0
LINE
8
annotation
62
1
39
211
10
23.620449
20
210.219962
11
23.655728
21
210.197693
0
LINE
8
annotation
62
1
39
211
10
23.655728
20
210.197693
11
23.692884
21
210.177865
0
LINE
8
annotation
62
1
39
211
10
16.978187
20
79.873060
11
12.590636
21
79.873060
0
LINE
8
annotation
62
1
39
211
10
12.590636
20
79.873060
11
16.978187
21
87.775013
0
LINE
8
annotation
62
1
39
211
10
16.978187
20
87.775013
11
12.590636
21
87.775013
0
LINE
8
annotation
62
1
39
211
10
24.262816
20
83.824036
11
19.942163
21
83.824036
0
LINE
8
annotation
62
1
39
211
10
27.225305
20
79.873308
11
28.980028
21
79.873308
0
LINE
8
annotation
62
1
39
211
10
28.980028
20
79.873308
11
28.980028
21
79.873308
0
LINE
8
annotation
62
1
39
211
10
28.980028
20
79.873308
11
29.295619
21
79.901618
0
LINE
8
annotation
62
1
39
211
10
29.295619
20
79.901618
11
29.592579
21
79.983211
0
LINE
8
annotation
62
1
39
211
10
29.592579
20
79.983211
11
29.865970
21
80.113078
0
LINE
8
annotation
62
1
39
211
10
29.865970
20
80.113078
11
30.110851
21
80.286210
0
LINE
8
annotation
62
1
39
211
10
30.110851
20
80.286210
11
30.322284
21
80.497599
0
LINE
8
annotation
62
1
39
211
10
30.322284
20
80.497599
11
30.495330
21
80.742236
0
LINE
8
annotation
62
1
39
211
10
30.495330
20
80.742236
11
30.625049
21
81.015113
0
LINE
8
annotation
62
1
39
211
10
30.625049
20
81.015113
11
30.706502
21
81.311222
0
LINE
8
annotation
62
1
39
211
10
30.706502
20
81.311222
11
30.734751
21
81.625553
0
LINE
8
annotation
62
1
39
211
10
30.734751
20
81.625553
11
30.734751
21
82.504154
0
LINE
8
annotation
62
1
39
211
10
30.734751
20
82.504154
11
30.734751
21
82.504154
0
LINE
8
annotation
62
1
39
211
10
30.734751
20
82.504154
11
30.706502
21
82.818355
0
LINE
8
annotation
62
1
39
211
10
30.706502
20
82.818355
11
30.625049
21
83.114394
0
LINE
8
annotation
62
1
39
211
10
30.625049
20
83.114394
11
30.495330
21
83.387251
0
LINE
8
annotation
62
1
39
211
10
30.495330
20
83.387251
11
30.322284
21
83.631904
0
LINE
8
annotation
62
1
39
211
10
30.322284
20
83.631904
11
30.110851
21
83.843334
0
LINE
8
annotation
62
1
39
211
10
30.110851
20
83.843334
11
29.865970
21
84.016519
0
LINE
8
annotation
62
1
39
211
10
29.865970
20
84.016519
11
29.592579
21
84.146438
0
LINE
8
annotation
62
1
39
211
10
29.592579
20
84.146438
11
29.295619
21
84.228072
0
LINE
8
annotation
62
1
39
211
10
29.295619
20
84.228072
11
28.980028
21
84.256399
0
LINE
8
annotation
62
1
39
211
10
28.980028
20
84.256399
11
28.101427
21
84.256399
0
LINE
8
annotation
62
1
39
211
10
28.101427
20
84.256399
11
28.980028
21
84.256399
0
LINE
8
annotation
62
1
39
211
10
28.980028
20
84.256399
11
28.980028
21
84.256399
0
LINE
8
annotation
62
1
39
211
10
28.980028
20
84.256399
11
29.295619
21
84.284733
0
LINE
8
annotation
62
1
39
211
10
29.295619
20
84.284733
11
29.592579
21
84.366414
0
LINE
8
annotation
62
1
39
211
10
29.592579
20
84.366414
11
29.865970
21
84.496463
0
LINE
8
annotation
62
1
39
211
10
29.865970
20
84.496463
11
30.110851
21
84.669899
0
LINE
8
annotation
62
1
39
211
10
30.110851
20
84.669899
11
30.322284
21
84.881744
0
LINE
8
annotation
62
1
39
211
10
30.322284
20
84.881744
11
30.495330
21
85.127016
0
LINE
8
annotation
62
1
39
211
10
30.495330
20
85.127016
11
30.625049
21
85.400736
0
LINE
8
annotation
62
1
39
211
10
30.625049
20
85.400736
11
30.706502
21
85.697924
0
LINE
8
annotation
62
1
39
211
10
30.706502
20
85.697924
11
30.734751
21
86.013600
0
LINE
8
annotation
62
1
39
211
10
30.734751
20
86.013600
11
30.734751
21
86.013600
0
LINE
8
annotation
62
1
39
211
10
30.734751
20
86.013600
11
30.706502
21
86.327801
0
LINE
8
annotation
62
1
39
211
10
30.706502
20
86.327801
11
30.625049
21
86.623840
0
LINE
8
annotation
62
1
39
211
10
30.625049
20
86.623840
11
30.495330
21
86.896697
0
LINE
8
annotation
62
1
39
211
10
30.495330
20
86.896697
11
30.322284
21
87.141350
0
LINE
8
annotation
62
1
39
211
10
30.322284
20
87.141350
11
30.110851
21
87.352780
0
LINE
8
annotation
62
1
39
211
10
30.110851
20
87.352780
11
29.865970
21
87.525965
0
LINE
8
annotation
62
1
39
211
10
29.865970
20
87.525965
11
29.592579
21
87.655885
0
LINE
8
annotation
62
1
39
211
10
29.592579
20
87.655885
11
29.295619
21
87.737518
0
LINE
8
annotation
62
1
39
211
10
29.295619
20
87.737518
11
28.980028
21
87.765845
0
LINE
8
annotation
62
1
39
211
10
28.980028
20
87.765845
11
27.225305
21
87.765845
0
LINE
8
boundary
62
5
39
2
10
47.035462
20
282.609187
11
6.667500
21
282.609203
0
LINE
8
boundary
62
5
39
2
10
6.667500
20
282.609203
11
6.667501
21
255.964207
0
LINE
8
boundary
62
5
39
2
10
6.667501
20
255.964207
11
6.667500
21
229.319248
0
LINE
8
boundary
62
5
39
2
10
6.667500
20
229.319248
11
47.035480
21
229.319382
0
LINE
8
boundary
62
5
39
2
10
47.035480
20
229.319382
11
60.667514
21
229.319398
0
LINE
8
boundary
62
5
39
2
10
60.667514
20
229.319398
11
60.438850
21
230.731172
0
LINE
8
boundary
62
5
39
2
10
60.438850
20
230.731172
11
33.669647
21
230.861172
0
LINE
8
boundary
62
5
39
2
10
33.669647
20
230.861172
11
33.669647
21
233.207171
0
LINE
8
boundary
62
5
39
2
10
33.669647
20
233.207171
11
60.026459
21
233.207171
0
LINE
8
boundary
62
5
39
2
10
60.026459
20
233.207171
11
58.009266
21
245.731487
0
LINE
8
boundary
62
5
39
2
10
58.009266
20
245.731487
11
55.351015
21
253.035572
0
LINE
8
boundary
62
5
39
2
10
55.351015
20
253.035572
11
52.399948
21
254.661224
0
LINE
8
boundary
62
5
39
2
10
52.399948
20
254.661224
11
28.964019
21
254.791224
0
LINE
8
boundary
62
5
39
2
10
28.964019
20
254.791224
11
28.964019
21
257.137224
0
LINE
8
boundary
62
5
39
2
10
28.964019
20
257.137224
11
52.163801
21
257.137224
0
LINE
8
boundary
62
5
39
2
10
52.163801
20
257.137224
11
55.351013
21
258.892965
0
LINE
8
boundary
62
5
39
2
10
55.351013
20
258.892965
11
58.009264
21
266.197048
0
LINE
8
boundary
62
5
39
2
10
58.009264
20
266.197048
11
60.016741
21
278.591277
0
LINE
8
boundary
62
5
39
2
10
60.016741
20
278.591277
11
33.669637
21
278.721277
0
LINE
8
boundary
62
5
39
2
10
33.669637
20
278.721277
11
33.669638
21
281.067277
0
LINE
8
boundary
62
5
39
2
10
33.669638
20
281.067277
11
60.417775
21
281.067276
0
LINE
8
boundary
62
5
39
2
10
60.417775
20
281.067276
11
60.667514
21
282.609171
0
LINE
8
boundary
62
5
39
2
10
60.667514
20
282.609171
11
47.035462
21
282.609187
0
LINE
8
annotation
62
1
39
211
10
27.452369
20
229.965726
11
28.371015
21
229.965726
0
LINE
8
annotation
62
1
39
211
10
28.371015
20
229.965726
11
28.371015
21
229.965726
0
LINE
8
annotation
62
1
39
211
10
28.371015
20
229.965726
11
28.535894
21
229.980551
0
LINE
8
annotation
62
1
39
211
10
28.535894
20
229.980551
11
28.691180
21
230.023289
0
LINE
8
annotation
62
1
39
211
10
28.691180
20
230.023289
11
28.834254
21
230.091339
0
LINE
8
annotation
62
1
39
211
10
28.834254
20
230.091339
11
28.962499
21
230.182097
0
LINE
8
annotation
62
1
39
211
10
28.962499
20
230.182097
11
29.073296
21
230.292960
0
LINE
8
annotation
62
1
39
211
10
29.073296
20
230.292960
11
29.164029
21
230.421326
0
LINE
8
annotation
62
1
39
211
10
29.164029
20
230.421326
11
29.232080
21
230.564591
0
LINE
8
annotation
62
1
39
211
10
29.232080
20
230.564591
11
29.274830
21
230.720154
0
LINE
8
annotation
62
1
39
211
10
29.274830
20
230.720154
11
29.289661
21
230.885410
0
LINE
8
annotation
62
1
39
211
10
29.289661
20
230.885410
11
29.289661
21
231.343047
0
LINE
8
annotation
62
1
39
211
10
29.289661
20
231.343047
11
29.289661
21
231.343047
0
LINE
8
annotation
62
1
39
211
10
29.289661
20
231.343047
11
29.274838
21
231.508223
0
LINE
8
annotation
62
1
39
211
10
29.274838
20
231.508223
11
29.232110
21
231.663571
0
LINE
8
annotation
62
1
39
211
10
29.232110
20
231.663571
11
29.164087
21
231.806525
0
LINE
8
annotation
62
1
39
211
10
29.164087
20
231.806525
11
29.073382
21
231.934523
0
LINE
8
annotation
62
1
39
211
10
29.073382
20
231.934523
11
28.962605
21
232.044999
0
LINE
8
annotation
62
1
39
211
10
28.962605
20
232.044999
11
28.834369
21
232.135388
0
LINE
8
annotation
62
1
39
211
10
28.834369
20
232.135388
11
28.691284
21
232.203127
0
LINE
8
annotation
62
1
39
211
10
28.691284
20
232.203127
11
28.535963
21
232.245651
0
LINE
8
annotation
62
1
39
211
10
28.535963
20
232.245651
11
28.371015
21
232.260395
0
LINE
8
annotation
62
1
39
211
10
28.371015
20
232.260395
11
27.452369
21
232.260395
0
LINE
8
annotation
62
1
39
211
10
27.452369
20
232.260395
11
27.452369
21
234.102617
0
LINE
8
annotation
62
1
39
211
10
27.452369
20
234.102617
11
29.289661
21
234.102617
0
LINE
8
annotation
62
1
39
211
10
24.100343
20
258.044224
11
24.100343
21
258.044224
0
LINE
8
annotation
62
1
39
211
10
24.100343
20
258.044224
11
23.835704
21
257.945000
0
LINE
8
annotation
62
1
39
211
10
23.835704
20
257.945000
11
23.592863
21
257.811308
0
LINE
8
annotation
62
1
39
211
10
23.592863
20
257.811308
11
23.374313
21
257.646497
0
LINE
8
annotation
62
1
39
211
10
23.374313
20
257.646497
11
23.182546
21
257.453917
0
LINE
8
annotation
62
1
39
211
10
23.182546
20
257.453917
11
23.020056
21
257.236917
0
LINE
8
annotation
62
1
39
211
10
23.020056
20
257.236917
11
22.889336
21
256.998847
0
LINE
8
annotation
62
1
39
211
10
22.889336
20
256.998847
11
22.792878
21
256.743056
0
LINE
8
annotation
62
1
39
211
10
22.792878
20
256.743056
11
22.733175
21
256.472895
0
LINE
8
annotation
62
1
39
211
10
22.733175
20
256.472895
11
22.712720
21
256.191712
0
LINE
8
annotation
62
1
39
211
10
22.712720
20
256.191712
11
22.712720
21
254.809045
0
LINE
8
annotation
62
1
39
211
10
22.712720
20
254.809045
11
22.712720
21
254.809045
0
LINE
8
annotation
62
1
39
211
10
22.712720
20
254.809045
11
22.727635
21
254.642866
0
LINE
8
annotation
62
1
39
211
10
22.727635
20
254.642866
11
22.770623
21
254.486435
0
LINE
8
annotation
62
1
39
211
10
22.770623
20
254.486435
11
22.839054
21
254.342369
0
LINE
8
annotation
62
1
39
211
10
22.839054
20
254.342369
11
22.930294
21
254.213286
0
LINE
8
annotation
62
1
39
211
10
22.930294
20
254.213286
11
23.041710
21
254.101803
0
LINE
8
annotation
62
1
39
211
10
23.041710
20
254.101803
11
23.170671
21
254.010538
0
LINE
8
annotation
62
1
39
211
10
23.170671
20
254.010538
11
23.314545
21
253.942109
0
LINE
8
annotation
62
1
39
211
10
23.314545
20
253.942109
11
23.470698
21
253.899131
0
LINE
8
annotation
62
1
39
211
10
23.470698
20
253.899131
11
23.636498
21
253.884224
0
LINE
8
annotation
62
1
39
211
10
23.636498
20
253.884224
11
23.636498
21
253.884224
0
LINE
8
annotation
62
1
39
211
10
23.636498
20
253.884224
11
23.802641
21
253.899131
0
LINE
8
annotation
62
1
39
211
10
23.802641
20
253.899131
11
23.958977
21
253.942109
0
LINE
8
annotation
62
1
39
211
10
23.958977
20
253.942109
11
24.102904
21
254.010538
0
LINE
8
annotation
62
1
39
211
10
24.102904
20
254.010538
11
24.231822
21
254.101803
0
LINE
8
annotation
62
1
39
211
10
24.231822
20
254.101803
11
24.343131
21
254.213286
0
LINE
8
annotation
62
1
39
211
10
24.343131
20
254.213286
11
24.434232
21
254.342369
0
LINE
8
annotation
62
1
39
211
10
24.434232
20
254.342369
11
24.502522
21
254.486435
0
LINE
8
annotation
62
1
39
211
10
24.502522
20
254.486435
11
24.545404
21
254.642866
0
LINE
8
annotation
62
1
39
211
10
24.545404
20
254.642866
11
24.560275
21
254.809045
0
LINE
8
annotation
62
1
39
211
10
24.560275
20
254.809045
11
24.560275
21
255.269238
0
LINE
8
annotation
62
1
39
211
10
24.560275
20
255.269238
11
24.560275
21
255.269238
0
LINE
8
annotation
62
1
39
211
10
24.560275
20
255.269238
11
24.545404
21
255.435337
0
LINE
8
annotation
62
1
39
211
10
24.545404
20
255.435337
11
24.502522
21
255.591553
0
LINE
8
annotation
62
1
39
211
10
24.502522
20
255.591553
11
24.434232
21
255.735306
0
LINE
8
annotation
62
1
39
211
10
24.434232
20
255.735306
11
24.343131
21
255.864019
0
LINE
8
annotation
62
1
39
211
10
24.343131
20
255.864019
11
24.231822
21
255.975112
0
LINE
8
annotation
62
1
39
211
10
24.231822
20
255.975112
11
24.102904
21
256.066006
0
LINE
8
annotation
62
1
39
211
10
24.102904
20
256.066006
11
23.958977
21
256.134123
0
LINE
8
annotation
62
1
39
211
10
23.958977
20
256.134123
11
23.802641
21
256.176885
0
LINE
8
annotation
62
1
39
211
10
23.802641
20
256.176885
11
23.636498
21
256.191712
0
LINE
8
annotation
62
1
39
211
10
23.636498
20
256.191712
11
22.712720
21
256.191712
0
LINE
8
annotation
62
1
39
211
10
22.597019
20
253.364224
11
24.677019
21
253.364224
0
LINE
8
annotation
62
1
39
211
10
28.370851
20
277.825769
11
29.290562
21
281.962784
0
LINE
8
annotation
62
1
39
211
10
29.290562
20
281.962784
11
27.450880
21
281.962784
0
LINE
8
annotation
62
1
39
211
10
29.290562
20
280.120507
11
28.370851
21
280.120507
0
LINE
8
annotation
62
1
39
211
10
19.102879
20
238.446220
11
13.705318
21
238.446220
0
LINE
8
annotation
62
1
39
211
10
13.705318
20
238.446220
11
19.102879
21
248.167194
0
LINE
8
annotation
62
1
39
211
10
19.102879
20
248.167194
11
13.705318
21
248.167194
0
LINE
8
annotation
62
1
39
211
10
28.064421
20
243.306707
11
22.749159
21
243.306707
0
LINE
8
annotation
62
1
39
211
10
33.870274
20
238.446220
11
33.870274
21
248.167194
0
LINE
8
annotation
62
1
39
211
10
33.870274
20
248.167194
11
31.709177
21
246.005487
0
LINE
8
annotation
62
1
39
211
10
39.076782
20
238.574443
11
39.076782
21
238.574443
0
LINE
8
annotation
62
1
39
211
10
39.076782
20
238.574443
11
39.302709
21
238.489985
0
LINE
8
annotation
62
1
39
211
10
39.302709
20
238.489985
11
39.534417
21
238.448025
0
LINE
8
annotation
62
1
39
211
10
39.534417
20
238.448025
11
39.766667
21
238.446852
0
LINE
8
annotation
62
1
39
211
10
39.766667
20
238.446852
11
39.994220
21
238.484754
0
LINE
8
annotation
62
1
39
211
10
39.994220
20
238.484754
11
40.211838
21
238.560022
0
LINE
8
annotation
62
1
39
211
10
40.211838
20
238.560022
11
40.414284
21
238.670943
0
LINE
8
annotation
62
1
39
211
10
40.414284
20
238.670943
11
40.596320
21
238.815807
0
LINE
8
annotation
62
1
39
211
10
40.596320
20
238.815807
11
40.752705
21
238.992903
0
LINE
8
annotation
62
1
39
211
10
40.752705
20
238.992903
11
40.878204
21
239.200521
0
LINE
8
annotation
62
1
39
211
10
40.878204
20
239.200521
11
40.878204
21
239.200521
0
LINE
8
annotation
62
1
39
211
10
40.878204
20
239.200521
11
41.252645
21
240.076992
0
LINE
8
annotation
62
1
39
211
10
41.252645
20
240.076992
11
41.533476
21
240.978832
0
LINE
8
annotation
62
1
39
211
10
41.533476
20
240.978832
11
41.720697
21
241.898850
0
LINE
8
annotation
62
1
39
211
10
41.720697
20
241.898850
11
41.814307
21
242.829856
0
LINE
8
annotation
62
1
39
211
10
41.814307
20
242.829856
11
41.814307
21
243.764660
0
LINE
8
annotation
62
1
39
211
10
41.814307
20
243.764660
11
41.720697
21
244.696072
0
LINE
8
annotation
62
1
39
211
10
41.720697
20
244.696072
11
41.533476
21
245.616903
0
LINE
8
annotation
62
1
39
211
10
41.533476
20
245.616903
11
41.252645
21
246.519962
0
LINE
8
annotation
62
1
39
211
10
41.252645
20
246.519962
11
40.878204
21
247.398059
0
LINE
8
annotation
62
1
39
211
10
40.878204
20
247.398059
11
40.878204
21
247.398059
0
LINE
8
annotation
62
1
39
211
10
40.878204
20
247.398059
11
40.830586
21
247.486678
0
LINE
8
annotation
62
1
39
211
10
40.830586
20
247.486678
11
40.776601
21
247.571403
0
LINE
8
annotation
62
1
39
211
10
40.776601
20
247.571403
11
40.716655
21
247.651818
0
LINE
8
annotation
62
1
39
211
10
40.716655
20
247.651818
11
40.651155
21
247.727507
0
LINE
8
annotation
62
1
39
211
10
40.651155
20
247.727507
11
40.580507
21
247.798053
0
LINE
8
annotation
62
1
39
211
10
40.580507
20
247.798053
11
40.505118
21
247.863040
0
LINE
8
annotation
62
1
39
211
10
40.505118
20
247.863040
11
40.425393
21
247.922051
0
LINE
8
annotation
62
1
39
211
10
40.425393
20
247.922051
11
40.341740
21
247.974669
0
LINE
8
annotation
62
1
39
211
10
40.341740
20
247.974669
11
40.254564
21
248.020479
0
LINE
8
annotation
62
1
39
211
10
40.254564
20
248.020479
11
40.254564
21
248.020479
0
LINE
8
annotation
62
1
39
211
10
40.254564
20
248.020479
11
40.026843
21
248.106767
0
LINE
8
annotation
62
1
39
211
10
40.026843
20
248.106767
11
39.793778
21
248.150162
0
LINE
8
annotation
62
1
39
211
10
39.793778
20
248.150162
11
39.560548
21
248.152383
0
LINE
8
annotation
62
1
39
211
10
39.560548
20
248.152383
11
39.332330
21
248.115152
0
LINE
8
annotation
62
1
39
211
10
39.332330
20
248.115152
11
39.114302
21
248.040189
0
LINE
8
annotation
62
1
39
211
10
39.114302
20
248.040189
11
38.911643
21
247.929217
0
LINE
8
annotation
62
1
39
211
10
38.911643
20
247.929217
11
38.729530
21
247.783956
0
LINE
8
annotation
62
1
39
211
10
38.729530
20
247.783956
11
38.573142
21
247.606126
0
LINE
8
annotation
62
1
39
211
10
38.573142
20
247.606126
11
38.447656
21
247.397449
0
LINE
8
annotation
62
1
39
211
10
38.447656
20
247.397449
11
38.447656
21
247.397449
0
LINE
8
annotation
62
1
39
211
10
38.447656
20
247.397449
11
38.075021
21
246.521158
0
LINE
8
annotation
62
1
39
211
10
38.075021
20
246.521158
11
37.795545
21
245.619454
0
LINE
8
annotation
62
1
39
211
10
37.795545
20
245.619454
11
37.609227
21
244.699527
0
LINE
8
annotation
62
1
39
211
10
37.609227
20
244.699527
11
37.516068
21
243.768566
0
LINE
8
annotation
62
1
39
211
10
37.516068
20
243.768566
11
37.516068
21
242.833762
0
LINE
8
annotation
62
1
39
211
10
37.516068
20
242.833762
11
37.609227
21
241.902304
0
LINE
8
annotation
62
1
39
211
10
37.609227
20
241.902304
11
37.795545
21
240.981383
0
LINE
8
annotation
62
1
39
211
10
37.795545
20
240.981383
11
38.075021
21
240.078189
0
LINE
8
annotation
62
1
39
211
10
38.075021
20
240.078189
11
38.447656
21
239.199911
0
LINE
8
annotation
62
1
39
211
10
38.447656
20
239.199911
11
38.447656
21
239.199911
0
LINE
8
annotation
62
1
39
211
10
38.447656
20
239.199911
11
38.495100
21
239.111469
0
LINE
8
annotation
62
1
39
211
10
38.495100
20
239.111469
11
38.548687
21
239.027166
0
LINE
8
annotation
62
1
39
211
10
38.548687
20
239.027166
11
38.608188
21
238.947258
0
LINE
8
annotation
62
1
39
211
10
38.608188
20
238.947258
11
38.673380
21
238.872002
0
LINE
8
annotation
62
1
39
211
10
38.673380
20
238.872002
11
38.744036
21
238.801652
0
LINE
8
annotation
62
1
39
211
10
38.744036
20
238.801652
11
38.819929
21
238.736466
0
LINE
8
annotation
62
1
39
211
10
38.819929
20
238.736466
11
38.900835
21
238.676698
0
LINE
8
annotation
62
1
39
211
10
38.900835
20
238.676698
11
38.986528
21
238.622605
0
LINE
8
annotation
62
1
39
211
10
38.986528
20
238.622605
11
39.076782
21
238.574443
0
LINE
8
boundary
62
5
39
2
10
63.842539
20
26.423523
11
63.842540
21
6.667503
0
LINE
8
boundary
62
5
39
2
10
63.842540
20
6.667503
11
111.540593
21
6.667500
0
LINE
8
boundary
62
5
39
2
10
111.540593
20
6.667500
11
117.842535
21
6.667505
0
LINE
8
boundary
62
5
39
2
10
117.842535
20
6.667505
11
113.413808
21
12.751923
0
LINE
8
boundary
62
5
39
2
10
113.413808
20
12.751923
11
111.595925
21
18.363767
0
LINE
8
boundary
62
5
39
2
10
111.595925
20
18.363767
11
87.759305
21
18.363767
0
LINE
8
boundary
62
5
39
2
10
87.759305
20
18.363767
11
87.759304
21
20.709767
0
LINE
8
boundary
62
5
39
2
10
87.759304
20
20.709767
11
110.439114
21
20.709767
0
LINE
8
boundary
62
5
39
2
10
110.439114
20
20.709767
11
104.556378
21
26.423429
0
LINE
8
boundary
62
5
39
2
10
104.556378
20
26.423429
11
111.638018
21
37.387164
0
LINE
8
boundary
62
5
39
2
10
111.638018
20
37.387164
11
110.843293
21
42.293819
0
LINE
8
boundary
62
5
39
2
10
110.843293
20
42.293819
11
87.450678
21
42.293819
0
LINE
8
boundary
62
5
39
2
10
87.450678
20
42.293819
11
87.450678
21
44.639819
0
LINE
8
boundary
62
5
39
2
10
87.450678
20
44.639819
11
110.451959
21
44.639820
0
LINE
8
boundary
62
5
39
2
10
110.451959
20
44.639820
11
107.312515
21
64.092956
0
LINE
8
boundary
62
5
39
2
10
107.312515
20
64.092956
11
106.908389
21
66.093872
0
LINE
8
boundary
62
5
39
2
10
106.908389
20
66.093872
11
85.465347
21
66.223872
0
LINE
8
boundary
62
5
39
2
10
85.465347
20
66.223872
11
85.465347
21
68.569872
0
LINE
8
boundary
62
5
39
2
10
85.465347
20
68.569872
11
106.391753
21
68.569872
0
LINE
8
boundary
62
5
39
2
10
106.391753
20
68.569872
11
103.869287
21
81.141115
0
LINE
8
boundary
62
5
39
2
10
103.869287
20
81.141115
11
100.636471
21
90.023925
0
LINE
8
boundary
62
5
39
2
10
100.636471
20
90.023925
11
82.178117
21
90.153924
0
LINE
8
boundary
62
5
39
2
10
82.178117
20
90.153924
11
82.178117
21
92.499925
0
LINE
8
boundary
62
5
39
2
10
82.178117
20
92.499925
11
99.697742
21
92.499924
0
LINE
8
boundary
62
5
39
2
10
99.697742
20
92.499924
11
96.782519
21
100.613431
0
LINE
8
boundary
62
5
39
2
10
96.782519
20
100.613431
11
82.609065
21
108.421163
0
LINE
8
boundary
62
5
39
2
10
82.609065
20
108.421163
11
77.035212
21
113.953977
0
LINE
8
boundary
62
5
39
2
10
77.035212
20
113.953977
11
69.909550
21
114.083977
0
LINE
8
boundary
62
5
39
2
10
69.909550
20
114.083977
11
69.909550
21
116.429977
0
LINE
8
boundary
62
5
39
2
10
69.909550
20
116.429977
11
76.904255
21
116.429977
0
LINE
8
boundary
62
5
39
2
10
76.904255
20
116.429977
11
82.609068
21
122.092788
0
LINE
8
boundary
62
5
39
2
10
82.609068
20
122.092788
11
96.782514
21
129.900531
0
LINE
8
boundary
62
5
39
2
10
96.782514
20
129.900531
11
99.688031
21
137.884030
0
LINE
8
boundary
62
5
39
2
10
99.688031
20
137.884030
11
82.178112
21
138.014029
0
LINE
8
boundary
62
5
39
2
10
82.178112
20
138.014029
11
82.178111
21
140.360029
0
LINE
8
boundary
62
5
39
2
10
82.178111
20
140.360029
11
100.589147
21
140.360029
0
LINE
8
boundary
62
5
39
2
10
100.589147
20
140.360029
11
103.869280
21
149.372859
0
LINE
8
boundary
62
5
39
2
10
103.869280
20
149.372859
11
106.382060
21
161.814083
0
LINE
8
boundary
62
5
39
2
10
106.382060
20
161.814083
11
85.465350
21
161.944082
0
LINE
8
boundary
62
5
39
2
10
85.465350
20
161.944082
11
85.465350
21
164.290082
0
LINE
8
boundary
62
5
39
2
10
85.465350
20
164.290082
11
106.882143
21
164.290082
0
LINE
8
boundary
62
5
39
2
10
106.882143
20
164.290082
11
107.312530
21
166.421003
0
LINE
8
boundary
62
5
39
2
10
107.312530
20
166.421003
11
110.442275
21
185.744136
0
LINE
8
boundary
62
5
39
2
10
110.442275
20
185.744136
11
87.450685
21
185.874134
0
LINE
8
boundary
62
5
39
2
10
87.450685
20
185.874134
11
87.450685
21
188.220134
0
LINE
8
boundary
62
5
39
2
10
87.450685
20
188.220134
11
110.843309
21
188.220134
0
LINE
8
boundary
62
5
39
2
10
110.843309
20
188.220134
11
111.638005
21
193.126604
0
LINE
8
boundary
62
5
39
2
10
111.638005
20
193.126604
11
104.556262
21
204.090278
0
LINE
8
boundary
62
5
39
2
10
104.556262
20
204.090278
11
110.429456
21
209.674187
0
LINE
8
boundary
62
5
39
2
10
110.429456
20
209.674187
11
87.759323
21
209.804187
0
LINE
8
boundary
62
5
39
2
10
87.759323
20
209.804187
11
87.759323
21
212.150187
0
LINE
8
boundary
62
5
39
2
10
87.759323
20
212.150187
11
111.595913
21
212.150187
0
LINE
8
boundary
62
5
39
2
10
111.595913
20
212.150187
11
113.413786
21
217.761999
0
LINE
8
boundary
62
5
39
2
10
113.413786
20
217.761999
11
117.842540
21
223.846447
0
LINE
8
boundary
62
5
39
2
10
117.842540
20
223.846447
11
111.540562
21
223.846447
0
LINE
8
boundary
62
5
39
2
10
111.540562
20
223.846447
11
63.842540
21
223.846453
0
LINE
8
boundary
62
5
39
2
10
63.842540
20
223.846453
11
63.842539
21
204.090351
0
LINE
8
boundary
62
5
39
2
10
63.842539
20
204.090351
11
63.842541
21
115.256969
0
LINE
8
boundary
62
5
39
2
10
63.842541
20
115.256969
11
63.842539
21
26.423523
0
LINE
8
annotation
62
1
39
211
10
83.355561
20
17.456733
11
81.508005
21
17.456733
0
LINE
8
annotation
62
1
39
211
10
81.508005
20
17.456733
11
83.215207
21
20.205109
0
LINE
8
annotation
62
1
39
211
10
83.215207
20
20.205109
11
83.215207
21
20.205109
0
LINE
8
annotation
62
1
39
211
10
83.215207
20
20.205109
11
83.217248
21
20.207634
0
LINE
8
annotation
62
1
39
211
10
83.217248
20
20.207634
11
83.219205
21
20.210181
0
LINE
8
annotation
62
1
39
211
10
83.219205
20
20.210181
11
83.221091
21
20.212771
0
LINE
8
annotation
62
1
39
211
10
83.221091
20
20.212771
11
83.222920
21
20.215425
0
LINE
8
annotation
62
1
39
211
10
83.222920
20
20.215425
11
83.224703
21
20.218165
0
LINE
8
annotation
62
1
39
211
10
83.224703
20
20.218165
11
83.226454
21
20.221013
0
LINE
8
annotation
62
1
39
211
10
83.226454
20
20.221013
11
83.228185
21
20.223989
0
LINE
8
annotation
62
1
39
211
10
83.228185
20
20.223989
11
83.229911
21
20.227116
0
LINE
8
annotation
62
1
39
211
10
83.229911
20
20.227116
11
83.231642
21
20.230414
0
LINE
8
annotation
62
1
39
211
10
83.231642
20
20.230414
11
83.231642
21
20.230414
0
LINE
8
annotation
62
1
39
211
10
83.231642
20
20.230414
11
83.302132
21
20.381762
0
LINE
8
annotation
62
1
39
211
10
83.302132
20
20.381762
11
83.343311
21
20.538648
0
LINE
8
annotation
62
1
39
211
10
83.343311
20
20.538648
11
83.356189
21
20.697526
0
LINE
8
annotation
62
1
39
211
10
83.356189
20
20.697526
11
83.341773
21
20.854851
0
LINE
8
annotation
62
1
39
211
10
83.341773
20
20.854851
11
83.301075
21
21.007079
0
LINE
8
annotation
62
1
39
211
10
83.301075
20
21.007079
11
83.235102
21
21.150665
0
LINE
8
annotation
62
1
39
211
10
83.235102
20
21.150665
11
83.144863
21
21.282064
0
LINE
8
annotation
62
1
39
211
10
83.144863
20
21.282064
11
83.031369
21
21.397730
0
LINE
8
annotation
62
1
39
211
10
83.031369
20
21.397730
11
82.895628
21
21.494119
0
LINE
8
annotation
62
1
39
211
10
82.895628
20
21.494119
11
82.895628
21
21.494119
0
LINE
8
annotation
62
1
39
211
10
82.895628
20
21.494119
11
82.743860
21
21.563608
0
LINE
8
annotation
62
1
39
211
10
82.743860
20
21.563608
11
82.586734
21
21.604152
0
LINE
8
annotation
62
1
39
211
10
82.586734
20
21.604152
11
82.427763
21
21.616665
0
LINE
8
annotation
62
1
39
211
10
82.427763
20
21.616665
11
82.270461
21
21.602060
0
LINE
8
annotation
62
1
39
211
10
82.270461
20
21.602060
11
82.118341
21
21.561249
0
LINE
8
annotation
62
1
39
211
10
82.118341
20
21.561249
11
81.974914
21
21.495143
0
LINE
8
annotation
62
1
39
211
10
81.974914
20
21.495143
11
81.843693
21
21.404657
0
LINE
8
annotation
62
1
39
211
10
81.843693
20
21.404657
11
81.728192
21
21.290703
0
LINE
8
annotation
62
1
39
211
10
81.728192
20
21.290703
11
81.631923
21
21.154192
0
LINE
8
annotation
62
1
39
211
10
81.631923
20
21.154192
11
81.510614
21
20.921487
0
LINE
8
annotation
62
1
39
211
10
81.199379
20
41.386950
11
82.123156
21
41.386950
0
LINE
8
annotation
62
1
39
211
10
82.123156
20
41.386950
11
82.123156
21
41.386950
0
LINE
8
annotation
62
1
39
211
10
82.123156
20
41.386950
11
82.289300
21
41.401854
0
LINE
8
annotation
62
1
39
211
10
82.289300
20
41.401854
11
82.445635
21
41.444809
0
LINE
8
annotation
62
1
39
211
10
82.445635
20
41.444809
11
82.589562
21
41.513177
0
LINE
8
annotation
62
1
39
211
10
82.589562
20
41.513177
11
82.718481
21
41.604323
0
LINE
8
annotation
62
1
39
211
10
82.718481
20
41.604323
11
82.829790
21
41.715609
0
LINE
8
annotation
62
1
39
211
10
82.829790
20
41.715609
11
82.920890
21
41.844399
0
LINE
8
annotation
62
1
39
211
10
82.920890
20
41.844399
11
82.989181
21
41.988056
0
LINE
8
annotation
62
1
39
211
10
82.989181
20
41.988056
11
83.032063
21
42.143943
0
LINE
8
annotation
62
1
39
211
10
83.032063
20
42.143943
11
83.046934
21
42.309423
0
LINE
8
annotation
62
1
39
211
10
83.046934
20
42.309423
11
83.046934
21
42.771964
0
LINE
8
annotation
62
1
39
211
10
83.046934
20
42.771964
11
83.046934
21
42.771964
0
LINE
8
annotation
62
1
39
211
10
83.046934
20
42.771964
11
83.032063
21
42.937376
0
LINE
8
annotation
62
1
39
211
10
83.032063
20
42.937376
11
82.989181
21
43.093227
0
LINE
8
annotation
62
1
39
211
10
82.989181
20
43.093227
11
82.920890
21
43.236873
0
LINE
8
annotation
62
1
39
211
10
82.920890
20
43.236873
11
82.829790
21
43.365671
0
LINE
8
annotation
62
1
39
211
10
82.829790
20
43.365671
11
82.718481
21
43.476979
0
LINE
8
annotation
62
1
39
211
10
82.718481
20
43.476979
11
82.589562
21
43.568152
0
LINE
8
annotation
62
1
39
211
10
82.589562
20
43.568152
11
82.445635
21
43.636549
0
LINE
8
annotation
62
1
39
211
10
82.445635
20
43.636549
11
82.289300
21
43.679525
0
LINE
8
annotation
62
1
39
211
10
82.289300
20
43.679525
11
82.123156
21
43.694438
0
LINE
8
annotation
62
1
39
211
10
82.123156
20
43.694438
11
81.660615
21
43.694438
0
LINE
8
annotation
62
1
39
211
10
81.660615
20
43.694438
11
82.123156
21
43.694438
0
LINE
8
annotation
62
1
39
211
10
82.123156
20
43.694438
11
82.123156
21
43.694438
0
LINE
8
annotation
62
1
39
211
10
82.123156
20
43.694438
11
82.289300
21
43.709354
0
LINE
8
annotation
62
1
39
211
10
82.289300
20
43.709354
11
82.445635
21
43.752355
0
LINE
8
annotation
62
1
39
211
10
82.445635
20
43.752355
11
82.589562
21
43.820820
0
LINE
8
annotation
62
1
39
211
10
82.589562
20
43.820820
11
82.718481
21
43.912126
0
LINE
8
annotation
62
1
39
211
10
82.718481
20
43.912126
11
82.829790
21
44.023652
0
LINE
8
annotation
62
1
39
211
10
82.829790
20
44.023652
11
82.920890
21
44.152776
0
LINE
8
annotation
62
1
39
211
10
82.920890
20
44.152776
11
82.989181
21
44.296876
0
LINE
8
annotation
62
1
39
211
10
82.989181
20
44.296876
11
83.032063
21
44.453331
0
LINE
8
annotation
62
1
39
211
10
83.032063
20
44.453331
11
83.046934
21
44.619520
0
LINE
8
annotation
62
1
39
211
10
83.046934
20
44.619520
11
83.046934
21
44.619520
0
LINE
8
annotation
62
1
39
211
10
83.046934
20
44.619520
11
83.032063
21
44.784932
0
LINE
8
annotation
62
1
39
211
10
83.032063
20
44.784932
11
82.989181
21
44.940782
0
LINE
8
annotation
62
1
39
211
10
82.989181
20
44.940782
11
82.920890
21
45.084428
0
LINE
8
annotation
62
1
39
211
10
82.920890
20
45.084428
11
82.829790
21
45.213226
0
LINE
8
annotation
62
1
39
211
10
82.829790
20
45.213226
11
82.718481
21
45.324534
0
LINE
8
annotation
62
1
39
211
10
82.718481
20
45.324534
11
82.589562
21
45.415708
0
LINE
8
annotation
62
1
39
211
10
82.589562
20
45.415708
11
82.445635
21
45.484104
0
LINE
8
annotation
62
1
39
211
10
82.445635
20
45.484104
11
82.289300
21
45.527080
0
LINE
8
annotation
62
1
39
211
10
82.289300
20
45.527080
11
82.123156
21
45.541993
0
LINE
8
annotation
62
1
39
211
10
82.123156
20
45.541993
11
81.199379
21
45.541993
0
LINE
8
annotation
62
1
39
211
10
81.292743
20
66.241693
11
78.982907
21
66.241693
0
LINE
8
annotation
62
1
39
211
10
78.982907
20
66.241693
11
79.905380
21
69.476872
0
LINE
8
annotation
62
1
39
211
10
80.600366
20
65.316872
11
80.600366
21
67.164427
0
LINE
8
annotation
62
1
39
211
10
75.926817
20
89.246924
11
76.850595
21
89.246924
0
LINE
8
annotation
62
1
39
211
10
76.850595
20
89.246924
11
76.850595
21
89.246924
0
LINE
8
annotation
62
1
39
211
10
76.850595
20
89.246924
11
77.016395
21
89.261832
0
LINE
8
annotation
62
1
39
211
10
77.016395
20
89.261832
11
77.172548
21
89.304809
0
LINE
8
annotation
62
1
39
211
10
77.172548
20
89.304809
11
77.316421
21
89.373239
0
LINE
8
annotation
62
1
39
211
10
77.316421
20
89.373239
11
77.445383
21
89.464504
0
LINE
8
annotation
62
1
39
211
10
77.445383
20
89.464504
11
77.556799
21
89.575986
0
LINE
8
annotation
62
1
39
211
10
77.556799
20
89.575986
11
77.648039
21
89.705069
0
LINE
8
annotation
62
1
39
211
10
77.648039
20
89.705069
11
77.716470
21
89.849135
0
LINE
8
annotation
62
1
39
211
10
77.716470
20
89.849135
11
77.759458
21
90.005566
0
LINE
8
annotation
62
1
39
211
10
77.759458
20
90.005566
11
77.774373
21
90.171746
0
LINE
8
annotation
62
1
39
211
10
77.774373
20
90.171746
11
77.774373
21
90.631939
0
LINE
8
annotation
62
1
39
211
10
77.774373
20
90.631939
11
77.774373
21
90.631939
0
LINE
8
annotation
62
1
39
211
10
77.774373
20
90.631939
11
77.759467
21
90.798038
0
LINE
8
annotation
62
1
39
211
10
77.759467
20
90.798038
11
77.716500
21
90.954253
0
LINE
8
annotation
62
1
39
211
10
77.716500
20
90.954253
11
77.648097
21
91.098007
0
LINE
8
annotation
62
1
39
211
10
77.648097
20
91.098007
11
77.556885
21
91.226719
0
LINE
8
annotation
62
1
39
211
10
77.556885
20
91.226719
11
77.445490
21
91.337812
0
LINE
8
annotation
62
1
39
211
10
77.445490
20
91.337812
11
77.316537
21
91.428706
0
LINE
8
annotation
62
1
39
211
10
77.316537
20
91.428706
11
77.172653
21
91.496824
0
LINE
8
annotation
62
1
39
211
10
77.172653
20
91.496824
11
77.016464
21
91.539585
0
LINE
8
annotation
62
1
39
211
10
77.016464
20
91.539585
11
76.850595
21
91.554412
0
LINE
8
annotation
62
1
39
211
10
76.850595
20
91.554412
11
75.926817
21
91.554412
0
LINE
8
annotation
62
1
39
211
10
75.926817
20
91.554412
11
75.926817
21
93.406924
0
LINE
8
annotation
62
1
39
211
10
75.926817
20
93.406924
11
77.774373
21
93.406924
0
LINE
8
annotation
62
1
39
211
10
65.565828
20
117.108651
11
65.565828
21
117.108651
0
LINE
8
annotation
62
1
39
211
10
65.565828
20
117.108651
11
65.330239
21
117.020319
0
LINE
8
annotation
62
1
39
211
10
65.330239
20
117.020319
11
65.114055
21
116.901303
0
LINE
8
annotation
62
1
39
211
10
65.114055
20
116.901303
11
64.919496
21
116.754584
0
LINE
8
annotation
62
1
39
211
10
64.919496
20
116.754584
11
64.748780
21
116.583143
0
LINE
8
annotation
62
1
39
211
10
64.748780
20
116.583143
11
64.604127
21
116.389964
0
LINE
8
annotation
62
1
39
211
10
64.604127
20
116.389964
11
64.487756
21
116.178027
0
LINE
8
annotation
62
1
39
211
10
64.487756
20
116.178027
11
64.401886
21
115.950315
0
LINE
8
annotation
62
1
39
211
10
64.401886
20
115.950315
11
64.348737
21
115.709810
0
LINE
8
annotation
62
1
39
211
10
64.348737
20
115.709810
11
64.330527
21
115.459493
0
LINE
8
annotation
62
1
39
211
10
64.330527
20
115.459493
11
64.330527
21
114.228604
0
LINE
8
annotation
62
1
39
211
10
64.330527
20
114.228604
11
64.330527
21
114.228604
0
LINE
8
annotation
62
1
39
211
10
64.330527
20
114.228604
11
64.343804
21
114.080667
0
LINE
8
annotation
62
1
39
211
10
64.343804
20
114.080667
11
64.382074
21
113.941407
0
LINE
8
annotation
62
1
39
211
10
64.382074
20
113.941407
11
64.442993
21
113.813156
0
LINE
8
annotation
62
1
39
211
10
64.442993
20
113.813156
11
64.524217
21
113.698243
0
LINE
8
annotation
62
1
39
211
10
64.524217
20
113.698243
11
64.623403
21
113.598998
0
LINE
8
annotation
62
1
39
211
10
64.623403
20
113.598998
11
64.738208
21
113.517751
0
LINE
8
annotation
62
1
39
211
10
64.738208
20
113.517751
11
64.866288
21
113.456833
0
LINE
8
annotation
62
1
39
211
10
64.866288
20
113.456833
11
65.005300
21
113.418574
0
LINE
8
annotation
62
1
39
211
10
65.005300
20
113.418574
11
65.152900
21
113.405303
0
LINE
8
annotation
62
1
39
211
10
65.152900
20
113.405303
11
65.152900
21
113.405303
0
LINE
8
annotation
62
1
39
211
10
65.152900
20
113.405303
11
65.300806
21
113.418574
0
LINE
8
annotation
62
1
39
211
10
65.300806
20
113.418574
11
65.439980
21
113.456833
0
LINE
8
annotation
62
1
39
211
10
65.439980
20
113.456833
11
65.568108
21
113.517751
0
LINE
8
annotation
62
1
39
211
10
65.568108
20
113.517751
11
65.682874
21
113.598998
0
LINE
8
annotation
62
1
39
211
10
65.682874
20
113.598998
11
65.781965
21
113.698243
0
LINE
8
annotation
62
1
39
211
10
65.781965
20
113.698243
11
65.863065
21
113.813156
0
LINE
8
annotation
62
1
39
211
10
65.863065
20
113.813156
11
65.923859
21
113.941407
0
LINE
8
annotation
62
1
39
211
10
65.923859
20
113.941407
11
65.962034
21
114.080667
0
LINE
8
annotation
62
1
39
211
10
65.962034
20
114.080667
11
65.975273
21
114.228604
0
LINE
8
annotation
62
1
39
211
10
65.975273
20
114.228604
11
65.975273
21
114.638281
0
LINE
8
annotation
62
1
39
211
10
65.975273
20
114.638281
11
65.975273
21
114.638281
0
LINE
8
annotation
62
1
39
211
10
65.975273
20
114.638281
11
65.962034
21
114.786147
0
LINE
8
annotation
62
1
39
211
10
65.962034
20
114.786147
11
65.923859
21
114.925215
0
LINE
8
annotation
62
1
39
211
10
65.923859
20
114.925215
11
65.863065
21
115.053188
0
LINE
8
annotation
62
1
39
211
10
65.863065
20
115.053188
11
65.781965
21
115.167771
0
LINE
8
annotation
62
1
39
211
10
65.781965
20
115.167771
11
65.682874
21
115.266669
0
LINE
8
annotation
62
1
39
211
10
65.682874
20
115.266669
11
65.568108
21
115.347586
0
LINE
8
annotation
62
1
39
211
10
65.568108
20
115.347586
11
65.439980
21
115.408226
0
LINE
8
annotation
62
1
39
211
10
65.439980
20
115.408226
11
65.300806
21
115.446294
0
LINE
8
annotation
62
1
39
211
10
65.300806
20
115.446294
11
65.152900
21
115.459493
0
LINE
8
annotation
62
1
39
211
10
65.152900
20
115.459493
11
64.330527
21
115.459493
0
LINE
8
annotation
62
1
39
211
10
64.227527
20
112.942384
11
66.079202
21
112.942384
0
LINE
8
annotation
62
1
39
211
10
76.850590
20
137.107029
11
77.775411
21
141.267029
0
LINE
8
annotation
62
1
39
211
10
77.775411
20
141.267029
11
75.925507
21
141.267029
0
LINE
8
annotation
62
1
39
211
10
77.775411
20
139.414517
11
76.850590
21
139.414517
0
LINE
8
annotation
62
1
39
211
10
79.214051
20
161.959425
11
79.214051
21
161.959425
0
LINE
8
annotation
62
1
39
211
10
79.214051
20
161.959425
11
79.228965
21
161.793326
0
LINE
8
annotation
62
1
39
211
10
79.228965
20
161.793326
11
79.271954
21
161.637110
0
LINE
8
annotation
62
1
39
211
10
79.271954
20
161.637110
11
79.340385
21
161.493357
0
LINE
8
annotation
62
1
39
211
10
79.340385
20
161.493357
11
79.431624
21
161.364645
0
LINE
8
annotation
62
1
39
211
10
79.431624
20
161.364645
11
79.543041
21
161.253552
0
LINE
8
annotation
62
1
39
211
10
79.543041
20
161.253552
11
79.672002
21
161.162657
0
LINE
8
annotation
62
1
39
211
10
79.672002
20
161.162657
11
79.815876
21
161.094540
0
LINE
8
annotation
62
1
39
211
10
79.815876
20
161.094540
11
79.972028
21
161.051778
0
LINE
8
annotation
62
1
39
211
10
79.972028
20
161.051778
11
80.137829
21
161.036951
0
LINE
8
annotation
62
1
39
211
10
80.137829
20
161.036951
11
80.137829
21
161.036951
0
LINE
8
annotation
62
1
39
211
10
80.137829
20
161.036951
11
80.303629
21
161.051778
0
LINE
8
annotation
62
1
39
211
10
80.303629
20
161.051778
11
80.459781
21
161.094540
0
LINE
8
annotation
62
1
39
211
10
80.459781
20
161.094540
11
80.603655
21
161.162657
0
LINE
8
annotation
62
1
39
211
10
80.603655
20
161.162657
11
80.732616
21
161.253552
0
LINE
8
annotation
62
1
39
211
10
80.732616
20
161.253552
11
80.844033
21
161.364645
0
LINE
8
annotation
62
1
39
211
10
80.844033
20
161.364645
11
80.935272
21
161.493357
0
LINE
8
annotation
62
1
39
211
10
80.935272
20
161.493357
11
81.003703
21
161.637110
0
LINE
8
annotation
62
1
39
211
10
81.003703
20
161.637110
11
81.046692
21
161.793326
0
LINE
8
annotation
62
1
39
211
10
81.046692
20
161.793326
11
81.061606
21
161.959425
0
LINE
8
annotation
62
1
39
211
10
81.061606
20
161.959425
11
81.061606
21
162.419618
0
LINE
8
annotation
62
1
39
211
10
81.061606
20
162.419618
11
81.061606
21
162.419618
0
LINE
8
annotation
62
1
39
211
10
81.061606
20
162.419618
11
81.046700
21
162.585797
0
LINE
8
annotation
62
1
39
211
10
81.046700
20
162.585797
11
81.003733
21
162.742229
0
LINE
8
annotation
62
1
39
211
10
81.003733
20
162.742229
11
80.935330
21
162.886294
0
LINE
8
annotation
62
1
39
211
10
80.935330
20
162.886294
11
80.844119
21
163.015377
0
LINE
8
annotation
62
1
39
211
10
80.844119
20
163.015377
11
80.732723
21
163.126860
0
LINE
8
annotation
62
1
39
211
10
80.732723
20
163.126860
11
80.603771
21
163.218125
0
LINE
8
annotation
62
1
39
211
10
80.603771
20
163.218125
11
80.459887
21
163.286555
0
LINE
8
annotation
62
1
39
211
10
80.459887
20
163.286555
11
80.303697
21
163.329532
0
LINE
8
annotation
62
1
39
211
10
80.303697
20
163.329532
11
80.137829
21
163.344439
0
LINE
8
annotation
62
1
39
211
10
80.137829
20
163.344439
11
80.137829
21
163.344439
0
LINE
8
annotation
62
1
39
211
10
80.137829
20
163.344439
11
79.971960
21
163.329523
0
LINE
8
annotation
62
1
39
211
10
79.971960
20
163.329523
11
79.815770
21
163.286524
0
LINE
8
annotation
62
1
39
211
10
79.815770
20
163.286524
11
79.671886
21
163.218067
0
LINE
8
annotation
62
1
39
211
10
79.671886
20
163.218067
11
79.542934
21
163.126774
0
LINE
8
annotation
62
1
39
211
10
79.542934
20
163.126774
11
79.431538
21
163.015270
0
LINE
8
annotation
62
1
39
211
10
79.431538
20
163.015270
11
79.340327
21
162.886179
0
LINE
8
annotation
62
1
39
211
10
79.340327
20
162.886179
11
79.271924
21
162.742123
0
LINE
8
annotation
62
1
39
211
10
79.271924
20
162.742123
11
79.228957
21
162.585729
0
LINE
8
annotation
62
1
39
211
10
79.228957
20
162.585729
11
79.214051
21
162.419618
0
LINE
8
annotation
62
1
39
211
10
79.214051
20
162.419618
11
79.214051
21
161.959425
0
LINE
8
annotation
62
1
39
211
10
81.061606
20
164.269521
11
81.061606
21
164.269521
0
LINE
8
annotation
62
1
39
211
10
81.061606
20
164.269521
11
81.046700
21
164.434933
0
LINE
8
annotation
62
1
39
211
10
81.046700
20
164.434933
11
81.003733
21
164.590784
0
LINE
8
annotation
62
1
39
211
10
81.003733
20
164.590784
11
80.935330
21
164.734430
0
LINE
8
annotation
62
1
39
211
10
80.935330
20
164.734430
11
80.844119
21
164.863228
0
LINE
8
annotation
62
1
39
211
10
80.844119
20
164.863228
11
80.732723
21
164.974536
0
LINE
8
annotation
62
1
39
211
10
80.732723
20
164.974536
11
80.603771
21
165.065709
0
LINE
8
annotation
62
1
39
211
10
80.603771
20
165.065709
11
80.459887
21
165.134106
0
LINE
8
annotation
62
1
39
211
10
80.459887
20
165.134106
11
80.303697
21
165.177082
0
LINE
8
annotation
62
1
39
211
10
80.303697
20
165.177082
11
80.137829
21
165.191995
0
LINE
8
annotation
62
1
39
211
10
80.137829
20
165.191995
11
80.137829
21
165.191995
0
LINE
8
annotation
62
1
39
211
10
80.137829
20
165.191995
11
79.971960
21
165.177082
0
LINE
8
annotation
62
1
39
211
10
79.971960
20
165.177082
11
79.815770
21
165.134106
0
LINE
8
annotation
62
1
39
211
10
79.815770
20
165.134106
11
79.671886
21
165.065709
0
LINE
8
annotation
62
1
39
211
10
79.671886
20
165.065709
11
79.542934
21
164.974536
0
LINE
8
annotation
62
1
39
211
10
79.542934
20
164.974536
11
79.431538
21
164.863228
0
LINE
8
annotation
62
1
39
211
10
79.431538
20
164.863228
11
79.340327
21
164.734430
0
LINE
8
annotation
62
1
39
211
10
79.340327
20
164.734430
11
79.271924
21
164.590784
0
LINE
8
annotation
62
1
39
211
10
79.271924
20
164.590784
11
79.228957
21
164.434933
0
LINE
8
annotation
62
1
39
211
10
79.228957
20
164.434933
11
79.214051
21
164.269521
0
LINE
8
annotation
62
1
39
211
10
79.214051
20
164.269521
11
79.214051
21
164.269521
0
LINE
8
annotation
62
1
39
211
10
79.214051
20
164.269521
11
79.228965
21
164.103333
0
LINE
8
annotation
62
1
39
211
10
79.228965
20
164.103333
11
79.271954
21
163.946878
0
LINE
8
annotation
62
1
39
211
10
79.271954
20
163.946878
11
79.340385
21
163.802777
0
LINE
8
annotation
62
1
39
211
10
79.340385
20
163.802777
11
79.431624
21
163.673653
0
LINE
8
annotation
62
1
39
211
10
79.431624
20
163.673653
11
79.543041
21
163.562127
0
LINE
8
annotation
62
1
39
211
10
79.543041
20
163.562127
11
79.672002
21
163.470821
0
LINE
8
annotation
62
1
39
211
10
79.672002
20
163.470821
11
79.815876
21
163.402357
0
LINE
8
annotation
62
1
39
211
10
79.815876
20
163.402357
11
79.972028
21
163.359356
0
LINE
8
annotation
62
1
39
211
10
79.972028
20
163.359356
11
80.137829
21
163.344439
0
LINE
8
annotation
62
1
39
211
10
80.137829
20
163.344439
11
80.137829
21
163.344439
0
LINE
8
annotation
62
1
39
211
10
80.137829
20
163.344439
11
80.303629
21
163.359356
0
LINE
8
annotation
62
1
39
211
10
80.303629
20
163.359356
11
80.459781
21
163.402357
0
LINE
8
annotation
62
1
39
211
10
80.459781
20
163.402357
11
80.603655
21
163.470821
0
LINE
8
annotation
62
1
39
211
10
80.603655
20
163.470821
11
80.732616
21
163.562127
0
LINE
8
annotation
62
1
39
211
10
80.732616
20
163.562127
11
80.844033
21
163.673653
0
LINE
8
annotation
62
1
39
211
10
80.844033
20
163.673653
11
80.935272
21
163.802777
0
LINE
8
annotation
62
1
39
211
10
80.935272
20
163.802777
11
81.003703
21
163.946878
0
LINE
8
annotation
62
1
39
211
10
81.003703
20
163.946878
11
81.046692
21
164.103333
0
LINE
8
annotation
62
1
39
211
10
81.046692
20
164.103333
11
81.061606
21
164.269521
0
LINE
8
annotation
62
1
39
211
10
81.660622
20
184.967134
11
81.660622
21
184.967134
0
LINE
8
annotation
62
1
39
211
10
81.660622
20
184.967134
11
81.924795
21
185.065578
0
LINE
8
annotation
62
1
39
211
10
81.924795
20
185.065578
11
82.167274
21
185.198643
0
LINE
8
annotation
62
1
39
211
10
82.167274
20
185.198643
11
82.385551
21
185.362938
0
LINE
8
annotation
62
1
39
211
10
82.385551
20
185.362938
11
82.577122
21
185.555074
0
LINE
8
annotation
62
1
39
211
10
82.577122
20
185.555074
11
82.739481
21
185.771659
0
LINE
8
annotation
62
1
39
211
10
82.739481
20
185.771659
11
82.870122
21
186.009304
0
LINE
8
annotation
62
1
39
211
10
82.870122
20
186.009304
11
82.966539
21
186.264617
0
LINE
8
annotation
62
1
39
211
10
82.966539
20
186.264617
11
83.026227
21
186.534209
0
LINE
8
annotation
62
1
39
211
10
83.026227
20
186.534209
11
83.046680
21
186.814690
0
LINE
8
annotation
62
1
39
211
10
83.046680
20
186.814690
11
83.046680
21
188.202052
0
LINE
8
annotation
62
1
39
211
10
83.046680
20
188.202052
11
83.046680
21
188.202052
0
LINE
8
annotation
62
1
39
211
10
83.046680
20
188.202052
11
83.031809
21
188.368241
0
LINE
8
annotation
62
1
39
211
10
83.031809
20
188.368241
11
82.988927
21
188.524696
0
LINE
8
annotation
62
1
39
211
10
82.988927
20
188.524696
11
82.920636
21
188.668796
0
LINE
8
annotation
62
1
39
211
10
82.920636
20
188.668796
11
82.829536
21
188.797920
0
LINE
8
annotation
62
1
39
211
10
82.829536
20
188.797920
11
82.718227
21
188.909446
0
LINE
8
annotation
62
1
39
211
10
82.718227
20
188.909446
11
82.589308
21
189.000752
0
LINE
8
annotation
62
1
39
211
10
82.589308
20
189.000752
11
82.445381
21
189.069217
0
LINE
8
annotation
62
1
39
211
10
82.445381
20
189.069217
11
82.289046
21
189.112218
0
LINE
8
annotation
62
1
39
211
10
82.289046
20
189.112218
11
82.122902
21
189.127134
0
LINE
8
annotation
62
1
39
211
10
82.122902
20
189.127134
11
82.122902
21
189.127134
0
LINE
8
annotation
62
1
39
211
10
82.122902
20
189.127134
11
81.957102
21
189.112218
0
LINE
8
annotation
62
1
39
211
10
81.957102
20
189.112218
11
81.800949
21
189.069217
0
LINE
8
annotation
62
1
39
211
10
81.800949
20
189.069217
11
81.657076
21
189.000752
0
LINE
8
annotation
62
1
39
211
10
81.657076
20
189.000752
11
81.528115
21
188.909446
0
LINE
8
annotation
62
1
39
211
10
81.528115
20
188.909446
11
81.416698
21
188.797920
0
LINE
8
annotation
62
1
39
211
10
81.416698
20
188.797920
11
81.325458
21
188.668796
0
LINE
8
annotation
62
1
39
211
10
81.325458
20
188.668796
11
81.257028
21
188.524696
0
LINE
8
annotation
62
1
39
211
10
81.257028
20
188.524696
11
81.214039
21
188.368241
0
LINE
8
annotation
62
1
39
211
10
81.214039
20
188.368241
11
81.199125
21
188.202052
0
LINE
8
annotation
62
1
39
211
10
81.199125
20
188.202052
11
81.199125
21
187.739511
0
LINE
8
annotation
62
1
39
211
10
81.199125
20
187.739511
11
81.199125
21
187.739511
0
LINE
8
annotation
62
1
39
211
10
81.199125
20
187.739511
11
81.214039
21
187.573332
0
LINE
8
annotation
62
1
39
211
10
81.214039
20
187.573332
11
81.257028
21
187.416900
0
LINE
8
annotation
62
1
39
211
10
81.257028
20
187.416900
11
81.325458
21
187.272835
0
LINE
8
annotation
62
1
39
211
10
81.325458
20
187.272835
11
81.416698
21
187.143752
0
LINE
8
annotation
62
1
39
211
10
81.416698
20
187.143752
11
81.528115
21
187.032269
0
LINE
8
annotation
62
1
39
211
10
81.528115
20
187.032269
11
81.657076
21
186.941004
0
LINE
8
annotation
62
1
39
211
10
81.657076
20
186.941004
11
81.800949
21
186.872575
0
LINE
8
annotation
62
1
39
211
10
81.800949
20
186.872575
11
81.957102
21
186.829597
0
LINE
8
annotation
62
1
39
211
10
81.957102
20
186.829597
11
82.122902
21
186.814690
0
LINE
8
annotation
62
1
39
211
10
82.122902
20
186.814690
11
83.046680
21
186.814690
0
LINE
8
annotation
62
1
39
211
10
81.083685
20
184.447134
11
83.163685
21
184.447134
0
LINE
8
annotation
62
1
39
211
10
81.241648
20
208.976175
11
81.241648
21
212.978199
0
LINE
8
annotation
62
1
39
211
10
81.241648
20
212.978199
11
80.351947
21
212.088247
0
LINE
8
annotation
62
1
39
211
10
83.385113
20
209.028963
11
83.385113
21
209.028963
0
LINE
8
annotation
62
1
39
211
10
83.385113
20
209.028963
11
83.478125
21
208.994193
0
LINE
8
annotation
62
1
39
211
10
83.478125
20
208.994193
11
83.573516
21
208.976918
0
LINE
8
annotation
62
1
39
211
10
83.573516
20
208.976918
11
83.669131
21
208.976435
0
LINE
8
annotation
62
1
39
211
10
83.669131
20
208.976435
11
83.762812
21
208.992039
0
LINE
8
annotation
62
1
39
211
10
83.762812
20
208.992039
11
83.852404
21
209.023026
0
LINE
8
annotation
62
1
39
211
10
83.852404
20
209.023026
11
83.935749
21
209.068691
0
LINE
8
annotation
62
1
39
211
10
83.935749
20
209.068691
11
84.010690
21
209.128330
0
LINE
8
annotation
62
1
39
211
10
84.010690
20
209.128330
11
84.075073
21
209.201239
0
LINE
8
annotation
62
1
39
211
10
84.075073
20
209.201239
11
84.126739
21
209.286713
0
LINE
8
annotation
62
1
39
211
10
84.126739
20
209.286713
11
84.126739
21
209.286713
0
LINE
8
annotation
62
1
39
211
10
84.126739
20
209.286713
11
84.280893
21
209.647547
0
LINE
8
annotation
62
1
39
211
10
84.280893
20
209.647547
11
84.396508
21
210.018825
0
LINE
8
annotation
62
1
39
211
10
84.396508
20
210.018825
11
84.473585
21
210.397587
0
LINE
8
annotation
62
1
39
211
10
84.473585
20
210.397587
11
84.512123
21
210.780872
0
LINE
8
annotation
62
1
39
211
10
84.512123
20
210.780872
11
84.512123
21
211.165721
0
LINE
8
annotation
62
1
39
211
10
84.512123
20
211.165721
11
84.473585
21
211.549174
0
LINE
8
annotation
62
1
39
211
10
84.473585
20
211.549174
11
84.396508
21
211.928271
0
LINE
8
annotation
62
1
39
211
10
84.396508
20
211.928271
11
84.280893
21
212.300050
0
LINE
8
annotation
62
1
39
211
10
84.280893
20
212.300050
11
84.126739
21
212.661554
0
LINE
8
annotation
62
1
39
211
10
84.126739
20
212.661554
11
84.126739
21
212.661554
0
LINE
8
annotation
62
1
39
211
10
84.126739
20
212.661554
11
84.107136
21
212.698037
0
LINE
8
annotation
62
1
39
211
10
84.107136
20
212.698037
11
84.084910
21
212.732918
0
LINE
8
annotation
62
1
39
211
10
84.084910
20
212.732918
11
84.060231
21
212.766024
0
LINE
8
annotation
62
1
39
211
10
84.060231
20
212.766024
11
84.033266
21
212.797184
0
LINE
8
annotation
62
1
39
211
10
84.033266
20
212.797184
11
84.004181
21
212.826227
0
LINE
8
annotation
62
1
39
211
10
84.004181
20
212.826227
11
83.973144
21
212.852982
0
LINE
8
annotation
62
1
39
211
10
83.973144
20
212.852982
11
83.940322
21
212.877276
0
LINE
8
annotation
62
1
39
211
10
83.940322
20
212.877276
11
83.905883
21
212.898938
0
LINE
8
annotation
62
1
39
211
10
83.905883
20
212.898938
11
83.869993
21
212.917798
0
LINE
8
annotation
62
1
39
211
10
83.869993
20
212.917798
11
83.869993
21
212.917798
0
LINE
8
annotation
62
1
39
211
10
83.869993
20
212.917798
11
83.776243
21
212.953322
0
LINE
8
annotation
62
1
39
211
10
83.776243
20
212.953322
11
83.680293
21
212.971187
0
LINE
8
annotation
62
1
39
211
10
83.680293
20
212.971187
11
83.584274
21
212.972101
0
LINE
8
annotation
62
1
39
211
10
83.584274
20
212.972101
11
83.490319
21
212.956773
0
LINE
8
annotation
62
1
39
211
10
83.490319
20
212.956773
11
83.400559
21
212.925912
0
LINE
8
annotation
62
1
39
211
10
83.400559
20
212.925912
11
83.317127
21
212.880226
0
LINE
8
annotation
62
1
39
211
10
83.317127
20
212.880226
11
83.242153
21
212.820424
0
LINE
8
annotation
62
1
39
211
10
83.242153
20
212.820424
11
83.177769
21
212.747213
0
LINE
8
annotation
62
1
39
211
10
83.177769
20
212.747213
11
83.126108
21
212.661303
0
LINE
8
annotation
62
1
39
211
10
83.126108
20
212.661303
11
83.126108
21
212.661303
0
LINE
8
annotation
62
1
39
211
10
83.126108
20
212.661303
11
82.972698
21
212.300543
0
LINE
8
annotation
62
1
39
211
10
82.972698
20
212.300543
11
82.857641
21
211.929321
0
LINE
8
annotation
62
1
39
211
10
82.857641
20
211.929321
11
82.780936
21
211.550596
0
LINE
8
annotation
62
1
39
211
10
82.780936
20
211.550596
11
82.742583
21
211.167329
0
LINE
8
annotation
62
1
39
211
10
82.742583
20
211.167329
11
82.742583
21
210.782480
0
LINE
8
annotation
62
1
39
211
10
82.742583
20
210.782480
11
82.780936
21
210.399009
0
LINE
8
annotation
62
1
39
211
10
82.780936
20
210.399009
11
82.857641
21
210.019875
0
LINE
8
annotation
62
1
39
211
10
82.857641
20
210.019875
11
82.972698
21
209.648040
0
LINE
8
annotation
62
1
39
211
10
82.972698
20
209.648040
11
83.126108
21
209.286462
0
LINE
8
annotation
62
1
39
211
10
83.126108
20
209.286462
11
83.126108
21
209.286462
0
LINE
8
annotation
62
1
39
211
10
83.126108
20
209.286462
11
83.145640
21
209.250051
0
LINE
8
annotation
62
1
39
211
10
83.145640
20
209.250051
11
83.167701
21
209.215345
0
LINE
8
annotation
62
1
39
211
10
83.167701
20
209.215345
11
83.192198
21
209.182447
0
LINE
8
annotation
62
1
39
211
10
83.192198
20
209.182447
11
83.219036
21
209.151465
0
LINE
8
annotation
62
1
39
211
10
83.219036
20
209.151465
11
83.248124
21
209.122503
0
LINE
8
annotation
62
1
39
211
10
83.248124
20
209.122503
11
83.279369
21
209.095666
0
LINE
8
annotation
62
1
39
211
10
83.279369
20
209.095666
11
83.312677
21
209.071061
0
LINE
8
annotation
62
1
39
211
10
83.312677
20
209.071061
11
83.347956
21
209.048791
0
LINE
8
annotation
62
1
39
211
10
83.347956
20
209.048791
11
83.385113
21
209.028963
0
LINE
8
annotation
62
1
39
211
10
76.024815
20
26.503352
11
71.683199
21
26.503352
0
LINE
8
annotation
62
1
39
211
10
71.683199
20
26.503352
11
76.024815
21
34.322577
0
LINE
8
annotation
62
1
39
211
10
76.024815
20
34.322577
11
71.683199
21
34.322577
0
LINE
8
annotation
62
1
39
211
10
83.233178
20
30.412964
11
78.957760
21
30.412964
0
LINE
8
annotation
62
1
39
211
10
86.164651
20
28.237008
11
86.164651
21
28.237008
0
LINE
8
annotation
62
1
39
211
10
86.164651
20
28.237008
11
86.192685
21
27.924805
0
LINE
8
annotation
62
1
39
211
10
86.192685
20
27.924805
11
86.273487
21
27.631179
0
LINE
8
annotation
62
1
39
211
10
86.273487
20
27.631179
11
86.402111
21
27.360977
0
LINE
8
annotation
62
1
39
211
10
86.402111
20
27.360977
11
86.573607
21
27.119046
0
LINE
8
annotation
62
1
39
211
10
86.573607
20
27.119046
11
86.783028
21
26.910234
0
LINE
8
annotation
62
1
39
211
10
86.783028
20
26.910234
11
87.025427
21
26.739386
0
LINE
8
annotation
62
1
39
211
10
87.025427
20
26.739386
11
87.295854
21
26.611352
0
LINE
8
annotation
62
1
39
211
10
87.295854
20
26.611352
11
87.589362
21
26.530976
0
LINE
8
annotation
62
1
39
211
10
87.589362
20
26.530976
11
87.901003
21
26.503107
0
LINE
8
annotation
62
1
39
211
10
87.901003
20
26.503107
11
87.901003
21
26.503107
0
LINE
8
annotation
62
1
39
211
10
87.901003
20
26.503107
11
88.212645
21
26.530976
0
LINE
8
annotation
62
1
39
211
10
88.212645
20
26.530976
11
88.506153
21
26.611352
0
LINE
8
annotation
62
1
39
211
10
88.506153
20
26.611352
11
88.776580
21
26.739386
0
LINE
8
annotation
62
1
39
211
10
88.776580
20
26.739386
11
89.018979
21
26.910234
0
LINE
8
annotation
62
1
39
211
10
89.018979
20
26.910234
11
89.228400
21
27.119046
0
LINE
8
annotation
62
1
39
211
10
89.228400
20
27.119046
11
89.399896
21
27.360977
0
LINE
8
annotation
62
1
39
211
10
89.399896
20
27.360977
11
89.528519
21
27.631179
0
LINE
8
annotation
62
1
39
211
10
89.528519
20
27.631179
11
89.609322
21
27.924805
0
LINE
8
annotation
62
1
39
211
10
89.609322
20
27.924805
11
89.637356
21
28.237008
0
LINE
8
annotation
62
1
39
211
10
89.637356
20
28.237008
11
89.637356
21
29.101996
0
LINE
8
annotation
62
1
39
211
10
89.637356
20
29.101996
11
89.637356
21
29.101996
0
LINE
8
annotation
62
1
39
211
10
89.637356
20
29.101996
11
89.609338
21
29.414351
0
LINE
8
annotation
62
1
39
211
10
89.609338
20
29.414351
11
89.528576
21
29.708382
0
LINE
8
annotation
62
1
39
211
10
89.528576
20
29.708382
11
89.400005
21
29.979172
0
LINE
8
annotation
62
1
39
211
10
89.400005
20
29.979172
11
89.228561
21
30.221798
0
LINE
8
annotation
62
1
39
211
10
89.228561
20
30.221798
11
89.019180
21
30.431343
0
LINE
8
annotation
62
1
39
211
10
89.019180
20
30.431343
11
88.776798
21
30.602887
0
LINE
8
annotation
62
1
39
211
10
88.776798
20
30.602887
11
88.506351
21
30.731509
0
LINE
8
annotation
62
1
39
211
10
88.506351
20
30.731509
11
88.212774
21
30.812290
0
LINE
8
annotation
62
1
39
211
10
88.212774
20
30.812290
11
87.901003
21
30.840310
0
LINE
8
annotation
62
1
39
211
10
87.901003
20
30.840310
11
87.901003
21
30.840310
0
LINE
8
annotation
62
1
39
211
10
87.901003
20
30.840310
11
87.589233
21
30.812274
0
LINE
8
annotation
62
1
39
211
10
87.589233
20
30.812274
11
87.295656
21
30.731452
0
LINE
8
annotation
62
1
39
211
10
87.295656
20
30.731452
11
87.025209
21
30.602778
0
LINE
8
annotation
62
1
39
211
10
87.025209
20
30.602778
11
86.782827
21
30.431182
0
LINE
8
annotation
62
1
39
211
10
86.782827
20
30.431182
11
86.573446
21
30.221597
0
LINE
8
annotation
62
1
39
211
10
86.573446
20
30.221597
11
86.402002
21
29.978954
0
LINE
8
annotation
62
1
39
211
10
86.402002
20
29.978954
11
86.273431
21
29.708185
0
LINE
8
annotation
62
1
39
211
10
86.273431
20
29.708185
11
86.192669
21
29.414222
0
LINE
8
annotation
62
1
39
211
10
86.192669
20
29.414222
11
86.164651
21
29.101996
0
LINE
8
annotation
62
1
39
211
10
86.164651
20
29.101996
11
86.164651
21
28.237008
0
LINE
8
annotation
62
1
39
211
10
89.637356
20
32.579114
11
89.637356
21
32.579114
0
LINE
8
annotation
62
1
39
211
10
89.637356
20
32.579114
11
89.609338
21
32.890026
0
LINE
8
annotation
62
1
39
211
10
89.609338
20
32.890026
11
89.528576
21
33.182966
0
LINE
8
annotation
62
1
39
211
10
89.528576
20
33.182966
11
89.400005
21
33.452966
0
LINE
8
annotation
62
1
39
211
10
89.400005
20
33.452966
11
89.228561
21
33.695058
0
LINE
8
annotation
62
1
39
211
10
89.228561
20
33.695058
11
89.019180
21
33.904274
0
LINE
8
annotation
62
1
39
211
10
89.019180
20
33.904274
11
88.776798
21
34.075646
0
LINE
8
annotation
62
1
39
211
10
88.776798
20
34.075646
11
88.506351
21
34.204205
0
LINE
8
annotation
62
1
39
211
10
88.506351
20
34.204205
11
88.212774
21
34.284984
0
LINE
8
annotation
62
1
39
211
10
88.212774
20
34.284984
11
87.901003
21
34.313015
0
LINE
8
annotation
62
1
39
211
10
87.901003
20
34.313015
11
87.901003
21
34.313015
0
LINE
8
annotation
62
1
39
211
10
87.901003
20
34.313015
11
87.589233
21
34.284984
0
LINE
8
annotation
62
1
39
211
10
87.589233
20
34.284984
11
87.295656
21
34.204205
0
LINE
8
annotation
62
1
39
211
10
87.295656
20
34.204205
11
87.025209
21
34.075646
0
LINE
8
annotation
62
1
39
211
10
87.025209
20
34.075646
11
86.782827
21
33.904274
0
LINE
8
annotation
62
1
39
211
10
86.782827
20
33.904274
11
86.573446
21
33.695058
0
LINE
8
annotation
62
1
39
211
10
86.573446
20
33.695058
11
86.402002
21
33.452966
0
LINE
8
annotation
62
1
39
211
10
86.402002
20
33.452966
11
86.273431
21
33.182966
0
LINE
8
annotation
62
1
39
211
10
86.273431
20
33.182966
11
86.192669
21
32.890026
0
LINE
8
annotation
62
1
39
211
10
86.192669
20
32.890026
11
86.164651
21
32.579114
0
LINE
8
annotation
62
1
39
211
10
86.164651
20
32.579114
11
86.164651
21
32.579114
0
LINE
8
annotation
62
1
39
211
10
86.164651
20
32.579114
11
86.192685
21
32.266743
0
LINE
8
annotation
62
1
39
211
10
86.192685
20
32.266743
11
86.273487
21
31.972666
0
LINE
8
annotation
62
1
39
211
10
86.273487
20
31.972666
11
86.402111
21
31.701812
0
LINE
8
annotation
62
1
39
211
10
86.402111
20
31.701812
11
86.573607
21
31.459108
0
LINE
8
annotation
62
1
39
211
10
86.573607
20
31.459108
11
86.783028
21
31.249481
0
LINE
8
annotation
62
1
39
211
10
86.783028
20
31.249481
11
87.025427
21
31.077861
0
LINE
8
annotation
62
1
39
211
10
87.025427
20
31.077861
11
87.295854
21
30.949173
0
LINE
8
annotation
62
1
39
211
10
87.295854
20
30.949173
11
87.589362
21
30.868347
0
LINE
8
annotation
62
1
39
211
10
87.589362
20
30.868347
11
87.901003
21
30.840310
0
LINE
8
annotation
62
1
39
211
10
87.901003
20
30.840310
11
87.901003
21
30.840310
0
LINE
8
annotation
62
1
39
211
10
87.901003
20
30.840310
11
88.212645
21
30.868347
0
LINE
8
annotation
62
1
39
211
10
88.212645
20
30.868347
11
88.506153
21
30.949173
0
LINE
8
annotation
62
1
39
211
10
88.506153
20
30.949173
11
88.776580
21
31.077861
0
LINE
8
annotation
62
1
39
211
10
88.776580
20
31.077861
11
89.018979
21
31.249481
0
LINE
8
annotation
62
1
39
211
10
89.018979
20
31.249481
11
89.228400
21
31.459108
0
LINE
8
annotation
62
1
39
211
10
89.228400
20
31.459108
11
89.399896
21
31.701812
0
LINE
8
annotation
62
1
39
211
10
89.399896
20
31.701812
11
89.528519
21
31.972666
0
LINE
8
annotation
62
1
39
211
10
89.528519
20
31.972666
11
89.609322
21
32.266743
0
LINE
8
annotation
62
1
39
211
10
89.609322
20
32.266743
11
89.637356
21
32.579114
0
LINE
8
boundary
62
5
39
2
10
121.017576
20
212.153886
11
121.017575
21
209.534550
0
LINE
8
boundary
62
5
39
2
10
121.017575
20
209.534550
11
147.325972
21
209.404552
0
LINE
8
boundary
62
5
39
2
10
147.325972
20
209.404552
11
147.325972
21
207.058552
0
LINE
8
boundary
62
5
39
2
10
147.325972
20
207.058552
11
121.017575
21
207.058552
0
LINE
8
boundary
62
5
39
2
10
121.017575
20
207.058552
11
121.017570
21
183.871467
0
LINE
8
boundary
62
5
39
2
10
121.017570
20
183.871467
11
144.371716
21
183.741469
0
LINE
8
boundary
62
5
39
2
10
144.371716
20
183.741469
11
144.371716
21
181.395469
0
LINE
8
boundary
62
5
39
2
10
144.371716
20
181.395469
11
121.017570
21
181.395469
0
LINE
8
boundary
62
5
39
2
10
121.017570
20
181.395469
11
121.017567
21
168.976947
0
LINE
8
boundary
62
5
39
2
10
121.017567
20
168.976947
11
121.017566
21
158.078385
0
LINE
8
boundary
62
5
39
2
10
121.017566
20
158.078385
11
136.810453
21
158.078385
0
LINE
8
boundary
62
5
39
2
10
136.810453
20
158.078385
11
136.810453
21
155.732385
0
LINE
8
boundary
62
5
39
2
10
136.810453
20
155.732385
11
121.017566
21
155.732385
0
LINE
8
boundary
62
5
39
2
10
121.017566
20
155.732385
11
121.017562
21
132.415302
0
LINE
8
boundary
62
5
39
2
10
121.017562
20
132.415302
11
139.505556
21
132.415302
0
LINE
8
boundary
62
5
39
2
10
139.505556
20
132.415302
11
139.505556
21
130.069302
0
LINE
8
boundary
62
5
39
2
10
139.505556
20
130.069302
11
121.017562
21
130.069302
0
LINE
8
boundary
62
5
39
2
10
121.017562
20
130.069302
11
121.017559
21
106.752218
0
LINE
8
boundary
62
5
39
2
10
121.017559
20
106.752218
11
139.049281
21
106.752218
0
LINE
8
boundary
62
5
39
2
10
139.049281
20
106.752218
11
139.049281
21
104.406218
0
LINE
8
boundary
62
5
39
2
10
139.049281
20
104.406218
11
121.017559
21
104.406218
0
LINE
8
boundary
62
5
39
2
10
121.017559
20
104.406218
11
121.017557
21
95.340536
0
LINE
8
boundary
62
5
39
2
10
121.017557
20
95.340536
11
121.017555
21
81.089135
0
LINE
8
boundary
62
5
39
2
10
121.017555
20
81.089135
11
132.095555
21
81.089135
0
LINE
8
boundary
62
5
39
2
10
132.095555
20
81.089135
11
132.095555
21
78.743135
0
LINE
8
boundary
62
5
39
2
10
132.095555
20
78.743135
11
121.017554
21
78.743135
0
LINE
8
boundary
62
5
39
2
10
121.017554
20
78.743135
11
121.017549
21
55.426051
0
LINE
8
boundary
62
5
39
2
10
121.017549
20
55.426051
11
132.095548
21
55.426051
0
LINE
8
boundary
62
5
39
2
10
132.095548
20
55.426051
11
132.095548
21
53.080051
0
LINE
8
boundary
62
5
39
2
10
132.095548
20
53.080051
11
121.017549
21
53.080051
0
LINE
8
boundary
62
5
39
2
10
121.017549
20
53.080051
11
121.017544
21
29.892966
0
LINE
8
boundary
62
5
39
2
10
121.017544
20
29.892966
11
140.646456
21
29.762968
0
LINE
8
boundary
62
5
39
2
10
140.646456
20
29.762968
11
140.646455
21
27.416968
0
LINE
8
boundary
62
5
39
2
10
140.646455
20
27.416968
11
121.017544
21
27.416968
0
LINE
8
boundary
62
5
39
2
10
121.017544
20
27.416968
11
121.017540
21
6.667500
0
LINE
8
boundary
62
5
39
2
10
121.017540
20
6.667500
11
130.788156
21
6.667510
0
LINE
8
boundary
62
5
39
2
10
130.788156
20
6.667510
11
175.017577
21
6.667549
0
LINE
8
boundary
62
5
39
2
10
175.017577
20
6.667549
11
146.158889
21
47.997775
0
LINE
8
boundary
62
5
39
2
10
146.158889
20
47.997775
11
143.427546
21
52.875605
0
LINE
8
boundary
62
5
39
2
10
143.427546
20
52.875605
11
143.427546
21
54.475462
0
LINE
8
boundary
62
5
39
2
10
143.427546
20
54.475462
11
143.427557
21
81.685829
0
LINE
8
boundary
62
5
39
2
10
143.427557
20
81.685829
11
151.521277
21
90.379478
0
LINE
8
boundary
62
5
39
2
10
151.521277
20
90.379478
11
153.957555
21
95.340534
0
LINE
8
boundary
62
5
39
2
10
153.957555
20
95.340534
11
157.039811
21
101.617017
0
LINE
8
boundary
62
5
39
2
10
157.039811
20
101.617017
11
157.550220
21
110.496150
0
LINE
8
boundary
62
5
39
2
10
157.550220
20
110.496150
11
158.562837
21
128.111811
0
LINE
8
boundary
62
5
39
2
10
158.562837
20
128.111811
11
154.462805
21
153.567305
0
LINE
8
boundary
62
5
39
2
10
154.462805
20
153.567305
11
152.136777
21
156.704115
0
LINE
8
boundary
62
5
39
2
10
152.136777
20
156.704115
11
148.183330
21
168.977097
0
LINE
8
boundary
62
5
39
2
10
148.183330
20
168.977097
11
167.450192
21
179.640749
0
LINE
8
boundary
62
5
39
2
10
167.450192
20
179.640749
11
169.549968
21
195.897287
0
LINE
8
boundary
62
5
39
2
10
169.549968
20
195.897287
11
175.017580
21
212.153862
0
LINE
8
boundary
62
5
39
2
10
175.017580
20
212.153862
11
138.288368
21
212.153883
0
LINE
8
boundary
62
5
39
2
10
138.288368
20
212.153883
11
121.017576
21
212.153886
0
LINE
8
annotation
62
1
39
211
10
146.896712
20
26.509934
11
145.049156
21
26.509934
0
LINE
8
annotation
62
1
39
211
10
145.049156
20
26.509934
11
146.756358
21
29.258310
0
LINE
8
annotation
62
1
39
211
10
146.756358
20
29.258310
11
146.756358
21
29.258310
0
LINE
8
annotation
62
1
39
211
10
146.756358
20
29.258310
11
146.758399
21
29.260835
0
LINE
8
annotation
62
1
39
211
10
146.758399
20
29.260835
11
146.760356
21
29.263382
0
LINE
8
annotation
62
1
39
211
10
146.760356
20
29.263382
11
146.762242
21
29.265972
0
LINE
8
annotation
62
1
39
211
10
146.762242
20
29.265972
11
146.764070
21
29.268626
0
LINE
8
annotation
62
1
39
211
10
146.764070
20
29.268626
11
146.765854
21
29.271366
0
LINE
8
annotation
62
1
39
211
10
146.765854
20
29.271366
11
146.767605
21
29.274214
0
LINE
8
annotation
62
1
39
211
10
146.767605
20
29.274214
11
146.769336
21
29.277190
0
LINE
8
annotation
62
1
39
211
10
146.769336
20
29.277190
11
146.771062
21
29.280317
0
LINE
8
annotation
62
1
39
211
10
146.771062
20
29.280317
11
146.772793
21
29.283615
0
LINE
8
annotation
62
1
39
211
10
146.772793
20
29.283615
11
146.772793
21
29.283615
0
LINE
8
annotation
62
1
39
211
10
146.772793
20
29.283615
11
146.843283
21
29.434963
0
LINE
8
annotation
62
1
39
211
10
146.843283
20
29.434963
11
146.884462
21
29.591848
0
LINE
8
annotation
62
1
39
211
10
146.884462
20
29.591848
11
146.897340
21
29.750726
0
LINE
8
annotation
62
1
39
211
10
146.897340
20
29.750726
11
146.882924
21
29.908052
0
LINE
8
annotation
62
1
39
211
10
146.882924
20
29.908052
11
146.842225
21
30.060280
0
LINE
8
annotation
62
1
39
211
10
146.842225
20
30.060280
11
146.776252
21
30.203866
0
LINE
8
annotation
62
1
39
211
10
146.776252
20
30.203866
11
146.686014
21
30.335265
0
LINE
8
annotation
62
1
39
211
10
146.686014
20
30.335265
11
146.572520
21
30.450931
0
LINE
8
annotation
62
1
39
211
10
146.572520
20
30.450931
11
146.436779
21
30.547320
0
LINE
8
annotation
62
1
39
211
10
146.436779
20
30.547320
11
146.436779
21
30.547320
0
LINE
8
annotation
62
1
39
211
10
146.436779
20
30.547320
11
146.285011
21
30.616808
0
LINE
8
annotation
62
1
39
211
10
146.285011
20
30.616808
11
146.127885
21
30.657353
0
LINE
8
annotation
62
1
39
211
10
146.127885
20
30.657353
11
145.968914
21
30.669866
0
LINE
8
annotation
62
1
39
211
10
145.968914
20
30.669866
11
145.811612
21
30.655261
0
LINE
8
annotation
62
1
39
211
10
145.811612
20
30.655261
11
145.659491
21
30.614449
0
LINE
8
annotation
62
1
39
211
10
145.659491
20
30.614449
11
145.516064
21
30.548344
0
LINE
8
annotation
62
1
39
211
10
145.516064
20
30.548344
11
145.384844
21
30.457858
0
LINE
8
annotation
62
1
39
211
10
145.384844
20
30.457858
11
145.269343
21
30.343904
0
LINE
8
annotation
62
1
39
211
10
145.269343
20
30.343904
11
145.173074
21
30.207393
0
LINE
8
annotation
62
1
39
211
10
145.173074
20
30.207393
11
145.051765
21
29.974688
0
LINE
8
annotation
62
1
39
211
10
136.498248
20
52.173182
11
137.422026
21
52.173182
0
LINE
8
annotation
62
1
39
211
10
137.422026
20
52.173182
11
137.422026
21
52.173182
0
LINE
8
annotation
62
1
39
211
10
137.422026
20
52.173182
11
137.588170
21
52.188086
0
LINE
8
annotation
62
1
39
211
10
137.588170
20
52.188086
11
137.744505
21
52.231041
0
LINE
8
annotation
62
1
39
211
10
137.744505
20
52.231041
11
137.888432
21
52.299409
0
LINE
8
annotation
62
1
39
211
10
137.888432
20
52.299409
11
138.017350
21
52.390555
0
LINE
8
annotation
62
1
39
211
10
138.017350
20
52.390555
11
138.128660
21
52.501841
0
LINE
8
annotation
62
1
39
211
10
138.128660
20
52.501841
11
138.219760
21
52.630631
0
LINE
8
annotation
62
1
39
211
10
138.219760
20
52.630631
11
138.288051
21
52.774288
0
LINE
8
annotation
62
1
39
211
10
138.288051
20
52.774288
11
138.330932
21
52.930175
0
LINE
8
annotation
62
1
39
211
10
138.330932
20
52.930175
11
138.345804
21
53.095655
0
LINE
8
annotation
62
1
39
211
10
138.345804
20
53.095655
11
138.345804
21
53.558196
0
LINE
8
annotation
62
1
39
211
10
138.345804
20
53.558196
11
138.345804
21
53.558196
0
LINE
8
annotation
62
1
39
211
10
138.345804
20
53.558196
11
138.330932
21
53.723608
0
LINE
8
annotation
62
1
39
211
10
138.330932
20
53.723608
11
138.288051
21
53.879458
0
LINE
8
annotation
62
1
39
211
10
138.288051
20
53.879458
11
138.219760
21
54.023104
0
LINE
8
annotation
62
1
39
211
10
138.219760
20
54.023104
11
138.128660
21
54.151903
0
LINE
8
annotation
62
1
39
211
10
138.128660
20
54.151903
11
138.017350
21
54.263210
0
LINE
8
annotation
62
1
39
211
10
138.017350
20
54.263210
11
137.888432
21
54.354384
0
LINE
8
annotation
62
1
39
211
10
137.888432
20
54.354384
11
137.744505
21
54.422781
0
LINE
8
annotation
62
1
39
211
10
137.744505
20
54.422781
11
137.588170
21
54.465757
0
LINE
8
annotation
62
1
39
211
10
137.588170
20
54.465757
11
137.422026
21
54.480670
0
LINE
8
annotation
62
1
39
211
10
137.422026
20
54.480670
11
136.959485
21
54.480670
0
LINE
8
annotation
62
1
39
211
10
136.959485
20
54.480670
11
137.422026
21
54.480670
0
LINE
8
annotation
62
1
39
211
10
137.422026
20
54.480670
11
137.422026
21
54.480670
0
LINE
8
annotation
62
1
39
211
10
137.422026
20
54.480670
11
137.588170
21
54.495586
0
LINE
8
annotation
62
1
39
211
10
137.588170
20
54.495586
11
137.744505
21
54.538587
0
LINE
8
annotation
62
1
39
211
10
137.744505
20
54.538587
11
137.888432
21
54.607052
0
LINE
8
annotation
62
1
39
211
10
137.888432
20
54.607052
11
138.017350
21
54.698358
0
LINE
8
annotation
62
1
39
211
10
138.017350
20
54.698358
11
138.128660
21
54.809883
0
LINE
8
annotation
62
1
39
211
10
138.128660
20
54.809883
11
138.219760
21
54.939008
0
LINE
8
annotation
62
1
39
211
10
138.219760
20
54.939008
11
138.288051
21
55.083108
0
LINE
8
annotation
62
1
39
211
10
138.288051
20
55.083108
11
138.330932
21
55.239563
0
LINE
8
annotation
62
1
39
211
10
138.330932
20
55.239563
11
138.345804
21
55.405752
0
LINE
8
annotation
62
1
39
211
10
138.345804
20
55.405752
11
138.345804
21
55.405752
0
LINE
8
annotation
62
1
39
211
10
138.345804
20
55.405752
11
138.330932
21
55.571163
0
LINE
8
annotation
62
1
39
211
10
138.330932
20
55.571163
11
138.288051
21
55.727014
0
LINE
8
annotation
62
1
39
211
10
138.288051
20
55.727014
11
138.219760
21
55.870660
0
LINE
8
annotation
62
1
39
211
10
138.219760
20
55.870660
11
138.128660
21
55.999458
0
LINE
8
annotation
62
1
39
211
10
138.128660
20
55.999458
11
138.017350
21
56.110766
0
LINE
8
annotation
62
1
39
211
10
138.017350
20
56.110766
11
137.888432
21
56.201940
0
LINE
8
annotation
62
1
39
211
10
137.888432
20
56.201940
11
137.744505
21
56.270336
0
LINE
8
annotation
62
1
39
211
10
137.744505
20
56.270336
11
137.588170
21
56.313312
0
LINE
8
annotation
62
1
39
211
10
137.588170
20
56.313312
11
137.422026
21
56.328225
0
LINE
8
annotation
62
1
39
211
10
137.422026
20
56.328225
11
136.498248
21
56.328225
0
LINE
8
annotation
62
1
39
211
10
138.576951
20
78.760956
11
136.267115
21
78.760956
0
LINE
8
annotation
62
1
39
211
10
136.267115
20
78.760956
11
137.189589
21
81.996135
0
LINE
8
annotation
62
1
39
211
10
137.884574
20
77.836135
11
137.884574
21
79.683690
0
LINE
8
annotation
62
1
39
211
10
143.451981
20
103.499218
11
144.375759
21
103.499218
0
LINE
8
annotation
62
1
39
211
10
144.375759
20
103.499218
11
144.375759
21
103.499218
0
LINE
8
annotation
62
1
39
211
10
144.375759
20
103.499218
11
144.541559
21
103.514126
0
LINE
8
annotation
62
1
39
211
10
144.541559
20
103.514126
11
144.697712
21
103.557103
0
LINE
8
annotation
62
1
39
211
10
144.697712
20
103.557103
11
144.841585
21
103.625533
0
LINE
8
annotation
62
1
39
211
10
144.841585
20
103.625533
11
144.970546
21
103.716798
0
LINE
8
annotation
62
1
39
211
10
144.970546
20
103.716798
11
145.081963
21
103.828280
0
LINE
8
annotation
62
1
39
211
10
145.081963
20
103.828280
11
145.173203
21
103.957363
0
LINE
8
annotation
62
1
39
211
10
145.173203
20
103.957363
11
145.241633
21
104.101429
0
LINE
8
annotation
62
1
39
211
10
145.241633
20
104.101429
11
145.284622
21
104.257860
0
LINE
8
annotation
62
1
39
211
10
145.284622
20
104.257860
11
145.299537
21
104.424040
0
LINE
8
annotation
62
1
39
211
10
145.299537
20
104.424040
11
145.299537
21
104.884233
0
LINE
8
annotation
62
1
39
211
10
145.299537
20
104.884233
11
145.299537
21
104.884233
0
LINE
8
annotation
62
1
39
211
10
145.299537
20
104.884233
11
145.284631
21
105.050332
0
LINE
8
annotation
62
1
39
211
10
145.284631
20
105.050332
11
145.241664
21
105.206547
0
LINE
8
annotation
62
1
39
211
10
145.241664
20
105.206547
11
145.173261
21
105.350301
0
LINE
8
annotation
62
1
39
211
10
145.173261
20
105.350301
11
145.082049
21
105.479013
0
LINE
8
annotation
62
1
39
211
10
145.082049
20
105.479013
11
144.970654
21
105.590106
0
LINE
8
annotation
62
1
39
211
10
144.970654
20
105.590106
11
144.841701
21
105.681000
0
LINE
8
annotation
62
1
39
211
10
144.841701
20
105.681000
11
144.697817
21
105.749118
0
LINE
8
annotation
62
1
39
211
10
144.697817
20
105.749118
11
144.541628
21
105.791879
0
LINE
8
annotation
62
1
39
211
10
144.541628
20
105.791879
11
144.375759
21
105.806706
0
LINE
8
annotation
62
1
39
211
10
144.375759
20
105.806706
11
143.451981
21
105.806706
0
LINE
8
annotation
62
1
39
211
10
143.451981
20
105.806706
11
143.451981
21
107.659218
0
LINE
8
annotation
62
1
39
211
10
143.451981
20
107.659218
11
145.299537
21
107.659218
0
LINE
8
annotation
62
1
39
211
10
145.295880
20
133.322302
11
145.295880
21
133.322302
0
LINE
8
annotation
62
1
39
211
10
145.295880
20
133.322302
11
145.031241
21
133.223078
0
LINE
8
annotation
62
1
39
211
10
145.031241
20
133.223078
11
144.788400
21
133.089386
0
LINE
8
annotation
62
1
39
211
10
144.788400
20
133.089386
11
144.569850
21
132.924575
0
LINE
8
annotation
62
1
39
211
10
144.569850
20
132.924575
11
144.378083
21
132.731995
0
LINE
8
annotation
62
1
39
211
10
144.378083
20
132.731995
11
144.215593
21
132.514995
0
LINE
8
annotation
62
1
39
211
10
144.215593
20
132.514995
11
144.084873
21
132.276925
0
LINE
8
annotation
62
1
39
211
10
144.084873
20
132.276925
11
143.988415
21
132.021134
0
LINE
8
annotation
62
1
39
211
10
143.988415
20
132.021134
11
143.928712
21
131.750973
0
LINE
8
annotation
62
1
39
211
10
143.928712
20
131.750973
11
143.908257
21
131.469790
0
LINE
8
annotation
62
1
39
211
10
143.908257
20
131.469790
11
143.908257
21
130.087123
0
LINE
8
annotation
62
1
39
211
10
143.908257
20
130.087123
11
143.908257
21
130.087123
0
LINE
8
annotation
62
1
39
211
10
143.908257
20
130.087123
11
143.923171
21
129.920944
0
LINE
8
annotation
62
1
39
211
10
143.923171
20
129.920944
11
143.966160
21
129.764512
0
LINE
8
annotation
62
1
39
211
10
143.966160
20
129.764512
11
144.034591
21
129.620447
0
LINE
8
annotation
62
1
39
211
10
144.034591
20
129.620447
11
144.125830
21
129.491364
0
LINE
8
annotation
62
1
39
211
10
144.125830
20
129.491364
11
144.237247
21
129.379881
0
LINE
8
annotation
62
1
39
211
10
144.237247
20
129.379881
11
144.366208
21
129.288616
0
LINE
8
annotation
62
1
39
211
10
144.366208
20
129.288616
11
144.510082
21
129.220186
0
LINE
8
annotation
62
1
39
211
10
144.510082
20
129.220186
11
144.666234
21
129.177209
0
LINE
8
annotation
62
1
39
211
10
144.666234
20
129.177209
11
144.832035
21
129.162302
0
LINE
8
annotation
62
1
39
211
10
144.832035
20
129.162302
11
144.832035
21
129.162302
0
LINE
8
annotation
62
1
39
211
10
144.832035
20
129.162302
11
144.998178
21
129.177209
0
LINE
8
annotation
62
1
39
211
10
144.998178
20
129.177209
11
145.154514
21
129.220186
0
LINE
8
annotation
62
1
39
211
10
145.154514
20
129.220186
11
145.298440
21
129.288616
0
LINE
8
annotation
62
1
39
211
10
145.298440
20
129.288616
11
145.427359
21
129.379881
0
LINE
8
annotation
62
1
39
211
10
145.427359
20
129.379881
11
145.538668
21
129.491364
0
LINE
8
annotation
62
1
39
211
10
145.538668
20
129.491364
11
145.629768
21
129.620447
0
LINE
8
annotation
62
1
39
211
10
145.629768
20
129.620447
11
145.698059
21
129.764512
0
LINE
8
annotation
62
1
39
211
10
145.698059
20
129.764512
11
145.740941
21
129.920944
0
LINE
8
annotation
62
1
39
211
10
145.740941
20
129.920944
11
145.755812
21
130.087123
0
LINE
8
annotation
62
1
39
211
10
145.755812
20
130.087123
11
145.755812
21
130.547316
0
LINE
8
annotation
62
1
39
211
10
145.755812
20
130.547316
11
145.755812
21
130.547316
0
LINE
8
annotation
62
1
39
211
10
145.755812
20
130.547316
11
145.740941
21
130.713415
0
LINE
8
annotation
62
1
39
211
10
145.740941
20
130.713415
11
145.698059
21
130.869631
0
LINE
8
annotation
62
1
39
211
10
145.698059
20
130.869631
11
145.629768
21
131.013384
0
LINE
8
annotation
62
1
39
211
10
145.629768
20
131.013384
11
145.538668
21
131.142097
0
LINE
8
annotation
62
1
39
211
10
145.538668
20
131.142097
11
145.427359
21
131.253189
0
LINE
8
annotation
62
1
39
211
10
145.427359
20
131.253189
11
145.298440
21
131.344084
0
LINE
8
annotation
62
1
39
211
10
145.298440
20
131.344084
11
145.154514
21
131.412201
0
LINE
8
annotation
62
1
39
211
10
145.154514
20
131.412201
11
144.998178
21
131.454963
0
LINE
8
annotation
62
1
39
211
10
144.998178
20
131.454963
11
144.832035
21
131.469790
0
LINE
8
annotation
62
1
39
211
10
144.832035
20
131.469790
11
143.908257
21
131.469790
0
LINE
8
annotation
62
1
39
211
10
143.792556
20
128.642302
11
145.872556
21
128.642302
0
LINE
8
annotation
62
1
39
211
10
142.136931
20
154.825385
11
143.061753
21
158.985385
0
LINE
8
annotation
62
1
39
211
10
143.061753
20
158.985385
11
141.211849
21
158.985385
0
LINE
8
annotation
62
1
39
211
10
143.061753
20
157.132873
11
142.136931
21
157.132873
0
LINE
8
annotation
62
1
39
211
10
148.774416
20
181.410812
11
148.774416
21
181.410812
0
LINE
8
annotation
62
1
39
211
10
148.774416
20
181.410812
11
148.789331
21
181.244713
0
LINE
8
annotation
62
1
39
211
10
148.789331
20
181.244713
11
148.832320
21
181.088497
0
LINE
8
annotation
62
1
39
211
10
148.832320
20
181.088497
11
148.900750
21
180.944744
0
LINE
8
annotation
62
1
39
211
10
148.900750
20
180.944744
11
148.991990
21
180.816031
0
LINE
8
annotation
62
1
39
211
10
148.991990
20
180.816031
11
149.103407
21
180.704939
0
LINE
8
annotation
62
1
39
211
10
149.103407
20
180.704939
11
149.232368
21
180.614044
0
LINE
8
annotation
62
1
39
211
10
149.232368
20
180.614044
11
149.376241
21
180.545927
0
LINE
8
annotation
62
1
39
211
10
149.376241
20
180.545927
11
149.532394
21
180.503165
0
LINE
8
annotation
62
1
39
211
10
149.532394
20
180.503165
11
149.698194
21
180.488338
0
LINE
8
annotation
62
1
39
211
10
149.698194
20
180.488338
11
149.698194
21
180.488338
0
LINE
8
annotation
62
1
39
211
10
149.698194
20
180.488338
11
149.863994
21
180.503165
0
LINE
8
annotation
62
1
39
211
10
149.863994
20
180.503165
11
150.020147
21
180.545927
0
LINE
8
annotation
62
1
39
211
10
150.020147
20
180.545927
11
150.164020
21
180.614044
0
LINE
8
annotation
62
1
39
211
10
150.164020
20
180.614044
11
150.292982
21
180.704939
0
LINE
8
annotation
62
1
39
211
10
150.292982
20
180.704939
11
150.404398
21
180.816031
0
LINE
8
annotation
62
1
39
211
10
150.404398
20
180.816031
11
150.495638
21
180.944744
0
LINE
8
annotation
62
1
39
211
10
150.495638
20
180.944744
11
150.564069
21
181.088497
0
LINE
8
annotation
62
1
39
211
10
150.564069
20
181.088497
11
150.607057
21
181.244713
0
LINE
8
annotation
62
1
39
211
10
150.607057
20
181.244713
11
150.621972
21
181.410812
0
LINE
8
annotation
62
1
39
211
10
150.621972
20
181.410812
11
150.621972
21
181.871005
0
LINE
8
annotation
62
1
39
211
10
150.621972
20
181.871005
11
150.621972
21
181.871005
0
LINE
8
annotation
62
1
39
211
10
150.621972
20
181.871005
11
150.607066
21
182.037184
0
LINE
8
annotation
62
1
39
211
10
150.607066
20
182.037184
11
150.564099
21
182.193616
0
LINE
8
annotation
62
1
39
211
10
150.564099
20
182.193616
11
150.495696
21
182.337681
0
LINE
8
annotation
62
1
39
211
10
150.495696
20
182.337681
11
150.404484
21
182.466764
0
LINE
8
annotation
62
1
39
211
10
150.404484
20
182.466764
11
150.293089
21
182.578247
0
LINE
8
annotation
62
1
39
211
10
150.293089
20
182.578247
11
150.164136
21
182.669512
0
LINE
8
annotation
62
1
39
211
10
150.164136
20
182.669512
11
150.020252
21
182.737941
0
LINE
8
annotation
62
1
39
211
10
150.020252
20
182.737941
11
149.864063
21
182.780919
0
LINE
8
annotation
62
1
39
211
10
149.864063
20
182.780919
11
149.698194
21
182.795826
0
LINE
8
annotation
62
1
39
211
10
149.698194
20
182.795826
11
149.698194
21
182.795826
0
LINE
8
annotation
62
1
39
211
10
149.698194
20
182.795826
11
149.532325
21
182.780910
0
LINE
8
annotation
62
1
39
211
10
149.532325
20
182.780910
11
149.376136
21
182.737911
0
LINE
8
annotation
62
1
39
211
10
149.376136
20
182.737911
11
149.232252
21
182.669454
0
LINE
8
annotation
62
1
39
211
10
149.232252
20
182.669454
11
149.103299
21
182.578161
0
LINE
8
annotation
62
1
39
211
10
149.103299
20
182.578161
11
148.991904
21
182.466657
0
LINE
8
annotation
62
1
39
211
10
148.991904
20
182.466657
11
148.900692
21
182.337565
0
LINE
8
annotation
62
1
39
211
10
148.900692
20
182.337565
11
148.832290
21
182.193510
0
LINE
8
annotation
62
1
39
211
10
148.832290
20
182.193510
11
148.789322
21
182.037116
0
LINE
8
annotation
62
1
39
211
10
148.789322
20
182.037116
11
148.774416
21
181.871005
0
LINE
8
annotation
62
1
39
211
10
148.774416
20
181.871005
11
148.774416
21
181.410812
0
LINE
8
annotation
62
1
39
211
10
150.621972
20
183.720908
11
150.621972
21
183.720908
0
LINE
8
annotation
62
1
39
211
10
150.621972
20
183.720908
11
150.607066
21
183.886320
0
LINE
8
annotation
62
1
39
211
10
150.607066
20
183.886320
11
150.564099
21
184.042171
0
LINE
8
annotation
62
1
39
211
10
150.564099
20
184.042171
11
150.495696
21
184.185817
0
LINE
8
annotation
62
1
39
211
10
150.495696
20
184.185817
11
150.404484
21
184.314615
0
LINE
8
annotation
62
1
39
211
10
150.404484
20
184.314615
11
150.293089
21
184.425923
0
LINE
8
annotation
62
1
39
211
10
150.293089
20
184.425923
11
150.164136
21
184.517096
0
LINE
8
annotation
62
1
39
211
10
150.164136
20
184.517096
11
150.020252
21
184.585493
0
LINE
8
annotation
62
1
39
211
10
150.020252
20
184.585493
11
149.864063
21
184.628469
0
LINE
8
annotation
62
1
39
211
10
149.864063
20
184.628469
11
149.698194
21
184.643382
0
LINE
8
annotation
62
1
39
211
10
149.698194
20
184.643382
11
149.698194
21
184.643382
0
LINE
8
annotation
62
1
39
211
10
149.698194
20
184.643382
11
149.532325
21
184.628469
0
LINE
8
annotation
62
1
39
211
10
149.532325
20
184.628469
11
149.376136
21
184.585493
0
LINE
8
annotation
62
1
39
211
10
149.376136
20
184.585493
11
149.232252
21
184.517096
0
LINE
8
annotation
62
1
39
211
10
149.232252
20
184.517096
11
149.103299
21
184.425923
0
LINE
8
annotation
62
1
39
211
10
149.103299
20
184.425923
11
148.991904
21
184.314615
0
LINE
8
annotation
62
1
39
211
10
148.991904
20
184.314615
11
148.900692
21
184.185817
0
LINE
8
annotation
62
1
39
211
10
148.900692
20
184.185817
11
148.832290
21
184.042171
0
LINE
8
annotation
62
1
39
211
10
148.832290
20
184.042171
11
148.789322
21
183.886320
0
LINE
8
annotation
62
1
39
211
10
148.789322
20
183.886320
11
148.774416
21
183.720908
0
LINE
8
annotation
62
1
39
211
10
148.774416
20
183.720908
11
148.774416
21
183.720908
0
LINE
8
annotation
62
1
39
211
10
148.774416
20
183.720908
11
148.789331
21
183.554720
0
LINE
8
annotation
62
1
39
211
10
148.789331
20
183.554720
11
148.832320
21
183.398265
0
LINE
8
annotation
62
1
39
211
10
148.832320
20
183.398265
11
148.900750
21
183.254164
0
LINE
8
annotation
62
1
39
211
10
148.900750
20
183.254164
11
148.991990
21
183.125040
0
LINE
8
annotation
62
1
39
211
10
148.991990
20
183.125040
11
149.103407
21
183.013514
0
LINE
8
annotation
62
1
39
211
10
149.103407
20
183.013514
11
149.232368
21
182.922208
0
LINE
8
annotation
62
1
39
211
10
149.232368
20
182.922208
11
149.376241
21
182.853744
0
LINE
8
annotation
62
1
39
211
10
149.376241
20
182.853744
11
149.532394
21
182.810743
0
LINE
8
annotation
62
1
39
211
10
149.532394
20
182.810743
11
149.698194
21
182.795826
0
LINE
8
annotation
62
1
39
211
10
149.698194
20
182.795826
11
149.698194
21
182.795826
0
LINE
8
annotation
62
1
39
211
10
149.698194
20
182.795826
11
149.863994
21
182.810743
0
LINE
8
annotation
62
1
39
211
10
149.863994
20
182.810743
11
150.020147
21
182.853744
0
LINE
8
annotation
62
1
39
211
10
150.020147
20
182.853744
11
150.164020
21
182.922208
0
LINE
8
annotation
62
1
39
211
10
150.164020
20
182.922208
11
150.292982
21
183.013514
0
LINE
8
annotation
62
1
39
211
10
150.292982
20
183.013514
11
150.404398
21
183.125040
0
LINE
8
annotation
62
1
39
211
10
150.404398
20
183.125040
11
150.495638
21
183.254164
0
LINE
8
annotation
62
1
39
211
10
150.495638
20
183.254164
11
150.564069
21
183.398265
0
LINE
8
annotation
62
1
39
211
10
150.564069
20
183.398265
11
150.607057
21
183.554720
0
LINE
8
annotation
62
1
39
211
10
150.607057
20
183.554720
11
150.621972
21
183.720908
0
LINE
8
annotation
62
1
39
211
10
152.189909
20
206.151552
11
152.189909
21
206.151552
0
LINE
8
annotation
62
1
39
211
10
152.189909
20
206.151552
11
152.454083
21
206.249996
0
LINE
8
annotation
62
1
39
211
10
152.454083
20
206.249996
11
152.696561
21
206.383061
0
LINE
8
annotation
62
1
39
211
10
152.696561
20
206.383061
11
152.914838
21
206.547356
0
LINE
8
annotation
62
1
39
211
10
152.914838
20
206.547356
11
153.106409
21
206.739492
0
LINE
8
annotation
62
1
39
211
10
153.106409
20
206.739492
11
153.268768
21
206.956077
0
LINE
8
annotation
62
1
39
211
10
153.268768
20
206.956077
11
153.399409
21
207.193721
0
LINE
8
annotation
62
1
39
211
10
153.399409
20
207.193721
11
153.495827
21
207.449035
0
LINE
8
annotation
62
1
39
211
10
153.495827
20
207.449035
11
153.555515
21
207.718627
0
LINE
8
annotation
62
1
39
211
10
153.555515
20
207.718627
11
153.575967
21
207.999108
0
LINE
8
annotation
62
1
39
211
10
153.575967
20
207.999108
11
153.575967
21
209.386470
0
LINE
8
annotation
62
1
39
211
10
153.575967
20
209.386470
11
153.575967
21
209.386470
0
LINE
8
annotation
62
1
39
211
10
153.575967
20
209.386470
11
153.561096
21
209.552659
0
LINE
8
annotation
62
1
39
211
10
153.561096
20
209.552659
11
153.518214
21
209.709114
0
LINE
8
annotation
62
1
39
211
10
153.518214
20
209.709114
11
153.449923
21
209.853214
0
LINE
8
annotation
62
1
39
211
10
153.449923
20
209.853214
11
153.358823
21
209.982338
0
LINE
8
annotation
62
1
39
211
10
153.358823
20
209.982338
11
153.247514
21
210.093864
0
LINE
8
annotation
62
1
39
211
10
153.247514
20
210.093864
11
153.118596
21
210.185170
0
LINE
8
annotation
62
1
39
211
10
153.118596
20
210.185170
11
152.974669
21
210.253635
0
LINE
8
annotation
62
1
39
211
10
152.974669
20
210.253635
11
152.818333
21
210.296636
0
LINE
8
annotation
62
1
39
211
10
152.818333
20
210.296636
11
152.652190
21
210.311552
0
LINE
8
annotation
62
1
39
211
10
152.652190
20
210.311552
11
152.652190
21
210.311552
0
LINE
8
annotation
62
1
39
211
10
152.652190
20
210.311552
11
152.486390
21
210.296636
0
LINE
8
annotation
62
1
39
211
10
152.486390
20
210.296636
11
152.330237
21
210.253635
0
LINE
8
annotation
62
1
39
211
10
152.330237
20
210.253635
11
152.186363
21
210.185170
0
LINE
8
annotation
62
1
39
211
10
152.186363
20
210.185170
11
152.057402
21
210.093864
0
LINE
8
annotation
62
1
39
211
10
152.057402
20
210.093864
11
151.945985
21
209.982338
0
LINE
8
annotation
62
1
39
211
10
151.945985
20
209.982338
11
151.854746
21
209.853214
0
LINE
8
annotation
62
1
39
211
10
151.854746
20
209.853214
11
151.786315
21
209.709114
0
LINE
8
annotation
62
1
39
211
10
151.786315
20
209.709114
11
151.743326
21
209.552659
0
LINE
8
annotation
62
1
39
211
10
151.743326
20
209.552659
11
151.728412
21
209.386470
0
LINE
8
annotation
62
1
39
211
10
151.728412
20
209.386470
11
151.728412
21
208.923929
0
LINE
8
annotation
62
1
39
211
10
151.728412
20
208.923929
11
151.728412
21
208.923929
0
LINE
8
annotation
62
1
39
211
10
151.728412
20
208.923929
11
151.743326
21
208.757750
0
LINE
8
annotation
62
1
39
211
10
151.743326
20
208.757750
11
151.786315
21
208.601318
0
LINE
8
annotation
62
1
39
211
10
151.786315
20
208.601318
11
151.854746
21
208.457253
0
LINE
8
annotation
62
1
39
211
10
151.854746
20
208.457253
11
151.945985
21
208.328170
0
LINE
8
annotation
62
1
39
211
10
151.945985
20
208.328170
11
152.057402
21
208.216687
0
LINE
8
annotation
62
1
39
211
10
152.057402
20
208.216687
11
152.186363
21
208.125422
0
LINE
8
annotation
62
1
39
211
10
152.186363
20
208.125422
11
152.330237
21
208.056993
0
LINE
8
annotation
62
1
39
211
10
152.330237
20
208.056993
11
152.486390
21
208.014015
0
LINE
8
annotation
62
1
39
211
10
152.486390
20
208.014015
11
152.652190
21
207.999108
0
LINE
8
annotation
62
1
39
211
10
152.652190
20
207.999108
11
153.575967
21
207.999108
0
LINE
8
annotation
62
1
39
211
10
151.612972
20
205.631552
11
153.692972
21
205.631552
0
LINE
8
annotation
62
1
39
211
10
150.466212
20
199.808288
11
147.998892
21
196.239535
0
LINE
8
annotation
62
1
39
211
10
147.998892
20
196.239535
11
145.531107
21
199.808288
0
LINE
8
annotation
62
1
39
211
10
147.998892
20
196.526724
11
147.998892
21
192.409574
0
LINE
8
annotation
62
1
39
211
10
157.286720
20
196.108931
11
153.241484
21
196.108931
0
LINE
8
annotation
62
1
39
211
10
160.880643
20
192.409806
11
160.880643
21
192.409806
0
LINE
8
annotation
62
1
39
211
10
160.880643
20
192.409806
11
161.350455
21
192.584881
0
LINE
8
annotation
62
1
39
211
10
161.350455
20
192.584881
11
161.781684
21
192.821527
0
LINE
8
annotation
62
1
39
211
10
161.781684
20
192.821527
11
162.169875
21
193.113714
0
LINE
8
annotation
62
1
39
211
10
162.169875
20
193.113714
11
162.510570
21
193.455413
0
LINE
8
annotation
62
1
39
211
10
162.510570
20
193.455413
11
162.799313
21
193.840593
0
LINE
8
annotation
62
1
39
211
10
162.799313
20
193.840593
11
163.031648
21
194.263226
0
LINE
8
annotation
62
1
39
211
10
163.031648
20
194.263226
11
163.203119
21
194.717283
0
LINE
8
annotation
62
1
39
211
10
163.203119
20
194.717283
11
163.309270
21
195.196732
0
LINE
8
annotation
62
1
39
211
10
163.309270
20
195.196732
11
163.345644
21
195.695546
0
LINE
8
annotation
62
1
39
211
10
163.345644
20
195.695546
11
163.345644
21
198.162866
0
LINE
8
annotation
62
1
39
211
10
163.345644
20
198.162866
11
163.345644
21
198.162866
0
LINE
8
annotation
62
1
39
211
10
163.345644
20
198.162866
11
163.319195
21
198.458420
0
LINE
8
annotation
62
1
39
211
10
163.319195
20
198.458420
11
163.242934
21
198.736664
0
LINE
8
annotation
62
1
39
211
10
163.242934
20
198.736664
11
163.121484
21
198.992936
0
LINE
8
annotation
62
1
39
211
10
163.121484
20
198.992936
11
162.959469
21
199.222574
0
LINE
8
annotation
62
1
39
211
10
162.959469
20
199.222574
11
162.761513
21
199.420914
0
LINE
8
annotation
62
1
39
211
10
162.761513
20
199.420914
11
162.532242
21
199.583295
0
LINE
8
annotation
62
1
39
211
10
162.532242
20
199.583295
11
162.276279
21
199.705054
0
LINE
8
annotation
62
1
39
211
10
162.276279
20
199.705054
11
161.998248
21
199.781528
0
LINE
8
annotation
62
1
39
211
10
161.998248
20
199.781528
11
161.702774
21
199.808056
0
LINE
8
annotation
62
1
39
211
10
161.702774
20
199.808056
11
161.702774
21
199.808056
0
LINE
8
annotation
62
1
39
211
10
161.702774
20
199.808056
11
161.407911
21
199.781528
0
LINE
8
annotation
62
1
39
211
10
161.407911
20
199.781528
11
161.130204
21
199.705054
0
LINE
8
annotation
62
1
39
211
10
161.130204
20
199.705054
11
160.874336
21
199.583295
0
LINE
8
annotation
62
1
39
211
10
160.874336
20
199.583295
11
160.644989
21
199.420914
0
LINE
8
annotation
62
1
39
211
10
160.644989
20
199.420914
11
160.446842
21
199.222574
0
LINE
8
annotation
62
1
39
211
10
160.446842
20
199.222574
11
160.284579
21
198.992936
0
LINE
8
annotation
62
1
39
211
10
160.284579
20
198.992936
11
160.162881
21
198.736664
0
LINE
8
annotation
62
1
39
211
10
160.162881
20
198.736664
11
160.086428
21
198.458420
0
LINE
8
annotation
62
1
39
211
10
160.086428
20
198.458420
11
160.059904
21
198.162866
0
LINE
8
annotation
62
1
39
211
10
160.059904
20
198.162866
11
160.059904
21
197.340272
0
LINE
8
annotation
62
1
39
211
10
160.059904
20
197.340272
11
160.059904
21
197.340272
0
LINE
8
annotation
62
1
39
211
10
160.059904
20
197.340272
11
160.086428
21
197.044734
0
LINE
8
annotation
62
1
39
211
10
160.086428
20
197.044734
11
160.162881
21
196.766532
0
LINE
8
annotation
62
1
39
211
10
160.162881
20
196.766532
11
160.284579
21
196.510322
0
LINE
8
annotation
62
1
39
211
10
160.284579
20
196.510322
11
160.446842
21
196.280758
0
LINE
8
annotation
62
1
39
211
10
160.446842
20
196.280758
11
160.644989
21
196.082495
0
LINE
8
annotation
62
1
39
211
10
160.644989
20
196.082495
11
160.874336
21
195.920187
0
LINE
8
annotation
62
1
39
211
10
160.874336
20
195.920187
11
161.130204
21
195.798490
0
LINE
8
annotation
62
1
39
211
10
161.130204
20
195.798490
11
161.407911
21
195.722058
0
LINE
8
annotation
62
1
39
211
10
161.407911
20
195.722058
11
161.702774
21
195.695546
0
LINE
8
annotation
62
1
39
211
10
161.702774
20
195.695546
11
163.345644
21
195.695546
0
LINE
8
annotation
62
1
39
211
10
159.854603
20
191.485025
11
163.553728
21
191.485025
0
LINE
8
boundary
62
5
39
2
10
145.803122
20
282.754721
11
121.017550
21
282.754735
0
LINE
8
boundary
62
5
39
2
10
121.017550
20
282.754735
11
121.017550
21
281.062016
0
LINE
8
boundary
62
5
39
2
10
121.017550
20
281.062016
11
147.652514
21
281.062016
0
LINE
8
boundary
62
5
39
2
10
147.652514
20
281.062016
11
147.652514
21
278.716016
0
LINE
8
boundary
62
5
39
2
10
147.652514
20
278.716016
11
121.017550
21
278.716016
0
LINE
8
boundary
62
5
39
2
10
121.017550
20
278.716016
11
121.017547
21
255.398933
0
LINE
8
boundary
62
5
39
2
10
121.017547
20
255.398933
11
145.618194
21
255.398933
0
LINE
8
boundary
62
5
39
2
10
145.618194
20
255.398933
11
145.618194
21
253.052933
0
LINE
8
boundary
62
5
39
2
10
145.618194
20
253.052933
11
121.017546
21
253.052933
0
LINE
8
boundary
62
5
39
2
10
121.017546
20
253.052933
11
121.017543
21
233.063493
0
LINE
8
boundary
62
5
39
2
10
121.017543
20
233.063493
11
121.017543
21
229.735849
0
LINE
8
boundary
62
5
39
2
10
121.017543
20
229.735849
11
144.469150
21
229.735849
0
LINE
8
boundary
62
5
39
2
10
144.469150
20
229.735849
11
144.469150
21
227.389849
0
LINE
8
boundary
62
5
39
2
10
144.469150
20
227.389849
11
121.017542
21
227.389849
0
LINE
8
boundary
62
5
39
2
10
121.017542
20
227.389849
11
121.017540
21
215.328886
0
LINE
8
boundary
62
5
39
2
10
121.017540
20
215.328886
11
166.171698
21
215.328932
0
LINE
8
boundary
62
5
39
2
10
166.171698
20
215.328932
11
175.017575
21
215.328940
0
LINE
8
boundary
62
5
39
2
10
175.017575
20
215.328940
11
168.564657
21
224.570543
0
LINE
8
boundary
62
5
39
2
10
168.564657
20
224.570543
11
167.767790
21
230.332581
0
LINE
8
boundary
62
5
39
2
10
167.767790
20
230.332581
11
169.932597
21
233.063521
0
LINE
8
boundary
62
5
39
2
10
169.932597
20
233.063521
11
169.653136
21
236.094652
0
LINE
8
boundary
62
5
39
2
10
169.653136
20
236.094652
11
168.801085
21
245.336230
0
LINE
8
boundary
62
5
39
2
10
168.801085
20
245.336230
11
175.017567
21
282.754714
0
LINE
8
boundary
62
5
39
2
10
175.017567
20
282.754714
11
145.803122
21
282.754721
0
LINE
8
annotation
62
1
39
211
10
150.950546
20
227.407670
11
148.640711
21
227.407670
0
LINE
8
annotation
62
1
39
211
10
148.640711
20
227.407670
11
149.563184
21
230.642849
0
LINE
8
annotation
62
1
39
211
10
150.258170
20
226.482849
11
150.258170
21
228.330405
0
LINE
8
annotation
62
1
39
211
10
150.020895
20
252.145933
11
150.944673
21
252.145933
0
LINE
8
annotation
62
1
39
211
10
150.944673
20
252.145933
11
150.944673
21
252.145933
0
LINE
8
annotation
62
1
39
211
10
150.944673
20
252.145933
11
151.110473
21
252.160840
0
LINE
8
annotation
62
1
39
211
10
151.110473
20
252.160840
11
151.266626
21
252.203817
0
LINE
8
annotation
62
1
39
211
10
151.266626
20
252.203817
11
151.410499
21
252.272247
0
LINE
8
annotation
62
1
39
211
10
151.410499
20
252.272247
11
151.539460
21
252.363512
0
LINE
8
annotation
62
1
39
211
10
151.539460
20
252.363512
11
151.650877
21
252.474995
0
LINE
8
annotation
62
1
39
211
10
151.650877
20
252.474995
11
151.742116
21
252.604077
0
LINE
8
annotation
62
1
39
211
10
151.742116
20
252.604077
11
151.810547
21
252.748143
0
LINE
8
annotation
62
1
39
211
10
151.810547
20
252.748143
11
151.853536
21
252.904575
0
LINE
8
annotation
62
1
39
211
10
151.853536
20
252.904575
11
151.868450
21
253.070754
0
LINE
8
annotation
62
1
39
211
10
151.868450
20
253.070754
11
151.868450
21
253.530947
0
LINE
8
annotation
62
1
39
211
10
151.868450
20
253.530947
11
151.868450
21
253.530947
0
LINE
8
annotation
62
1
39
211
10
151.868450
20
253.530947
11
151.853544
21
253.697046
0
LINE
8
annotation
62
1
39
211
10
151.853544
20
253.697046
11
151.810577
21
253.853262
0
LINE
8
annotation
62
1
39
211
10
151.810577
20
253.853262
11
151.742174
21
253.997015
0
LINE
8
annotation
62
1
39
211
10
151.742174
20
253.997015
11
151.650963
21
254.125727
0
LINE
8
annotation
62
1
39
211
10
151.650963
20
254.125727
11
151.539567
21
254.236820
0
LINE
8
annotation
62
1
39
211
10
151.539567
20
254.236820
11
151.410615
21
254.327715
0
LINE
8
annotation
62
1
39
211
10
151.410615
20
254.327715
11
151.266731
21
254.395832
0
LINE
8
annotation
62
1
39
211
10
151.266731
20
254.395832
11
151.110541
21
254.438594
0
LINE
8
annotation
62
1
39
211
10
151.110541
20
254.438594
11
150.944673
21
254.453420
0
LINE
8
annotation
62
1
39
211
10
150.944673
20
254.453420
11
150.020895
21
254.453420
0
LINE
8
annotation
62
1
39
211
10
150.020895
20
254.453420
11
150.020895
21
256.305933
0
LINE
8
annotation
62
1
39
211
10
150.020895
20
256.305933
11
151.868450
21
256.305933
0
LINE
8
annotation
62
1
39
211
10
153.442837
20
281.969016
11
153.442837
21
281.969016
0
LINE
8
annotation
62
1
39
211
10
153.442837
20
281.969016
11
153.178198
21
281.869793
0
LINE
8
annotation
62
1
39
211
10
153.178198
20
281.869793
11
152.935357
21
281.736100
0
LINE
8
annotation
62
1
39
211
10
152.935357
20
281.736100
11
152.716807
21
281.571289
0
LINE
8
annotation
62
1
39
211
10
152.716807
20
281.571289
11
152.525041
21
281.378709
0
LINE
8
annotation
62
1
39
211
10
152.525041
20
281.378709
11
152.362551
21
281.161709
0
LINE
8
annotation
62
1
39
211
10
152.362551
20
281.161709
11
152.231830
21
280.923639
0
LINE
8
annotation
62
1
39
211
10
152.231830
20
280.923639
11
152.135372
21
280.667849
0
LINE
8
annotation
62
1
39
211
10
152.135372
20
280.667849
11
152.075669
21
280.397687
0
LINE
8
annotation
62
1
39
211
10
152.075669
20
280.397687
11
152.055214
21
280.116504
0
LINE
8
annotation
62
1
39
211
10
152.055214
20
280.116504
11
152.055214
21
278.733837
0
LINE
8
annotation
62
1
39
211
10
152.055214
20
278.733837
11
152.055214
21
278.733837
0
LINE
8
annotation
62
1
39
211
10
152.055214
20
278.733837
11
152.070129
21
278.567658
0
LINE
8
annotation
62
1
39
211
10
152.070129
20
278.567658
11
152.113117
21
278.411227
0
LINE
8
annotation
62
1
39
211
10
152.113117
20
278.411227
11
152.181548
21
278.267161
0
LINE
8
annotation
62
1
39
211
10
152.181548
20
278.267161
11
152.272788
21
278.138078
0
LINE
8
annotation
62
1
39
211
10
152.272788
20
278.138078
11
152.384204
21
278.026596
0
LINE
8
annotation
62
1
39
211
10
152.384204
20
278.026596
11
152.513166
21
277.935331
0
LINE
8
annotation
62
1
39
211
10
152.513166
20
277.935331
11
152.657039
21
277.866901
0
LINE
8
annotation
62
1
39
211
10
152.657039
20
277.866901
11
152.813192
21
277.823924
0
LINE
8
annotation
62
1
39
211
10
152.813192
20
277.823924
11
152.978992
21
277.809016
0
LINE
8
annotation
62
1
39
211
10
152.978992
20
277.809016
11
152.978992
21
277.809016
0
LINE
8
annotation
62
1
39
211
10
152.978992
20
277.809016
11
153.145136
21
277.823924
0
LINE
8
annotation
62
1
39
211
10
153.145136
20
277.823924
11
153.301471
21
277.866901
0
LINE
8
annotation
62
1
39
211
10
153.301471
20
277.866901
11
153.445398
21
277.935331
0
LINE
8
annotation
62
1
39
211
10
153.445398
20
277.935331
11
153.574316
21
278.026596
0
LINE
8
annotation
62
1
39
211
10
153.574316
20
278.026596
11
153.685625
21
278.138078
0
LINE
8
annotation
62
1
39
211
10
153.685625
20
278.138078
11
153.776726
21
278.267161
0
LINE
8
annotation
62
1
39
211
10
153.776726
20
278.267161
11
153.845017
21
278.411227
0
LINE
8
annotation
62
1
39
211
10
153.845017
20
278.411227
11
153.887898
21
278.567658
0
LINE
8
annotation
62
1
39
211
10
153.887898
20
278.567658
11
153.902770
21
278.733837
0
LINE
8
annotation
62
1
39
211
10
153.902770
20
278.733837
11
153.902770
21
279.194031
0
LINE
8
annotation
62
1
39
211
10
153.902770
20
279.194031
11
153.902770
21
279.194031
0
LINE
8
annotation
62
1
39
211
10
153.902770
20
279.194031
11
153.887898
21
279.360130
0
LINE
8
annotation
62
1
39
211
10
153.887898
20
279.360130
11
153.845017
21
279.516345
0
LINE
8
annotation
62
1
39
211
10
153.845017
20
279.516345
11
153.776726
21
279.660098
0
LINE
8
annotation
62
1
39
211
10
153.776726
20
279.660098
11
153.685625
21
279.788811
0
LINE
8
annotation
62
1
39
211
10
153.685625
20
279.788811
11
153.574316
21
279.899904
0
LINE
8
annotation
62
1
39
211
10
153.574316
20
279.899904
11
153.445398
21
279.990798
0
LINE
8
annotation
62
1
39
211
10
153.445398
20
279.990798
11
153.301471
21
280.058916
0
LINE
8
annotation
62
1
39
211
10
153.301471
20
280.058916
11
153.145136
21
280.101677
0
LINE
8
annotation
62
1
39
211
10
153.145136
20
280.101677
11
152.978992
21
280.116504
0
LINE
8
annotation
62
1
39
211
10
152.978992
20
280.116504
11
152.055214
21
280.116504
0
LINE
8
annotation
62
1
39
211
10
151.939514
20
277.289016
11
154.019514
21
277.289016
0
LINE
8
annotation
62
1
39
211
10
136.058776
20
273.022907
11
132.010791
21
267.167866
0
LINE
8
annotation
62
1
39
211
10
132.010791
20
267.167866
11
127.962044
21
273.022907
0
LINE
8
annotation
62
1
39
211
10
132.010791
20
267.639040
11
132.010791
21
260.884279
0
LINE
8
annotation
62
1
39
211
10
147.248776
20
266.953593
11
140.611998
21
266.953593
0
LINE
8
annotation
62
1
39
211
10
154.498118
20
260.884659
11
154.498118
21
273.022526
0
LINE
8
annotation
62
1
39
211
10
154.498118
20
273.022526
11
151.799715
21
270.323362
0
LINE
8
annotation
62
1
39
211
10
161.748221
20
260.884659
11
161.748221
21
273.022526
0
LINE
8
annotation
62
1
39
211
10
161.748221
20
273.022526
11
159.049818
21
270.323362
0
LINE
8
frame
62
5
39
2
10
0.000000
20
0.000000
11
200.000000
21
0.000000
0
LINE
8
frame
62
5
39
2
10
200.000000
20
0.000000
11
200.000000
21
296.926000
0
LINE
8
frame
62
5
39
2
10
200.000000
20
296.926000
11
0.000000
21
296.926000
0
LINE
8
frame
62
5
39
2
10
0.000000
20
296.926000
11
0.000000
21
0.000000
0
ENDSEC
0
EOF
