0
SECTION
2
HEADER
9
$ACADVER
1
AC1009
0
ENDSEC
0
SECTION
2
TABLES
0
TABLE
2
VPORT
70
1
0
VPORT
2
ACTIVE
70
0
10
0.0
20
0.0
11
0.0
21
0.0
12
0.0
22
0.0
13
0.0
23
0.0
14
0.0
24
0.0
15
0.0
25
0.0
16
0.0
26
0.0
36
0.0
17
0.0
27
0.0
37
0.0
40
0.0
41
0.0
42
0.0
43
0.0
44
0.0
50
0.0
51
0.0
71
0
72
1000
73
1
74
3
75
0
76
0
77
0
78
0
0
ENDTAB
0
ENDSEC
0
SECTION
2
ENTITIES
0
LINE
8
boundary
62
5
39
2
10
6.667521
20
117.374564
11
6.667518
21
97.791286
0
LINE
8
boundary
62
5
39
2
10
6.667518
20
97.791286
11
17.745517
21
97.661289
0
LINE
8
boundary
62
5
39
2
10
17.745517
20
97.661289
11
17.745516
21
95.315289
0
LINE
8
boundary
62
5
39
2
10
17.745516
20
95.315289
11
6.667517
21
95.315289
0
LINE
8
boundary
62
5
39
2
10
6.667517
20
95.315289
11
6.667513
21
72.128205
0
LINE
8
boundary
62
5
39
2
10
6.667513
20
72.128205
11
17.745512
21
71.998206
0
LINE
8
boundary
62
5
39
2
10
17.745512
20
71.998206
11
17.745512
21
69.652205
0
LINE
8
boundary
62
5
39
2
10
17.745512
20
69.652205
11
6.667512
21
69.652205
0
LINE
8
boundary
62
5
39
2
10
6.667512
20
69.652205
11
6.667508
21
46.335122
0
LINE
8
boundary
62
5
39
2
10
6.667508
20
46.335122
11
23.639804
21
46.335122
0
LINE
8
boundary
62
5
39
2
10
23.639804
20
46.335122
11
23.639804
21
43.989122
0
LINE
8
boundary
62
5
39
2
10
23.639804
20
43.989122
11
6.667507
21
43.989122
0
LINE
8
boundary
62
5
39
2
10
6.667507
20
43.989122
11
6.667504
21
28.915768
0
LINE
8
boundary
62
5
39
2
10
6.667504
20
28.915768
11
6.667503
21
20.672038
0
LINE
8
boundary
62
5
39
2
10
6.667503
20
20.672038
11
27.262279
21
20.672039
0
LINE
8
boundary
62
5
39
2
10
27.262279
20
20.672039
11
27.262279
21
18.326039
0
LINE
8
boundary
62
5
39
2
10
27.262279
20
18.326039
11
6.667502
21
18.326038
0
LINE
8
boundary
62
5
39
2
10
6.667502
20
18.326038
11
6.667500
21
6.667533
0
LINE
8
boundary
62
5
39
2
10
6.667500
20
6.667533
11
55.728784
21
6.667500
0
LINE
8
boundary
62
5
39
2
10
55.728784
20
6.667500
11
60.667505
21
6.667504
0
LINE
8
boundary
62
5
39
2
10
60.667505
20
6.667504
11
52.963102
21
11.827166
0
LINE
8
boundary
62
5
39
2
10
52.963102
20
11.827166
11
46.784663
21
20.102620
0
LINE
8
boundary
62
5
39
2
10
46.784663
20
20.102620
11
55.551850
21
28.915623
0
LINE
8
boundary
62
5
39
2
10
55.551850
20
28.915623
11
31.493221
21
53.609475
0
LINE
8
boundary
62
5
39
2
10
31.493221
20
53.609475
11
29.077511
21
57.923636
0
LINE
8
boundary
62
5
39
2
10
29.077511
20
57.923636
11
29.077514
21
90.131161
0
LINE
8
boundary
62
5
39
2
10
29.077514
20
90.131161
11
29.077516
21
98.257979
0
LINE
8
boundary
62
5
39
2
10
29.077516
20
98.257979
11
31.494837
21
100.854474
0
LINE
8
boundary
62
5
39
2
10
31.494837
20
100.854474
11
39.607515
21
117.374621
0
LINE
8
boundary
62
5
39
2
10
39.607515
20
117.374621
11
49.871282
21
138.274953
0
LINE
8
boundary
62
5
39
2
10
49.871282
20
138.274953
11
49.925728
21
139.222093
0
LINE
8
boundary
62
5
39
2
10
49.925728
20
139.222093
11
49.779159
21
140.132080
0
LINE
8
boundary
62
5
39
2
10
49.779159
20
140.132080
11
49.145538
21
140.986547
0
LINE
8
boundary
62
5
39
2
10
49.145538
20
140.986547
11
29.077517
21
166.465413
0
LINE
8
boundary
62
5
39
2
10
29.077517
20
166.465413
11
33.286343
21
177.152693
0
LINE
8
boundary
62
5
39
2
10
33.286343
20
177.152693
11
47.142486
21
184.688713
0
LINE
8
boundary
62
5
39
2
10
47.142486
20
184.688713
11
50.137517
21
203.283615
0
LINE
8
boundary
62
5
39
2
10
50.137517
20
203.283615
11
51.324021
21
212.469434
0
LINE
8
boundary
62
5
39
2
10
51.324021
20
212.469434
11
60.667552
21
240.250056
0
LINE
8
boundary
62
5
39
2
10
60.667552
20
240.250056
11
36.181390
21
240.250070
0
LINE
8
boundary
62
5
39
2
10
36.181390
20
240.250070
11
6.667543
21
240.250117
0
LINE
8
boundary
62
5
39
2
10
6.667543
20
240.250117
11
6.667540
21
225.976706
0
LINE
8
boundary
62
5
39
2
10
6.667540
20
225.976706
11
31.037984
21
225.976707
0
LINE
8
boundary
62
5
39
2
10
31.037984
20
225.976707
11
31.037985
21
223.630706
0
LINE
8
boundary
62
5
39
2
10
31.037985
20
223.630706
11
6.667540
21
223.630707
0
LINE
8
boundary
62
5
39
2
10
6.667540
20
223.630707
11
6.667535
21
200.313623
0
LINE
8
boundary
62
5
39
2
10
6.667535
20
200.313623
11
28.036341
21
200.313623
0
LINE
8
boundary
62
5
39
2
10
28.036341
20
200.313623
11
28.036341
21
197.967623
0
LINE
8
boundary
62
5
39
2
10
28.036341
20
197.967623
11
6.667535
21
197.967623
0
LINE
8
boundary
62
5
39
2
10
6.667535
20
197.967623
11
6.667530
21
174.650540
0
LINE
8
boundary
62
5
39
2
10
6.667530
20
174.650540
11
19.310463
21
174.650540
0
LINE
8
boundary
62
5
39
2
10
19.310463
20
174.650540
11
19.310463
21
172.304540
0
LINE
8
boundary
62
5
39
2
10
19.310463
20
172.304540
11
6.667529
21
172.304540
0
LINE
8
boundary
62
5
39
2
10
6.667529
20
172.304540
11
6.667528
21
166.465478
0
LINE
8
boundary
62
5
39
2
10
6.667528
20
166.465478
11
6.667526
21
149.117455
0
LINE
8
boundary
62
5
39
2
10
6.667526
20
149.117455
11
25.458974
21
148.987456
0
LINE
8
boundary
62
5
39
2
10
25.458974
20
148.987456
11
25.458974
21
146.641456
0
LINE
8
boundary
62
5
39
2
10
25.458974
20
146.641456
11
6.667525
21
146.641456
0
LINE
8
boundary
62
5
39
2
10
6.667525
20
146.641456
11
6.667522
21
123.454370
0
LINE
8
boundary
62
5
39
2
10
6.667522
20
123.454370
11
24.249145
21
123.324372
0
LINE
8
boundary
62
5
39
2
10
24.249145
20
123.324372
11
24.249145
21
120.978373
0
LINE
8
boundary
62
5
39
2
10
24.249145
20
120.978373
11
6.667522
21
120.978373
0
LINE
8
boundary
62
5
39
2
10
6.667522
20
120.978373
11
6.667521
21
117.374564
0
LINE
8
annotation
62
1
39
211
10
33.051299
20
17.419038
11
33.051299
21
21.579038
0
LINE
8
annotation
62
1
39
211
10
33.051299
20
21.579038
11
32.126477
21
20.653956
0
LINE
8
annotation
62
1
39
211
10
29.890060
20
43.082088
11
28.042505
21
43.082088
0
LINE
8
annotation
62
1
39
211
10
28.042505
20
43.082088
11
29.749707
21
45.830464
0
LINE
8
annotation
62
1
39
211
10
29.749707
20
45.830464
11
29.749707
21
45.830464
0
LINE
8
annotation
62
1
39
211
10
29.749707
20
45.830464
11
29.751747
21
45.832989
0
LINE
8
annotation
62
1
39
211
10
29.751747
20
45.832989
11
29.753705
21
45.835536
0
LINE
8
annotation
62
1
39
211
10
29.753705
20
45.835536
11
29.755591
21
45.838126
0
LINE
8
annotation
62
1
39
211
10
29.755591
20
45.838126
11
29.757419
21
45.840780
0
LINE
8
annotation
62
1
39
211
10
29.757419
20
45.840780
11
29.759202
21
45.843520
0
LINE
8
annotation
62
1
39
211
10
29.759202
20
45.843520
11
29.760953
21
45.846368
0
LINE
8
annotation
62
1
39
211
10
29.760953
20
45.846368
11
29.762685
21
45.849344
0
LINE
8
annotation
62
1
39
211
10
29.762685
20
45.849344
11
29.764410
21
45.852471
0
LINE
8
annotation
62
1
39
211
10
29.764410
20
45.852471
11
29.766142
21
45.855769
0
LINE
8
annotation
62
1
39
211
10
29.766142
20
45.855769
11
29.766142
21
45.855769
0
LINE
8
annotation
62
1
39
211
10
29.766142
20
45.855769
11
29.836632
21
46.007117
0
LINE
8
annotation
62
1
39
211
10
29.836632
20
46.007117
11
29.877811
21
46.164003
0
LINE
8
annotation
62
1
39
211
10
29.877811
20
46.164003
11
29.890688
21
46.322881
0
LINE
8
annotation
62
1
39
211
10
29.890688
20
46.322881
11
29.876273
21
46.480206
0
LINE
8
annotation
62
1
39
211
10
29.876273
20
46.480206
11
29.835574
21
46.632434
0
LINE
8
annotation
62
1
39
211
10
29.835574
20
46.632434
11
29.769601
21
46.776020
0
LINE
8
annotation
62
1
39
211
10
29.769601
20
46.776020
11
29.679363
21
46.907419
0
LINE
8
annotation
62
1
39
211
10
29.679363
20
46.907419
11
29.565869
21
47.023085
0
LINE
8
annotation
62
1
39
211
10
29.565869
20
47.023085
11
29.430128
21
47.119474
0
LINE
8
annotation
62
1
39
211
10
29.430128
20
47.119474
11
29.430128
21
47.119474
0
LINE
8
annotation
62
1
39
211
10
29.430128
20
47.119474
11
29.278359
21
47.188963
0
LINE
8
annotation
62
1
39
211
10
29.278359
20
47.188963
11
29.121233
21
47.229507
0
LINE
8
annotation
62
1
39
211
10
29.121233
20
47.229507
11
28.962263
21
47.242020
0
LINE
8
annotation
62
1
39
211
10
28.962263
20
47.242020
11
28.804961
21
47.227415
0
LINE
8
annotation
62
1
39
211
10
28.804961
20
47.227415
11
28.652840
21
47.186604
0
LINE
8
annotation
62
1
39
211
10
28.652840
20
47.186604
11
28.509413
21
47.120499
0
LINE
8
annotation
62
1
39
211
10
28.509413
20
47.120499
11
28.378193
21
47.030012
0
LINE
8
annotation
62
1
39
211
10
28.378193
20
47.030012
11
28.262692
21
46.916058
0
LINE
8
annotation
62
1
39
211
10
28.262692
20
46.916058
11
28.166423
21
46.779547
0
LINE
8
annotation
62
1
39
211
10
28.166423
20
46.779547
11
28.045114
21
46.546842
0
LINE
8
annotation
62
1
39
211
10
22.148212
20
68.745336
11
23.071990
21
68.745336
0
LINE
8
annotation
62
1
39
211
10
23.071990
20
68.745336
11
23.071990
21
68.745336
0
LINE
8
annotation
62
1
39
211
10
23.071990
20
68.745336
11
23.238134
21
68.760240
0
LINE
8
annotation
62
1
39
211
10
23.238134
20
68.760240
11
23.394469
21
68.803195
0
LINE
8
annotation
62
1
39
211
10
23.394469
20
68.803195
11
23.538396
21
68.871563
0
LINE
8
annotation
62
1
39
211
10
23.538396
20
68.871563
11
23.667314
21
68.962709
0
LINE
8
annotation
62
1
39
211
10
23.667314
20
68.962709
11
23.778624
21
69.073995
0
LINE
8
annotation
62
1
39
211
10
23.778624
20
69.073995
11
23.869724
21
69.202785
0
LINE
8
annotation
62
1
39
211
10
23.869724
20
69.202785
11
23.938015
21
69.346442
0
LINE
8
annotation
62
1
39
211
10
23.938015
20
69.346442
11
23.980896
21
69.502329
0
LINE
8
annotation
62
1
39
211
10
23.980896
20
69.502329
11
23.995768
21
69.667809
0
LINE
8
annotation
62
1
39
211
10
23.995768
20
69.667809
11
23.995768
21
70.130350
0
LINE
8
annotation
62
1
39
211
10
23.995768
20
70.130350
11
23.995768
21
70.130350
0
LINE
8
annotation
62
1
39
211
10
23.995768
20
70.130350
11
23.980896
21
70.295762
0
LINE
8
annotation
62
1
39
211
10
23.980896
20
70.295762
11
23.938015
21
70.451613
0
LINE
8
annotation
62
1
39
211
10
23.938015
20
70.451613
11
23.869724
21
70.595259
0
LINE
8
annotation
62
1
39
211
10
23.869724
20
70.595259
11
23.778624
21
70.724057
0
LINE
8
annotation
62
1
39
211
10
23.778624
20
70.724057
11
23.667314
21
70.835365
0
LINE
8
annotation
62
1
39
211
10
23.667314
20
70.835365
11
23.538396
21
70.926538
0
LINE
8
annotation
62
1
39
211
10
23.538396
20
70.926538
11
23.394469
21
70.994935
0
LINE
8
annotation
62
1
39
211
10
23.394469
20
70.994935
11
23.238134
21
71.037911
0
LINE
8
annotation
62
1
39
211
10
23.238134
20
71.037911
11
23.071990
21
71.052824
0
LINE
8
annotation
62
1
39
211
10
23.071990
20
71.052824
11
22.609449
21
71.052824
0
LINE
8
annotation
62
1
39
211
10
22.609449
20
71.052824
11
23.071990
21
71.052824
0
LINE
8
annotation
62
1
39
211
10
23.071990
20
71.052824
11
23.071990
21
71.052824
0
LINE
8
annotation
62
1
39
211
10
23.071990
20
71.052824
11
23.238134
21
71.067740
0
LINE
8
annotation
62
1
39
211
10
23.238134
20
71.067740
11
23.394469
21
71.110741
0
LINE
8
annotation
62
1
39
211
10
23.394469
20
71.110741
11
23.538396
21
71.179206
0
LINE
8
annotation
62
1
39
211
10
23.538396
20
71.179206
11
23.667314
21
71.270512
0
LINE
8
annotation
62
1
39
211
10
23.667314
20
71.270512
11
23.778624
21
71.382038
0
LINE
8
annotation
62
1
39
211
10
23.778624
20
71.382038
11
23.869724
21
71.511162
0
LINE
8
annotation
62
1
39
211
10
23.869724
20
71.511162
11
23.938015
21
71.655262
0
LINE
8
annotation
62
1
39
211
10
23.938015
20
71.655262
11
23.980896
21
71.811717
0
LINE
8
annotation
62
1
39
211
10
23.980896
20
71.811717
11
23.995768
21
71.977906
0
LINE
8
annotation
62
1
39
211
10
23.995768
20
71.977906
11
23.995768
21
71.977906
0
LINE
8
annotation
62
1
39
211
10
23.995768
20
71.977906
11
23.980896
21
72.143318
0
LINE
8
annotation
62
1
39
211
10
23.980896
20
72.143318
11
23.938015
21
72.299168
0
LINE
8
annotation
62
1
39
211
10
23.938015
20
72.299168
11
23.869724
21
72.442814
0
LINE
8
annotation
62
1
39
211
10
23.869724
20
72.442814
11
23.778624
21
72.571613
0
LINE
8
annotation
62
1
39
211
10
23.778624
20
72.571613
11
23.667314
21
72.682920
0
LINE
8
annotation
62
1
39
211
10
23.667314
20
72.682920
11
23.538396
21
72.774094
0
LINE
8
annotation
62
1
39
211
10
23.538396
20
72.774094
11
23.394469
21
72.842490
0
LINE
8
annotation
62
1
39
211
10
23.394469
20
72.842490
11
23.238134
21
72.885466
0
LINE
8
annotation
62
1
39
211
10
23.238134
20
72.885466
11
23.071990
21
72.900379
0
LINE
8
annotation
62
1
39
211
10
23.071990
20
72.900379
11
22.148212
21
72.900379
0
LINE
8
annotation
62
1
39
211
10
24.226913
20
95.333110
11
21.917077
21
95.333110
0
LINE
8
annotation
62
1
39
211
10
21.917077
20
95.333110
11
22.839550
21
98.568289
0
LINE
8
annotation
62
1
39
211
10
23.534536
20
94.408289
11
23.534536
21
96.255844
0
LINE
8
annotation
62
1
39
211
10
28.651846
20
120.071372
11
29.575623
21
120.071372
0
LINE
8
annotation
62
1
39
211
10
29.575623
20
120.071372
11
29.575623
21
120.071372
0
LINE
8
annotation
62
1
39
211
10
29.575623
20
120.071372
11
29.741423
21
120.086280
0
LINE
8
annotation
62
1
39
211
10
29.741423
20
120.086280
11
29.897576
21
120.129257
0
LINE
8
annotation
62
1
39
211
10
29.897576
20
120.129257
11
30.041450
21
120.197687
0
LINE
8
annotation
62
1
39
211
10
30.041450
20
120.197687
11
30.170411
21
120.288952
0
LINE
8
annotation
62
1
39
211
10
30.170411
20
120.288952
11
30.281827
21
120.400434
0
LINE
8
annotation
62
1
39
211
10
30.281827
20
120.400434
11
30.373067
21
120.529517
0
LINE
8
annotation
62
1
39
211
10
30.373067
20
120.529517
11
30.441498
21
120.673583
0
LINE
8
annotation
62
1
39
211
10
30.441498
20
120.673583
11
30.484486
21
120.830014
0
LINE
8
annotation
62
1
39
211
10
30.484486
20
120.830014
11
30.499401
21
120.996194
0
LINE
8
annotation
62
1
39
211
10
30.499401
20
120.996194
11
30.499401
21
121.456387
0
LINE
8
annotation
62
1
39
211
10
30.499401
20
121.456387
11
30.499401
21
121.456387
0
LINE
8
annotation
62
1
39
211
10
30.499401
20
121.456387
11
30.484495
21
121.622486
0
LINE
8
annotation
62
1
39
211
10
30.484495
20
121.622486
11
30.441528
21
121.778701
0
LINE
8
annotation
62
1
39
211
10
30.441528
20
121.778701
11
30.373125
21
121.922455
0
LINE
8
annotation
62
1
39
211
10
30.373125
20
121.922455
11
30.281913
21
122.051167
0
LINE
8
annotation
62
1
39
211
10
30.281913
20
122.051167
11
30.170518
21
122.162260
0
LINE
8
annotation
62
1
39
211
10
30.170518
20
122.162260
11
30.041565
21
122.253154
0
LINE
8
annotation
62
1
39
211
10
30.041565
20
122.253154
11
29.897681
21
122.321272
0
LINE
8
annotation
62
1
39
211
10
29.897681
20
122.321272
11
29.741492
21
122.364033
0
LINE
8
annotation
62
1
39
211
10
29.741492
20
122.364033
11
29.575623
21
122.378860
0
LINE
8
annotation
62
1
39
211
10
29.575623
20
122.378860
11
28.651846
21
122.378860
0
LINE
8
annotation
62
1
39
211
10
28.651846
20
122.378860
11
28.651846
21
124.231372
0
LINE
8
annotation
62
1
39
211
10
28.651846
20
124.231372
11
30.499401
21
124.231372
0
LINE
8
annotation
62
1
39
211
10
31.249298
20
149.894456
11
31.249298
21
149.894456
0
LINE
8
annotation
62
1
39
211
10
31.249298
20
149.894456
11
30.984659
21
149.795232
0
LINE
8
annotation
62
1
39
211
10
30.984659
20
149.795232
11
30.741818
21
149.661540
0
LINE
8
annotation
62
1
39
211
10
30.741818
20
149.661540
11
30.523268
21
149.496729
0
LINE
8
annotation
62
1
39
211
10
30.523268
20
149.496729
11
30.331501
21
149.304149
0
LINE
8
annotation
62
1
39
211
10
30.331501
20
149.304149
11
30.169011
21
149.087149
0
LINE
8
annotation
62
1
39
211
10
30.169011
20
149.087149
11
30.038291
21
148.849079
0
LINE
8
annotation
62
1
39
211
10
30.038291
20
148.849079
11
29.941833
21
148.593288
0
LINE
8
annotation
62
1
39
211
10
29.941833
20
148.593288
11
29.882130
21
148.323127
0
LINE
8
annotation
62
1
39
211
10
29.882130
20
148.323127
11
29.861675
21
148.041944
0
LINE
8
annotation
62
1
39
211
10
29.861675
20
148.041944
11
29.861675
21
146.659277
0
LINE
8
annotation
62
1
39
211
10
29.861675
20
146.659277
11
29.861675
21
146.659277
0
LINE
8
annotation
62
1
39
211
10
29.861675
20
146.659277
11
29.876589
21
146.493098
0
LINE
8
annotation
62
1
39
211
10
29.876589
20
146.493098
11
29.919578
21
146.336667
0
LINE
8
annotation
62
1
39
211
10
29.919578
20
146.336667
11
29.988009
21
146.192601
0
LINE
8
annotation
62
1
39
211
10
29.988009
20
146.192601
11
30.079248
21
146.063518
0
LINE
8
annotation
62
1
39
211
10
30.079248
20
146.063518
11
30.190665
21
145.952035
0
LINE
8
annotation
62
1
39
211
10
30.190665
20
145.952035
11
30.319626
21
145.860770
0
LINE
8
annotation
62
1
39
211
10
30.319626
20
145.860770
11
30.463500
21
145.792341
0
LINE
8
annotation
62
1
39
211
10
30.463500
20
145.792341
11
30.619652
21
145.749363
0
LINE
8
annotation
62
1
39
211
10
30.619652
20
145.749363
11
30.785453
21
145.734456
0
LINE
8
annotation
62
1
39
211
10
30.785453
20
145.734456
11
30.785453
21
145.734456
0
LINE
8
annotation
62
1
39
211
10
30.785453
20
145.734456
11
30.951596
21
145.749363
0
LINE
8
annotation
62
1
39
211
10
30.951596
20
145.749363
11
31.107932
21
145.792341
0
LINE
8
annotation
62
1
39
211
10
31.107932
20
145.792341
11
31.251858
21
145.860770
0
LINE
8
annotation
62
1
39
211
10
31.251858
20
145.860770
11
31.380777
21
145.952035
0
LINE
8
annotation
62
1
39
211
10
31.380777
20
145.952035
11
31.492086
21
146.063518
0
LINE
8
annotation
62
1
39
211
10
31.492086
20
146.063518
11
31.583186
21
146.192601
0
LINE
8
annotation
62
1
39
211
10
31.583186
20
146.192601
11
31.651477
21
146.336667
0
LINE
8
annotation
62
1
39
211
10
31.651477
20
146.336667
11
31.694359
21
146.493098
0
LINE
8
annotation
62
1
39
211
10
31.694359
20
146.493098
11
31.709230
21
146.659277
0
LINE
8
annotation
62
1
39
211
10
31.709230
20
146.659277
11
31.709230
21
147.119470
0
LINE
8
annotation
62
1
39
211
10
31.709230
20
147.119470
11
31.709230
21
147.119470
0
LINE
8
annotation
62
1
39
211
10
31.709230
20
147.119470
11
31.694359
21
147.285569
0
LINE
8
annotation
62
1
39
211
10
31.694359
20
147.285569
11
31.651477
21
147.441785
0
LINE
8
annotation
62
1
39
211
10
31.651477
20
147.441785
11
31.583186
21
147.585538
0
LINE
8
annotation
62
1
39
211
10
31.583186
20
147.585538
11
31.492086
21
147.714251
0
LINE
8
annotation
62
1
39
211
10
31.492086
20
147.714251
11
31.380777
21
147.825344
0
LINE
8
annotation
62
1
39
211
10
31.380777
20
147.825344
11
31.251858
21
147.916238
0
LINE
8
annotation
62
1
39
211
10
31.251858
20
147.916238
11
31.107932
21
147.984355
0
LINE
8
annotation
62
1
39
211
10
31.107932
20
147.984355
11
30.951596
21
148.027117
0
LINE
8
annotation
62
1
39
211
10
30.951596
20
148.027117
11
30.785453
21
148.041944
0
LINE
8
annotation
62
1
39
211
10
30.785453
20
148.041944
11
29.861675
21
148.041944
0
LINE
8
annotation
62
1
39
211
10
29.745974
20
145.214456
11
31.825974
21
145.214456
0
LINE
8
annotation
62
1
39
211
10
24.636941
20
171.397539
11
25.561762
21
175.557539
0
LINE
8
annotation
62
1
39
211
10
25.561762
20
175.557539
11
23.711859
21
175.557539
0
LINE
8
annotation
62
1
39
211
10
25.561762
20
173.705027
11
24.636941
21
173.705027
0
LINE
8
annotation
62
1
39
211
10
32.439042
20
197.982966
11
32.439042
21
197.982966
0
LINE
8
annotation
62
1
39
211
10
32.439042
20
197.982966
11
32.453957
21
197.816867
0
LINE
8
annotation
62
1
39
211
10
32.453957
20
197.816867
11
32.496945
21
197.660651
0
LINE
8
annotation
62
1
39
211
10
32.496945
20
197.660651
11
32.565376
21
197.516898
0
LINE
8
annotation
62
1
39
211
10
32.565376
20
197.516898
11
32.656616
21
197.388186
0
LINE
8
annotation
62
1
39
211
10
32.656616
20
197.388186
11
32.768032
21
197.277093
0
LINE
8
annotation
62
1
39
211
10
32.768032
20
197.277093
11
32.896994
21
197.186198
0
LINE
8
annotation
62
1
39
211
10
32.896994
20
197.186198
11
33.040867
21
197.118081
0
LINE
8
annotation
62
1
39
211
10
33.040867
20
197.118081
11
33.197020
21
197.075319
0
LINE
8
annotation
62
1
39
211
10
33.197020
20
197.075319
11
33.362820
21
197.060493
0
LINE
8
annotation
62
1
39
211
10
33.362820
20
197.060493
11
33.362820
21
197.060493
0
LINE
8
annotation
62
1
39
211
10
33.362820
20
197.060493
11
33.528620
21
197.075319
0
LINE
8
annotation
62
1
39
211
10
33.528620
20
197.075319
11
33.684773
21
197.118081
0
LINE
8
annotation
62
1
39
211
10
33.684773
20
197.118081
11
33.828646
21
197.186198
0
LINE
8
annotation
62
1
39
211
10
33.828646
20
197.186198
11
33.957607
21
197.277093
0
LINE
8
annotation
62
1
39
211
10
33.957607
20
197.277093
11
34.069024
21
197.388186
0
LINE
8
annotation
62
1
39
211
10
34.069024
20
197.388186
11
34.160264
21
197.516898
0
LINE
8
annotation
62
1
39
211
10
34.160264
20
197.516898
11
34.228694
21
197.660651
0
LINE
8
annotation
62
1
39
211
10
34.228694
20
197.660651
11
34.271683
21
197.816867
0
LINE
8
annotation
62
1
39
211
10
34.271683
20
197.816867
11
34.286597
21
197.982966
0
LINE
8
annotation
62
1
39
211
10
34.286597
20
197.982966
11
34.286597
21
198.443159
0
LINE
8
annotation
62
1
39
211
10
34.286597
20
198.443159
11
34.286597
21
198.443159
0
LINE
8
annotation
62
1
39
211
10
34.286597
20
198.443159
11
34.271692
21
198.609338
0
LINE
8
annotation
62
1
39
211
10
34.271692
20
198.609338
11
34.228724
21
198.765770
0
LINE
8
annotation
62
1
39
211
10
34.228724
20
198.765770
11
34.160322
21
198.909836
0
LINE
8
annotation
62
1
39
211
10
34.160322
20
198.909836
11
34.069110
21
199.038918
0
LINE
8
annotation
62
1
39
211
10
34.069110
20
199.038918
11
33.957715
21
199.150401
0
LINE
8
annotation
62
1
39
211
10
33.957715
20
199.150401
11
33.828762
21
199.241666
0
LINE
8
annotation
62
1
39
211
10
33.828762
20
199.241666
11
33.684878
21
199.310096
0
LINE
8
annotation
62
1
39
211
10
33.684878
20
199.310096
11
33.528689
21
199.353073
0
LINE
8
annotation
62
1
39
211
10
33.528689
20
199.353073
11
33.362820
21
199.367980
0
LINE
8
annotation
62
1
39
211
10
33.362820
20
199.367980
11
33.362820
21
199.367980
0
LINE
8
annotation
62
1
39
211
10
33.362820
20
199.367980
11
33.196951
21
199.353064
0
LINE
8
annotation
62
1
39
211
10
33.196951
20
199.353064
11
33.040762
21
199.310066
0
LINE
8
annotation
62
1
39
211
10
33.040762
20
199.310066
11
32.896878
21
199.241608
0
LINE
8
annotation
62
1
39
211
10
32.896878
20
199.241608
11
32.767925
21
199.150315
0
LINE
8
annotation
62
1
39
211
10
32.767925
20
199.150315
11
32.656530
21
199.038811
0
LINE
8
annotation
62
1
39
211
10
32.656530
20
199.038811
11
32.565318
21
198.909720
0
LINE
8
annotation
62
1
39
211
10
32.565318
20
198.909720
11
32.496915
21
198.765665
0
LINE
8
annotation
62
1
39
211
10
32.496915
20
198.765665
11
32.453948
21
198.609270
0
LINE
8
annotation
62
1
39
211
10
32.453948
20
198.609270
11
32.439042
21
198.443159
0
LINE
8
annotation
62
1
39
211
10
32.439042
20
198.443159
11
32.439042
21
197.982966
0
LINE
8
annotation
62
1
39
211
10
34.286597
20
200.293062
11
34.286597
21
200.293062
0
LINE
8
annotation
62
1
39
211
10
34.286597
20
200.293062
11
34.271692
21
200.458474
0
LINE
8
annotation
62
1
39
211
10
34.271692
20
200.458474
11
34.228724
21
200.614325
0
LINE
8
annotation
62
1
39
211
10
34.228724
20
200.614325
11
34.160322
21
200.757971
0
LINE
8
annotation
62
1
39
211
10
34.160322
20
200.757971
11
34.069110
21
200.886769
0
LINE
8
annotation
62
1
39
211
10
34.069110
20
200.886769
11
33.957715
21
200.998077
0
LINE
8
annotation
62
1
39
211
10
33.957715
20
200.998077
11
33.828762
21
201.089250
0
LINE
8
annotation
62
1
39
211
10
33.828762
20
201.089250
11
33.684878
21
201.157647
0
LINE
8
annotation
62
1
39
211
10
33.684878
20
201.157647
11
33.528689
21
201.200623
0
LINE
8
annotation
62
1
39
211
10
33.528689
20
201.200623
11
33.362820
21
201.215536
0
LINE
8
annotation
62
1
39
211
10
33.362820
20
201.215536
11
33.362820
21
201.215536
0
LINE
8
annotation
62
1
39
211
10
33.362820
20
201.215536
11
33.196951
21
201.200623
0
LINE
8
annotation
62
1
39
211
10
33.196951
20
201.200623
11
33.040762
21
201.157647
0
LINE
8
annotation
62
1
39
211
10
33.040762
20
201.157647
11
32.896878
21
201.089250
0
LINE
8
annotation
62
1
39
211
10
32.896878
20
201.089250
11
32.767925
21
200.998077
0
LINE
8
annotation
62
1
39
211
10
32.767925
20
200.998077
11
32.656530
21
200.886769
0
LINE
8
annotation
62
1
39
211
10
32.656530
20
200.886769
11
32.565318
21
200.757971
0
LINE
8
annotation
62
1
39
211
10
32.565318
20
200.757971
11
32.496915
21
200.614325
0
LINE
8
annotation
62
1
39
211
10
32.496915
20
200.614325
11
32.453948
21
200.458474
0
LINE
8
annotation
62
1
39
211
10
32.453948
20
200.458474
11
32.439042
21
200.293062
0
LINE
8
annotation
62
1
39
211
10
32.439042
20
200.293062
11
32.439042
21
200.293062
0
LINE
8
annotation
62
1
39
211
10
32.439042
20
200.293062
11
32.453957
21
200.126874
0
LINE
8
annotation
62
1
39
211
10
32.453957
20
200.126874
11
32.496945
21
199.970419
0
LINE
8
annotation
62
1
39
211
10
32.496945
20
199.970419
11
32.565376
21
199.826318
0
LINE
8
annotation
62
1
39
211
10
32.565376
20
199.826318
11
32.656616
21
199.697194
0
LINE
8
annotation
62
1
39
211
10
32.656616
20
199.697194
11
32.768032
21
199.585668
0
LINE
8
annotation
62
1
39
211
10
32.768032
20
199.585668
11
32.896994
21
199.494362
0
LINE
8
annotation
62
1
39
211
10
32.896994
20
199.494362
11
33.040867
21
199.425898
0
LINE
8
annotation
62
1
39
211
10
33.040867
20
199.425898
11
33.197020
21
199.382897
0
LINE
8
annotation
62
1
39
211
10
33.197020
20
199.382897
11
33.362820
21
199.367980
0
LINE
8
annotation
62
1
39
211
10
33.362820
20
199.367980
11
33.362820
21
199.367980
0
LINE
8
annotation
62
1
39
211
10
33.362820
20
199.367980
11
33.528620
21
199.382897
0
LINE
8
annotation
62
1
39
211
10
33.528620
20
199.382897
11
33.684773
21
199.425898
0
LINE
8
annotation
62
1
39
211
10
33.684773
20
199.425898
11
33.828646
21
199.494362
0
LINE
8
annotation
62
1
39
211
10
33.828646
20
199.494362
11
33.957607
21
199.585668
0
LINE
8
annotation
62
1
39
211
10
33.957607
20
199.585668
11
34.069024
21
199.697194
0
LINE
8
annotation
62
1
39
211
10
34.069024
20
199.697194
11
34.160264
21
199.826318
0
LINE
8
annotation
62
1
39
211
10
34.160264
20
199.826318
11
34.228694
21
199.970419
0
LINE
8
annotation
62
1
39
211
10
34.228694
20
199.970419
11
34.271683
21
200.126874
0
LINE
8
annotation
62
1
39
211
10
34.271683
20
200.126874
11
34.286597
21
200.293062
0
LINE
8
annotation
62
1
39
211
10
35.901922
20
222.723706
11
35.901922
21
222.723706
0
LINE
8
annotation
62
1
39
211
10
35.901922
20
222.723706
11
36.166095
21
222.822150
0
LINE
8
annotation
62
1
39
211
10
36.166095
20
222.822150
11
36.408573
21
222.955215
0
LINE
8
annotation
62
1
39
211
10
36.408573
20
222.955215
11
36.626851
21
223.119510
0
LINE
8
annotation
62
1
39
211
10
36.626851
20
223.119510
11
36.818422
21
223.311646
0
LINE
8
annotation
62
1
39
211
10
36.818422
20
223.311646
11
36.980781
21
223.528231
0
LINE
8
annotation
62
1
39
211
10
36.980781
20
223.528231
11
37.111422
21
223.765876
0
LINE
8
annotation
62
1
39
211
10
37.111422
20
223.765876
11
37.207839
21
224.021189
0
LINE
8
annotation
62
1
39
211
10
37.207839
20
224.021189
11
37.267527
21
224.290781
0
LINE
8
annotation
62
1
39
211
10
37.267527
20
224.290781
11
37.287980
21
224.571262
0
LINE
8
annotation
62
1
39
211
10
37.287980
20
224.571262
11
37.287980
21
225.958624
0
LINE
8
annotation
62
1
39
211
10
37.287980
20
225.958624
11
37.287980
21
225.958624
0
LINE
8
annotation
62
1
39
211
10
37.287980
20
225.958624
11
37.273108
21
226.124813
0
LINE
8
annotation
62
1
39
211
10
37.273108
20
226.124813
11
37.230227
21
226.281268
0
LINE
8
annotation
62
1
39
211
10
37.230227
20
226.281268
11
37.161936
21
226.425368
0
LINE
8
annotation
62
1
39
211
10
37.161936
20
226.425368
11
37.070836
21
226.554493
0
LINE
8
annotation
62
1
39
211
10
37.070836
20
226.554493
11
36.959526
21
226.666018
0
LINE
8
annotation
62
1
39
211
10
36.959526
20
226.666018
11
36.830608
21
226.757324
0
LINE
8
annotation
62
1
39
211
10
36.830608
20
226.757324
11
36.686681
21
226.825789
0
LINE
8
annotation
62
1
39
211
10
36.686681
20
226.825789
11
36.530346
21
226.868790
0
LINE
8
annotation
62
1
39
211
10
36.530346
20
226.868790
11
36.364202
21
226.883706
0
LINE
8
annotation
62
1
39
211
10
36.364202
20
226.883706
11
36.364202
21
226.883706
0
LINE
8
annotation
62
1
39
211
10
36.364202
20
226.883706
11
36.198402
21
226.868790
0
LINE
8
annotation
62
1
39
211
10
36.198402
20
226.868790
11
36.042249
21
226.825789
0
LINE
8
annotation
62
1
39
211
10
36.042249
20
226.825789
11
35.898376
21
226.757324
0
LINE
8
annotation
62
1
39
211
10
35.898376
20
226.757324
11
35.769415
21
226.666018
0
LINE
8
annotation
62
1
39
211
10
35.769415
20
226.666018
11
35.657998
21
226.554493
0
LINE
8
annotation
62
1
39
211
10
35.657998
20
226.554493
11
35.566758
21
226.425368
0
LINE
8
annotation
62
1
39
211
10
35.566758
20
226.425368
11
35.498328
21
226.281268
0
LINE
8
annotation
62
1
39
211
10
35.498328
20
226.281268
11
35.455339
21
226.124813
0
LINE
8
annotation
62
1
39
211
10
35.455339
20
226.124813
11
35.440424
21
225.958624
0
LINE
8
annotation
62
1
39
211
10
35.440424
20
225.958624
11
35.440424
21
225.496083
0
LINE
8
annotation
62
1
39
211
10
35.440424
20
225.496083
11
35.440424
21
225.496083
0
LINE
8
annotation
62
1
39
211
10
35.440424
20
225.496083
11
35.455339
21
225.329904
0
LINE
8
annotation
62
1
39
211
10
35.455339
20
225.329904
11
35.498328
21
225.173473
0
LINE
8
annotation
62
1
39
211
10
35.498328
20
225.173473
11
35.566758
21
225.029407
0
LINE
8
annotation
62
1
39
211
10
35.566758
20
225.029407
11
35.657998
21
224.900324
0
LINE
8
annotation
62
1
39
211
10
35.657998
20
224.900324
11
35.769415
21
224.788841
0
LINE
8
annotation
62
1
39
211
10
35.769415
20
224.788841
11
35.898376
21
224.697576
0
LINE
8
annotation
62
1
39
211
10
35.898376
20
224.697576
11
36.042249
21
224.629147
0
LINE
8
annotation
62
1
39
211
10
36.042249
20
224.629147
11
36.198402
21
224.586169
0
LINE
8
annotation
62
1
39
211
10
36.198402
20
224.586169
11
36.364202
21
224.571262
0
LINE
8
annotation
62
1
39
211
10
36.364202
20
224.571262
11
37.287980
21
224.571262
0
LINE
8
annotation
62
1
39
211
10
35.324985
20
222.203706
11
37.404985
21
222.203706
0
LINE
8
annotation
62
1
39
211
10
17.733246
20
36.411646
11
14.928568
21
32.354936
0
LINE
8
annotation
62
1
39
211
10
14.928568
20
32.354936
11
12.123363
21
36.411646
0
LINE
8
annotation
62
1
39
211
10
14.928568
20
32.681392
11
14.928568
21
28.001303
0
LINE
8
annotation
62
1
39
211
10
25.486325
20
32.206474
11
20.887982
21
32.206474
0
LINE
8
annotation
62
1
39
211
10
33.308755
20
29.871176
11
28.639214
21
29.871176
0
LINE
8
annotation
62
1
39
211
10
28.639214
20
29.871176
11
30.504077
21
36.411382
0
LINE
8
annotation
62
1
39
211
10
31.909053
20
28.001567
11
31.909053
21
31.736567
0
LINE
8
boundary
62
5
39
2
10
63.842551
20
6.667504
11
68.781308
21
6.667500
0
LINE
8
boundary
62
5
39
2
10
68.781308
20
6.667500
11
117.842586
21
6.667544
0
LINE
8
boundary
62
5
39
2
10
117.842586
20
6.667544
11
110.138128
21
11.827243
0
LINE
8
boundary
62
5
39
2
10
110.138128
20
11.827243
11
103.959640
21
20.102734
0
LINE
8
boundary
62
5
39
2
10
103.959640
20
20.102734
11
112.726868
21
28.915901
0
LINE
8
boundary
62
5
39
2
10
112.726868
20
28.915901
11
88.668151
21
53.609658
0
LINE
8
boundary
62
5
39
2
10
88.668151
20
53.609658
11
86.252562
21
57.923592
0
LINE
8
boundary
62
5
39
2
10
86.252562
20
57.923592
11
86.252566
21
90.131160
0
LINE
8
boundary
62
5
39
2
10
86.252566
20
90.131160
11
86.252569
21
98.257966
0
LINE
8
boundary
62
5
39
2
10
86.252569
20
98.257966
11
88.669887
21
100.854461
0
LINE
8
boundary
62
5
39
2
10
88.669887
20
100.854461
11
96.782572
21
117.374532
0
LINE
8
boundary
62
5
39
2
10
96.782572
20
117.374532
11
107.046329
21
138.274909
0
LINE
8
boundary
62
5
39
2
10
107.046329
20
138.274909
11
107.100774
21
139.222055
0
LINE
8
boundary
62
5
39
2
10
107.100774
20
139.222055
11
106.954205
21
140.132048
0
LINE
8
boundary
62
5
39
2
10
106.954205
20
140.132048
11
106.320569
21
140.986549
0
LINE
8
boundary
62
5
39
2
10
106.320569
20
140.986549
11
86.252569
21
166.465575
0
LINE
8
boundary
62
5
39
2
10
86.252569
20
166.465575
11
90.461371
21
177.152801
0
LINE
8
boundary
62
5
39
2
10
90.461371
20
177.152801
11
104.317568
21
184.688752
0
LINE
8
boundary
62
5
39
2
10
104.317568
20
184.688752
11
107.312574
21
203.283588
0
LINE
8
boundary
62
5
39
2
10
107.312574
20
203.283588
11
108.499058
21
212.469392
0
LINE
8
boundary
62
5
39
2
10
108.499058
20
212.469392
11
117.842603
21
240.250085
0
LINE
8
boundary
62
5
39
2
10
117.842603
20
240.250085
11
93.356472
21
240.250099
0
LINE
8
boundary
62
5
39
2
10
93.356472
20
240.250099
11
63.842594
21
240.250105
0
LINE
8
boundary
62
5
39
2
10
63.842594
20
240.250105
11
63.842591
21
225.976677
0
LINE
8
boundary
62
5
39
2
10
63.842591
20
225.976677
11
88.213028
21
225.976677
0
LINE
8
boundary
62
5
39
2
10
88.213028
20
225.976677
11
88.213028
21
223.630677
0
LINE
8
boundary
62
5
39
2
10
88.213028
20
223.630677
11
63.842591
21
223.630677
0
LINE
8
boundary
62
5
39
2
10
63.842591
20
223.630677
11
63.842586
21
200.313593
0
LINE
8
boundary
62
5
39
2
10
63.842586
20
200.313593
11
85.211396
21
200.313593
0
LINE
8
boundary
62
5
39
2
10
85.211396
20
200.313593
11
85.211396
21
197.967593
0
LINE
8
boundary
62
5
39
2
10
85.211396
20
197.967593
11
63.842586
21
197.967594
0
LINE
8
boundary
62
5
39
2
10
63.842586
20
197.967594
11
63.842581
21
174.650510
0
LINE
8
boundary
62
5
39
2
10
63.842581
20
174.650510
11
76.485478
21
174.650510
0
LINE
8
boundary
62
5
39
2
10
76.485478
20
174.650510
11
76.485478
21
172.304510
0
LINE
8
boundary
62
5
39
2
10
76.485478
20
172.304510
11
63.842581
21
172.304510
0
LINE
8
boundary
62
5
39
2
10
63.842581
20
172.304510
11
63.842580
21
166.465478
0
LINE
8
boundary
62
5
39
2
10
63.842580
20
166.465478
11
63.842577
21
149.117426
0
LINE
8
boundary
62
5
39
2
10
63.842577
20
149.117426
11
82.634049
21
148.987426
0
LINE
8
boundary
62
5
39
2
10
82.634049
20
148.987426
11
82.634049
21
146.641427
0
LINE
8
boundary
62
5
39
2
10
82.634049
20
146.641427
11
63.842577
21
146.641426
0
LINE
8
boundary
62
5
39
2
10
63.842577
20
146.641426
11
63.842574
21
123.454342
0
LINE
8
boundary
62
5
39
2
10
63.842574
20
123.454342
11
81.424209
21
123.324343
0
LINE
8
boundary
62
5
39
2
10
81.424209
20
123.324343
11
81.424209
21
120.978343
0
LINE
8
boundary
62
5
39
2
10
81.424209
20
120.978343
11
63.842573
21
120.978343
0
LINE
8
boundary
62
5
39
2
10
63.842573
20
120.978343
11
63.842573
21
117.374539
0
LINE
8
boundary
62
5
39
2
10
63.842573
20
117.374539
11
63.842569
21
97.791258
0
LINE
8
boundary
62
5
39
2
10
63.842569
20
97.791258
11
74.920568
21
97.661260
0
LINE
8
boundary
62
5
39
2
10
74.920568
20
97.661260
11
74.920568
21
95.315259
0
LINE
8
boundary
62
5
39
2
10
74.920568
20
95.315259
11
63.842568
21
95.315260
0
LINE
8
boundary
62
5
39
2
10
63.842568
20
95.315260
11
63.842564
21
71.998176
0
LINE
8
boundary
62
5
39
2
10
63.842564
20
71.998176
11
74.920563
21
71.998176
0
LINE
8
boundary
62
5
39
2
10
74.920563
20
71.998176
11
74.920564
21
69.652176
0
LINE
8
boundary
62
5
39
2
10
74.920564
20
69.652176
11
63.842563
21
69.652176
0
LINE
8
boundary
62
5
39
2
10
63.842563
20
69.652176
11
63.842559
21
46.335092
0
LINE
8
boundary
62
5
39
2
10
63.842559
20
46.335092
11
80.814934
21
46.335092
0
LINE
8
boundary
62
5
39
2
10
80.814934
20
46.335092
11
80.814934
21
43.989092
0
LINE
8
boundary
62
5
39
2
10
80.814934
20
43.989092
11
63.842558
21
43.989092
0
LINE
8
boundary
62
5
39
2
10
63.842558
20
43.989092
11
63.842555
21
28.915815
0
LINE
8
boundary
62
5
39
2
10
63.842555
20
28.915815
11
63.842554
21
20.672009
0
LINE
8
boundary
62
5
39
2
10
63.842554
20
20.672009
11
84.437349
21
20.672009
0
LINE
8
boundary
62
5
39
2
10
84.437349
20
20.672009
11
84.437349
21
18.326009
0
LINE
8
boundary
62
5
39
2
10
84.437349
20
18.326009
11
63.842553
21
18.326009
0
LINE
8
boundary
62
5
39
2
10
63.842553
20
18.326009
11
63.842551
21
6.667504
0
LINE
8
annotation
62
1
39
211
10
90.226368
20
17.419009
11
90.226368
21
21.579009
0
LINE
8
annotation
62
1
39
211
10
90.226368
20
21.579009
11
89.301547
21
20.653927
0
LINE
8
annotation
62
1
39
211
10
87.065189
20
43.082059
11
85.217634
21
43.082059
0
LINE
8
annotation
62
1
39
211
10
85.217634
20
43.082059
11
86.924836
21
45.830434
0
LINE
8
annotation
62
1
39
211
10
86.924836
20
45.830434
11
86.924836
21
45.830434
0
LINE
8
annotation
62
1
39
211
10
86.924836
20
45.830434
11
86.926877
21
45.832960
0
LINE
8
annotation
62
1
39
211
10
86.926877
20
45.832960
11
86.928834
21
45.835507
0
LINE
8
annotation
62
1
39
211
10
86.928834
20
45.835507
11
86.930720
21
45.838097
0
LINE
8
annotation
62
1
39
211
10
86.930720
20
45.838097
11
86.932548
21
45.840751
0
LINE
8
annotation
62
1
39
211
10
86.932548
20
45.840751
11
86.934332
21
45.843491
0
LINE
8
annotation
62
1
39
211
10
86.934332
20
45.843491
11
86.936083
21
45.846338
0
LINE
8
annotation
62
1
39
211
10
86.936083
20
45.846338
11
86.937814
21
45.849315
0
LINE
8
annotation
62
1
39
211
10
86.937814
20
45.849315
11
86.939540
21
45.852441
0
LINE
8
annotation
62
1
39
211
10
86.939540
20
45.852441
11
86.941271
21
45.855740
0
LINE
8
annotation
62
1
39
211
10
86.941271
20
45.855740
11
86.941271
21
45.855740
0
LINE
8
annotation
62
1
39
211
10
86.941271
20
45.855740
11
87.011761
21
46.007088
0
LINE
8
annotation
62
1
39
211
10
87.011761
20
46.007088
11
87.052940
21
46.163973
0
LINE
8
annotation
62
1
39
211
10
87.052940
20
46.163973
11
87.065817
21
46.322851
0
LINE
8
annotation
62
1
39
211
10
87.065817
20
46.322851
11
87.051402
21
46.480177
0
LINE
8
annotation
62
1
39
211
10
87.051402
20
46.480177
11
87.010703
21
46.632405
0
LINE
8
annotation
62
1
39
211
10
87.010703
20
46.632405
11
86.944730
21
46.775991
0
LINE
8
annotation
62
1
39
211
10
86.944730
20
46.775991
11
86.854492
21
46.907389
0
LINE
8
annotation
62
1
39
211
10
86.854492
20
46.907389
11
86.740998
21
47.023056
0
LINE
8
annotation
62
1
39
211
10
86.740998
20
47.023056
11
86.605257
21
47.119445
0
LINE
8
annotation
62
1
39
211
10
86.605257
20
47.119445
11
86.605257
21
47.119445
0
LINE
8
annotation
62
1
39
211
10
86.605257
20
47.119445
11
86.453488
21
47.188933
0
LINE
8
annotation
62
1
39
211
10
86.453488
20
47.188933
11
86.296363
21
47.229478
0
LINE
8
annotation
62
1
39
211
10
86.296363
20
47.229478
11
86.137392
21
47.241991
0
LINE
8
annotation
62
1
39
211
10
86.137392
20
47.241991
11
85.980090
21
47.227386
0
LINE
8
annotation
62
1
39
211
10
85.980090
20
47.227386
11
85.827969
21
47.186574
0
LINE
8
annotation
62
1
39
211
10
85.827969
20
47.186574
11
85.684542
21
47.120469
0
LINE
8
annotation
62
1
39
211
10
85.684542
20
47.120469
11
85.553322
21
47.029983
0
LINE
8
annotation
62
1
39
211
10
85.553322
20
47.029983
11
85.437821
21
46.916028
0
LINE
8
annotation
62
1
39
211
10
85.437821
20
46.916028
11
85.341552
21
46.779518
0
LINE
8
annotation
62
1
39
211
10
85.341552
20
46.779518
11
85.220243
21
46.546812
0
LINE
8
annotation
62
1
39
211
10
79.323264
20
68.745306
11
80.247042
21
68.745306
0
LINE
8
annotation
62
1
39
211
10
80.247042
20
68.745306
11
80.247042
21
68.745306
0
LINE
8
annotation
62
1
39
211
10
80.247042
20
68.745306
11
80.413185
21
68.760211
0
LINE
8
annotation
62
1
39
211
10
80.413185
20
68.760211
11
80.569521
21
68.803165
0
LINE
8
annotation
62
1
39
211
10
80.569521
20
68.803165
11
80.713448
21
68.871534
0
LINE
8
annotation
62
1
39
211
10
80.713448
20
68.871534
11
80.842366
21
68.962680
0
LINE
8
annotation
62
1
39
211
10
80.842366
20
68.962680
11
80.953675
21
69.073966
0
LINE
8
annotation
62
1
39
211
10
80.953675
20
69.073966
11
81.044775
21
69.202755
0
LINE
8
annotation
62
1
39
211
10
81.044775
20
69.202755
11
81.113066
21
69.346412
0
LINE
8
annotation
62
1
39
211
10
81.113066
20
69.346412
11
81.155948
21
69.502299
0
LINE
8
annotation
62
1
39
211
10
81.155948
20
69.502299
11
81.170819
21
69.667780
0
LINE
8
annotation
62
1
39
211
10
81.170819
20
69.667780
11
81.170819
21
70.130321
0
LINE
8
annotation
62
1
39
211
10
81.170819
20
70.130321
11
81.170819
21
70.130321
0
LINE
8
annotation
62
1
39
211
10
81.170819
20
70.130321
11
81.155948
21
70.295733
0
LINE
8
annotation
62
1
39
211
10
81.155948
20
70.295733
11
81.113066
21
70.451583
0
LINE
8
annotation
62
1
39
211
10
81.113066
20
70.451583
11
81.044775
21
70.595229
0
LINE
8
annotation
62
1
39
211
10
81.044775
20
70.595229
11
80.953675
21
70.724027
0
LINE
8
annotation
62
1
39
211
10
80.953675
20
70.724027
11
80.842366
21
70.835335
0
LINE
8
annotation
62
1
39
211
10
80.842366
20
70.835335
11
80.713448
21
70.926509
0
LINE
8
annotation
62
1
39
211
10
80.713448
20
70.926509
11
80.569521
21
70.994905
0
LINE
8
annotation
62
1
39
211
10
80.569521
20
70.994905
11
80.413185
21
71.037881
0
LINE
8
annotation
62
1
39
211
10
80.413185
20
71.037881
11
80.247042
21
71.052794
0
LINE
8
annotation
62
1
39
211
10
80.247042
20
71.052794
11
79.784501
21
71.052794
0
LINE
8
annotation
62
1
39
211
10
79.784501
20
71.052794
11
80.247042
21
71.052794
0
LINE
8
annotation
62
1
39
211
10
80.247042
20
71.052794
11
80.247042
21
71.052794
0
LINE
8
annotation
62
1
39
211
10
80.247042
20
71.052794
11
80.413185
21
71.067710
0
LINE
8
annotation
62
1
39
211
10
80.413185
20
71.067710
11
80.569521
21
71.110712
0
LINE
8
annotation
62
1
39
211
10
80.569521
20
71.110712
11
80.713448
21
71.179176
0
LINE
8
annotation
62
1
39
211
10
80.713448
20
71.179176
11
80.842366
21
71.270482
0
LINE
8
annotation
62
1
39
211
10
80.842366
20
71.270482
11
80.953675
21
71.382008
0
LINE
8
annotation
62
1
39
211
10
80.953675
20
71.382008
11
81.044775
21
71.511132
0
LINE
8
annotation
62
1
39
211
10
81.044775
20
71.511132
11
81.113066
21
71.655233
0
LINE
8
annotation
62
1
39
211
10
81.113066
20
71.655233
11
81.155948
21
71.811688
0
LINE
8
annotation
62
1
39
211
10
81.155948
20
71.811688
11
81.170819
21
71.977876
0
LINE
8
annotation
62
1
39
211
10
81.170819
20
71.977876
11
81.170819
21
71.977876
0
LINE
8
annotation
62
1
39
211
10
81.170819
20
71.977876
11
81.155948
21
72.143288
0
LINE
8
annotation
62
1
39
211
10
81.155948
20
72.143288
11
81.113066
21
72.299139
0
LINE
8
annotation
62
1
39
211
10
81.113066
20
72.299139
11
81.044775
21
72.442785
0
LINE
8
annotation
62
1
39
211
10
81.044775
20
72.442785
11
80.953675
21
72.571583
0
LINE
8
annotation
62
1
39
211
10
80.953675
20
72.571583
11
80.842366
21
72.682891
0
LINE
8
annotation
62
1
39
211
10
80.842366
20
72.682891
11
80.713448
21
72.774064
0
LINE
8
annotation
62
1
39
211
10
80.713448
20
72.774064
11
80.569521
21
72.842461
0
LINE
8
annotation
62
1
39
211
10
80.569521
20
72.842461
11
80.413185
21
72.885437
0
LINE
8
annotation
62
1
39
211
10
80.413185
20
72.885437
11
80.247042
21
72.900350
0
LINE
8
annotation
62
1
39
211
10
80.247042
20
72.900350
11
79.323264
21
72.900350
0
LINE
8
annotation
62
1
39
211
10
81.401964
20
95.333081
11
79.092129
21
95.333081
0
LINE
8
annotation
62
1
39
211
10
79.092129
20
95.333081
11
80.014602
21
98.568259
0
LINE
8
annotation
62
1
39
211
10
80.709588
20
94.408259
11
80.709588
21
96.255815
0
LINE
8
annotation
62
1
39
211
10
85.826909
20
120.071343
11
86.750687
21
120.071343
0
LINE
8
annotation
62
1
39
211
10
86.750687
20
120.071343
11
86.750687
21
120.071343
0
LINE
8
annotation
62
1
39
211
10
86.750687
20
120.071343
11
86.916487
21
120.086250
0
LINE
8
annotation
62
1
39
211
10
86.916487
20
120.086250
11
87.072640
21
120.129228
0
LINE
8
annotation
62
1
39
211
10
87.072640
20
120.129228
11
87.216513
21
120.197657
0
LINE
8
annotation
62
1
39
211
10
87.216513
20
120.197657
11
87.345475
21
120.288922
0
LINE
8
annotation
62
1
39
211
10
87.345475
20
120.288922
11
87.456891
21
120.400405
0
LINE
8
annotation
62
1
39
211
10
87.456891
20
120.400405
11
87.548131
21
120.529488
0
LINE
8
annotation
62
1
39
211
10
87.548131
20
120.529488
11
87.616562
21
120.673553
0
LINE
8
annotation
62
1
39
211
10
87.616562
20
120.673553
11
87.659550
21
120.829985
0
LINE
8
annotation
62
1
39
211
10
87.659550
20
120.829985
11
87.674465
21
120.996164
0
LINE
8
annotation
62
1
39
211
10
87.674465
20
120.996164
11
87.674465
21
121.456357
0
LINE
8
annotation
62
1
39
211
10
87.674465
20
121.456357
11
87.674465
21
121.456357
0
LINE
8
annotation
62
1
39
211
10
87.674465
20
121.456357
11
87.659559
21
121.622456
0
LINE
8
annotation
62
1
39
211
10
87.659559
20
121.622456
11
87.616592
21
121.778672
0
LINE
8
annotation
62
1
39
211
10
87.616592
20
121.778672
11
87.548189
21
121.922425
0
LINE
8
annotation
62
1
39
211
10
87.548189
20
121.922425
11
87.456977
21
122.051138
0
LINE
8
annotation
62
1
39
211
10
87.456977
20
122.051138
11
87.345582
21
122.162230
0
LINE
8
annotation
62
1
39
211
10
87.345582
20
122.162230
11
87.216629
21
122.253125
0
LINE
8
annotation
62
1
39
211
10
87.216629
20
122.253125
11
87.072745
21
122.321242
0
LINE
8
annotation
62
1
39
211
10
87.072745
20
122.321242
11
86.916556
21
122.364004
0
LINE
8
annotation
62
1
39
211
10
86.916556
20
122.364004
11
86.750687
21
122.378831
0
LINE
8
annotation
62
1
39
211
10
86.750687
20
122.378831
11
85.826909
21
122.378831
0
LINE
8
annotation
62
1
39
211
10
85.826909
20
122.378831
11
85.826909
21
124.231343
0
LINE
8
annotation
62
1
39
211
10
85.826909
20
124.231343
11
87.674465
21
124.231343
0
LINE
8
annotation
62
1
39
211
10
88.424373
20
149.894426
11
88.424373
21
149.894426
0
LINE
8
annotation
62
1
39
211
10
88.424373
20
149.894426
11
88.159734
21
149.795203
0
LINE
8
annotation
62
1
39
211
10
88.159734
20
149.795203
11
87.916893
21
149.661511
0
LINE
8
annotation
62
1
39
211
10
87.916893
20
149.661511
11
87.698343
21
149.496700
0
LINE
8
annotation
62
1
39
211
10
87.698343
20
149.496700
11
87.506576
21
149.304119
0
LINE
8
annotation
62
1
39
211
10
87.506576
20
149.304119
11
87.344086
21
149.087119
0
LINE
8
annotation
62
1
39
211
10
87.344086
20
149.087119
11
87.213366
21
148.849049
0
LINE
8
annotation
62
1
39
211
10
87.213366
20
148.849049
11
87.116908
21
148.593259
0
LINE
8
annotation
62
1
39
211
10
87.116908
20
148.593259
11
87.057205
21
148.323097
0
LINE
8
annotation
62
1
39
211
10
87.057205
20
148.323097
11
87.036750
21
148.041914
0
LINE
8
annotation
62
1
39
211
10
87.036750
20
148.041914
11
87.036750
21
146.659248
0
LINE
8
annotation
62
1
39
211
10
87.036750
20
146.659248
11
87.036750
21
146.659248
0
LINE
8
annotation
62
1
39
211
10
87.036750
20
146.659248
11
87.051664
21
146.493068
0
LINE
8
annotation
62
1
39
211
10
87.051664
20
146.493068
11
87.094653
21
146.336637
0
LINE
8
annotation
62
1
39
211
10
87.094653
20
146.336637
11
87.163083
21
146.192571
0
LINE
8
annotation
62
1
39
211
10
87.163083
20
146.192571
11
87.254323
21
146.063488
0
LINE
8
annotation
62
1
39
211
10
87.254323
20
146.063488
11
87.365740
21
145.952006
0
LINE
8
annotation
62
1
39
211
10
87.365740
20
145.952006
11
87.494701
21
145.860741
0
LINE
8
annotation
62
1
39
211
10
87.494701
20
145.860741
11
87.638574
21
145.792311
0
LINE
8
annotation
62
1
39
211
10
87.638574
20
145.792311
11
87.794727
21
145.749334
0
LINE
8
annotation
62
1
39
211
10
87.794727
20
145.749334
11
87.960527
21
145.734426
0
LINE
8
annotation
62
1
39
211
10
87.960527
20
145.734426
11
87.960527
21
145.734426
0
LINE
8
annotation
62
1
39
211
10
87.960527
20
145.734426
11
88.126671
21
145.749334
0
LINE
8
annotation
62
1
39
211
10
88.126671
20
145.749334
11
88.283006
21
145.792311
0
LINE
8
annotation
62
1
39
211
10
88.283006
20
145.792311
11
88.426933
21
145.860741
0
LINE
8
annotation
62
1
39
211
10
88.426933
20
145.860741
11
88.555852
21
145.952006
0
LINE
8
annotation
62
1
39
211
10
88.555852
20
145.952006
11
88.667161
21
146.063488
0
LINE
8
annotation
62
1
39
211
10
88.667161
20
146.063488
11
88.758261
21
146.192571
0
LINE
8
annotation
62
1
39
211
10
88.758261
20
146.192571
11
88.826552
21
146.336637
0
LINE
8
annotation
62
1
39
211
10
88.826552
20
146.336637
11
88.869434
21
146.493068
0
LINE
8
annotation
62
1
39
211
10
88.869434
20
146.493068
11
88.884305
21
146.659248
0
LINE
8
annotation
62
1
39
211
10
88.884305
20
146.659248
11
88.884305
21
147.119441
0
LINE
8
annotation
62
1
39
211
10
88.884305
20
147.119441
11
88.884305
21
147.119441
0
LINE
8
annotation
62
1
39
211
10
88.884305
20
147.119441
11
88.869434
21
147.285540
0
LINE
8
annotation
62
1
39
211
10
88.869434
20
147.285540
11
88.826552
21
147.441755
0
LINE
8
annotation
62
1
39
211
10
88.826552
20
147.441755
11
88.758261
21
147.585509
0
LINE
8
annotation
62
1
39
211
10
88.758261
20
147.585509
11
88.667161
21
147.714221
0
LINE
8
annotation
62
1
39
211
10
88.667161
20
147.714221
11
88.555852
21
147.825314
0
LINE
8
annotation
62
1
39
211
10
88.555852
20
147.825314
11
88.426933
21
147.916208
0
LINE
8
annotation
62
1
39
211
10
88.426933
20
147.916208
11
88.283006
21
147.984326
0
LINE
8
annotation
62
1
39
211
10
88.283006
20
147.984326
11
88.126671
21
148.027087
0
LINE
8
annotation
62
1
39
211
10
88.126671
20
148.027087
11
87.960527
21
148.041914
0
LINE
8
annotation
62
1
39
211
10
87.960527
20
148.041914
11
87.036750
21
148.041914
0
LINE
8
annotation
62
1
39
211
10
86.921049
20
145.214426
11
89.001049
21
145.214426
0
LINE
8
annotation
62
1
39
211
10
81.811956
20
171.397510
11
82.736777
21
175.557510
0
LINE
8
annotation
62
1
39
211
10
82.736777
20
175.557510
11
80.886874
21
175.557510
0
LINE
8
annotation
62
1
39
211
10
82.736777
20
173.704998
11
81.811956
21
173.704998
0
LINE
8
annotation
62
1
39
211
10
89.614097
20
197.982936
11
89.614097
21
197.982936
0
LINE
8
annotation
62
1
39
211
10
89.614097
20
197.982936
11
89.629012
21
197.816837
0
LINE
8
annotation
62
1
39
211
10
89.629012
20
197.816837
11
89.672000
21
197.660622
0
LINE
8
annotation
62
1
39
211
10
89.672000
20
197.660622
11
89.740431
21
197.516869
0
LINE
8
annotation
62
1
39
211
10
89.740431
20
197.516869
11
89.831671
21
197.388156
0
LINE
8
annotation
62
1
39
211
10
89.831671
20
197.388156
11
89.943087
21
197.277063
0
LINE
8
annotation
62
1
39
211
10
89.943087
20
197.277063
11
90.072048
21
197.186169
0
LINE
8
annotation
62
1
39
211
10
90.072048
20
197.186169
11
90.215922
21
197.118051
0
LINE
8
annotation
62
1
39
211
10
90.215922
20
197.118051
11
90.372075
21
197.075290
0
LINE
8
annotation
62
1
39
211
10
90.372075
20
197.075290
11
90.537875
21
197.060463
0
LINE
8
annotation
62
1
39
211
10
90.537875
20
197.060463
11
90.537875
21
197.060463
0
LINE
8
annotation
62
1
39
211
10
90.537875
20
197.060463
11
90.703675
21
197.075290
0
LINE
8
annotation
62
1
39
211
10
90.703675
20
197.075290
11
90.859828
21
197.118051
0
LINE
8
annotation
62
1
39
211
10
90.859828
20
197.118051
11
91.003701
21
197.186169
0
LINE
8
annotation
62
1
39
211
10
91.003701
20
197.186169
11
91.132662
21
197.277063
0
LINE
8
annotation
62
1
39
211
10
91.132662
20
197.277063
11
91.244079
21
197.388156
0
LINE
8
annotation
62
1
39
211
10
91.244079
20
197.388156
11
91.335319
21
197.516869
0
LINE
8
annotation
62
1
39
211
10
91.335319
20
197.516869
11
91.403749
21
197.660622
0
LINE
8
annotation
62
1
39
211
10
91.403749
20
197.660622
11
91.446738
21
197.816837
0
LINE
8
annotation
62
1
39
211
10
91.446738
20
197.816837
11
91.461652
21
197.982936
0
LINE
8
annotation
62
1
39
211
10
91.461652
20
197.982936
11
91.461652
21
198.443130
0
LINE
8
annotation
62
1
39
211
10
91.461652
20
198.443130
11
91.461652
21
198.443130
0
LINE
8
annotation
62
1
39
211
10
91.461652
20
198.443130
11
91.446747
21
198.609309
0
LINE
8
annotation
62
1
39
211
10
91.446747
20
198.609309
11
91.403779
21
198.765740
0
LINE
8
annotation
62
1
39
211
10
91.403779
20
198.765740
11
91.335377
21
198.909806
0
LINE
8
annotation
62
1
39
211
10
91.335377
20
198.909806
11
91.244165
21
199.038889
0
LINE
8
annotation
62
1
39
211
10
91.244165
20
199.038889
11
91.132770
21
199.150371
0
LINE
8
annotation
62
1
39
211
10
91.132770
20
199.150371
11
91.003817
21
199.241636
0
LINE
8
annotation
62
1
39
211
10
91.003817
20
199.241636
11
90.859933
21
199.310066
0
LINE
8
annotation
62
1
39
211
10
90.859933
20
199.310066
11
90.703744
21
199.353043
0
LINE
8
annotation
62
1
39
211
10
90.703744
20
199.353043
11
90.537875
21
199.367951
0
LINE
8
annotation
62
1
39
211
10
90.537875
20
199.367951
11
90.537875
21
199.367951
0
LINE
8
annotation
62
1
39
211
10
90.537875
20
199.367951
11
90.372006
21
199.353035
0
LINE
8
annotation
62
1
39
211
10
90.372006
20
199.353035
11
90.215817
21
199.310036
0
LINE
8
annotation
62
1
39
211
10
90.215817
20
199.310036
11
90.071933
21
199.241578
0
LINE
8
annotation
62
1
39
211
10
90.071933
20
199.241578
11
89.942980
21
199.150286
0
LINE
8
annotation
62
1
39
211
10
89.942980
20
199.150286
11
89.831585
21
199.038782
0
LINE
8
annotation
62
1
39
211
10
89.831585
20
199.038782
11
89.740373
21
198.909690
0
LINE
8
annotation
62
1
39
211
10
89.740373
20
198.909690
11
89.671970
21
198.765635
0
LINE
8
annotation
62
1
39
211
10
89.671970
20
198.765635
11
89.629003
21
198.609240
0
LINE
8
annotation
62
1
39
211
10
89.629003
20
198.609240
11
89.614097
21
198.443130
0
LINE
8
annotation
62
1
39
211
10
89.614097
20
198.443130
11
89.614097
21
197.982936
0
LINE
8
annotation
62
1
39
211
10
91.461652
20
200.293033
11
91.461652
21
200.293033
0
LINE
8
annotation
62
1
39
211
10
91.461652
20
200.293033
11
91.446747
21
200.458445
0
LINE
8
annotation
62
1
39
211
10
91.446747
20
200.458445
11
91.403779
21
200.614295
0
LINE
8
annotation
62
1
39
211
10
91.403779
20
200.614295
11
91.335377
21
200.757941
0
LINE
8
annotation
62
1
39
211
10
91.335377
20
200.757941
11
91.244165
21
200.886740
0
LINE
8
annotation
62
1
39
211
10
91.244165
20
200.886740
11
91.132770
21
200.998047
0
LINE
8
annotation
62
1
39
211
10
91.132770
20
200.998047
11
91.003817
21
201.089221
0
LINE
8
annotation
62
1
39
211
10
91.003817
20
201.089221
11
90.859933
21
201.157617
0
LINE
8
annotation
62
1
39
211
10
90.859933
20
201.157617
11
90.703744
21
201.200594
0
LINE
8
annotation
62
1
39
211
10
90.703744
20
201.200594
11
90.537875
21
201.215506
0
LINE
8
annotation
62
1
39
211
10
90.537875
20
201.215506
11
90.537875
21
201.215506
0
LINE
8
annotation
62
1
39
211
10
90.537875
20
201.215506
11
90.372006
21
201.200594
0
LINE
8
annotation
62
1
39
211
10
90.372006
20
201.200594
11
90.215817
21
201.157617
0
LINE
8
annotation
62
1
39
211
10
90.215817
20
201.157617
11
90.071933
21
201.089221
0
LINE
8
annotation
62
1
39
211
10
90.071933
20
201.089221
11
89.942980
21
200.998047
0
LINE
8
annotation
62
1
39
211
10
89.942980
20
200.998047
11
89.831585
21
200.886740
0
LINE
8
annotation
62
1
39
211
10
89.831585
20
200.886740
11
89.740373
21
200.757941
0
LINE
8
annotation
62
1
39
211
10
89.740373
20
200.757941
11
89.671970
21
200.614295
0
LINE
8
annotation
62
1
39
211
10
89.671970
20
200.614295
11
89.629003
21
200.458445
0
LINE
8
annotation
62
1
39
211
10
89.629003
20
200.458445
11
89.614097
21
200.293033
0
LINE
8
annotation
62
1
39
211
10
89.614097
20
200.293033
11
89.614097
21
200.293033
0
LINE
8
annotation
62
1
39
211
10
89.614097
20
200.293033
11
89.629012
21
200.126845
0
LINE
8
annotation
62
1
39
211
10
89.629012
20
200.126845
11
89.672000
21
199.970389
0
LINE
8
annotation
62
1
39
211
10
89.672000
20
199.970389
11
89.740431
21
199.826289
0
LINE
8
annotation
62
1
39
211
10
89.740431
20
199.826289
11
89.831671
21
199.697165
0
LINE
8
annotation
62
1
39
211
10
89.831671
20
199.697165
11
89.943087
21
199.585639
0
LINE
8
annotation
62
1
39
211
10
89.943087
20
199.585639
11
90.072048
21
199.494333
0
LINE
8
annotation
62
1
39
211
10
90.072048
20
199.494333
11
90.215922
21
199.425868
0
LINE
8
annotation
62
1
39
211
10
90.215922
20
199.425868
11
90.372075
21
199.382867
0
LINE
8
annotation
62
1
39
211
10
90.372075
20
199.382867
11
90.537875
21
199.367951
0
LINE
8
annotation
62
1
39
211
10
90.537875
20
199.367951
11
90.537875
21
199.367951
0
LINE
8
annotation
62
1
39
211
10
90.537875
20
199.367951
11
90.703675
21
199.382867
0
LINE
8
annotation
62
1
39
211
10
90.703675
20
199.382867
11
90.859828
21
199.425868
0
LINE
8
annotation
62
1
39
211
10
90.859828
20
199.425868
11
91.003701
21
199.494333
0
LINE
8
annotation
62
1
39
211
10
91.003701
20
199.494333
11
91.132662
21
199.585639
0
LINE
8
annotation
62
1
39
211
10
91.132662
20
199.585639
11
91.244079
21
199.697165
0
LINE
8
annotation
62
1
39
211
10
91.244079
20
199.697165
11
91.335319
21
199.826289
0
LINE
8
annotation
62
1
39
211
10
91.335319
20
199.826289
11
91.403749
21
199.970389
0
LINE
8
annotation
62
1
39
211
10
91.403749
20
199.970389
11
91.446738
21
200.126845
0
LINE
8
annotation
62
1
39
211
10
91.446738
20
200.126845
11
91.461652
21
200.293033
0
LINE
8
annotation
62
1
39
211
10
93.076966
20
222.723677
11
93.076966
21
222.723677
0
LINE
8
annotation
62
1
39
211
10
93.076966
20
222.723677
11
93.341139
21
222.822121
0
LINE
8
annotation
62
1
39
211
10
93.341139
20
222.822121
11
93.583617
21
222.955186
0
LINE
8
annotation
62
1
39
211
10
93.583617
20
222.955186
11
93.801895
21
223.119481
0
LINE
8
annotation
62
1
39
211
10
93.801895
20
223.119481
11
93.993466
21
223.311616
0
LINE
8
annotation
62
1
39
211
10
93.993466
20
223.311616
11
94.155825
21
223.528202
0
LINE
8
annotation
62
1
39
211
10
94.155825
20
223.528202
11
94.286466
21
223.765846
0
LINE
8
annotation
62
1
39
211
10
94.286466
20
223.765846
11
94.382883
21
224.021160
0
LINE
8
annotation
62
1
39
211
10
94.382883
20
224.021160
11
94.442571
21
224.290752
0
LINE
8
annotation
62
1
39
211
10
94.442571
20
224.290752
11
94.463024
21
224.571232
0
LINE
8
annotation
62
1
39
211
10
94.463024
20
224.571232
11
94.463024
21
225.958595
0
LINE
8
annotation
62
1
39
211
10
94.463024
20
225.958595
11
94.463024
21
225.958595
0
LINE
8
annotation
62
1
39
211
10
94.463024
20
225.958595
11
94.448152
21
226.124783
0
LINE
8
annotation
62
1
39
211
10
94.448152
20
226.124783
11
94.405271
21
226.281238
0
LINE
8
annotation
62
1
39
211
10
94.405271
20
226.281238
11
94.336980
21
226.425339
0
LINE
8
annotation
62
1
39
211
10
94.336980
20
226.425339
11
94.245880
21
226.554463
0
LINE
8
annotation
62
1
39
211
10
94.245880
20
226.554463
11
94.134570
21
226.665989
0
LINE
8
annotation
62
1
39
211
10
94.134570
20
226.665989
11
94.005652
21
226.757295
0
LINE
8
annotation
62
1
39
211
10
94.005652
20
226.757295
11
93.861725
21
226.825759
0
LINE
8
annotation
62
1
39
211
10
93.861725
20
226.825759
11
93.705390
21
226.868761
0
LINE
8
annotation
62
1
39
211
10
93.705390
20
226.868761
11
93.539246
21
226.883677
0
LINE
8
annotation
62
1
39
211
10
93.539246
20
226.883677
11
93.539246
21
226.883677
0
LINE
8
annotation
62
1
39
211
10
93.539246
20
226.883677
11
93.373446
21
226.868761
0
LINE
8
annotation
62
1
39
211
10
93.373446
20
226.868761
11
93.217293
21
226.825759
0
LINE
8
annotation
62
1
39
211
10
93.217293
20
226.825759
11
93.073420
21
226.757295
0
LINE
8
annotation
62
1
39
211
10
93.073420
20
226.757295
11
92.944458
21
226.665989
0
LINE
8
annotation
62
1
39
211
10
92.944458
20
226.665989
11
92.833042
21
226.554463
0
LINE
8
annotation
62
1
39
211
10
92.833042
20
226.554463
11
92.741802
21
226.425339
0
LINE
8
annotation
62
1
39
211
10
92.741802
20
226.425339
11
92.673371
21
226.281238
0
LINE
8
annotation
62
1
39
211
10
92.673371
20
226.281238
11
92.630383
21
226.124783
0
LINE
8
annotation
62
1
39
211
10
92.630383
20
226.124783
11
92.615468
21
225.958595
0
LINE
8
annotation
62
1
39
211
10
92.615468
20
225.958595
11
92.615468
21
225.496054
0
LINE
8
annotation
62
1
39
211
10
92.615468
20
225.496054
11
92.615468
21
225.496054
0
LINE
8
annotation
62
1
39
211
10
92.615468
20
225.496054
11
92.630383
21
225.329874
0
LINE
8
annotation
62
1
39
211
10
92.630383
20
225.329874
11
92.673371
21
225.173443
0
LINE
8
annotation
62
1
39
211
10
92.673371
20
225.173443
11
92.741802
21
225.029377
0
LINE
8
annotation
62
1
39
211
10
92.741802
20
225.029377
11
92.833042
21
224.900294
0
LINE
8
annotation
62
1
39
211
10
92.833042
20
224.900294
11
92.944458
21
224.788812
0
LINE
8
annotation
62
1
39
211
10
92.944458
20
224.788812
11
93.073420
21
224.697547
0
LINE
8
annotation
62
1
39
211
10
93.073420
20
224.697547
11
93.217293
21
224.629117
0
LINE
8
annotation
62
1
39
211
10
93.217293
20
224.629117
11
93.373446
21
224.586140
0
LINE
8
annotation
62
1
39
211
10
93.373446
20
224.586140
11
93.539246
21
224.571232
0
LINE
8
annotation
62
1
39
211
10
93.539246
20
224.571232
11
94.463024
21
224.571232
0
LINE
8
annotation
62
1
39
211
10
92.500029
20
222.203677
11
94.580029
21
222.203677
0
LINE
8
annotation
62
1
39
211
10
75.375569
20
36.411644
11
72.570891
21
32.354934
0
LINE
8
annotation
62
1
39
211
10
72.570891
20
32.354934
11
69.765686
21
36.411644
0
LINE
8
annotation
62
1
39
211
10
72.570891
20
32.681391
11
72.570891
21
28.001302
0
LINE
8
annotation
62
1
39
211
10
83.128647
20
32.206473
11
78.530304
21
32.206473
0
LINE
8
annotation
62
1
39
211
10
86.281537
20
29.866165
11
86.281537
21
29.866165
0
LINE
8
annotation
62
1
39
211
10
86.281537
20
29.866165
11
86.311688
21
29.530381
0
LINE
8
annotation
62
1
39
211
10
86.311688
20
29.530381
11
86.398593
21
29.214577
0
LINE
8
annotation
62
1
39
211
10
86.398593
20
29.214577
11
86.536932
21
28.923967
0
LINE
8
annotation
62
1
39
211
10
86.536932
20
28.923967
11
86.721381
21
28.663763
0
LINE
8
annotation
62
1
39
211
10
86.721381
20
28.663763
11
86.946620
21
28.439179
0
LINE
8
annotation
62
1
39
211
10
86.946620
20
28.439179
11
87.207327
21
28.255428
0
LINE
8
annotation
62
1
39
211
10
87.207327
20
28.255428
11
87.498180
21
28.117722
0
LINE
8
annotation
62
1
39
211
10
87.498180
20
28.117722
11
87.813857
21
28.031276
0
LINE
8
annotation
62
1
39
211
10
87.813857
20
28.031276
11
88.149036
21
28.001302
0
LINE
8
annotation
62
1
39
211
10
88.149036
20
28.001302
11
88.149036
21
28.001302
0
LINE
8
annotation
62
1
39
211
10
88.149036
20
28.001302
11
88.484216
21
28.031276
0
LINE
8
annotation
62
1
39
211
10
88.484216
20
28.031276
11
88.799893
21
28.117722
0
LINE
8
annotation
62
1
39
211
10
88.799893
20
28.117722
11
89.090746
21
28.255428
0
LINE
8
annotation
62
1
39
211
10
89.090746
20
28.255428
11
89.351453
21
28.439179
0
LINE
8
annotation
62
1
39
211
10
89.351453
20
28.439179
11
89.576692
21
28.663763
0
LINE
8
annotation
62
1
39
211
10
89.576692
20
28.663763
11
89.761141
21
28.923967
0
LINE
8
annotation
62
1
39
211
10
89.761141
20
28.923967
11
89.899480
21
29.214577
0
LINE
8
annotation
62
1
39
211
10
89.899480
20
29.214577
11
89.986385
21
29.530381
0
LINE
8
annotation
62
1
39
211
10
89.986385
20
29.530381
11
90.016536
21
29.866165
0
LINE
8
annotation
62
1
39
211
10
90.016536
20
29.866165
11
90.016536
21
30.796487
0
LINE
8
annotation
62
1
39
211
10
90.016536
20
30.796487
11
90.016536
21
30.796487
0
LINE
8
annotation
62
1
39
211
10
90.016536
20
30.796487
11
89.986403
21
31.132434
0
LINE
8
annotation
62
1
39
211
10
89.986403
20
31.132434
11
89.899540
21
31.448674
0
LINE
8
annotation
62
1
39
211
10
89.899540
20
31.448674
11
89.761258
21
31.739916
0
LINE
8
annotation
62
1
39
211
10
89.761258
20
31.739916
11
89.576865
21
32.000868
0
LINE
8
annotation
62
1
39
211
10
89.576865
20
32.000868
11
89.351670
21
32.226240
0
LINE
8
annotation
62
1
39
211
10
89.351670
20
32.226240
11
89.090981
21
32.410740
0
LINE
8
annotation
62
1
39
211
10
89.090981
20
32.410740
11
88.800106
21
32.549077
0
LINE
8
annotation
62
1
39
211
10
88.800106
20
32.549077
11
88.484355
21
32.635960
0
LINE
8
annotation
62
1
39
211
10
88.484355
20
32.635960
11
88.149036
21
32.666096
0
LINE
8
annotation
62
1
39
211
10
88.149036
20
32.666096
11
88.149036
21
32.666096
0
LINE
8
annotation
62
1
39
211
10
88.149036
20
32.666096
11
87.813718
21
32.635942
0
LINE
8
annotation
62
1
39
211
10
87.813718
20
32.635942
11
87.497967
21
32.549017
0
LINE
8
annotation
62
1
39
211
10
87.497967
20
32.549017
11
87.207092
21
32.410623
0
LINE
8
annotation
62
1
39
211
10
87.207092
20
32.410623
11
86.946403
21
32.226067
0
LINE
8
annotation
62
1
39
211
10
86.946403
20
32.226067
11
86.721208
21
32.000651
0
LINE
8
annotation
62
1
39
211
10
86.721208
20
32.000651
11
86.536814
21
31.739681
0
LINE
8
annotation
62
1
39
211
10
86.536814
20
31.739681
11
86.398533
21
31.448461
0
LINE
8
annotation
62
1
39
211
10
86.398533
20
31.448461
11
86.311670
21
31.132295
0
LINE
8
annotation
62
1
39
211
10
86.311670
20
31.132295
11
86.281537
21
30.796487
0
LINE
8
annotation
62
1
39
211
10
86.281537
20
30.796487
11
86.281537
21
29.866165
0
LINE
8
annotation
62
1
39
211
10
90.016536
20
34.536233
11
90.016536
21
34.536233
0
LINE
8
annotation
62
1
39
211
10
90.016536
20
34.536233
11
89.986403
21
34.870628
0
LINE
8
annotation
62
1
39
211
10
89.986403
20
34.870628
11
89.899540
21
35.185694
0
LINE
8
annotation
62
1
39
211
10
89.899540
20
35.185694
11
89.761258
21
35.476087
0
LINE
8
annotation
62
1
39
211
10
89.761258
20
35.476087
11
89.576865
21
35.736465
0
LINE
8
annotation
62
1
39
211
10
89.576865
20
35.736465
11
89.351670
21
35.961483
0
LINE
8
annotation
62
1
39
211
10
89.351670
20
35.961483
11
89.090981
21
36.145799
0
LINE
8
annotation
62
1
39
211
10
89.090981
20
36.145799
11
88.800106
21
36.284068
0
LINE
8
annotation
62
1
39
211
10
88.800106
20
36.284068
11
88.484355
21
36.370949
0
LINE
8
annotation
62
1
39
211
10
88.484355
20
36.370949
11
88.149036
21
36.401096
0
LINE
8
annotation
62
1
39
211
10
88.149036
20
36.401096
11
88.149036
21
36.401096
0
LINE
8
annotation
62
1
39
211
10
88.149036
20
36.401096
11
87.813718
21
36.370949
0
LINE
8
annotation
62
1
39
211
10
87.813718
20
36.370949
11
87.497967
21
36.284068
0
LINE
8
annotation
62
1
39
211
10
87.497967
20
36.284068
11
87.207092
21
36.145799
0
LINE
8
annotation
62
1
39
211
10
87.207092
20
36.145799
11
86.946403
21
35.961483
0
LINE
8
annotation
62
1
39
211
10
86.946403
20
35.961483
11
86.721208
21
35.736465
0
LINE
8
annotation
62
1
39
211
10
86.721208
20
35.736465
11
86.536814
21
35.476087
0
LINE
8
annotation
62
1
39
211
10
86.536814
20
35.476087
11
86.398533
21
35.185694
0
LINE
8
annotation
62
1
39
211
10
86.398533
20
35.185694
11
86.311670
21
34.870628
0
LINE
8
annotation
62
1
39
211
10
86.311670
20
34.870628
11
86.281537
21
34.536233
0
LINE
8
annotation
62
1
39
211
10
86.281537
20
34.536233
11
86.281537
21
34.536233
0
LINE
8
annotation
62
1
39
211
10
86.281537
20
34.536233
11
86.311688
21
34.200269
0
LINE
8
annotation
62
1
39
211
10
86.311688
20
34.200269
11
86.398593
21
33.883980
0
LINE
8
annotation
62
1
39
211
10
86.398593
20
33.883980
11
86.536932
21
33.592668
0
LINE
8
annotation
62
1
39
211
10
86.536932
20
33.592668
11
86.721381
21
33.331632
0
LINE
8
annotation
62
1
39
211
10
86.721381
20
33.331632
11
86.946620
21
33.106173
0
LINE
8
annotation
62
1
39
211
10
86.946620
20
33.106173
11
87.207327
21
32.921589
0
LINE
8
annotation
62
1
39
211
10
87.207327
20
32.921589
11
87.498180
21
32.783182
0
LINE
8
annotation
62
1
39
211
10
87.498180
20
32.783182
11
87.813857
21
32.696251
0
LINE
8
annotation
62
1
39
211
10
87.813857
20
32.696251
11
88.149036
21
32.666096
0
LINE
8
annotation
62
1
39
211
10
88.149036
20
32.666096
11
88.149036
21
32.666096
0
LINE
8
annotation
62
1
39
211
10
88.149036
20
32.666096
11
88.484216
21
32.696251
0
LINE
8
annotation
62
1
39
211
10
88.484216
20
32.696251
11
88.799893
21
32.783182
0
LINE
8
annotation
62
1
39
211
10
88.799893
20
32.783182
11
89.090746
21
32.921589
0
LINE
8
annotation
62
1
39
211
10
89.090746
20
32.921589
11
89.351453
21
33.106173
0
LINE
8
annotation
62
1
39
211
10
89.351453
20
33.106173
11
89.576692
21
33.331632
0
LINE
8
annotation
62
1
39
211
10
89.576692
20
33.331632
11
89.761141
21
33.592668
0
LINE
8
annotation
62
1
39
211
10
89.761141
20
33.592668
11
89.899480
21
33.883980
0
LINE
8
annotation
62
1
39
211
10
89.899480
20
33.883980
11
89.986385
21
34.200269
0
LINE
8
annotation
62
1
39
211
10
89.986385
20
34.200269
11
90.016536
21
34.536233
0
LINE
8
boundary
62
5
39
2
10
121.017603
20
64.461455
11
121.017605
21
6.667502
0
LINE
8
boundary
62
5
39
2
10
121.017605
20
6.667502
11
156.581964
21
6.667500
0
LINE
8
boundary
62
5
39
2
10
156.581964
20
6.667500
11
175.017601
21
6.667514
0
LINE
8
boundary
62
5
39
2
10
175.017601
20
6.667514
11
162.335244
21
24.091201
0
LINE
8
boundary
62
5
39
2
10
162.335244
20
24.091201
11
141.668029
21
24.221200
0
LINE
8
boundary
62
5
39
2
10
141.668029
20
24.221200
11
141.668029
21
26.567200
0
LINE
8
boundary
62
5
39
2
10
141.668029
20
26.567200
11
161.349041
21
26.567200
0
LINE
8
boundary
62
5
39
2
10
161.349041
20
26.567200
11
154.871943
21
46.662201
0
LINE
8
boundary
62
5
39
2
10
154.871943
20
46.662201
11
153.442458
21
48.021253
0
LINE
8
boundary
62
5
39
2
10
153.442458
20
48.021253
11
137.064466
21
48.151253
0
LINE
8
boundary
62
5
39
2
10
137.064466
20
48.151253
11
137.064466
21
50.497253
0
LINE
8
boundary
62
5
39
2
10
137.064466
20
50.497253
11
151.311933
21
50.497253
0
LINE
8
boundary
62
5
39
2
10
151.311933
20
50.497253
11
147.109446
21
58.599577
0
LINE
8
boundary
62
5
39
2
10
147.109446
20
58.599577
11
143.427587
21
64.461343
0
LINE
8
boundary
62
5
39
2
10
143.427587
20
64.461343
11
145.779864
21
71.951305
0
LINE
8
boundary
62
5
39
2
10
145.779864
20
71.951305
11
133.914537
21
72.081305
0
LINE
8
boundary
62
5
39
2
10
133.914537
20
72.081305
11
133.914536
21
74.427305
0
LINE
8
boundary
62
5
39
2
10
133.914536
20
74.427305
11
146.557470
21
74.427305
0
LINE
8
boundary
62
5
39
2
10
146.557470
20
74.427305
11
151.903058
21
91.448365
0
LINE
8
boundary
62
5
39
2
10
151.903058
20
91.448365
11
154.589057
21
95.881358
0
LINE
8
boundary
62
5
39
2
10
154.589057
20
95.881358
11
138.062620
21
96.011358
0
LINE
8
boundary
62
5
39
2
10
138.062620
20
96.011358
11
138.062619
21
98.357358
0
LINE
8
boundary
62
5
39
2
10
138.062619
20
98.357358
11
154.600168
21
98.357358
0
LINE
8
boundary
62
5
39
2
10
154.600168
20
98.357358
11
154.414779
21
99.357229
0
LINE
8
boundary
62
5
39
2
10
154.414779
20
99.357229
11
153.957603
21
100.613411
0
LINE
8
boundary
62
5
39
2
10
153.957603
20
100.613411
11
153.043257
21
101.117097
0
LINE
8
boundary
62
5
39
2
10
153.043257
20
101.117097
11
134.210280
21
119.811410
0
LINE
8
boundary
62
5
39
2
10
134.210280
20
119.811410
11
127.084610
21
119.941410
0
LINE
8
boundary
62
5
39
2
10
127.084610
20
119.941410
11
127.084610
21
122.287410
0
LINE
8
boundary
62
5
39
2
10
127.084610
20
122.287410
11
134.079304
21
122.287411
0
LINE
8
boundary
62
5
39
2
10
134.079304
20
122.287411
11
153.043265
21
141.111749
0
LINE
8
boundary
62
5
39
2
10
153.043265
20
141.111749
11
153.957603
21
141.615431
0
LINE
8
boundary
62
5
39
2
10
153.957603
20
141.615431
11
154.414775
21
142.871604
0
LINE
8
boundary
62
5
39
2
10
154.414775
20
142.871604
11
154.590462
21
143.741464
0
LINE
8
boundary
62
5
39
2
10
154.590462
20
143.741464
11
138.062617
21
143.871463
0
LINE
8
boundary
62
5
39
2
10
138.062617
20
143.871463
11
138.062617
21
146.217463
0
LINE
8
boundary
62
5
39
2
10
138.062617
20
146.217463
11
154.598721
21
146.217463
0
LINE
8
boundary
62
5
39
2
10
154.598721
20
146.217463
11
151.903114
21
150.780197
0
LINE
8
boundary
62
5
39
2
10
151.903114
20
150.780197
11
146.598225
21
167.671516
0
LINE
8
boundary
62
5
39
2
10
146.598225
20
167.671516
11
133.914500
21
167.801515
0
LINE
8
boundary
62
5
39
2
10
133.914500
20
167.801515
11
133.914500
21
170.147515
0
LINE
8
boundary
62
5
39
2
10
133.914500
20
170.147515
11
145.789484
21
170.147515
0
LINE
8
boundary
62
5
39
2
10
145.789484
20
170.147515
11
143.427590
21
177.767145
0
LINE
8
boundary
62
5
39
2
10
143.427590
20
177.767145
11
147.109525
21
183.629011
0
LINE
8
boundary
62
5
39
2
10
147.109525
20
183.629011
11
151.302316
21
191.601568
0
LINE
8
boundary
62
5
39
2
10
151.302316
20
191.601568
11
137.064491
21
191.731568
0
LINE
8
boundary
62
5
39
2
10
137.064491
20
191.731568
11
137.064491
21
194.077568
0
LINE
8
boundary
62
5
39
2
10
137.064491
20
194.077568
11
153.305750
21
194.077568
0
LINE
8
boundary
62
5
39
2
10
153.305750
20
194.077568
11
154.871921
21
195.566597
0
LINE
8
boundary
62
5
39
2
10
154.871921
20
195.566597
11
161.339328
21
215.531620
0
LINE
8
boundary
62
5
39
2
10
161.339328
20
215.531620
11
141.668022
21
215.661621
0
LINE
8
boundary
62
5
39
2
10
141.668022
20
215.661621
11
141.668022
21
218.007620
0
LINE
8
boundary
62
5
39
2
10
141.668022
20
218.007620
11
162.240613
21
218.007621
0
LINE
8
boundary
62
5
39
2
10
162.240613
20
218.007621
11
175.017614
21
235.561315
0
LINE
8
boundary
62
5
39
2
10
175.017614
20
235.561315
11
156.581939
21
235.561316
0
LINE
8
boundary
62
5
39
2
10
156.581939
20
235.561316
11
121.017605
21
235.561321
0
LINE
8
boundary
62
5
39
2
10
121.017605
20
235.561321
11
121.017603
21
177.767319
0
LINE
8
boundary
62
5
39
2
10
121.017603
20
177.767319
11
121.017604
21
121.114407
0
LINE
8
boundary
62
5
39
2
10
121.017604
20
121.114407
11
121.017603
21
64.461455
0
LINE
8
annotation
62
1
39
211
10
137.264285
20
23.314166
11
135.416729
21
23.314166
0
LINE
8
annotation
62
1
39
211
10
135.416729
20
23.314166
11
137.123931
21
26.062542
0
LINE
8
annotation
62
1
39
211
10
137.123931
20
26.062542
11
137.123931
21
26.062542
0
LINE
8
annotation
62
1
39
211
10
137.123931
20
26.062542
11
137.125972
21
26.065068
0
LINE
8
annotation
62
1
39
211
10
137.125972
20
26.065068
11
137.127929
21
26.067615
0
LINE
8
annotation
62
1
39
211
10
137.127929
20
26.067615
11
137.129815
21
26.070204
0
LINE
8
annotation
62
1
39
211
10
137.129815
20
26.070204
11
137.131644
21
26.072859
0
LINE
8
annotation
62
1
39
211
10
137.131644
20
26.072859
11
137.133427
21
26.075599
0
LINE
8
annotation
62
1
39
211
10
137.133427
20
26.075599
11
137.135178
21
26.078446
0
LINE
8
annotation
62
1
39
211
10
137.135178
20
26.078446
11
137.136910
21
26.081423
0
LINE
8
annotation
62
1
39
211
10
137.136910
20
26.081423
11
137.138635
21
26.084549
0
LINE
8
annotation
62
1
39
211
10
137.138635
20
26.084549
11
137.140367
21
26.087848
0
LINE
8
annotation
62
1
39
211
10
137.140367
20
26.087848
11
137.140367
21
26.087848
0
LINE
8
annotation
62
1
39
211
10
137.140367
20
26.087848
11
137.210856
21
26.239196
0
LINE
8
annotation
62
1
39
211
10
137.210856
20
26.239196
11
137.252036
21
26.396081
0
LINE
8
annotation
62
1
39
211
10
137.252036
20
26.396081
11
137.264913
21
26.554959
0
LINE
8
annotation
62
1
39
211
10
137.264913
20
26.554959
11
137.250497
21
26.712285
0
LINE
8
annotation
62
1
39
211
10
137.250497
20
26.712285
11
137.209799
21
26.864513
0
LINE
8
annotation
62
1
39
211
10
137.209799
20
26.864513
11
137.143826
21
27.008099
0
LINE
8
annotation
62
1
39
211
10
137.143826
20
27.008099
11
137.053587
21
27.139497
0
LINE
8
annotation
62
1
39
211
10
137.053587
20
27.139497
11
136.940093
21
27.255164
0
LINE
8
annotation
62
1
39
211
10
136.940093
20
27.255164
11
136.804352
21
27.351553
0
LINE
8
annotation
62
1
39
211
10
136.804352
20
27.351553
11
136.804352
21
27.351553
0
LINE
8
annotation
62
1
39
211
10
136.804352
20
27.351553
11
136.652584
21
27.421041
0
LINE
8
annotation
62
1
39
211
10
136.652584
20
27.421041
11
136.495458
21
27.461586
0
LINE
8
annotation
62
1
39
211
10
136.495458
20
27.461586
11
136.336487
21
27.474099
0
LINE
8
annotation
62
1
39
211
10
136.336487
20
27.474099
11
136.179186
21
27.459493
0
LINE
8
annotation
62
1
39
211
10
136.179186
20
27.459493
11
136.027065
21
27.418682
0
LINE
8
annotation
62
1
39
211
10
136.027065
20
27.418682
11
135.883638
21
27.352577
0
LINE
8
annotation
62
1
39
211
10
135.883638
20
27.352577
11
135.752417
21
27.262091
0
LINE
8
annotation
62
1
39
211
10
135.752417
20
27.262091
11
135.636916
21
27.148136
0
LINE
8
annotation
62
1
39
211
10
135.636916
20
27.148136
11
135.540647
21
27.011625
0
LINE
8
annotation
62
1
39
211
10
135.540647
20
27.011625
11
135.419338
21
26.778920
0
LINE
8
annotation
62
1
39
211
10
130.813167
20
47.244383
11
131.736945
21
47.244383
0
LINE
8
annotation
62
1
39
211
10
131.736945
20
47.244383
11
131.736945
21
47.244383
0
LINE
8
annotation
62
1
39
211
10
131.736945
20
47.244383
11
131.903088
21
47.259287
0
LINE
8
annotation
62
1
39
211
10
131.903088
20
47.259287
11
132.059424
21
47.302242
0
LINE
8
annotation
62
1
39
211
10
132.059424
20
47.302242
11
132.203351
21
47.370611
0
LINE
8
annotation
62
1
39
211
10
132.203351
20
47.370611
11
132.332269
21
47.461756
0
LINE
8
annotation
62
1
39
211
10
132.332269
20
47.461756
11
132.443578
21
47.573043
0
LINE
8
annotation
62
1
39
211
10
132.443578
20
47.573043
11
132.534678
21
47.701832
0
LINE
8
annotation
62
1
39
211
10
132.534678
20
47.701832
11
132.602969
21
47.845489
0
LINE
8
annotation
62
1
39
211
10
132.602969
20
47.845489
11
132.645851
21
48.001376
0
LINE
8
annotation
62
1
39
211
10
132.645851
20
48.001376
11
132.660722
21
48.166857
0
LINE
8
annotation
62
1
39
211
10
132.660722
20
48.166857
11
132.660722
21
48.629398
0
LINE
8
annotation
62
1
39
211
10
132.660722
20
48.629398
11
132.660722
21
48.629398
0
LINE
8
annotation
62
1
39
211
10
132.660722
20
48.629398
11
132.645851
21
48.794809
0
LINE
8
annotation
62
1
39
211
10
132.645851
20
48.794809
11
132.602969
21
48.950660
0
LINE
8
annotation
62
1
39
211
10
132.602969
20
48.950660
11
132.534678
21
49.094306
0
LINE
8
annotation
62
1
39
211
10
132.534678
20
49.094306
11
132.443578
21
49.223104
0
LINE
8
annotation
62
1
39
211
10
132.443578
20
49.223104
11
132.332269
21
49.334412
0
LINE
8
annotation
62
1
39
211
10
132.332269
20
49.334412
11
132.203351
21
49.425586
0
LINE
8
annotation
62
1
39
211
10
132.203351
20
49.425586
11
132.059424
21
49.493982
0
LINE
8
annotation
62
1
39
211
10
132.059424
20
49.493982
11
131.903088
21
49.536958
0
LINE
8
annotation
62
1
39
211
10
131.903088
20
49.536958
11
131.736945
21
49.551871
0
LINE
8
annotation
62
1
39
211
10
131.736945
20
49.551871
11
131.274404
21
49.551871
0
LINE
8
annotation
62
1
39
211
10
131.274404
20
49.551871
11
131.736945
21
49.551871
0
LINE
8
annotation
62
1
39
211
10
131.736945
20
49.551871
11
131.736945
21
49.551871
0
LINE
8
annotation
62
1
39
211
10
131.736945
20
49.551871
11
131.903088
21
49.566787
0
LINE
8
annotation
62
1
39
211
10
131.903088
20
49.566787
11
132.059424
21
49.609789
0
LINE
8
annotation
62
1
39
211
10
132.059424
20
49.609789
11
132.203351
21
49.678253
0
LINE
8
annotation
62
1
39
211
10
132.203351
20
49.678253
11
132.332269
21
49.769559
0
LINE
8
annotation
62
1
39
211
10
132.332269
20
49.769559
11
132.443578
21
49.881085
0
LINE
8
annotation
62
1
39
211
10
132.443578
20
49.881085
11
132.534678
21
50.010209
0
LINE
8
annotation
62
1
39
211
10
132.534678
20
50.010209
11
132.602969
21
50.154310
0
LINE
8
annotation
62
1
39
211
10
132.602969
20
50.154310
11
132.645851
21
50.310765
0
LINE
8
annotation
62
1
39
211
10
132.645851
20
50.310765
11
132.660722
21
50.476953
0
LINE
8
annotation
62
1
39
211
10
132.660722
20
50.476953
11
132.660722
21
50.476953
0
LINE
8
annotation
62
1
39
211
10
132.660722
20
50.476953
11
132.645851
21
50.642365
0
LINE
8
annotation
62
1
39
211
10
132.645851
20
50.642365
11
132.602969
21
50.798215
0
LINE
8
annotation
62
1
39
211
10
132.602969
20
50.798215
11
132.534678
21
50.941861
0
LINE
8
annotation
62
1
39
211
10
132.534678
20
50.941861
11
132.443578
21
51.070660
0
LINE
8
annotation
62
1
39
211
10
132.443578
20
51.070660
11
132.332269
21
51.181967
0
LINE
8
annotation
62
1
39
211
10
132.332269
20
51.181967
11
132.203351
21
51.273141
0
LINE
8
annotation
62
1
39
211
10
132.203351
20
51.273141
11
132.059424
21
51.341538
0
LINE
8
annotation
62
1
39
211
10
132.059424
20
51.341538
11
131.903088
21
51.384514
0
LINE
8
annotation
62
1
39
211
10
131.903088
20
51.384514
11
131.736945
21
51.399427
0
LINE
8
annotation
62
1
39
211
10
131.736945
20
51.399427
11
130.813167
21
51.399427
0
LINE
8
annotation
62
1
39
211
10
129.741933
20
72.099127
11
127.432097
21
72.099127
0
LINE
8
annotation
62
1
39
211
10
127.432097
20
72.099127
11
128.354570
21
75.334305
0
LINE
8
annotation
62
1
39
211
10
129.049556
20
71.174305
11
129.049556
21
73.021861
0
LINE
8
annotation
62
1
39
211
10
131.811320
20
95.104358
11
132.735098
21
95.104358
0
LINE
8
annotation
62
1
39
211
10
132.735098
20
95.104358
11
132.735098
21
95.104358
0
LINE
8
annotation
62
1
39
211
10
132.735098
20
95.104358
11
132.900898
21
95.119265
0
LINE
8
annotation
62
1
39
211
10
132.900898
20
95.119265
11
133.057051
21
95.162243
0
LINE
8
annotation
62
1
39
211
10
133.057051
20
95.162243
11
133.200924
21
95.230672
0
LINE
8
annotation
62
1
39
211
10
133.200924
20
95.230672
11
133.329885
21
95.321937
0
LINE
8
annotation
62
1
39
211
10
133.329885
20
95.321937
11
133.441302
21
95.433420
0
LINE
8
annotation
62
1
39
211
10
133.441302
20
95.433420
11
133.532542
21
95.562503
0
LINE
8
annotation
62
1
39
211
10
133.532542
20
95.562503
11
133.600972
21
95.706568
0
LINE
8
annotation
62
1
39
211
10
133.600972
20
95.706568
11
133.643961
21
95.863000
0
LINE
8
annotation
62
1
39
211
10
133.643961
20
95.863000
11
133.658876
21
96.029179
0
LINE
8
annotation
62
1
39
211
10
133.658876
20
96.029179
11
133.658876
21
96.489372
0
LINE
8
annotation
62
1
39
211
10
133.658876
20
96.489372
11
133.658876
21
96.489372
0
LINE
8
annotation
62
1
39
211
10
133.658876
20
96.489372
11
133.643970
21
96.655471
0
LINE
8
annotation
62
1
39
211
10
133.643970
20
96.655471
11
133.601002
21
96.811687
0
LINE
8
annotation
62
1
39
211
10
133.601002
20
96.811687
11
133.532600
21
96.955440
0
LINE
8
annotation
62
1
39
211
10
133.532600
20
96.955440
11
133.441388
21
97.084153
0
LINE
8
annotation
62
1
39
211
10
133.441388
20
97.084153
11
133.329993
21
97.195245
0
LINE
8
annotation
62
1
39
211
10
133.329993
20
97.195245
11
133.201040
21
97.286140
0
LINE
8
annotation
62
1
39
211
10
133.201040
20
97.286140
11
133.057156
21
97.354257
0
LINE
8
annotation
62
1
39
211
10
133.057156
20
97.354257
11
132.900967
21
97.397019
0
LINE
8
annotation
62
1
39
211
10
132.900967
20
97.397019
11
132.735098
21
97.411846
0
LINE
8
annotation
62
1
39
211
10
132.735098
20
97.411846
11
131.811320
21
97.411846
0
LINE
8
annotation
62
1
39
211
10
131.811320
20
97.411846
11
131.811320
21
99.264358
0
LINE
8
annotation
62
1
39
211
10
131.811320
20
99.264358
11
133.658876
21
99.264358
0
LINE
8
annotation
62
1
39
211
10
122.740890
20
122.966084
11
122.740890
21
122.966084
0
LINE
8
annotation
62
1
39
211
10
122.740890
20
122.966084
11
122.505301
21
122.877752
0
LINE
8
annotation
62
1
39
211
10
122.505301
20
122.877752
11
122.289117
21
122.758735
0
LINE
8
annotation
62
1
39
211
10
122.289117
20
122.758735
11
122.094558
21
122.612016
0
LINE
8
annotation
62
1
39
211
10
122.094558
20
122.612016
11
121.923842
21
122.440576
0
LINE
8
annotation
62
1
39
211
10
121.923842
20
122.440576
11
121.779189
21
122.247397
0
LINE
8
annotation
62
1
39
211
10
121.779189
20
122.247397
11
121.662818
21
122.035460
0
LINE
8
annotation
62
1
39
211
10
121.662818
20
122.035460
11
121.576949
21
121.807748
0
LINE
8
annotation
62
1
39
211
10
121.576949
20
121.807748
11
121.523799
21
121.567243
0
LINE
8
annotation
62
1
39
211
10
121.523799
20
121.567243
11
121.505590
21
121.316926
0
LINE
8
annotation
62
1
39
211
10
121.505590
20
121.316926
11
121.505590
21
120.086038
0
LINE
8
annotation
62
1
39
211
10
121.505590
20
120.086038
11
121.505590
21
120.086038
0
LINE
8
annotation
62
1
39
211
10
121.505590
20
120.086038
11
121.518867
21
119.938101
0
LINE
8
annotation
62
1
39
211
10
121.518867
20
119.938101
11
121.557137
21
119.798842
0
LINE
8
annotation
62
1
39
211
10
121.557137
20
119.798842
11
121.618056
21
119.670590
0
LINE
8
annotation
62
1
39
211
10
121.618056
20
119.670590
11
121.699280
21
119.555677
0
LINE
8
annotation
62
1
39
211
10
121.699280
20
119.555677
11
121.798466
21
119.456432
0
LINE
8
annotation
62
1
39
211
10
121.798466
20
119.456432
11
121.913271
21
119.375186
0
LINE
8
annotation
62
1
39
211
10
121.913271
20
119.375186
11
122.041351
21
119.314268
0
LINE
8
annotation
62
1
39
211
10
122.041351
20
119.314268
11
122.180362
21
119.276008
0
LINE
8
annotation
62
1
39
211
10
122.180362
20
119.276008
11
122.327962
21
119.262737
0
LINE
8
annotation
62
1
39
211
10
122.327962
20
119.262737
11
122.327962
21
119.262737
0
LINE
8
annotation
62
1
39
211
10
122.327962
20
119.262737
11
122.475868
21
119.276008
0
LINE
8
annotation
62
1
39
211
10
122.475868
20
119.276008
11
122.615042
21
119.314268
0
LINE
8
annotation
62
1
39
211
10
122.615042
20
119.314268
11
122.743170
21
119.375186
0
LINE
8
annotation
62
1
39
211
10
122.743170
20
119.375186
11
122.857936
21
119.456432
0
LINE
8
annotation
62
1
39
211
10
122.857936
20
119.456432
11
122.957027
21
119.555677
0
LINE
8
annotation
62
1
39
211
10
122.957027
20
119.555677
11
123.038127
21
119.670590
0
LINE
8
annotation
62
1
39
211
10
123.038127
20
119.670590
11
123.098921
21
119.798842
0
LINE
8
annotation
62
1
39
211
10
123.098921
20
119.798842
11
123.137095
21
119.938101
0
LINE
8
annotation
62
1
39
211
10
123.137095
20
119.938101
11
123.150335
21
120.086038
0
LINE
8
annotation
62
1
39
211
10
123.150335
20
120.086038
11
123.150335
21
120.495715
0
LINE
8
annotation
62
1
39
211
10
123.150335
20
120.495715
11
123.150335
21
120.495715
0
LINE
8
annotation
62
1
39
211
10
123.150335
20
120.495715
11
123.137095
21
120.643581
0
LINE
8
annotation
62
1
39
211
10
123.137095
20
120.643581
11
123.098921
21
120.782648
0
LINE
8
annotation
62
1
39
211
10
123.098921
20
120.782648
11
123.038127
21
120.910621
0
LINE
8
annotation
62
1
39
211
10
123.038127
20
120.910621
11
122.957027
21
121.025205
0
LINE
8
annotation
62
1
39
211
10
122.957027
20
121.025205
11
122.857936
21
121.124103
0
LINE
8
annotation
62
1
39
211
10
122.857936
20
121.124103
11
122.743170
21
121.205019
0
LINE
8
annotation
62
1
39
211
10
122.743170
20
121.205019
11
122.615042
21
121.265659
0
LINE
8
annotation
62
1
39
211
10
122.615042
20
121.265659
11
122.475868
21
121.303727
0
LINE
8
annotation
62
1
39
211
10
122.475868
20
121.303727
11
122.327962
21
121.316926
0
LINE
8
annotation
62
1
39
211
10
122.327962
20
121.316926
11
121.505590
21
121.316926
0
LINE
8
annotation
62
1
39
211
10
121.402590
20
118.799819
11
123.254263
21
118.799819
0
LINE
8
annotation
62
1
39
211
10
132.735096
20
142.964463
11
133.659917
21
147.124463
0
LINE
8
annotation
62
1
39
211
10
133.659917
20
147.124463
11
131.810014
21
147.124463
0
LINE
8
annotation
62
1
39
211
10
133.659917
20
145.271951
11
132.735096
21
145.271951
0
LINE
8
annotation
62
1
39
211
10
127.663200
20
167.816858
11
127.663200
21
167.816858
0
LINE
8
annotation
62
1
39
211
10
127.663200
20
167.816858
11
127.678115
21
167.650759
0
LINE
8
annotation
62
1
39
211
10
127.678115
20
167.650759
11
127.721104
21
167.494544
0
LINE
8
annotation
62
1
39
211
10
127.721104
20
167.494544
11
127.789534
21
167.350790
0
LINE
8
annotation
62
1
39
211
10
127.789534
20
167.350790
11
127.880774
21
167.222078
0
LINE
8
annotation
62
1
39
211
10
127.880774
20
167.222078
11
127.992191
21
167.110985
0
LINE
8
annotation
62
1
39
211
10
127.992191
20
167.110985
11
128.121152
21
167.020091
0
LINE
8
annotation
62
1
39
211
10
128.121152
20
167.020091
11
128.265025
21
166.951973
0
LINE
8
annotation
62
1
39
211
10
128.265025
20
166.951973
11
128.421178
21
166.909212
0
LINE
8
annotation
62
1
39
211
10
128.421178
20
166.909212
11
128.586978
21
166.894385
0
LINE
8
annotation
62
1
39
211
10
128.586978
20
166.894385
11
128.586978
21
166.894385
0
LINE
8
annotation
62
1
39
211
10
128.586978
20
166.894385
11
128.752778
21
166.909212
0
LINE
8
annotation
62
1
39
211
10
128.752778
20
166.909212
11
128.908931
21
166.951973
0
LINE
8
annotation
62
1
39
211
10
128.908931
20
166.951973
11
129.052804
21
167.020091
0
LINE
8
annotation
62
1
39
211
10
129.052804
20
167.020091
11
129.181766
21
167.110985
0
LINE
8
annotation
62
1
39
211
10
129.181766
20
167.110985
11
129.293182
21
167.222078
0
LINE
8
annotation
62
1
39
211
10
129.293182
20
167.222078
11
129.384422
21
167.350790
0
LINE
8
annotation
62
1
39
211
10
129.384422
20
167.350790
11
129.452853
21
167.494544
0
LINE
8
annotation
62
1
39
211
10
129.452853
20
167.494544
11
129.495841
21
167.650759
0
LINE
8
annotation
62
1
39
211
10
129.495841
20
167.650759
11
129.510756
21
167.816858
0
LINE
8
annotation
62
1
39
211
10
129.510756
20
167.816858
11
129.510756
21
168.277051
0
LINE
8
annotation
62
1
39
211
10
129.510756
20
168.277051
11
129.510756
21
168.277051
0
LINE
8
annotation
62
1
39
211
10
129.510756
20
168.277051
11
129.495850
21
168.443231
0
LINE
8
annotation
62
1
39
211
10
129.495850
20
168.443231
11
129.452883
21
168.599662
0
LINE
8
annotation
62
1
39
211
10
129.452883
20
168.599662
11
129.384480
21
168.743728
0
LINE
8
annotation
62
1
39
211
10
129.384480
20
168.743728
11
129.293268
21
168.872811
0
LINE
8
annotation
62
1
39
211
10
129.293268
20
168.872811
11
129.181873
21
168.984293
0
LINE
8
annotation
62
1
39
211
10
129.181873
20
168.984293
11
129.052920
21
169.075558
0
LINE
8
annotation
62
1
39
211
10
129.052920
20
169.075558
11
128.909036
21
169.143988
0
LINE
8
annotation
62
1
39
211
10
128.909036
20
169.143988
11
128.752847
21
169.186965
0
LINE
8
annotation
62
1
39
211
10
128.752847
20
169.186965
11
128.586978
21
169.201873
0
LINE
8
annotation
62
1
39
211
10
128.586978
20
169.201873
11
128.586978
21
169.201873
0
LINE
8
annotation
62
1
39
211
10
128.586978
20
169.201873
11
128.421109
21
169.186957
0
LINE
8
annotation
62
1
39
211
10
128.421109
20
169.186957
11
128.264920
21
169.143958
0
LINE
8
annotation
62
1
39
211
10
128.264920
20
169.143958
11
128.121036
21
169.075500
0
LINE
8
annotation
62
1
39
211
10
128.121036
20
169.075500
11
127.992083
21
168.984207
0
LINE
8
annotation
62
1
39
211
10
127.992083
20
168.984207
11
127.880688
21
168.872703
0
LINE
8
annotation
62
1
39
211
10
127.880688
20
168.872703
11
127.789476
21
168.743612
0
LINE
8
annotation
62
1
39
211
10
127.789476
20
168.743612
11
127.721074
21
168.599557
0
LINE
8
annotation
62
1
39
211
10
127.721074
20
168.599557
11
127.678106
21
168.443162
0
LINE
8
annotation
62
1
39
211
10
127.678106
20
168.443162
11
127.663200
21
168.277051
0
LINE
8
annotation
62
1
39
211
10
127.663200
20
168.277051
11
127.663200
21
167.816858
0
LINE
8
annotation
62
1
39
211
10
129.510756
20
170.126955
11
129.510756
21
170.126955
0
LINE
8
annotation
62
1
39
211
10
129.510756
20
170.126955
11
129.495850
21
170.292367
0
LINE
8
annotation
62
1
39
211
10
129.495850
20
170.292367
11
129.452883
21
170.448217
0
LINE
8
annotation
62
1
39
211
10
129.452883
20
170.448217
11
129.384480
21
170.591863
0
LINE
8
annotation
62
1
39
211
10
129.384480
20
170.591863
11
129.293268
21
170.720662
0
LINE
8
annotation
62
1
39
211
10
129.293268
20
170.720662
11
129.181873
21
170.831969
0
LINE
8
annotation
62
1
39
211
10
129.181873
20
170.831969
11
129.052920
21
170.923143
0
LINE
8
annotation
62
1
39
211
10
129.052920
20
170.923143
11
128.909036
21
170.991539
0
LINE
8
annotation
62
1
39
211
10
128.909036
20
170.991539
11
128.752847
21
171.034515
0
LINE
8
annotation
62
1
39
211
10
128.752847
20
171.034515
11
128.586978
21
171.049428
0
LINE
8
annotation
62
1
39
211
10
128.586978
20
171.049428
11
128.586978
21
171.049428
0
LINE
8
annotation
62
1
39
211
10
128.586978
20
171.049428
11
128.421109
21
171.034515
0
LINE
8
annotation
62
1
39
211
10
128.421109
20
171.034515
11
128.264920
21
170.991539
0
LINE
8
annotation
62
1
39
211
10
128.264920
20
170.991539
11
128.121036
21
170.923143
0
LINE
8
annotation
62
1
39
211
10
128.121036
20
170.923143
11
127.992083
21
170.831969
0
LINE
8
annotation
62
1
39
211
10
127.992083
20
170.831969
11
127.880688
21
170.720662
0
LINE
8
annotation
62
1
39
211
10
127.880688
20
170.720662
11
127.789476
21
170.591863
0
LINE
8
annotation
62
1
39
211
10
127.789476
20
170.591863
11
127.721074
21
170.448217
0
LINE
8
annotation
62
1
39
211
10
127.721074
20
170.448217
11
127.678106
21
170.292367
0
LINE
8
annotation
62
1
39
211
10
127.678106
20
170.292367
11
127.663200
21
170.126955
0
LINE
8
annotation
62
1
39
211
10
127.663200
20
170.126955
11
127.663200
21
170.126955
0
LINE
8
annotation
62
1
39
211
10
127.663200
20
170.126955
11
127.678115
21
169.960766
0
LINE
8
annotation
62
1
39
211
10
127.678115
20
169.960766
11
127.721104
21
169.804311
0
LINE
8
annotation
62
1
39
211
10
127.721104
20
169.804311
11
127.789534
21
169.660211
0
LINE
8
annotation
62
1
39
211
10
127.789534
20
169.660211
11
127.880774
21
169.531087
0
LINE
8
annotation
62
1
39
211
10
127.880774
20
169.531087
11
127.992191
21
169.419561
0
LINE
8
annotation
62
1
39
211
10
127.992191
20
169.419561
11
128.121152
21
169.328255
0
LINE
8
annotation
62
1
39
211
10
128.121152
20
169.328255
11
128.265025
21
169.259790
0
LINE
8
annotation
62
1
39
211
10
128.265025
20
169.259790
11
128.421178
21
169.216789
0
LINE
8
annotation
62
1
39
211
10
128.421178
20
169.216789
11
128.586978
21
169.201873
0
LINE
8
annotation
62
1
39
211
10
128.586978
20
169.201873
11
128.586978
21
169.201873
0
LINE
8
annotation
62
1
39
211
10
128.586978
20
169.201873
11
128.752778
21
169.216789
0
LINE
8
annotation
62
1
39
211
10
128.752778
20
169.216789
11
128.908931
21
169.259790
0
LINE
8
annotation
62
1
39
211
10
128.908931
20
169.259790
11
129.052804
21
169.328255
0
LINE
8
annotation
62
1
39
211
10
129.052804
20
169.328255
11
129.181766
21
169.419561
0
LINE
8
annotation
62
1
39
211
10
129.181766
20
169.419561
11
129.293182
21
169.531087
0
LINE
8
annotation
62
1
39
211
10
129.293182
20
169.531087
11
129.384422
21
169.660211
0
LINE
8
annotation
62
1
39
211
10
129.384422
20
169.660211
11
129.452853
21
169.804311
0
LINE
8
annotation
62
1
39
211
10
129.452853
20
169.804311
11
129.495841
21
169.960766
0
LINE
8
annotation
62
1
39
211
10
129.495841
20
169.960766
11
129.510756
21
170.126955
0
LINE
8
annotation
62
1
39
211
10
131.274428
20
190.824568
11
131.274428
21
190.824568
0
LINE
8
annotation
62
1
39
211
10
131.274428
20
190.824568
11
131.538601
21
190.923012
0
LINE
8
annotation
62
1
39
211
10
131.538601
20
190.923012
11
131.781079
21
191.056077
0
LINE
8
annotation
62
1
39
211
10
131.781079
20
191.056077
11
131.999357
21
191.220372
0
LINE
8
annotation
62
1
39
211
10
131.999357
20
191.220372
11
132.190928
21
191.412507
0
LINE
8
annotation
62
1
39
211
10
132.190928
20
191.412507
11
132.353287
21
191.629092
0
LINE
8
annotation
62
1
39
211
10
132.353287
20
191.629092
11
132.483928
21
191.866737
0
LINE
8
annotation
62
1
39
211
10
132.483928
20
191.866737
11
132.580345
21
192.122051
0
LINE
8
annotation
62
1
39
211
10
132.580345
20
192.122051
11
132.640033
21
192.391643
0
LINE
8
annotation
62
1
39
211
10
132.640033
20
192.391643
11
132.660486
21
192.672123
0
LINE
8
annotation
62
1
39
211
10
132.660486
20
192.672123
11
132.660486
21
194.059486
0
LINE
8
annotation
62
1
39
211
10
132.660486
20
194.059486
11
132.660486
21
194.059486
0
LINE
8
annotation
62
1
39
211
10
132.660486
20
194.059486
11
132.645614
21
194.225674
0
LINE
8
annotation
62
1
39
211
10
132.645614
20
194.225674
11
132.602733
21
194.382129
0
LINE
8
annotation
62
1
39
211
10
132.602733
20
194.382129
11
132.534442
21
194.526230
0
LINE
8
annotation
62
1
39
211
10
132.534442
20
194.526230
11
132.443342
21
194.655354
0
LINE
8
annotation
62
1
39
211
10
132.443342
20
194.655354
11
132.332032
21
194.766880
0
LINE
8
annotation
62
1
39
211
10
132.332032
20
194.766880
11
132.203114
21
194.858186
0
LINE
8
annotation
62
1
39
211
10
132.203114
20
194.858186
11
132.059187
21
194.926650
0
LINE
8
annotation
62
1
39
211
10
132.059187
20
194.926650
11
131.902852
21
194.969651
0
LINE
8
annotation
62
1
39
211
10
131.902852
20
194.969651
11
131.736708
21
194.984568
0
LINE
8
annotation
62
1
39
211
10
131.736708
20
194.984568
11
131.736708
21
194.984568
0
LINE
8
annotation
62
1
39
211
10
131.736708
20
194.984568
11
131.570908
21
194.969651
0
LINE
8
annotation
62
1
39
211
10
131.570908
20
194.969651
11
131.414755
21
194.926650
0
LINE
8
annotation
62
1
39
211
10
131.414755
20
194.926650
11
131.270882
21
194.858186
0
LINE
8
annotation
62
1
39
211
10
131.270882
20
194.858186
11
131.141921
21
194.766880
0
LINE
8
annotation
62
1
39
211
10
131.141921
20
194.766880
11
131.030504
21
194.655354
0
LINE
8
annotation
62
1
39
211
10
131.030504
20
194.655354
11
130.939264
21
194.526230
0
LINE
8
annotation
62
1
39
211
10
130.939264
20
194.526230
11
130.870834
21
194.382129
0
LINE
8
annotation
62
1
39
211
10
130.870834
20
194.382129
11
130.827845
21
194.225674
0
LINE
8
annotation
62
1
39
211
10
130.827845
20
194.225674
11
130.812930
21
194.059486
0
LINE
8
annotation
62
1
39
211
10
130.812930
20
194.059486
11
130.812930
21
193.596945
0
LINE
8
annotation
62
1
39
211
10
130.812930
20
193.596945
11
130.812930
21
193.596945
0
LINE
8
annotation
62
1
39
211
10
130.812930
20
193.596945
11
130.827845
21
193.430765
0
LINE
8
annotation
62
1
39
211
10
130.827845
20
193.430765
11
130.870834
21
193.274334
0
LINE
8
annotation
62
1
39
211
10
130.870834
20
193.274334
11
130.939264
21
193.130268
0
LINE
8
annotation
62
1
39
211
10
130.939264
20
193.130268
11
131.030504
21
193.001185
0
LINE
8
annotation
62
1
39
211
10
131.030504
20
193.001185
11
131.141921
21
192.889703
0
LINE
8
annotation
62
1
39
211
10
131.141921
20
192.889703
11
131.270882
21
192.798438
0
LINE
8
annotation
62
1
39
211
10
131.270882
20
192.798438
11
131.414755
21
192.730008
0
LINE
8
annotation
62
1
39
211
10
131.414755
20
192.730008
11
131.570908
21
192.687031
0
LINE
8
annotation
62
1
39
211
10
131.570908
20
192.687031
11
131.736708
21
192.672123
0
LINE
8
annotation
62
1
39
211
10
131.736708
20
192.672123
11
132.660486
21
192.672123
0
LINE
8
annotation
62
1
39
211
10
130.697491
20
190.304568
11
132.777491
21
190.304568
0
LINE
8
annotation
62
1
39
211
10
135.150347
20
214.833608
11
135.150347
21
218.835632
0
LINE
8
annotation
62
1
39
211
10
135.150347
20
218.835632
11
134.260646
21
217.945680
0
LINE
8
annotation
62
1
39
211
10
137.293812
20
214.886397
11
137.293812
21
214.886397
0
LINE
8
annotation
62
1
39
211
10
137.293812
20
214.886397
11
137.386824
21
214.851626
0
LINE
8
annotation
62
1
39
211
10
137.386824
20
214.851626
11
137.482216
21
214.834352
0
LINE
8
annotation
62
1
39
211
10
137.482216
20
214.834352
11
137.577830
21
214.833869
0
LINE
8
annotation
62
1
39
211
10
137.577830
20
214.833869
11
137.671512
21
214.849473
0
LINE
8
annotation
62
1
39
211
10
137.671512
20
214.849473
11
137.761103
21
214.880460
0
LINE
8
annotation
62
1
39
211
10
137.761103
20
214.880460
11
137.844448
21
214.926125
0
LINE
8
annotation
62
1
39
211
10
137.844448
20
214.926125
11
137.919390
21
214.985764
0
LINE
8
annotation
62
1
39
211
10
137.919390
20
214.985764
11
137.983772
21
215.058672
0
LINE
8
annotation
62
1
39
211
10
137.983772
20
215.058672
11
138.035439
21
215.144146
0
LINE
8
annotation
62
1
39
211
10
138.035439
20
215.144146
11
138.035439
21
215.144146
0
LINE
8
annotation
62
1
39
211
10
138.035439
20
215.144146
11
138.189592
21
215.504981
0
LINE
8
annotation
62
1
39
211
10
138.189592
20
215.504981
11
138.305207
21
215.876259
0
LINE
8
annotation
62
1
39
211
10
138.305207
20
215.876259
11
138.382284
21
216.255020
0
LINE
8
annotation
62
1
39
211
10
138.382284
20
216.255020
11
138.420823
21
216.638306
0
LINE
8
annotation
62
1
39
211
10
138.420823
20
216.638306
11
138.420823
21
217.023155
0
LINE
8
annotation
62
1
39
211
10
138.420823
20
217.023155
11
138.382284
21
217.406608
0
LINE
8
annotation
62
1
39
211
10
138.382284
20
217.406608
11
138.305207
21
217.785704
0
LINE
8
annotation
62
1
39
211
10
138.305207
20
217.785704
11
138.189592
21
218.157484
0
LINE
8
annotation
62
1
39
211
10
138.189592
20
218.157484
11
138.035439
21
218.518987
0
LINE
8
annotation
62
1
39
211
10
138.035439
20
218.518987
11
138.035439
21
218.518987
0
LINE
8
annotation
62
1
39
211
10
138.035439
20
218.518987
11
138.015835
21
218.555471
0
LINE
8
annotation
62
1
39
211
10
138.015835
20
218.555471
11
137.993610
21
218.590351
0
LINE
8
annotation
62
1
39
211
10
137.993610
20
218.590351
11
137.968931
21
218.623457
0
LINE
8
annotation
62
1
39
211
10
137.968931
20
218.623457
11
137.941965
21
218.654618
0
LINE
8
annotation
62
1
39
211
10
137.941965
20
218.654618
11
137.912880
21
218.683661
0
LINE
8
annotation
62
1
39
211
10
137.912880
20
218.683661
11
137.881843
21
218.710415
0
LINE
8
annotation
62
1
39
211
10
137.881843
20
218.710415
11
137.849021
21
218.734709
0
LINE
8
annotation
62
1
39
211
10
137.849021
20
218.734709
11
137.814582
21
218.756372
0
LINE
8
annotation
62
1
39
211
10
137.814582
20
218.756372
11
137.778693
21
218.775231
0
LINE
8
annotation
62
1
39
211
10
137.778693
20
218.775231
11
137.778693
21
218.775231
0
LINE
8
annotation
62
1
39
211
10
137.778693
20
218.775231
11
137.684942
21
218.810755
0
LINE
8
annotation
62
1
39
211
10
137.684942
20
218.810755
11
137.588992
21
218.828620
0
LINE
8
annotation
62
1
39
211
10
137.588992
20
218.828620
11
137.492973
21
218.829535
0
LINE
8
annotation
62
1
39
211
10
137.492973
20
218.829535
11
137.399018
21
218.814207
0
LINE
8
annotation
62
1
39
211
10
137.399018
20
218.814207
11
137.309259
21
218.783346
0
LINE
8
annotation
62
1
39
211
10
137.309259
20
218.783346
11
137.225826
21
218.737660
0
LINE
8
annotation
62
1
39
211
10
137.225826
20
218.737660
11
137.150852
21
218.677857
0
LINE
8
annotation
62
1
39
211
10
137.150852
20
218.677857
11
137.086469
21
218.604646
0
LINE
8
annotation
62
1
39
211
10
137.086469
20
218.604646
11
137.034807
21
218.518736
0
LINE
8
annotation
62
1
39
211
10
137.034807
20
218.518736
11
137.034807
21
218.518736
0
LINE
8
annotation
62
1
39
211
10
137.034807
20
218.518736
11
136.881397
21
218.157977
0
LINE
8
annotation
62
1
39
211
10
136.881397
20
218.157977
11
136.766340
21
217.786754
0
LINE
8
annotation
62
1
39
211
10
136.766340
20
217.786754
11
136.689635
21
217.408030
0
LINE
8
annotation
62
1
39
211
10
136.689635
20
217.408030
11
136.651283
21
217.024763
0
LINE
8
annotation
62
1
39
211
10
136.651283
20
217.024763
11
136.651283
21
216.639914
0
LINE
8
annotation
62
1
39
211
10
136.651283
20
216.639914
11
136.689635
21
216.256442
0
LINE
8
annotation
62
1
39
211
10
136.689635
20
216.256442
11
136.766340
21
215.877309
0
LINE
8
annotation
62
1
39
211
10
136.766340
20
215.877309
11
136.881397
21
215.505473
0
LINE
8
annotation
62
1
39
211
10
136.881397
20
215.505473
11
137.034807
21
215.143895
0
LINE
8
annotation
62
1
39
211
10
137.034807
20
215.143895
11
137.034807
21
215.143895
0
LINE
8
annotation
62
1
39
211
10
137.034807
20
215.143895
11
137.054340
21
215.107485
0
LINE
8
annotation
62
1
39
211
10
137.054340
20
215.107485
11
137.076401
21
215.072778
0
LINE
8
annotation
62
1
39
211
10
137.076401
20
215.072778
11
137.100897
21
215.039881
0
LINE
8
annotation
62
1
39
211
10
137.100897
20
215.039881
11
137.127736
21
215.008898
0
LINE
8
annotation
62
1
39
211
10
137.127736
20
215.008898
11
137.156824
21
214.979936
0
LINE
8
annotation
62
1
39
211
10
137.156824
20
214.979936
11
137.188068
21
214.953100
0
LINE
8
annotation
62
1
39
211
10
137.188068
20
214.953100
11
137.221377
21
214.928494
0
LINE
8
annotation
62
1
39
211
10
137.221377
20
214.928494
11
137.256655
21
214.906224
0
LINE
8
annotation
62
1
39
211
10
137.256655
20
214.906224
11
137.293812
21
214.886397
0
LINE
8
annotation
62
1
39
211
10
132.398274
20
199.260852
11
127.822467
21
199.260852
0
LINE
8
annotation
62
1
39
211
10
127.822467
20
199.260852
11
132.398274
21
207.501854
0
LINE
8
annotation
62
1
39
211
10
132.398274
20
207.501854
11
127.822467
21
207.501854
0
LINE
8
annotation
62
1
39
211
10
139.995464
20
203.381353
11
135.489425
21
203.381353
0
LINE
8
annotation
62
1
39
211
10
144.917403
20
199.260852
11
146.749483
21
207.501854
0
LINE
8
annotation
62
1
39
211
10
146.749483
20
207.501854
11
143.084806
21
207.501854
0
LINE
8
annotation
62
1
39
211
10
146.749483
20
203.832009
11
144.917403
21
203.832009
0
LINE
8
frame
62
5
39
2
10
0.000000
20
0.000000
11
200.000000
21
0.000000
0
LINE
8
frame
62
5
39
2
10
200.000000
20
0.000000
11
200.000000
21
296.926000
0
LINE
8
frame
62
5
39
2
10
200.000000
20
296.926000
11
0.000000
21
296.926000
0
LINE
8
frame
62
5
39
2
10
0.000000
20
296.926000
11
0.000000
21
0.000000
0
ENDSEC
0
EOF
