0
SECTION
2
HEADER
9
$ACADVER
1
AC1009
0
ENDSEC
0
SECTION
2
TABLES
0
TABLE
2
VPORT
70
1
0
VPORT
2
ACTIVE
70
0
10
0.0
20
0.0
11
0.0
21
0.0
12
0.0
22
0.0
13
0.0
23
0.0
14
0.0
24
0.0
15
0.0
25
0.0
16
0.0
26
0.0
36
0.0
17
0.0
27
0.0
37
0.0
40
0.0
41
0.0
42
0.0
43
0.0
44
0.0
50
0.0
51
0.0
71
0
72
1000
73
1
74
3
75
0
76
0
77
0
78
0
0
ENDTAB
0
ENDSEC
0
SECTION
2
ENTITIES
0
LINE
8
boundary
62
5
39
2
10
6.667521
20
120.978365
11
6.667517
21
97.791279
0
LINE
8
boundary
62
5
39
2
10
6.667517
20
97.791279
11
24.623913
21
97.661282
0
LINE
8
boundary
62
5
39
2
10
24.623913
20
97.661282
11
24.623913
21
95.315281
0
LINE
8
boundary
62
5
39
2
10
24.623913
20
95.315281
11
6.667516
21
95.315282
0
LINE
8
boundary
62
5
39
2
10
6.667516
20
95.315282
11
6.667513
21
78.607033
0
LINE
8
boundary
62
5
39
2
10
6.667513
20
78.607033
11
6.667512
21
71.998198
0
LINE
8
boundary
62
5
39
2
10
6.667512
20
71.998198
11
26.108993
21
71.998198
0
LINE
8
boundary
62
5
39
2
10
26.108993
20
71.998198
11
26.108993
21
69.652198
0
LINE
8
boundary
62
5
39
2
10
26.108993
20
69.652198
11
6.667511
21
69.652198
0
LINE
8
boundary
62
5
39
2
10
6.667511
20
69.652198
11
6.667507
21
46.335114
0
LINE
8
boundary
62
5
39
2
10
6.667507
20
46.335114
11
13.153322
21
46.335114
0
LINE
8
boundary
62
5
39
2
10
13.153322
20
46.335114
11
13.153322
21
43.989114
0
LINE
8
boundary
62
5
39
2
10
13.153322
20
43.989114
11
6.667507
21
43.989114
0
LINE
8
boundary
62
5
39
2
10
6.667507
20
43.989114
11
6.667503
21
20.672031
0
LINE
8
boundary
62
5
39
2
10
6.667503
20
20.672031
11
23.960503
21
20.672031
0
LINE
8
boundary
62
5
39
2
10
23.960503
20
20.672031
11
23.960503
21
18.326031
0
LINE
8
boundary
62
5
39
2
10
23.960503
20
18.326031
11
6.667502
21
18.326031
0
LINE
8
boundary
62
5
39
2
10
6.667502
20
18.326031
11
6.667500
21
6.667526
0
LINE
8
boundary
62
5
39
2
10
6.667500
20
6.667526
11
44.698152
21
6.667500
0
LINE
8
boundary
62
5
39
2
10
44.698152
20
6.667500
11
60.667513
21
6.667514
0
LINE
8
boundary
62
5
39
2
10
60.667513
20
6.667514
11
35.755315
21
23.351288
0
LINE
8
boundary
62
5
39
2
10
35.755315
20
23.351288
11
18.547512
21
46.399567
0
LINE
8
boundary
62
5
39
2
10
18.547512
20
46.399567
11
18.547511
21
50.109981
0
LINE
8
boundary
62
5
39
2
10
18.547511
20
50.109981
11
39.246922
21
61.996627
0
LINE
8
boundary
62
5
39
2
10
39.246922
20
61.996627
11
50.137522
21
78.606957
0
LINE
8
boundary
62
5
39
2
10
50.137522
20
78.606957
11
41.548058
21
98.257979
0
LINE
8
boundary
62
5
39
2
10
41.548058
20
98.257979
11
44.613581
21
110.124797
0
LINE
8
boundary
62
5
39
2
10
44.613581
20
110.124797
11
50.807640
21
124.177481
0
LINE
8
boundary
62
5
39
2
10
50.807640
20
124.177481
11
51.339451
21
124.844825
0
LINE
8
boundary
62
5
39
2
10
51.339451
20
124.844825
11
51.144121
21
125.404394
0
LINE
8
boundary
62
5
39
2
10
51.144121
20
125.404394
11
36.404684
21
144.460265
0
LINE
8
boundary
62
5
39
2
10
36.404684
20
144.460265
11
35.651296
21
145.041788
0
LINE
8
boundary
62
5
39
2
10
35.651296
20
145.041788
11
28.213909
21
150.116450
0
LINE
8
boundary
62
5
39
2
10
28.213909
20
150.116450
11
33.437855
21
158.453884
0
LINE
8
boundary
62
5
39
2
10
33.437855
20
158.453884
11
38.898117
21
172.318877
0
LINE
8
boundary
62
5
39
2
10
38.898117
20
172.318877
11
40.453164
21
173.164629
0
LINE
8
boundary
62
5
39
2
10
40.453164
20
173.164629
11
41.230301
21
177.989549
0
LINE
8
boundary
62
5
39
2
10
41.230301
20
177.989549
11
44.094432
21
212.469422
0
LINE
8
boundary
62
5
39
2
10
44.094432
20
212.469422
11
54.451050
21
233.290929
0
LINE
8
boundary
62
5
39
2
10
54.451050
20
233.290929
11
60.667560
21
251.774148
0
LINE
8
boundary
62
5
39
2
10
60.667560
20
251.774148
11
48.424464
21
251.774155
0
LINE
8
boundary
62
5
39
2
10
48.424464
20
251.774155
11
6.667546
21
251.774221
0
LINE
8
boundary
62
5
39
2
10
6.667546
20
251.774221
11
33.415693
21
251.639782
0
LINE
8
boundary
62
5
39
2
10
33.415693
20
251.639782
11
33.415693
21
249.293783
0
LINE
8
boundary
62
5
39
2
10
33.415693
20
249.293783
11
6.667546
21
249.293783
0
LINE
8
boundary
62
5
39
2
10
6.667546
20
249.293783
11
6.667541
21
225.976699
0
LINE
8
boundary
62
5
39
2
10
6.667541
20
225.976699
11
28.534972
21
225.976699
0
LINE
8
boundary
62
5
39
2
10
28.534972
20
225.976699
11
28.534972
21
223.630699
0
LINE
8
boundary
62
5
39
2
10
28.534972
20
223.630699
11
6.667540
21
223.630699
0
LINE
8
boundary
62
5
39
2
10
6.667540
20
223.630699
11
6.667536
21
200.313616
0
LINE
8
boundary
62
5
39
2
10
6.667536
20
200.313616
11
24.749112
21
200.313616
0
LINE
8
boundary
62
5
39
2
10
24.749112
20
200.313616
11
24.749112
21
197.967615
0
LINE
8
boundary
62
5
39
2
10
24.749112
20
197.967615
11
6.667535
21
197.967616
0
LINE
8
boundary
62
5
39
2
10
6.667535
20
197.967616
11
6.667530
21
174.650532
0
LINE
8
boundary
62
5
39
2
10
6.667530
20
174.650532
11
23.458546
21
174.650532
0
LINE
8
boundary
62
5
39
2
10
23.458546
20
174.650532
11
23.458546
21
172.304532
0
LINE
8
boundary
62
5
39
2
10
23.458546
20
172.304532
11
6.667530
21
172.304532
0
LINE
8
boundary
62
5
39
2
10
6.667530
20
172.304532
11
6.667525
21
149.117448
0
LINE
8
boundary
62
5
39
2
10
6.667525
20
149.117448
11
19.177651
21
148.987448
0
LINE
8
boundary
62
5
39
2
10
19.177651
20
148.987448
11
19.177650
21
146.641449
0
LINE
8
boundary
62
5
39
2
10
19.177650
20
146.641449
11
6.667525
21
146.641448
0
LINE
8
boundary
62
5
39
2
10
6.667525
20
146.641448
11
6.667521
21
123.454362
0
LINE
8
boundary
62
5
39
2
10
6.667521
20
123.454362
11
28.422565
21
123.324365
0
LINE
8
boundary
62
5
39
2
10
28.422565
20
123.324365
11
28.422565
21
120.978365
0
LINE
8
boundary
62
5
39
2
10
28.422565
20
120.978365
11
6.667521
21
120.978365
0
LINE
8
annotation
62
1
39
211
10
29.749522
20
17.419031
11
29.749522
21
21.579031
0
LINE
8
annotation
62
1
39
211
10
29.749522
20
21.579031
11
28.824701
21
20.653949
0
LINE
8
annotation
62
1
39
211
10
18.113677
20
43.520252
11
16.655320
21
43.520252
0
LINE
8
annotation
62
1
39
211
10
16.655320
20
43.520252
11
18.002890
21
45.689666
0
LINE
8
annotation
62
1
39
211
10
18.002890
20
45.689666
11
18.002890
21
45.689666
0
LINE
8
annotation
62
1
39
211
10
18.002890
20
45.689666
11
18.004500
21
45.691660
0
LINE
8
annotation
62
1
39
211
10
18.004500
20
45.691660
11
18.006045
21
45.693670
0
LINE
8
annotation
62
1
39
211
10
18.006045
20
45.693670
11
18.007534
21
45.695714
0
LINE
8
annotation
62
1
39
211
10
18.007534
20
45.695714
11
18.008977
21
45.697809
0
LINE
8
annotation
62
1
39
211
10
18.008977
20
45.697809
11
18.010385
21
45.699972
0
LINE
8
annotation
62
1
39
211
10
18.010385
20
45.699972
11
18.011767
21
45.702220
0
LINE
8
annotation
62
1
39
211
10
18.011767
20
45.702220
11
18.013134
21
45.704569
0
LINE
8
annotation
62
1
39
211
10
18.013134
20
45.704569
11
18.014496
21
45.707037
0
LINE
8
annotation
62
1
39
211
10
18.014496
20
45.707037
11
18.015863
21
45.709641
0
LINE
8
annotation
62
1
39
211
10
18.015863
20
45.709641
11
18.015863
21
45.709641
0
LINE
8
annotation
62
1
39
211
10
18.015863
20
45.709641
11
18.071504
21
45.829106
0
LINE
8
annotation
62
1
39
211
10
18.071504
20
45.829106
11
18.104008
21
45.952943
0
LINE
8
annotation
62
1
39
211
10
18.104008
20
45.952943
11
18.114173
21
46.078352
0
LINE
8
annotation
62
1
39
211
10
18.114173
20
46.078352
11
18.102794
21
46.202536
0
LINE
8
annotation
62
1
39
211
10
18.102794
20
46.202536
11
18.070669
21
46.322697
0
LINE
8
annotation
62
1
39
211
10
18.070669
20
46.322697
11
18.018593
21
46.436036
0
LINE
8
annotation
62
1
39
211
10
18.018593
20
46.436036
11
17.947364
21
46.539754
0
LINE
8
annotation
62
1
39
211
10
17.947364
20
46.539754
11
17.857778
21
46.631055
0
LINE
8
annotation
62
1
39
211
10
17.857778
20
46.631055
11
17.750632
21
46.707139
0
LINE
8
annotation
62
1
39
211
10
17.750632
20
46.707139
11
17.750632
21
46.707139
0
LINE
8
annotation
62
1
39
211
10
17.750632
20
46.707139
11
17.630834
21
46.761989
0
LINE
8
annotation
62
1
39
211
10
17.630834
20
46.761989
11
17.506808
21
46.793993
0
LINE
8
annotation
62
1
39
211
10
17.506808
20
46.793993
11
17.381326
21
46.803870
0
LINE
8
annotation
62
1
39
211
10
17.381326
20
46.803870
11
17.257160
21
46.792341
0
LINE
8
annotation
62
1
39
211
10
17.257160
20
46.792341
11
17.137085
21
46.760127
0
LINE
8
annotation
62
1
39
211
10
17.137085
20
46.760127
11
17.023871
21
46.707947
0
LINE
8
annotation
62
1
39
211
10
17.023871
20
46.707947
11
16.920293
21
46.636523
0
LINE
8
annotation
62
1
39
211
10
16.920293
20
46.636523
11
16.829123
21
46.546573
0
LINE
8
annotation
62
1
39
211
10
16.829123
20
46.546573
11
16.753134
21
46.438819
0
LINE
8
annotation
62
1
39
211
10
16.753134
20
46.438819
11
16.657379
21
46.255135
0
LINE
8
annotation
62
1
39
211
10
30.511693
20
68.745328
11
31.435471
21
68.745328
0
LINE
8
annotation
62
1
39
211
10
31.435471
20
68.745328
11
31.435471
21
68.745328
0
LINE
8
annotation
62
1
39
211
10
31.435471
20
68.745328
11
31.601615
21
68.760233
0
LINE
8
annotation
62
1
39
211
10
31.601615
20
68.760233
11
31.757950
21
68.803187
0
LINE
8
annotation
62
1
39
211
10
31.757950
20
68.803187
11
31.901877
21
68.871556
0
LINE
8
annotation
62
1
39
211
10
31.901877
20
68.871556
11
32.030795
21
68.962702
0
LINE
8
annotation
62
1
39
211
10
32.030795
20
68.962702
11
32.142105
21
69.073988
0
LINE
8
annotation
62
1
39
211
10
32.142105
20
69.073988
11
32.233205
21
69.202778
0
LINE
8
annotation
62
1
39
211
10
32.233205
20
69.202778
11
32.301496
21
69.346434
0
LINE
8
annotation
62
1
39
211
10
32.301496
20
69.346434
11
32.344377
21
69.502321
0
LINE
8
annotation
62
1
39
211
10
32.344377
20
69.502321
11
32.359249
21
69.667802
0
LINE
8
annotation
62
1
39
211
10
32.359249
20
69.667802
11
32.359249
21
70.130343
0
LINE
8
annotation
62
1
39
211
10
32.359249
20
70.130343
11
32.359249
21
70.130343
0
LINE
8
annotation
62
1
39
211
10
32.359249
20
70.130343
11
32.344377
21
70.295755
0
LINE
8
annotation
62
1
39
211
10
32.344377
20
70.295755
11
32.301496
21
70.451605
0
LINE
8
annotation
62
1
39
211
10
32.301496
20
70.451605
11
32.233205
21
70.595251
0
LINE
8
annotation
62
1
39
211
10
32.233205
20
70.595251
11
32.142105
21
70.724050
0
LINE
8
annotation
62
1
39
211
10
32.142105
20
70.724050
11
32.030795
21
70.835357
0
LINE
8
annotation
62
1
39
211
10
32.030795
20
70.835357
11
31.901877
21
70.926531
0
LINE
8
annotation
62
1
39
211
10
31.901877
20
70.926531
11
31.757950
21
70.994927
0
LINE
8
annotation
62
1
39
211
10
31.757950
20
70.994927
11
31.601615
21
71.037903
0
LINE
8
annotation
62
1
39
211
10
31.601615
20
71.037903
11
31.435471
21
71.052816
0
LINE
8
annotation
62
1
39
211
10
31.435471
20
71.052816
11
30.972930
21
71.052816
0
LINE
8
annotation
62
1
39
211
10
30.972930
20
71.052816
11
31.435471
21
71.052816
0
LINE
8
annotation
62
1
39
211
10
31.435471
20
71.052816
11
31.435471
21
71.052816
0
LINE
8
annotation
62
1
39
211
10
31.435471
20
71.052816
11
31.601615
21
71.067733
0
LINE
8
annotation
62
1
39
211
10
31.601615
20
71.067733
11
31.757950
21
71.110734
0
LINE
8
annotation
62
1
39
211
10
31.757950
20
71.110734
11
31.901877
21
71.179198
0
LINE
8
annotation
62
1
39
211
10
31.901877
20
71.179198
11
32.030795
21
71.270504
0
LINE
8
annotation
62
1
39
211
10
32.030795
20
71.270504
11
32.142105
21
71.382030
0
LINE
8
annotation
62
1
39
211
10
32.142105
20
71.382030
11
32.233205
21
71.511154
0
LINE
8
annotation
62
1
39
211
10
32.233205
20
71.511154
11
32.301496
21
71.655255
0
LINE
8
annotation
62
1
39
211
10
32.301496
20
71.655255
11
32.344377
21
71.811710
0
LINE
8
annotation
62
1
39
211
10
32.344377
20
71.811710
11
32.359249
21
71.977898
0
LINE
8
annotation
62
1
39
211
10
32.359249
20
71.977898
11
32.359249
21
71.977898
0
LINE
8
annotation
62
1
39
211
10
32.359249
20
71.977898
11
32.344377
21
72.143310
0
LINE
8
annotation
62
1
39
211
10
32.344377
20
72.143310
11
32.301496
21
72.299161
0
LINE
8
annotation
62
1
39
211
10
32.301496
20
72.299161
11
32.233205
21
72.442807
0
LINE
8
annotation
62
1
39
211
10
32.233205
20
72.442807
11
32.142105
21
72.571605
0
LINE
8
annotation
62
1
39
211
10
32.142105
20
72.571605
11
32.030795
21
72.682913
0
LINE
8
annotation
62
1
39
211
10
32.030795
20
72.682913
11
31.901877
21
72.774086
0
LINE
8
annotation
62
1
39
211
10
31.901877
20
72.774086
11
31.757950
21
72.842483
0
LINE
8
annotation
62
1
39
211
10
31.757950
20
72.842483
11
31.601615
21
72.885459
0
LINE
8
annotation
62
1
39
211
10
31.601615
20
72.885459
11
31.435471
21
72.900372
0
LINE
8
annotation
62
1
39
211
10
31.435471
20
72.900372
11
30.511693
21
72.900372
0
LINE
8
annotation
62
1
39
211
10
31.105310
20
95.333103
11
28.795474
21
95.333103
0
LINE
8
annotation
62
1
39
211
10
28.795474
20
95.333103
11
29.717947
21
98.568282
0
LINE
8
annotation
62
1
39
211
10
30.412933
20
94.408282
11
30.412933
21
96.255837
0
LINE
8
annotation
62
1
39
211
10
32.825265
20
120.071365
11
33.749043
21
120.071365
0
LINE
8
annotation
62
1
39
211
10
33.749043
20
120.071365
11
33.749043
21
120.071365
0
LINE
8
annotation
62
1
39
211
10
33.749043
20
120.071365
11
33.914843
21
120.086272
0
LINE
8
annotation
62
1
39
211
10
33.914843
20
120.086272
11
34.070996
21
120.129250
0
LINE
8
annotation
62
1
39
211
10
34.070996
20
120.129250
11
34.214869
21
120.197680
0
LINE
8
annotation
62
1
39
211
10
34.214869
20
120.197680
11
34.343830
21
120.288944
0
LINE
8
annotation
62
1
39
211
10
34.343830
20
120.288944
11
34.455247
21
120.400427
0
LINE
8
annotation
62
1
39
211
10
34.455247
20
120.400427
11
34.546487
21
120.529510
0
LINE
8
annotation
62
1
39
211
10
34.546487
20
120.529510
11
34.614917
21
120.673576
0
LINE
8
annotation
62
1
39
211
10
34.614917
20
120.673576
11
34.657906
21
120.830007
0
LINE
8
annotation
62
1
39
211
10
34.657906
20
120.830007
11
34.672821
21
120.996186
0
LINE
8
annotation
62
1
39
211
10
34.672821
20
120.996186
11
34.672821
21
121.456379
0
LINE
8
annotation
62
1
39
211
10
34.672821
20
121.456379
11
34.672821
21
121.456379
0
LINE
8
annotation
62
1
39
211
10
34.672821
20
121.456379
11
34.657915
21
121.622478
0
LINE
8
annotation
62
1
39
211
10
34.657915
20
121.622478
11
34.614948
21
121.778694
0
LINE
8
annotation
62
1
39
211
10
34.614948
20
121.778694
11
34.546545
21
121.922447
0
LINE
8
annotation
62
1
39
211
10
34.546545
20
121.922447
11
34.455333
21
122.051160
0
LINE
8
annotation
62
1
39
211
10
34.455333
20
122.051160
11
34.343938
21
122.162253
0
LINE
8
annotation
62
1
39
211
10
34.343938
20
122.162253
11
34.214985
21
122.253147
0
LINE
8
annotation
62
1
39
211
10
34.214985
20
122.253147
11
34.071101
21
122.321264
0
LINE
8
annotation
62
1
39
211
10
34.071101
20
122.321264
11
33.914912
21
122.364026
0
LINE
8
annotation
62
1
39
211
10
33.914912
20
122.364026
11
33.749043
21
122.378853
0
LINE
8
annotation
62
1
39
211
10
33.749043
20
122.378853
11
32.825265
21
122.378853
0
LINE
8
annotation
62
1
39
211
10
32.825265
20
122.378853
11
32.825265
21
124.231365
0
LINE
8
annotation
62
1
39
211
10
32.825265
20
124.231365
11
34.672821
21
124.231365
0
LINE
8
annotation
62
1
39
211
10
24.967974
20
149.894449
11
24.967974
21
149.894449
0
LINE
8
annotation
62
1
39
211
10
24.967974
20
149.894449
11
24.703335
21
149.795225
0
LINE
8
annotation
62
1
39
211
10
24.703335
20
149.795225
11
24.460494
21
149.661533
0
LINE
8
annotation
62
1
39
211
10
24.460494
20
149.661533
11
24.241944
21
149.496722
0
LINE
8
annotation
62
1
39
211
10
24.241944
20
149.496722
11
24.050177
21
149.304142
0
LINE
8
annotation
62
1
39
211
10
24.050177
20
149.304142
11
23.887687
21
149.087142
0
LINE
8
annotation
62
1
39
211
10
23.887687
20
149.087142
11
23.756967
21
148.849072
0
LINE
8
annotation
62
1
39
211
10
23.756967
20
148.849072
11
23.660509
21
148.593281
0
LINE
8
annotation
62
1
39
211
10
23.660509
20
148.593281
11
23.600806
21
148.323119
0
LINE
8
annotation
62
1
39
211
10
23.600806
20
148.323119
11
23.580351
21
148.041936
0
LINE
8
annotation
62
1
39
211
10
23.580351
20
148.041936
11
23.580351
21
146.659270
0
LINE
8
annotation
62
1
39
211
10
23.580351
20
146.659270
11
23.580351
21
146.659270
0
LINE
8
annotation
62
1
39
211
10
23.580351
20
146.659270
11
23.595265
21
146.493090
0
LINE
8
annotation
62
1
39
211
10
23.595265
20
146.493090
11
23.638254
21
146.336659
0
LINE
8
annotation
62
1
39
211
10
23.638254
20
146.336659
11
23.706685
21
146.192593
0
LINE
8
annotation
62
1
39
211
10
23.706685
20
146.192593
11
23.797924
21
146.063510
0
LINE
8
annotation
62
1
39
211
10
23.797924
20
146.063510
11
23.909341
21
145.952028
0
LINE
8
annotation
62
1
39
211
10
23.909341
20
145.952028
11
24.038302
21
145.860763
0
LINE
8
annotation
62
1
39
211
10
24.038302
20
145.860763
11
24.182176
21
145.792333
0
LINE
8
annotation
62
1
39
211
10
24.182176
20
145.792333
11
24.338328
21
145.749356
0
LINE
8
annotation
62
1
39
211
10
24.338328
20
145.749356
11
24.504129
21
145.734449
0
LINE
8
annotation
62
1
39
211
10
24.504129
20
145.734449
11
24.504129
21
145.734449
0
LINE
8
annotation
62
1
39
211
10
24.504129
20
145.734449
11
24.670272
21
145.749356
0
LINE
8
annotation
62
1
39
211
10
24.670272
20
145.749356
11
24.826608
21
145.792333
0
LINE
8
annotation
62
1
39
211
10
24.826608
20
145.792333
11
24.970535
21
145.860763
0
LINE
8
annotation
62
1
39
211
10
24.970535
20
145.860763
11
25.099453
21
145.952028
0
LINE
8
annotation
62
1
39
211
10
25.099453
20
145.952028
11
25.210762
21
146.063510
0
LINE
8
annotation
62
1
39
211
10
25.210762
20
146.063510
11
25.301862
21
146.192593
0
LINE
8
annotation
62
1
39
211
10
25.301862
20
146.192593
11
25.370153
21
146.336659
0
LINE
8
annotation
62
1
39
211
10
25.370153
20
146.336659
11
25.413035
21
146.493090
0
LINE
8
annotation
62
1
39
211
10
25.413035
20
146.493090
11
25.427906
21
146.659270
0
LINE
8
annotation
62
1
39
211
10
25.427906
20
146.659270
11
25.427906
21
147.119463
0
LINE
8
annotation
62
1
39
211
10
25.427906
20
147.119463
11
25.427906
21
147.119463
0
LINE
8
annotation
62
1
39
211
10
25.427906
20
147.119463
11
25.413035
21
147.285562
0
LINE
8
annotation
62
1
39
211
10
25.413035
20
147.285562
11
25.370153
21
147.441777
0
LINE
8
annotation
62
1
39
211
10
25.370153
20
147.441777
11
25.301862
21
147.585531
0
LINE
8
annotation
62
1
39
211
10
25.301862
20
147.585531
11
25.210762
21
147.714243
0
LINE
8
annotation
62
1
39
211
10
25.210762
20
147.714243
11
25.099453
21
147.825336
0
LINE
8
annotation
62
1
39
211
10
25.099453
20
147.825336
11
24.970535
21
147.916231
0
LINE
8
annotation
62
1
39
211
10
24.970535
20
147.916231
11
24.826608
21
147.984348
0
LINE
8
annotation
62
1
39
211
10
24.826608
20
147.984348
11
24.670272
21
148.027109
0
LINE
8
annotation
62
1
39
211
10
24.670272
20
148.027109
11
24.504129
21
148.041936
0
LINE
8
annotation
62
1
39
211
10
24.504129
20
148.041936
11
23.580351
21
148.041936
0
LINE
8
annotation
62
1
39
211
10
23.464650
20
145.214449
11
25.544650
21
145.214449
0
LINE
8
annotation
62
1
39
211
10
28.785024
20
171.397532
11
29.709846
21
175.557532
0
LINE
8
annotation
62
1
39
211
10
29.709846
20
175.557532
11
27.859942
21
175.557532
0
LINE
8
annotation
62
1
39
211
10
29.709846
20
173.705020
11
28.785024
21
173.705020
0
LINE
8
annotation
62
1
39
211
10
29.151812
20
197.982958
11
29.151812
21
197.982958
0
LINE
8
annotation
62
1
39
211
10
29.151812
20
197.982958
11
29.166727
21
197.816860
0
LINE
8
annotation
62
1
39
211
10
29.166727
20
197.816860
11
29.209716
21
197.660644
0
LINE
8
annotation
62
1
39
211
10
29.209716
20
197.660644
11
29.278146
21
197.516891
0
LINE
8
annotation
62
1
39
211
10
29.278146
20
197.516891
11
29.369386
21
197.388178
0
LINE
8
annotation
62
1
39
211
10
29.369386
20
197.388178
11
29.480803
21
197.277085
0
LINE
8
annotation
62
1
39
211
10
29.480803
20
197.277085
11
29.609764
21
197.186191
0
LINE
8
annotation
62
1
39
211
10
29.609764
20
197.186191
11
29.753637
21
197.118073
0
LINE
8
annotation
62
1
39
211
10
29.753637
20
197.118073
11
29.909790
21
197.075312
0
LINE
8
annotation
62
1
39
211
10
29.909790
20
197.075312
11
30.075590
21
197.060485
0
LINE
8
annotation
62
1
39
211
10
30.075590
20
197.060485
11
30.075590
21
197.060485
0
LINE
8
annotation
62
1
39
211
10
30.075590
20
197.060485
11
30.241390
21
197.075312
0
LINE
8
annotation
62
1
39
211
10
30.241390
20
197.075312
11
30.397543
21
197.118073
0
LINE
8
annotation
62
1
39
211
10
30.397543
20
197.118073
11
30.541416
21
197.186191
0
LINE
8
annotation
62
1
39
211
10
30.541416
20
197.186191
11
30.670378
21
197.277085
0
LINE
8
annotation
62
1
39
211
10
30.670378
20
197.277085
11
30.781794
21
197.388178
0
LINE
8
annotation
62
1
39
211
10
30.781794
20
197.388178
11
30.873034
21
197.516891
0
LINE
8
annotation
62
1
39
211
10
30.873034
20
197.516891
11
30.941465
21
197.660644
0
LINE
8
annotation
62
1
39
211
10
30.941465
20
197.660644
11
30.984453
21
197.816860
0
LINE
8
annotation
62
1
39
211
10
30.984453
20
197.816860
11
30.999368
21
197.982958
0
LINE
8
annotation
62
1
39
211
10
30.999368
20
197.982958
11
30.999368
21
198.443152
0
LINE
8
annotation
62
1
39
211
10
30.999368
20
198.443152
11
30.999368
21
198.443152
0
LINE
8
annotation
62
1
39
211
10
30.999368
20
198.443152
11
30.984462
21
198.609331
0
LINE
8
annotation
62
1
39
211
10
30.984462
20
198.609331
11
30.941495
21
198.765762
0
LINE
8
annotation
62
1
39
211
10
30.941495
20
198.765762
11
30.873092
21
198.909828
0
LINE
8
annotation
62
1
39
211
10
30.873092
20
198.909828
11
30.781880
21
199.038911
0
LINE
8
annotation
62
1
39
211
10
30.781880
20
199.038911
11
30.670485
21
199.150394
0
LINE
8
annotation
62
1
39
211
10
30.670485
20
199.150394
11
30.541532
21
199.241658
0
LINE
8
annotation
62
1
39
211
10
30.541532
20
199.241658
11
30.397648
21
199.310088
0
LINE
8
annotation
62
1
39
211
10
30.397648
20
199.310088
11
30.241459
21
199.353065
0
LINE
8
annotation
62
1
39
211
10
30.241459
20
199.353065
11
30.075590
21
199.367973
0
LINE
8
annotation
62
1
39
211
10
30.075590
20
199.367973
11
30.075590
21
199.367973
0
LINE
8
annotation
62
1
39
211
10
30.075590
20
199.367973
11
29.909721
21
199.353057
0
LINE
8
annotation
62
1
39
211
10
29.909721
20
199.353057
11
29.753532
21
199.310058
0
LINE
8
annotation
62
1
39
211
10
29.753532
20
199.310058
11
29.609648
21
199.241600
0
LINE
8
annotation
62
1
39
211
10
29.609648
20
199.241600
11
29.480695
21
199.150308
0
LINE
8
annotation
62
1
39
211
10
29.480695
20
199.150308
11
29.369300
21
199.038804
0
LINE
8
annotation
62
1
39
211
10
29.369300
20
199.038804
11
29.278088
21
198.909712
0
LINE
8
annotation
62
1
39
211
10
29.278088
20
198.909712
11
29.209686
21
198.765657
0
LINE
8
annotation
62
1
39
211
10
29.209686
20
198.765657
11
29.166718
21
198.609262
0
LINE
8
annotation
62
1
39
211
10
29.166718
20
198.609262
11
29.151812
21
198.443152
0
LINE
8
annotation
62
1
39
211
10
29.151812
20
198.443152
11
29.151812
21
197.982958
0
LINE
8
annotation
62
1
39
211
10
30.999368
20
200.293055
11
30.999368
21
200.293055
0
LINE
8
annotation
62
1
39
211
10
30.999368
20
200.293055
11
30.984462
21
200.458467
0
LINE
8
annotation
62
1
39
211
10
30.984462
20
200.458467
11
30.941495
21
200.614317
0
LINE
8
annotation
62
1
39
211
10
30.941495
20
200.614317
11
30.873092
21
200.757963
0
LINE
8
annotation
62
1
39
211
10
30.873092
20
200.757963
11
30.781880
21
200.886762
0
LINE
8
annotation
62
1
39
211
10
30.781880
20
200.886762
11
30.670485
21
200.998069
0
LINE
8
annotation
62
1
39
211
10
30.670485
20
200.998069
11
30.541532
21
201.089243
0
LINE
8
annotation
62
1
39
211
10
30.541532
20
201.089243
11
30.397648
21
201.157639
0
LINE
8
annotation
62
1
39
211
10
30.397648
20
201.157639
11
30.241459
21
201.200616
0
LINE
8
annotation
62
1
39
211
10
30.241459
20
201.200616
11
30.075590
21
201.215528
0
LINE
8
annotation
62
1
39
211
10
30.075590
20
201.215528
11
30.075590
21
201.215528
0
LINE
8
annotation
62
1
39
211
10
30.075590
20
201.215528
11
29.909721
21
201.200616
0
LINE
8
annotation
62
1
39
211
10
29.909721
20
201.200616
11
29.753532
21
201.157639
0
LINE
8
annotation
62
1
39
211
10
29.753532
20
201.157639
11
29.609648
21
201.089243
0
LINE
8
annotation
62
1
39
211
10
29.609648
20
201.089243
11
29.480695
21
200.998069
0
LINE
8
annotation
62
1
39
211
10
29.480695
20
200.998069
11
29.369300
21
200.886762
0
LINE
8
annotation
62
1
39
211
10
29.369300
20
200.886762
11
29.278088
21
200.757963
0
LINE
8
annotation
62
1
39
211
10
29.278088
20
200.757963
11
29.209686
21
200.614317
0
LINE
8
annotation
62
1
39
211
10
29.209686
20
200.614317
11
29.166718
21
200.458467
0
LINE
8
annotation
62
1
39
211
10
29.166718
20
200.458467
11
29.151812
21
200.293055
0
LINE
8
annotation
62
1
39
211
10
29.151812
20
200.293055
11
29.151812
21
200.293055
0
LINE
8
annotation
62
1
39
211
10
29.151812
20
200.293055
11
29.166727
21
200.126867
0
LINE
8
annotation
62
1
39
211
10
29.166727
20
200.126867
11
29.209716
21
199.970411
0
LINE
8
annotation
62
1
39
211
10
29.209716
20
199.970411
11
29.278146
21
199.826311
0
LINE
8
annotation
62
1
39
211
10
29.278146
20
199.826311
11
29.369386
21
199.697187
0
LINE
8
annotation
62
1
39
211
10
29.369386
20
199.697187
11
29.480803
21
199.585661
0
LINE
8
annotation
62
1
39
211
10
29.480803
20
199.585661
11
29.609764
21
199.494355
0
LINE
8
annotation
62
1
39
211
10
29.609764
20
199.494355
11
29.753637
21
199.425891
0
LINE
8
annotation
62
1
39
211
10
29.753637
20
199.425891
11
29.909790
21
199.382889
0
LINE
8
annotation
62
1
39
211
10
29.909790
20
199.382889
11
30.075590
21
199.367973
0
LINE
8
annotation
62
1
39
211
10
30.075590
20
199.367973
11
30.075590
21
199.367973
0
LINE
8
annotation
62
1
39
211
10
30.075590
20
199.367973
11
30.241390
21
199.382889
0
LINE
8
annotation
62
1
39
211
10
30.241390
20
199.382889
11
30.397543
21
199.425891
0
LINE
8
annotation
62
1
39
211
10
30.397543
20
199.425891
11
30.541416
21
199.494355
0
LINE
8
annotation
62
1
39
211
10
30.541416
20
199.494355
11
30.670378
21
199.585661
0
LINE
8
annotation
62
1
39
211
10
30.670378
20
199.585661
11
30.781794
21
199.697187
0
LINE
8
annotation
62
1
39
211
10
30.781794
20
199.697187
11
30.873034
21
199.826311
0
LINE
8
annotation
62
1
39
211
10
30.873034
20
199.826311
11
30.941465
21
199.970411
0
LINE
8
annotation
62
1
39
211
10
30.941465
20
199.970411
11
30.984453
21
200.126867
0
LINE
8
annotation
62
1
39
211
10
30.984453
20
200.126867
11
30.999368
21
200.293055
0
LINE
8
annotation
62
1
39
211
10
33.398909
20
222.723699
11
33.398909
21
222.723699
0
LINE
8
annotation
62
1
39
211
10
33.398909
20
222.723699
11
33.663082
21
222.822143
0
LINE
8
annotation
62
1
39
211
10
33.663082
20
222.822143
11
33.905561
21
222.955208
0
LINE
8
annotation
62
1
39
211
10
33.905561
20
222.955208
11
34.123838
21
223.119503
0
LINE
8
annotation
62
1
39
211
10
34.123838
20
223.119503
11
34.315409
21
223.311638
0
LINE
8
annotation
62
1
39
211
10
34.315409
20
223.311638
11
34.477768
21
223.528224
0
LINE
8
annotation
62
1
39
211
10
34.477768
20
223.528224
11
34.608409
21
223.765868
0
LINE
8
annotation
62
1
39
211
10
34.608409
20
223.765868
11
34.704826
21
224.021182
0
LINE
8
annotation
62
1
39
211
10
34.704826
20
224.021182
11
34.764514
21
224.290774
0
LINE
8
annotation
62
1
39
211
10
34.764514
20
224.290774
11
34.784967
21
224.571255
0
LINE
8
annotation
62
1
39
211
10
34.784967
20
224.571255
11
34.784967
21
225.958617
0
LINE
8
annotation
62
1
39
211
10
34.784967
20
225.958617
11
34.784967
21
225.958617
0
LINE
8
annotation
62
1
39
211
10
34.784967
20
225.958617
11
34.770096
21
226.124805
0
LINE
8
annotation
62
1
39
211
10
34.770096
20
226.124805
11
34.727214
21
226.281261
0
LINE
8
annotation
62
1
39
211
10
34.727214
20
226.281261
11
34.658923
21
226.425361
0
LINE
8
annotation
62
1
39
211
10
34.658923
20
226.425361
11
34.567823
21
226.554485
0
LINE
8
annotation
62
1
39
211
10
34.567823
20
226.554485
11
34.456514
21
226.666011
0
LINE
8
annotation
62
1
39
211
10
34.456514
20
226.666011
11
34.327595
21
226.757317
0
LINE
8
annotation
62
1
39
211
10
34.327595
20
226.757317
11
34.183668
21
226.825781
0
LINE
8
annotation
62
1
39
211
10
34.183668
20
226.825781
11
34.027333
21
226.868783
0
LINE
8
annotation
62
1
39
211
10
34.027333
20
226.868783
11
33.861189
21
226.883699
0
LINE
8
annotation
62
1
39
211
10
33.861189
20
226.883699
11
33.861189
21
226.883699
0
LINE
8
annotation
62
1
39
211
10
33.861189
20
226.883699
11
33.695389
21
226.868783
0
LINE
8
annotation
62
1
39
211
10
33.695389
20
226.868783
11
33.539236
21
226.825781
0
LINE
8
annotation
62
1
39
211
10
33.539236
20
226.825781
11
33.395363
21
226.757317
0
LINE
8
annotation
62
1
39
211
10
33.395363
20
226.757317
11
33.266402
21
226.666011
0
LINE
8
annotation
62
1
39
211
10
33.266402
20
226.666011
11
33.154985
21
226.554485
0
LINE
8
annotation
62
1
39
211
10
33.154985
20
226.554485
11
33.063745
21
226.425361
0
LINE
8
annotation
62
1
39
211
10
33.063745
20
226.425361
11
32.995315
21
226.281261
0
LINE
8
annotation
62
1
39
211
10
32.995315
20
226.281261
11
32.952326
21
226.124805
0
LINE
8
annotation
62
1
39
211
10
32.952326
20
226.124805
11
32.937412
21
225.958617
0
LINE
8
annotation
62
1
39
211
10
32.937412
20
225.958617
11
32.937412
21
225.496076
0
LINE
8
annotation
62
1
39
211
10
32.937412
20
225.496076
11
32.937412
21
225.496076
0
LINE
8
annotation
62
1
39
211
10
32.937412
20
225.496076
11
32.952326
21
225.329896
0
LINE
8
annotation
62
1
39
211
10
32.952326
20
225.329896
11
32.995315
21
225.173465
0
LINE
8
annotation
62
1
39
211
10
32.995315
20
225.173465
11
33.063745
21
225.029399
0
LINE
8
annotation
62
1
39
211
10
33.063745
20
225.029399
11
33.154985
21
224.900316
0
LINE
8
annotation
62
1
39
211
10
33.154985
20
224.900316
11
33.266402
21
224.788834
0
LINE
8
annotation
62
1
39
211
10
33.266402
20
224.788834
11
33.395363
21
224.697569
0
LINE
8
annotation
62
1
39
211
10
33.395363
20
224.697569
11
33.539236
21
224.629139
0
LINE
8
annotation
62
1
39
211
10
33.539236
20
224.629139
11
33.695389
21
224.586162
0
LINE
8
annotation
62
1
39
211
10
33.695389
20
224.586162
11
33.861189
21
224.571255
0
LINE
8
annotation
62
1
39
211
10
33.861189
20
224.571255
11
34.784967
21
224.571255
0
LINE
8
annotation
62
1
39
211
10
32.821972
20
222.203699
11
34.901972
21
222.203699
0
LINE
8
annotation
62
1
39
211
10
35.948287
20
248.226175
11
35.948287
21
250.627390
0
LINE
8
annotation
62
1
39
211
10
35.948287
20
250.627390
11
35.414467
21
250.093418
0
LINE
8
annotation
62
1
39
211
10
37.234366
20
248.257848
11
37.234366
21
248.257848
0
LINE
8
annotation
62
1
39
211
10
37.234366
20
248.257848
11
37.290174
21
248.236986
0
LINE
8
annotation
62
1
39
211
10
37.290174
20
248.236986
11
37.347409
21
248.226621
0
LINE
8
annotation
62
1
39
211
10
37.347409
20
248.226621
11
37.404777
21
248.226332
0
LINE
8
annotation
62
1
39
211
10
37.404777
20
248.226332
11
37.460986
21
248.235694
0
LINE
8
annotation
62
1
39
211
10
37.460986
20
248.235694
11
37.514741
21
248.254286
0
LINE
8
annotation
62
1
39
211
10
37.514741
20
248.254286
11
37.564748
21
248.281685
0
LINE
8
annotation
62
1
39
211
10
37.564748
20
248.281685
11
37.609713
21
248.317469
0
LINE
8
annotation
62
1
39
211
10
37.609713
20
248.317469
11
37.648343
21
248.361214
0
LINE
8
annotation
62
1
39
211
10
37.648343
20
248.361214
11
37.679342
21
248.412498
0
LINE
8
annotation
62
1
39
211
10
37.679342
20
248.412498
11
37.679342
21
248.412498
0
LINE
8
annotation
62
1
39
211
10
37.679342
20
248.412498
11
37.771835
21
248.628999
0
LINE
8
annotation
62
1
39
211
10
37.771835
20
248.628999
11
37.841204
21
248.851765
0
LINE
8
annotation
62
1
39
211
10
37.841204
20
248.851765
11
37.887450
21
249.079023
0
LINE
8
annotation
62
1
39
211
10
37.887450
20
249.079023
11
37.910573
21
249.308994
0
LINE
8
annotation
62
1
39
211
10
37.910573
20
249.308994
11
37.910573
21
249.539903
0
LINE
8
annotation
62
1
39
211
10
37.910573
20
249.539903
11
37.887450
21
249.769975
0
LINE
8
annotation
62
1
39
211
10
37.887450
20
249.769975
11
37.841204
21
249.997433
0
LINE
8
annotation
62
1
39
211
10
37.841204
20
249.997433
11
37.771835
21
250.220501
0
LINE
8
annotation
62
1
39
211
10
37.771835
20
250.220501
11
37.679342
21
250.437403
0
LINE
8
annotation
62
1
39
211
10
37.679342
20
250.437403
11
37.679342
21
250.437403
0
LINE
8
annotation
62
1
39
211
10
37.679342
20
250.437403
11
37.667580
21
250.459293
0
LINE
8
annotation
62
1
39
211
10
37.667580
20
250.459293
11
37.654245
21
250.480221
0
LINE
8
annotation
62
1
39
211
10
37.654245
20
250.480221
11
37.639438
21
250.500085
0
LINE
8
annotation
62
1
39
211
10
37.639438
20
250.500085
11
37.623258
21
250.518781
0
LINE
8
annotation
62
1
39
211
10
37.623258
20
250.518781
11
37.605807
21
250.536207
0
LINE
8
annotation
62
1
39
211
10
37.605807
20
250.536207
11
37.587185
21
250.552259
0
LINE
8
annotation
62
1
39
211
10
37.587185
20
250.552259
11
37.567492
21
250.566836
0
LINE
8
annotation
62
1
39
211
10
37.567492
20
250.566836
11
37.546828
21
250.579833
0
LINE
8
annotation
62
1
39
211
10
37.546828
20
250.579833
11
37.525295
21
250.591149
0
LINE
8
annotation
62
1
39
211
10
37.525295
20
250.591149
11
37.525295
21
250.591149
0
LINE
8
annotation
62
1
39
211
10
37.525295
20
250.591149
11
37.469045
21
250.612463
0
LINE
8
annotation
62
1
39
211
10
37.469045
20
250.612463
11
37.411474
21
250.623182
0
LINE
8
annotation
62
1
39
211
10
37.411474
20
250.623182
11
37.353863
21
250.623731
0
LINE
8
annotation
62
1
39
211
10
37.353863
20
250.623731
11
37.297490
21
250.614534
0
LINE
8
annotation
62
1
39
211
10
37.297490
20
250.614534
11
37.243634
21
250.596018
0
LINE
8
annotation
62
1
39
211
10
37.243634
20
250.596018
11
37.193575
21
250.568606
0
LINE
8
annotation
62
1
39
211
10
37.193575
20
250.568606
11
37.148590
21
250.532725
0
LINE
8
annotation
62
1
39
211
10
37.148590
20
250.532725
11
37.109960
21
250.488798
0
LINE
8
annotation
62
1
39
211
10
37.109960
20
250.488798
11
37.078964
21
250.437252
0
LINE
8
annotation
62
1
39
211
10
37.078964
20
250.437252
11
37.078964
21
250.437252
0
LINE
8
annotation
62
1
39
211
10
37.078964
20
250.437252
11
36.986918
21
250.220796
0
LINE
8
annotation
62
1
39
211
10
36.986918
20
250.220796
11
36.917883
21
249.998063
0
LINE
8
annotation
62
1
39
211
10
36.917883
20
249.998063
11
36.871860
21
249.770828
0
LINE
8
annotation
62
1
39
211
10
36.871860
20
249.770828
11
36.848849
21
249.540868
0
LINE
8
annotation
62
1
39
211
10
36.848849
20
249.540868
11
36.848849
21
249.309959
0
LINE
8
annotation
62
1
39
211
10
36.848849
20
249.309959
11
36.871860
21
249.079876
0
LINE
8
annotation
62
1
39
211
10
36.871860
20
249.079876
11
36.917883
21
248.852396
0
LINE
8
annotation
62
1
39
211
10
36.917883
20
248.852396
11
36.986918
21
248.629294
0
LINE
8
annotation
62
1
39
211
10
36.986918
20
248.629294
11
37.078964
21
248.412348
0
LINE
8
annotation
62
1
39
211
10
37.078964
20
248.412348
11
37.078964
21
248.412348
0
LINE
8
annotation
62
1
39
211
10
37.078964
20
248.412348
11
37.090683
21
248.390501
0
LINE
8
annotation
62
1
39
211
10
37.090683
20
248.390501
11
37.103920
21
248.369677
0
LINE
8
annotation
62
1
39
211
10
37.103920
20
248.369677
11
37.118617
21
248.349939
0
LINE
8
annotation
62
1
39
211
10
37.118617
20
248.349939
11
37.134721
21
248.331349
0
LINE
8
annotation
62
1
39
211
10
37.134721
20
248.331349
11
37.152173
21
248.313972
0
LINE
8
annotation
62
1
39
211
10
37.152173
20
248.313972
11
37.170920
21
248.297870
0
LINE
8
annotation
62
1
39
211
10
37.170920
20
248.297870
11
37.190905
21
248.283107
0
LINE
8
annotation
62
1
39
211
10
37.190905
20
248.283107
11
37.212073
21
248.269745
0
LINE
8
annotation
62
1
39
211
10
37.212073
20
248.269745
11
37.234366
21
248.257848
0
LINE
8
annotation
62
1
39
211
10
25.097787
20
244.708589
11
22.154736
21
240.451736
0
LINE
8
annotation
62
1
39
211
10
22.154736
20
240.451736
11
19.211132
21
244.708589
0
LINE
8
annotation
62
1
39
211
10
22.154736
20
240.794299
11
22.154736
21
235.883311
0
LINE
8
annotation
62
1
39
211
10
33.233373
20
240.295950
11
28.408165
21
240.295950
0
LINE
8
annotation
62
1
39
211
10
36.541815
20
235.883588
11
38.501451
21
235.883588
0
LINE
8
annotation
62
1
39
211
10
38.501451
20
235.883588
11
38.501451
21
235.883588
0
LINE
8
annotation
62
1
39
211
10
38.501451
20
235.883588
11
38.853167
21
235.915211
0
LINE
8
annotation
62
1
39
211
10
38.853167
20
235.915211
11
39.184418
21
236.006380
0
LINE
8
annotation
62
1
39
211
10
39.184418
20
236.006380
11
39.489621
21
236.151542
0
LINE
8
annotation
62
1
39
211
10
39.489621
20
236.151542
11
39.763190
21
236.345145
0
LINE
8
annotation
62
1
39
211
10
39.763190
20
236.345145
11
39.999541
21
236.581636
0
LINE
8
annotation
62
1
39
211
10
39.999541
20
236.581636
11
40.193091
21
236.855463
0
LINE
8
annotation
62
1
39
211
10
40.193091
20
236.855463
11
40.338254
21
237.161074
0
LINE
8
annotation
62
1
39
211
10
40.338254
20
237.161074
11
40.429447
21
237.492916
0
LINE
8
annotation
62
1
39
211
10
40.429447
20
237.492916
11
40.461086
21
237.845437
0
LINE
8
annotation
62
1
39
211
10
40.461086
20
237.845437
11
40.461086
21
238.821658
0
LINE
8
annotation
62
1
39
211
10
40.461086
20
238.821658
11
40.461086
21
238.821658
0
LINE
8
annotation
62
1
39
211
10
40.461086
20
238.821658
11
40.429466
21
239.174008
0
LINE
8
annotation
62
1
39
211
10
40.429466
20
239.174008
11
40.338318
21
239.505392
0
LINE
8
annotation
62
1
39
211
10
40.338318
20
239.505392
11
40.193214
21
239.810340
0
LINE
8
annotation
62
1
39
211
10
40.193214
20
239.810340
11
39.999723
21
240.083382
0
LINE
8
annotation
62
1
39
211
10
39.999723
20
240.083382
11
39.763418
21
240.319046
0
LINE
8
annotation
62
1
39
211
10
39.763418
20
240.319046
11
39.489867
21
240.511863
0
LINE
8
annotation
62
1
39
211
10
39.489867
20
240.511863
11
39.184642
21
240.656362
0
LINE
8
annotation
62
1
39
211
10
39.184642
20
240.656362
11
38.853313
21
240.747074
0
LINE
8
annotation
62
1
39
211
10
38.853313
20
240.747074
11
38.501451
21
240.778526
0
LINE
8
annotation
62
1
39
211
10
38.501451
20
240.778526
11
36.541815
21
240.778526
0
LINE
8
annotation
62
1
39
211
10
36.541815
20
240.778526
11
36.541815
21
244.708312
0
LINE
8
annotation
62
1
39
211
10
36.541815
20
244.708312
11
40.461086
21
244.708312
0
LINE
8
boundary
62
5
39
2
10
63.842560
20
6.667511
11
79.811948
21
6.667500
0
LINE
8
boundary
62
5
39
2
10
79.811948
20
6.667500
11
117.842587
21
6.667534
0
LINE
8
boundary
62
5
39
2
10
117.842587
20
6.667534
11
92.930346
21
23.351337
0
LINE
8
boundary
62
5
39
2
10
92.930346
20
23.351337
11
75.722571
21
46.399496
0
LINE
8
boundary
62
5
39
2
10
75.722571
20
46.399496
11
75.722571
21
50.110014
0
LINE
8
boundary
62
5
39
2
10
75.722571
20
50.110014
11
96.421883
21
61.996731
0
LINE
8
boundary
62
5
39
2
10
96.421883
20
61.996731
11
107.312585
21
78.607115
0
LINE
8
boundary
62
5
39
2
10
107.312585
20
78.607115
11
98.723128
21
98.257974
0
LINE
8
boundary
62
5
39
2
10
98.723128
20
98.257974
11
101.788663
21
110.124686
0
LINE
8
boundary
62
5
39
2
10
101.788663
20
110.124686
11
107.982762
21
124.177436
0
LINE
8
boundary
62
5
39
2
10
107.982762
20
124.177436
11
108.514564
21
124.844791
0
LINE
8
boundary
62
5
39
2
10
108.514564
20
124.844791
11
108.319213
21
125.404358
0
LINE
8
boundary
62
5
39
2
10
108.319213
20
125.404358
11
93.579751
21
144.460252
0
LINE
8
boundary
62
5
39
2
10
93.579751
20
144.460252
11
92.826960
21
145.041376
0
LINE
8
boundary
62
5
39
2
10
92.826960
20
145.041376
11
85.388966
21
150.116446
0
LINE
8
boundary
62
5
39
2
10
85.388966
20
150.116446
11
90.612929
21
158.453917
0
LINE
8
boundary
62
5
39
2
10
90.612929
20
158.453917
11
96.073178
21
172.318887
0
LINE
8
boundary
62
5
39
2
10
96.073178
20
172.318887
11
97.628222
21
173.164627
0
LINE
8
boundary
62
5
39
2
10
97.628222
20
173.164627
11
98.405348
21
177.989504
0
LINE
8
boundary
62
5
39
2
10
98.405348
20
177.989504
11
101.269479
21
212.469397
0
LINE
8
boundary
62
5
39
2
10
101.269479
20
212.469397
11
111.626115
21
233.290970
0
LINE
8
boundary
62
5
39
2
10
111.626115
20
233.290970
11
117.842619
21
251.774191
0
LINE
8
boundary
62
5
39
2
10
117.842619
20
251.774191
11
105.599569
21
251.774198
0
LINE
8
boundary
62
5
39
2
10
105.599569
20
251.774198
11
63.842605
21
251.774206
0
LINE
8
boundary
62
5
39
2
10
63.842605
20
251.774206
11
90.590742
21
251.639768
0
LINE
8
boundary
62
5
39
2
10
90.590742
20
251.639768
11
90.590743
21
249.293768
0
LINE
8
boundary
62
5
39
2
10
90.590743
20
249.293768
11
63.842605
21
249.293768
0
LINE
8
boundary
62
5
39
2
10
63.842605
20
249.293768
11
63.842600
21
225.976684
0
LINE
8
boundary
62
5
39
2
10
63.842600
20
225.976684
11
85.710023
21
225.976684
0
LINE
8
boundary
62
5
39
2
10
85.710023
20
225.976684
11
85.710023
21
223.630684
0
LINE
8
boundary
62
5
39
2
10
85.710023
20
223.630684
11
63.842600
21
223.630684
0
LINE
8
boundary
62
5
39
2
10
63.842600
20
223.630684
11
63.842595
21
200.313601
0
LINE
8
boundary
62
5
39
2
10
63.842595
20
200.313601
11
81.924166
21
200.313601
0
LINE
8
boundary
62
5
39
2
10
81.924166
20
200.313601
11
81.924166
21
197.967601
0
LINE
8
boundary
62
5
39
2
10
81.924166
20
197.967601
11
63.842594
21
197.967601
0
LINE
8
boundary
62
5
39
2
10
63.842594
20
197.967601
11
63.842590
21
174.650518
0
LINE
8
boundary
62
5
39
2
10
63.842590
20
174.650518
11
80.633604
21
174.650517
0
LINE
8
boundary
62
5
39
2
10
80.633604
20
174.650517
11
80.633604
21
172.304517
0
LINE
8
boundary
62
5
39
2
10
80.633604
20
172.304517
11
63.842589
21
172.304518
0
LINE
8
boundary
62
5
39
2
10
63.842589
20
172.304518
11
63.842585
21
149.117433
0
LINE
8
boundary
62
5
39
2
10
63.842585
20
149.117433
11
76.352719
21
148.987434
0
LINE
8
boundary
62
5
39
2
10
76.352719
20
148.987434
11
76.352719
21
146.641434
0
LINE
8
boundary
62
5
39
2
10
76.352719
20
146.641434
11
63.842584
21
146.641434
0
LINE
8
boundary
62
5
39
2
10
63.842584
20
146.641434
11
63.842581
21
123.454349
0
LINE
8
boundary
62
5
39
2
10
63.842581
20
123.454349
11
85.597662
21
123.324350
0
LINE
8
boundary
62
5
39
2
10
85.597662
20
123.324350
11
85.597662
21
120.978350
0
LINE
8
boundary
62
5
39
2
10
85.597662
20
120.978350
11
63.842581
21
120.978351
0
LINE
8
boundary
62
5
39
2
10
63.842581
20
120.978351
11
63.842576
21
97.791266
0
LINE
8
boundary
62
5
39
2
10
63.842576
20
97.791266
11
81.798985
21
97.661267
0
LINE
8
boundary
62
5
39
2
10
81.798985
20
97.661267
11
81.798985
21
95.315267
0
LINE
8
boundary
62
5
39
2
10
81.798985
20
95.315267
11
63.842575
21
95.315267
0
LINE
8
boundary
62
5
39
2
10
63.842575
20
95.315267
11
63.842572
21
78.607068
0
LINE
8
boundary
62
5
39
2
10
63.842572
20
78.607068
11
63.842571
21
71.998184
0
LINE
8
boundary
62
5
39
2
10
63.842571
20
71.998184
11
83.283984
21
71.998183
0
LINE
8
boundary
62
5
39
2
10
83.283984
20
71.998183
11
83.283984
21
69.652183
0
LINE
8
boundary
62
5
39
2
10
83.283984
20
69.652183
11
63.842570
21
69.652183
0
LINE
8
boundary
62
5
39
2
10
63.842570
20
69.652183
11
63.842566
21
46.335100
0
LINE
8
boundary
62
5
39
2
10
63.842566
20
46.335100
11
70.328362
21
46.335100
0
LINE
8
boundary
62
5
39
2
10
70.328362
20
46.335100
11
70.328362
21
43.989100
0
LINE
8
boundary
62
5
39
2
10
70.328362
20
43.989100
11
63.842566
21
43.989100
0
LINE
8
boundary
62
5
39
2
10
63.842566
20
43.989100
11
63.842562
21
20.672016
0
LINE
8
boundary
62
5
39
2
10
63.842562
20
20.672016
11
81.135595
21
20.672017
0
LINE
8
boundary
62
5
39
2
10
81.135595
20
20.672017
11
81.135596
21
18.326016
0
LINE
8
boundary
62
5
39
2
10
81.135596
20
18.326016
11
63.842562
21
18.326016
0
LINE
8
boundary
62
5
39
2
10
63.842562
20
18.326016
11
63.842560
21
6.667511
0
LINE
8
annotation
62
1
39
211
10
86.924615
20
17.419016
11
86.924615
21
21.579016
0
LINE
8
annotation
62
1
39
211
10
86.924615
20
21.579016
11
85.999794
21
20.653934
0
LINE
8
annotation
62
1
39
211
10
75.288735
20
43.520232
11
73.830373
21
43.520232
0
LINE
8
annotation
62
1
39
211
10
73.830373
20
43.520232
11
75.177947
21
45.689653
0
LINE
8
annotation
62
1
39
211
10
75.177947
20
45.689653
11
75.177947
21
45.689653
0
LINE
8
annotation
62
1
39
211
10
75.177947
20
45.689653
11
75.179558
21
45.691647
0
LINE
8
annotation
62
1
39
211
10
75.179558
20
45.691647
11
75.181103
21
45.693657
0
LINE
8
annotation
62
1
39
211
10
75.181103
20
45.693657
11
75.182592
21
45.695702
0
LINE
8
annotation
62
1
39
211
10
75.182592
20
45.695702
11
75.184035
21
45.697797
0
LINE
8
annotation
62
1
39
211
10
75.184035
20
45.697797
11
75.185442
21
45.699960
0
LINE
8
annotation
62
1
39
211
10
75.185442
20
45.699960
11
75.186825
21
45.702207
0
LINE
8
annotation
62
1
39
211
10
75.186825
20
45.702207
11
75.188192
21
45.704557
0
LINE
8
annotation
62
1
39
211
10
75.188192
20
45.704557
11
75.189553
21
45.707025
0
LINE
8
annotation
62
1
39
211
10
75.189553
20
45.707025
11
75.190920
21
45.709628
0
LINE
8
annotation
62
1
39
211
10
75.190920
20
45.709628
11
75.190920
21
45.709628
0
LINE
8
annotation
62
1
39
211
10
75.190920
20
45.709628
11
75.246561
21
45.829094
0
LINE
8
annotation
62
1
39
211
10
75.246561
20
45.829094
11
75.279066
21
45.952931
0
LINE
8
annotation
62
1
39
211
10
75.279066
20
45.952931
11
75.289230
21
46.078341
0
LINE
8
annotation
62
1
39
211
10
75.289230
20
46.078341
11
75.277852
21
46.202526
0
LINE
8
annotation
62
1
39
211
10
75.277852
20
46.202526
11
75.245726
21
46.322686
0
LINE
8
annotation
62
1
39
211
10
75.245726
20
46.322686
11
75.193651
21
46.436026
0
LINE
8
annotation
62
1
39
211
10
75.193651
20
46.436026
11
75.122421
21
46.539745
0
LINE
8
annotation
62
1
39
211
10
75.122421
20
46.539745
11
75.032835
21
46.631045
0
LINE
8
annotation
62
1
39
211
10
75.032835
20
46.631045
11
74.925689
21
46.707130
0
LINE
8
annotation
62
1
39
211
10
74.925689
20
46.707130
11
74.925689
21
46.707130
0
LINE
8
annotation
62
1
39
211
10
74.925689
20
46.707130
11
74.805890
21
46.761980
0
LINE
8
annotation
62
1
39
211
10
74.805890
20
46.761980
11
74.681864
21
46.793984
0
LINE
8
annotation
62
1
39
211
10
74.681864
20
46.793984
11
74.556381
21
46.803861
0
LINE
8
annotation
62
1
39
211
10
74.556381
20
46.803861
11
74.432215
21
46.792333
0
LINE
8
annotation
62
1
39
211
10
74.432215
20
46.792333
11
74.312139
21
46.760118
0
LINE
8
annotation
62
1
39
211
10
74.312139
20
46.760118
11
74.198925
21
46.707938
0
LINE
8
annotation
62
1
39
211
10
74.198925
20
46.707938
11
74.095347
21
46.636513
0
LINE
8
annotation
62
1
39
211
10
74.095347
20
46.636513
11
74.004176
21
46.546564
0
LINE
8
annotation
62
1
39
211
10
74.004176
20
46.546564
11
73.928187
21
46.438809
0
LINE
8
annotation
62
1
39
211
10
73.928187
20
46.438809
11
73.832432
21
46.255124
0
LINE
8
annotation
62
1
39
211
10
87.686685
20
68.745314
11
88.610462
21
68.745314
0
LINE
8
annotation
62
1
39
211
10
88.610462
20
68.745314
11
88.610462
21
68.745314
0
LINE
8
annotation
62
1
39
211
10
88.610462
20
68.745314
11
88.776606
21
68.760218
0
LINE
8
annotation
62
1
39
211
10
88.776606
20
68.760218
11
88.932941
21
68.803173
0
LINE
8
annotation
62
1
39
211
10
88.932941
20
68.803173
11
89.076868
21
68.871541
0
LINE
8
annotation
62
1
39
211
10
89.076868
20
68.871541
11
89.205787
21
68.962687
0
LINE
8
annotation
62
1
39
211
10
89.205787
20
68.962687
11
89.317096
21
69.073973
0
LINE
8
annotation
62
1
39
211
10
89.317096
20
69.073973
11
89.408196
21
69.202763
0
LINE
8
annotation
62
1
39
211
10
89.408196
20
69.202763
11
89.476487
21
69.346420
0
LINE
8
annotation
62
1
39
211
10
89.476487
20
69.346420
11
89.519369
21
69.502307
0
LINE
8
annotation
62
1
39
211
10
89.519369
20
69.502307
11
89.534240
21
69.667787
0
LINE
8
annotation
62
1
39
211
10
89.534240
20
69.667787
11
89.534240
21
70.130328
0
LINE
8
annotation
62
1
39
211
10
89.534240
20
70.130328
11
89.534240
21
70.130328
0
LINE
8
annotation
62
1
39
211
10
89.534240
20
70.130328
11
89.519369
21
70.295740
0
LINE
8
annotation
62
1
39
211
10
89.519369
20
70.295740
11
89.476487
21
70.451591
0
LINE
8
annotation
62
1
39
211
10
89.476487
20
70.451591
11
89.408196
21
70.595237
0
LINE
8
annotation
62
1
39
211
10
89.408196
20
70.595237
11
89.317096
21
70.724035
0
LINE
8
annotation
62
1
39
211
10
89.317096
20
70.724035
11
89.205787
21
70.835342
0
LINE
8
annotation
62
1
39
211
10
89.205787
20
70.835342
11
89.076868
21
70.926516
0
LINE
8
annotation
62
1
39
211
10
89.076868
20
70.926516
11
88.932941
21
70.994913
0
LINE
8
annotation
62
1
39
211
10
88.932941
20
70.994913
11
88.776606
21
71.037889
0
LINE
8
annotation
62
1
39
211
10
88.776606
20
71.037889
11
88.610462
21
71.052802
0
LINE
8
annotation
62
1
39
211
10
88.610462
20
71.052802
11
88.147921
21
71.052802
0
LINE
8
annotation
62
1
39
211
10
88.147921
20
71.052802
11
88.610462
21
71.052802
0
LINE
8
annotation
62
1
39
211
10
88.610462
20
71.052802
11
88.610462
21
71.052802
0
LINE
8
annotation
62
1
39
211
10
88.610462
20
71.052802
11
88.776606
21
71.067718
0
LINE
8
annotation
62
1
39
211
10
88.776606
20
71.067718
11
88.932941
21
71.110719
0
LINE
8
annotation
62
1
39
211
10
88.932941
20
71.110719
11
89.076868
21
71.179184
0
LINE
8
annotation
62
1
39
211
10
89.076868
20
71.179184
11
89.205787
21
71.270490
0
LINE
8
annotation
62
1
39
211
10
89.205787
20
71.270490
11
89.317096
21
71.382016
0
LINE
8
annotation
62
1
39
211
10
89.317096
20
71.382016
11
89.408196
21
71.511140
0
LINE
8
annotation
62
1
39
211
10
89.408196
20
71.511140
11
89.476487
21
71.655240
0
LINE
8
annotation
62
1
39
211
10
89.476487
20
71.655240
11
89.519369
21
71.811695
0
LINE
8
annotation
62
1
39
211
10
89.519369
20
71.811695
11
89.534240
21
71.977884
0
LINE
8
annotation
62
1
39
211
10
89.534240
20
71.977884
11
89.534240
21
71.977884
0
LINE
8
annotation
62
1
39
211
10
89.534240
20
71.977884
11
89.519369
21
72.143296
0
LINE
8
annotation
62
1
39
211
10
89.519369
20
72.143296
11
89.476487
21
72.299146
0
LINE
8
annotation
62
1
39
211
10
89.476487
20
72.299146
11
89.408196
21
72.442792
0
LINE
8
annotation
62
1
39
211
10
89.408196
20
72.442792
11
89.317096
21
72.571590
0
LINE
8
annotation
62
1
39
211
10
89.317096
20
72.571590
11
89.205787
21
72.682898
0
LINE
8
annotation
62
1
39
211
10
89.205787
20
72.682898
11
89.076868
21
72.774072
0
LINE
8
annotation
62
1
39
211
10
89.076868
20
72.774072
11
88.932941
21
72.842468
0
LINE
8
annotation
62
1
39
211
10
88.932941
20
72.842468
11
88.776606
21
72.885444
0
LINE
8
annotation
62
1
39
211
10
88.776606
20
72.885444
11
88.610462
21
72.900357
0
LINE
8
annotation
62
1
39
211
10
88.610462
20
72.900357
11
87.686685
21
72.900357
0
LINE
8
annotation
62
1
39
211
10
88.280381
20
95.333088
11
85.970545
21
95.333088
0
LINE
8
annotation
62
1
39
211
10
85.970545
20
95.333088
11
86.893019
21
98.568267
0
LINE
8
annotation
62
1
39
211
10
87.588004
20
94.408267
11
87.588004
21
96.255822
0
LINE
8
annotation
62
1
39
211
10
90.000363
20
120.071350
11
90.924140
21
120.071350
0
LINE
8
annotation
62
1
39
211
10
90.924140
20
120.071350
11
90.924140
21
120.071350
0
LINE
8
annotation
62
1
39
211
10
90.924140
20
120.071350
11
91.089940
21
120.086258
0
LINE
8
annotation
62
1
39
211
10
91.089940
20
120.086258
11
91.246093
21
120.129235
0
LINE
8
annotation
62
1
39
211
10
91.246093
20
120.129235
11
91.389966
21
120.197665
0
LINE
8
annotation
62
1
39
211
10
91.389966
20
120.197665
11
91.518928
21
120.288930
0
LINE
8
annotation
62
1
39
211
10
91.518928
20
120.288930
11
91.630344
21
120.400412
0
LINE
8
annotation
62
1
39
211
10
91.630344
20
120.400412
11
91.721584
21
120.529495
0
LINE
8
annotation
62
1
39
211
10
91.721584
20
120.529495
11
91.790015
21
120.673561
0
LINE
8
annotation
62
1
39
211
10
91.790015
20
120.673561
11
91.833003
21
120.829992
0
LINE
8
annotation
62
1
39
211
10
91.833003
20
120.829992
11
91.847918
21
120.996172
0
LINE
8
annotation
62
1
39
211
10
91.847918
20
120.996172
11
91.847918
21
121.456365
0
LINE
8
annotation
62
1
39
211
10
91.847918
20
121.456365
11
91.847918
21
121.456365
0
LINE
8
annotation
62
1
39
211
10
91.847918
20
121.456365
11
91.833012
21
121.622464
0
LINE
8
annotation
62
1
39
211
10
91.833012
20
121.622464
11
91.790045
21
121.778679
0
LINE
8
annotation
62
1
39
211
10
91.790045
20
121.778679
11
91.721642
21
121.922433
0
LINE
8
annotation
62
1
39
211
10
91.721642
20
121.922433
11
91.630430
21
122.051145
0
LINE
8
annotation
62
1
39
211
10
91.630430
20
122.051145
11
91.519035
21
122.162238
0
LINE
8
annotation
62
1
39
211
10
91.519035
20
122.162238
11
91.390082
21
122.253132
0
LINE
8
annotation
62
1
39
211
10
91.390082
20
122.253132
11
91.246198
21
122.321250
0
LINE
8
annotation
62
1
39
211
10
91.246198
20
122.321250
11
91.090009
21
122.364011
0
LINE
8
annotation
62
1
39
211
10
91.090009
20
122.364011
11
90.924140
21
122.378838
0
LINE
8
annotation
62
1
39
211
10
90.924140
20
122.378838
11
90.000363
21
122.378838
0
LINE
8
annotation
62
1
39
211
10
90.000363
20
122.378838
11
90.000363
21
124.231350
0
LINE
8
annotation
62
1
39
211
10
90.000363
20
124.231350
11
91.847918
21
124.231350
0
LINE
8
annotation
62
1
39
211
10
82.143042
20
149.894434
11
82.143042
21
149.894434
0
LINE
8
annotation
62
1
39
211
10
82.143042
20
149.894434
11
81.878403
21
149.795210
0
LINE
8
annotation
62
1
39
211
10
81.878403
20
149.795210
11
81.635562
21
149.661518
0
LINE
8
annotation
62
1
39
211
10
81.635562
20
149.661518
11
81.417012
21
149.496707
0
LINE
8
annotation
62
1
39
211
10
81.417012
20
149.496707
11
81.225246
21
149.304127
0
LINE
8
annotation
62
1
39
211
10
81.225246
20
149.304127
11
81.062756
21
149.087127
0
LINE
8
annotation
62
1
39
211
10
81.062756
20
149.087127
11
80.932035
21
148.849057
0
LINE
8
annotation
62
1
39
211
10
80.932035
20
148.849057
11
80.835577
21
148.593266
0
LINE
8
annotation
62
1
39
211
10
80.835577
20
148.593266
11
80.775874
21
148.323105
0
LINE
8
annotation
62
1
39
211
10
80.775874
20
148.323105
11
80.755419
21
148.041922
0
LINE
8
annotation
62
1
39
211
10
80.755419
20
148.041922
11
80.755419
21
146.659255
0
LINE
8
annotation
62
1
39
211
10
80.755419
20
146.659255
11
80.755419
21
146.659255
0
LINE
8
annotation
62
1
39
211
10
80.755419
20
146.659255
11
80.770334
21
146.493076
0
LINE
8
annotation
62
1
39
211
10
80.770334
20
146.493076
11
80.813323
21
146.336644
0
LINE
8
annotation
62
1
39
211
10
80.813323
20
146.336644
11
80.881753
21
146.192579
0
LINE
8
annotation
62
1
39
211
10
80.881753
20
146.192579
11
80.972993
21
146.063496
0
LINE
8
annotation
62
1
39
211
10
80.972993
20
146.063496
11
81.084410
21
145.952013
0
LINE
8
annotation
62
1
39
211
10
81.084410
20
145.952013
11
81.213371
21
145.860748
0
LINE
8
annotation
62
1
39
211
10
81.213371
20
145.860748
11
81.357244
21
145.792319
0
LINE
8
annotation
62
1
39
211
10
81.357244
20
145.792319
11
81.513397
21
145.749341
0
LINE
8
annotation
62
1
39
211
10
81.513397
20
145.749341
11
81.679197
21
145.734434
0
LINE
8
annotation
62
1
39
211
10
81.679197
20
145.734434
11
81.679197
21
145.734434
0
LINE
8
annotation
62
1
39
211
10
81.679197
20
145.734434
11
81.845341
21
145.749341
0
LINE
8
annotation
62
1
39
211
10
81.845341
20
145.749341
11
82.001676
21
145.792319
0
LINE
8
annotation
62
1
39
211
10
82.001676
20
145.792319
11
82.145603
21
145.860748
0
LINE
8
annotation
62
1
39
211
10
82.145603
20
145.860748
11
82.274521
21
145.952013
0
LINE
8
annotation
62
1
39
211
10
82.274521
20
145.952013
11
82.385831
21
146.063496
0
LINE
8
annotation
62
1
39
211
10
82.385831
20
146.063496
11
82.476931
21
146.192579
0
LINE
8
annotation
62
1
39
211
10
82.476931
20
146.192579
11
82.545222
21
146.336644
0
LINE
8
annotation
62
1
39
211
10
82.545222
20
146.336644
11
82.588103
21
146.493076
0
LINE
8
annotation
62
1
39
211
10
82.588103
20
146.493076
11
82.602975
21
146.659255
0
LINE
8
annotation
62
1
39
211
10
82.602975
20
146.659255
11
82.602975
21
147.119448
0
LINE
8
annotation
62
1
39
211
10
82.602975
20
147.119448
11
82.602975
21
147.119448
0
LINE
8
annotation
62
1
39
211
10
82.602975
20
147.119448
11
82.588103
21
147.285547
0
LINE
8
annotation
62
1
39
211
10
82.588103
20
147.285547
11
82.545222
21
147.441763
0
LINE
8
annotation
62
1
39
211
10
82.545222
20
147.441763
11
82.476931
21
147.585516
0
LINE
8
annotation
62
1
39
211
10
82.476931
20
147.585516
11
82.385831
21
147.714229
0
LINE
8
annotation
62
1
39
211
10
82.385831
20
147.714229
11
82.274521
21
147.825321
0
LINE
8
annotation
62
1
39
211
10
82.274521
20
147.825321
11
82.145603
21
147.916216
0
LINE
8
annotation
62
1
39
211
10
82.145603
20
147.916216
11
82.001676
21
147.984333
0
LINE
8
annotation
62
1
39
211
10
82.001676
20
147.984333
11
81.845341
21
148.027095
0
LINE
8
annotation
62
1
39
211
10
81.845341
20
148.027095
11
81.679197
21
148.041922
0
LINE
8
annotation
62
1
39
211
10
81.679197
20
148.041922
11
80.755419
21
148.041922
0
LINE
8
annotation
62
1
39
211
10
80.639719
20
145.214434
11
82.719719
21
145.214434
0
LINE
8
annotation
62
1
39
211
10
85.960082
20
171.397517
11
86.884903
21
175.557517
0
LINE
8
annotation
62
1
39
211
10
86.884903
20
175.557517
11
85.035000
21
175.557517
0
LINE
8
annotation
62
1
39
211
10
86.884903
20
173.705005
11
85.960082
21
173.705005
0
LINE
8
annotation
62
1
39
211
10
86.326866
20
197.982944
11
86.326866
21
197.982944
0
LINE
8
annotation
62
1
39
211
10
86.326866
20
197.982944
11
86.341781
21
197.816845
0
LINE
8
annotation
62
1
39
211
10
86.341781
20
197.816845
11
86.384770
21
197.660629
0
LINE
8
annotation
62
1
39
211
10
86.384770
20
197.660629
11
86.453200
21
197.516876
0
LINE
8
annotation
62
1
39
211
10
86.453200
20
197.516876
11
86.544440
21
197.388164
0
LINE
8
annotation
62
1
39
211
10
86.544440
20
197.388164
11
86.655857
21
197.277071
0
LINE
8
annotation
62
1
39
211
10
86.655857
20
197.277071
11
86.784818
21
197.186176
0
LINE
8
annotation
62
1
39
211
10
86.784818
20
197.186176
11
86.928691
21
197.118059
0
LINE
8
annotation
62
1
39
211
10
86.928691
20
197.118059
11
87.084844
21
197.075297
0
LINE
8
annotation
62
1
39
211
10
87.084844
20
197.075297
11
87.250644
21
197.060470
0
LINE
8
annotation
62
1
39
211
10
87.250644
20
197.060470
11
87.250644
21
197.060470
0
LINE
8
annotation
62
1
39
211
10
87.250644
20
197.060470
11
87.416444
21
197.075297
0
LINE
8
annotation
62
1
39
211
10
87.416444
20
197.075297
11
87.572597
21
197.118059
0
LINE
8
annotation
62
1
39
211
10
87.572597
20
197.118059
11
87.716470
21
197.186176
0
LINE
8
annotation
62
1
39
211
10
87.716470
20
197.186176
11
87.845431
21
197.277071
0
LINE
8
annotation
62
1
39
211
10
87.845431
20
197.277071
11
87.956848
21
197.388164
0
LINE
8
annotation
62
1
39
211
10
87.956848
20
197.388164
11
88.048088
21
197.516876
0
LINE
8
annotation
62
1
39
211
10
88.048088
20
197.516876
11
88.116519
21
197.660629
0
LINE
8
annotation
62
1
39
211
10
88.116519
20
197.660629
11
88.159507
21
197.816845
0
LINE
8
annotation
62
1
39
211
10
88.159507
20
197.816845
11
88.174422
21
197.982944
0
LINE
8
annotation
62
1
39
211
10
88.174422
20
197.982944
11
88.174422
21
198.443137
0
LINE
8
annotation
62
1
39
211
10
88.174422
20
198.443137
11
88.174422
21
198.443137
0
LINE
8
annotation
62
1
39
211
10
88.174422
20
198.443137
11
88.159516
21
198.609316
0
LINE
8
annotation
62
1
39
211
10
88.159516
20
198.609316
11
88.116549
21
198.765748
0
LINE
8
annotation
62
1
39
211
10
88.116549
20
198.765748
11
88.048146
21
198.909813
0
LINE
8
annotation
62
1
39
211
10
88.048146
20
198.909813
11
87.956934
21
199.038896
0
LINE
8
annotation
62
1
39
211
10
87.956934
20
199.038896
11
87.845539
21
199.150379
0
LINE
8
annotation
62
1
39
211
10
87.845539
20
199.150379
11
87.716586
21
199.241644
0
LINE
8
annotation
62
1
39
211
10
87.716586
20
199.241644
11
87.572702
21
199.310074
0
LINE
8
annotation
62
1
39
211
10
87.572702
20
199.310074
11
87.416513
21
199.353051
0
LINE
8
annotation
62
1
39
211
10
87.416513
20
199.353051
11
87.250644
21
199.367958
0
LINE
8
annotation
62
1
39
211
10
87.250644
20
199.367958
11
87.250644
21
199.367958
0
LINE
8
annotation
62
1
39
211
10
87.250644
20
199.367958
11
87.084775
21
199.353042
0
LINE
8
annotation
62
1
39
211
10
87.084775
20
199.353042
11
86.928586
21
199.310043
0
LINE
8
annotation
62
1
39
211
10
86.928586
20
199.310043
11
86.784702
21
199.241586
0
LINE
8
annotation
62
1
39
211
10
86.784702
20
199.241586
11
86.655749
21
199.150293
0
LINE
8
annotation
62
1
39
211
10
86.655749
20
199.150293
11
86.544354
21
199.038789
0
LINE
8
annotation
62
1
39
211
10
86.544354
20
199.038789
11
86.453142
21
198.909698
0
LINE
8
annotation
62
1
39
211
10
86.453142
20
198.909698
11
86.384740
21
198.765642
0
LINE
8
annotation
62
1
39
211
10
86.384740
20
198.765642
11
86.341772
21
198.609248
0
LINE
8
annotation
62
1
39
211
10
86.341772
20
198.609248
11
86.326866
21
198.443137
0
LINE
8
annotation
62
1
39
211
10
86.326866
20
198.443137
11
86.326866
21
197.982944
0
LINE
8
annotation
62
1
39
211
10
88.174422
20
200.293040
11
88.174422
21
200.293040
0
LINE
8
annotation
62
1
39
211
10
88.174422
20
200.293040
11
88.159516
21
200.458452
0
LINE
8
annotation
62
1
39
211
10
88.159516
20
200.458452
11
88.116549
21
200.614303
0
LINE
8
annotation
62
1
39
211
10
88.116549
20
200.614303
11
88.048146
21
200.757949
0
LINE
8
annotation
62
1
39
211
10
88.048146
20
200.757949
11
87.956934
21
200.886747
0
LINE
8
annotation
62
1
39
211
10
87.956934
20
200.886747
11
87.845539
21
200.998055
0
LINE
8
annotation
62
1
39
211
10
87.845539
20
200.998055
11
87.716586
21
201.089228
0
LINE
8
annotation
62
1
39
211
10
87.716586
20
201.089228
11
87.572702
21
201.157625
0
LINE
8
annotation
62
1
39
211
10
87.572702
20
201.157625
11
87.416513
21
201.200601
0
LINE
8
annotation
62
1
39
211
10
87.416513
20
201.200601
11
87.250644
21
201.215514
0
LINE
8
annotation
62
1
39
211
10
87.250644
20
201.215514
11
87.250644
21
201.215514
0
LINE
8
annotation
62
1
39
211
10
87.250644
20
201.215514
11
87.084775
21
201.200601
0
LINE
8
annotation
62
1
39
211
10
87.084775
20
201.200601
11
86.928586
21
201.157625
0
LINE
8
annotation
62
1
39
211
10
86.928586
20
201.157625
11
86.784702
21
201.089228
0
LINE
8
annotation
62
1
39
211
10
86.784702
20
201.089228
11
86.655749
21
200.998055
0
LINE
8
annotation
62
1
39
211
10
86.655749
20
200.998055
11
86.544354
21
200.886747
0
LINE
8
annotation
62
1
39
211
10
86.544354
20
200.886747
11
86.453142
21
200.757949
0
LINE
8
annotation
62
1
39
211
10
86.453142
20
200.757949
11
86.384740
21
200.614303
0
LINE
8
annotation
62
1
39
211
10
86.384740
20
200.614303
11
86.341772
21
200.458452
0
LINE
8
annotation
62
1
39
211
10
86.341772
20
200.458452
11
86.326866
21
200.293040
0
LINE
8
annotation
62
1
39
211
10
86.326866
20
200.293040
11
86.326866
21
200.293040
0
LINE
8
annotation
62
1
39
211
10
86.326866
20
200.293040
11
86.341781
21
200.126852
0
LINE
8
annotation
62
1
39
211
10
86.341781
20
200.126852
11
86.384770
21
199.970397
0
LINE
8
annotation
62
1
39
211
10
86.384770
20
199.970397
11
86.453200
21
199.826296
0
LINE
8
annotation
62
1
39
211
10
86.453200
20
199.826296
11
86.544440
21
199.697172
0
LINE
8
annotation
62
1
39
211
10
86.544440
20
199.697172
11
86.655857
21
199.585646
0
LINE
8
annotation
62
1
39
211
10
86.655857
20
199.585646
11
86.784818
21
199.494340
0
LINE
8
annotation
62
1
39
211
10
86.784818
20
199.494340
11
86.928691
21
199.425876
0
LINE
8
annotation
62
1
39
211
10
86.928691
20
199.425876
11
87.084844
21
199.382875
0
LINE
8
annotation
62
1
39
211
10
87.084844
20
199.382875
11
87.250644
21
199.367958
0
LINE
8
annotation
62
1
39
211
10
87.250644
20
199.367958
11
87.250644
21
199.367958
0
LINE
8
annotation
62
1
39
211
10
87.250644
20
199.367958
11
87.416444
21
199.382875
0
LINE
8
annotation
62
1
39
211
10
87.416444
20
199.382875
11
87.572597
21
199.425876
0
LINE
8
annotation
62
1
39
211
10
87.572597
20
199.425876
11
87.716470
21
199.494340
0
LINE
8
annotation
62
1
39
211
10
87.716470
20
199.494340
11
87.845431
21
199.585646
0
LINE
8
annotation
62
1
39
211
10
87.845431
20
199.585646
11
87.956848
21
199.697172
0
LINE
8
annotation
62
1
39
211
10
87.956848
20
199.697172
11
88.048088
21
199.826296
0
LINE
8
annotation
62
1
39
211
10
88.048088
20
199.826296
11
88.116519
21
199.970397
0
LINE
8
annotation
62
1
39
211
10
88.116519
20
199.970397
11
88.159507
21
200.126852
0
LINE
8
annotation
62
1
39
211
10
88.159507
20
200.126852
11
88.174422
21
200.293040
0
LINE
8
annotation
62
1
39
211
10
90.573961
20
222.723684
11
90.573961
21
222.723684
0
LINE
8
annotation
62
1
39
211
10
90.573961
20
222.723684
11
90.838134
21
222.822128
0
LINE
8
annotation
62
1
39
211
10
90.838134
20
222.822128
11
91.080612
21
222.955193
0
LINE
8
annotation
62
1
39
211
10
91.080612
20
222.955193
11
91.298889
21
223.119488
0
LINE
8
annotation
62
1
39
211
10
91.298889
20
223.119488
11
91.490461
21
223.311624
0
LINE
8
annotation
62
1
39
211
10
91.490461
20
223.311624
11
91.652819
21
223.528209
0
LINE
8
annotation
62
1
39
211
10
91.652819
20
223.528209
11
91.783460
21
223.765854
0
LINE
8
annotation
62
1
39
211
10
91.783460
20
223.765854
11
91.879878
21
224.021167
0
LINE
8
annotation
62
1
39
211
10
91.879878
20
224.021167
11
91.939566
21
224.290759
0
LINE
8
annotation
62
1
39
211
10
91.939566
20
224.290759
11
91.960019
21
224.571240
0
LINE
8
annotation
62
1
39
211
10
91.960019
20
224.571240
11
91.960019
21
225.958602
0
LINE
8
annotation
62
1
39
211
10
91.960019
20
225.958602
11
91.960019
21
225.958602
0
LINE
8
annotation
62
1
39
211
10
91.960019
20
225.958602
11
91.945147
21
226.124791
0
LINE
8
annotation
62
1
39
211
10
91.945147
20
226.124791
11
91.902266
21
226.281246
0
LINE
8
annotation
62
1
39
211
10
91.902266
20
226.281246
11
91.833975
21
226.425346
0
LINE
8
annotation
62
1
39
211
10
91.833975
20
226.425346
11
91.742874
21
226.554470
0
LINE
8
annotation
62
1
39
211
10
91.742874
20
226.554470
11
91.631565
21
226.665996
0
LINE
8
annotation
62
1
39
211
10
91.631565
20
226.665996
11
91.502647
21
226.757302
0
LINE
8
annotation
62
1
39
211
10
91.502647
20
226.757302
11
91.358720
21
226.825767
0
LINE
8
annotation
62
1
39
211
10
91.358720
20
226.825767
11
91.202384
21
226.868768
0
LINE
8
annotation
62
1
39
211
10
91.202384
20
226.868768
11
91.036241
21
226.883684
0
LINE
8
annotation
62
1
39
211
10
91.036241
20
226.883684
11
91.036241
21
226.883684
0
LINE
8
annotation
62
1
39
211
10
91.036241
20
226.883684
11
90.870441
21
226.868768
0
LINE
8
annotation
62
1
39
211
10
90.870441
20
226.868768
11
90.714288
21
226.825767
0
LINE
8
annotation
62
1
39
211
10
90.714288
20
226.825767
11
90.570415
21
226.757302
0
LINE
8
annotation
62
1
39
211
10
90.570415
20
226.757302
11
90.441453
21
226.665996
0
LINE
8
annotation
62
1
39
211
10
90.441453
20
226.665996
11
90.330037
21
226.554470
0
LINE
8
annotation
62
1
39
211
10
90.330037
20
226.554470
11
90.238797
21
226.425346
0
LINE
8
annotation
62
1
39
211
10
90.238797
20
226.425346
11
90.170366
21
226.281246
0
LINE
8
annotation
62
1
39
211
10
90.170366
20
226.281246
11
90.127378
21
226.124791
0
LINE
8
annotation
62
1
39
211
10
90.127378
20
226.124791
11
90.112463
21
225.958602
0
LINE
8
annotation
62
1
39
211
10
90.112463
20
225.958602
11
90.112463
21
225.496061
0
LINE
8
annotation
62
1
39
211
10
90.112463
20
225.496061
11
90.112463
21
225.496061
0
LINE
8
annotation
62
1
39
211
10
90.112463
20
225.496061
11
90.127378
21
225.329882
0
LINE
8
annotation
62
1
39
211
10
90.127378
20
225.329882
11
90.170366
21
225.173450
0
LINE
8
annotation
62
1
39
211
10
90.170366
20
225.173450
11
90.238797
21
225.029385
0
LINE
8
annotation
62
1
39
211
10
90.238797
20
225.029385
11
90.330037
21
224.900302
0
LINE
8
annotation
62
1
39
211
10
90.330037
20
224.900302
11
90.441453
21
224.788819
0
LINE
8
annotation
62
1
39
211
10
90.441453
20
224.788819
11
90.570415
21
224.697554
0
LINE
8
annotation
62
1
39
211
10
90.570415
20
224.697554
11
90.714288
21
224.629125
0
LINE
8
annotation
62
1
39
211
10
90.714288
20
224.629125
11
90.870441
21
224.586147
0
LINE
8
annotation
62
1
39
211
10
90.870441
20
224.586147
11
91.036241
21
224.571240
0
LINE
8
annotation
62
1
39
211
10
91.036241
20
224.571240
11
91.960019
21
224.571240
0
LINE
8
annotation
62
1
39
211
10
89.997023
20
222.203684
11
92.077023
21
222.203684
0
LINE
8
annotation
62
1
39
211
10
93.123337
20
248.226161
11
93.123337
21
250.627375
0
LINE
8
annotation
62
1
39
211
10
93.123337
20
250.627375
11
92.589517
21
250.093404
0
LINE
8
annotation
62
1
39
211
10
94.409416
20
248.257834
11
94.409416
21
248.257834
0
LINE
8
annotation
62
1
39
211
10
94.409416
20
248.257834
11
94.465223
21
248.236971
0
LINE
8
annotation
62
1
39
211
10
94.465223
20
248.236971
11
94.522458
21
248.226607
0
LINE
8
annotation
62
1
39
211
10
94.522458
20
248.226607
11
94.579827
21
248.226317
0
LINE
8
annotation
62
1
39
211
10
94.579827
20
248.226317
11
94.636036
21
248.235679
0
LINE
8
annotation
62
1
39
211
10
94.636036
20
248.235679
11
94.689791
21
248.254271
0
LINE
8
annotation
62
1
39
211
10
94.689791
20
248.254271
11
94.739798
21
248.281671
0
LINE
8
annotation
62
1
39
211
10
94.739798
20
248.281671
11
94.784763
21
248.317454
0
LINE
8
annotation
62
1
39
211
10
94.784763
20
248.317454
11
94.823392
21
248.361199
0
LINE
8
annotation
62
1
39
211
10
94.823392
20
248.361199
11
94.854392
21
248.412483
0
LINE
8
annotation
62
1
39
211
10
94.854392
20
248.412483
11
94.854392
21
248.412483
0
LINE
8
annotation
62
1
39
211
10
94.854392
20
248.412483
11
94.946884
21
248.628984
0
LINE
8
annotation
62
1
39
211
10
94.946884
20
248.628984
11
95.016254
21
248.851751
0
LINE
8
annotation
62
1
39
211
10
95.016254
20
248.851751
11
95.062500
21
249.079008
0
LINE
8
annotation
62
1
39
211
10
95.062500
20
249.079008
11
95.085623
21
249.308979
0
LINE
8
annotation
62
1
39
211
10
95.085623
20
249.308979
11
95.085623
21
249.539889
0
LINE
8
annotation
62
1
39
211
10
95.085623
20
249.539889
11
95.062500
21
249.769960
0
LINE
8
annotation
62
1
39
211
10
95.062500
20
249.769960
11
95.016254
21
249.997418
0
LINE
8
annotation
62
1
39
211
10
95.016254
20
249.997418
11
94.946884
21
250.220486
0
LINE
8
annotation
62
1
39
211
10
94.946884
20
250.220486
11
94.854392
21
250.437388
0
LINE
8
annotation
62
1
39
211
10
94.854392
20
250.437388
11
94.854392
21
250.437388
0
LINE
8
annotation
62
1
39
211
10
94.854392
20
250.437388
11
94.842630
21
250.459278
0
LINE
8
annotation
62
1
39
211
10
94.842630
20
250.459278
11
94.829295
21
250.480206
0
LINE
8
annotation
62
1
39
211
10
94.829295
20
250.480206
11
94.814488
21
250.500070
0
LINE
8
annotation
62
1
39
211
10
94.814488
20
250.500070
11
94.798308
21
250.518766
0
LINE
8
annotation
62
1
39
211
10
94.798308
20
250.518766
11
94.780857
21
250.536192
0
LINE
8
annotation
62
1
39
211
10
94.780857
20
250.536192
11
94.762235
21
250.552245
0
LINE
8
annotation
62
1
39
211
10
94.762235
20
250.552245
11
94.742542
21
250.566821
0
LINE
8
annotation
62
1
39
211
10
94.742542
20
250.566821
11
94.721878
21
250.579819
0
LINE
8
annotation
62
1
39
211
10
94.721878
20
250.579819
11
94.700345
21
250.591134
0
LINE
8
annotation
62
1
39
211
10
94.700345
20
250.591134
11
94.700345
21
250.591134
0
LINE
8
annotation
62
1
39
211
10
94.700345
20
250.591134
11
94.644094
21
250.612449
0
LINE
8
annotation
62
1
39
211
10
94.644094
20
250.612449
11
94.586524
21
250.623168
0
LINE
8
annotation
62
1
39
211
10
94.586524
20
250.623168
11
94.528913
21
250.623716
0
LINE
8
annotation
62
1
39
211
10
94.528913
20
250.623716
11
94.472540
21
250.614520
0
LINE
8
annotation
62
1
39
211
10
94.472540
20
250.614520
11
94.418684
21
250.596003
0
LINE
8
annotation
62
1
39
211
10
94.418684
20
250.596003
11
94.368625
21
250.568591
0
LINE
8
annotation
62
1
39
211
10
94.368625
20
250.568591
11
94.323640
21
250.532710
0
LINE
8
annotation
62
1
39
211
10
94.323640
20
250.532710
11
94.285010
21
250.488784
0
LINE
8
annotation
62
1
39
211
10
94.285010
20
250.488784
11
94.254013
21
250.437237
0
LINE
8
annotation
62
1
39
211
10
94.254013
20
250.437237
11
94.254013
21
250.437237
0
LINE
8
annotation
62
1
39
211
10
94.254013
20
250.437237
11
94.161968
21
250.220782
0
LINE
8
annotation
62
1
39
211
10
94.161968
20
250.220782
11
94.092933
21
249.998048
0
LINE
8
annotation
62
1
39
211
10
94.092933
20
249.998048
11
94.046910
21
249.770814
0
LINE
8
annotation
62
1
39
211
10
94.046910
20
249.770814
11
94.023899
21
249.540853
0
LINE
8
annotation
62
1
39
211
10
94.023899
20
249.540853
11
94.023899
21
249.309944
0
LINE
8
annotation
62
1
39
211
10
94.023899
20
249.309944
11
94.046910
21
249.079861
0
LINE
8
annotation
62
1
39
211
10
94.046910
20
249.079861
11
94.092933
21
248.852381
0
LINE
8
annotation
62
1
39
211
10
94.092933
20
248.852381
11
94.161968
21
248.629280
0
LINE
8
annotation
62
1
39
211
10
94.161968
20
248.629280
11
94.254013
21
248.412333
0
LINE
8
annotation
62
1
39
211
10
94.254013
20
248.412333
11
94.254013
21
248.412333
0
LINE
8
annotation
62
1
39
211
10
94.254013
20
248.412333
11
94.265733
21
248.390486
0
LINE
8
annotation
62
1
39
211
10
94.265733
20
248.390486
11
94.278970
21
248.369662
0
LINE
8
annotation
62
1
39
211
10
94.278970
20
248.369662
11
94.293667
21
248.349924
0
LINE
8
annotation
62
1
39
211
10
94.293667
20
248.349924
11
94.309770
21
248.331335
0
LINE
8
annotation
62
1
39
211
10
94.309770
20
248.331335
11
94.327223
21
248.313957
0
LINE
8
annotation
62
1
39
211
10
94.327223
20
248.313957
11
94.345970
21
248.297856
0
LINE
8
annotation
62
1
39
211
10
94.345970
20
248.297856
11
94.365955
21
248.283092
0
LINE
8
annotation
62
1
39
211
10
94.365955
20
248.283092
11
94.387122
21
248.269730
0
LINE
8
annotation
62
1
39
211
10
94.387122
20
248.269730
11
94.409416
21
248.257834
0
LINE
8
annotation
62
1
39
211
10
82.270357
20
244.708574
11
79.327306
21
240.451722
0
LINE
8
annotation
62
1
39
211
10
79.327306
20
240.451722
11
76.383702
21
244.708574
0
LINE
8
annotation
62
1
39
211
10
79.327306
20
240.794284
11
79.327306
21
235.883297
0
LINE
8
annotation
62
1
39
211
10
90.405943
20
240.295936
11
85.580735
21
240.295936
0
LINE
8
annotation
62
1
39
211
10
95.676510
20
235.883574
11
97.638359
21
244.708298
0
LINE
8
annotation
62
1
39
211
10
97.638359
20
244.708298
11
93.714107
21
244.708298
0
LINE
8
annotation
62
1
39
211
10
97.638359
20
240.778512
11
95.676510
21
240.778512
0
LINE
8
boundary
62
5
39
2
10
144.448286
20
6.667500
11
147.906583
21
6.667502
0
LINE
8
boundary
62
5
39
2
10
147.906583
20
6.667502
11
147.906583
21
8.494581
0
LINE
8
boundary
62
5
39
2
10
147.906583
20
8.494581
11
173.602814
21
8.494581
0
LINE
8
boundary
62
5
39
2
10
173.602814
20
8.494581
11
158.071759
21
29.948634
0
LINE
8
boundary
62
5
39
2
10
158.071759
20
29.948634
11
139.294914
21
30.078633
0
LINE
8
boundary
62
5
39
2
10
139.294914
20
30.078633
11
139.294914
21
32.424634
0
LINE
8
boundary
62
5
39
2
10
139.294914
20
32.424634
11
156.184603
21
32.424634
0
LINE
8
boundary
62
5
39
2
10
156.184603
20
32.424634
11
154.484801
21
34.876585
0
LINE
8
boundary
62
5
39
2
10
154.484801
20
34.876585
11
153.957612
21
36.181693
0
LINE
8
boundary
62
5
39
2
10
153.957612
20
36.181693
11
155.288486
21
41.465983
0
LINE
8
boundary
62
5
39
2
10
155.288486
20
41.465983
11
157.795505
21
53.878686
0
LINE
8
boundary
62
5
39
2
10
157.795505
20
53.878686
11
139.759614
21
54.008686
0
LINE
8
boundary
62
5
39
2
10
139.759614
20
54.008686
11
139.759614
21
56.354686
0
LINE
8
boundary
62
5
39
2
10
139.759614
20
56.354686
11
158.295588
21
56.354686
0
LINE
8
boundary
62
5
39
2
10
158.295588
20
56.354686
11
161.654498
21
72.985252
0
LINE
8
boundary
62
5
39
2
10
161.654498
20
72.985252
11
160.052117
21
76.032081
0
LINE
8
boundary
62
5
39
2
10
160.052117
20
76.032081
11
158.854517
21
77.938739
0
LINE
8
boundary
62
5
39
2
10
158.854517
20
77.938739
11
140.063069
21
77.938738
0
LINE
8
boundary
62
5
39
2
10
140.063069
20
77.938738
11
140.063069
21
80.284739
0
LINE
8
boundary
62
5
39
2
10
140.063069
20
80.284739
11
157.309006
21
80.284739
0
LINE
8
boundary
62
5
39
2
10
157.309006
20
80.284739
11
146.089414
21
98.261633
0
LINE
8
boundary
62
5
39
2
10
146.089414
20
98.261633
11
143.902611
21
100.613409
0
LINE
8
boundary
62
5
39
2
10
143.902611
20
100.613409
11
145.442743
21
101.491814
0
LINE
8
boundary
62
5
39
2
10
145.442743
20
101.491814
11
133.781745
21
101.868791
0
LINE
8
boundary
62
5
39
2
10
133.781745
20
101.868791
11
133.781745
21
104.214791
0
LINE
8
boundary
62
5
39
2
10
133.781745
20
104.214791
11
146.291870
21
104.214791
0
LINE
8
boundary
62
5
39
2
10
146.291870
20
104.214791
11
151.100731
21
120.146092
0
LINE
8
boundary
62
5
39
2
10
151.100731
20
120.146092
11
151.100692
21
125.668845
0
LINE
8
boundary
62
5
39
2
10
151.100692
20
125.668845
11
136.186156
21
125.798844
0
LINE
8
boundary
62
5
39
2
10
136.186156
20
125.798844
11
136.186155
21
128.144844
0
LINE
8
boundary
62
5
39
2
10
136.186155
20
128.144844
11
151.100675
21
128.144844
0
LINE
8
boundary
62
5
39
2
10
151.100675
20
128.144844
11
151.100636
21
133.798002
0
LINE
8
boundary
62
5
39
2
10
151.100636
20
133.798002
11
146.291888
21
149.728896
0
LINE
8
boundary
62
5
39
2
10
146.291888
20
149.728896
11
133.781754
21
149.728896
0
LINE
8
boundary
62
5
39
2
10
133.781754
20
149.728896
11
133.781754
21
152.074896
0
LINE
8
boundary
62
5
39
2
10
133.781754
20
152.074896
11
145.554206
21
152.074896
0
LINE
8
boundary
62
5
39
2
10
145.554206
20
152.074896
11
143.902611
21
153.330282
0
LINE
8
boundary
62
5
39
2
10
143.902611
20
153.330282
11
146.089428
21
155.682069
0
LINE
8
boundary
62
5
39
2
10
146.089428
20
155.682069
11
157.299348
21
173.528949
0
LINE
8
boundary
62
5
39
2
10
157.299348
20
173.528949
11
140.063092
21
173.658949
0
LINE
8
boundary
62
5
39
2
10
140.063092
20
173.658949
11
140.063092
21
176.004949
0
LINE
8
boundary
62
5
39
2
10
140.063092
20
176.004949
11
158.854565
21
176.004949
0
LINE
8
boundary
62
5
39
2
10
158.854565
20
176.004949
11
160.052130
21
177.911546
0
LINE
8
boundary
62
5
39
2
10
160.052130
20
177.911546
11
161.654497
21
180.958432
0
LINE
8
boundary
62
5
39
2
10
161.654497
20
180.958432
11
158.321847
21
197.459002
0
LINE
8
boundary
62
5
39
2
10
158.321847
20
197.459002
11
139.759615
21
197.589001
0
LINE
8
boundary
62
5
39
2
10
139.759615
20
197.589001
11
139.759615
21
199.935001
0
LINE
8
boundary
62
5
39
2
10
139.759615
20
199.935001
11
157.805209
21
199.935001
0
LINE
8
boundary
62
5
39
2
10
157.805209
20
199.935001
11
155.288520
21
212.477570
0
LINE
8
boundary
62
5
39
2
10
155.288520
20
212.477570
11
153.957612
21
217.762000
0
LINE
8
boundary
62
5
39
2
10
153.957612
20
217.762000
11
154.484819
21
219.067147
0
LINE
8
boundary
62
5
39
2
10
154.484819
20
219.067147
11
156.174890
21
221.389054
0
LINE
8
boundary
62
5
39
2
10
156.174890
20
221.389054
11
139.294908
21
221.519054
0
LINE
8
boundary
62
5
39
2
10
139.294908
20
221.519054
11
139.294908
21
223.865054
0
LINE
8
boundary
62
5
39
2
10
139.294908
20
223.865054
11
157.977124
21
223.865054
0
LINE
8
boundary
62
5
39
2
10
157.977124
20
223.865054
11
173.593121
21
245.319107
0
LINE
8
boundary
62
5
39
2
10
173.593121
20
245.319107
11
147.906586
21
245.449106
0
LINE
8
boundary
62
5
39
2
10
147.906586
20
245.449106
11
147.906586
21
247.276185
0
LINE
8
boundary
62
5
39
2
10
147.906586
20
247.276185
11
144.448269
21
247.276185
0
LINE
8
boundary
62
5
39
2
10
144.448269
20
247.276185
11
121.017623
21
247.276188
0
LINE
8
boundary
62
5
39
2
10
121.017623
20
247.276188
11
121.017620
21
151.444287
0
LINE
8
boundary
62
5
39
2
10
121.017620
20
151.444287
11
121.017620
21
126.971845
0
LINE
8
boundary
62
5
39
2
10
121.017620
20
126.971845
11
121.017620
21
102.499387
0
LINE
8
boundary
62
5
39
2
10
121.017620
20
102.499387
11
121.017622
21
6.667502
0
LINE
8
boundary
62
5
39
2
10
121.017622
20
6.667502
11
144.448286
21
6.667500
0
LINE
8
annotation
62
1
39
211
10
144.936794
20
7.113581
11
144.936794
21
9.609581
0
LINE
8
annotation
62
1
39
211
10
144.936794
20
9.609581
11
144.381901
21
9.054532
0
LINE
8
annotation
62
1
39
211
10
134.891170
20
29.171600
11
133.043614
21
29.171600
0
LINE
8
annotation
62
1
39
211
10
133.043614
20
29.171600
11
134.750816
21
31.919976
0
LINE
8
annotation
62
1
39
211
10
134.750816
20
31.919976
11
134.750816
21
31.919976
0
LINE
8
annotation
62
1
39
211
10
134.750816
20
31.919976
11
134.752857
21
31.922501
0
LINE
8
annotation
62
1
39
211
10
134.752857
20
31.922501
11
134.754814
21
31.925048
0
LINE
8
annotation
62
1
39
211
10
134.754814
20
31.925048
11
134.756700
21
31.927638
0
LINE
8
annotation
62
1
39
211
10
134.756700
20
31.927638
11
134.758529
21
31.930292
0
LINE
8
annotation
62
1
39
211
10
134.758529
20
31.930292
11
134.760312
21
31.933032
0
LINE
8
annotation
62
1
39
211
10
134.760312
20
31.933032
11
134.762063
21
31.935880
0
LINE
8
annotation
62
1
39
211
10
134.762063
20
31.935880
11
134.763795
21
31.938856
0
LINE
8
annotation
62
1
39
211
10
134.763795
20
31.938856
11
134.765520
21
31.941983
0
LINE
8
annotation
62
1
39
211
10
134.765520
20
31.941983
11
134.767252
21
31.945281
0
LINE
8
annotation
62
1
39
211
10
134.767252
20
31.945281
11
134.767252
21
31.945281
0
LINE
8
annotation
62
1
39
211
10
134.767252
20
31.945281
11
134.837742
21
32.096629
0
LINE
8
annotation
62
1
39
211
10
134.837742
20
32.096629
11
134.878921
21
32.253514
0
LINE
8
annotation
62
1
39
211
10
134.878921
20
32.253514
11
134.891798
21
32.412392
0
LINE
8
annotation
62
1
39
211
10
134.891798
20
32.412392
11
134.877382
21
32.569718
0
LINE
8
annotation
62
1
39
211
10
134.877382
20
32.569718
11
134.836684
21
32.721946
0
LINE
8
annotation
62
1
39
211
10
134.836684
20
32.721946
11
134.770711
21
32.865532
0
LINE
8
annotation
62
1
39
211
10
134.770711
20
32.865532
11
134.680472
21
32.996931
0
LINE
8
annotation
62
1
39
211
10
134.680472
20
32.996931
11
134.566978
21
33.112597
0
LINE
8
annotation
62
1
39
211
10
134.566978
20
33.112597
11
134.431238
21
33.208986
0
LINE
8
annotation
62
1
39
211
10
134.431238
20
33.208986
11
134.431238
21
33.208986
0
LINE
8
annotation
62
1
39
211
10
134.431238
20
33.208986
11
134.279469
21
33.278474
0
LINE
8
annotation
62
1
39
211
10
134.279469
20
33.278474
11
134.122343
21
33.319019
0
LINE
8
annotation
62
1
39
211
10
134.122343
20
33.319019
11
133.963373
21
33.331532
0
LINE
8
annotation
62
1
39
211
10
133.963373
20
33.331532
11
133.806071
21
33.316927
0
LINE
8
annotation
62
1
39
211
10
133.806071
20
33.316927
11
133.653950
21
33.276115
0
LINE
8
annotation
62
1
39
211
10
133.653950
20
33.276115
11
133.510523
21
33.210010
0
LINE
8
annotation
62
1
39
211
10
133.510523
20
33.210010
11
133.379302
21
33.119524
0
LINE
8
annotation
62
1
39
211
10
133.379302
20
33.119524
11
133.263801
21
33.005569
0
LINE
8
annotation
62
1
39
211
10
133.263801
20
33.005569
11
133.167533
21
32.869059
0
LINE
8
annotation
62
1
39
211
10
133.167533
20
32.869059
11
133.046223
21
32.636353
0
LINE
8
annotation
62
1
39
211
10
133.508314
20
53.101817
11
134.432092
21
53.101817
0
LINE
8
annotation
62
1
39
211
10
134.432092
20
53.101817
11
134.432092
21
53.101817
0
LINE
8
annotation
62
1
39
211
10
134.432092
20
53.101817
11
134.598235
21
53.116721
0
LINE
8
annotation
62
1
39
211
10
134.598235
20
53.116721
11
134.754571
21
53.159675
0
LINE
8
annotation
62
1
39
211
10
134.754571
20
53.159675
11
134.898498
21
53.228044
0
LINE
8
annotation
62
1
39
211
10
134.898498
20
53.228044
11
135.027416
21
53.319190
0
LINE
8
annotation
62
1
39
211
10
135.027416
20
53.319190
11
135.138725
21
53.430476
0
LINE
8
annotation
62
1
39
211
10
135.138725
20
53.430476
11
135.229826
21
53.559266
0
LINE
8
annotation
62
1
39
211
10
135.229826
20
53.559266
11
135.298117
21
53.702922
0
LINE
8
annotation
62
1
39
211
10
135.298117
20
53.702922
11
135.340998
21
53.858809
0
LINE
8
annotation
62
1
39
211
10
135.340998
20
53.858809
11
135.355870
21
54.024290
0
LINE
8
annotation
62
1
39
211
10
135.355870
20
54.024290
11
135.355870
21
54.486831
0
LINE
8
annotation
62
1
39
211
10
135.355870
20
54.486831
11
135.355870
21
54.486831
0
LINE
8
annotation
62
1
39
211
10
135.355870
20
54.486831
11
135.340998
21
54.652243
0
LINE
8
annotation
62
1
39
211
10
135.340998
20
54.652243
11
135.298117
21
54.808093
0
LINE
8
annotation
62
1
39
211
10
135.298117
20
54.808093
11
135.229826
21
54.951739
0
LINE
8
annotation
62
1
39
211
10
135.229826
20
54.951739
11
135.138725
21
55.080538
0
LINE
8
annotation
62
1
39
211
10
135.138725
20
55.080538
11
135.027416
21
55.191845
0
LINE
8
annotation
62
1
39
211
10
135.027416
20
55.191845
11
134.898498
21
55.283019
0
LINE
8
annotation
62
1
39
211
10
134.898498
20
55.283019
11
134.754571
21
55.351415
0
LINE
8
annotation
62
1
39
211
10
134.754571
20
55.351415
11
134.598235
21
55.394392
0
LINE
8
annotation
62
1
39
211
10
134.598235
20
55.394392
11
134.432092
21
55.409304
0
LINE
8
annotation
62
1
39
211
10
134.432092
20
55.409304
11
133.969551
21
55.409304
0
LINE
8
annotation
62
1
39
211
10
133.969551
20
55.409304
11
134.432092
21
55.409304
0
LINE
8
annotation
62
1
39
211
10
134.432092
20
55.409304
11
134.432092
21
55.409304
0
LINE
8
annotation
62
1
39
211
10
134.432092
20
55.409304
11
134.598235
21
55.424221
0
LINE
8
annotation
62
1
39
211
10
134.598235
20
55.424221
11
134.754571
21
55.467222
0
LINE
8
annotation
62
1
39
211
10
134.754571
20
55.467222
11
134.898498
21
55.535686
0
LINE
8
annotation
62
1
39
211
10
134.898498
20
55.535686
11
135.027416
21
55.626992
0
LINE
8
annotation
62
1
39
211
10
135.027416
20
55.626992
11
135.138725
21
55.738518
0
LINE
8
annotation
62
1
39
211
10
135.138725
20
55.738518
11
135.229826
21
55.867642
0
LINE
8
annotation
62
1
39
211
10
135.229826
20
55.867642
11
135.298117
21
56.011743
0
LINE
8
annotation
62
1
39
211
10
135.298117
20
56.011743
11
135.340998
21
56.168198
0
LINE
8
annotation
62
1
39
211
10
135.340998
20
56.168198
11
135.355870
21
56.334386
0
LINE
8
annotation
62
1
39
211
10
135.355870
20
56.334386
11
135.355870
21
56.334386
0
LINE
8
annotation
62
1
39
211
10
135.355870
20
56.334386
11
135.340998
21
56.499798
0
LINE
8
annotation
62
1
39
211
10
135.340998
20
56.499798
11
135.298117
21
56.655649
0
LINE
8
annotation
62
1
39
211
10
135.298117
20
56.655649
11
135.229826
21
56.799295
0
LINE
8
annotation
62
1
39
211
10
135.229826
20
56.799295
11
135.138725
21
56.928093
0
LINE
8
annotation
62
1
39
211
10
135.138725
20
56.928093
11
135.027416
21
57.039401
0
LINE
8
annotation
62
1
39
211
10
135.027416
20
57.039401
11
134.898498
21
57.130574
0
LINE
8
annotation
62
1
39
211
10
134.898498
20
57.130574
11
134.754571
21
57.198971
0
LINE
8
annotation
62
1
39
211
10
134.754571
20
57.198971
11
134.598235
21
57.241947
0
LINE
8
annotation
62
1
39
211
10
134.598235
20
57.241947
11
134.432092
21
57.256860
0
LINE
8
annotation
62
1
39
211
10
134.432092
20
57.256860
11
133.508314
21
57.256860
0
LINE
8
annotation
62
1
39
211
10
135.890465
20
77.956560
11
133.580629
21
77.956560
0
LINE
8
annotation
62
1
39
211
10
133.580629
20
77.956560
11
134.503103
21
81.191739
0
LINE
8
annotation
62
1
39
211
10
135.198088
20
77.031739
11
135.198088
21
78.879294
0
LINE
8
annotation
62
1
39
211
10
127.530445
20
100.961791
11
128.454223
21
100.961791
0
LINE
8
annotation
62
1
39
211
10
128.454223
20
100.961791
11
128.454223
21
100.961791
0
LINE
8
annotation
62
1
39
211
10
128.454223
20
100.961791
11
128.620023
21
100.976699
0
LINE
8
annotation
62
1
39
211
10
128.620023
20
100.976699
11
128.776176
21
101.019676
0
LINE
8
annotation
62
1
39
211
10
128.776176
20
101.019676
11
128.920049
21
101.088106
0
LINE
8
annotation
62
1
39
211
10
128.920049
20
101.088106
11
129.049011
21
101.179370
0
LINE
8
annotation
62
1
39
211
10
129.049011
20
101.179370
11
129.160427
21
101.290853
0
LINE
8
annotation
62
1
39
211
10
129.160427
20
101.290853
11
129.251667
21
101.419936
0
LINE
8
annotation
62
1
39
211
10
129.251667
20
101.419936
11
129.320098
21
101.564002
0
LINE
8
annotation
62
1
39
211
10
129.320098
20
101.564002
11
129.363086
21
101.720433
0
LINE
8
annotation
62
1
39
211
10
129.363086
20
101.720433
11
129.378001
21
101.886612
0
LINE
8
annotation
62
1
39
211
10
129.378001
20
101.886612
11
129.378001
21
102.346806
0
LINE
8
annotation
62
1
39
211
10
129.378001
20
102.346806
11
129.378001
21
102.346806
0
LINE
8
annotation
62
1
39
211
10
129.378001
20
102.346806
11
129.363095
21
102.512904
0
LINE
8
annotation
62
1
39
211
10
129.363095
20
102.512904
11
129.320128
21
102.669120
0
LINE
8
annotation
62
1
39
211
10
129.320128
20
102.669120
11
129.251725
21
102.812873
0
LINE
8
annotation
62
1
39
211
10
129.251725
20
102.812873
11
129.160513
21
102.941586
0
LINE
8
annotation
62
1
39
211
10
129.160513
20
102.941586
11
129.049118
21
103.052679
0
LINE
8
annotation
62
1
39
211
10
129.049118
20
103.052679
11
128.920165
21
103.143573
0
LINE
8
annotation
62
1
39
211
10
128.920165
20
103.143573
11
128.776281
21
103.211691
0
LINE
8
annotation
62
1
39
211
10
128.776281
20
103.211691
11
128.620092
21
103.254452
0
LINE
8
annotation
62
1
39
211
10
128.620092
20
103.254452
11
128.454223
21
103.269279
0
LINE
8
annotation
62
1
39
211
10
128.454223
20
103.269279
11
127.530445
21
103.269279
0
LINE
8
annotation
62
1
39
211
10
127.530445
20
103.269279
11
127.530445
21
105.121791
0
LINE
8
annotation
62
1
39
211
10
127.530445
20
105.121791
11
129.378001
21
105.121791
0
LINE
8
annotation
62
1
39
211
10
131.322479
20
129.051844
11
131.322479
21
129.051844
0
LINE
8
annotation
62
1
39
211
10
131.322479
20
129.051844
11
131.057840
21
128.952620
0
LINE
8
annotation
62
1
39
211
10
131.057840
20
128.952620
11
130.814999
21
128.818928
0
LINE
8
annotation
62
1
39
211
10
130.814999
20
128.818928
11
130.596449
21
128.654117
0
LINE
8
annotation
62
1
39
211
10
130.596449
20
128.654117
11
130.404683
21
128.461537
0
LINE
8
annotation
62
1
39
211
10
130.404683
20
128.461537
11
130.242193
21
128.244537
0
LINE
8
annotation
62
1
39
211
10
130.242193
20
128.244537
11
130.111472
21
128.006467
0
LINE
8
annotation
62
1
39
211
10
130.111472
20
128.006467
11
130.015014
21
127.750676
0
LINE
8
annotation
62
1
39
211
10
130.015014
20
127.750676
11
129.955311
21
127.480514
0
LINE
8
annotation
62
1
39
211
10
129.955311
20
127.480514
11
129.934856
21
127.199331
0
LINE
8
annotation
62
1
39
211
10
129.934856
20
127.199331
11
129.934856
21
125.816665
0
LINE
8
annotation
62
1
39
211
10
129.934856
20
125.816665
11
129.934856
21
125.816665
0
LINE
8
annotation
62
1
39
211
10
129.934856
20
125.816665
11
129.949771
21
125.650485
0
LINE
8
annotation
62
1
39
211
10
129.949771
20
125.650485
11
129.992759
21
125.494054
0
LINE
8
annotation
62
1
39
211
10
129.992759
20
125.494054
11
130.061190
21
125.349988
0
LINE
8
annotation
62
1
39
211
10
130.061190
20
125.349988
11
130.152430
21
125.220906
0
LINE
8
annotation
62
1
39
211
10
130.152430
20
125.220906
11
130.263846
21
125.109423
0
LINE
8
annotation
62
1
39
211
10
130.263846
20
125.109423
11
130.392808
21
125.018158
0
LINE
8
annotation
62
1
39
211
10
130.392808
20
125.018158
11
130.536681
21
124.949728
0
LINE
8
annotation
62
1
39
211
10
130.536681
20
124.949728
11
130.692834
21
124.906751
0
LINE
8
annotation
62
1
39
211
10
130.692834
20
124.906751
11
130.858634
21
124.891844
0
LINE
8
annotation
62
1
39
211
10
130.858634
20
124.891844
11
130.858634
21
124.891844
0
LINE
8
annotation
62
1
39
211
10
130.858634
20
124.891844
11
131.024778
21
124.906751
0
LINE
8
annotation
62
1
39
211
10
131.024778
20
124.906751
11
131.181113
21
124.949728
0
LINE
8
annotation
62
1
39
211
10
131.181113
20
124.949728
11
131.325040
21
125.018158
0
LINE
8
annotation
62
1
39
211
10
131.325040
20
125.018158
11
131.453958
21
125.109423
0
LINE
8
annotation
62
1
39
211
10
131.453958
20
125.109423
11
131.565267
21
125.220906
0
LINE
8
annotation
62
1
39
211
10
131.565267
20
125.220906
11
131.656368
21
125.349988
0
LINE
8
annotation
62
1
39
211
10
131.656368
20
125.349988
11
131.724659
21
125.494054
0
LINE
8
annotation
62
1
39
211
10
131.724659
20
125.494054
11
131.767540
21
125.650485
0
LINE
8
annotation
62
1
39
211
10
131.767540
20
125.650485
11
131.782412
21
125.816665
0
LINE
8
annotation
62
1
39
211
10
131.782412
20
125.816665
11
131.782412
21
126.276858
0
LINE
8
annotation
62
1
39
211
10
131.782412
20
126.276858
11
131.782412
21
126.276858
0
LINE
8
annotation
62
1
39
211
10
131.782412
20
126.276858
11
131.767540
21
126.442957
0
LINE
8
annotation
62
1
39
211
10
131.767540
20
126.442957
11
131.724659
21
126.599172
0
LINE
8
annotation
62
1
39
211
10
131.724659
20
126.599172
11
131.656368
21
126.742926
0
LINE
8
annotation
62
1
39
211
10
131.656368
20
126.742926
11
131.565267
21
126.871638
0
LINE
8
annotation
62
1
39
211
10
131.565267
20
126.871638
11
131.453958
21
126.982731
0
LINE
8
annotation
62
1
39
211
10
131.453958
20
126.982731
11
131.325040
21
127.073626
0
LINE
8
annotation
62
1
39
211
10
131.325040
20
127.073626
11
131.181113
21
127.141743
0
LINE
8
annotation
62
1
39
211
10
131.181113
20
127.141743
11
131.024778
21
127.184505
0
LINE
8
annotation
62
1
39
211
10
131.024778
20
127.184505
11
130.858634
21
127.199331
0
LINE
8
annotation
62
1
39
211
10
130.858634
20
127.199331
11
129.934856
21
127.199331
0
LINE
8
annotation
62
1
39
211
10
129.819156
20
124.371844
11
131.899156
21
124.371844
0
LINE
8
annotation
62
1
39
211
10
128.454232
20
148.821896
11
129.379053
21
152.981896
0
LINE
8
annotation
62
1
39
211
10
129.379053
20
152.981896
11
127.529150
21
152.981896
0
LINE
8
annotation
62
1
39
211
10
129.379053
20
151.129384
11
128.454232
21
151.129384
0
LINE
8
annotation
62
1
39
211
10
133.811793
20
173.674292
11
133.811793
21
173.674292
0
LINE
8
annotation
62
1
39
211
10
133.811793
20
173.674292
11
133.826708
21
173.508193
0
LINE
8
annotation
62
1
39
211
10
133.826708
20
173.508193
11
133.869696
21
173.351977
0
LINE
8
annotation
62
1
39
211
10
133.869696
20
173.351977
11
133.938127
21
173.208224
0
LINE
8
annotation
62
1
39
211
10
133.938127
20
173.208224
11
134.029367
21
173.079511
0
LINE
8
annotation
62
1
39
211
10
134.029367
20
173.079511
11
134.140783
21
172.968418
0
LINE
8
annotation
62
1
39
211
10
134.140783
20
172.968418
11
134.269744
21
172.877524
0
LINE
8
annotation
62
1
39
211
10
134.269744
20
172.877524
11
134.413618
21
172.809407
0
LINE
8
annotation
62
1
39
211
10
134.413618
20
172.809407
11
134.569771
21
172.766645
0
LINE
8
annotation
62
1
39
211
10
134.569771
20
172.766645
11
134.735571
21
172.751818
0
LINE
8
annotation
62
1
39
211
10
134.735571
20
172.751818
11
134.735571
21
172.751818
0
LINE
8
annotation
62
1
39
211
10
134.735571
20
172.751818
11
134.901371
21
172.766645
0
LINE
8
annotation
62
1
39
211
10
134.901371
20
172.766645
11
135.057524
21
172.809407
0
LINE
8
annotation
62
1
39
211
10
135.057524
20
172.809407
11
135.201397
21
172.877524
0
LINE
8
annotation
62
1
39
211
10
135.201397
20
172.877524
11
135.330358
21
172.968418
0
LINE
8
annotation
62
1
39
211
10
135.330358
20
172.968418
11
135.441775
21
173.079511
0
LINE
8
annotation
62
1
39
211
10
135.441775
20
173.079511
11
135.533015
21
173.208224
0
LINE
8
annotation
62
1
39
211
10
135.533015
20
173.208224
11
135.601445
21
173.351977
0
LINE
8
annotation
62
1
39
211
10
135.601445
20
173.351977
11
135.644434
21
173.508193
0
LINE
8
annotation
62
1
39
211
10
135.644434
20
173.508193
11
135.659348
21
173.674292
0
LINE
8
annotation
62
1
39
211
10
135.659348
20
173.674292
11
135.659348
21
174.134485
0
LINE
8
annotation
62
1
39
211
10
135.659348
20
174.134485
11
135.659348
21
174.134485
0
LINE
8
annotation
62
1
39
211
10
135.659348
20
174.134485
11
135.644442
21
174.300664
0
LINE
8
annotation
62
1
39
211
10
135.644442
20
174.300664
11
135.601475
21
174.457095
0
LINE
8
annotation
62
1
39
211
10
135.601475
20
174.457095
11
135.533073
21
174.601161
0
LINE
8
annotation
62
1
39
211
10
135.533073
20
174.601161
11
135.441861
21
174.730244
0
LINE
8
annotation
62
1
39
211
10
135.441861
20
174.730244
11
135.330466
21
174.841727
0
LINE
8
annotation
62
1
39
211
10
135.330466
20
174.841727
11
135.201513
21
174.932992
0
LINE
8
annotation
62
1
39
211
10
135.201513
20
174.932992
11
135.057629
21
175.001421
0
LINE
8
annotation
62
1
39
211
10
135.057629
20
175.001421
11
134.901440
21
175.044399
0
LINE
8
annotation
62
1
39
211
10
134.901440
20
175.044399
11
134.735571
21
175.059306
0
LINE
8
annotation
62
1
39
211
10
134.735571
20
175.059306
11
134.735571
21
175.059306
0
LINE
8
annotation
62
1
39
211
10
134.735571
20
175.059306
11
134.569702
21
175.044390
0
LINE
8
annotation
62
1
39
211
10
134.569702
20
175.044390
11
134.413513
21
175.001391
0
LINE
8
annotation
62
1
39
211
10
134.413513
20
175.001391
11
134.269629
21
174.932934
0
LINE
8
annotation
62
1
39
211
10
134.269629
20
174.932934
11
134.140676
21
174.841641
0
LINE
8
annotation
62
1
39
211
10
134.140676
20
174.841641
11
134.029281
21
174.730137
0
LINE
8
annotation
62
1
39
211
10
134.029281
20
174.730137
11
133.938069
21
174.601045
0
LINE
8
annotation
62
1
39
211
10
133.938069
20
174.601045
11
133.869666
21
174.456990
0
LINE
8
annotation
62
1
39
211
10
133.869666
20
174.456990
11
133.826699
21
174.300595
0
LINE
8
annotation
62
1
39
211
10
133.826699
20
174.300595
11
133.811793
21
174.134485
0
LINE
8
annotation
62
1
39
211
10
133.811793
20
174.134485
11
133.811793
21
173.674292
0
LINE
8
annotation
62
1
39
211
10
135.659348
20
175.984388
11
135.659348
21
175.984388
0
LINE
8
annotation
62
1
39
211
10
135.659348
20
175.984388
11
135.644442
21
176.149800
0
LINE
8
annotation
62
1
39
211
10
135.644442
20
176.149800
11
135.601475
21
176.305650
0
LINE
8
annotation
62
1
39
211
10
135.601475
20
176.305650
11
135.533073
21
176.449296
0
LINE
8
annotation
62
1
39
211
10
135.533073
20
176.449296
11
135.441861
21
176.578095
0
LINE
8
annotation
62
1
39
211
10
135.441861
20
176.578095
11
135.330466
21
176.689402
0
LINE
8
annotation
62
1
39
211
10
135.330466
20
176.689402
11
135.201513
21
176.780576
0
LINE
8
annotation
62
1
39
211
10
135.201513
20
176.780576
11
135.057629
21
176.848972
0
LINE
8
annotation
62
1
39
211
10
135.057629
20
176.848972
11
134.901440
21
176.891949
0
LINE
8
annotation
62
1
39
211
10
134.901440
20
176.891949
11
134.735571
21
176.906861
0
LINE
8
annotation
62
1
39
211
10
134.735571
20
176.906861
11
134.735571
21
176.906861
0
LINE
8
annotation
62
1
39
211
10
134.735571
20
176.906861
11
134.569702
21
176.891949
0
LINE
8
annotation
62
1
39
211
10
134.569702
20
176.891949
11
134.413513
21
176.848972
0
LINE
8
annotation
62
1
39
211
10
134.413513
20
176.848972
11
134.269629
21
176.780576
0
LINE
8
annotation
62
1
39
211
10
134.269629
20
176.780576
11
134.140676
21
176.689402
0
LINE
8
annotation
62
1
39
211
10
134.140676
20
176.689402
11
134.029281
21
176.578095
0
LINE
8
annotation
62
1
39
211
10
134.029281
20
176.578095
11
133.938069
21
176.449296
0
LINE
8
annotation
62
1
39
211
10
133.938069
20
176.449296
11
133.869666
21
176.305650
0
LINE
8
annotation
62
1
39
211
10
133.869666
20
176.305650
11
133.826699
21
176.149800
0
LINE
8
annotation
62
1
39
211
10
133.826699
20
176.149800
11
133.811793
21
175.984388
0
LINE
8
annotation
62
1
39
211
10
133.811793
20
175.984388
11
133.811793
21
175.984388
0
LINE
8
annotation
62
1
39
211
10
133.811793
20
175.984388
11
133.826708
21
175.818200
0
LINE
8
annotation
62
1
39
211
10
133.826708
20
175.818200
11
133.869696
21
175.661744
0
LINE
8
annotation
62
1
39
211
10
133.869696
20
175.661744
11
133.938127
21
175.517644
0
LINE
8
annotation
62
1
39
211
10
133.938127
20
175.517644
11
134.029367
21
175.388520
0
LINE
8
annotation
62
1
39
211
10
134.029367
20
175.388520
11
134.140783
21
175.276994
0
LINE
8
annotation
62
1
39
211
10
134.140783
20
175.276994
11
134.269744
21
175.185688
0
LINE
8
annotation
62
1
39
211
10
134.269744
20
175.185688
11
134.413618
21
175.117224
0
LINE
8
annotation
62
1
39
211
10
134.413618
20
175.117224
11
134.569771
21
175.074222
0
LINE
8
annotation
62
1
39
211
10
134.569771
20
175.074222
11
134.735571
21
175.059306
0
LINE
8
annotation
62
1
39
211
10
134.735571
20
175.059306
11
134.735571
21
175.059306
0
LINE
8
annotation
62
1
39
211
10
134.735571
20
175.059306
11
134.901371
21
175.074222
0
LINE
8
annotation
62
1
39
211
10
134.901371
20
175.074222
11
135.057524
21
175.117224
0
LINE
8
annotation
62
1
39
211
10
135.057524
20
175.117224
11
135.201397
21
175.185688
0
LINE
8
annotation
62
1
39
211
10
135.201397
20
175.185688
11
135.330358
21
175.276994
0
LINE
8
annotation
62
1
39
211
10
135.330358
20
175.276994
11
135.441775
21
175.388520
0
LINE
8
annotation
62
1
39
211
10
135.441775
20
175.388520
11
135.533015
21
175.517644
0
LINE
8
annotation
62
1
39
211
10
135.533015
20
175.517644
11
135.601445
21
175.661744
0
LINE
8
annotation
62
1
39
211
10
135.601445
20
175.661744
11
135.644434
21
175.818200
0
LINE
8
annotation
62
1
39
211
10
135.644434
20
175.818200
11
135.659348
21
175.984388
0
LINE
8
annotation
62
1
39
211
10
133.969552
20
196.682001
11
133.969552
21
196.682001
0
LINE
8
annotation
62
1
39
211
10
133.969552
20
196.682001
11
134.233725
21
196.780445
0
LINE
8
annotation
62
1
39
211
10
134.233725
20
196.780445
11
134.476204
21
196.913510
0
LINE
8
annotation
62
1
39
211
10
134.476204
20
196.913510
11
134.694481
21
197.077805
0
LINE
8
annotation
62
1
39
211
10
134.694481
20
197.077805
11
134.886052
21
197.269941
0
LINE
8
annotation
62
1
39
211
10
134.886052
20
197.269941
11
135.048411
21
197.486526
0
LINE
8
annotation
62
1
39
211
10
135.048411
20
197.486526
11
135.179052
21
197.724170
0
LINE
8
annotation
62
1
39
211
10
135.179052
20
197.724170
11
135.275469
21
197.979484
0
LINE
8
annotation
62
1
39
211
10
135.275469
20
197.979484
11
135.335157
21
198.249076
0
LINE
8
annotation
62
1
39
211
10
135.335157
20
198.249076
11
135.355610
21
198.529557
0
LINE
8
annotation
62
1
39
211
10
135.355610
20
198.529557
11
135.355610
21
199.916919
0
LINE
8
annotation
62
1
39
211
10
135.355610
20
199.916919
11
135.355610
21
199.916919
0
LINE
8
annotation
62
1
39
211
10
135.355610
20
199.916919
11
135.340738
21
200.083107
0
LINE
8
annotation
62
1
39
211
10
135.340738
20
200.083107
11
135.297857
21
200.239563
0
LINE
8
annotation
62
1
39
211
10
135.297857
20
200.239563
11
135.229566
21
200.383663
0
LINE
8
annotation
62
1
39
211
10
135.229566
20
200.383663
11
135.138466
21
200.512787
0
LINE
8
annotation
62
1
39
211
10
135.138466
20
200.512787
11
135.027157
21
200.624313
0
LINE
8
annotation
62
1
39
211
10
135.027157
20
200.624313
11
134.898238
21
200.715619
0
LINE
8
annotation
62
1
39
211
10
134.898238
20
200.715619
11
134.754311
21
200.784084
0
LINE
8
annotation
62
1
39
211
10
134.754311
20
200.784084
11
134.597976
21
200.827085
0
LINE
8
annotation
62
1
39
211
10
134.597976
20
200.827085
11
134.431832
21
200.842001
0
LINE
8
annotation
62
1
39
211
10
134.431832
20
200.842001
11
134.431832
21
200.842001
0
LINE
8
annotation
62
1
39
211
10
134.431832
20
200.842001
11
134.266032
21
200.827085
0
LINE
8
annotation
62
1
39
211
10
134.266032
20
200.827085
11
134.109879
21
200.784084
0
LINE
8
annotation
62
1
39
211
10
134.109879
20
200.784084
11
133.966006
21
200.715619
0
LINE
8
annotation
62
1
39
211
10
133.966006
20
200.715619
11
133.837045
21
200.624313
0
LINE
8
annotation
62
1
39
211
10
133.837045
20
200.624313
11
133.725628
21
200.512787
0
LINE
8
annotation
62
1
39
211
10
133.725628
20
200.512787
11
133.634388
21
200.383663
0
LINE
8
annotation
62
1
39
211
10
133.634388
20
200.383663
11
133.565958
21
200.239563
0
LINE
8
annotation
62
1
39
211
10
133.565958
20
200.239563
11
133.522969
21
200.083107
0
LINE
8
annotation
62
1
39
211
10
133.522969
20
200.083107
11
133.508055
21
199.916919
0
LINE
8
annotation
62
1
39
211
10
133.508055
20
199.916919
11
133.508055
21
199.454378
0
LINE
8
annotation
62
1
39
211
10
133.508055
20
199.454378
11
133.508055
21
199.454378
0
LINE
8
annotation
62
1
39
211
10
133.508055
20
199.454378
11
133.522969
21
199.288198
0
LINE
8
annotation
62
1
39
211
10
133.522969
20
199.288198
11
133.565958
21
199.131767
0
LINE
8
annotation
62
1
39
211
10
133.565958
20
199.131767
11
133.634388
21
198.987701
0
LINE
8
annotation
62
1
39
211
10
133.634388
20
198.987701
11
133.725628
21
198.858619
0
LINE
8
annotation
62
1
39
211
10
133.725628
20
198.858619
11
133.837045
21
198.747136
0
LINE
8
annotation
62
1
39
211
10
133.837045
20
198.747136
11
133.966006
21
198.655871
0
LINE
8
annotation
62
1
39
211
10
133.966006
20
198.655871
11
134.109879
21
198.587441
0
LINE
8
annotation
62
1
39
211
10
134.109879
20
198.587441
11
134.266032
21
198.544464
0
LINE
8
annotation
62
1
39
211
10
134.266032
20
198.544464
11
134.431832
21
198.529557
0
LINE
8
annotation
62
1
39
211
10
134.431832
20
198.529557
11
135.355610
21
198.529557
0
LINE
8
annotation
62
1
39
211
10
133.392615
20
196.162001
11
135.472615
21
196.162001
0
LINE
8
annotation
62
1
39
211
10
132.777233
20
220.691042
11
132.777233
21
224.693066
0
LINE
8
annotation
62
1
39
211
10
132.777233
20
224.693066
11
131.887532
21
223.803113
0
LINE
8
annotation
62
1
39
211
10
134.920698
20
220.743830
11
134.920698
21
220.743830
0
LINE
8
annotation
62
1
39
211
10
134.920698
20
220.743830
11
135.013710
21
220.709060
0
LINE
8
annotation
62
1
39
211
10
135.013710
20
220.709060
11
135.109101
21
220.691785
0
LINE
8
annotation
62
1
39
211
10
135.109101
20
220.691785
11
135.204716
21
220.691302
0
LINE
8
annotation
62
1
39
211
10
135.204716
20
220.691302
11
135.298397
21
220.706906
0
LINE
8
annotation
62
1
39
211
10
135.298397
20
220.706906
11
135.387989
21
220.737893
0
LINE
8
annotation
62
1
39
211
10
135.387989
20
220.737893
11
135.471334
21
220.783558
0
LINE
8
annotation
62
1
39
211
10
135.471334
20
220.783558
11
135.546275
21
220.843197
0
LINE
8
annotation
62
1
39
211
10
135.546275
20
220.843197
11
135.610658
21
220.916106
0
LINE
8
annotation
62
1
39
211
10
135.610658
20
220.916106
11
135.662324
21
221.001580
0
LINE
8
annotation
62
1
39
211
10
135.662324
20
221.001580
11
135.662324
21
221.001580
0
LINE
8
annotation
62
1
39
211
10
135.662324
20
221.001580
11
135.816478
21
221.362414
0
LINE
8
annotation
62
1
39
211
10
135.816478
20
221.362414
11
135.932093
21
221.733692
0
LINE
8
annotation
62
1
39
211
10
135.932093
20
221.733692
11
136.009170
21
222.112454
0
LINE
8
annotation
62
1
39
211
10
136.009170
20
222.112454
11
136.047708
21
222.495739
0
LINE
8
annotation
62
1
39
211
10
136.047708
20
222.495739
11
136.047708
21
222.880588
0
LINE
8
annotation
62
1
39
211
10
136.047708
20
222.880588
11
136.009170
21
223.264041
0
LINE
8
annotation
62
1
39
211
10
136.009170
20
223.264041
11
135.932093
21
223.643137
0
LINE
8
annotation
62
1
39
211
10
135.932093
20
223.643137
11
135.816478
21
224.014917
0
LINE
8
annotation
62
1
39
211
10
135.816478
20
224.014917
11
135.662324
21
224.376421
0
LINE
8
annotation
62
1
39
211
10
135.662324
20
224.376421
11
135.662324
21
224.376421
0
LINE
8
annotation
62
1
39
211
10
135.662324
20
224.376421
11
135.642721
21
224.412904
0
LINE
8
annotation
62
1
39
211
10
135.642721
20
224.412904
11
135.620495
21
224.447785
0
LINE
8
annotation
62
1
39
211
10
135.620495
20
224.447785
11
135.595816
21
224.480891
0
LINE
8
annotation
62
1
39
211
10
135.595816
20
224.480891
11
135.568851
21
224.512051
0
LINE
8
annotation
62
1
39
211
10
135.568851
20
224.512051
11
135.539766
21
224.541094
0
LINE
8
annotation
62
1
39
211
10
135.539766
20
224.541094
11
135.508729
21
224.567848
0
LINE
8
annotation
62
1
39
211
10
135.508729
20
224.567848
11
135.475907
21
224.592143
0
LINE
8
annotation
62
1
39
211
10
135.475907
20
224.592143
11
135.441468
21
224.613805
0
LINE
8
annotation
62
1
39
211
10
135.441468
20
224.613805
11
135.405578
21
224.632665
0
LINE
8
annotation
62
1
39
211
10
135.405578
20
224.632665
11
135.405578
21
224.632665
0
LINE
8
annotation
62
1
39
211
10
135.405578
20
224.632665
11
135.311828
21
224.668189
0
LINE
8
annotation
62
1
39
211
10
135.311828
20
224.668189
11
135.215878
21
224.686053
0
LINE
8
annotation
62
1
39
211
10
135.215878
20
224.686053
11
135.119859
21
224.686968
0
LINE
8
annotation
62
1
39
211
10
135.119859
20
224.686968
11
135.025904
21
224.671640
0
LINE
8
annotation
62
1
39
211
10
135.025904
20
224.671640
11
134.936144
21
224.640779
0
LINE
8
annotation
62
1
39
211
10
134.936144
20
224.640779
11
134.852712
21
224.595093
0
LINE
8
annotation
62
1
39
211
10
134.852712
20
224.595093
11
134.777738
21
224.535290
0
LINE
8
annotation
62
1
39
211
10
134.777738
20
224.535290
11
134.713354
21
224.462080
0
LINE
8
annotation
62
1
39
211
10
134.713354
20
224.462080
11
134.661693
21
224.376170
0
LINE
8
annotation
62
1
39
211
10
134.661693
20
224.376170
11
134.661693
21
224.376170
0
LINE
8
annotation
62
1
39
211
10
134.661693
20
224.376170
11
134.508283
21
224.015410
0
LINE
8
annotation
62
1
39
211
10
134.508283
20
224.015410
11
134.393226
21
223.644188
0
LINE
8
annotation
62
1
39
211
10
134.393226
20
223.644188
11
134.316521
21
223.265463
0
LINE
8
annotation
62
1
39
211
10
134.316521
20
223.265463
11
134.278168
21
222.882196
0
LINE
8
annotation
62
1
39
211
10
134.278168
20
222.882196
11
134.278168
21
222.497347
0
LINE
8
annotation
62
1
39
211
10
134.278168
20
222.497347
11
134.316521
21
222.113876
0
LINE
8
annotation
62
1
39
211
10
134.316521
20
222.113876
11
134.393226
21
221.734742
0
LINE
8
annotation
62
1
39
211
10
134.393226
20
221.734742
11
134.508283
21
221.362906
0
LINE
8
annotation
62
1
39
211
10
134.508283
20
221.362906
11
134.661693
21
221.001329
0
LINE
8
annotation
62
1
39
211
10
134.661693
20
221.001329
11
134.661693
21
221.001329
0
LINE
8
annotation
62
1
39
211
10
134.661693
20
221.001329
11
134.681225
21
220.964918
0
LINE
8
annotation
62
1
39
211
10
134.681225
20
220.964918
11
134.703286
21
220.930211
0
LINE
8
annotation
62
1
39
211
10
134.703286
20
220.930211
11
134.727783
21
220.897314
0
LINE
8
annotation
62
1
39
211
10
134.727783
20
220.897314
11
134.754621
21
220.866332
0
LINE
8
annotation
62
1
39
211
10
134.754621
20
220.866332
11
134.783709
21
220.837370
0
LINE
8
annotation
62
1
39
211
10
134.783709
20
220.837370
11
134.814954
21
220.810533
0
LINE
8
annotation
62
1
39
211
10
134.814954
20
220.810533
11
134.848262
21
220.785927
0
LINE
8
annotation
62
1
39
211
10
134.848262
20
220.785927
11
134.883541
21
220.763658
0
LINE
8
annotation
62
1
39
211
10
134.883541
20
220.763658
11
134.920698
21
220.743830
0
LINE
8
annotation
62
1
39
211
10
146.346749
20
246.123760
11
146.346749
21
247.120452
0
LINE
8
annotation
62
1
39
211
10
146.346749
20
247.120452
11
146.125171
21
246.898812
0
LINE
8
annotation
62
1
39
211
10
146.942085
20
246.123760
11
146.942085
21
247.120452
0
LINE
8
annotation
62
1
39
211
10
146.942085
20
247.120452
11
146.720508
21
246.898812
0
LINE
8
annotation
62
1
39
211
10
131.601337
20
13.603740
11
126.791338
21
13.603740
0
LINE
8
annotation
62
1
39
211
10
126.791338
20
13.603740
11
131.601337
21
22.266519
0
LINE
8
annotation
62
1
39
211
10
131.601337
20
22.266519
11
126.791338
21
22.266519
0
LINE
8
annotation
62
1
39
211
10
139.587354
20
17.935130
11
134.850694
21
17.935130
0
LINE
8
annotation
62
1
39
211
10
145.724666
20
22.266519
11
145.724666
21
22.266519
0
LINE
8
annotation
62
1
39
211
10
145.724666
20
22.266519
11
145.173582
21
22.059896
0
LINE
8
annotation
62
1
39
211
10
145.173582
20
22.059896
11
144.667890
21
21.781496
0
LINE
8
annotation
62
1
39
211
10
144.667890
20
21.781496
11
144.212781
21
21.438293
0
LINE
8
annotation
62
1
39
211
10
144.212781
20
21.438293
11
143.813447
21
21.037265
0
LINE
8
annotation
62
1
39
211
10
143.813447
20
21.037265
11
143.475078
21
20.585384
0
LINE
8
annotation
62
1
39
211
10
143.475078
20
20.585384
11
143.202866
21
20.089627
0
LINE
8
annotation
62
1
39
211
10
143.202866
20
20.089627
11
143.002002
21
19.556969
0
LINE
8
annotation
62
1
39
211
10
143.002002
20
19.556969
11
142.877676
21
18.994385
0
LINE
8
annotation
62
1
39
211
10
142.877676
20
18.994385
11
142.835081
21
18.408850
0
LINE
8
annotation
62
1
39
211
10
142.835081
20
18.408850
11
142.835081
21
15.529587
0
LINE
8
annotation
62
1
39
211
10
142.835081
20
15.529587
11
142.835081
21
15.529587
0
LINE
8
annotation
62
1
39
211
10
142.835081
20
15.529587
11
142.866139
21
15.183535
0
LINE
8
annotation
62
1
39
211
10
142.866139
20
15.183535
11
142.955659
21
14.857783
0
LINE
8
annotation
62
1
39
211
10
142.955659
20
14.857783
11
143.098158
21
14.557780
0
LINE
8
annotation
62
1
39
211
10
143.098158
20
14.557780
11
143.288156
21
14.288978
0
LINE
8
annotation
62
1
39
211
10
143.288156
20
14.288978
11
143.520170
21
14.056827
0
LINE
8
annotation
62
1
39
211
10
143.520170
20
14.056827
11
143.788719
21
13.866777
0
LINE
8
annotation
62
1
39
211
10
143.788719
20
13.866777
11
144.088320
21
13.724279
0
LINE
8
annotation
62
1
39
211
10
144.088320
20
13.724279
11
144.413493
21
13.634783
0
LINE
8
annotation
62
1
39
211
10
144.413493
20
13.634783
11
144.758754
21
13.603740
0
LINE
8
annotation
62
1
39
211
10
144.758754
20
13.603740
11
144.758754
21
13.603740
0
LINE
8
annotation
62
1
39
211
10
144.758754
20
13.603740
11
145.104732
21
13.634783
0
LINE
8
annotation
62
1
39
211
10
145.104732
20
13.634783
11
145.430284
21
13.724279
0
LINE
8
annotation
62
1
39
211
10
145.430284
20
13.724279
11
145.729998
21
13.866777
0
LINE
8
annotation
62
1
39
211
10
145.729998
20
13.866777
11
145.998457
21
14.056827
0
LINE
8
annotation
62
1
39
211
10
145.998457
20
14.056827
11
146.230247
21
14.288978
0
LINE
8
annotation
62
1
39
211
10
146.230247
20
14.288978
11
146.419954
21
14.557780
0
LINE
8
annotation
62
1
39
211
10
146.419954
20
14.557780
11
146.562163
21
14.857783
0
LINE
8
annotation
62
1
39
211
10
146.562163
20
14.857783
11
146.651460
21
15.183535
0
LINE
8
annotation
62
1
39
211
10
146.651460
20
15.183535
11
146.682428
21
15.529587
0
LINE
8
annotation
62
1
39
211
10
146.682428
20
15.529587
11
146.682428
21
16.487893
0
LINE
8
annotation
62
1
39
211
10
146.682428
20
16.487893
11
146.682428
21
16.487893
0
LINE
8
annotation
62
1
39
211
10
146.682428
20
16.487893
11
146.651460
21
16.833777
0
LINE
8
annotation
62
1
39
211
10
146.651460
20
16.833777
11
146.562163
21
17.159080
0
LINE
8
annotation
62
1
39
211
10
146.562163
20
17.159080
11
146.419954
21
17.458432
0
LINE
8
annotation
62
1
39
211
10
146.419954
20
17.458432
11
146.230247
21
17.726462
0
LINE
8
annotation
62
1
39
211
10
146.230247
20
17.726462
11
145.998457
21
17.957802
0
LINE
8
annotation
62
1
39
211
10
145.998457
20
17.957802
11
145.729998
21
18.147080
0
LINE
8
annotation
62
1
39
211
10
145.729998
20
18.147080
11
145.430284
21
18.288928
0
LINE
8
annotation
62
1
39
211
10
145.430284
20
18.288928
11
145.104732
21
18.377974
0
LINE
8
annotation
62
1
39
211
10
145.104732
20
18.377974
11
144.758754
21
18.408850
0
LINE
8
annotation
62
1
39
211
10
144.758754
20
18.408850
11
142.835081
21
18.408850
0
LINE
8
annotation
62
1
39
211
10
142.594146
20
12.520893
11
146.925536
21
12.520893
0
LINE
8
frame
62
5
39
2
10
0.000000
20
0.000000
11
200.000000
21
0.000000
0
LINE
8
frame
62
5
39
2
10
200.000000
20
0.000000
11
200.000000
21
296.926000
0
LINE
8
frame
62
5
39
2
10
200.000000
20
296.926000
11
0.000000
21
296.926000
0
LINE
8
frame
62
5
39
2
10
0.000000
20
296.926000
11
0.000000
21
0.000000
0
ENDSEC
0
EOF
