0
SECTION
2
HEADER
9
$ACADVER
1
AC1009
0
ENDSEC
0
SECTION
2
TABLES
0
TABLE
2
VPORT
70
1
0
VPORT
2
ACTIVE
70
0
10
0.0
20
0.0
11
0.0
21
0.0
12
0.0
22
0.0
13
0.0
23
0.0
14
0.0
24
0.0
15
0.0
25
0.0
16
0.0
26
0.0
36
0.0
17
0.0
27
0.0
37
0.0
40
0.0
41
0.0
42
0.0
43
0.0
44
0.0
50
0.0
51
0.0
71
0
72
1000
73
1
74
3
75
0
76
0
77
0
78
0
0
ENDTAB
0
ENDSEC
0
SECTION
2
ENTITIES
0
LINE
8
boundary
62
5
39
2
10
79.708528
20
6.692900
11
138.257435
21
6.692900
0
LINE
8
boundary
62
5
39
2
10
138.257435
20
6.692900
11
138.282835
21
6.667500
0
LINE
8
boundary
62
5
39
2
10
138.282835
20
6.667500
11
138.308235
21
6.692900
0
LINE
8
boundary
62
5
39
2
10
138.308235
20
6.692900
11
196.857142
21
6.692900
0
LINE
8
boundary
62
5
39
2
10
196.857142
20
6.692900
11
233.361772
21
52.468252
0
LINE
8
boundary
62
5
39
2
10
233.361772
20
52.468252
11
233.397468
21
52.472274
0
LINE
8
boundary
62
5
39
2
10
233.397468
20
52.472274
11
233.393446
21
52.507969
0
LINE
8
boundary
62
5
39
2
10
233.393446
20
52.507969
11
269.898076
21
98.283322
0
LINE
8
boundary
62
5
39
2
10
269.898076
20
98.283322
11
256.869754
21
155.364278
0
LINE
8
boundary
62
5
39
2
10
256.869754
20
155.364278
11
256.888865
21
155.394693
0
LINE
8
boundary
62
5
39
2
10
256.888865
20
155.394693
11
256.858450
21
155.413805
0
LINE
8
boundary
62
5
39
2
10
256.858450
20
155.413805
11
243.830128
21
212.494761
0
LINE
8
boundary
62
5
39
2
10
243.830128
20
212.494761
11
191.079365
21
237.898254
0
LINE
8
boundary
62
5
39
2
10
191.079365
20
237.898254
11
191.067502
21
237.932160
0
LINE
8
boundary
62
5
39
2
10
191.067502
20
237.932160
11
191.033596
21
237.920296
0
LINE
8
boundary
62
5
39
2
10
191.033596
20
237.920296
11
138.282834
21
263.323789
0
LINE
8
boundary
62
5
39
2
10
138.282834
20
263.323789
11
143.204815
21
202.698609
0
LINE
8
boundary
62
5
39
2
10
143.204815
20
202.698609
11
143.181553
21
202.671237
0
LINE
8
boundary
62
5
39
2
10
143.181553
20
202.671237
11
143.208925
21
202.647976
0
LINE
8
boundary
62
5
39
2
10
143.208925
20
202.647976
11
148.130906
21
142.022795
0
LINE
8
boundary
62
5
39
2
10
148.130906
20
142.022795
11
148.635730
21
141.779683
0
LINE
8
boundary
62
5
39
2
10
148.635730
20
141.779683
11
148.647594
21
141.745778
0
LINE
8
boundary
62
5
39
2
10
148.647594
20
141.745778
11
148.681499
21
141.757642
0
LINE
8
boundary
62
5
39
2
10
148.681499
20
141.757642
11
149.186323
21
141.514530
0
LINE
8
boundary
62
5
39
2
10
149.186323
20
141.514530
11
149.311188
21
140.967694
0
LINE
8
boundary
62
5
39
2
10
149.311188
20
140.967694
11
149.292080
21
140.937277
0
LINE
8
boundary
62
5
39
2
10
149.292080
20
140.937277
11
149.322497
21
140.918169
0
LINE
8
boundary
62
5
39
2
10
149.322497
20
140.918169
11
149.447363
21
140.371333
0
LINE
8
boundary
62
5
39
2
10
149.447363
20
140.371333
11
140.367589
21
129.410677
0
LINE
8
boundary
62
5
39
2
10
140.367589
20
129.410677
11
140.331825
21
129.407321
0
LINE
8
boundary
62
5
39
2
10
140.331825
20
129.407321
11
140.335181
21
129.371557
0
LINE
8
boundary
62
5
39
2
10
140.335181
20
129.371557
11
131.255407
21
118.410902
0
LINE
8
boundary
62
5
39
2
10
131.255407
20
118.410902
11
130.151206
21
116.606301
0
LINE
8
boundary
62
5
39
2
10
130.151206
20
116.606301
11
130.116283
21
116.597892
0
LINE
8
boundary
62
5
39
2
10
130.116283
20
116.597892
11
130.124692
21
116.562969
0
LINE
8
boundary
62
5
39
2
10
130.124692
20
116.562969
11
129.020491
21
114.758369
0
LINE
8
boundary
62
5
39
2
10
129.020491
20
114.758369
11
128.460126
21
114.758391
0
LINE
8
boundary
62
5
39
2
10
128.460126
20
114.758391
11
128.434727
21
114.783792
0
LINE
8
boundary
62
5
39
2
10
128.434727
20
114.783792
11
128.409326
21
114.758393
0
LINE
8
boundary
62
5
39
2
10
128.409326
20
114.758393
11
127.848961
21
114.758415
0
LINE
8
boundary
62
5
39
2
10
127.848961
20
114.758415
11
127.499632
21
115.196468
0
LINE
8
boundary
62
5
39
2
10
127.499632
20
115.196468
11
127.503655
21
115.232163
0
LINE
8
boundary
62
5
39
2
10
127.503655
20
115.232163
11
127.467960
21
115.236186
0
LINE
8
boundary
62
5
39
2
10
127.467960
20
115.236186
11
127.118631
21
115.674239
0
LINE
8
boundary
62
5
39
2
10
127.118631
20
115.674239
11
127.243176
21
116.220630
0
LINE
8
boundary
62
5
39
2
10
127.243176
20
116.220630
11
127.273585
21
116.239750
0
LINE
8
boundary
62
5
39
2
10
127.273585
20
116.239750
11
127.254465
21
116.270160
0
LINE
8
boundary
62
5
39
2
10
127.254465
20
116.270160
11
127.379010
21
116.816550
0
LINE
8
boundary
62
5
39
2
10
127.379010
20
116.816550
11
137.211392
21
129.145657
0
LINE
8
boundary
62
5
39
2
10
137.211392
20
129.145657
11
137.247087
21
129.149679
0
LINE
8
boundary
62
5
39
2
10
137.247087
20
129.149679
11
137.243065
21
129.185374
0
LINE
8
boundary
62
5
39
2
10
137.243065
20
129.185374
11
147.075447
21
141.514481
0
LINE
8
boundary
62
5
39
2
10
147.075447
20
141.514481
11
142.680969
21
202.393801
0
LINE
8
boundary
62
5
39
2
10
142.680969
20
202.393801
11
142.704474
21
202.420964
0
LINE
8
boundary
62
5
39
2
10
142.704474
20
202.420964
11
142.677311
21
202.444469
0
LINE
8
boundary
62
5
39
2
10
142.677311
20
202.444469
11
138.282834
21
263.323789
0
LINE
8
boundary
62
5
39
2
10
138.282834
20
263.323789
11
85.532139
21
237.920376
0
LINE
8
boundary
62
5
39
2
10
85.532139
20
237.920376
11
85.498234
21
237.932240
0
LINE
8
boundary
62
5
39
2
10
85.498234
20
237.932240
11
85.486370
21
237.898335
0
LINE
8
boundary
62
5
39
2
10
85.486370
20
237.898335
11
32.735675
21
212.494922
0
LINE
8
boundary
62
5
39
2
10
32.735675
20
212.494922
11
19.707239
21
155.413929
0
LINE
8
boundary
62
5
39
2
10
19.707239
20
155.413929
11
19.676824
21
155.394818
0
LINE
8
boundary
62
5
39
2
10
19.676824
20
155.394818
11
19.695935
21
155.364403
0
LINE
8
boundary
62
5
39
2
10
19.695935
20
155.364403
11
6.667500
21
98.283410
0
LINE
8
boundary
62
5
39
2
10
6.667500
20
98.283410
11
43.172177
21
52.508013
0
LINE
8
boundary
62
5
39
2
10
43.172177
20
52.508013
11
43.168156
21
52.472318
0
LINE
8
boundary
62
5
39
2
10
43.168156
20
52.472318
11
43.203851
21
52.468296
0
LINE
8
boundary
62
5
39
2
10
43.203851
20
52.468296
11
79.708528
21
6.692900
0
LINE
8
annotation
62
1
39
211
10
187.854610
20
87.057109
11
197.320690
21
129.637114
0
LINE
8
annotation
62
1
39
211
10
197.320690
20
129.637114
11
178.385859
21
129.637114
0
LINE
8
annotation
62
1
39
211
10
197.320690
20
110.675581
11
187.854610
21
110.675581
0
LINE
8
annotation
62
1
39
211
10
222.756943
20
87.057109
11
222.756943
21
129.637114
0
LINE
8
annotation
62
1
39
211
10
222.756943
20
129.637114
11
213.290862
21
120.168364
0
LINE
8
annotation
62
1
39
211
10
138.285099
20
6.698931
11
138.290456
21
6.698931
0
LINE
8
annotation
62
1
39
211
10
138.290456
20
6.698931
11
138.285506
21
6.690962
0
LINE
8
annotation
62
1
39
211
10
138.285506
20
6.690962
11
138.285506
21
6.690962
0
LINE
8
annotation
62
1
39
211
10
138.285506
20
6.690962
11
138.285500
21
6.690955
0
LINE
8
annotation
62
1
39
211
10
138.285500
20
6.690955
11
138.285494
21
6.690948
0
LINE
8
annotation
62
1
39
211
10
138.285494
20
6.690948
11
138.285489
21
6.690940
0
LINE
8
annotation
62
1
39
211
10
138.285489
20
6.690940
11
138.285484
21
6.690932
0
LINE
8
annotation
62
1
39
211
10
138.285484
20
6.690932
11
138.285478
21
6.690924
0
LINE
8
annotation
62
1
39
211
10
138.285478
20
6.690924
11
138.285473
21
6.690916
0
LINE
8
annotation
62
1
39
211
10
138.285473
20
6.690916
11
138.285468
21
6.690908
0
LINE
8
annotation
62
1
39
211
10
138.285468
20
6.690908
11
138.285463
21
6.690898
0
LINE
8
annotation
62
1
39
211
10
138.285463
20
6.690898
11
138.285458
21
6.690889
0
LINE
8
annotation
62
1
39
211
10
138.285458
20
6.690889
11
138.285458
21
6.690889
0
LINE
8
annotation
62
1
39
211
10
138.285458
20
6.690889
11
138.285254
21
6.690450
0
LINE
8
annotation
62
1
39
211
10
138.285254
20
6.690450
11
138.285134
21
6.689995
0
LINE
8
annotation
62
1
39
211
10
138.285134
20
6.689995
11
138.285097
21
6.689535
0
LINE
8
annotation
62
1
39
211
10
138.285097
20
6.689535
11
138.285139
21
6.689078
0
LINE
8
annotation
62
1
39
211
10
138.285139
20
6.689078
11
138.285257
21
6.688637
0
LINE
8
annotation
62
1
39
211
10
138.285257
20
6.688637
11
138.285448
21
6.688221
0
LINE
8
annotation
62
1
39
211
10
138.285448
20
6.688221
11
138.285710
21
6.687840
0
LINE
8
annotation
62
1
39
211
10
138.285710
20
6.687840
11
138.286039
21
6.687504
0
LINE
8
annotation
62
1
39
211
10
138.286039
20
6.687504
11
138.286432
21
6.687225
0
LINE
8
annotation
62
1
39
211
10
138.286432
20
6.687225
11
138.286432
21
6.687225
0
LINE
8
annotation
62
1
39
211
10
138.286432
20
6.687225
11
138.286872
21
6.687023
0
LINE
8
annotation
62
1
39
211
10
138.286872
20
6.687023
11
138.287328
21
6.686906
0
LINE
8
annotation
62
1
39
211
10
138.287328
20
6.686906
11
138.287789
21
6.686870
0
LINE
8
annotation
62
1
39
211
10
138.287789
20
6.686870
11
138.288245
21
6.686912
0
LINE
8
annotation
62
1
39
211
10
138.288245
20
6.686912
11
138.288686
21
6.687030
0
LINE
8
annotation
62
1
39
211
10
138.288686
20
6.687030
11
138.289102
21
6.687222
0
LINE
8
annotation
62
1
39
211
10
138.289102
20
6.687222
11
138.289482
21
6.687484
0
LINE
8
annotation
62
1
39
211
10
138.289482
20
6.687484
11
138.289817
21
6.687815
0
LINE
8
annotation
62
1
39
211
10
138.289817
20
6.687815
11
138.290096
21
6.688211
0
LINE
8
annotation
62
1
39
211
10
138.290096
20
6.688211
11
138.290448
21
6.688885
0
LINE
8
annotation
62
1
39
211
10
138.275217
20
6.698931
11
138.280574
21
6.698931
0
LINE
8
annotation
62
1
39
211
10
138.280574
20
6.698931
11
138.275624
21
6.690962
0
LINE
8
annotation
62
1
39
211
10
138.275624
20
6.690962
11
138.275624
21
6.690962
0
LINE
8
annotation
62
1
39
211
10
138.275624
20
6.690962
11
138.275618
21
6.690955
0
LINE
8
annotation
62
1
39
211
10
138.275618
20
6.690955
11
138.275613
21
6.690948
0
LINE
8
annotation
62
1
39
211
10
138.275613
20
6.690948
11
138.275607
21
6.690940
0
LINE
8
annotation
62
1
39
211
10
138.275607
20
6.690940
11
138.275602
21
6.690932
0
LINE
8
annotation
62
1
39
211
10
138.275602
20
6.690932
11
138.275597
21
6.690924
0
LINE
8
annotation
62
1
39
211
10
138.275597
20
6.690924
11
138.275592
21
6.690916
0
LINE
8
annotation
62
1
39
211
10
138.275592
20
6.690916
11
138.275587
21
6.690908
0
LINE
8
annotation
62
1
39
211
10
138.275587
20
6.690908
11
138.275582
21
6.690898
0
LINE
8
annotation
62
1
39
211
10
138.275582
20
6.690898
11
138.275577
21
6.690889
0
LINE
8
annotation
62
1
39
211
10
138.275577
20
6.690889
11
138.275577
21
6.690889
0
LINE
8
annotation
62
1
39
211
10
138.275577
20
6.690889
11
138.275372
21
6.690450
0
LINE
8
annotation
62
1
39
211
10
138.275372
20
6.690450
11
138.275253
21
6.689995
0
LINE
8
annotation
62
1
39
211
10
138.275253
20
6.689995
11
138.275216
21
6.689535
0
LINE
8
annotation
62
1
39
211
10
138.275216
20
6.689535
11
138.275257
21
6.689078
0
LINE
8
annotation
62
1
39
211
10
138.275257
20
6.689078
11
138.275375
21
6.688637
0
LINE
8
annotation
62
1
39
211
10
138.275375
20
6.688637
11
138.275567
21
6.688221
0
LINE
8
annotation
62
1
39
211
10
138.275567
20
6.688221
11
138.275828
21
6.687840
0
LINE
8
annotation
62
1
39
211
10
138.275828
20
6.687840
11
138.276157
21
6.687504
0
LINE
8
annotation
62
1
39
211
10
138.276157
20
6.687504
11
138.276551
21
6.687225
0
LINE
8
annotation
62
1
39
211
10
138.276551
20
6.687225
11
138.276551
21
6.687225
0
LINE
8
annotation
62
1
39
211
10
138.276551
20
6.687225
11
138.276991
21
6.687023
0
LINE
8
annotation
62
1
39
211
10
138.276991
20
6.687023
11
138.277447
21
6.686906
0
LINE
8
annotation
62
1
39
211
10
138.277447
20
6.686906
11
138.277907
21
6.686870
0
LINE
8
annotation
62
1
39
211
10
138.277907
20
6.686870
11
138.278364
21
6.686912
0
LINE
8
annotation
62
1
39
211
10
138.278364
20
6.686912
11
138.278805
21
6.687030
0
LINE
8
annotation
62
1
39
211
10
138.278805
20
6.687030
11
138.279220
21
6.687222
0
LINE
8
annotation
62
1
39
211
10
138.279220
20
6.687222
11
138.279601
21
6.687484
0
LINE
8
annotation
62
1
39
211
10
138.279601
20
6.687484
11
138.279936
21
6.687815
0
LINE
8
annotation
62
1
39
211
10
138.279936
20
6.687815
11
138.280215
21
6.688211
0
LINE
8
annotation
62
1
39
211
10
138.280215
20
6.688211
11
138.280567
21
6.688885
0
LINE
8
annotation
62
1
39
211
10
233.377645
20
52.497830
11
233.375975
21
52.495736
0
LINE
8
annotation
62
1
39
211
10
233.375975
20
52.495736
11
233.375975
21
52.495736
0
LINE
8
annotation
62
1
39
211
10
233.375975
20
52.495736
11
233.375708
21
52.495332
0
LINE
8
annotation
62
1
39
211
10
233.375708
20
52.495332
11
233.375523
21
52.494900
0
LINE
8
annotation
62
1
39
211
10
233.375523
20
52.494900
11
233.375418
21
52.494450
0
LINE
8
annotation
62
1
39
211
10
233.375418
20
52.494450
11
233.375391
21
52.493993
0
LINE
8
annotation
62
1
39
211
10
233.375391
20
52.493993
11
233.375442
21
52.493539
0
LINE
8
annotation
62
1
39
211
10
233.375442
20
52.493539
11
233.375570
21
52.493100
0
LINE
8
annotation
62
1
39
211
10
233.375570
20
52.493100
11
233.375772
21
52.492685
0
LINE
8
annotation
62
1
39
211
10
233.375772
20
52.492685
11
233.376048
21
52.492306
0
LINE
8
annotation
62
1
39
211
10
233.376048
20
52.492306
11
233.376396
21
52.491973
0
LINE
8
annotation
62
1
39
211
10
233.376396
20
52.491973
11
233.377445
21
52.491137
0
LINE
8
annotation
62
1
39
211
10
233.377445
20
52.491137
11
233.377445
21
52.491137
0
LINE
8
annotation
62
1
39
211
10
233.377445
20
52.491137
11
233.377847
21
52.490872
0
LINE
8
annotation
62
1
39
211
10
233.377847
20
52.490872
11
233.378278
21
52.490687
0
LINE
8
annotation
62
1
39
211
10
233.378278
20
52.490687
11
233.378727
21
52.490582
0
LINE
8
annotation
62
1
39
211
10
233.378727
20
52.490582
11
233.379184
21
52.490556
0
LINE
8
annotation
62
1
39
211
10
233.379184
20
52.490556
11
233.379637
21
52.490607
0
LINE
8
annotation
62
1
39
211
10
233.379637
20
52.490607
11
233.380077
21
52.490734
0
LINE
8
annotation
62
1
39
211
10
233.380077
20
52.490734
11
233.380492
21
52.490937
0
LINE
8
annotation
62
1
39
211
10
233.380492
20
52.490937
11
233.380873
21
52.491214
0
LINE
8
annotation
62
1
39
211
10
233.380873
20
52.491214
11
233.381207
21
52.491564
0
LINE
8
annotation
62
1
39
211
10
233.381207
20
52.491564
11
233.382043
21
52.492612
0
LINE
8
annotation
62
1
39
211
10
233.382043
20
52.492612
11
233.381207
21
52.491564
0
LINE
8
annotation
62
1
39
211
10
233.381207
20
52.491564
11
233.381207
21
52.491564
0
LINE
8
annotation
62
1
39
211
10
233.381207
20
52.491564
11
233.380940
21
52.491160
0
LINE
8
annotation
62
1
39
211
10
233.380940
20
52.491160
11
233.380755
21
52.490728
0
LINE
8
annotation
62
1
39
211
10
233.380755
20
52.490728
11
233.380650
21
52.490278
0
LINE
8
annotation
62
1
39
211
10
233.380650
20
52.490278
11
233.380624
21
52.489820
0
LINE
8
annotation
62
1
39
211
10
233.380624
20
52.489820
11
233.380676
21
52.489366
0
LINE
8
annotation
62
1
39
211
10
233.380676
20
52.489366
11
233.380804
21
52.488926
0
LINE
8
annotation
62
1
39
211
10
233.380804
20
52.488926
11
233.381007
21
52.488511
0
LINE
8
annotation
62
1
39
211
10
233.381007
20
52.488511
11
233.381284
21
52.488131
0
LINE
8
annotation
62
1
39
211
10
233.381284
20
52.488131
11
233.381634
21
52.487796
0
LINE
8
annotation
62
1
39
211
10
233.381634
20
52.487796
11
233.381634
21
52.487796
0
LINE
8
annotation
62
1
39
211
10
233.381634
20
52.487796
11
233.382036
21
52.487531
0
LINE
8
annotation
62
1
39
211
10
233.382036
20
52.487531
11
233.382467
21
52.487346
0
LINE
8
annotation
62
1
39
211
10
233.382467
20
52.487346
11
233.382916
21
52.487242
0
LINE
8
annotation
62
1
39
211
10
233.382916
20
52.487242
11
233.383373
21
52.487215
0
LINE
8
annotation
62
1
39
211
10
233.383373
20
52.487215
11
233.383826
21
52.487266
0
LINE
8
annotation
62
1
39
211
10
233.383826
20
52.487266
11
233.384266
21
52.487394
0
LINE
8
annotation
62
1
39
211
10
233.384266
20
52.487394
11
233.384681
21
52.487596
0
LINE
8
annotation
62
1
39
211
10
233.384681
20
52.487596
11
233.385062
21
52.487873
0
LINE
8
annotation
62
1
39
211
10
233.385062
20
52.487873
11
233.385396
21
52.488223
0
LINE
8
annotation
62
1
39
211
10
233.385396
20
52.488223
11
233.387066
21
52.490318
0
LINE
8
annotation
62
1
39
211
10
233.371484
20
52.490104
11
233.369814
21
52.488010
0
LINE
8
annotation
62
1
39
211
10
233.369814
20
52.488010
11
233.369814
21
52.488010
0
LINE
8
annotation
62
1
39
211
10
233.369814
20
52.488010
11
233.369547
21
52.487606
0
LINE
8
annotation
62
1
39
211
10
233.369547
20
52.487606
11
233.369362
21
52.487174
0
LINE
8
annotation
62
1
39
211
10
233.369362
20
52.487174
11
233.369256
21
52.486724
0
LINE
8
annotation
62
1
39
211
10
233.369256
20
52.486724
11
233.369230
21
52.486267
0
LINE
8
annotation
62
1
39
211
10
233.369230
20
52.486267
11
233.369281
21
52.485813
0
LINE
8
annotation
62
1
39
211
10
233.369281
20
52.485813
11
233.369408
21
52.485374
0
LINE
8
annotation
62
1
39
211
10
233.369408
20
52.485374
11
233.369611
21
52.484959
0
LINE
8
annotation
62
1
39
211
10
233.369611
20
52.484959
11
233.369887
21
52.484580
0
LINE
8
annotation
62
1
39
211
10
233.369887
20
52.484580
11
233.370235
21
52.484247
0
LINE
8
annotation
62
1
39
211
10
233.370235
20
52.484247
11
233.371284
21
52.483411
0
LINE
8
annotation
62
1
39
211
10
233.371284
20
52.483411
11
233.371284
21
52.483411
0
LINE
8
annotation
62
1
39
211
10
233.371284
20
52.483411
11
233.371686
21
52.483146
0
LINE
8
annotation
62
1
39
211
10
233.371686
20
52.483146
11
233.372116
21
52.482961
0
LINE
8
annotation
62
1
39
211
10
233.372116
20
52.482961
11
233.372566
21
52.482856
0
LINE
8
annotation
62
1
39
211
10
233.372566
20
52.482856
11
233.373022
21
52.482830
0
LINE
8
annotation
62
1
39
211
10
233.373022
20
52.482830
11
233.373476
21
52.482881
0
LINE
8
annotation
62
1
39
211
10
233.373476
20
52.482881
11
233.373916
21
52.483008
0
LINE
8
annotation
62
1
39
211
10
233.373916
20
52.483008
11
233.374331
21
52.483211
0
LINE
8
annotation
62
1
39
211
10
233.374331
20
52.483211
11
233.374711
21
52.483488
0
LINE
8
annotation
62
1
39
211
10
233.374711
20
52.483488
11
233.375045
21
52.483838
0
LINE
8
annotation
62
1
39
211
10
233.375045
20
52.483838
11
233.375882
21
52.484886
0
LINE
8
annotation
62
1
39
211
10
233.375882
20
52.484886
11
233.375045
21
52.483838
0
LINE
8
annotation
62
1
39
211
10
233.375045
20
52.483838
11
233.375045
21
52.483838
0
LINE
8
annotation
62
1
39
211
10
233.375045
20
52.483838
11
233.374779
21
52.483434
0
LINE
8
annotation
62
1
39
211
10
233.374779
20
52.483434
11
233.374594
21
52.483002
0
LINE
8
annotation
62
1
39
211
10
233.374594
20
52.483002
11
233.374489
21
52.482552
0
LINE
8
annotation
62
1
39
211
10
233.374489
20
52.482552
11
233.374463
21
52.482094
0
LINE
8
annotation
62
1
39
211
10
233.374463
20
52.482094
11
233.374514
21
52.481640
0
LINE
8
annotation
62
1
39
211
10
233.374514
20
52.481640
11
233.374642
21
52.481200
0
LINE
8
annotation
62
1
39
211
10
233.374642
20
52.481200
11
233.374845
21
52.480785
0
LINE
8
annotation
62
1
39
211
10
233.374845
20
52.480785
11
233.375123
21
52.480405
0
LINE
8
annotation
62
1
39
211
10
233.375123
20
52.480405
11
233.375473
21
52.480070
0
LINE
8
annotation
62
1
39
211
10
233.375473
20
52.480070
11
233.375473
21
52.480070
0
LINE
8
annotation
62
1
39
211
10
233.375473
20
52.480070
11
233.375875
21
52.479805
0
LINE
8
annotation
62
1
39
211
10
233.375875
20
52.479805
11
233.376305
21
52.479620
0
LINE
8
annotation
62
1
39
211
10
233.376305
20
52.479620
11
233.376755
21
52.479516
0
LINE
8
annotation
62
1
39
211
10
233.376755
20
52.479516
11
233.377211
21
52.479489
0
LINE
8
annotation
62
1
39
211
10
233.377211
20
52.479489
11
233.377665
21
52.479540
0
LINE
8
annotation
62
1
39
211
10
233.377665
20
52.479540
11
233.378105
21
52.479668
0
LINE
8
annotation
62
1
39
211
10
233.378105
20
52.479668
11
233.378520
21
52.479870
0
LINE
8
annotation
62
1
39
211
10
233.378520
20
52.479870
11
233.378900
21
52.480147
0
LINE
8
annotation
62
1
39
211
10
233.378900
20
52.480147
11
233.379234
21
52.480497
0
LINE
8
annotation
62
1
39
211
10
233.379234
20
52.480497
11
233.380905
21
52.482591
0
LINE
8
annotation
62
1
39
211
10
256.860774
20
155.389785
11
256.859405
21
155.395787
0
LINE
8
annotation
62
1
39
211
10
256.859405
20
155.395787
11
256.868358
21
155.395308
0
LINE
8
annotation
62
1
39
211
10
256.857961
20
155.391035
11
256.862761
21
155.392131
0
LINE
8
annotation
62
1
39
211
10
256.860392
20
155.380381
11
256.859297
21
155.385182
0
LINE
8
annotation
62
1
39
211
10
256.859297
20
155.385182
11
256.867451
21
155.382376
0
LINE
8
annotation
62
1
39
211
10
256.867451
20
155.382376
11
256.867451
21
155.382376
0
LINE
8
annotation
62
1
39
211
10
256.867451
20
155.382376
11
256.867458
21
155.382372
0
LINE
8
annotation
62
1
39
211
10
256.867458
20
155.382372
11
256.867466
21
155.382368
0
LINE
8
annotation
62
1
39
211
10
256.867466
20
155.382368
11
256.867474
21
155.382365
0
LINE
8
annotation
62
1
39
211
10
256.867474
20
155.382365
11
256.867482
21
155.382362
0
LINE
8
annotation
62
1
39
211
10
256.867482
20
155.382362
11
256.867490
21
155.382359
0
LINE
8
annotation
62
1
39
211
10
256.867490
20
155.382359
11
256.867499
21
155.382356
0
LINE
8
annotation
62
1
39
211
10
256.867499
20
155.382356
11
256.867507
21
155.382353
0
LINE
8
annotation
62
1
39
211
10
256.867507
20
155.382353
11
256.867517
21
155.382351
0
LINE
8
annotation
62
1
39
211
10
256.867517
20
155.382351
11
256.867526
21
155.382348
0
LINE
8
annotation
62
1
39
211
10
256.867526
20
155.382348
11
256.867526
21
155.382348
0
LINE
8
annotation
62
1
39
211
10
256.867526
20
155.382348
11
256.867961
21
155.382255
0
LINE
8
annotation
62
1
39
211
10
256.867961
20
155.382255
11
256.868393
21
155.382241
0
LINE
8
annotation
62
1
39
211
10
256.868393
20
155.382241
11
256.868814
21
155.382301
0
LINE
8
annotation
62
1
39
211
10
256.868814
20
155.382301
11
256.869214
21
155.382432
0
LINE
8
annotation
62
1
39
211
10
256.869214
20
155.382432
11
256.869585
21
155.382628
0
LINE
8
annotation
62
1
39
211
10
256.869585
20
155.382628
11
256.869919
21
155.382885
0
LINE
8
annotation
62
1
39
211
10
256.869919
20
155.382885
11
256.870207
21
155.383197
0
LINE
8
annotation
62
1
39
211
10
256.870207
20
155.383197
11
256.870441
21
155.383561
0
LINE
8
annotation
62
1
39
211
10
256.870441
20
155.383561
11
256.870611
21
155.383971
0
LINE
8
annotation
62
1
39
211
10
256.870611
20
155.383971
11
256.870611
21
155.383971
0
LINE
8
annotation
62
1
39
211
10
256.870611
20
155.383971
11
256.870701
21
155.384406
0
LINE
8
annotation
62
1
39
211
10
256.870701
20
155.384406
11
256.870713
21
155.384839
0
LINE
8
annotation
62
1
39
211
10
256.870713
20
155.384839
11
256.870651
21
155.385259
0
LINE
8
annotation
62
1
39
211
10
256.870651
20
155.385259
11
256.870520
21
155.385659
0
LINE
8
annotation
62
1
39
211
10
256.870520
20
155.385659
11
256.870324
21
155.386030
0
LINE
8
annotation
62
1
39
211
10
256.870324
20
155.386030
11
256.870067
21
155.386364
0
LINE
8
annotation
62
1
39
211
10
256.870067
20
155.386364
11
256.869754
21
155.386651
0
LINE
8
annotation
62
1
39
211
10
256.869754
20
155.386651
11
256.869390
21
155.386883
0
LINE
8
annotation
62
1
39
211
10
256.869390
20
155.386883
11
256.868978
21
155.387053
0
LINE
8
annotation
62
1
39
211
10
256.868978
20
155.387053
11
256.868301
21
155.387230
0
LINE
8
annotation
62
1
39
211
10
191.046439
20
237.905990
11
191.049367
21
237.904580
0
LINE
8
annotation
62
1
39
211
10
191.049367
20
237.904580
11
191.049367
21
237.904580
0
LINE
8
annotation
62
1
39
211
10
191.049367
20
237.904580
11
191.049915
21
237.904374
0
LINE
8
annotation
62
1
39
211
10
191.049915
20
237.904374
11
191.050476
21
237.904272
0
LINE
8
annotation
62
1
39
211
10
191.050476
20
237.904272
11
191.051036
21
237.904269
0
LINE
8
annotation
62
1
39
211
10
191.051036
20
237.904269
11
191.051584
21
237.904362
0
LINE
8
annotation
62
1
39
211
10
191.051584
20
237.904362
11
191.052107
21
237.904545
0
LINE
8
annotation
62
1
39
211
10
191.052107
20
237.904545
11
191.052594
21
237.904815
0
LINE
8
annotation
62
1
39
211
10
191.052594
20
237.904815
11
191.053030
21
237.905167
0
LINE
8
annotation
62
1
39
211
10
191.053030
20
237.905167
11
191.053405
21
237.905597
0
LINE
8
annotation
62
1
39
211
10
191.053405
20
237.905597
11
191.053706
21
237.906101
0
LINE
8
annotation
62
1
39
211
10
191.053706
20
237.906101
11
191.054409
21
237.907560
0
LINE
8
annotation
62
1
39
211
10
191.054409
20
237.907560
11
191.054409
21
237.907560
0
LINE
8
annotation
62
1
39
211
10
191.054409
20
237.907560
11
191.054615
21
237.908109
0
LINE
8
annotation
62
1
39
211
10
191.054615
20
237.908109
11
191.054717
21
237.908669
0
LINE
8
annotation
62
1
39
211
10
191.054717
20
237.908669
11
191.054720
21
237.909229
0
LINE
8
annotation
62
1
39
211
10
191.054720
20
237.909229
11
191.054627
21
237.909777
0
LINE
8
annotation
62
1
39
211
10
191.054627
20
237.909777
11
191.054444
21
237.910299
0
LINE
8
annotation
62
1
39
211
10
191.054444
20
237.910299
11
191.054174
21
237.910784
0
LINE
8
annotation
62
1
39
211
10
191.054174
20
237.910784
11
191.053822
21
237.911219
0
LINE
8
annotation
62
1
39
211
10
191.053822
20
237.911219
11
191.053392
21
237.911593
0
LINE
8
annotation
62
1
39
211
10
191.053392
20
237.911593
11
191.052889
21
237.911893
0
LINE
8
annotation
62
1
39
211
10
191.052889
20
237.911893
11
191.049961
21
237.913303
0
LINE
8
annotation
62
1
39
211
10
191.049961
20
237.913303
11
191.052788
21
237.919174
0
LINE
8
annotation
62
1
39
211
10
191.052788
20
237.919174
11
191.058644
21
237.916354
0
LINE
8
annotation
62
1
39
211
10
191.060170
20
237.899377
11
191.066520
21
237.912562
0
LINE
8
annotation
62
1
39
211
10
191.066520
20
237.912562
11
191.062177
21
237.911041
0
LINE
8
annotation
62
1
39
211
10
143.214512
20
202.669528
11
143.199672
21
202.671586
0
LINE
8
annotation
62
1
39
211
10
143.199672
20
202.671586
11
143.200198
21
202.665103
0
LINE
8
annotation
62
1
39
211
10
143.206163
20
202.672113
11
143.206426
21
202.668872
0
LINE
8
annotation
62
1
39
211
10
143.213542
20
202.681478
11
143.198965
21
202.680294
0
LINE
8
annotation
62
1
39
211
10
143.198965
20
202.680294
11
143.202469
21
202.677316
0
LINE
8
annotation
62
1
39
211
10
148.661922
20
141.775527
11
148.652257
21
141.763266
0
LINE
8
annotation
62
1
39
211
10
148.652257
20
141.763266
11
148.658363
21
141.760326
0
LINE
8
annotation
62
1
39
211
10
148.655202
20
141.769381
11
148.658255
21
141.767911
0
LINE
8
annotation
62
1
39
211
10
149.323821
20
140.939457
11
149.311468
21
140.939386
0
LINE
8
annotation
62
1
39
211
10
149.311468
20
140.939386
11
149.312661
21
140.934159
0
LINE
8
annotation
62
1
39
211
10
149.316703
20
140.940582
11
149.317300
21
140.937968
0
LINE
8
annotation
62
1
39
211
10
149.322217
20
140.946480
11
149.321621
21
140.949090
0
LINE
8
annotation
62
1
39
211
10
149.321621
20
140.949090
11
149.321621
21
140.949090
0
LINE
8
annotation
62
1
39
211
10
149.321621
20
140.949090
11
149.321471
21
140.949550
0
LINE
8
annotation
62
1
39
211
10
149.321471
20
140.949550
11
149.321249
21
140.949964
0
LINE
8
annotation
62
1
39
211
10
149.321249
20
140.949964
11
149.320963
21
140.950327
0
LINE
8
annotation
62
1
39
211
10
149.320963
20
140.950327
11
149.320622
21
140.950632
0
LINE
8
annotation
62
1
39
211
10
149.320622
20
140.950632
11
149.320236
21
140.950875
0
LINE
8
annotation
62
1
39
211
10
149.320236
20
140.950875
11
149.319813
21
140.951050
0
LINE
8
annotation
62
1
39
211
10
149.319813
20
140.951050
11
149.319363
21
140.951150
0
LINE
8
annotation
62
1
39
211
10
149.319363
20
140.951150
11
149.318895
21
140.951170
0
LINE
8
annotation
62
1
39
211
10
149.318895
20
140.951170
11
149.318418
21
140.951106
0
LINE
8
annotation
62
1
39
211
10
149.318418
20
140.951106
11
149.317110
21
140.950807
0
LINE
8
annotation
62
1
39
211
10
149.317110
20
140.950807
11
149.317110
21
140.950807
0
LINE
8
annotation
62
1
39
211
10
149.317110
20
140.950807
11
149.316653
21
140.950658
0
LINE
8
annotation
62
1
39
211
10
149.316653
20
140.950658
11
149.316240
21
140.950437
0
LINE
8
annotation
62
1
39
211
10
149.316240
20
140.950437
11
149.315878
21
140.950151
0
LINE
8
annotation
62
1
39
211
10
149.315878
20
140.950151
11
149.315573
21
140.949810
0
LINE
8
annotation
62
1
39
211
10
149.315573
20
140.949810
11
149.315330
21
140.949424
0
LINE
8
annotation
62
1
39
211
10
149.315330
20
140.949424
11
149.315156
21
140.949001
0
LINE
8
annotation
62
1
39
211
10
149.315156
20
140.949001
11
149.315055
21
140.948550
0
LINE
8
annotation
62
1
39
211
10
149.315055
20
140.948550
11
149.315035
21
140.948080
0
LINE
8
annotation
62
1
39
211
10
149.315035
20
140.948080
11
149.315100
21
140.947601
0
LINE
8
annotation
62
1
39
211
10
149.315100
20
140.947601
11
149.315398
21
140.946294
0
LINE
8
annotation
62
1
39
211
10
149.315398
20
140.946294
11
149.315100
21
140.947601
0
LINE
8
annotation
62
1
39
211
10
149.315100
20
140.947601
11
149.315100
21
140.947601
0
LINE
8
annotation
62
1
39
211
10
149.315100
20
140.947601
11
149.314950
21
140.948061
0
LINE
8
annotation
62
1
39
211
10
149.314950
20
140.948061
11
149.314728
21
140.948475
0
LINE
8
annotation
62
1
39
211
10
149.314728
20
140.948475
11
149.314442
21
140.948838
0
LINE
8
annotation
62
1
39
211
10
149.314442
20
140.948838
11
149.314100
21
140.949143
0
LINE
8
annotation
62
1
39
211
10
149.314100
20
140.949143
11
149.313713
21
140.949386
0
LINE
8
annotation
62
1
39
211
10
149.313713
20
140.949386
11
149.313290
21
140.949560
0
LINE
8
annotation
62
1
39
211
10
149.313290
20
140.949560
11
149.312838
21
140.949660
0
LINE
8
annotation
62
1
39
211
10
149.312838
20
140.949660
11
149.312369
21
140.949680
0
LINE
8
annotation
62
1
39
211
10
149.312369
20
140.949680
11
149.311889
21
140.949615
0
LINE
8
annotation
62
1
39
211
10
149.311889
20
140.949615
11
149.311889
21
140.949615
0
LINE
8
annotation
62
1
39
211
10
149.311889
20
140.949615
11
149.311431
21
140.949466
0
LINE
8
annotation
62
1
39
211
10
149.311431
20
140.949466
11
149.311019
21
140.949244
0
LINE
8
annotation
62
1
39
211
10
149.311019
20
140.949244
11
149.310657
21
140.948959
0
LINE
8
annotation
62
1
39
211
10
149.310657
20
140.948959
11
149.310352
21
140.948618
0
LINE
8
annotation
62
1
39
211
10
149.310352
20
140.948618
11
149.310109
21
140.948232
0
LINE
8
annotation
62
1
39
211
10
149.310109
20
140.948232
11
149.309934
21
140.947809
0
LINE
8
annotation
62
1
39
211
10
149.309934
20
140.947809
11
149.309834
21
140.947358
0
LINE
8
annotation
62
1
39
211
10
149.309834
20
140.947358
11
149.309813
21
140.946888
0
LINE
8
annotation
62
1
39
211
10
149.309813
20
140.946888
11
149.309878
21
140.946409
0
LINE
8
annotation
62
1
39
211
10
149.309878
20
140.946409
11
149.310475
21
140.943798
0
LINE
8
annotation
62
1
39
211
10
140.359411
20
129.388861
11
140.355093
21
129.383648
0
LINE
8
annotation
62
1
39
211
10
140.355093
20
129.383648
11
140.351329
21
129.394888
0
LINE
8
annotation
62
1
39
211
10
140.351329
20
129.394888
11
140.351329
21
129.394888
0
LINE
8
annotation
62
1
39
211
10
140.351329
20
129.394888
11
140.351327
21
129.394899
0
LINE
8
annotation
62
1
39
211
10
140.351327
20
129.394899
11
140.351324
21
129.394911
0
LINE
8
annotation
62
1
39
211
10
140.351324
20
129.394911
11
140.351321
21
129.394922
0
LINE
8
annotation
62
1
39
211
10
140.351321
20
129.394922
11
140.351318
21
129.394934
0
LINE
8
annotation
62
1
39
211
10
140.351318
20
129.394934
11
140.351314
21
129.394945
0
LINE
8
annotation
62
1
39
211
10
140.351314
20
129.394945
11
140.351311
21
129.394957
0
LINE
8
annotation
62
1
39
211
10
140.351311
20
129.394957
11
140.351306
21
129.394969
0
LINE
8
annotation
62
1
39
211
10
140.351306
20
129.394969
11
140.351301
21
129.394981
0
LINE
8
annotation
62
1
39
211
10
140.351301
20
129.394981
11
140.351296
21
129.394993
0
LINE
8
annotation
62
1
39
211
10
140.351296
20
129.394993
11
140.351296
21
129.394993
0
LINE
8
annotation
62
1
39
211
10
140.351296
20
129.394993
11
140.351034
21
129.395546
0
LINE
8
annotation
62
1
39
211
10
140.351034
20
129.395546
11
140.350688
21
129.396029
0
LINE
8
annotation
62
1
39
211
10
140.350688
20
129.396029
11
140.350269
21
129.396436
0
LINE
8
annotation
62
1
39
211
10
140.350269
20
129.396436
11
140.349792
21
129.396763
0
LINE
8
annotation
62
1
39
211
10
140.349792
20
129.396763
11
140.349267
21
129.397004
0
LINE
8
annotation
62
1
39
211
10
140.349267
20
129.397004
11
140.348708
21
129.397154
0
LINE
8
annotation
62
1
39
211
10
140.348708
20
129.397154
11
140.348126
21
129.397206
0
LINE
8
annotation
62
1
39
211
10
140.348126
20
129.397206
11
140.347535
21
129.397156
0
LINE
8
annotation
62
1
39
211
10
140.347535
20
129.397156
11
140.346946
21
129.396999
0
LINE
8
annotation
62
1
39
211
10
140.346946
20
129.396999
11
140.346946
21
129.396999
0
LINE
8
annotation
62
1
39
211
10
140.346946
20
129.396999
11
140.346395
21
129.396733
0
LINE
8
annotation
62
1
39
211
10
140.346395
20
129.396733
11
140.345913
21
129.396384
0
LINE
8
annotation
62
1
39
211
10
140.345913
20
129.396384
11
140.345507
21
129.395965
0
LINE
8
annotation
62
1
39
211
10
140.345507
20
129.395965
11
140.345180
21
129.395487
0
LINE
8
annotation
62
1
39
211
10
140.345180
20
129.395487
11
140.344940
21
129.394963
0
LINE
8
annotation
62
1
39
211
10
140.344940
20
129.394963
11
140.344791
21
129.394404
0
LINE
8
annotation
62
1
39
211
10
140.344791
20
129.394404
11
140.344740
21
129.393822
0
LINE
8
annotation
62
1
39
211
10
140.344740
20
129.393822
11
140.344791
21
129.393230
0
LINE
8
annotation
62
1
39
211
10
140.344791
20
129.393230
11
140.344951
21
129.392639
0
LINE
8
annotation
62
1
39
211
10
140.344951
20
129.392639
11
140.345324
21
129.391753
0
LINE
8
annotation
62
1
39
211
10
130.143563
20
116.579211
11
130.143563
21
116.579211
0
LINE
8
annotation
62
1
39
211
10
130.143563
20
116.579211
11
130.143761
21
116.580225
0
LINE
8
annotation
62
1
39
211
10
130.143761
20
116.580225
11
130.143809
21
116.581237
0
LINE
8
annotation
62
1
39
211
10
130.143809
20
116.581237
11
130.143713
21
116.582233
0
LINE
8
annotation
62
1
39
211
10
130.143713
20
116.582233
11
130.143479
21
116.583199
0
LINE
8
annotation
62
1
39
211
10
130.143479
20
116.583199
11
130.143112
21
116.584121
0
LINE
8
annotation
62
1
39
211
10
130.143112
20
116.584121
11
130.142619
21
116.584983
0
LINE
8
annotation
62
1
39
211
10
130.142619
20
116.584983
11
130.142006
21
116.585773
0
LINE
8
annotation
62
1
39
211
10
130.142006
20
116.585773
11
130.141278
21
116.586475
0
LINE
8
annotation
62
1
39
211
10
130.141278
20
116.586475
11
130.140440
21
116.587075
0
LINE
8
annotation
62
1
39
211
10
130.140440
20
116.587075
11
130.136105
21
116.589728
0
LINE
8
annotation
62
1
39
211
10
130.136105
20
116.589728
11
130.136105
21
116.589728
0
LINE
8
annotation
62
1
39
211
10
130.136105
20
116.589728
11
130.135557
21
116.589999
0
LINE
8
annotation
62
1
39
211
10
130.135557
20
116.589999
11
130.134986
21
116.590164
0
LINE
8
annotation
62
1
39
211
10
130.134986
20
116.590164
11
130.134405
21
116.590226
0
LINE
8
annotation
62
1
39
211
10
130.134405
20
116.590226
11
130.133828
21
116.590188
0
LINE
8
annotation
62
1
39
211
10
130.133828
20
116.590188
11
130.133266
21
116.590054
0
LINE
8
annotation
62
1
39
211
10
130.133266
20
116.590054
11
130.132734
21
116.589826
0
LINE
8
annotation
62
1
39
211
10
130.132734
20
116.589826
11
130.132245
21
116.589507
0
LINE
8
annotation
62
1
39
211
10
130.132245
20
116.589507
11
130.131812
21
116.589100
0
LINE
8
annotation
62
1
39
211
10
130.131812
20
116.589100
11
130.131448
21
116.588610
0
LINE
8
annotation
62
1
39
211
10
130.131448
20
116.588610
11
130.131448
21
116.588610
0
LINE
8
annotation
62
1
39
211
10
130.131448
20
116.588610
11
130.131177
21
116.588063
0
LINE
8
annotation
62
1
39
211
10
130.131177
20
116.588063
11
130.131013
21
116.587493
0
LINE
8
annotation
62
1
39
211
10
130.131013
20
116.587493
11
130.130952
21
116.586912
0
LINE
8
annotation
62
1
39
211
10
130.130952
20
116.586912
11
130.130991
21
116.586335
0
LINE
8
annotation
62
1
39
211
10
130.130991
20
116.586335
11
130.131126
21
116.585773
0
LINE
8
annotation
62
1
39
211
10
130.131126
20
116.585773
11
130.131355
21
116.585241
0
LINE
8
annotation
62
1
39
211
10
130.131355
20
116.585241
11
130.131675
21
116.584752
0
LINE
8
annotation
62
1
39
211
10
130.131675
20
116.584752
11
130.132081
21
116.584319
0
LINE
8
annotation
62
1
39
211
10
130.132081
20
116.584319
11
130.132572
21
116.583954
0
LINE
8
annotation
62
1
39
211
10
130.132572
20
116.583954
11
130.134018
21
116.583070
0
LINE
8
annotation
62
1
39
211
10
130.134018
20
116.583070
11
130.134018
21
116.583070
0
LINE
8
annotation
62
1
39
211
10
130.134018
20
116.583070
11
130.134565
21
116.582799
0
LINE
8
annotation
62
1
39
211
10
130.134565
20
116.582799
11
130.135136
21
116.582634
0
LINE
8
annotation
62
1
39
211
10
130.135136
20
116.582634
11
130.135717
21
116.582572
0
LINE
8
annotation
62
1
39
211
10
130.135717
20
116.582572
11
130.136295
21
116.582611
0
LINE
8
annotation
62
1
39
211
10
130.136295
20
116.582611
11
130.136857
21
116.582746
0
LINE
8
annotation
62
1
39
211
10
130.136857
20
116.582746
11
130.137388
21
116.582974
0
LINE
8
annotation
62
1
39
211
10
130.137388
20
116.582974
11
130.137877
21
116.583293
0
LINE
8
annotation
62
1
39
211
10
130.137877
20
116.583293
11
130.138310
21
116.583699
0
LINE
8
annotation
62
1
39
211
10
130.138310
20
116.583699
11
130.138674
21
116.584188
0
LINE
8
annotation
62
1
39
211
10
130.138674
20
116.584188
11
130.140440
21
116.587075
0
LINE
8
annotation
62
1
39
211
10
130.144085
20
116.576414
11
130.148062
21
116.582914
0
LINE
8
annotation
62
1
39
211
10
128.431867
20
114.750772
11
128.431867
21
114.766012
0
LINE
8
annotation
62
1
39
211
10
128.431867
20
114.766012
11
128.428479
21
114.762623
0
LINE
8
annotation
62
1
39
211
10
128.440970
20
114.750771
11
128.440970
21
114.766011
0
LINE
8
annotation
62
1
39
211
10
128.440970
20
114.766011
11
128.437582
21
114.762623
0
LINE
8
annotation
62
1
39
211
10
127.486269
20
115.222900
11
127.486269
21
115.222900
0
LINE
8
annotation
62
1
39
211
10
127.486269
20
115.222900
11
127.485566
21
115.223321
0
LINE
8
annotation
62
1
39
211
10
127.485566
20
115.223321
11
127.484824
21
115.223630
0
LINE
8
annotation
62
1
39
211
10
127.484824
20
115.223630
11
127.484055
21
115.223827
0
LINE
8
annotation
62
1
39
211
10
127.484055
20
115.223827
11
127.483271
21
115.223914
0
LINE
8
annotation
62
1
39
211
10
127.483271
20
115.223914
11
127.482485
21
115.223890
0
LINE
8
annotation
62
1
39
211
10
127.482485
20
115.223890
11
127.481709
21
115.223756
0
LINE
8
annotation
62
1
39
211
10
127.481709
20
115.223756
11
127.480955
21
115.223512
0
LINE
8
annotation
62
1
39
211
10
127.480955
20
115.223512
11
127.480234
21
115.223159
0
LINE
8
annotation
62
1
39
211
10
127.480234
20
115.223159
11
127.479560
21
115.222697
0
LINE
8
annotation
62
1
39
211
10
127.479560
20
115.222697
11
127.476425
21
115.220197
0
LINE
8
annotation
62
1
39
211
10
127.476425
20
115.220197
11
127.476425
21
115.220197
0
LINE
8
annotation
62
1
39
211
10
127.476425
20
115.220197
11
127.476075
21
115.219863
0
LINE
8
annotation
62
1
39
211
10
127.476075
20
115.219863
11
127.475798
21
115.219482
0
LINE
8
annotation
62
1
39
211
10
127.475798
20
115.219482
11
127.475595
21
115.219067
0
LINE
8
annotation
62
1
39
211
10
127.475595
20
115.219067
11
127.475468
21
115.218627
0
LINE
8
annotation
62
1
39
211
10
127.475468
20
115.218627
11
127.475416
21
115.218172
0
LINE
8
annotation
62
1
39
211
10
127.475416
20
115.218172
11
127.475442
21
115.217715
0
LINE
8
annotation
62
1
39
211
10
127.475442
20
115.217715
11
127.475547
21
115.217265
0
LINE
8
annotation
62
1
39
211
10
127.475547
20
115.217265
11
127.475732
21
115.216833
0
LINE
8
annotation
62
1
39
211
10
127.475732
20
115.216833
11
127.475998
21
115.216430
0
LINE
8
annotation
62
1
39
211
10
127.475998
20
115.216430
11
127.475998
21
115.216430
0
LINE
8
annotation
62
1
39
211
10
127.475998
20
115.216430
11
127.476333
21
115.216081
0
LINE
8
annotation
62
1
39
211
10
127.476333
20
115.216081
11
127.476713
21
115.215804
0
LINE
8
annotation
62
1
39
211
10
127.476713
20
115.215804
11
127.477128
21
115.215601
0
LINE
8
annotation
62
1
39
211
10
127.477128
20
115.215601
11
127.477568
21
115.215474
0
LINE
8
annotation
62
1
39
211
10
127.477568
20
115.215474
11
127.478022
21
115.215423
0
LINE
8
annotation
62
1
39
211
10
127.478022
20
115.215423
11
127.478479
21
115.215450
0
LINE
8
annotation
62
1
39
211
10
127.478479
20
115.215450
11
127.478930
21
115.215556
0
LINE
8
annotation
62
1
39
211
10
127.478930
20
115.215556
11
127.479362
21
115.215741
0
LINE
8
annotation
62
1
39
211
10
127.479362
20
115.215741
11
127.479766
21
115.216008
0
LINE
8
annotation
62
1
39
211
10
127.479766
20
115.216008
11
127.480809
21
115.216840
0
LINE
8
annotation
62
1
39
211
10
127.480809
20
115.216840
11
127.480809
21
115.216840
0
LINE
8
annotation
62
1
39
211
10
127.480809
20
115.216840
11
127.481159
21
115.217174
0
LINE
8
annotation
62
1
39
211
10
127.481159
20
115.217174
11
127.481435
21
115.217554
0
LINE
8
annotation
62
1
39
211
10
127.481435
20
115.217554
11
127.481638
21
115.217969
0
LINE
8
annotation
62
1
39
211
10
127.481638
20
115.217969
11
127.481765
21
115.218408
0
LINE
8
annotation
62
1
39
211
10
127.481765
20
115.218408
11
127.481816
21
115.218861
0
LINE
8
annotation
62
1
39
211
10
127.481816
20
115.218861
11
127.481789
21
115.219318
0
LINE
8
annotation
62
1
39
211
10
127.481789
20
115.219318
11
127.481683
21
115.219767
0
LINE
8
annotation
62
1
39
211
10
127.481683
20
115.219767
11
127.481497
21
115.220199
0
LINE
8
annotation
62
1
39
211
10
127.481497
20
115.220199
11
127.481230
21
115.220603
0
LINE
8
annotation
62
1
39
211
10
127.481230
20
115.220603
11
127.479560
21
115.222697
0
LINE
8
annotation
62
1
39
211
10
127.472940
20
115.217847
11
127.476701
21
115.213131
0
LINE
8
annotation
62
1
39
211
10
127.482581
20
115.212466
11
127.482581
21
115.212466
0
LINE
8
annotation
62
1
39
211
10
127.482581
20
115.212466
11
127.482231
21
115.212132
0
LINE
8
annotation
62
1
39
211
10
127.482231
20
115.212132
11
127.481954
21
115.211752
0
LINE
8
annotation
62
1
39
211
10
127.481954
20
115.211752
11
127.481752
21
115.211337
0
LINE
8
annotation
62
1
39
211
10
127.481752
20
115.211337
11
127.481625
21
115.210898
0
LINE
8
annotation
62
1
39
211
10
127.481625
20
115.210898
11
127.481575
21
115.210444
0
LINE
8
annotation
62
1
39
211
10
127.481575
20
115.210444
11
127.481602
21
115.209987
0
LINE
8
annotation
62
1
39
211
10
127.481602
20
115.209987
11
127.481708
21
115.209538
0
LINE
8
annotation
62
1
39
211
10
127.481708
20
115.209538
11
127.481893
21
115.209107
0
LINE
8
annotation
62
1
39
211
10
127.481893
20
115.209107
11
127.482159
21
115.208704
0
LINE
8
annotation
62
1
39
211
10
127.482159
20
115.208704
11
127.482159
21
115.208704
0
LINE
8
annotation
62
1
39
211
10
127.482159
20
115.208704
11
127.482493
21
115.208355
0
LINE
8
annotation
62
1
39
211
10
127.482493
20
115.208355
11
127.482872
21
115.208078
0
LINE
8
annotation
62
1
39
211
10
127.482872
20
115.208078
11
127.483287
21
115.207875
0
LINE
8
annotation
62
1
39
211
10
127.483287
20
115.207875
11
127.483726
21
115.207747
0
LINE
8
annotation
62
1
39
211
10
127.483726
20
115.207747
11
127.484179
21
115.207695
0
LINE
8
annotation
62
1
39
211
10
127.484179
20
115.207695
11
127.484636
21
115.207721
0
LINE
8
annotation
62
1
39
211
10
127.484636
20
115.207721
11
127.485086
21
115.207826
0
LINE
8
annotation
62
1
39
211
10
127.485086
20
115.207826
11
127.485518
21
115.208011
0
LINE
8
annotation
62
1
39
211
10
127.485518
20
115.208011
11
127.485921
21
115.208277
0
LINE
8
annotation
62
1
39
211
10
127.485921
20
115.208277
11
127.486965
21
115.209109
0
LINE
8
annotation
62
1
39
211
10
127.486965
20
115.209109
11
127.486965
21
115.209109
0
LINE
8
annotation
62
1
39
211
10
127.486965
20
115.209109
11
127.487314
21
115.209444
0
LINE
8
annotation
62
1
39
211
10
127.487314
20
115.209444
11
127.487591
21
115.209824
0
LINE
8
annotation
62
1
39
211
10
127.487591
20
115.209824
11
127.487794
21
115.210240
0
LINE
8
annotation
62
1
39
211
10
127.487794
20
115.210240
11
127.487922
21
115.210680
0
LINE
8
annotation
62
1
39
211
10
127.487922
20
115.210680
11
127.487973
21
115.211134
0
LINE
8
annotation
62
1
39
211
10
127.487973
20
115.211134
11
127.487947
21
115.211591
0
LINE
8
annotation
62
1
39
211
10
127.487947
20
115.211591
11
127.487842
21
115.212041
0
LINE
8
annotation
62
1
39
211
10
127.487842
20
115.212041
11
127.487657
21
115.212473
0
LINE
8
annotation
62
1
39
211
10
127.487657
20
115.212473
11
127.487391
21
115.212876
0
LINE
8
annotation
62
1
39
211
10
127.487391
20
115.212876
11
127.487391
21
115.212876
0
LINE
8
annotation
62
1
39
211
10
127.487391
20
115.212876
11
127.487057
21
115.213225
0
LINE
8
annotation
62
1
39
211
10
127.487057
20
115.213225
11
127.486678
21
115.213502
0
LINE
8
annotation
62
1
39
211
10
127.486678
20
115.213502
11
127.486262
21
115.213704
0
LINE
8
annotation
62
1
39
211
10
127.486262
20
115.213704
11
127.485822
21
115.213831
0
LINE
8
annotation
62
1
39
211
10
127.485822
20
115.213831
11
127.485368
21
115.213882
0
LINE
8
annotation
62
1
39
211
10
127.485368
20
115.213882
11
127.484910
21
115.213856
0
LINE
8
annotation
62
1
39
211
10
127.484910
20
115.213856
11
127.484460
21
115.213750
0
LINE
8
annotation
62
1
39
211
10
127.484460
20
115.213750
11
127.484028
21
115.213565
0
LINE
8
annotation
62
1
39
211
10
127.484028
20
115.213565
11
127.483624
21
115.213298
0
LINE
8
annotation
62
1
39
211
10
127.483624
20
115.213298
11
127.482581
21
115.212466
0
LINE
8
annotation
62
1
39
211
10
127.491159
20
115.212454
11
127.491159
21
115.212454
0
LINE
8
annotation
62
1
39
211
10
127.491159
20
115.212454
11
127.491507
21
115.212787
0
LINE
8
annotation
62
1
39
211
10
127.491507
20
115.212787
11
127.491783
21
115.213166
0
LINE
8
annotation
62
1
39
211
10
127.491783
20
115.213166
11
127.491985
21
115.213581
0
LINE
8
annotation
62
1
39
211
10
127.491985
20
115.213581
11
127.492112
21
115.214021
0
LINE
8
annotation
62
1
39
211
10
127.492112
20
115.214021
11
127.492163
21
115.214475
0
LINE
8
annotation
62
1
39
211
10
127.492163
20
115.214475
11
127.492136
21
115.214932
0
LINE
8
annotation
62
1
39
211
10
127.492136
20
115.214932
11
127.492031
21
115.215382
0
LINE
8
annotation
62
1
39
211
10
127.492031
20
115.215382
11
127.491846
21
115.215814
0
LINE
8
annotation
62
1
39
211
10
127.491846
20
115.215814
11
127.491580
21
115.216217
0
LINE
8
annotation
62
1
39
211
10
127.491580
20
115.216217
11
127.491580
21
115.216217
0
LINE
8
annotation
62
1
39
211
10
127.491580
20
115.216217
11
127.491247
21
115.216566
0
LINE
8
annotation
62
1
39
211
10
127.491247
20
115.216566
11
127.490867
21
115.216842
0
LINE
8
annotation
62
1
39
211
10
127.490867
20
115.216842
11
127.490451
21
115.217045
0
LINE
8
annotation
62
1
39
211
10
127.490451
20
115.217045
11
127.490012
21
115.217172
0
LINE
8
annotation
62
1
39
211
10
127.490012
20
115.217172
11
127.489558
21
115.217224
0
LINE
8
annotation
62
1
39
211
10
127.489558
20
115.217224
11
127.489101
21
115.217198
0
LINE
8
annotation
62
1
39
211
10
127.489101
20
115.217198
11
127.488651
21
115.217093
0
LINE
8
annotation
62
1
39
211
10
127.488651
20
115.217093
11
127.488220
21
115.216909
0
LINE
8
annotation
62
1
39
211
10
127.488220
20
115.216909
11
127.487818
21
115.216643
0
LINE
8
annotation
62
1
39
211
10
127.487818
20
115.216643
11
127.487818
21
115.216643
0
LINE
8
annotation
62
1
39
211
10
127.487818
20
115.216643
11
127.487469
21
115.216309
0
LINE
8
annotation
62
1
39
211
10
127.487469
20
115.216309
11
127.487192
21
115.215929
0
LINE
8
annotation
62
1
39
211
10
127.487192
20
115.215929
11
127.486989
21
115.215513
0
LINE
8
annotation
62
1
39
211
10
127.486989
20
115.215513
11
127.486861
21
115.215073
0
LINE
8
annotation
62
1
39
211
10
127.486861
20
115.215073
11
127.486809
21
115.214618
0
LINE
8
annotation
62
1
39
211
10
127.486809
20
115.214618
11
127.486835
21
115.214161
0
LINE
8
annotation
62
1
39
211
10
127.486835
20
115.214161
11
127.486940
21
115.213711
0
LINE
8
annotation
62
1
39
211
10
127.486940
20
115.213711
11
127.487125
21
115.213279
0
LINE
8
annotation
62
1
39
211
10
127.487125
20
115.213279
11
127.487391
21
115.212876
0
LINE
8
annotation
62
1
39
211
10
127.487391
20
115.212876
11
127.487391
21
115.212876
0
LINE
8
annotation
62
1
39
211
10
127.487391
20
115.212876
11
127.487725
21
115.212527
0
LINE
8
annotation
62
1
39
211
10
127.487725
20
115.212527
11
127.488105
21
115.212251
0
LINE
8
annotation
62
1
39
211
10
127.488105
20
115.212251
11
127.488520
21
115.212048
0
LINE
8
annotation
62
1
39
211
10
127.488520
20
115.212048
11
127.488960
21
115.211921
0
LINE
8
annotation
62
1
39
211
10
127.488960
20
115.211921
11
127.489415
21
115.211870
0
LINE
8
annotation
62
1
39
211
10
127.489415
20
115.211870
11
127.489872
21
115.211897
0
LINE
8
annotation
62
1
39
211
10
127.489872
20
115.211897
11
127.490323
21
115.212002
0
LINE
8
annotation
62
1
39
211
10
127.490323
20
115.212002
11
127.490755
21
115.212188
0
LINE
8
annotation
62
1
39
211
10
127.490755
20
115.212188
11
127.491159
21
115.212454
0
LINE
8
annotation
62
1
39
211
10
127.255499
20
116.247564
11
127.255499
21
116.247564
0
LINE
8
annotation
62
1
39
211
10
127.255499
20
116.247564
11
127.255389
21
116.248376
0
LINE
8
annotation
62
1
39
211
10
127.255389
20
116.248376
11
127.255168
21
116.249148
0
LINE
8
annotation
62
1
39
211
10
127.255168
20
116.249148
11
127.254843
21
116.249872
0
LINE
8
annotation
62
1
39
211
10
127.254843
20
116.249872
11
127.254422
21
116.250538
0
LINE
8
annotation
62
1
39
211
10
127.254422
20
116.250538
11
127.253913
21
116.251137
0
LINE
8
annotation
62
1
39
211
10
127.253913
20
116.251137
11
127.253325
21
116.251660
0
LINE
8
annotation
62
1
39
211
10
127.253325
20
116.251660
11
127.252664
21
116.252097
0
LINE
8
annotation
62
1
39
211
10
127.252664
20
116.252097
11
127.251939
21
116.252440
0
LINE
8
annotation
62
1
39
211
10
127.251939
20
116.252440
11
127.251157
21
116.252679
0
LINE
8
annotation
62
1
39
211
10
127.251157
20
116.252679
11
127.247250
21
116.253570
0
LINE
8
annotation
62
1
39
211
10
127.247250
20
116.253570
11
127.247250
21
116.253570
0
LINE
8
annotation
62
1
39
211
10
127.247250
20
116.253570
11
127.246770
21
116.253635
0
LINE
8
annotation
62
1
39
211
10
127.246770
20
116.253635
11
127.246300
21
116.253614
0
LINE
8
annotation
62
1
39
211
10
127.246300
20
116.253614
11
127.245849
21
116.253514
0
LINE
8
annotation
62
1
39
211
10
127.245849
20
116.253514
11
127.245426
21
116.253339
0
LINE
8
annotation
62
1
39
211
10
127.245426
20
116.253339
11
127.245039
21
116.253096
0
LINE
8
annotation
62
1
39
211
10
127.245039
20
116.253096
11
127.244698
21
116.252790
0
LINE
8
annotation
62
1
39
211
10
127.244698
20
116.252790
11
127.244412
21
116.252428
0
LINE
8
annotation
62
1
39
211
10
127.244412
20
116.252428
11
127.244190
21
116.252014
0
LINE
8
annotation
62
1
39
211
10
127.244190
20
116.252014
11
127.244041
21
116.251555
0
LINE
8
annotation
62
1
39
211
10
127.244041
20
116.251555
11
127.244041
21
116.251555
0
LINE
8
annotation
62
1
39
211
10
127.244041
20
116.251555
11
127.243976
21
116.251076
0
LINE
8
annotation
62
1
39
211
10
127.243976
20
116.251076
11
127.243997
21
116.250606
0
LINE
8
annotation
62
1
39
211
10
127.243997
20
116.250606
11
127.244097
21
116.250155
0
LINE
8
annotation
62
1
39
211
10
127.244097
20
116.250155
11
127.244272
21
116.249732
0
LINE
8
annotation
62
1
39
211
10
127.244272
20
116.249732
11
127.244515
21
116.249346
0
LINE
8
annotation
62
1
39
211
10
127.244515
20
116.249346
11
127.244822
21
116.249005
0
LINE
8
annotation
62
1
39
211
10
127.244822
20
116.249005
11
127.245185
21
116.248719
0
LINE
8
annotation
62
1
39
211
10
127.245185
20
116.248719
11
127.245599
21
116.248497
0
LINE
8
annotation
62
1
39
211
10
127.245599
20
116.248497
11
127.246059
21
116.248348
0
LINE
8
annotation
62
1
39
211
10
127.246059
20
116.248348
11
127.247360
21
116.248052
0
LINE
8
annotation
62
1
39
211
10
127.247360
20
116.248052
11
127.247360
21
116.248052
0
LINE
8
annotation
62
1
39
211
10
127.247360
20
116.248052
11
127.247839
21
116.247987
0
LINE
8
annotation
62
1
39
211
10
127.247839
20
116.247987
11
127.248308
21
116.248007
0
LINE
8
annotation
62
1
39
211
10
127.248308
20
116.248007
11
127.248758
21
116.248108
0
LINE
8
annotation
62
1
39
211
10
127.248758
20
116.248108
11
127.249181
21
116.248282
0
LINE
8
annotation
62
1
39
211
10
127.249181
20
116.248282
11
127.249567
21
116.248525
0
LINE
8
annotation
62
1
39
211
10
127.249567
20
116.248525
11
127.249906
21
116.248831
0
LINE
8
annotation
62
1
39
211
10
127.249906
20
116.248831
11
127.250192
21
116.249194
0
LINE
8
annotation
62
1
39
211
10
127.250192
20
116.249194
11
127.250413
21
116.249608
0
LINE
8
annotation
62
1
39
211
10
127.250413
20
116.249608
11
127.250562
21
116.250068
0
LINE
8
annotation
62
1
39
211
10
127.250562
20
116.250068
11
127.251157
21
116.252679
0
LINE
8
annotation
62
1
39
211
10
127.243241
20
116.254828
11
127.241901
21
116.248949
0
LINE
8
annotation
62
1
39
211
10
127.241845
20
116.241921
11
127.253006
21
116.236627
0
LINE
8
annotation
62
1
39
211
10
127.253006
20
116.236627
11
127.254198
21
116.241856
0
LINE
8
annotation
62
1
39
211
10
127.247770
20
116.237821
11
127.248366
21
116.240434
0
LINE
8
annotation
62
1
39
211
10
137.224575
20
129.171080
11
137.227646
21
129.174930
0
LINE
8
annotation
62
1
39
211
10
137.227646
20
129.174930
11
137.230535
21
129.166805
0
LINE
8
annotation
62
1
39
211
10
137.230535
20
129.166805
11
137.230535
21
129.166805
0
LINE
8
annotation
62
1
39
211
10
137.230535
20
129.166805
11
137.230537
21
129.166797
0
LINE
8
annotation
62
1
39
211
10
137.230537
20
129.166797
11
137.230539
21
129.166789
0
LINE
8
annotation
62
1
39
211
10
137.230539
20
129.166789
11
137.230542
21
129.166780
0
LINE
8
annotation
62
1
39
211
10
137.230542
20
129.166780
11
137.230544
21
129.166772
0
LINE
8
annotation
62
1
39
211
10
137.230544
20
129.166772
11
137.230547
21
129.166764
0
LINE
8
annotation
62
1
39
211
10
137.230547
20
129.166764
11
137.230550
21
129.166756
0
LINE
8
annotation
62
1
39
211
10
137.230550
20
129.166756
11
137.230553
21
129.166747
0
LINE
8
annotation
62
1
39
211
10
137.230553
20
129.166747
11
137.230557
21
129.166738
0
LINE
8
annotation
62
1
39
211
10
137.230557
20
129.166738
11
137.230561
21
129.166729
0
LINE
8
annotation
62
1
39
211
10
137.230561
20
129.166729
11
137.230561
21
129.166729
0
LINE
8
annotation
62
1
39
211
10
137.230561
20
129.166729
11
137.230759
21
129.166331
0
LINE
8
annotation
62
1
39
211
10
137.230759
20
129.166331
11
137.231018
21
129.165984
0
LINE
8
annotation
62
1
39
211
10
137.231018
20
129.165984
11
137.231327
21
129.165693
0
LINE
8
annotation
62
1
39
211
10
137.231327
20
129.165693
11
137.231679
21
129.165462
0
LINE
8
annotation
62
1
39
211
10
137.231679
20
129.165462
11
137.232064
21
129.165294
0
LINE
8
annotation
62
1
39
211
10
137.232064
20
129.165294
11
137.232473
21
129.165193
0
LINE
8
annotation
62
1
39
211
10
137.232473
20
129.165193
11
137.232896
21
129.165162
0
LINE
8
annotation
62
1
39
211
10
137.232896
20
129.165162
11
137.233326
21
129.165207
0
LINE
8
annotation
62
1
39
211
10
137.233326
20
129.165207
11
137.233753
21
129.165329
0
LINE
8
annotation
62
1
39
211
10
137.233753
20
129.165329
11
137.233753
21
129.165329
0
LINE
8
annotation
62
1
39
211
10
137.233753
20
129.165329
11
137.234150
21
129.165530
0
LINE
8
annotation
62
1
39
211
10
137.234150
20
129.165530
11
137.234495
21
129.165790
0
LINE
8
annotation
62
1
39
211
10
137.234495
20
129.165790
11
137.234785
21
129.166101
0
LINE
8
annotation
62
1
39
211
10
137.234785
20
129.166101
11
137.235016
21
129.166453
0
LINE
8
annotation
62
1
39
211
10
137.235016
20
129.166453
11
137.235184
21
129.166837
0
LINE
8
annotation
62
1
39
211
10
137.235184
20
129.166837
11
137.235285
21
129.167246
0
LINE
8
annotation
62
1
39
211
10
137.235285
20
129.167246
11
137.235314
21
129.167670
0
LINE
8
annotation
62
1
39
211
10
137.235314
20
129.167670
11
137.235269
21
129.168100
0
LINE
8
annotation
62
1
39
211
10
137.235269
20
129.168100
11
137.235144
21
129.168527
0
LINE
8
annotation
62
1
39
211
10
137.235144
20
129.168527
11
137.234861
21
129.169167
0
LINE
8
annotation
62
1
39
211
10
137.220071
20
129.161479
11
137.223910
21
129.166292
0
LINE
8
annotation
62
1
39
211
10
137.223910
20
129.166292
11
137.229118
21
129.158994
0
LINE
8
annotation
62
1
39
211
10
137.219295
20
129.164458
11
137.223144
21
129.161388
0
LINE
8
annotation
62
1
39
211
10
142.671532
20
202.422967
11
142.686353
21
202.420777
0
LINE
8
annotation
62
1
39
211
10
142.686353
20
202.420777
11
142.685885
21
202.427264
0
LINE
8
annotation
62
1
39
211
10
142.679857
20
202.420308
11
142.679623
21
202.423551
0
LINE
8
annotation
62
1
39
211
10
142.672395
20
202.411010
11
142.686983
21
202.412063
0
LINE
8
annotation
62
1
39
211
10
142.686983
20
202.412063
11
142.683504
21
202.415072
0
LINE
8
annotation
62
1
39
211
10
85.505005
20
237.900614
11
85.507418
21
237.901777
0
LINE
8
annotation
62
1
39
211
10
85.507418
20
237.901777
11
85.507418
21
237.901777
0
LINE
8
annotation
62
1
39
211
10
85.507418
20
237.901777
11
85.507833
21
237.902024
0
LINE
8
annotation
62
1
39
211
10
85.507833
20
237.902024
11
85.508187
21
237.902333
0
LINE
8
annotation
62
1
39
211
10
85.508187
20
237.902333
11
85.508477
21
237.902693
0
LINE
8
annotation
62
1
39
211
10
85.508477
20
237.902693
11
85.508699
21
237.903093
0
LINE
8
annotation
62
1
39
211
10
85.508699
20
237.903093
11
85.508849
21
237.903525
0
LINE
8
annotation
62
1
39
211
10
85.508849
20
237.903525
11
85.508925
21
237.903977
0
LINE
8
annotation
62
1
39
211
10
85.508925
20
237.903977
11
85.508923
21
237.904440
0
LINE
8
annotation
62
1
39
211
10
85.508923
20
237.904440
11
85.508838
21
237.904902
0
LINE
8
annotation
62
1
39
211
10
85.508838
20
237.904902
11
85.508668
21
237.905355
0
LINE
8
annotation
62
1
39
211
10
85.508668
20
237.905355
11
85.508089
21
237.906558
0
LINE
8
annotation
62
1
39
211
10
85.508089
20
237.906558
11
85.508089
21
237.906558
0
LINE
8
annotation
62
1
39
211
10
85.508089
20
237.906558
11
85.507841
21
237.906973
0
LINE
8
annotation
62
1
39
211
10
85.507841
20
237.906973
11
85.507532
21
237.907327
0
LINE
8
annotation
62
1
39
211
10
85.507532
20
237.907327
11
85.507173
21
237.907617
0
LINE
8
annotation
62
1
39
211
10
85.507173
20
237.907617
11
85.506773
21
237.907838
0
LINE
8
annotation
62
1
39
211
10
85.506773
20
237.907838
11
85.506342
21
237.907988
0
LINE
8
annotation
62
1
39
211
10
85.506342
20
237.907988
11
85.505890
21
237.908063
0
LINE
8
annotation
62
1
39
211
10
85.505890
20
237.908063
11
85.505429
21
237.908060
0
LINE
8
annotation
62
1
39
211
10
85.505429
20
237.908060
11
85.504967
21
237.907976
0
LINE
8
annotation
62
1
39
211
10
85.504967
20
237.907976
11
85.504515
21
237.907806
0
LINE
8
annotation
62
1
39
211
10
85.504515
20
237.907806
11
85.502101
21
237.906643
0
LINE
8
annotation
62
1
39
211
10
85.502101
20
237.906643
11
85.499770
21
237.911484
0
LINE
8
annotation
62
1
39
211
10
85.499770
20
237.911484
11
85.504598
21
237.913808
0
LINE
8
annotation
62
1
39
211
10
85.512747
20
237.907312
11
85.512747
21
237.907312
0
LINE
8
annotation
62
1
39
211
10
85.512747
20
237.907312
11
85.512995
21
237.906897
0
LINE
8
annotation
62
1
39
211
10
85.512995
20
237.906897
11
85.513304
21
237.906542
0
LINE
8
annotation
62
1
39
211
10
85.513304
20
237.906542
11
85.513664
21
237.906253
0
LINE
8
annotation
62
1
39
211
10
85.513664
20
237.906253
11
85.514064
21
237.906031
0
LINE
8
annotation
62
1
39
211
10
85.514064
20
237.906031
11
85.514495
21
237.905881
0
LINE
8
annotation
62
1
39
211
10
85.514495
20
237.905881
11
85.514947
21
237.905806
0
LINE
8
annotation
62
1
39
211
10
85.514947
20
237.905806
11
85.515408
21
237.905809
0
LINE
8
annotation
62
1
39
211
10
85.515408
20
237.905809
11
85.515870
21
237.905894
0
LINE
8
annotation
62
1
39
211
10
85.515870
20
237.905894
11
85.516322
21
237.906064
0
LINE
8
annotation
62
1
39
211
10
85.516322
20
237.906064
11
85.516322
21
237.906064
0
LINE
8
annotation
62
1
39
211
10
85.516322
20
237.906064
11
85.516736
21
237.906311
0
LINE
8
annotation
62
1
39
211
10
85.516736
20
237.906311
11
85.517091
21
237.906619
0
LINE
8
annotation
62
1
39
211
10
85.517091
20
237.906619
11
85.517381
21
237.906978
0
LINE
8
annotation
62
1
39
211
10
85.517381
20
237.906978
11
85.517603
21
237.907378
0
LINE
8
annotation
62
1
39
211
10
85.517603
20
237.907378
11
85.517755
21
237.907809
0
LINE
8
annotation
62
1
39
211
10
85.517755
20
237.907809
11
85.517831
21
237.908260
0
LINE
8
annotation
62
1
39
211
10
85.517831
20
237.908260
11
85.517829
21
237.908721
0
LINE
8
annotation
62
1
39
211
10
85.517829
20
237.908721
11
85.517745
21
237.909184
0
LINE
8
annotation
62
1
39
211
10
85.517745
20
237.909184
11
85.517575
21
237.909636
0
LINE
8
annotation
62
1
39
211
10
85.517575
20
237.909636
11
85.516996
21
237.910839
0
LINE
8
annotation
62
1
39
211
10
85.516996
20
237.910839
11
85.516996
21
237.910839
0
LINE
8
annotation
62
1
39
211
10
85.516996
20
237.910839
11
85.516748
21
237.911254
0
LINE
8
annotation
62
1
39
211
10
85.516748
20
237.911254
11
85.516439
21
237.911609
0
LINE
8
annotation
62
1
39
211
10
85.516439
20
237.911609
11
85.516079
21
237.911899
0
LINE
8
annotation
62
1
39
211
10
85.516079
20
237.911899
11
85.515678
21
237.912122
0
LINE
8
annotation
62
1
39
211
10
85.515678
20
237.912122
11
85.515247
21
237.912273
0
LINE
8
annotation
62
1
39
211
10
85.515247
20
237.912273
11
85.514795
21
237.912349
0
LINE
8
annotation
62
1
39
211
10
85.514795
20
237.912349
11
85.514333
21
237.912347
0
LINE
8
annotation
62
1
39
211
10
85.514333
20
237.912347
11
85.513871
21
237.912263
0
LINE
8
annotation
62
1
39
211
10
85.513871
20
237.912263
11
85.513418
21
237.912093
0
LINE
8
annotation
62
1
39
211
10
85.513418
20
237.912093
11
85.513418
21
237.912093
0
LINE
8
annotation
62
1
39
211
10
85.513418
20
237.912093
11
85.513004
21
237.911845
0
LINE
8
annotation
62
1
39
211
10
85.513004
20
237.911845
11
85.512650
21
237.911536
0
LINE
8
annotation
62
1
39
211
10
85.512650
20
237.911536
11
85.512360
21
237.911176
0
LINE
8
annotation
62
1
39
211
10
85.512360
20
237.911176
11
85.512138
21
237.910776
0
LINE
8
annotation
62
1
39
211
10
85.512138
20
237.910776
11
85.511987
21
237.910344
0
LINE
8
annotation
62
1
39
211
10
85.511987
20
237.910344
11
85.511911
21
237.909892
0
LINE
8
annotation
62
1
39
211
10
85.511911
20
237.909892
11
85.511914
21
237.909430
0
LINE
8
annotation
62
1
39
211
10
85.511914
20
237.909430
11
85.511998
21
237.908967
0
LINE
8
annotation
62
1
39
211
10
85.511998
20
237.908967
11
85.512168
21
237.908514
0
LINE
8
annotation
62
1
39
211
10
85.512168
20
237.908514
11
85.512747
21
237.907312
0
LINE
8
annotation
62
1
39
211
10
85.514668
20
237.915672
11
85.514668
21
237.915672
0
LINE
8
annotation
62
1
39
211
10
85.514668
20
237.915672
11
85.514421
21
237.916086
0
LINE
8
annotation
62
1
39
211
10
85.514421
20
237.916086
11
85.514113
21
237.916439
0
LINE
8
annotation
62
1
39
211
10
85.514113
20
237.916439
11
85.513753
21
237.916728
0
LINE
8
annotation
62
1
39
211
10
85.513753
20
237.916728
11
85.513353
21
237.916950
0
LINE
8
annotation
62
1
39
211
10
85.513353
20
237.916950
11
85.512922
21
237.917101
0
LINE
8
annotation
62
1
39
211
10
85.512922
20
237.917101
11
85.512470
21
237.917177
0
LINE
8
annotation
62
1
39
211
10
85.512470
20
237.917177
11
85.512008
21
237.917174
0
LINE
8
annotation
62
1
39
211
10
85.512008
20
237.917174
11
85.511546
21
237.917090
0
LINE
8
annotation
62
1
39
211
10
85.511546
20
237.917090
11
85.511094
21
237.916920
0
LINE
8
annotation
62
1
39
211
10
85.511094
20
237.916920
11
85.511094
21
237.916920
0
LINE
8
annotation
62
1
39
211
10
85.511094
20
237.916920
11
85.510679
21
237.916673
0
LINE
8
annotation
62
1
39
211
10
85.510679
20
237.916673
11
85.510325
21
237.916364
0
LINE
8
annotation
62
1
39
211
10
85.510325
20
237.916364
11
85.510035
21
237.916004
0
LINE
8
annotation
62
1
39
211
10
85.510035
20
237.916004
11
85.509813
21
237.915604
0
LINE
8
annotation
62
1
39
211
10
85.509813
20
237.915604
11
85.509662
21
237.915173
0
LINE
8
annotation
62
1
39
211
10
85.509662
20
237.915173
11
85.509586
21
237.914721
0
LINE
8
annotation
62
1
39
211
10
85.509586
20
237.914721
11
85.509588
21
237.914260
0
LINE
8
annotation
62
1
39
211
10
85.509588
20
237.914260
11
85.509672
21
237.913799
0
LINE
8
annotation
62
1
39
211
10
85.509672
20
237.913799
11
85.509841
21
237.913348
0
LINE
8
annotation
62
1
39
211
10
85.509841
20
237.913348
11
85.509841
21
237.913348
0
LINE
8
annotation
62
1
39
211
10
85.509841
20
237.913348
11
85.510089
21
237.912932
0
LINE
8
annotation
62
1
39
211
10
85.510089
20
237.912932
11
85.510398
21
237.912578
0
LINE
8
annotation
62
1
39
211
10
85.510398
20
237.912578
11
85.510758
21
237.912287
0
LINE
8
annotation
62
1
39
211
10
85.510758
20
237.912287
11
85.511159
21
237.912065
0
LINE
8
annotation
62
1
39
211
10
85.511159
20
237.912065
11
85.511590
21
237.911913
0
LINE
8
annotation
62
1
39
211
10
85.511590
20
237.911913
11
85.512042
21
237.911837
0
LINE
8
annotation
62
1
39
211
10
85.512042
20
237.911837
11
85.512504
21
237.911839
0
LINE
8
annotation
62
1
39
211
10
85.512504
20
237.911839
11
85.512966
21
237.911923
0
LINE
8
annotation
62
1
39
211
10
85.512966
20
237.911923
11
85.513418
21
237.912093
0
LINE
8
annotation
62
1
39
211
10
85.513418
20
237.912093
11
85.513418
21
237.912093
0
LINE
8
annotation
62
1
39
211
10
85.513418
20
237.912093
11
85.513833
21
237.912341
0
LINE
8
annotation
62
1
39
211
10
85.513833
20
237.912341
11
85.514187
21
237.912649
0
LINE
8
annotation
62
1
39
211
10
85.514187
20
237.912649
11
85.514477
21
237.913009
0
LINE
8
annotation
62
1
39
211
10
85.514477
20
237.913009
11
85.514699
21
237.913410
0
LINE
8
annotation
62
1
39
211
10
85.514699
20
237.913410
11
85.514849
21
237.913842
0
LINE
8
annotation
62
1
39
211
10
85.514849
20
237.913842
11
85.514925
21
237.914294
0
LINE
8
annotation
62
1
39
211
10
85.514925
20
237.914294
11
85.514923
21
237.914757
0
LINE
8
annotation
62
1
39
211
10
85.514923
20
237.914757
11
85.514838
21
237.915219
0
LINE
8
annotation
62
1
39
211
10
85.514838
20
237.915219
11
85.514668
21
237.915672
0
LINE
8
annotation
62
1
39
211
10
19.708615
20
155.386615
11
19.708615
21
155.386615
0
LINE
8
annotation
62
1
39
211
10
19.708615
20
155.386615
11
19.708823
21
155.386931
0
LINE
8
annotation
62
1
39
211
10
19.708823
20
155.386931
11
19.708968
21
155.387270
0
LINE
8
annotation
62
1
39
211
10
19.708968
20
155.387270
11
19.709051
21
155.387625
0
LINE
8
annotation
62
1
39
211
10
19.709051
20
155.387625
11
19.709072
21
155.387986
0
LINE
8
annotation
62
1
39
211
10
19.709072
20
155.387986
11
19.709033
21
155.388345
0
LINE
8
annotation
62
1
39
211
10
19.709033
20
155.388345
11
19.708934
21
155.388693
0
LINE
8
annotation
62
1
39
211
10
19.708934
20
155.388693
11
19.708776
21
155.389022
0
LINE
8
annotation
62
1
39
211
10
19.708776
20
155.389022
11
19.708560
21
155.389323
0
LINE
8
annotation
62
1
39
211
10
19.708560
20
155.389323
11
19.708286
21
155.389587
0
LINE
8
annotation
62
1
39
211
10
19.708286
20
155.389587
11
19.708286
21
155.389587
0
LINE
8
annotation
62
1
39
211
10
19.708286
20
155.389587
11
19.707077
21
155.390465
0
LINE
8
annotation
62
1
39
211
10
19.707077
20
155.390465
11
19.705797
21
155.391209
0
LINE
8
annotation
62
1
39
211
10
19.705797
20
155.391209
11
19.704456
21
155.391816
0
LINE
8
annotation
62
1
39
211
10
19.704456
20
155.391816
11
19.703066
21
155.392284
0
LINE
8
annotation
62
1
39
211
10
19.703066
20
155.392284
11
19.701637
21
155.392610
0
LINE
8
annotation
62
1
39
211
10
19.701637
20
155.392610
11
19.700181
21
155.392792
0
LINE
8
annotation
62
1
39
211
10
19.700181
20
155.392792
11
19.698708
21
155.392827
0
LINE
8
annotation
62
1
39
211
10
19.698708
20
155.392827
11
19.697230
21
155.392713
0
LINE
8
annotation
62
1
39
211
10
19.697230
20
155.392713
11
19.695757
21
155.392447
0
LINE
8
annotation
62
1
39
211
10
19.695757
20
155.392447
11
19.695757
21
155.392447
0
LINE
8
annotation
62
1
39
211
10
19.695757
20
155.392447
11
19.695605
21
155.392405
0
LINE
8
annotation
62
1
39
211
10
19.695605
20
155.392405
11
19.695457
21
155.392352
0
LINE
8
annotation
62
1
39
211
10
19.695457
20
155.392352
11
19.695313
21
155.392288
0
LINE
8
annotation
62
1
39
211
10
19.695313
20
155.392288
11
19.695174
21
155.392214
0
LINE
8
annotation
62
1
39
211
10
19.695174
20
155.392214
11
19.695042
21
155.392131
0
LINE
8
annotation
62
1
39
211
10
19.695042
20
155.392131
11
19.694916
21
155.392039
0
LINE
8
annotation
62
1
39
211
10
19.694916
20
155.392039
11
19.694798
21
155.391937
0
LINE
8
annotation
62
1
39
211
10
19.694798
20
155.391937
11
19.694689
21
155.391828
0
LINE
8
annotation
62
1
39
211
10
19.694689
20
155.391828
11
19.694588
21
155.391711
0
LINE
8
annotation
62
1
39
211
10
19.694588
20
155.391711
11
19.694588
21
155.391711
0
LINE
8
annotation
62
1
39
211
10
19.694588
20
155.391711
11
19.694377
21
155.391393
0
LINE
8
annotation
62
1
39
211
10
19.694377
20
155.391393
11
19.694229
21
155.391051
0
LINE
8
annotation
62
1
39
211
10
19.694229
20
155.391051
11
19.694144
21
155.390696
0
LINE
8
annotation
62
1
39
211
10
19.694144
20
155.390696
11
19.694122
21
155.390334
0
LINE
8
annotation
62
1
39
211
10
19.694122
20
155.390334
11
19.694160
21
155.389975
0
LINE
8
annotation
62
1
39
211
10
19.694160
20
155.389975
11
19.694259
21
155.389626
0
LINE
8
annotation
62
1
39
211
10
19.694259
20
155.389626
11
19.694418
21
155.389297
0
LINE
8
annotation
62
1
39
211
10
19.694418
20
155.389297
11
19.694635
21
155.388996
0
LINE
8
annotation
62
1
39
211
10
19.694635
20
155.388996
11
19.694910
21
155.388731
0
LINE
8
annotation
62
1
39
211
10
19.694910
20
155.388731
11
19.694910
21
155.388731
0
LINE
8
annotation
62
1
39
211
10
19.694910
20
155.388731
11
19.696119
21
155.387856
0
LINE
8
annotation
62
1
39
211
10
19.696119
20
155.387856
11
19.697400
21
155.387114
0
LINE
8
annotation
62
1
39
211
10
19.697400
20
155.387114
11
19.698741
21
155.386509
0
LINE
8
annotation
62
1
39
211
10
19.698741
20
155.386509
11
19.700132
21
155.386042
0
LINE
8
annotation
62
1
39
211
10
19.700132
20
155.386042
11
19.701560
21
155.385715
0
LINE
8
annotation
62
1
39
211
10
19.701560
20
155.385715
11
19.703017
21
155.385533
0
LINE
8
annotation
62
1
39
211
10
19.703017
20
155.385533
11
19.704489
21
155.385496
0
LINE
8
annotation
62
1
39
211
10
19.704489
20
155.385496
11
19.705967
21
155.385609
0
LINE
8
annotation
62
1
39
211
10
19.705967
20
155.385609
11
19.707439
21
155.385872
0
LINE
8
annotation
62
1
39
211
10
19.707439
20
155.385872
11
19.707439
21
155.385872
0
LINE
8
annotation
62
1
39
211
10
19.707439
20
155.385872
11
19.707591
21
155.385913
0
LINE
8
annotation
62
1
39
211
10
19.707591
20
155.385913
11
19.707739
21
155.385966
0
LINE
8
annotation
62
1
39
211
10
19.707739
20
155.385966
11
19.707882
21
155.386029
0
LINE
8
annotation
62
1
39
211
10
19.707882
20
155.386029
11
19.708019
21
155.386102
0
LINE
8
annotation
62
1
39
211
10
19.708019
20
155.386102
11
19.708152
21
155.386186
0
LINE
8
annotation
62
1
39
211
10
19.708152
20
155.386186
11
19.708278
21
155.386279
0
LINE
8
annotation
62
1
39
211
10
19.708278
20
155.386279
11
19.708397
21
155.386382
0
LINE
8
annotation
62
1
39
211
10
19.708397
20
155.386382
11
19.708510
21
155.386494
0
LINE
8
annotation
62
1
39
211
10
19.708510
20
155.386494
11
19.708615
21
155.386615
0
LINE
8
annotation
62
1
39
211
10
43.196102
20
52.488617
11
43.185764
21
52.480373
0
LINE
8
annotation
62
1
39
211
10
43.185764
20
52.480373
11
43.189896
21
52.479908
0
LINE
8
annotation
62
1
39
211
10
43.186135
20
52.496401
11
43.190712
21
52.490660
0
LINE
8
annotation
62
1
39
211
10
43.190712
20
52.490660
11
43.180845
21
52.486541
0
LINE
8
annotation
62
1
39
211
10
43.189805
20
52.496513
11
43.185214
21
52.492851
0
LINE
8
boundary
62
5
39
2
10
23.982950
20
290.131140
11
15.340426
21
278.561478
0
LINE
8
boundary
62
5
39
2
10
15.340426
20
278.561478
11
15.304876
21
278.556329
0
LINE
8
boundary
62
5
39
2
10
15.304876
20
278.556329
11
15.310024
21
278.520779
0
LINE
8
boundary
62
5
39
2
10
15.310024
20
278.520779
11
6.667500
21
266.951117
0
LINE
8
boundary
62
5
39
2
10
6.667500
20
266.951117
11
40.810654
21
266.725121
0
LINE
8
boundary
62
5
39
2
10
40.810654
20
266.725121
11
40.835885
21
266.699554
0
LINE
8
boundary
62
5
39
2
10
40.835885
20
266.699554
11
40.861453
21
266.724785
0
LINE
8
boundary
62
5
39
2
10
40.861453
20
266.724785
11
75.004606
21
266.498789
0
LINE
8
boundary
62
5
39
2
10
75.004606
20
266.498789
11
49.516826
21
278.304289
0
LINE
8
boundary
62
5
39
2
10
49.516826
20
278.304289
11
49.504453
21
278.338012
0
LINE
8
boundary
62
5
39
2
10
49.504453
20
278.338012
11
49.470730
21
278.325640
0
LINE
8
boundary
62
5
39
2
10
49.470730
20
278.325640
11
23.982950
21
290.131140
0
LINE
8
annotation
62
1
39
211
10
25.632466
20
281.126837
11
31.497405
21
276.745734
0
LINE
8
annotation
62
1
39
211
10
31.497405
20
276.745734
11
31.167162
21
279.023835
0
LINE
8
annotation
62
1
39
211
10
28.393254
20
272.590237
11
28.393254
21
272.590237
0
LINE
8
annotation
62
1
39
211
10
28.393254
20
272.590237
11
28.532069
21
273.067834
0
LINE
8
annotation
62
1
39
211
10
28.532069
20
273.067834
11
28.599333
21
273.550999
0
LINE
8
annotation
62
1
39
211
10
28.599333
20
273.550999
11
28.597141
21
274.032691
0
LINE
8
annotation
62
1
39
211
10
28.597141
20
274.032691
11
28.527593
21
274.505867
0
LINE
8
annotation
62
1
39
211
10
28.527593
20
274.505867
11
28.392783
21
274.963485
0
LINE
8
annotation
62
1
39
211
10
28.392783
20
274.963485
11
28.194811
21
275.398504
0
LINE
8
annotation
62
1
39
211
10
28.194811
20
275.398504
11
27.935771
21
275.803880
0
LINE
8
annotation
62
1
39
211
10
27.935771
20
275.803880
11
27.617762
21
276.172572
0
LINE
8
annotation
62
1
39
211
10
27.617762
20
276.172572
11
27.242881
21
276.497538
0
LINE
8
annotation
62
1
39
211
10
27.242881
20
276.497538
11
25.293541
21
277.953693
0
LINE
8
annotation
62
1
39
211
10
25.293541
20
277.953693
11
25.293541
21
277.953693
0
LINE
8
annotation
62
1
39
211
10
25.293541
20
277.953693
11
25.043547
21
278.107678
0
LINE
8
annotation
62
1
39
211
10
25.043547
20
278.107678
11
24.777730
21
278.211816
0
LINE
8
annotation
62
1
39
211
10
24.777730
20
278.211816
11
24.502553
21
278.267063
0
LINE
8
annotation
62
1
39
211
10
24.502553
20
278.267063
11
24.224477
21
278.274373
0
LINE
8
annotation
62
1
39
211
10
24.224477
20
278.274373
11
23.949966
21
278.234701
0
LINE
8
annotation
62
1
39
211
10
23.949966
20
278.234701
11
23.685482
21
278.149002
0
LINE
8
annotation
62
1
39
211
10
23.685482
20
278.149002
11
23.437487
21
278.018230
0
LINE
8
annotation
62
1
39
211
10
23.437487
20
278.018230
11
23.212443
21
277.843341
0
LINE
8
annotation
62
1
39
211
10
23.212443
20
277.843341
11
23.016814
21
277.625289
0
LINE
8
annotation
62
1
39
211
10
23.016814
20
277.625289
11
23.016814
21
277.625289
0
LINE
8
annotation
62
1
39
211
10
23.016814
20
277.625289
11
22.862857
21
277.375353
0
LINE
8
annotation
62
1
39
211
10
22.862857
20
277.375353
11
22.758803
21
277.109683
0
LINE
8
annotation
62
1
39
211
10
22.758803
20
277.109683
11
22.703702
21
276.834702
0
LINE
8
annotation
62
1
39
211
10
22.703702
20
276.834702
11
22.696601
21
276.556832
0
LINE
8
annotation
62
1
39
211
10
22.696601
20
276.556832
11
22.736548
21
276.282496
0
LINE
8
annotation
62
1
39
211
10
22.736548
20
276.282496
11
22.822592
21
276.018116
0
LINE
8
annotation
62
1
39
211
10
22.822592
20
276.018116
11
22.953781
21
275.770113
0
LINE
8
annotation
62
1
39
211
10
22.953781
20
275.770113
11
23.129164
21
275.544912
0
LINE
8
annotation
62
1
39
211
10
23.129164
20
275.544912
11
23.347789
21
275.348933
0
LINE
8
annotation
62
1
39
211
10
23.347789
20
275.348933
11
23.996588
21
274.864281
0
LINE
8
annotation
62
1
39
211
10
23.996588
20
274.864281
11
23.996588
21
274.864281
0
LINE
8
annotation
62
1
39
211
10
23.996588
20
274.864281
11
24.246423
21
274.710321
0
LINE
8
annotation
62
1
39
211
10
24.246423
20
274.710321
11
24.511823
21
274.606258
0
LINE
8
annotation
62
1
39
211
10
24.511823
20
274.606258
11
24.786413
21
274.551144
0
LINE
8
annotation
62
1
39
211
10
24.786413
20
274.551144
11
25.063819
21
274.544027
0
LINE
8
annotation
62
1
39
211
10
25.063819
20
274.544027
11
25.337668
21
274.583958
0
LINE
8
annotation
62
1
39
211
10
25.337668
20
274.583958
11
25.601585
21
274.669987
0
LINE
8
annotation
62
1
39
211
10
25.601585
20
274.669987
11
25.849196
21
274.801163
0
LINE
8
annotation
62
1
39
211
10
25.849196
20
274.801163
11
26.074127
21
274.976537
0
LINE
8
annotation
62
1
39
211
10
26.074127
20
274.976537
11
26.270005
21
275.195159
0
LINE
8
annotation
62
1
39
211
10
26.270005
20
275.195159
11
27.242881
21
276.497538
0
LINE
8
annotation
62
1
39
211
10
23.378423
20
279.638426
11
21.187871
21
276.705956
0
LINE
8
annotation
62
1
39
211
10
15.328468
20
278.533251
11
15.316751
21
278.542004
0
LINE
8
annotation
62
1
39
211
10
15.316751
20
278.542004
11
15.317411
21
278.537453
0
LINE
8
annotation
62
1
39
211
10
15.333697
20
278.540250
11
15.323925
21
278.551608
0
LINE
8
annotation
62
1
39
211
10
15.323925
20
278.551608
11
15.320033
21
278.546397
0
LINE
8
annotation
62
1
39
211
10
15.329143
20
278.547710
11
15.327197
21
278.545105
0
LINE
8
annotation
62
1
39
211
10
40.840778
20
266.731533
11
40.840691
21
266.718311
0
LINE
8
annotation
62
1
39
211
10
40.840691
20
266.718311
11
40.843650
21
266.721232
0
LINE
8
annotation
62
1
39
211
10
40.828459
20
266.728675
11
40.835801
21
266.728627
0
LINE
8
annotation
62
1
39
211
10
40.835801
20
266.728627
11
40.832801
21
266.718363
0
LINE
8
annotation
62
1
39
211
10
40.830679
20
266.731600
11
40.830641
21
266.725728
0
LINE
8
annotation
62
1
39
211
10
49.486739
20
278.310161
11
49.492890
21
278.323440
0
LINE
8
annotation
62
1
39
211
10
49.492890
20
278.323440
11
49.488570
21
278.321854
0
LINE
8
annotation
62
1
39
211
10
49.493082
20
278.310799
11
49.493082
21
278.310799
0
LINE
8
annotation
62
1
39
211
10
49.493082
20
278.310799
11
49.492884
21
278.310247
0
LINE
8
annotation
62
1
39
211
10
49.492884
20
278.310247
11
49.492790
21
278.309685
0
LINE
8
annotation
62
1
39
211
10
49.492790
20
278.309685
11
49.492796
21
278.309125
0
LINE
8
annotation
62
1
39
211
10
49.492796
20
278.309125
11
49.492897
21
278.308579
0
LINE
8
annotation
62
1
39
211
10
49.492897
20
278.308579
11
49.493088
21
278.308060
0
LINE
8
annotation
62
1
39
211
10
49.493088
20
278.308060
11
49.493366
21
278.307579
0
LINE
8
annotation
62
1
39
211
10
49.493366
20
278.307579
11
49.493724
21
278.307149
0
LINE
8
annotation
62
1
39
211
10
49.493724
20
278.307149
11
49.494159
21
278.306781
0
LINE
8
annotation
62
1
39
211
10
49.494159
20
278.306781
11
49.494667
21
278.306489
0
LINE
8
annotation
62
1
39
211
10
49.494667
20
278.306489
11
49.494667
21
278.306489
0
LINE
8
annotation
62
1
39
211
10
49.494667
20
278.306489
11
49.495218
21
278.306291
0
LINE
8
annotation
62
1
39
211
10
49.495218
20
278.306291
11
49.495780
21
278.306197
0
LINE
8
annotation
62
1
39
211
10
49.495780
20
278.306197
11
49.496339
21
278.306202
0
LINE
8
annotation
62
1
39
211
10
49.496339
20
278.306202
11
49.496885
21
278.306301
0
LINE
8
annotation
62
1
39
211
10
49.496885
20
278.306301
11
49.497405
21
278.306491
0
LINE
8
annotation
62
1
39
211
10
49.497405
20
278.306491
11
49.497887
21
278.306767
0
LINE
8
annotation
62
1
39
211
10
49.497887
20
278.306767
11
49.498318
21
278.307125
0
LINE
8
annotation
62
1
39
211
10
49.498318
20
278.307125
11
49.498686
21
278.307560
0
LINE
8
annotation
62
1
39
211
10
49.498686
20
278.307560
11
49.498979
21
278.308068
0
LINE
8
annotation
62
1
39
211
10
49.498979
20
278.308068
11
49.499660
21
278.309537
0
LINE
8
annotation
62
1
39
211
10
49.499660
20
278.309537
11
49.499660
21
278.309537
0
LINE
8
annotation
62
1
39
211
10
49.499660
20
278.309537
11
49.499858
21
278.310089
0
LINE
8
annotation
62
1
39
211
10
49.499858
20
278.310089
11
49.499952
21
278.310652
0
LINE
8
annotation
62
1
39
211
10
49.499952
20
278.310652
11
49.499946
21
278.311213
0
LINE
8
annotation
62
1
39
211
10
49.499946
20
278.311213
11
49.499846
21
278.311760
0
LINE
8
annotation
62
1
39
211
10
49.499846
20
278.311760
11
49.499655
21
278.312280
0
LINE
8
annotation
62
1
39
211
10
49.499655
20
278.312280
11
49.499379
21
278.312762
0
LINE
8
annotation
62
1
39
211
10
49.499379
20
278.312762
11
49.499021
21
278.313193
0
LINE
8
annotation
62
1
39
211
10
49.499021
20
278.313193
11
49.498586
21
278.313562
0
LINE
8
annotation
62
1
39
211
10
49.498586
20
278.313562
11
49.498078
21
278.313854
0
LINE
8
annotation
62
1
39
211
10
49.498078
20
278.313854
11
49.498078
21
278.313854
0
LINE
8
annotation
62
1
39
211
10
49.498078
20
278.313854
11
49.497527
21
278.314052
0
LINE
8
annotation
62
1
39
211
10
49.497527
20
278.314052
11
49.496965
21
278.314146
0
LINE
8
annotation
62
1
39
211
10
49.496965
20
278.314146
11
49.496404
21
278.314140
0
LINE
8
annotation
62
1
39
211
10
49.496404
20
278.314140
11
49.495858
21
278.314039
0
LINE
8
annotation
62
1
39
211
10
49.495858
20
278.314039
11
49.495337
21
278.313848
0
LINE
8
annotation
62
1
39
211
10
49.495337
20
278.313848
11
49.494855
21
278.313571
0
LINE
8
annotation
62
1
39
211
10
49.494855
20
278.313571
11
49.494424
21
278.313212
0
LINE
8
annotation
62
1
39
211
10
49.494424
20
278.313212
11
49.494055
21
278.312776
0
LINE
8
annotation
62
1
39
211
10
49.494055
20
278.312776
11
49.493762
21
278.312268
0
LINE
8
annotation
62
1
39
211
10
49.493762
20
278.312268
11
49.493082
21
278.310799
0
LINE
8
annotation
62
1
39
211
10
49.502395
20
278.315441
11
49.502395
21
278.315441
0
LINE
8
annotation
62
1
39
211
10
49.502395
20
278.315441
11
49.502592
21
278.315991
0
LINE
8
annotation
62
1
39
211
10
49.502592
20
278.315991
11
49.502685
21
278.316552
0
LINE
8
annotation
62
1
39
211
10
49.502685
20
278.316552
11
49.502679
21
278.317112
0
LINE
8
annotation
62
1
39
211
10
49.502679
20
278.317112
11
49.502578
21
278.317658
0
LINE
8
annotation
62
1
39
211
10
49.502578
20
278.317658
11
49.502387
21
278.318178
0
LINE
8
annotation
62
1
39
211
10
49.502387
20
278.318178
11
49.502110
21
278.318660
0
LINE
8
annotation
62
1
39
211
10
49.502110
20
278.318660
11
49.501752
21
278.319091
0
LINE
8
annotation
62
1
39
211
10
49.501752
20
278.319091
11
49.501317
21
278.319459
0
LINE
8
annotation
62
1
39
211
10
49.501317
20
278.319459
11
49.500810
21
278.319752
0
LINE
8
annotation
62
1
39
211
10
49.500810
20
278.319752
11
49.500810
21
278.319752
0
LINE
8
annotation
62
1
39
211
10
49.500810
20
278.319752
11
49.500258
21
278.319949
0
LINE
8
annotation
62
1
39
211
10
49.500258
20
278.319949
11
49.499696
21
278.320043
0
LINE
8
annotation
62
1
39
211
10
49.499696
20
278.320043
11
49.499136
21
278.320037
0
LINE
8
annotation
62
1
39
211
10
49.499136
20
278.320037
11
49.498589
21
278.319937
0
LINE
8
annotation
62
1
39
211
10
49.498589
20
278.319937
11
49.498069
21
278.319746
0
LINE
8
annotation
62
1
39
211
10
49.498069
20
278.319746
11
49.497588
21
278.319470
0
LINE
8
annotation
62
1
39
211
10
49.497588
20
278.319470
11
49.497157
21
278.319113
0
LINE
8
annotation
62
1
39
211
10
49.497157
20
278.319113
11
49.496789
21
278.318679
0
LINE
8
annotation
62
1
39
211
10
49.496789
20
278.318679
11
49.496497
21
278.318173
0
LINE
8
annotation
62
1
39
211
10
49.496497
20
278.318173
11
49.496497
21
278.318173
0
LINE
8
annotation
62
1
39
211
10
49.496497
20
278.318173
11
49.496299
21
278.317620
0
LINE
8
annotation
62
1
39
211
10
49.496299
20
278.317620
11
49.496205
21
278.317057
0
LINE
8
annotation
62
1
39
211
10
49.496205
20
278.317057
11
49.496210
21
278.316496
0
LINE
8
annotation
62
1
39
211
10
49.496210
20
278.316496
11
49.496311
21
278.315949
0
LINE
8
annotation
62
1
39
211
10
49.496311
20
278.315949
11
49.496502
21
278.315429
0
LINE
8
annotation
62
1
39
211
10
49.496502
20
278.315429
11
49.496778
21
278.314946
0
LINE
8
annotation
62
1
39
211
10
49.496778
20
278.314946
11
49.497136
21
278.314515
0
LINE
8
annotation
62
1
39
211
10
49.497136
20
278.314515
11
49.497571
21
278.314147
0
LINE
8
annotation
62
1
39
211
10
49.497571
20
278.314147
11
49.498078
21
278.313854
0
LINE
8
annotation
62
1
39
211
10
49.498078
20
278.313854
11
49.498078
21
278.313854
0
LINE
8
annotation
62
1
39
211
10
49.498078
20
278.313854
11
49.498630
21
278.313657
0
LINE
8
annotation
62
1
39
211
10
49.498630
20
278.313657
11
49.499192
21
278.313563
0
LINE
8
annotation
62
1
39
211
10
49.499192
20
278.313563
11
49.499752
21
278.313569
0
LINE
8
annotation
62
1
39
211
10
49.499752
20
278.313569
11
49.500299
21
278.313670
0
LINE
8
annotation
62
1
39
211
10
49.500299
20
278.313670
11
49.500819
21
278.313861
0
LINE
8
annotation
62
1
39
211
10
49.500819
20
278.313861
11
49.501301
21
278.314138
0
LINE
8
annotation
62
1
39
211
10
49.501301
20
278.314138
11
49.501733
21
278.314497
0
LINE
8
annotation
62
1
39
211
10
49.501733
20
278.314497
11
49.502101
21
278.314933
0
LINE
8
annotation
62
1
39
211
10
49.502101
20
278.314933
11
49.502395
21
278.315441
0
LINE
8
boundary
62
5
39
2
10
95.495009
20
289.678749
11
86.852508
21
278.109119
0
LINE
8
boundary
62
5
39
2
10
86.852508
20
278.109119
11
86.816958
21
278.103970
0
LINE
8
boundary
62
5
39
2
10
86.816958
20
278.103970
11
86.822107
21
278.068420
0
LINE
8
boundary
62
5
39
2
10
86.822107
20
278.068420
11
78.179606
21
266.498789
0
LINE
8
boundary
62
5
39
2
10
78.179606
20
266.498789
11
111.076580
21
267.202909
0
LINE
8
boundary
62
5
39
2
10
111.076580
20
267.202909
11
111.102517
21
267.178058
0
LINE
8
boundary
62
5
39
2
10
111.102517
20
267.178058
11
111.127368
21
267.203996
0
LINE
8
boundary
62
5
39
2
10
111.127368
20
267.203996
11
144.024341
21
267.908115
0
LINE
8
boundary
62
5
39
2
10
144.024341
20
267.908115
11
119.782850
21
278.783036
0
LINE
8
boundary
62
5
39
2
10
119.782850
20
278.783036
11
119.770071
21
278.816607
0
LINE
8
boundary
62
5
39
2
10
119.770071
20
278.816607
11
119.736500
21
278.803828
0
LINE
8
boundary
62
5
39
2
10
119.736500
20
278.803828
11
95.495009
21
289.678749
0
LINE
8
annotation
62
1
39
211
10
102.617514
20
276.683003
11
102.617514
21
276.683003
0
LINE
8
annotation
62
1
39
211
10
102.617514
20
276.683003
11
102.743976
21
277.118102
0
LINE
8
annotation
62
1
39
211
10
102.743976
20
277.118102
11
102.805254
21
277.558273
0
LINE
8
annotation
62
1
39
211
10
102.805254
20
277.558273
11
102.803258
21
277.997102
0
LINE
8
annotation
62
1
39
211
10
102.803258
20
277.997102
11
102.739898
21
278.428173
0
LINE
8
annotation
62
1
39
211
10
102.739898
20
278.428173
11
102.617085
21
278.845071
0
LINE
8
annotation
62
1
39
211
10
102.617085
20
278.845071
11
102.436728
21
279.241380
0
LINE
8
annotation
62
1
39
211
10
102.436728
20
279.241380
11
102.200739
21
279.610685
0
LINE
8
annotation
62
1
39
211
10
102.200739
20
279.610685
11
101.911028
21
279.946569
0
LINE
8
annotation
62
1
39
211
10
101.911028
20
279.946569
11
101.569505
21
280.242619
0
LINE
8
annotation
62
1
39
211
10
101.569505
20
280.242619
11
99.793624
21
281.569199
0
LINE
8
annotation
62
1
39
211
10
99.793624
20
281.569199
11
99.793624
21
281.569199
0
LINE
8
annotation
62
1
39
211
10
99.793624
20
281.569199
11
99.565876
21
281.709482
0
LINE
8
annotation
62
1
39
211
10
99.565876
20
281.709482
11
99.323712
21
281.804354
0
LINE
8
annotation
62
1
39
211
10
99.323712
20
281.804354
11
99.073021
21
281.854684
0
LINE
8
annotation
62
1
39
211
10
99.073021
20
281.854684
11
98.819690
21
281.861344
0
LINE
8
annotation
62
1
39
211
10
98.819690
20
281.861344
11
98.569606
21
281.825202
0
LINE
8
annotation
62
1
39
211
10
98.569606
20
281.825202
11
98.328656
21
281.747128
0
LINE
8
annotation
62
1
39
211
10
98.328656
20
281.747128
11
98.102728
21
281.627993
0
LINE
8
annotation
62
1
39
211
10
98.102728
20
281.627993
11
97.897710
21
281.468666
0
LINE
8
annotation
62
1
39
211
10
97.897710
20
281.468666
11
97.719489
21
281.270017
0
LINE
8
annotation
62
1
39
211
10
97.719489
20
281.270017
11
97.719489
21
281.270017
0
LINE
8
annotation
62
1
39
211
10
97.719489
20
281.270017
11
97.579231
21
281.042322
0
LINE
8
annotation
62
1
39
211
10
97.579231
20
281.042322
11
97.484437
21
280.800292
0
LINE
8
annotation
62
1
39
211
10
97.484437
20
280.800292
11
97.434238
21
280.549780
0
LINE
8
annotation
62
1
39
211
10
97.434238
20
280.549780
11
97.427769
21
280.296636
0
LINE
8
annotation
62
1
39
211
10
97.427769
20
280.296636
11
97.464162
21
280.046711
0
LINE
8
annotation
62
1
39
211
10
97.464162
20
280.046711
11
97.542549
21
279.805856
0
LINE
8
annotation
62
1
39
211
10
97.542549
20
279.805856
11
97.662065
21
279.579922
0
LINE
8
annotation
62
1
39
211
10
97.662065
20
279.579922
11
97.821842
21
279.374760
0
LINE
8
annotation
62
1
39
211
10
97.821842
20
279.374760
11
98.021012
21
279.196221
0
LINE
8
annotation
62
1
39
211
10
98.021012
20
279.196221
11
98.612079
21
278.754694
0
LINE
8
annotation
62
1
39
211
10
98.612079
20
278.754694
11
98.612079
21
278.754694
0
LINE
8
annotation
62
1
39
211
10
98.612079
20
278.754694
11
98.839683
21
278.614434
0
LINE
8
annotation
62
1
39
211
10
98.839683
20
278.614434
11
99.081466
21
278.519632
0
LINE
8
annotation
62
1
39
211
10
99.081466
20
278.519632
11
99.331622
21
278.469421
0
LINE
8
annotation
62
1
39
211
10
99.331622
20
278.469421
11
99.584344
21
278.462938
0
LINE
8
annotation
62
1
39
211
10
99.584344
20
278.462938
11
99.833824
21
278.499316
0
LINE
8
annotation
62
1
39
211
10
99.833824
20
278.499316
11
100.074257
21
278.577689
0
LINE
8
annotation
62
1
39
211
10
100.074257
20
278.577689
11
100.299835
21
278.697193
0
LINE
8
annotation
62
1
39
211
10
100.299835
20
278.697193
11
100.504751
21
278.856962
0
LINE
8
annotation
62
1
39
211
10
100.504751
20
278.856962
11
100.683199
21
279.056129
0
LINE
8
annotation
62
1
39
211
10
100.683199
20
279.056129
11
101.569505
21
280.242619
0
LINE
8
annotation
62
1
39
211
10
98.048920
20
283.104018
11
96.053292
21
280.432490
0
LINE
8
annotation
62
1
39
211
10
94.765836
20
277.168999
11
94.765836
21
277.168999
0
LINE
8
annotation
62
1
39
211
10
94.765836
20
277.168999
11
94.626653
21
277.079497
0
LINE
8
annotation
62
1
39
211
10
94.626653
20
277.079497
11
94.508455
21
276.969368
0
LINE
8
annotation
62
1
39
211
10
94.508455
20
276.969368
11
94.412453
21
276.842196
0
LINE
8
annotation
62
1
39
211
10
94.412453
20
276.842196
11
94.339856
21
276.701561
0
LINE
8
annotation
62
1
39
211
10
94.339856
20
276.701561
11
94.291876
21
276.551045
0
LINE
8
annotation
62
1
39
211
10
94.291876
20
276.551045
11
94.269722
21
276.394230
0
LINE
8
annotation
62
1
39
211
10
94.269722
20
276.394230
11
94.274606
21
276.234698
0
LINE
8
annotation
62
1
39
211
10
94.274606
20
276.234698
11
94.307736
21
276.076029
0
LINE
8
annotation
62
1
39
211
10
94.307736
20
276.076029
11
94.370324
21
275.921806
0
LINE
8
annotation
62
1
39
211
10
94.370324
20
275.921806
11
94.370324
21
275.921806
0
LINE
8
annotation
62
1
39
211
10
94.370324
20
275.921806
11
94.698330
21
275.356134
0
LINE
8
annotation
62
1
39
211
10
94.698330
20
275.356134
11
95.078715
21
274.831498
0
LINE
8
annotation
62
1
39
211
10
95.078715
20
274.831498
11
95.507526
21
274.350851
0
LINE
8
annotation
62
1
39
211
10
95.507526
20
274.350851
11
95.980812
21
273.917145
0
LINE
8
annotation
62
1
39
211
10
95.980812
20
273.917145
11
96.494619
21
273.533331
0
LINE
8
annotation
62
1
39
211
10
96.494619
20
273.533331
11
97.044997
21
273.202362
0
LINE
8
annotation
62
1
39
211
10
97.044997
20
273.202362
11
97.627994
21
272.927190
0
LINE
8
annotation
62
1
39
211
10
97.627994
20
272.927190
11
98.239657
21
272.710767
0
LINE
8
annotation
62
1
39
211
10
98.239657
20
272.710767
11
98.876035
21
272.556045
0
LINE
8
annotation
62
1
39
211
10
98.876035
20
272.556045
11
98.876035
21
272.556045
0
LINE
8
annotation
62
1
39
211
10
98.876035
20
272.556045
11
98.944294
21
272.545832
0
LINE
8
annotation
62
1
39
211
10
98.944294
20
272.545832
11
99.013028
21
272.540718
0
LINE
8
annotation
62
1
39
211
10
99.013028
20
272.540718
11
99.081840
21
272.540650
0
LINE
8
annotation
62
1
39
211
10
99.081840
20
272.540650
11
99.150335
21
272.545575
0
LINE
8
annotation
62
1
39
211
10
99.150335
20
272.545575
11
99.218117
21
272.555441
0
LINE
8
annotation
62
1
39
211
10
99.218117
20
272.555441
11
99.284790
21
272.570196
0
LINE
8
annotation
62
1
39
211
10
99.284790
20
272.570196
11
99.349958
21
272.589787
0
LINE
8
annotation
62
1
39
211
10
99.349958
20
272.589787
11
99.413226
21
272.614162
0
LINE
8
annotation
62
1
39
211
10
99.413226
20
272.614162
11
99.474198
21
272.643269
0
LINE
8
annotation
62
1
39
211
10
99.474198
20
272.643269
11
99.474198
21
272.643269
0
LINE
8
annotation
62
1
39
211
10
99.474198
20
272.643269
11
99.615124
21
272.733006
0
LINE
8
annotation
62
1
39
211
10
99.615124
20
272.733006
11
99.734667
21
272.843291
0
LINE
8
annotation
62
1
39
211
10
99.734667
20
272.843291
11
99.831648
21
272.970572
0
LINE
8
annotation
62
1
39
211
10
99.831648
20
272.970572
11
99.904887
21
273.111297
0
LINE
8
annotation
62
1
39
211
10
99.904887
20
273.111297
11
99.953203
21
273.261912
0
LINE
8
annotation
62
1
39
211
10
99.953203
20
273.261912
11
99.975416
21
273.418865
0
LINE
8
annotation
62
1
39
211
10
99.975416
20
273.418865
11
99.970346
21
273.578604
0
LINE
8
annotation
62
1
39
211
10
99.970346
20
273.578604
11
99.936814
21
273.737575
0
LINE
8
annotation
62
1
39
211
10
99.936814
20
273.737575
11
99.873639
21
273.892227
0
LINE
8
annotation
62
1
39
211
10
99.873639
20
273.892227
11
99.873639
21
273.892227
0
LINE
8
annotation
62
1
39
211
10
99.873639
20
273.892227
11
99.544990
21
274.456831
0
LINE
8
annotation
62
1
39
211
10
99.544990
20
274.456831
11
99.164123
21
274.980667
0
LINE
8
annotation
62
1
39
211
10
99.164123
20
274.980667
11
98.734991
21
275.460780
0
LINE
8
annotation
62
1
39
211
10
98.734991
20
275.460780
11
98.261545
21
275.894220
0
LINE
8
annotation
62
1
39
211
10
98.261545
20
275.894220
11
97.747737
21
276.278033
0
LINE
8
annotation
62
1
39
211
10
97.747737
20
276.278033
11
97.197520
21
276.609269
0
LINE
8
annotation
62
1
39
211
10
97.197520
20
276.609269
11
96.614845
21
276.884975
0
LINE
8
annotation
62
1
39
211
10
96.614845
20
276.884975
11
96.003663
21
277.102198
0
LINE
8
annotation
62
1
39
211
10
96.003663
20
277.102198
11
95.367928
21
277.257987
0
LINE
8
annotation
62
1
39
211
10
95.367928
20
277.257987
11
95.367928
21
277.257987
0
LINE
8
annotation
62
1
39
211
10
95.367928
20
277.257987
11
95.299836
21
277.268222
0
LINE
8
annotation
62
1
39
211
10
95.299836
20
277.268222
11
95.231498
21
277.273382
0
LINE
8
annotation
62
1
39
211
10
95.231498
20
277.273382
11
95.163147
21
277.273486
0
LINE
8
annotation
62
1
39
211
10
95.163147
20
277.273486
11
95.095017
21
277.268553
0
LINE
8
annotation
62
1
39
211
10
95.095017
20
277.268553
11
95.027340
21
277.258602
0
LINE
8
annotation
62
1
39
211
10
95.027340
20
277.258602
11
94.960350
21
277.243652
0
LINE
8
annotation
62
1
39
211
10
94.960350
20
277.243652
11
94.894280
21
277.223723
0
LINE
8
annotation
62
1
39
211
10
94.894280
20
277.223723
11
94.829365
21
277.198832
0
LINE
8
annotation
62
1
39
211
10
94.829365
20
277.198832
11
94.765836
21
277.168999
0
LINE
8
annotation
62
1
39
211
10
86.829806
20
278.090952
11
86.829806
21
278.090952
0
LINE
8
annotation
62
1
39
211
10
86.829806
20
278.090952
11
86.829528
21
278.089998
0
LINE
8
annotation
62
1
39
211
10
86.829528
20
278.089998
11
86.829394
21
278.089032
0
LINE
8
annotation
62
1
39
211
10
86.829394
20
278.089032
11
86.829398
21
278.088069
0
LINE
8
annotation
62
1
39
211
10
86.829398
20
278.088069
11
86.829537
21
278.087123
0
LINE
8
annotation
62
1
39
211
10
86.829537
20
278.087123
11
86.829806
21
278.086208
0
LINE
8
annotation
62
1
39
211
10
86.829806
20
278.086208
11
86.830202
21
278.085339
0
LINE
8
annotation
62
1
39
211
10
86.830202
20
278.085339
11
86.830720
21
278.084528
0
LINE
8
annotation
62
1
39
211
10
86.830720
20
278.084528
11
86.831356
21
278.083791
0
LINE
8
annotation
62
1
39
211
10
86.831356
20
278.083791
11
86.832105
21
278.083142
0
LINE
8
annotation
62
1
39
211
10
86.832105
20
278.083142
11
86.836002
21
278.080231
0
LINE
8
annotation
62
1
39
211
10
86.836002
20
278.080231
11
86.836002
21
278.080231
0
LINE
8
annotation
62
1
39
211
10
86.836002
20
278.080231
11
86.836501
21
278.079923
0
LINE
8
annotation
62
1
39
211
10
86.836501
20
278.079923
11
86.837033
21
278.079715
0
LINE
8
annotation
62
1
39
211
10
86.837033
20
278.079715
11
86.837583
21
278.079605
0
LINE
8
annotation
62
1
39
211
10
86.837583
20
278.079605
11
86.838139
21
278.079590
0
LINE
8
annotation
62
1
39
211
10
86.838139
20
278.079590
11
86.838687
21
278.079669
0
LINE
8
annotation
62
1
39
211
10
86.838687
20
278.079669
11
86.839216
21
278.079841
0
LINE
8
annotation
62
1
39
211
10
86.839216
20
278.079841
11
86.839712
21
278.080102
0
LINE
8
annotation
62
1
39
211
10
86.839712
20
278.080102
11
86.840162
21
278.080452
0
LINE
8
annotation
62
1
39
211
10
86.840162
20
278.080452
11
86.840553
21
278.080888
0
LINE
8
annotation
62
1
39
211
10
86.840553
20
278.080888
11
86.840553
21
278.080888
0
LINE
8
annotation
62
1
39
211
10
86.840553
20
278.080888
11
86.840861
21
278.081387
0
LINE
8
annotation
62
1
39
211
10
86.840861
20
278.081387
11
86.841069
21
278.081918
0
LINE
8
annotation
62
1
39
211
10
86.841069
20
278.081918
11
86.841179
21
278.082468
0
LINE
8
annotation
62
1
39
211
10
86.841179
20
278.082468
11
86.841193
21
278.083023
0
LINE
8
annotation
62
1
39
211
10
86.841193
20
278.083023
11
86.841113
21
278.083572
0
LINE
8
annotation
62
1
39
211
10
86.841113
20
278.083572
11
86.840941
21
278.084100
0
LINE
8
annotation
62
1
39
211
10
86.840941
20
278.084100
11
86.840679
21
278.084596
0
LINE
8
annotation
62
1
39
211
10
86.840679
20
278.084596
11
86.840328
21
278.085046
0
LINE
8
annotation
62
1
39
211
10
86.840328
20
278.085046
11
86.839891
21
278.085438
0
LINE
8
annotation
62
1
39
211
10
86.839891
20
278.085438
11
86.838594
21
278.086407
0
LINE
8
annotation
62
1
39
211
10
86.838594
20
278.086407
11
86.838594
21
278.086407
0
LINE
8
annotation
62
1
39
211
10
86.838594
20
278.086407
11
86.838095
21
278.086714
0
LINE
8
annotation
62
1
39
211
10
86.838095
20
278.086714
11
86.837564
21
278.086922
0
LINE
8
annotation
62
1
39
211
10
86.837564
20
278.086922
11
86.837015
21
278.087033
0
LINE
8
annotation
62
1
39
211
10
86.837015
20
278.087033
11
86.836461
21
278.087047
0
LINE
8
annotation
62
1
39
211
10
86.836461
20
278.087047
11
86.835914
21
278.086967
0
LINE
8
annotation
62
1
39
211
10
86.835914
20
278.086967
11
86.835386
21
278.086795
0
LINE
8
annotation
62
1
39
211
10
86.835386
20
278.086795
11
86.834891
21
278.086533
0
LINE
8
annotation
62
1
39
211
10
86.834891
20
278.086533
11
86.834441
21
278.086182
0
LINE
8
annotation
62
1
39
211
10
86.834441
20
278.086182
11
86.834050
21
278.085745
0
LINE
8
annotation
62
1
39
211
10
86.834050
20
278.085745
11
86.832105
21
278.083142
0
LINE
8
annotation
62
1
39
211
10
86.839830
20
278.076863
11
86.844209
21
278.082725
0
LINE
8
annotation
62
1
39
211
10
86.847729
20
278.090494
11
86.836005
21
278.099252
0
LINE
8
annotation
62
1
39
211
10
86.836005
20
278.099252
11
86.836665
21
278.094698
0
LINE
8
annotation
62
1
39
211
10
111.109464
20
267.209646
11
111.106786
21
267.209589
0
LINE
8
annotation
62
1
39
211
10
111.106786
20
267.209589
11
111.106786
21
267.209589
0
LINE
8
annotation
62
1
39
211
10
111.106786
20
267.209589
11
111.106306
21
267.209535
0
LINE
8
annotation
62
1
39
211
10
111.106306
20
267.209535
11
111.105856
21
267.209401
0
LINE
8
annotation
62
1
39
211
10
111.105856
20
267.209401
11
111.105443
21
267.209193
0
LINE
8
annotation
62
1
39
211
10
111.105443
20
267.209193
11
111.105075
21
267.208921
0
LINE
8
annotation
62
1
39
211
10
111.105075
20
267.208921
11
111.104759
21
267.208591
0
LINE
8
annotation
62
1
39
211
10
111.104759
20
267.208591
11
111.104502
21
267.208211
0
LINE
8
annotation
62
1
39
211
10
111.104502
20
267.208211
11
111.104313
21
267.207789
0
LINE
8
annotation
62
1
39
211
10
111.104313
20
267.207789
11
111.104198
21
267.207333
0
LINE
8
annotation
62
1
39
211
10
111.104198
20
267.207333
11
111.104165
21
267.206850
0
LINE
8
annotation
62
1
39
211
10
111.104165
20
267.206850
11
111.104194
21
267.205516
0
LINE
8
annotation
62
1
39
211
10
111.104194
20
267.205516
11
111.104194
21
267.205516
0
LINE
8
annotation
62
1
39
211
10
111.104194
20
267.205516
11
111.104247
21
267.205035
0
LINE
8
annotation
62
1
39
211
10
111.104247
20
267.205035
11
111.104381
21
267.204585
0
LINE
8
annotation
62
1
39
211
10
111.104381
20
267.204585
11
111.104589
21
267.204172
0
LINE
8
annotation
62
1
39
211
10
111.104589
20
267.204172
11
111.104861
21
267.203805
0
LINE
8
annotation
62
1
39
211
10
111.104861
20
267.203805
11
111.105191
21
267.203489
0
LINE
8
annotation
62
1
39
211
10
111.105191
20
267.203489
11
111.105571
21
267.203234
0
LINE
8
annotation
62
1
39
211
10
111.105571
20
267.203234
11
111.105992
21
267.203045
0
LINE
8
annotation
62
1
39
211
10
111.105992
20
267.203045
11
111.106447
21
267.202931
0
LINE
8
annotation
62
1
39
211
10
111.106447
20
267.202931
11
111.106929
21
267.202898
0
LINE
8
annotation
62
1
39
211
10
111.106929
20
267.202898
11
111.109608
21
267.202956
0
LINE
8
annotation
62
1
39
211
10
111.109608
20
267.202956
11
111.109723
21
267.197585
0
LINE
8
annotation
62
1
39
211
10
111.109723
20
267.197585
11
111.104366
21
267.197470
0
LINE
8
annotation
62
1
39
211
10
111.099642
20
267.206760
11
111.099642
21
267.206760
0
LINE
8
annotation
62
1
39
211
10
111.099642
20
267.206760
11
111.099588
21
267.207241
0
LINE
8
annotation
62
1
39
211
10
111.099588
20
267.207241
11
111.099454
21
267.207691
0
LINE
8
annotation
62
1
39
211
10
111.099454
20
267.207691
11
111.099247
21
267.208104
0
LINE
8
annotation
62
1
39
211
10
111.099247
20
267.208104
11
111.098974
21
267.208471
0
LINE
8
annotation
62
1
39
211
10
111.098974
20
267.208471
11
111.098644
21
267.208786
0
LINE
8
annotation
62
1
39
211
10
111.098644
20
267.208786
11
111.098265
21
267.209042
0
LINE
8
annotation
62
1
39
211
10
111.098265
20
267.209042
11
111.097843
21
267.209231
0
LINE
8
annotation
62
1
39
211
10
111.097843
20
267.209231
11
111.097388
21
267.209345
0
LINE
8
annotation
62
1
39
211
10
111.097388
20
267.209345
11
111.096906
21
267.209378
0
LINE
8
annotation
62
1
39
211
10
111.096906
20
267.209378
11
111.096906
21
267.209378
0
LINE
8
annotation
62
1
39
211
10
111.096906
20
267.209378
11
111.096427
21
267.209324
0
LINE
8
annotation
62
1
39
211
10
111.096427
20
267.209324
11
111.095976
21
267.209191
0
LINE
8
annotation
62
1
39
211
10
111.095976
20
267.209191
11
111.095564
21
267.208984
0
LINE
8
annotation
62
1
39
211
10
111.095564
20
267.208984
11
111.095195
21
267.208713
0
LINE
8
annotation
62
1
39
211
10
111.095195
20
267.208713
11
111.094879
21
267.208384
0
LINE
8
annotation
62
1
39
211
10
111.094879
20
267.208384
11
111.094623
21
267.208005
0
LINE
8
annotation
62
1
39
211
10
111.094623
20
267.208005
11
111.094433
21
267.207584
0
LINE
8
annotation
62
1
39
211
10
111.094433
20
267.207584
11
111.094318
21
267.207128
0
LINE
8
annotation
62
1
39
211
10
111.094318
20
267.207128
11
111.094285
21
267.206646
0
LINE
8
annotation
62
1
39
211
10
111.094285
20
267.206646
11
111.094314
21
267.205311
0
LINE
8
annotation
62
1
39
211
10
111.094314
20
267.205311
11
111.094314
21
267.205311
0
LINE
8
annotation
62
1
39
211
10
111.094314
20
267.205311
11
111.094367
21
267.204830
0
LINE
8
annotation
62
1
39
211
10
111.094367
20
267.204830
11
111.094502
21
267.204380
0
LINE
8
annotation
62
1
39
211
10
111.094502
20
267.204380
11
111.094709
21
267.203966
0
LINE
8
annotation
62
1
39
211
10
111.094709
20
267.203966
11
111.094981
21
267.203598
0
LINE
8
annotation
62
1
39
211
10
111.094981
20
267.203598
11
111.095311
21
267.203281
0
LINE
8
annotation
62
1
39
211
10
111.095311
20
267.203281
11
111.095691
21
267.203025
0
LINE
8
annotation
62
1
39
211
10
111.095691
20
267.203025
11
111.096112
21
267.202835
0
LINE
8
annotation
62
1
39
211
10
111.096112
20
267.202835
11
111.096568
21
267.202720
0
LINE
8
annotation
62
1
39
211
10
111.096568
20
267.202720
11
111.097050
21
267.202687
0
LINE
8
annotation
62
1
39
211
10
111.097050
20
267.202687
11
111.097050
21
267.202687
0
LINE
8
annotation
62
1
39
211
10
111.097050
20
267.202687
11
111.097530
21
267.202741
0
LINE
8
annotation
62
1
39
211
10
111.097530
20
267.202741
11
111.097980
21
267.202875
0
LINE
8
annotation
62
1
39
211
10
111.097980
20
267.202875
11
111.098393
21
267.203083
0
LINE
8
annotation
62
1
39
211
10
111.098393
20
267.203083
11
111.098761
21
267.203355
0
LINE
8
annotation
62
1
39
211
10
111.098761
20
267.203355
11
111.099077
21
267.203685
0
LINE
8
annotation
62
1
39
211
10
111.099077
20
267.203685
11
111.099333
21
267.204065
0
LINE
8
annotation
62
1
39
211
10
111.099333
20
267.204065
11
111.099523
21
267.204487
0
LINE
8
annotation
62
1
39
211
10
111.099523
20
267.204487
11
111.099638
21
267.204943
0
LINE
8
annotation
62
1
39
211
10
111.099638
20
267.204943
11
111.099671
21
267.205426
0
LINE
8
annotation
62
1
39
211
10
111.099671
20
267.205426
11
111.099642
21
267.206760
0
LINE
8
annotation
62
1
39
211
10
111.094429
20
267.199948
11
111.094429
21
267.199948
0
LINE
8
annotation
62
1
39
211
10
111.094429
20
267.199948
11
111.094482
21
267.199469
0
LINE
8
annotation
62
1
39
211
10
111.094482
20
267.199469
11
111.094616
21
267.199020
0
LINE
8
annotation
62
1
39
211
10
111.094616
20
267.199020
11
111.094824
21
267.198608
0
LINE
8
annotation
62
1
39
211
10
111.094824
20
267.198608
11
111.095096
21
267.198240
0
LINE
8
annotation
62
1
39
211
10
111.095096
20
267.198240
11
111.095426
21
267.197924
0
LINE
8
annotation
62
1
39
211
10
111.095426
20
267.197924
11
111.095805
21
267.197668
0
LINE
8
annotation
62
1
39
211
10
111.095805
20
267.197668
11
111.096227
21
267.197478
0
LINE
8
annotation
62
1
39
211
10
111.096227
20
267.197478
11
111.096682
21
267.197363
0
LINE
8
annotation
62
1
39
211
10
111.096682
20
267.197363
11
111.097164
21
267.197331
0
LINE
8
annotation
62
1
39
211
10
111.097164
20
267.197331
11
111.097164
21
267.197331
0
LINE
8
annotation
62
1
39
211
10
111.097164
20
267.197331
11
111.097644
21
267.197384
0
LINE
8
annotation
62
1
39
211
10
111.097644
20
267.197384
11
111.098094
21
267.197518
0
LINE
8
annotation
62
1
39
211
10
111.098094
20
267.197518
11
111.098507
21
267.197726
0
LINE
8
annotation
62
1
39
211
10
111.098507
20
267.197726
11
111.098876
21
267.197998
0
LINE
8
annotation
62
1
39
211
10
111.098876
20
267.197998
11
111.099192
21
267.198328
0
LINE
8
annotation
62
1
39
211
10
111.099192
20
267.198328
11
111.099448
21
267.198707
0
LINE
8
annotation
62
1
39
211
10
111.099448
20
267.198707
11
111.099637
21
267.199127
0
LINE
8
annotation
62
1
39
211
10
111.099637
20
267.199127
11
111.099752
21
267.199582
0
LINE
8
annotation
62
1
39
211
10
111.099752
20
267.199582
11
111.099785
21
267.200062
0
LINE
8
annotation
62
1
39
211
10
111.099785
20
267.200062
11
111.099785
21
267.200062
0
LINE
8
annotation
62
1
39
211
10
111.099785
20
267.200062
11
111.099732
21
267.200543
0
LINE
8
annotation
62
1
39
211
10
111.099732
20
267.200543
11
111.099597
21
267.200994
0
LINE
8
annotation
62
1
39
211
10
111.099597
20
267.200994
11
111.099390
21
267.201408
0
LINE
8
annotation
62
1
39
211
10
111.099390
20
267.201408
11
111.099118
21
267.201777
0
LINE
8
annotation
62
1
39
211
10
111.099118
20
267.201777
11
111.098788
21
267.202093
0
LINE
8
annotation
62
1
39
211
10
111.098788
20
267.202093
11
111.098408
21
267.202350
0
LINE
8
annotation
62
1
39
211
10
111.098408
20
267.202350
11
111.097987
21
267.202539
0
LINE
8
annotation
62
1
39
211
10
111.097987
20
267.202539
11
111.097531
21
267.202654
0
LINE
8
annotation
62
1
39
211
10
111.097531
20
267.202654
11
111.097050
21
267.202687
0
LINE
8
annotation
62
1
39
211
10
111.097050
20
267.202687
11
111.097050
21
267.202687
0
LINE
8
annotation
62
1
39
211
10
111.097050
20
267.202687
11
111.096570
21
267.202634
0
LINE
8
annotation
62
1
39
211
10
111.096570
20
267.202634
11
111.096120
21
267.202499
0
LINE
8
annotation
62
1
39
211
10
111.096120
20
267.202499
11
111.095707
21
267.202292
0
LINE
8
annotation
62
1
39
211
10
111.095707
20
267.202292
11
111.095339
21
267.202019
0
LINE
8
annotation
62
1
39
211
10
111.095339
20
267.202019
11
111.095022
21
267.201689
0
LINE
8
annotation
62
1
39
211
10
111.095022
20
267.201689
11
111.094766
21
267.201309
0
LINE
8
annotation
62
1
39
211
10
111.094766
20
267.201309
11
111.094576
21
267.200887
0
LINE
8
annotation
62
1
39
211
10
111.094576
20
267.200887
11
111.094461
21
267.200431
0
LINE
8
annotation
62
1
39
211
10
111.094461
20
267.200431
11
111.094429
21
267.199948
0
LINE
8
annotation
62
1
39
211
10
119.758861
20
278.800408
11
119.758861
21
278.800408
0
LINE
8
annotation
62
1
39
211
10
119.758861
20
278.800408
11
119.758043
21
278.800459
0
LINE
8
annotation
62
1
39
211
10
119.758043
20
278.800459
11
119.757242
21
278.800394
0
LINE
8
annotation
62
1
39
211
10
119.757242
20
278.800394
11
119.756468
21
278.800217
0
LINE
8
annotation
62
1
39
211
10
119.756468
20
278.800217
11
119.755732
21
278.799935
0
LINE
8
annotation
62
1
39
211
10
119.755732
20
278.799935
11
119.755045
21
278.799554
0
LINE
8
annotation
62
1
39
211
10
119.755045
20
278.799554
11
119.754416
21
278.799079
0
LINE
8
annotation
62
1
39
211
10
119.754416
20
278.799079
11
119.753858
21
278.798517
0
LINE
8
annotation
62
1
39
211
10
119.753858
20
278.798517
11
119.753379
21
278.797873
0
LINE
8
annotation
62
1
39
211
10
119.753379
20
278.797873
11
119.752991
21
278.797153
0
LINE
8
annotation
62
1
39
211
10
119.752991
20
278.797153
11
119.751350
21
278.793495
0
LINE
8
annotation
62
1
39
211
10
119.751350
20
278.793495
11
119.751350
21
278.793495
0
LINE
8
annotation
62
1
39
211
10
119.751350
20
278.793495
11
119.751192
21
278.793038
0
LINE
8
annotation
62
1
39
211
10
119.751192
20
278.793038
11
119.751120
21
278.792573
0
LINE
8
annotation
62
1
39
211
10
119.751120
20
278.792573
11
119.751131
21
278.792111
0
LINE
8
annotation
62
1
39
211
10
119.751131
20
278.792111
11
119.751219
21
278.791661
0
LINE
8
annotation
62
1
39
211
10
119.751219
20
278.791661
11
119.751381
21
278.791234
0
LINE
8
annotation
62
1
39
211
10
119.751381
20
278.791234
11
119.751614
21
278.790839
0
LINE
8
annotation
62
1
39
211
10
119.751614
20
278.790839
11
119.751913
21
278.790487
0
LINE
8
annotation
62
1
39
211
10
119.751913
20
278.790487
11
119.752276
21
278.790188
0
LINE
8
annotation
62
1
39
211
10
119.752276
20
278.790188
11
119.752697
21
278.789952
0
LINE
8
annotation
62
1
39
211
10
119.752697
20
278.789952
11
119.752697
21
278.789952
0
LINE
8
annotation
62
1
39
211
10
119.752697
20
278.789952
11
119.753154
21
278.789794
0
LINE
8
annotation
62
1
39
211
10
119.753154
20
278.789794
11
119.753618
21
278.789723
0
LINE
8
annotation
62
1
39
211
10
119.753618
20
278.789723
11
119.754080
21
278.789733
0
LINE
8
annotation
62
1
39
211
10
119.754080
20
278.789733
11
119.754530
21
278.789821
0
LINE
8
annotation
62
1
39
211
10
119.754530
20
278.789821
11
119.754957
21
278.789984
0
LINE
8
annotation
62
1
39
211
10
119.754957
20
278.789984
11
119.755351
21
278.790218
0
LINE
8
annotation
62
1
39
211
10
119.755351
20
278.790218
11
119.755702
21
278.790518
0
LINE
8
annotation
62
1
39
211
10
119.755702
20
278.790518
11
119.756002
21
278.790881
0
LINE
8
annotation
62
1
39
211
10
119.756002
20
278.790881
11
119.756238
21
278.791303
0
LINE
8
annotation
62
1
39
211
10
119.756238
20
278.791303
11
119.756784
21
278.792520
0
LINE
8
annotation
62
1
39
211
10
119.756784
20
278.792520
11
119.756784
21
278.792520
0
LINE
8
annotation
62
1
39
211
10
119.756784
20
278.792520
11
119.756942
21
278.792977
0
LINE
8
annotation
62
1
39
211
10
119.756942
20
278.792977
11
119.757014
21
278.793441
0
LINE
8
annotation
62
1
39
211
10
119.757014
20
278.793441
11
119.757004
21
278.793903
0
LINE
8
annotation
62
1
39
211
10
119.757004
20
278.793903
11
119.756916
21
278.794351
0
LINE
8
annotation
62
1
39
211
10
119.756916
20
278.794351
11
119.756753
21
278.794777
0
LINE
8
annotation
62
1
39
211
10
119.756753
20
278.794777
11
119.756520
21
278.795171
0
LINE
8
annotation
62
1
39
211
10
119.756520
20
278.795171
11
119.756220
21
278.795522
0
LINE
8
annotation
62
1
39
211
10
119.756220
20
278.795522
11
119.755857
21
278.795821
0
LINE
8
annotation
62
1
39
211
10
119.755857
20
278.795821
11
119.755435
21
278.796057
0
LINE
8
annotation
62
1
39
211
10
119.755435
20
278.796057
11
119.752991
21
278.797153
0
LINE
8
annotation
62
1
39
211
10
119.749329
20
278.789810
11
119.754832
21
278.787342
0
LINE
8
annotation
62
1
39
211
10
119.764157
20
278.784811
11
119.759269
21
278.787004
0
LINE
8
annotation
62
1
39
211
10
119.759269
20
278.787004
11
119.767047
21
278.792249
0
LINE
8
annotation
62
1
39
211
10
119.767047
20
278.792249
11
119.767047
21
278.792249
0
LINE
8
annotation
62
1
39
211
10
119.767047
20
278.792249
11
119.767056
21
278.792253
0
LINE
8
annotation
62
1
39
211
10
119.767056
20
278.792253
11
119.767064
21
278.792258
0
LINE
8
annotation
62
1
39
211
10
119.767064
20
278.792258
11
119.767072
21
278.792262
0
LINE
8
annotation
62
1
39
211
10
119.767072
20
278.792262
11
119.767080
21
278.792267
0
LINE
8
annotation
62
1
39
211
10
119.767080
20
278.792267
11
119.767088
21
278.792272
0
LINE
8
annotation
62
1
39
211
10
119.767088
20
278.792272
11
119.767096
21
278.792278
0
LINE
8
annotation
62
1
39
211
10
119.767096
20
278.792278
11
119.767104
21
278.792283
0
LINE
8
annotation
62
1
39
211
10
119.767104
20
278.792283
11
119.767112
21
278.792290
0
LINE
8
annotation
62
1
39
211
10
119.767112
20
278.792290
11
119.767121
21
278.792296
0
LINE
8
annotation
62
1
39
211
10
119.767121
20
278.792296
11
119.767121
21
278.792296
0
LINE
8
annotation
62
1
39
211
10
119.767121
20
278.792296
11
119.767487
21
278.792613
0
LINE
8
annotation
62
1
39
211
10
119.767487
20
278.792613
11
119.767782
21
278.792979
0
LINE
8
annotation
62
1
39
211
10
119.767782
20
278.792979
11
119.768005
21
278.793384
0
LINE
8
annotation
62
1
39
211
10
119.768005
20
278.793384
11
119.768153
21
278.793818
0
LINE
8
annotation
62
1
39
211
10
119.768153
20
278.793818
11
119.768226
21
278.794269
0
LINE
8
annotation
62
1
39
211
10
119.768226
20
278.794269
11
119.768222
21
278.794727
0
LINE
8
annotation
62
1
39
211
10
119.768222
20
278.794727
11
119.768139
21
278.795182
0
LINE
8
annotation
62
1
39
211
10
119.768139
20
278.795182
11
119.767976
21
278.795622
0
LINE
8
annotation
62
1
39
211
10
119.767976
20
278.795622
11
119.767732
21
278.796038
0
LINE
8
annotation
62
1
39
211
10
119.767732
20
278.796038
11
119.767732
21
278.796038
0
LINE
8
annotation
62
1
39
211
10
119.767732
20
278.796038
11
119.767413
21
278.796402
0
LINE
8
annotation
62
1
39
211
10
119.767413
20
278.796402
11
119.767045
21
278.796696
0
LINE
8
annotation
62
1
39
211
10
119.767045
20
278.796696
11
119.766639
21
278.796918
0
LINE
8
annotation
62
1
39
211
10
119.766639
20
278.796918
11
119.766206
21
278.797066
0
LINE
8
annotation
62
1
39
211
10
119.766206
20
278.797066
11
119.765755
21
278.797139
0
LINE
8
annotation
62
1
39
211
10
119.765755
20
278.797139
11
119.765297
21
278.797134
0
LINE
8
annotation
62
1
39
211
10
119.765297
20
278.797134
11
119.764842
21
278.797050
0
LINE
8
annotation
62
1
39
211
10
119.764842
20
278.797050
11
119.764401
21
278.796886
0
LINE
8
annotation
62
1
39
211
10
119.764401
20
278.796886
11
119.763985
21
278.796639
0
LINE
8
annotation
62
1
39
211
10
119.763985
20
278.796639
11
119.763388
21
278.796167
0
LINE
8
boundary
62
5
39
2
10
202.418343
20
266.498789
11
207.313943
21
277.451035
0
LINE
8
boundary
62
5
39
2
10
207.313943
20
277.451035
11
207.347497
21
277.463859
0
LINE
8
boundary
62
5
39
2
10
207.347497
20
277.463859
11
207.334674
21
277.497413
0
LINE
8
boundary
62
5
39
2
10
207.334674
20
277.497413
11
212.230274
21
288.449659
0
LINE
8
boundary
62
5
39
2
10
212.230274
20
288.449659
11
179.739830
21
282.783040
0
LINE
8
boundary
62
5
39
2
10
179.739830
20
282.783040
11
179.710444
21
282.803699
0
LINE
8
boundary
62
5
39
2
10
179.710444
20
282.803699
11
179.689785
21
282.774312
0
LINE
8
boundary
62
5
39
2
10
179.689785
20
282.774312
11
147.199341
21
277.107694
0
LINE
8
boundary
62
5
39
2
10
147.199341
20
277.107694
11
174.783898
21
271.808034
0
LINE
8
boundary
62
5
39
2
10
174.783898
20
271.808034
11
174.804050
21
271.778298
0
LINE
8
boundary
62
5
39
2
10
174.804050
20
271.778298
11
174.833786
21
271.798449
0
LINE
8
boundary
62
5
39
2
10
174.833786
20
271.798449
11
202.418343
21
266.498789
0
LINE
8
annotation
62
1
39
211
10
193.693249
20
276.002955
11
193.693249
21
276.002955
0
LINE
8
annotation
62
1
39
211
10
193.693249
20
276.002955
11
193.669424
21
275.616903
0
LINE
8
annotation
62
1
39
211
10
193.669424
20
275.616903
11
193.700838
21
275.238835
0
LINE
8
annotation
62
1
39
211
10
193.700838
20
275.238835
11
193.784698
21
274.873737
0
LINE
8
annotation
62
1
39
211
10
193.784698
20
274.873737
11
193.918210
21
274.526594
0
LINE
8
annotation
62
1
39
211
10
193.918210
20
274.526594
11
194.098582
21
274.202392
0
LINE
8
annotation
62
1
39
211
10
194.098582
20
274.202392
11
194.323022
21
273.906115
0
LINE
8
annotation
62
1
39
211
10
194.323022
20
273.906115
11
194.588736
21
273.642748
0
LINE
8
annotation
62
1
39
211
10
194.588736
20
273.642748
11
194.892932
21
273.417278
0
LINE
8
annotation
62
1
39
211
10
194.892932
20
273.417278
11
195.232816
21
273.234688
0
LINE
8
annotation
62
1
39
211
10
195.232816
20
273.234688
11
196.960312
21
272.462506
0
LINE
8
annotation
62
1
39
211
10
196.960312
20
272.462506
11
196.960312
21
272.462506
0
LINE
8
annotation
62
1
39
211
10
196.960312
20
272.462506
11
197.176265
21
272.388334
0
LINE
8
annotation
62
1
39
211
10
197.176265
20
272.388334
11
197.395718
21
272.354681
0
LINE
8
annotation
62
1
39
211
10
197.395718
20
272.354681
11
197.613929
21
272.359721
0
LINE
8
annotation
62
1
39
211
10
197.613929
20
272.359721
11
197.826160
21
272.401626
0
LINE
8
annotation
62
1
39
211
10
197.826160
20
272.401626
11
198.027668
21
272.478569
0
LINE
8
annotation
62
1
39
211
10
198.027668
20
272.478569
11
198.213716
21
272.588724
0
LINE
8
annotation
62
1
39
211
10
198.213716
20
272.588724
11
198.379561
21
272.730262
0
LINE
8
annotation
62
1
39
211
10
198.379561
20
272.730262
11
198.520464
21
272.901357
0
LINE
8
annotation
62
1
39
211
10
198.520464
20
272.901357
11
198.631684
21
273.100181
0
LINE
8
annotation
62
1
39
211
10
198.631684
20
273.100181
11
198.631684
21
273.100181
0
LINE
8
annotation
62
1
39
211
10
198.631684
20
273.100181
11
198.705845
21
273.316085
0
LINE
8
annotation
62
1
39
211
10
198.705845
20
273.316085
11
198.739459
21
273.535411
0
LINE
8
annotation
62
1
39
211
10
198.739459
20
273.535411
11
198.734342
21
273.753449
0
LINE
8
annotation
62
1
39
211
10
198.734342
20
273.753449
11
198.692314
21
273.965488
0
LINE
8
annotation
62
1
39
211
10
198.692314
20
273.965488
11
198.615191
21
274.166817
0
LINE
8
annotation
62
1
39
211
10
198.615191
20
274.166817
11
198.504793
21
274.352727
0
LINE
8
annotation
62
1
39
211
10
198.504793
20
274.352727
11
198.362937
21
274.518506
0
LINE
8
annotation
62
1
39
211
10
198.362937
20
274.518506
11
198.191441
21
274.659444
0
LINE
8
annotation
62
1
39
211
10
198.191441
20
274.659444
11
197.992122
21
274.770831
0
LINE
8
annotation
62
1
39
211
10
197.992122
20
274.770831
11
197.417160
21
275.027837
0
LINE
8
annotation
62
1
39
211
10
197.417160
20
275.027837
11
197.417160
21
275.027837
0
LINE
8
annotation
62
1
39
211
10
197.417160
20
275.027837
11
197.201331
21
275.102018
0
LINE
8
annotation
62
1
39
211
10
197.201331
20
275.102018
11
196.982208
21
275.135685
0
LINE
8
annotation
62
1
39
211
10
196.982208
20
275.135685
11
196.764465
21
275.130645
0
LINE
8
annotation
62
1
39
211
10
196.764465
20
275.130645
11
196.552775
21
275.088707
0
LINE
8
annotation
62
1
39
211
10
196.552775
20
275.088707
11
196.351813
21
275.011680
0
LINE
8
annotation
62
1
39
211
10
196.351813
20
275.011680
11
196.166253
21
274.901373
0
LINE
8
annotation
62
1
39
211
10
196.166253
20
274.901373
11
196.000768
21
274.759593
0
LINE
8
annotation
62
1
39
211
10
196.000768
20
274.759593
11
195.860033
21
274.588149
0
LINE
8
annotation
62
1
39
211
10
195.860033
20
274.588149
11
195.748722
21
274.388851
0
LINE
8
annotation
62
1
39
211
10
195.748722
20
274.388851
11
195.232816
21
273.234688
0
LINE
8
annotation
62
1
39
211
10
198.700848
20
271.511057
11
199.862472
21
274.109797
0
LINE
8
annotation
62
1
39
211
10
200.153322
20
279.605782
11
198.863340
21
276.719887
0
LINE
8
annotation
62
1
39
211
10
198.863340
20
276.719887
11
195.336503
21
279.679180
0
LINE
8
annotation
62
1
39
211
10
200.922114
20
278.224243
11
198.613789
21
279.256053
0
LINE
8
annotation
62
1
39
211
10
207.321357
20
277.482424
11
207.321357
21
277.482424
0
LINE
8
annotation
62
1
39
211
10
207.321357
20
277.482424
11
207.321305
21
277.481607
0
LINE
8
annotation
62
1
39
211
10
207.321305
20
277.481607
11
207.321370
21
277.480807
0
LINE
8
annotation
62
1
39
211
10
207.321370
20
277.480807
11
207.321547
21
277.480033
0
LINE
8
annotation
62
1
39
211
10
207.321547
20
277.480033
11
207.321829
21
277.479297
0
LINE
8
annotation
62
1
39
211
10
207.321829
20
277.479297
11
207.322211
21
277.478610
0
LINE
8
annotation
62
1
39
211
10
207.322211
20
277.478610
11
207.322686
21
277.477982
0
LINE
8
annotation
62
1
39
211
10
207.322686
20
277.477982
11
207.323249
21
277.477424
0
LINE
8
annotation
62
1
39
211
10
207.323249
20
277.477424
11
207.323893
21
277.476946
0
LINE
8
annotation
62
1
39
211
10
207.323893
20
277.476946
11
207.324613
21
277.476559
0
LINE
8
annotation
62
1
39
211
10
207.324613
20
277.476559
11
207.328292
21
277.474915
0
LINE
8
annotation
62
1
39
211
10
207.328292
20
277.474915
11
207.328292
21
277.474915
0
LINE
8
annotation
62
1
39
211
10
207.328292
20
277.474915
11
207.328750
21
277.474757
0
LINE
8
annotation
62
1
39
211
10
207.328750
20
277.474757
11
207.329216
21
277.474685
0
LINE
8
annotation
62
1
39
211
10
207.329216
20
277.474685
11
207.329679
21
277.474696
0
LINE
8
annotation
62
1
39
211
10
207.329679
20
277.474696
11
207.330129
21
277.474784
0
LINE
8
annotation
62
1
39
211
10
207.330129
20
277.474784
11
207.330557
21
277.474947
0
LINE
8
annotation
62
1
39
211
10
207.330557
20
277.474947
11
207.330952
21
277.475181
0
LINE
8
annotation
62
1
39
211
10
207.330952
20
277.475181
11
207.331304
21
277.475481
0
LINE
8
annotation
62
1
39
211
10
207.331304
20
277.475481
11
207.331603
21
277.475845
0
LINE
8
annotation
62
1
39
211
10
207.331603
20
277.475845
11
207.331840
21
277.476268
0
LINE
8
annotation
62
1
39
211
10
207.331840
20
277.476268
11
207.331840
21
277.476268
0
LINE
8
annotation
62
1
39
211
10
207.331840
20
277.476268
11
207.331997
21
277.476725
0
LINE
8
annotation
62
1
39
211
10
207.331997
20
277.476725
11
207.332068
21
277.477190
0
LINE
8
annotation
62
1
39
211
10
207.332068
20
277.477190
11
207.332057
21
277.477653
0
LINE
8
annotation
62
1
39
211
10
207.332057
20
277.477653
11
207.331967
21
277.478103
0
LINE
8
annotation
62
1
39
211
10
207.331967
20
277.478103
11
207.331804
21
277.478531
0
LINE
8
annotation
62
1
39
211
10
207.331804
20
277.478531
11
207.331570
21
277.478926
0
LINE
8
annotation
62
1
39
211
10
207.331570
20
277.478926
11
207.331269
21
277.479278
0
LINE
8
annotation
62
1
39
211
10
207.331269
20
277.479278
11
207.330905
21
277.479577
0
LINE
8
annotation
62
1
39
211
10
207.330905
20
277.479577
11
207.330482
21
277.479814
0
LINE
8
annotation
62
1
39
211
10
207.330482
20
277.479814
11
207.329255
21
277.480362
0
LINE
8
annotation
62
1
39
211
10
207.329255
20
277.480362
11
207.329255
21
277.480362
0
LINE
8
annotation
62
1
39
211
10
207.329255
20
277.480362
11
207.328797
21
277.480520
0
LINE
8
annotation
62
1
39
211
10
207.328797
20
277.480520
11
207.328331
21
277.480591
0
LINE
8
annotation
62
1
39
211
10
207.328331
20
277.480591
11
207.327868
21
277.480580
0
LINE
8
annotation
62
1
39
211
10
207.327868
20
277.480580
11
207.327417
21
277.480491
0
LINE
8
annotation
62
1
39
211
10
207.327417
20
277.480491
11
207.326990
21
277.480328
0
LINE
8
annotation
62
1
39
211
10
207.326990
20
277.480328
11
207.326595
21
277.480094
0
LINE
8
annotation
62
1
39
211
10
207.326595
20
277.480094
11
207.326243
21
277.479794
0
LINE
8
annotation
62
1
39
211
10
207.326243
20
277.479794
11
207.325944
21
277.479431
0
LINE
8
annotation
62
1
39
211
10
207.325944
20
277.479431
11
207.325708
21
277.479009
0
LINE
8
annotation
62
1
39
211
10
207.325708
20
277.479009
11
207.324613
21
277.476559
0
LINE
8
annotation
62
1
39
211
10
207.320662
20
277.484571
11
207.318196
21
277.479055
0
LINE
8
annotation
62
1
39
211
10
207.317218
20
277.472775
11
207.317218
21
277.472775
0
LINE
8
annotation
62
1
39
211
10
207.317218
20
277.472775
11
207.317007
21
277.472561
0
LINE
8
annotation
62
1
39
211
10
207.317007
20
277.472561
11
207.316842
21
277.472320
0
LINE
8
annotation
62
1
39
211
10
207.316842
20
277.472320
11
207.316723
21
277.472057
0
LINE
8
annotation
62
1
39
211
10
207.316723
20
277.472057
11
207.316651
21
277.471779
0
LINE
8
annotation
62
1
39
211
10
207.316651
20
277.471779
11
207.316626
21
277.471494
0
LINE
8
annotation
62
1
39
211
10
207.316626
20
277.471494
11
207.316649
21
277.471208
0
LINE
8
annotation
62
1
39
211
10
207.316649
20
277.471208
11
207.316721
21
277.470928
0
LINE
8
annotation
62
1
39
211
10
207.316721
20
277.470928
11
207.316843
21
277.470661
0
LINE
8
annotation
62
1
39
211
10
207.316843
20
277.470661
11
207.317015
21
277.470413
0
LINE
8
annotation
62
1
39
211
10
207.317015
20
277.470413
11
207.317015
21
277.470413
0
LINE
8
annotation
62
1
39
211
10
207.317015
20
277.470413
11
207.317819
21
277.469544
0
LINE
8
annotation
62
1
39
211
10
207.317819
20
277.469544
11
207.318700
21
277.468767
0
LINE
8
annotation
62
1
39
211
10
207.318700
20
277.468767
11
207.319649
21
277.468088
0
LINE
8
annotation
62
1
39
211
10
207.319649
20
277.468088
11
207.320658
21
277.467510
0
LINE
8
annotation
62
1
39
211
10
207.320658
20
277.467510
11
207.321719
21
277.467036
0
LINE
8
annotation
62
1
39
211
10
207.321719
20
277.467036
11
207.322823
21
277.466669
0
LINE
8
annotation
62
1
39
211
10
207.322823
20
277.466669
11
207.323963
21
277.466415
0
LINE
8
annotation
62
1
39
211
10
207.323963
20
277.466415
11
207.325130
21
277.466275
0
LINE
8
annotation
62
1
39
211
10
207.325130
20
277.466275
11
207.326317
21
277.466255
0
LINE
8
annotation
62
1
39
211
10
207.326317
20
277.466255
11
207.326317
21
277.466255
0
LINE
8
annotation
62
1
39
211
10
207.326317
20
277.466255
11
207.326442
21
277.466264
0
LINE
8
annotation
62
1
39
211
10
207.326442
20
277.466264
11
207.326565
21
277.466282
0
LINE
8
annotation
62
1
39
211
10
207.326565
20
277.466282
11
207.326687
21
277.466310
0
LINE
8
annotation
62
1
39
211
10
207.326687
20
277.466310
11
207.326806
21
277.466346
0
LINE
8
annotation
62
1
39
211
10
207.326806
20
277.466346
11
207.326922
21
277.466390
0
LINE
8
annotation
62
1
39
211
10
207.326922
20
277.466390
11
207.327034
21
277.466442
0
LINE
8
annotation
62
1
39
211
10
207.327034
20
277.466442
11
207.327141
21
277.466503
0
LINE
8
annotation
62
1
39
211
10
207.327141
20
277.466503
11
207.327243
21
277.466571
0
LINE
8
annotation
62
1
39
211
10
207.327243
20
277.466571
11
207.327339
21
277.466647
0
LINE
8
annotation
62
1
39
211
10
207.327339
20
277.466647
11
207.327339
21
277.466647
0
LINE
8
annotation
62
1
39
211
10
207.327339
20
277.466647
11
207.327553
21
277.466862
0
LINE
8
annotation
62
1
39
211
10
207.327553
20
277.466862
11
207.327720
21
277.467104
0
LINE
8
annotation
62
1
39
211
10
207.327720
20
277.467104
11
207.327841
21
277.467368
0
LINE
8
annotation
62
1
39
211
10
207.327841
20
277.467368
11
207.327915
21
277.467645
0
LINE
8
annotation
62
1
39
211
10
207.327915
20
277.467645
11
207.327940
21
277.467931
0
LINE
8
annotation
62
1
39
211
10
207.327940
20
277.467931
11
207.327917
21
277.468217
0
LINE
8
annotation
62
1
39
211
10
207.327917
20
277.468217
11
207.327845
21
277.468497
0
LINE
8
annotation
62
1
39
211
10
207.327845
20
277.468497
11
207.327722
21
277.468765
0
LINE
8
annotation
62
1
39
211
10
207.327722
20
277.468765
11
207.327549
21
277.469013
0
LINE
8
annotation
62
1
39
211
10
207.327549
20
277.469013
11
207.327549
21
277.469013
0
LINE
8
annotation
62
1
39
211
10
207.327549
20
277.469013
11
207.326744
21
277.469881
0
LINE
8
annotation
62
1
39
211
10
207.326744
20
277.469881
11
207.325862
21
277.470655
0
LINE
8
annotation
62
1
39
211
10
207.325862
20
277.470655
11
207.324913
21
277.471333
0
LINE
8
annotation
62
1
39
211
10
207.324913
20
277.471333
11
207.323904
21
277.471911
0
LINE
8
annotation
62
1
39
211
10
207.323904
20
277.471911
11
207.322843
21
277.472385
0
LINE
8
annotation
62
1
39
211
10
207.322843
20
277.472385
11
207.321739
21
277.472752
0
LINE
8
annotation
62
1
39
211
10
207.321739
20
277.472752
11
207.320599
21
277.473008
0
LINE
8
annotation
62
1
39
211
10
207.320599
20
277.473008
11
207.319432
21
277.473149
0
LINE
8
annotation
62
1
39
211
10
207.319432
20
277.473149
11
207.318247
21
277.473171
0
LINE
8
annotation
62
1
39
211
10
207.318247
20
277.473171
11
207.318247
21
277.473171
0
LINE
8
annotation
62
1
39
211
10
207.318247
20
277.473171
11
207.318122
21
277.473162
0
LINE
8
annotation
62
1
39
211
10
207.318122
20
277.473162
11
207.317999
21
277.473144
0
LINE
8
annotation
62
1
39
211
10
207.317999
20
277.473144
11
207.317879
21
277.473117
0
LINE
8
annotation
62
1
39
211
10
207.317879
20
277.473117
11
207.317760
21
277.473082
0
LINE
8
annotation
62
1
39
211
10
207.317760
20
277.473082
11
207.317644
21
277.473037
0
LINE
8
annotation
62
1
39
211
10
207.317644
20
277.473037
11
207.317532
21
277.472984
0
LINE
8
annotation
62
1
39
211
10
207.317532
20
277.472984
11
207.317423
21
277.472923
0
LINE
8
annotation
62
1
39
211
10
207.317423
20
277.472923
11
207.317318
21
277.472853
0
LINE
8
annotation
62
1
39
211
10
207.317318
20
277.472853
11
207.317218
21
277.472775
0
LINE
8
annotation
62
1
39
211
10
179.715171
20
282.786475
11
179.715171
21
282.786475
0
LINE
8
annotation
62
1
39
211
10
179.715171
20
282.786475
11
179.714278
21
282.785950
0
LINE
8
annotation
62
1
39
211
10
179.714278
20
282.785950
11
179.713486
21
282.785315
0
LINE
8
annotation
62
1
39
211
10
179.713486
20
282.785315
11
179.712801
21
282.784582
0
LINE
8
annotation
62
1
39
211
10
179.712801
20
282.784582
11
179.712230
21
282.783767
0
LINE
8
annotation
62
1
39
211
10
179.712230
20
282.783767
11
179.711780
21
282.782881
0
LINE
8
annotation
62
1
39
211
10
179.711780
20
282.782881
11
179.711458
21
282.781940
0
LINE
8
annotation
62
1
39
211
10
179.711458
20
282.781940
11
179.711271
21
282.780956
0
LINE
8
annotation
62
1
39
211
10
179.711271
20
282.780956
11
179.711226
21
282.779943
0
LINE
8
annotation
62
1
39
211
10
179.711226
20
282.779943
11
179.711329
21
282.778916
0
LINE
8
annotation
62
1
39
211
10
179.711329
20
282.778916
11
179.712199
21
282.773925
0
LINE
8
annotation
62
1
39
211
10
179.712199
20
282.773925
11
179.712199
21
282.773925
0
LINE
8
annotation
62
1
39
211
10
179.712199
20
282.773925
11
179.712358
21
282.773335
0
LINE
8
annotation
62
1
39
211
10
179.712358
20
282.773335
11
179.712611
21
282.772798
0
LINE
8
annotation
62
1
39
211
10
179.712611
20
282.772798
11
179.712949
21
282.772321
0
LINE
8
annotation
62
1
39
211
10
179.712949
20
282.772321
11
179.713359
21
282.771912
0
LINE
8
annotation
62
1
39
211
10
179.713359
20
282.771912
11
179.713832
21
282.771580
0
LINE
8
annotation
62
1
39
211
10
179.713832
20
282.771580
11
179.714354
21
282.771332
0
LINE
8
annotation
62
1
39
211
10
179.714354
20
282.771332
11
179.714917
21
282.771176
0
LINE
8
annotation
62
1
39
211
10
179.714917
20
282.771176
11
179.715507
21
282.771119
0
LINE
8
annotation
62
1
39
211
10
179.715507
20
282.771119
11
179.716115
21
282.771169
0
LINE
8
annotation
62
1
39
211
10
179.716115
20
282.771169
11
179.716115
21
282.771169
0
LINE
8
annotation
62
1
39
211
10
179.716115
20
282.771169
11
179.716705
21
282.771328
0
LINE
8
annotation
62
1
39
211
10
179.716705
20
282.771328
11
179.717243
21
282.771581
0
LINE
8
annotation
62
1
39
211
10
179.717243
20
282.771581
11
179.717719
21
282.771919
0
LINE
8
annotation
62
1
39
211
10
179.717719
20
282.771919
11
179.718127
21
282.772329
0
LINE
8
annotation
62
1
39
211
10
179.718127
20
282.772329
11
179.718458
21
282.772802
0
LINE
8
annotation
62
1
39
211
10
179.718458
20
282.772802
11
179.718706
21
282.773325
0
LINE
8
annotation
62
1
39
211
10
179.718706
20
282.773325
11
179.718862
21
282.773888
0
LINE
8
annotation
62
1
39
211
10
179.718862
20
282.773888
11
179.718918
21
282.774479
0
LINE
8
annotation
62
1
39
211
10
179.718918
20
282.774479
11
179.718867
21
282.775088
0
LINE
8
annotation
62
1
39
211
10
179.718867
20
282.775088
11
179.718577
21
282.776749
0
LINE
8
annotation
62
1
39
211
10
179.718577
20
282.776749
11
179.718577
21
282.776749
0
LINE
8
annotation
62
1
39
211
10
179.718577
20
282.776749
11
179.718419
21
282.777339
0
LINE
8
annotation
62
1
39
211
10
179.718419
20
282.777339
11
179.718166
21
282.777876
0
LINE
8
annotation
62
1
39
211
10
179.718166
20
282.777876
11
179.717829
21
282.778352
0
LINE
8
annotation
62
1
39
211
10
179.717829
20
282.778352
11
179.717419
21
282.778759
0
LINE
8
annotation
62
1
39
211
10
179.717419
20
282.778759
11
179.716948
21
282.779090
0
LINE
8
annotation
62
1
39
211
10
179.716948
20
282.779090
11
179.716425
21
282.779337
0
LINE
8
annotation
62
1
39
211
10
179.716425
20
282.779337
11
179.715863
21
282.779492
0
LINE
8
annotation
62
1
39
211
10
179.715863
20
282.779492
11
179.715272
21
282.779548
0
LINE
8
annotation
62
1
39
211
10
179.715272
20
282.779548
11
179.714663
21
282.779497
0
LINE
8
annotation
62
1
39
211
10
179.714663
20
282.779497
11
179.711329
21
282.778916
0
LINE
8
annotation
62
1
39
211
10
179.712691
20
282.768638
11
179.720198
21
282.769948
0
LINE
8
annotation
62
1
39
211
10
174.811229
20
271.796631
11
174.811229
21
271.796631
0
LINE
8
annotation
62
1
39
211
10
174.811229
20
271.796631
11
174.812038
21
271.796769
0
LINE
8
annotation
62
1
39
211
10
174.812038
20
271.796769
11
174.812804
21
271.797017
0
LINE
8
annotation
62
1
39
211
10
174.812804
20
271.797017
11
174.813518
21
271.797368
0
LINE
8
annotation
62
1
39
211
10
174.813518
20
271.797368
11
174.814170
21
271.797812
0
LINE
8
annotation
62
1
39
211
10
174.814170
20
271.797812
11
174.814753
21
271.798342
0
LINE
8
annotation
62
1
39
211
10
174.814753
20
271.798342
11
174.815256
21
271.798949
0
LINE
8
annotation
62
1
39
211
10
174.815256
20
271.798949
11
174.815671
21
271.799626
0
LINE
8
annotation
62
1
39
211
10
174.815671
20
271.799626
11
174.815990
21
271.800364
0
LINE
8
annotation
62
1
39
211
10
174.815990
20
271.800364
11
174.816202
21
271.801155
0
LINE
8
annotation
62
1
39
211
10
174.816202
20
271.801155
11
174.816960
21
271.805099
0
LINE
8
annotation
62
1
39
211
10
174.816960
20
271.805099
11
174.816960
21
271.805099
0
LINE
8
annotation
62
1
39
211
10
174.816960
20
271.805099
11
174.817008
21
271.805581
0
LINE
8
annotation
62
1
39
211
10
174.817008
20
271.805581
11
174.816971
21
271.806051
0
LINE
8
annotation
62
1
39
211
10
174.816971
20
271.806051
11
174.816855
21
271.806499
0
LINE
8
annotation
62
1
39
211
10
174.816855
20
271.806499
11
174.816666
21
271.806917
0
LINE
8
annotation
62
1
39
211
10
174.816666
20
271.806917
11
174.816409
21
271.807296
0
LINE
8
annotation
62
1
39
211
10
174.816409
20
271.807296
11
174.816091
21
271.807627
0
LINE
8
annotation
62
1
39
211
10
174.816091
20
271.807627
11
174.815718
21
271.807901
0
LINE
8
annotation
62
1
39
211
10
174.815718
20
271.807901
11
174.815296
21
271.808109
0
LINE
8
annotation
62
1
39
211
10
174.815296
20
271.808109
11
174.814832
21
271.808243
0
LINE
8
annotation
62
1
39
211
10
174.814832
20
271.808243
11
174.814832
21
271.808243
0
LINE
8
annotation
62
1
39
211
10
174.814832
20
271.808243
11
174.814350
21
271.808291
0
LINE
8
annotation
62
1
39
211
10
174.814350
20
271.808291
11
174.813880
21
271.808254
0
LINE
8
annotation
62
1
39
211
10
174.813880
20
271.808254
11
174.813432
21
271.808138
0
LINE
8
annotation
62
1
39
211
10
174.813432
20
271.808138
11
174.813014
21
271.807948
0
LINE
8
annotation
62
1
39
211
10
174.813014
20
271.807948
11
174.812636
21
271.807691
0
LINE
8
annotation
62
1
39
211
10
174.812636
20
271.807691
11
174.812305
21
271.807373
0
LINE
8
annotation
62
1
39
211
10
174.812305
20
271.807373
11
174.812031
21
271.807000
0
LINE
8
annotation
62
1
39
211
10
174.812031
20
271.807000
11
174.811823
21
271.806577
0
LINE
8
annotation
62
1
39
211
10
174.811823
20
271.806577
11
174.811690
21
271.806111
0
LINE
8
annotation
62
1
39
211
10
174.811690
20
271.806111
11
174.811438
21
271.804798
0
LINE
8
annotation
62
1
39
211
10
174.811438
20
271.804798
11
174.811438
21
271.804798
0
LINE
8
annotation
62
1
39
211
10
174.811438
20
271.804798
11
174.811389
21
271.804316
0
LINE
8
annotation
62
1
39
211
10
174.811389
20
271.804316
11
174.811426
21
271.803847
0
LINE
8
annotation
62
1
39
211
10
174.811426
20
271.803847
11
174.811542
21
271.803400
0
LINE
8
annotation
62
1
39
211
10
174.811542
20
271.803400
11
174.811731
21
271.802983
0
LINE
8
annotation
62
1
39
211
10
174.811731
20
271.802983
11
174.811988
21
271.802605
0
LINE
8
annotation
62
1
39
211
10
174.811988
20
271.802605
11
174.812306
21
271.802275
0
LINE
8
annotation
62
1
39
211
10
174.812306
20
271.802275
11
174.812679
21
271.802002
0
LINE
8
annotation
62
1
39
211
10
174.812679
20
271.802002
11
174.813101
21
271.801794
0
LINE
8
annotation
62
1
39
211
10
174.813101
20
271.801794
11
174.813567
21
271.801661
0
LINE
8
annotation
62
1
39
211
10
174.813567
20
271.801661
11
174.816202
21
271.801155
0
LINE
8
annotation
62
1
39
211
10
174.818082
20
271.809156
11
174.812149
21
271.810296
0
LINE
8
annotation
62
1
39
211
10
174.805811
20
271.809814
11
174.805811
21
271.809814
0
LINE
8
annotation
62
1
39
211
10
174.805811
20
271.809814
11
174.805555
21
271.809970
0
LINE
8
annotation
62
1
39
211
10
174.805555
20
271.809970
11
174.805282
21
271.810075
0
LINE
8
annotation
62
1
39
211
10
174.805282
20
271.810075
11
174.804999
21
271.810131
0
LINE
8
annotation
62
1
39
211
10
174.804999
20
271.810131
11
174.804712
21
271.810138
0
LINE
8
annotation
62
1
39
211
10
174.804712
20
271.810138
11
174.804429
21
271.810097
0
LINE
8
annotation
62
1
39
211
10
174.804429
20
271.810097
11
174.804156
21
271.810009
0
LINE
8
annotation
62
1
39
211
10
174.804156
20
271.810009
11
174.803899
21
271.809875
0
LINE
8
annotation
62
1
39
211
10
174.803899
20
271.809875
11
174.803667
21
271.809696
0
LINE
8
annotation
62
1
39
211
10
174.803667
20
271.809696
11
174.803465
21
271.809472
0
LINE
8
annotation
62
1
39
211
10
174.803465
20
271.809472
11
174.803465
21
271.809472
0
LINE
8
annotation
62
1
39
211
10
174.803465
20
271.809472
11
174.802803
21
271.808490
0
LINE
8
annotation
62
1
39
211
10
174.802803
20
271.808490
11
174.802248
21
271.807455
0
LINE
8
annotation
62
1
39
211
10
174.802248
20
271.807455
11
174.801804
21
271.806376
0
LINE
8
annotation
62
1
39
211
10
174.801804
20
271.806376
11
174.801471
21
271.805261
0
LINE
8
annotation
62
1
39
211
10
174.801471
20
271.805261
11
174.801252
21
271.804120
0
LINE
8
annotation
62
1
39
211
10
174.801252
20
271.804120
11
174.801148
21
271.802961
0
LINE
8
annotation
62
1
39
211
10
174.801148
20
271.802961
11
174.801161
21
271.801793
0
LINE
8
annotation
62
1
39
211
10
174.801161
20
271.801793
11
174.801292
21
271.800625
0
LINE
8
annotation
62
1
39
211
10
174.801292
20
271.800625
11
174.801543
21
271.799465
0
LINE
8
annotation
62
1
39
211
10
174.801543
20
271.799465
11
174.801543
21
271.799465
0
LINE
8
annotation
62
1
39
211
10
174.801543
20
271.799465
11
174.801580
21
271.799346
0
LINE
8
annotation
62
1
39
211
10
174.801580
20
271.799346
11
174.801626
21
271.799230
0
LINE
8
annotation
62
1
39
211
10
174.801626
20
271.799230
11
174.801680
21
271.799118
0
LINE
8
annotation
62
1
39
211
10
174.801680
20
271.799118
11
174.801743
21
271.799010
0
LINE
8
annotation
62
1
39
211
10
174.801743
20
271.799010
11
174.801812
21
271.798907
0
LINE
8
annotation
62
1
39
211
10
174.801812
20
271.798907
11
174.801889
21
271.798810
0
LINE
8
annotation
62
1
39
211
10
174.801889
20
271.798810
11
174.801973
21
271.798720
0
LINE
8
annotation
62
1
39
211
10
174.801973
20
271.798720
11
174.802062
21
271.798636
0
LINE
8
annotation
62
1
39
211
10
174.802062
20
271.798636
11
174.802158
21
271.798559
0
LINE
8
annotation
62
1
39
211
10
174.802158
20
271.798559
11
174.802158
21
271.798559
0
LINE
8
annotation
62
1
39
211
10
174.802158
20
271.798559
11
174.802416
21
271.798401
0
LINE
8
annotation
62
1
39
211
10
174.802416
20
271.798401
11
174.802690
21
271.798293
0
LINE
8
annotation
62
1
39
211
10
174.802690
20
271.798293
11
174.802974
21
271.798236
0
LINE
8
annotation
62
1
39
211
10
174.802974
20
271.798236
11
174.803262
21
271.798228
0
LINE
8
annotation
62
1
39
211
10
174.803262
20
271.798228
11
174.803545
21
271.798268
0
LINE
8
annotation
62
1
39
211
10
174.803545
20
271.798268
11
174.803819
21
271.798356
0
LINE
8
annotation
62
1
39
211
10
174.803819
20
271.798356
11
174.804075
21
271.798491
0
LINE
8
annotation
62
1
39
211
10
174.804075
20
271.798491
11
174.804308
21
271.798671
0
LINE
8
annotation
62
1
39
211
10
174.804308
20
271.798671
11
174.804510
21
271.798896
0
LINE
8
annotation
62
1
39
211
10
174.804510
20
271.798896
11
174.804510
21
271.798896
0
LINE
8
annotation
62
1
39
211
10
174.804510
20
271.798896
11
174.805170
21
271.799878
0
LINE
8
annotation
62
1
39
211
10
174.805170
20
271.799878
11
174.805723
21
271.800914
0
LINE
8
annotation
62
1
39
211
10
174.805723
20
271.800914
11
174.806166
21
271.801993
0
LINE
8
annotation
62
1
39
211
10
174.806166
20
271.801993
11
174.806498
21
271.803107
0
LINE
8
annotation
62
1
39
211
10
174.806498
20
271.803107
11
174.806717
21
271.804248
0
LINE
8
annotation
62
1
39
211
10
174.806717
20
271.804248
11
174.806822
21
271.805407
0
LINE
8
annotation
62
1
39
211
10
174.806822
20
271.805407
11
174.806810
21
271.806575
0
LINE
8
annotation
62
1
39
211
10
174.806810
20
271.806575
11
174.806681
21
271.807743
0
LINE
8
annotation
62
1
39
211
10
174.806681
20
271.807743
11
174.806432
21
271.808903
0
LINE
8
annotation
62
1
39
211
10
174.806432
20
271.808903
11
174.806432
21
271.808903
0
LINE
8
annotation
62
1
39
211
10
174.806432
20
271.808903
11
174.806395
21
271.809022
0
LINE
8
annotation
62
1
39
211
10
174.806395
20
271.809022
11
174.806349
21
271.809137
0
LINE
8
annotation
62
1
39
211
10
174.806349
20
271.809137
11
174.806295
21
271.809249
0
LINE
8
annotation
62
1
39
211
10
174.806295
20
271.809249
11
174.806234
21
271.809356
0
LINE
8
annotation
62
1
39
211
10
174.806234
20
271.809356
11
174.806164
21
271.809458
0
LINE
8
annotation
62
1
39
211
10
174.806164
20
271.809458
11
174.806086
21
271.809556
0
LINE
8
annotation
62
1
39
211
10
174.806086
20
271.809556
11
174.806002
21
271.809647
0
LINE
8
annotation
62
1
39
211
10
174.806002
20
271.809647
11
174.805910
21
271.809734
0
LINE
8
annotation
62
1
39
211
10
174.805910
20
271.809734
11
174.805811
21
271.809814
0
LINE
8
boundary
62
5
39
2
10
215.405274
20
266.524189
11
238.882031
21
266.524189
0
LINE
8
boundary
62
5
39
2
10
238.882031
20
266.524189
11
238.907431
21
266.498789
0
LINE
8
boundary
62
5
39
2
10
238.907431
20
266.498789
11
238.932831
21
266.524189
0
LINE
8
boundary
62
5
39
2
10
238.932831
20
266.524189
11
262.409588
21
266.524189
0
LINE
8
boundary
62
5
39
2
10
262.409588
20
266.524189
11
257.481235
21
277.461748
0
LINE
8
boundary
62
5
39
2
10
257.481235
20
277.461748
11
257.493958
21
277.495341
0
LINE
8
boundary
62
5
39
2
10
257.493958
20
277.495341
11
257.460366
21
277.508064
0
LINE
8
boundary
62
5
39
2
10
257.460366
20
277.508064
11
252.532014
21
288.445623
0
LINE
8
boundary
62
5
39
2
10
252.532014
20
288.445623
11
233.990516
21
277.497820
0
LINE
8
boundary
62
5
39
2
10
233.990516
20
277.497820
11
233.955730
21
277.506778
0
LINE
8
boundary
62
5
39
2
10
233.955730
20
277.506778
11
233.946772
21
277.471992
0
LINE
8
boundary
62
5
39
2
10
233.946772
20
277.471992
11
215.405274
21
266.524189
0
LINE
8
annotation
62
1
39
211
10
246.015336
20
272.586826
11
247.332765
21
278.512839
0
LINE
8
annotation
62
1
39
211
10
247.332765
20
278.512839
11
244.697536
21
278.512839
0
LINE
8
annotation
62
1
39
211
10
247.332765
20
275.873894
11
246.015336
21
275.873894
0
LINE
8
annotation
62
1
39
211
10
250.212247
20
272.586826
11
250.212247
21
272.586826
0
LINE
8
annotation
62
1
39
211
10
250.212247
20
272.586826
11
250.588568
21
272.727062
0
LINE
8
annotation
62
1
39
211
10
250.588568
20
272.727062
11
250.933984
21
272.916615
0
LINE
8
annotation
62
1
39
211
10
250.933984
20
272.916615
11
251.244925
21
273.150658
0
LINE
8
annotation
62
1
39
211
10
251.244925
20
273.150658
11
251.517822
21
273.424359
0
LINE
8
annotation
62
1
39
211
10
251.517822
20
273.424359
11
251.749106
21
273.732889
0
LINE
8
annotation
62
1
39
211
10
251.749106
20
273.732889
11
251.935207
21
274.071419
0
LINE
8
annotation
62
1
39
211
10
251.935207
20
274.071419
11
252.072556
21
274.435119
0
LINE
8
annotation
62
1
39
211
10
252.072556
20
274.435119
11
252.157582
21
274.819159
0
LINE
8
annotation
62
1
39
211
10
252.157582
20
274.819159
11
252.186718
21
275.218710
0
LINE
8
annotation
62
1
39
211
10
252.186718
20
275.218710
11
252.186718
21
277.195039
0
LINE
8
annotation
62
1
39
211
10
252.186718
20
277.195039
11
252.186718
21
277.195039
0
LINE
8
annotation
62
1
39
211
10
252.186718
20
277.195039
11
252.165533
21
277.431778
0
LINE
8
annotation
62
1
39
211
10
252.165533
20
277.431778
11
252.104447
21
277.654652
0
LINE
8
annotation
62
1
39
211
10
252.104447
20
277.654652
11
252.007165
21
277.859926
0
LINE
8
annotation
62
1
39
211
10
252.007165
20
277.859926
11
251.877391
21
278.043866
0
LINE
8
annotation
62
1
39
211
10
251.877391
20
278.043866
11
251.718828
21
278.202737
0
LINE
8
annotation
62
1
39
211
10
251.718828
20
278.202737
11
251.535182
21
278.332805
0
LINE
8
annotation
62
1
39
211
10
251.535182
20
278.332805
11
251.330154
21
278.430334
0
LINE
8
annotation
62
1
39
211
10
251.330154
20
278.430334
11
251.107451
21
278.491590
0
LINE
8
annotation
62
1
39
211
10
251.107451
20
278.491590
11
250.870776
21
278.512839
0
LINE
8
annotation
62
1
39
211
10
250.870776
20
278.512839
11
250.870776
21
278.512839
0
LINE
8
annotation
62
1
39
211
10
250.870776
20
278.512839
11
250.634590
21
278.491590
0
LINE
8
annotation
62
1
39
211
10
250.634590
20
278.491590
11
250.412147
21
278.430334
0
LINE
8
annotation
62
1
39
211
10
250.412147
20
278.430334
11
250.207196
21
278.332805
0
LINE
8
annotation
62
1
39
211
10
250.207196
20
278.332805
11
250.023488
21
278.202737
0
LINE
8
annotation
62
1
39
211
10
250.023488
20
278.202737
11
249.864772
21
278.043866
0
LINE
8
annotation
62
1
39
211
10
249.864772
20
278.043866
11
249.734799
21
277.859926
0
LINE
8
annotation
62
1
39
211
10
249.734799
20
277.859926
11
249.637318
21
277.654652
0
LINE
8
annotation
62
1
39
211
10
249.637318
20
277.654652
11
249.576080
21
277.431778
0
LINE
8
annotation
62
1
39
211
10
249.576080
20
277.431778
11
249.554834
21
277.195039
0
LINE
8
annotation
62
1
39
211
10
249.554834
20
277.195039
11
249.554834
21
276.536139
0
LINE
8
annotation
62
1
39
211
10
249.554834
20
276.536139
11
249.554834
21
276.536139
0
LINE
8
annotation
62
1
39
211
10
249.554834
20
276.536139
11
249.576080
21
276.299412
0
LINE
8
annotation
62
1
39
211
10
249.576080
20
276.299412
11
249.637318
21
276.076572
0
LINE
8
annotation
62
1
39
211
10
249.637318
20
276.076572
11
249.734799
21
275.871347
0
LINE
8
annotation
62
1
39
211
10
249.734799
20
275.871347
11
249.864772
21
275.687466
0
LINE
8
annotation
62
1
39
211
10
249.864772
20
275.687466
11
250.023488
21
275.528657
0
LINE
8
annotation
62
1
39
211
10
250.023488
20
275.528657
11
250.207196
21
275.398648
0
LINE
8
annotation
62
1
39
211
10
250.207196
20
275.398648
11
250.412147
21
275.301168
0
LINE
8
annotation
62
1
39
211
10
250.412147
20
275.301168
11
250.634590
21
275.239946
0
LINE
8
annotation
62
1
39
211
10
250.634590
20
275.239946
11
250.870776
21
275.218710
0
LINE
8
annotation
62
1
39
211
10
250.870776
20
275.218710
11
252.186718
21
275.218710
0
LINE
8
annotation
62
1
39
211
10
249.390388
20
271.846074
11
252.353394
21
271.846074
0
LINE
8
annotation
62
1
39
211
10
238.911800
20
266.531505
11
238.911800
21
266.516874
0
LINE
8
annotation
62
1
39
211
10
238.911800
20
266.516874
11
238.915052
21
266.520127
0
LINE
8
annotation
62
1
39
211
10
238.899814
20
266.531505
11
238.906312
21
266.531505
0
LINE
8
annotation
62
1
39
211
10
238.906312
20
266.531505
11
238.900308
21
266.521839
0
LINE
8
annotation
62
1
39
211
10
238.900308
20
266.521839
11
238.900308
21
266.521839
0
LINE
8
annotation
62
1
39
211
10
238.900308
20
266.521839
11
238.900300
21
266.521830
0
LINE
8
annotation
62
1
39
211
10
238.900300
20
266.521830
11
238.900293
21
266.521821
0
LINE
8
annotation
62
1
39
211
10
238.900293
20
266.521821
11
238.900287
21
266.521812
0
LINE
8
annotation
62
1
39
211
10
238.900287
20
266.521812
11
238.900280
21
266.521802
0
LINE
8
annotation
62
1
39
211
10
238.900280
20
266.521802
11
238.900274
21
266.521793
0
LINE
8
annotation
62
1
39
211
10
238.900274
20
266.521793
11
238.900268
21
266.521783
0
LINE
8
annotation
62
1
39
211
10
238.900268
20
266.521783
11
238.900262
21
266.521772
0
LINE
8
annotation
62
1
39
211
10
238.900262
20
266.521772
11
238.900256
21
266.521761
0
LINE
8
annotation
62
1
39
211
10
238.900256
20
266.521761
11
238.900250
21
266.521750
0
LINE
8
annotation
62
1
39
211
10
238.900250
20
266.521750
11
238.900250
21
266.521750
0
LINE
8
annotation
62
1
39
211
10
238.900250
20
266.521750
11
238.900002
21
266.521217
0
LINE
8
annotation
62
1
39
211
10
238.900002
20
266.521217
11
238.899857
21
266.520666
0
LINE
8
annotation
62
1
39
211
10
238.899857
20
266.520666
11
238.899812
21
266.520107
0
LINE
8
annotation
62
1
39
211
10
238.899812
20
266.520107
11
238.899862
21
266.519553
0
LINE
8
annotation
62
1
39
211
10
238.899862
20
266.519553
11
238.900006
21
266.519018
0
LINE
8
annotation
62
1
39
211
10
238.900006
20
266.519018
11
238.900238
21
266.518513
0
LINE
8
annotation
62
1
39
211
10
238.900238
20
266.518513
11
238.900555
21
266.518051
0
LINE
8
annotation
62
1
39
211
10
238.900555
20
266.518051
11
238.900954
21
266.517644
0
LINE
8
annotation
62
1
39
211
10
238.900954
20
266.517644
11
238.901432
21
266.517305
0
LINE
8
annotation
62
1
39
211
10
238.901432
20
266.517305
11
238.901432
21
266.517305
0
LINE
8
annotation
62
1
39
211
10
238.901432
20
266.517305
11
238.901965
21
266.517061
0
LINE
8
annotation
62
1
39
211
10
238.901965
20
266.517061
11
238.902518
21
266.516918
0
LINE
8
annotation
62
1
39
211
10
238.902518
20
266.516918
11
238.903077
21
266.516874
0
LINE
8
annotation
62
1
39
211
10
238.903077
20
266.516874
11
238.903630
21
266.516925
0
LINE
8
annotation
62
1
39
211
10
238.903630
20
266.516925
11
238.904165
21
266.517069
0
LINE
8
annotation
62
1
39
211
10
238.904165
20
266.517069
11
238.904670
21
266.517301
0
LINE
8
annotation
62
1
39
211
10
238.904670
20
266.517301
11
238.905131
21
266.517620
0
LINE
8
annotation
62
1
39
211
10
238.905131
20
266.517620
11
238.905538
21
266.518020
0
LINE
8
annotation
62
1
39
211
10
238.905538
20
266.518020
11
238.905876
21
266.518501
0
LINE
8
annotation
62
1
39
211
10
238.905876
20
266.518501
11
238.906303
21
266.519319
0
LINE
8
annotation
62
1
39
211
10
257.465543
20
277.486251
11
257.465543
21
277.486251
0
LINE
8
annotation
62
1
39
211
10
257.465543
20
277.486251
11
257.465011
21
277.485951
0
LINE
8
annotation
62
1
39
211
10
257.465011
20
277.485951
11
257.464553
21
277.485572
0
LINE
8
annotation
62
1
39
211
10
257.464553
20
277.485572
11
257.464176
21
277.485127
0
LINE
8
annotation
62
1
39
211
10
257.464176
20
277.485127
11
257.463884
21
277.484629
0
LINE
8
annotation
62
1
39
211
10
257.463884
20
277.484629
11
257.463680
21
277.484090
0
LINE
8
annotation
62
1
39
211
10
257.463680
20
277.484090
11
257.463571
21
277.483522
0
LINE
8
annotation
62
1
39
211
10
257.463571
20
277.483522
11
257.463560
21
277.482939
0
LINE
8
annotation
62
1
39
211
10
257.463560
20
277.482939
11
257.463652
21
277.482353
0
LINE
8
annotation
62
1
39
211
10
257.463652
20
277.482353
11
257.463852
21
277.481777
0
LINE
8
annotation
62
1
39
211
10
257.463852
20
277.481777
11
257.463852
21
277.481777
0
LINE
8
annotation
62
1
39
211
10
257.463852
20
277.481777
11
257.464151
21
277.481246
0
LINE
8
annotation
62
1
39
211
10
257.464151
20
277.481246
11
257.464529
21
277.480788
0
LINE
8
annotation
62
1
39
211
10
257.464529
20
277.480788
11
257.464973
21
277.480410
0
LINE
8
annotation
62
1
39
211
10
257.464973
20
277.480410
11
257.465471
21
277.480116
0
LINE
8
annotation
62
1
39
211
10
257.465471
20
277.480116
11
257.466009
21
277.479912
0
LINE
8
annotation
62
1
39
211
10
257.466009
20
277.479912
11
257.466577
21
277.479800
0
LINE
8
annotation
62
1
39
211
10
257.466577
20
277.479800
11
257.467160
21
277.479788
0
LINE
8
annotation
62
1
39
211
10
257.467160
20
277.479788
11
257.467746
21
277.479880
0
LINE
8
annotation
62
1
39
211
10
257.467746
20
277.479880
11
257.468323
21
277.480080
0
LINE
8
annotation
62
1
39
211
10
257.468323
20
277.480080
11
257.469861
21
277.480773
0
LINE
8
annotation
62
1
39
211
10
257.469861
20
277.480773
11
257.469861
21
277.480773
0
LINE
8
annotation
62
1
39
211
10
257.469861
20
277.480773
11
257.470393
21
277.481072
0
LINE
8
annotation
62
1
39
211
10
257.470393
20
277.481072
11
257.470851
21
277.481451
0
LINE
8
annotation
62
1
39
211
10
257.470851
20
277.481451
11
257.471229
21
277.481897
0
LINE
8
annotation
62
1
39
211
10
257.471229
20
277.481897
11
257.471523
21
277.482396
0
LINE
8
annotation
62
1
39
211
10
257.471523
20
277.482396
11
257.471728
21
277.482935
0
LINE
8
annotation
62
1
39
211
10
257.471728
20
277.482935
11
257.471839
21
277.483503
0
LINE
8
annotation
62
1
39
211
10
257.471839
20
277.483503
11
257.471851
21
277.484087
0
LINE
8
annotation
62
1
39
211
10
257.471851
20
277.484087
11
257.471759
21
277.484673
0
LINE
8
annotation
62
1
39
211
10
257.471759
20
277.484673
11
257.471559
21
277.485250
0
LINE
8
annotation
62
1
39
211
10
257.471559
20
277.485250
11
257.471559
21
277.485250
0
LINE
8
annotation
62
1
39
211
10
257.471559
20
277.485250
11
257.471260
21
277.485781
0
LINE
8
annotation
62
1
39
211
10
257.471260
20
277.485781
11
257.470881
21
277.486238
0
LINE
8
annotation
62
1
39
211
10
257.470881
20
277.486238
11
257.470436
21
277.486616
0
LINE
8
annotation
62
1
39
211
10
257.470436
20
277.486616
11
257.469937
21
277.486909
0
LINE
8
annotation
62
1
39
211
10
257.469937
20
277.486909
11
257.469397
21
277.487113
0
LINE
8
annotation
62
1
39
211
10
257.469397
20
277.487113
11
257.468828
21
277.487224
0
LINE
8
annotation
62
1
39
211
10
257.468828
20
277.487224
11
257.468244
21
277.487236
0
LINE
8
annotation
62
1
39
211
10
257.468244
20
277.487236
11
257.467657
21
277.487144
0
LINE
8
annotation
62
1
39
211
10
257.467657
20
277.487144
11
257.467080
21
277.486943
0
LINE
8
annotation
62
1
39
211
10
257.467080
20
277.486943
11
257.465543
21
277.486251
0
LINE
8
annotation
62
1
39
211
10
257.476039
20
277.483557
11
257.476039
21
277.483557
0
LINE
8
annotation
62
1
39
211
10
257.476039
20
277.483557
11
257.476569
21
277.483855
0
LINE
8
annotation
62
1
39
211
10
257.476569
20
277.483855
11
257.477025
21
277.484233
0
LINE
8
annotation
62
1
39
211
10
257.477025
20
277.484233
11
257.477402
21
277.484678
0
LINE
8
annotation
62
1
39
211
10
257.477402
20
277.484678
11
257.477695
21
277.485177
0
LINE
8
annotation
62
1
39
211
10
257.477695
20
277.485177
11
257.477899
21
277.485716
0
LINE
8
annotation
62
1
39
211
10
257.477899
20
277.485716
11
257.478010
21
277.486284
0
LINE
8
annotation
62
1
39
211
10
257.478010
20
277.486284
11
257.478021
21
277.486868
0
LINE
8
annotation
62
1
39
211
10
257.478021
20
277.486868
11
257.477930
21
277.487454
0
LINE
8
annotation
62
1
39
211
10
257.477930
20
277.487454
11
257.477730
21
277.488030
0
LINE
8
annotation
62
1
39
211
10
257.477730
20
277.488030
11
257.477730
21
277.488030
0
LINE
8
annotation
62
1
39
211
10
257.477730
20
277.488030
11
257.477431
21
277.488562
0
LINE
8
annotation
62
1
39
211
10
257.477431
20
277.488562
11
257.477052
21
277.489019
0
LINE
8
annotation
62
1
39
211
10
257.477052
20
277.489019
11
257.476607
21
277.489397
0
LINE
8
annotation
62
1
39
211
10
257.476607
20
277.489397
11
257.476108
21
277.489690
0
LINE
8
annotation
62
1
39
211
10
257.476108
20
277.489690
11
257.475569
21
277.489895
0
LINE
8
annotation
62
1
39
211
10
257.475569
20
277.489895
11
257.475002
21
277.490005
0
LINE
8
annotation
62
1
39
211
10
257.475002
20
277.490005
11
257.474419
21
277.490018
0
LINE
8
annotation
62
1
39
211
10
257.474419
20
277.490018
11
257.473834
21
277.489927
0
LINE
8
annotation
62
1
39
211
10
257.473834
20
277.489927
11
257.473259
21
277.489728
0
LINE
8
annotation
62
1
39
211
10
257.473259
20
277.489728
11
257.473259
21
277.489728
0
LINE
8
annotation
62
1
39
211
10
257.473259
20
277.489728
11
257.472726
21
277.489428
0
LINE
8
annotation
62
1
39
211
10
257.472726
20
277.489428
11
257.472268
21
277.489049
0
LINE
8
annotation
62
1
39
211
10
257.472268
20
277.489049
11
257.471890
21
277.488603
0
LINE
8
annotation
62
1
39
211
10
257.471890
20
277.488603
11
257.471596
21
277.488104
0
LINE
8
annotation
62
1
39
211
10
257.471596
20
277.488104
11
257.471391
21
277.487564
0
LINE
8
annotation
62
1
39
211
10
257.471391
20
277.487564
11
257.471280
21
277.486996
0
LINE
8
annotation
62
1
39
211
10
257.471280
20
277.486996
11
257.471268
21
277.486412
0
LINE
8
annotation
62
1
39
211
10
257.471268
20
277.486412
11
257.471359
21
277.485826
0
LINE
8
annotation
62
1
39
211
10
257.471359
20
277.485826
11
257.471559
21
277.485250
0
LINE
8
annotation
62
1
39
211
10
257.471559
20
277.485250
11
257.471559
21
277.485250
0
LINE
8
annotation
62
1
39
211
10
257.471559
20
277.485250
11
257.471859
21
277.484719
0
LINE
8
annotation
62
1
39
211
10
257.471859
20
277.484719
11
257.472237
21
277.484262
0
LINE
8
annotation
62
1
39
211
10
257.472237
20
277.484262
11
257.472682
21
277.483884
0
LINE
8
annotation
62
1
39
211
10
257.472682
20
277.483884
11
257.473181
21
277.483591
0
LINE
8
annotation
62
1
39
211
10
257.473181
20
277.483591
11
257.473722
21
277.483387
0
LINE
8
annotation
62
1
39
211
10
257.473722
20
277.483387
11
257.474290
21
277.483276
0
LINE
8
annotation
62
1
39
211
10
257.474290
20
277.483276
11
257.474874
21
277.483264
0
LINE
8
annotation
62
1
39
211
10
257.474874
20
277.483264
11
257.475462
21
277.483356
0
LINE
8
annotation
62
1
39
211
10
257.475462
20
277.483356
11
257.476039
21
277.483557
0
LINE
8
annotation
62
1
39
211
10
233.967455
20
277.477202
11
233.963633
21
277.488949
0
LINE
8
annotation
62
1
39
211
10
233.963633
20
277.488949
11
233.959015
21
277.486223
0
LINE
8
annotation
62
1
39
211
10
233.966363
20
277.484325
11
233.964054
21
277.482962
0
LINE
8
annotation
62
1
39
211
10
233.970991
20
277.493293
11
233.970991
21
277.493293
0
LINE
8
annotation
62
1
39
211
10
233.970991
20
277.493293
11
233.970476
21
277.492656
0
LINE
8
annotation
62
1
39
211
10
233.970476
20
277.492656
11
233.970067
21
277.491964
0
LINE
8
annotation
62
1
39
211
10
233.970067
20
277.491964
11
233.969765
21
277.491231
0
LINE
8
annotation
62
1
39
211
10
233.969765
20
277.491231
11
233.969570
21
277.490467
0
LINE
8
annotation
62
1
39
211
10
233.969570
20
277.490467
11
233.969484
21
277.489686
0
LINE
8
annotation
62
1
39
211
10
233.969484
20
277.489686
11
233.969508
21
277.488899
0
LINE
8
annotation
62
1
39
211
10
233.969508
20
277.488899
11
233.969645
21
277.488119
0
LINE
8
annotation
62
1
39
211
10
233.969645
20
277.488119
11
233.969894
21
277.487356
0
LINE
8
annotation
62
1
39
211
10
233.969894
20
277.487356
11
233.970257
21
277.486624
0
LINE
8
annotation
62
1
39
211
10
233.970257
20
277.486624
11
233.972295
21
277.483173
0
LINE
8
annotation
62
1
39
211
10
233.972295
20
277.483173
11
233.972295
21
277.483173
0
LINE
8
annotation
62
1
39
211
10
233.972295
20
277.483173
11
233.972577
21
277.482780
0
LINE
8
annotation
62
1
39
211
10
233.972577
20
277.482780
11
233.972915
21
277.482453
0
LINE
8
annotation
62
1
39
211
10
233.972915
20
277.482453
11
233.973298
21
277.482194
0
LINE
8
annotation
62
1
39
211
10
233.973298
20
277.482194
11
233.973716
21
277.482007
0
LINE
8
annotation
62
1
39
211
10
233.973716
20
277.482007
11
233.974159
21
277.481893
0
LINE
8
annotation
62
1
39
211
10
233.974159
20
277.481893
11
233.974615
21
277.481855
0
LINE
8
annotation
62
1
39
211
10
233.974615
20
277.481855
11
233.975075
21
277.481896
0
LINE
8
annotation
62
1
39
211
10
233.975075
20
277.481896
11
233.975528
21
277.482019
0
LINE
8
annotation
62
1
39
211
10
233.975528
20
277.482019
11
233.975964
21
277.482226
0
LINE
8
annotation
62
1
39
211
10
233.975964
20
277.482226
11
233.975964
21
277.482226
0
LINE
8
annotation
62
1
39
211
10
233.975964
20
277.482226
11
233.976357
21
277.482508
0
LINE
8
annotation
62
1
39
211
10
233.976357
20
277.482508
11
233.976683
21
277.482846
0
LINE
8
annotation
62
1
39
211
10
233.976683
20
277.482846
11
233.976942
21
277.483229
0
LINE
8
annotation
62
1
39
211
10
233.976942
20
277.483229
11
233.977129
21
277.483647
0
LINE
8
annotation
62
1
39
211
10
233.977129
20
277.483647
11
233.977243
21
277.484089
0
LINE
8
annotation
62
1
39
211
10
233.977243
20
277.484089
11
233.977280
21
277.484545
0
LINE
8
annotation
62
1
39
211
10
233.977280
20
277.484545
11
233.977238
21
277.485006
0
LINE
8
annotation
62
1
39
211
10
233.977238
20
277.485006
11
233.977114
21
277.485459
0
LINE
8
annotation
62
1
39
211
10
233.977114
20
277.485459
11
233.976907
21
277.485896
0
LINE
8
annotation
62
1
39
211
10
233.976907
20
277.485896
11
233.976228
21
277.487045
0
LINE
8
annotation
62
1
39
211
10
233.976228
20
277.487045
11
233.976228
21
277.487045
0
LINE
8
annotation
62
1
39
211
10
233.976228
20
277.487045
11
233.975947
21
277.487437
0
LINE
8
annotation
62
1
39
211
10
233.975947
20
277.487437
11
233.975609
21
277.487764
0
LINE
8
annotation
62
1
39
211
10
233.975609
20
277.487764
11
233.975227
21
277.488022
0
LINE
8
annotation
62
1
39
211
10
233.975227
20
277.488022
11
233.974810
21
277.488209
0
LINE
8
annotation
62
1
39
211
10
233.974810
20
277.488209
11
233.974368
21
277.488323
0
LINE
8
annotation
62
1
39
211
10
233.974368
20
277.488323
11
233.973913
21
277.488359
0
LINE
8
annotation
62
1
39
211
10
233.973913
20
277.488359
11
233.973453
21
277.488317
0
LINE
8
annotation
62
1
39
211
10
233.973453
20
277.488317
11
233.973000
21
277.488194
0
LINE
8
annotation
62
1
39
211
10
233.973000
20
277.488194
11
233.972563
21
277.487986
0
LINE
8
annotation
62
1
39
211
10
233.972563
20
277.487986
11
233.970257
21
277.486624
0
LINE
8
annotation
62
1
39
211
10
233.974136
20
277.479396
11
233.979328
21
277.482462
0
LINE
8
frame
62
5
39
2
10
0.000000
20
0.000000
11
200.000000
21
0.000000
0
LINE
8
frame
62
5
39
2
10
200.000000
20
0.000000
11
200.000000
21
296.926000
0
LINE
8
frame
62
5
39
2
10
200.000000
20
296.926000
11
0.000000
21
296.926000
0
LINE
8
frame
62
5
39
2
10
0.000000
20
296.926000
11
0.000000
21
0.000000
0
ENDSEC
0
EOF
