{
    "asset" : {
        "generator" : "Khronos glTF Blender I/O v3.2.40",
        "version" : "2.0"
    },
    "scene" : 0,
    "scenes" : [
        {
            "name" : "Scene",
            "nodes" : [
                0
            ]
        }
    ],
    "nodes" : [
        {
            "mesh" : 0,
            "name" : "heptagon",
            "rotation" : [
                0.7071068286895752,
                0,
                0,
                0.7071067094802856
            ],
            "scale" : [
                0.10000041127204895,
                0.10000000149011612,
                0.10000000149011612
            ]
        }
    ],
    "materials" : [
        {
            "doubleSided" : true,
            "name" : "Default OBJ",
            "pbrMetallicRoughness" : {
                "baseColorFactor" : [
                    0.800000011920929,
                    0.800000011920929,
                    0.800000011920929,
                    1
                ],
                "metallicFactor" : 0,
                "roughnessFactor" : 0.5
            }
        }
    ],
    "meshes" : [
        {
            "name" : "heptagon",
            "primitives" : [
                {
                    "attributes" : {
                        "POSITION" : 0,
                        "NORMAL" : 1
                    },
                    "indices" : 2,
                    "material" : 0
                }
            ]
        }
    ],
    "accessors" : [
        {
            "bufferView" : 0,
            "componentType" : 5126,
            "count" : 445,
            "max" : [
                502.0878601074219,
                8.678524912597574e-12,
                464.7417297363281
            ],
            "min" : [
                -502.0879821777344,
                -214.99998474121094,
                -515.0000610351562
            ],
            "type" : "VEC3"
        },
        {
            "bufferView" : 1,
            "componentType" : 5126,
            "count" : 445,
            "type" : "VEC3"
        },
        {
            "bufferView" : 2,
            "componentType" : 5123,
            "count" : 717,
            "type" : "SCALAR"
        }
    ],
    "bufferViews" : [
        {
            "buffer" : 0,
            "byteLength" : 5340,
            "byteOffset" : 0
        },
        {
            "buffer" : 0,
            "byteLength" : 5340,
            "byteOffset" : 5340
        },
        {
            "buffer" : 0,
            "byteLength" : 1434,
            "byteOffset" : 10680
        }
    ],
    "buffers" : [
        {
            "byteLength" : 12116,
            "uri" : "data:application/octet-stream;base64,"
        }
    ]
}
